<svg xmlns="http://www.w3.org/2000/svg" xmlns:xlink="http://www.w3.org/1999/xlink" xmlns:inkscape="http://www.inkscape.org/namespaces/inkscape" version="1.1" width="228" height="369" viewBox="0 0 228 369">
<defs>
<path id="font_1_54" d="M.6100006 .45477296 .58200076 .6796875H.032989503V.64868167H.056991579C.13398743 .64868167 .13598633 .63768008 .13598633 .6016998V.07797241C.13598633 .041992189 .13398743 .0309906 .056991579 .0309906H.032989503V0C.067993167 .0029907227 .1459961 .0029907227 .18499756 .0029907227 .22599793 .0029907227 .31698609 .0029907227 .35299684 0V.0309906H.31999208C.22499085 .031188965 .22499085 .044189454 .22499085 .079193118V.3251953H.31098939C.40699769 .3251953 .4169922 .29318238 .4169922 .20819092H.44198609V.4731903H.4169922C.4169922 .38919068 .40699769 .3561859 .31098939 .3561859H.22499085V.6091919C.22499085 .64167788 .22698975 .64868167 .27398683 .64868167H.3939972C.5439911 .64868167 .56900027 .5926819 .58499148 .4546814L.6100006 .45477296Z"/>
<path id="font_1_79" d="M.776001 .15284729C.776001 .17285156 .7569885 .17285156 .74198916 .17285156H.5309906L.57099917 .32714845H.74198916C.7569885 .32714845 .776001 .32714845 .776001 .34713746 .776001 .36714173 .7569885 .36714173 .7429962 .36714173H.58299258L.6609955 .65631106C.6619873 .65830996 .6649933 .6703186 .6649933 .6743164 .6649933 .685318 .6559906 .69433596 .644989 .69433596 .6289978 .69433596 .6259918 .6813202 .6230011 .6703186L.5419922 .36714173H.35398866L.43199159 .65631106C.43299867 .65830996 .43598939 .6703186 .43598939 .6743164 .43598939 .685318 .4269867 .69433596 .41600038 .69433596 .3999939 .69433596 .39698792 .6813202 .3939972 .6703186L.31298829 .36714173H.08898926C.07499695 .36714173 .055999757 .36714173 .055999757 .34713746 .055999757 .32714845 .07499695 .32714845 .08999634 .32714845H.30099488L.26098634 .17285156H.08999634C.07499695 .17285156 .055999757 .17285156 .055999757 .15284729 .055999757 .13284302 .07499695 .13284302 .08898926 .13284302H.24899292L.17098999-.1563263C.16999817-.1583252 .16699219-.17033386 .16699219-.17433167 .16699219-.18533325 .17599488-.19433594 .18699646-.19433594 .20298767-.19433594 .20599365-.18133545 .20899964-.17033386L.2899933 .13284302H.47799684L.3999939-.1563263C.39898683-.1583252 .3959961-.17033386 .3959961-.17433167 .3959961-.18533325 .40499879-.19433594 .41600038-.19433594 .43199159-.19433594 .43499757-.18133545 .43798829-.17033386L.5189972 .13284302H.7429962C.7569885 .13284302 .776001 .13284302 .776001 .15284729M.5299988 .32714845 .48999024 .17285156H.3019867L.34199525 .32714845H.5299988Z"/>
<path id="font_1_27" d="M.71699526 0V.0309906H.69898989C.6389923 .0309906 .625 .037979127 .6139984 .07095337L.397995 .6958008C.3929901 .7088165 .3909912 .7158203 .375 .7158203 .35899354 .7158203 .35598756 .70980837 .35099793 .6958008L.14399719 .09791565C.12599182 .04698181 .085998538 .03199768 .03199768 .0309906V0L.13398743 .0029907227 .24899292 0V.0309906C.19898987 .0309906 .17399597 .05596924 .17399597 .0819397 .17399597 .08493042 .1749878 .09492493 .17599488 .09692383L.22200012 .2277832H.46899415L.5219879 .07495117C.522995 .07095337 .5249939 .064956668 .5249939 .060958864 .5249939 .0309906 .46899415 .0309906 .44198609 .0309906V0C.47799684 .0029907227 .5479889 .0029907227 .58599856 .0029907227L.71699526 0M.45799256 .25878907H.23298645L.34498597 .58380129 .45799256 .25878907Z"/>
<path id="font_1_42" d="M.6649933 .23271179C.6649933 .24272156 .6649933 .24972534 .6519928 .24972534 .6409912 .24972534 .6409912 .24372864 .6399994 .23371887 .6319885 .09059143 .5249939 .008529663 .41600038 .008529663 .35499574 .008529663 .15899658 .042556764 .15899658 .34080506 .15899658 .64004519 .35398866 .67407229 .4149933 .67407229 .5239868 .67407229 .61299136 .58299258 .6329956 .4368744 .6349945 .42286683 .6349945 .41986085 .6489868 .41986085 .6649933 .41986085 .6649933 .42286683 .6649933 .44387818V.68107607C.6649933 .69807437 .6649933 .7050781 .6539917 .7050781 .6499939 .7050781 .6459961 .7050781 .6380005 .69306948L.58799746 .61901858C.5509949 .6550598 .5 .7050781 .4039917 .7050781 .21699524 .7050781 .055999757 .5459595 .055999757 .34179688 .055999757 .1346283 .21798706-.022460938 .4039917-.022460938 .5669861-.022460938 .6649933 .116622928 .6649933 .23271179Z"/>
<path id="font_1_49" d="M.6519928 .2579193H.6269989C.60198977 .10397339 .57899478 .0309906 .40699769 .0309906H.27398683C.22698975 .0309906 .22499085 .037994386 .22499085 .07098389V.33789063H.31498719C.4119873 .33789063 .4229889 .30589295 .4229889 .220932H.44799806V.48606874H.4229889C.4229889 .39994813 .4119873 .36888124 .31498719 .36888124H.22499085V.6087799C.22499085 .6416931 .22698975 .64868167 .27398683 .64868167H.40299989C.55599978 .64868167 .58299258 .59381106 .598999 .45507813H.6239929L.59599307 .6796875H.032989503V.64868167H.056991579C.13398743 .64868167 .13598633 .6377106 .13598633 .6017914V.07797241C.13598633 .041992189 .13398743 .0309906 .056991579 .0309906H.032989503V0H.6100006L.6519928 .2579193Z"/>
<path id="font_2_1" d="M.07998657 .7220001C.07998657 .7409973 .07998657 .75 .067993167 .75 .054992677 .75 .054992677 .74198916 .054992677 .7220001V.0055389406C.054992677-.014465332 .054992677-.022460938 .067993167-.022460938 .07798767-.022460938 .18199158 .049560548 .23699951 .10862732 .2919922 .16769409 .33299256 .23776245 .33299256 .32084657 .33299256 .39492799 .27799989 .45996095 .19599915 .45996095 .13999939 .45996095 .099990848 .43695069 .07998657 .41793824V.7220001M.07998657 .342865C.07998657 .3658905 .07998657 .3869171 .11299133 .40592958 .14399719 .4239502 .18699646 .4239502 .18798828 .4239502 .23399353 .4239502 .2519989 .3698883 .2519989 .32084657 .2519989 .16268921 .10398865 .03555298 .07998657 .015533447V.342865Z"/>
<path id="font_1_46" d="M.70700076 .33580018C.70700076 .52568057 .57199099 .6826172 .40098573 .6826172H.034988405V.6516113H.05899048C.13598633 .6516113 .13798523 .64060977 .13798523 .6046295V.07795715C.13798523 .041992189 .13598633 .0309906 .05899048 .0309906H.034988405V0H.40098573C.56900027 0 .70700076 .1479187 .70700076 .33580018M.6069946 .33580018C.6069946 .22486878 .58799746 .16490174 .5519867 .11593628 .5319977 .08895874 .47499085 .0309906 .37399293 .0309906H.272995C.22599793 .0309906 .22399903 .037994386 .22399903 .07096863V.6116333C.22399903 .64460757 .22599793 .6516113 .272995 .6516113H.37298585C.43499757 .6516113 .5039978 .6296234 .5549927 .55867007 .59799197 .49969483 .6069946 .41375733 .6069946 .33580018Z"/>
<path id="font_1_34" d="M.651001 .18289185C.651001 .26983644 .56900027 .34480287 .45799256 .35679627 .5549927 .3757782 .6239929 .43974305 .6239929 .51368716 .6239929 .6006317 .5319977 .6826172 .4019928 .6826172H.035995485V.6516113H.05999756C.13699341 .6516113 .13899231 .64060977 .13899231 .6046295V.07795715C.13899231 .041992189 .13699341 .0309906 .05999756 .0309906H.035995485V0H.42799378C.5609894-.0002593994 .651001 .08874512 .651001 .18273926V.18289185M.5269928 .5136719C.5269928 .44970704 .47799684 .36573792 .36698915 .36573792H.22200012V.6116333C.22200012 .64460757 .22399903 .6516113 .2709961 .6516113H.394989C.49198915 .65174868 .5269928 .56674197 .5269928 .51374819V.5136719M.5509949 .18386841C.5509949 .1129303 .49899293 .0309906 .3959961 .0309906H.2709961C.22399903 .0309906 .22200012 .037994386 .22200012 .07095337V.34375H.4099884C.5089874 .34399415 .5509949 .25099183 .5509949 .18399048V.18386841Z"/>
<path id="font_1_58" d="M.7350006 .24145508V.27246095L.61299136 .26945497C.57299807 .26945497 .48799134 .26945497 .45199586 .27246095V.24145508H.48399354C.57398989 .24145508 .57699587 .23045349 .57699587 .19346619V.12948609C.57699587 .017532349 .44999696 .008529663 .42199708 .008529663 .35699464 .008529663 .15899658 .043518068 .15899658 .34155274 .15899658 .6410217 .35598756 .67407229 .41600038 .67407229 .522995 .67407229 .6139984 .5839386 .6339874 .43670655 .6359863 .42268373 .6359863 .41967774 .6499939 .41967774 .66600039 .41967774 .66600039 .42268373 .66600039 .44371034V.68107607C.66600039 .69807437 .66600039 .7050781 .6549988 .7050781 .651001 .7050781 .6469879 .7050781 .6389923 .69306948L.58898928 .61898806C.5569916 .6510315 .5029907 .7050781 .4039917 .7050781 .21798706 .7050781 .055999757 .546875 .055999757 .34155274 .055999757 .13648987 .21598816-.022460938 .4059906-.022460938 .47898866-.022460938 .5589905 .0035247803 .59298709 .06251526 .60598757 .040527345 .6459961 .0005340576 .6569977 .0005340576 .66600039 .0005340576 .66600039 .008529663 .66600039 .023529053V.19746399C.66600039 .2364502 .66999819 .24145508 .7350006 .24145508Z"/>
</defs>
<path transform="matrix(1.00005,0,0,-1.00002,13.335716,356.3348)" d="M96.37918 311.8149C96.37918 318.0772 91.30272 323.15367 85.04042 323.15367 78.77812 323.15367 73.70166 318.0772 73.70166 311.8149 73.70166 305.5526 78.77812 300.47615 85.04042 300.47615 91.30272 300.47615 96.37918 305.5526 96.37918 311.8149ZM85.04042 311.8149" fill="#f2f2f2"/>
<path transform="matrix(1.00005,0,0,-1.00002,13.335716,356.3348)" stroke-width=".19925" stroke-linecap="butt" stroke-miterlimit="10" stroke-linejoin="miter" fill="none" stroke="#bfbfbf" d="M96.37918 311.8149C96.37918 318.0772 91.30272 323.15367 85.04042 323.15367 78.77812 323.15367 73.70166 318.0772 73.70166 311.8149 73.70166 305.5526 78.77812 300.47615 85.04042 300.47615 91.30272 300.47615 96.37918 305.5526 96.37918 311.8149ZM85.04042 311.8149"/>
<use data-text="F" xlink:href="#font_1_54" transform="matrix(9.963098,0,0,-9.962799,90.97759,47.00461)"/>
<use data-text="#" xlink:href="#font_1_79" transform="matrix(9.963098,0,0,-9.962799,97.48349,47.00461)"/>
<path transform="matrix(1.00005,0,0,-1.00002,13.335716,356.3348)" d="M124.726 325.9883C124.726 332.2506 119.64954 337.32707 113.38724 337.32707 107.12492 337.32707 102.04848 332.2506 102.04848 325.9883 102.04848 319.726 107.12492 314.64955 113.38724 314.64955 119.64954 314.64955 124.726 319.726 124.726 325.9883ZM113.38724 325.9883" fill="#f2f2f2"/>
<path transform="matrix(1.00005,0,0,-1.00002,13.335716,356.3348)" stroke-width=".19925" stroke-linecap="butt" stroke-miterlimit="10" stroke-linejoin="miter" fill="none" stroke="#bfbfbf" d="M124.726 325.9883C124.726 332.2506 119.64954 337.32707 113.38724 337.32707 107.12492 337.32707 102.04848 332.2506 102.04848 325.9883 102.04848 319.726 107.12492 314.64955 113.38724 314.64955 119.64954 314.64955 124.726 319.726 124.726 325.9883ZM113.38724 325.9883"/>
<use data-text="A" xlink:href="#font_1_27" transform="matrix(9.963098,0,0,-9.962799,122.992198,33.90634)"/>
<path transform="matrix(1.00005,0,0,-1.00002,13.335716,356.3348)" d="M153.0728 340.1617C153.0728 346.424 147.99634 351.50047 141.73404 351.50047 135.47174 351.50047 130.39528 346.424 130.39528 340.1617 130.39528 333.8994 135.47174 328.82295 141.73404 328.82295 147.99634 328.82295 153.0728 333.8994 153.0728 340.1617ZM141.73404 340.1617" fill="#f2f2f2"/>
<path transform="matrix(1.00005,0,0,-1.00002,13.335716,356.3348)" stroke-width=".19925" stroke-linecap="butt" stroke-miterlimit="10" stroke-linejoin="miter" fill="none" stroke="#bfbfbf" d="M153.0728 340.1617C153.0728 346.424 147.99634 351.50047 141.73404 351.50047 135.47174 351.50047 130.39528 346.424 130.39528 340.1617 130.39528 333.8994 135.47174 328.82295 141.73404 328.82295 147.99634 328.82295 153.0728 333.8994 153.0728 340.1617ZM141.73404 340.1617"/>
<use data-text="C" xlink:href="#font_1_42" transform="matrix(9.963098,0,0,-9.962799,147.33042,18.712037)"/>
<use data-text="#" xlink:href="#font_1_79" transform="matrix(9.963098,0,0,-9.962799,154.52378,18.712037)"/>
<path transform="matrix(1.00005,0,0,-1.00002,13.335716,356.3348)" d="M68.03238 294.80665C68.03238 301.06895 62.95592 306.1454 56.69362 306.1454 50.4313 306.1454 45.35486 301.06895 45.35486 294.80665 45.35486 288.54435 50.4313 283.46788 56.69362 283.46788 62.95592 283.46788 68.03238 288.54435 68.03238 294.80665ZM56.69362 294.80665" fill="#f2f2f2"/>
<path transform="matrix(1.00005,0,0,-1.00002,13.335716,356.3348)" stroke-width=".19925" stroke-linecap="butt" stroke-miterlimit="10" stroke-linejoin="miter" fill="none" stroke="#bfbfbf" d="M68.03238 294.80665C68.03238 301.06895 62.95592 306.1454 56.69362 306.1454 50.4313 306.1454 45.35486 301.06895 45.35486 294.80665 45.35486 288.54435 50.4313 283.46788 56.69362 283.46788 62.95592 283.46788 68.03238 288.54435 68.03238 294.80665ZM56.69362 294.80665"/>
<use data-text="F" xlink:href="#font_1_54" transform="matrix(9.963098,0,0,-9.962799,66.77939,64.90997)"/>
<path transform="matrix(1.00005,0,0,-1.00002,13.335716,356.3348)" d="M39.68556 279.21623C39.68556 285.47853 34.6091 290.555 28.3468 290.555 22.0845 290.555 17.00804 285.47853 17.00804 279.21623 17.00804 272.95393 22.0845 267.87748 28.3468 267.87748 34.6091 267.87748 39.68556 272.95393 39.68556 279.21623ZM28.3468 279.21623" fill="#f2f2f2"/>
<path transform="matrix(1.00005,0,0,-1.00002,13.335716,356.3348)" stroke-width=".19925" stroke-linecap="butt" stroke-miterlimit="10" stroke-linejoin="miter" fill="none" stroke="#bfbfbf" d="M39.68556 279.21623C39.68556 285.47853 34.6091 290.555 28.3468 290.555 22.0845 290.555 17.00804 285.47853 17.00804 279.21623 17.00804 272.95393 22.0845 267.87748 28.3468 267.87748 34.6091 267.87748 39.68556 272.95393 39.68556 279.21623ZM28.3468 279.21623"/>
<use data-text="E" xlink:href="#font_1_49" transform="matrix(9.963098,0,0,-9.962799,38.290964,80.500278)"/>
<path transform="matrix(1.00005,0,0,-1.00002,13.335716,356.3348)" d="M11.33876 265.04283C11.33876 271.30516 6.2623 276.3816 0 276.3816-6.2623 276.3816-11.33876 271.30516-11.33876 265.04283-11.33876 258.78053-6.2623 253.70407 0 253.70407 6.2623 253.70407 11.33876 258.78053 11.33876 265.04283ZM0 265.04283" fill="#f2f2f2"/>
<path transform="matrix(1.00005,0,0,-1.00002,13.335716,356.3348)" stroke-width=".19925" stroke-linecap="butt" stroke-miterlimit="10" stroke-linejoin="miter" fill="none" stroke="#bfbfbf" d="M11.33876 265.04283C11.33876 271.30516 6.2623 276.3816 0 276.3816-6.2623 276.3816-11.33876 271.30516-11.33876 265.04283-11.33876 258.78053-6.2623 253.70407 0 253.70407 6.2623 253.70407 11.33876 258.78053 11.33876 265.04283ZM0 265.04283"/>
<use data-text="E" xlink:href="#font_1_49" transform="matrix(9.963098,0,0,-9.962799,8.005447,95.02258)"/>
<use data-text="&#x266d;" xlink:href="#font_2_1" transform="matrix(9.963098,0,0,-9.962799,14.78978,95.02258)"/>
<path transform="matrix(1.00005,0,0,-1.00002,13.335716,356.3348)" d="M153.0728 308.98005C153.0728 315.24235 147.99634 320.3188 141.73404 320.3188 135.47174 320.3188 130.39528 315.24235 130.39528 308.98005 130.39528 302.71775 135.47174 297.64128 141.73404 297.64128 147.99634 297.64128 153.0728 302.71775 153.0728 308.98005ZM141.73404 308.98005" fill="#f2f2f2"/>
<path transform="matrix(1.00005,0,0,-1.00002,13.335716,356.3348)" stroke-width=".19925" stroke-linecap="butt" stroke-miterlimit="10" stroke-linejoin="miter" fill="none" stroke="#bfbfbf" d="M153.0728 308.98005C153.0728 315.24235 147.99634 320.3188 141.73404 320.3188 135.47174 320.3188 130.39528 315.24235 130.39528 308.98005 130.39528 302.71775 135.47174 297.64128 141.73404 297.64128 147.99634 297.64128 153.0728 302.71775 153.0728 308.98005ZM141.73404 308.98005"/>
<use data-text="A" xlink:href="#font_1_27" transform="matrix(9.963098,0,0,-9.962799,149.4035,51.084718)"/>
<use data-text="&#x266d;" xlink:href="#font_2_1" transform="matrix(9.963098,0,0,-9.962799,156.87589,51.084718)"/>
<path transform="matrix(1.00005,0,0,-1.00002,13.335716,356.3348)" d="M124.726 295.657C124.726 301.9193 119.64954 306.99577 113.38724 306.99577 107.12492 306.99577 102.04848 301.9193 102.04848 295.657 102.04848 289.3947 107.12492 284.31825 113.38724 284.31825 119.64954 284.31825 124.726 289.3947 124.726 295.657ZM113.38724 295.657" fill="#f2f2f2"/>
<path transform="matrix(1.00005,0,0,-1.00002,13.335716,356.3348)" stroke-width=".19925" stroke-linecap="butt" stroke-miterlimit="10" stroke-linejoin="miter" fill="none" stroke="#bfbfbf" d="M124.726 295.657C124.726 301.9193 119.64954 306.99577 113.38724 306.99577 107.12492 306.99577 102.04848 301.9193 102.04848 295.657 102.04848 289.3947 107.12492 284.31825 113.38724 284.31825 119.64954 284.31825 124.726 289.3947 124.726 295.657ZM113.38724 295.657"/>
<use data-text="E" xlink:href="#font_1_49" transform="matrix(9.963098,0,0,-9.962799,123.33621,64.05896)"/>
<path transform="matrix(1.00005,0,0,-1.00002,13.335716,356.3348)" d="M96.37918 279.21623C96.37918 285.47853 91.30272 290.555 85.04042 290.555 78.77812 290.555 73.70166 285.47853 73.70166 279.21623 73.70166 272.95393 78.77812 267.87748 85.04042 267.87748 91.30272 267.87748 96.37918 272.95393 96.37918 279.21623ZM85.04042 279.21623" fill="#f2f2f2"/>
<path transform="matrix(1.00005,0,0,-1.00002,13.335716,356.3348)" stroke-width=".19925" stroke-linecap="butt" stroke-miterlimit="10" stroke-linejoin="miter" fill="none" stroke="#bfbfbf" d="M96.37918 279.21623C96.37918 285.47853 91.30272 290.555 85.04042 290.555 78.77812 290.555 73.70166 285.47853 73.70166 279.21623 73.70166 272.95393 78.77812 267.87748 85.04042 267.87748 91.30272 267.87748 96.37918 272.95393 96.37918 279.21623ZM85.04042 279.21623"/>
<use data-text="E" xlink:href="#font_1_49" transform="matrix(9.963098,0,0,-9.962799,93.0507,80.84927)"/>
<use data-text="&#x266d;" xlink:href="#font_2_1" transform="matrix(9.963098,0,0,-9.962799,99.83503,80.84927)"/>
<path transform="matrix(1.00005,0,0,-1.00002,13.335716,356.3348)" d="M68.03238 262.20799C68.03238 268.47029 62.95592 273.54676 56.69362 273.54676 50.4313 273.54676 45.35486 268.47029 45.35486 262.20799 45.35486 255.94567 50.4313 250.86922 56.69362 250.86922 62.95592 250.86922 68.03238 255.94567 68.03238 262.20799ZM56.69362 262.20799" fill="#f2f2f2"/>
<path transform="matrix(1.00005,0,0,-1.00002,13.335716,356.3348)" stroke-width=".19925" stroke-linecap="butt" stroke-miterlimit="10" stroke-linejoin="miter" fill="none" stroke="#bfbfbf" d="M68.03238 262.20799C68.03238 268.47029 62.95592 273.54676 56.69362 273.54676 50.4313 273.54676 45.35486 268.47029 45.35486 262.20799 45.35486 255.94567 50.4313 250.86922 56.69362 250.86922 62.95592 250.86922 68.03238 255.94567 68.03238 262.20799ZM56.69362 262.20799"/>
<use data-text="D" xlink:href="#font_1_46" transform="matrix(9.963098,0,0,-9.962799,66.226367,97.52362)"/>
<path transform="matrix(1.00005,0,0,-1.00002,13.335716,356.3348)" d="M39.68556 245.1997C39.68556 251.462 34.6091 256.53849 28.3468 256.53849 22.0845 256.53849 17.00804 251.462 17.00804 245.1997 17.00804 238.93741 22.0845 233.86095 28.3468 233.86095 34.6091 233.86095 39.68556 238.93741 39.68556 245.1997ZM28.3468 245.1997" fill="#f2f2f2"/>
<path transform="matrix(1.00005,0,0,-1.00002,13.335716,356.3348)" stroke-width=".19925" stroke-linecap="butt" stroke-miterlimit="10" stroke-linejoin="miter" fill="none" stroke="#bfbfbf" d="M39.68556 245.1997C39.68556 251.462 34.6091 256.53849 28.3468 256.53849 22.0845 256.53849 17.00804 251.462 17.00804 245.1997 17.00804 238.93741 22.0845 233.86095 28.3468 233.86095 34.6091 233.86095 39.68556 238.93741 39.68556 245.1997ZM28.3468 245.1997"/>
<use data-text="C" xlink:href="#font_1_42" transform="matrix(9.963098,0,0,-9.962799,33.937746,113.67595)"/>
<use data-text="#" xlink:href="#font_1_79" transform="matrix(9.963098,0,0,-9.962799,41.131105,113.67595)"/>
<path transform="matrix(1.00005,0,0,-1.00002,13.335716,356.3348)" d="M11.33876 231.0263C11.33876 237.28862 6.2623 242.36507 0 242.36507-6.2623 242.36507-11.33876 237.28862-11.33876 231.0263-11.33876 224.764-6.2623 219.68755 0 219.68755 6.2623 219.68755 11.33876 224.764 11.33876 231.0263ZM0 231.0263" fill="#f2f2f2"/>
<path transform="matrix(1.00005,0,0,-1.00002,13.335716,356.3348)" stroke-width=".19925" stroke-linecap="butt" stroke-miterlimit="10" stroke-linejoin="miter" fill="none" stroke="#bfbfbf" d="M11.33876 231.0263C11.33876 237.28862 6.2623 242.36507 0 242.36507-6.2623 242.36507-11.33876 237.28862-11.33876 231.0263-11.33876 224.764-6.2623 219.68755 0 219.68755 6.2623 219.68755 11.33876 224.764 11.33876 231.0263ZM0 231.0263"/>
<use data-text="C" xlink:href="#font_1_42" transform="matrix(9.963098,0,0,-9.962799,9.738533,128.70626)"/>
<path transform="matrix(1.00005,0,0,-1.00002,13.335716,356.3348)" d="M153.0728 277.51506C153.0728 283.77738 147.99634 288.85383 141.73404 288.85383 135.47174 288.85383 130.39528 283.77738 130.39528 277.51506 130.39528 271.25276 135.47174 266.1763 141.73404 266.1763 147.99634 266.1763 153.0728 271.25276 153.0728 277.51506ZM141.73404 277.51506" fill="#f2f2f2"/>
<path transform="matrix(1.00005,0,0,-1.00002,13.335716,356.3348)" stroke-width=".19925" stroke-linecap="butt" stroke-miterlimit="10" stroke-linejoin="miter" fill="none" stroke="#bfbfbf" d="M153.0728 277.51506C153.0728 283.77738 147.99634 288.85383 141.73404 288.85383 135.47174 288.85383 130.39528 283.77738 130.39528 277.51506 130.39528 271.25276 135.47174 266.1763 141.73404 266.1763 147.99634 266.1763 153.0728 271.25276 153.0728 277.51506ZM141.73404 277.51506"/>
<use data-text="E" xlink:href="#font_1_49" transform="matrix(9.963098,0,0,-9.962799,149.74753,82.55032)"/>
<use data-text="&#x266d;" xlink:href="#font_2_1" transform="matrix(9.963098,0,0,-9.962799,156.53186,82.55032)"/>
<path transform="matrix(1.00005,0,0,-1.00002,13.335716,356.3348)" d="M124.726 262.77507C124.726 269.03736 119.64954 274.1138 113.38724 274.1138 107.12492 274.1138 102.04848 269.03736 102.04848 262.77507 102.04848 256.51274 107.12492 251.43628 113.38724 251.43628 119.64954 251.43628 124.726 256.51274 124.726 262.77507ZM113.38724 262.77507" fill="#f2f2f2"/>
<path transform="matrix(1.00005,0,0,-1.00002,13.335716,356.3348)" stroke-width=".19925" stroke-linecap="butt" stroke-miterlimit="10" stroke-linejoin="miter" fill="none" stroke="#bfbfbf" d="M124.726 262.77507C124.726 269.03736 119.64954 274.1138 113.38724 274.1138 107.12492 274.1138 102.04848 269.03736 102.04848 262.77507 102.04848 256.51274 107.12492 251.43628 113.38724 251.43628 119.64954 251.43628 124.726 256.51274 124.726 262.77507ZM113.38724 262.77507"/>
<use data-text="B" xlink:href="#font_1_34" transform="matrix(9.963098,0,0,-9.962799,123.2012,96.956638)"/>
<path transform="matrix(1.00005,0,0,-1.00002,13.335716,356.3348)" d="M96.37918 245.76677C96.37918 252.02909 91.30272 257.10554 85.04042 257.10554 78.77812 257.10554 73.70166 252.02909 73.70166 245.76677 73.70166 239.50447 78.77812 234.42801 85.04042 234.42801 91.30272 234.42801 96.37918 239.50447 96.37918 245.76677ZM85.04042 245.76677" fill="#f2f2f2"/>
<path transform="matrix(1.00005,0,0,-1.00002,13.335716,356.3348)" stroke-width=".19925" stroke-linecap="butt" stroke-miterlimit="10" stroke-linejoin="miter" fill="none" stroke="#bfbfbf" d="M96.37918 245.76677C96.37918 252.02909 91.30272 257.10554 85.04042 257.10554 78.77812 257.10554 73.70166 252.02909 73.70166 245.76677 73.70166 239.50447 78.77812 234.42801 85.04042 234.42801 91.30272 234.42801 96.37918 239.50447 96.37918 245.76677ZM85.04042 245.76677"/>
<use data-text="C" xlink:href="#font_1_42" transform="matrix(9.963098,0,0,-9.962799,94.78378,113.96596)"/>
<path transform="matrix(1.00005,0,0,-1.00002,13.335716,356.3348)" d="M68.03238 229.60932C68.03238 235.87163 62.95592 240.94808 56.69362 240.94808 50.4313 240.94808 45.35486 235.87163 45.35486 229.60932 45.35486 223.34702 50.4313 218.27056 56.69362 218.27056 62.95592 218.27056 68.03238 223.34702 68.03238 229.60932ZM56.69362 229.60932" fill="#f2f2f2"/>
<path transform="matrix(1.00005,0,0,-1.00002,13.335716,356.3348)" stroke-width=".19925" stroke-linecap="butt" stroke-miterlimit="10" stroke-linejoin="miter" fill="none" stroke="#bfbfbf" d="M68.03238 229.60932C68.03238 235.87163 62.95592 240.94808 56.69362 240.94808 50.4313 240.94808 45.35486 235.87163 45.35486 229.60932 45.35486 223.34702 50.4313 218.27056 56.69362 218.27056 62.95592 218.27056 68.03238 223.34702 68.03238 229.60932ZM56.69362 229.60932"/>
<use data-text="B" xlink:href="#font_1_34" transform="matrix(9.963098,0,0,-9.962799,66.50537,130.12328)"/>
<path transform="matrix(1.00005,0,0,-1.00002,13.335716,356.3348)" d="M39.68556 212.31774C39.68556 218.58005 34.6091 223.6565 28.3468 223.6565 22.0845 223.6565 17.00804 218.58005 17.00804 212.31774 17.00804 206.05544 22.0845 200.97898 28.3468 200.97898 34.6091 200.97898 39.68556 206.05544 39.68556 212.31774ZM28.3468 212.31774" fill="#f2f2f2"/>
<path transform="matrix(1.00005,0,0,-1.00002,13.335716,356.3348)" stroke-width=".19925" stroke-linecap="butt" stroke-miterlimit="10" stroke-linejoin="miter" fill="none" stroke="#bfbfbf" d="M39.68556 212.31774C39.68556 218.58005 34.6091 223.6565 28.3468 223.6565 22.0845 223.6565 17.00804 218.58005 17.00804 212.31774 17.00804 206.05544 22.0845 200.97898 28.3468 200.97898 34.6091 200.97898 39.68556 206.05544 39.68556 212.31774ZM28.3468 212.31774"/>
<use data-text="B" xlink:href="#font_1_34" transform="matrix(9.963098,0,0,-9.962799,36.219858,147.74863)"/>
<use data-text="&#x266d;" xlink:href="#font_2_1" transform="matrix(9.963098,0,0,-9.962799,43.27321,147.74863)"/>
<path transform="matrix(1.00005,0,0,-1.00002,13.335716,356.3348)" d="M11.33876 198.42766C11.33876 204.68997 6.2623 209.76642 0 209.76642-6.2623 209.76642-11.33876 204.68997-11.33876 198.42766-11.33876 192.16536-6.2623 187.0889 0 187.0889 6.2623 187.0889 11.33876 192.16536 11.33876 198.42766ZM0 198.42766" fill="#f2f2f2"/>
<path transform="matrix(1.00005,0,0,-1.00002,13.335716,356.3348)" stroke-width=".19925" stroke-linecap="butt" stroke-miterlimit="10" stroke-linejoin="miter" fill="none" stroke="#bfbfbf" d="M11.33876 198.42766C11.33876 204.68997 6.2623 209.76642 0 209.76642-6.2623 209.76642-11.33876 204.68997-11.33876 198.42766-11.33876 192.16536-6.2623 187.0889 0 187.0889 6.2623 187.0889 11.33876 192.16536 11.33876 198.42766ZM0 198.42766"/>
<use data-text="A" xlink:href="#font_1_27" transform="matrix(9.963098,0,0,-9.962799,9.599533,161.46991)"/>
<path transform="matrix(1.00005,0,0,-1.00002,13.335716,356.3348)" d="M153.0728 243.78272C153.0728 250.04503 147.99634 255.12148 141.73404 255.12148 135.47174 255.12148 130.39528 250.04503 130.39528 243.78272 130.39528 237.52042 135.47174 232.44396 141.73404 232.44396 147.99634 232.44396 153.0728 237.52042 153.0728 243.78272ZM141.73404 243.78272" fill="#f2f2f2"/>
<path transform="matrix(1.00005,0,0,-1.00002,13.335716,356.3348)" stroke-width=".19925" stroke-linecap="butt" stroke-miterlimit="10" stroke-linejoin="miter" fill="none" stroke="#bfbfbf" d="M153.0728 243.78272C153.0728 250.04503 147.99634 255.12148 141.73404 255.12148 135.47174 255.12148 130.39528 250.04503 130.39528 243.78272 130.39528 237.52042 135.47174 232.44396 141.73404 232.44396 147.99634 232.44396 153.0728 237.52042 153.0728 243.78272ZM141.73404 243.78272"/>
<use data-text="B" xlink:href="#font_1_34" transform="matrix(9.963098,0,0,-9.962799,149.61252,116.283008)"/>
<use data-text="&#x266d;" xlink:href="#font_2_1" transform="matrix(9.963098,0,0,-9.962799,156.66588,116.283008)"/>
<path transform="matrix(1.00005,0,0,-1.00002,13.335716,356.3348)" d="M124.726 229.04225C124.726 235.30457 119.64954 240.38101 113.38724 240.38101 107.12492 240.38101 102.04848 235.30457 102.04848 229.04225 102.04848 222.77996 107.12492 217.70349 113.38724 217.70349 119.64954 217.70349 124.726 222.77996 124.726 229.04225ZM113.38724 229.04225" fill="#f2f2f2"/>
<path transform="matrix(1.00005,0,0,-1.00002,13.335716,356.3348)" stroke-width=".19925" stroke-linecap="butt" stroke-miterlimit="10" stroke-linejoin="miter" fill="none" stroke="#bfbfbf" d="M124.726 229.04225C124.726 235.30457 119.64954 240.38101 113.38724 240.38101 107.12492 240.38101 102.04848 235.30457 102.04848 229.04225 102.04848 222.77996 107.12492 217.70349 113.38724 217.70349 119.64954 217.70349 124.726 222.77996 124.726 229.04225ZM113.38724 229.04225"/>
<use data-text="F" xlink:href="#font_1_54" transform="matrix(9.963098,0,0,-9.962799,119.32601,129.77828)"/>
<use data-text="#" xlink:href="#font_1_79" transform="matrix(9.963098,0,0,-9.962799,125.83191,129.77828)"/>
<path transform="matrix(1.00005,0,0,-1.00002,13.335716,356.3348)" d="M96.37918 211.46738C96.37918 217.72968 91.30272 222.80614 85.04042 222.80614 78.77812 222.80614 73.70166 217.72968 73.70166 211.46738 73.70166 205.20507 78.77812 200.12862 85.04042 200.12862 91.30272 200.12862 96.37918 205.20507 96.37918 211.46738ZM85.04042 211.46738" fill="#f2f2f2"/>
<path transform="matrix(1.00005,0,0,-1.00002,13.335716,356.3348)" stroke-width=".19925" stroke-linecap="butt" stroke-miterlimit="10" stroke-linejoin="miter" fill="none" stroke="#bfbfbf" d="M96.37918 211.46738C96.37918 217.72968 91.30272 222.80614 85.04042 222.80614 78.77812 222.80614 73.70166 217.72968 73.70166 211.46738 73.70166 205.20507 78.77812 200.12862 85.04042 200.12862 91.30272 200.12862 96.37918 205.20507 96.37918 211.46738ZM85.04042 211.46738"/>
<use data-text="A" xlink:href="#font_1_27" transform="matrix(9.963098,0,0,-9.962799,94.643779,148.42964)"/>
<path transform="matrix(1.00005,0,0,-1.00002,13.335716,356.3348)" d="M68.03238 195.5928C68.03238 201.8551 62.95592 206.93157 56.69362 206.93157 50.4313 206.93157 45.35486 201.8551 45.35486 195.5928 45.35486 189.33049 50.4313 184.25405 56.69362 184.25405 62.95592 184.25405 68.03238 189.33049 68.03238 195.5928ZM56.69362 195.5928" fill="#f2f2f2"/>
<path transform="matrix(1.00005,0,0,-1.00002,13.335716,356.3348)" stroke-width=".19925" stroke-linecap="butt" stroke-miterlimit="10" stroke-linejoin="miter" fill="none" stroke="#bfbfbf" d="M68.03238 195.5928C68.03238 201.8551 62.95592 206.93157 56.69362 206.93157 50.4313 206.93157 45.35486 201.8551 45.35486 195.5928 45.35486 189.33049 50.4313 184.25405 56.69362 184.25405 62.95592 184.25405 68.03238 189.33049 68.03238 195.5928ZM56.69362 195.5928"/>
<use data-text="A" xlink:href="#font_1_27" transform="matrix(9.963098,0,0,-9.962799,64.35826,164.47397)"/>
<use data-text="&#x266d;" xlink:href="#font_2_1" transform="matrix(9.963098,0,0,-9.962799,71.83064,164.47397)"/>
<path transform="matrix(1.00005,0,0,-1.00002,13.335716,356.3348)" d="M39.68556 180.00241C39.68556 186.26471 34.6091 191.34117 28.3468 191.34117 22.0845 191.34117 17.00804 186.26471 17.00804 180.00241 17.00804 173.7401 22.0845 168.66365 28.3468 168.66365 34.6091 168.66365 39.68556 173.7401 39.68556 180.00241ZM28.3468 180.00241" fill="#f2f2f2"/>
<path transform="matrix(1.00005,0,0,-1.00002,13.335716,356.3348)" stroke-width=".19925" stroke-linecap="butt" stroke-miterlimit="10" stroke-linejoin="miter" fill="none" stroke="#bfbfbf" d="M39.68556 180.00241C39.68556 186.26471 34.6091 191.34117 28.3468 191.34117 22.0845 191.34117 17.00804 186.26471 17.00804 180.00241 17.00804 173.7401 22.0845 168.66365 28.3468 168.66365 34.6091 168.66365 39.68556 173.7401 39.68556 180.00241ZM28.3468 180.00241"/>
<use data-text="G" xlink:href="#font_1_58" transform="matrix(9.963098,0,0,-9.962799,37.772939,179.73126)"/>
<path transform="matrix(1.00005,0,0,-1.00002,13.335716,356.3348)" d="M11.33876 164.41156C11.33876 170.67386 6.2623 175.75032 0 175.75032-6.2623 175.75032-11.33876 170.67386-11.33876 164.41156-11.33876 158.14926-6.2623 153.0728 0 153.0728 6.2623 153.0728 11.33876 158.14926 11.33876 164.41156ZM0 164.41156" fill="#f2f2f2"/>
<path transform="matrix(1.00005,0,0,-1.00002,13.335716,356.3348)" stroke-width=".19925" stroke-linecap="butt" stroke-miterlimit="10" stroke-linejoin="miter" fill="none" stroke="#bfbfbf" d="M11.33876 164.41156C11.33876 170.67386 6.2623 175.75032 0 175.75032-6.2623 175.75032-11.33876 170.67386-11.33876 164.41156-11.33876 158.14926-6.2623 153.0728 0 153.0728 6.2623 153.0728 11.33876 158.14926 11.33876 164.41156ZM0 164.41156"/>
<use data-text="F" xlink:href="#font_1_54" transform="matrix(9.963098,0,0,-9.962799,5.9333498,194.41056)"/>
<use data-text="#" xlink:href="#font_1_79" transform="matrix(9.963098,0,0,-9.962799,12.439247,194.41056)"/>
<path transform="matrix(1.00005,0,0,-1.00002,13.335716,356.3348)" d="M153.0728 212.31774C153.0728 218.58005 147.99634 223.6565 141.73404 223.6565 135.47174 223.6565 130.39528 218.58005 130.39528 212.31774 130.39528 206.05544 135.47174 200.97898 141.73404 200.97898 147.99634 200.97898 153.0728 206.05544 153.0728 212.31774ZM141.73404 212.31774" fill="#f2f2f2"/>
<path transform="matrix(1.00005,0,0,-1.00002,13.335716,356.3348)" stroke-width=".19925" stroke-linecap="butt" stroke-miterlimit="10" stroke-linejoin="miter" fill="none" stroke="#bfbfbf" d="M153.0728 212.31774C153.0728 218.58005 147.99634 223.6565 141.73404 223.6565 135.47174 223.6565 130.39528 218.58005 130.39528 212.31774 130.39528 206.05544 135.47174 200.97898 141.73404 200.97898 147.99634 200.97898 153.0728 206.05544 153.0728 212.31774ZM141.73404 212.31774"/>
<use data-text="F" xlink:href="#font_1_54" transform="matrix(9.963098,0,0,-9.962799,151.82364,147.40064)"/>
<path transform="matrix(1.00005,0,0,-1.00002,13.335716,356.3348)" d="M124.726 197.01023C124.726 203.27254 119.64954 208.34899 113.38724 208.34899 107.12492 208.34899 102.04848 203.27254 102.04848 197.01023 102.04848 190.74793 107.12492 185.67147 113.38724 185.67147 119.64954 185.67147 124.726 190.74793 124.726 197.01023ZM113.38724 197.01023" fill="#f2f2f2"/>
<path transform="matrix(1.00005,0,0,-1.00002,13.335716,356.3348)" stroke-width=".19925" stroke-linecap="butt" stroke-miterlimit="10" stroke-linejoin="miter" fill="none" stroke="#bfbfbf" d="M124.726 197.01023C124.726 203.27254 119.64954 208.34899 113.38724 208.34899 107.12492 208.34899 102.04848 203.27254 102.04848 197.01023 102.04848 190.74793 107.12492 185.67147 113.38724 185.67147 119.64954 185.67147 124.726 190.74793 124.726 197.01023ZM113.38724 197.01023"/>
<use data-text="D" xlink:href="#font_1_46" transform="matrix(9.963098,0,0,-9.962799,120.98509,163.05693)"/>
<use data-text="&#x266d;" xlink:href="#font_2_1" transform="matrix(9.963098,0,0,-9.962799,128.59647,163.05693)"/>
<path transform="matrix(1.00005,0,0,-1.00002,13.335716,356.3348)" d="M96.37918 180.00241C96.37918 186.26471 91.30272 191.34117 85.04042 191.34117 78.77812 191.34117 73.70166 186.26471 73.70166 180.00241 73.70166 173.7401 78.77812 168.66365 85.04042 168.66365 91.30272 168.66365 96.37918 173.7401 96.37918 180.00241ZM85.04042 180.00241" fill="#f2f2f2"/>
<path transform="matrix(1.00005,0,0,-1.00002,13.335716,356.3348)" stroke-width=".19925" stroke-linecap="butt" stroke-miterlimit="10" stroke-linejoin="miter" fill="none" stroke="#bfbfbf" d="M96.37918 180.00241C96.37918 186.26471 91.30272 191.34117 85.04042 191.34117 78.77812 191.34117 73.70166 186.26471 73.70166 180.00241 73.70166 173.7401 78.77812 168.66365 85.04042 168.66365 91.30272 168.66365 96.37918 173.7401 96.37918 180.00241ZM85.04042 180.00241"/>
<use data-text="F" xlink:href="#font_1_54" transform="matrix(9.963098,0,0,-9.962799,90.97759,178.81926)"/>
<use data-text="#" xlink:href="#font_1_79" transform="matrix(9.963098,0,0,-9.962799,97.48349,178.81926)"/>
<path transform="matrix(1.00005,0,0,-1.00002,13.335716,356.3348)" d="M68.03238 163.56119C68.03238 169.8235 62.95592 174.89995 56.69362 174.89995 50.4313 174.89995 45.35486 169.8235 45.35486 163.56119 45.35486 157.29889 50.4313 152.22243 56.69362 152.22243 62.95592 152.22243 68.03238 157.29889 68.03238 163.56119ZM56.69362 163.56119" fill="#f2f2f2"/>
<path transform="matrix(1.00005,0,0,-1.00002,13.335716,356.3348)" stroke-width=".19925" stroke-linecap="butt" stroke-miterlimit="10" stroke-linejoin="miter" fill="none" stroke="#bfbfbf" d="M68.03238 163.56119C68.03238 169.8235 62.95592 174.89995 56.69362 174.89995 50.4313 174.89995 45.35486 169.8235 45.35486 163.56119 45.35486 157.29889 50.4313 152.22243 56.69362 152.22243 62.95592 152.22243 68.03238 157.29889 68.03238 163.56119ZM56.69362 163.56119"/>
<use data-text="F" xlink:href="#font_1_54" transform="matrix(9.963098,0,0,-9.962799,66.77939,196.15761)"/>
<path transform="matrix(1.00005,0,0,-1.00002,13.335716,356.3348)" d="M39.68556 147.40332C39.68556 153.66562 34.6091 158.74208 28.3468 158.74208 22.0845 158.74208 17.00804 153.66562 17.00804 147.40332 17.00804 141.141 22.0845 136.06456 28.3468 136.06456 34.6091 136.06456 39.68556 141.141 39.68556 147.40332ZM28.3468 147.40332" fill="#f2f2f2"/>
<path transform="matrix(1.00005,0,0,-1.00002,13.335716,356.3348)" stroke-width=".19925" stroke-linecap="butt" stroke-miterlimit="10" stroke-linejoin="miter" fill="none" stroke="#bfbfbf" d="M39.68556 147.40332C39.68556 153.66562 34.6091 158.74208 28.3468 158.74208 22.0845 158.74208 17.00804 153.66562 17.00804 147.40332 17.00804 141.141 22.0845 136.06456 28.3468 136.06456 34.6091 136.06456 39.68556 141.141 39.68556 147.40332ZM28.3468 147.40332"/>
<use data-text="E" xlink:href="#font_1_49" transform="matrix(9.963098,0,0,-9.962799,38.290964,212.31592)"/>
<path transform="matrix(1.00005,0,0,-1.00002,13.335716,356.3348)" d="M11.33876 130.39548C11.33876 136.65778 6.2623 141.73424 0 141.73424-6.2623 141.73424-11.33876 136.65778-11.33876 130.39548-11.33876 124.13318-6.2623 119.05672 0 119.05672 6.2623 119.05672 11.33876 124.13318 11.33876 130.39548ZM0 130.39548" fill="#f2f2f2"/>
<path transform="matrix(1.00005,0,0,-1.00002,13.335716,356.3348)" stroke-width=".19925" stroke-linecap="butt" stroke-miterlimit="10" stroke-linejoin="miter" fill="none" stroke="#bfbfbf" d="M11.33876 130.39548C11.33876 136.65778 6.2623 141.73424 0 141.73424-6.2623 141.73424-11.33876 136.65778-11.33876 130.39548-11.33876 124.13318-6.2623 119.05672 0 119.05672 6.2623 119.05672 11.33876 124.13318 11.33876 130.39548ZM0 130.39548"/>
<use data-text="E" xlink:href="#font_1_49" transform="matrix(9.963098,0,0,-9.962799,8.005447,229.67328)"/>
<use data-text="&#x266d;" xlink:href="#font_2_1" transform="matrix(9.963098,0,0,-9.962799,14.78978,229.67328)"/>
<path transform="matrix(1.00005,0,0,-1.00002,13.335716,356.3348)" d="M153.0728 178.58498C153.0728 184.84728 147.99634 189.92374 141.73404 189.92374 135.47174 189.92374 130.39528 184.84728 130.39528 178.58498 130.39528 172.32268 135.47174 167.24622 141.73404 167.24622 147.99634 167.24622 153.0728 172.32268 153.0728 178.58498ZM141.73404 178.58498" fill="#f2f2f2"/>
<path transform="matrix(1.00005,0,0,-1.00002,13.335716,356.3348)" stroke-width=".19925" stroke-linecap="butt" stroke-miterlimit="10" stroke-linejoin="miter" fill="none" stroke="#bfbfbf" d="M153.0728 178.58498C153.0728 184.84728 147.99634 189.92374 141.73404 189.92374 135.47174 189.92374 130.39528 184.84728 130.39528 178.58498 130.39528 172.32268 135.47174 167.24622 141.73404 167.24622 147.99634 167.24622 153.0728 172.32268 153.0728 178.58498ZM141.73404 178.58498"/>
<use data-text="C" xlink:href="#font_1_42" transform="matrix(9.963098,0,0,-9.962799,151.47962,181.1483)"/>
<path transform="matrix(1.00005,0,0,-1.00002,13.335716,356.3348)" d="M124.726 162.99414C124.726 169.25646 119.64954 174.3329 113.38724 174.3329 107.12492 174.3329 102.04848 169.25646 102.04848 162.99414 102.04848 156.73184 107.12492 151.65538 113.38724 151.65538 119.64954 151.65538 124.726 156.73184 124.726 162.99414ZM113.38724 162.99414" fill="#f2f2f2"/>
<path transform="matrix(1.00005,0,0,-1.00002,13.335716,356.3348)" stroke-width=".19925" stroke-linecap="butt" stroke-miterlimit="10" stroke-linejoin="miter" fill="none" stroke="#bfbfbf" d="M124.726 162.99414C124.726 169.25646 119.64954 174.3329 113.38724 174.3329 107.12492 174.3329 102.04848 169.25646 102.04848 162.99414 102.04848 156.73184 107.12492 151.65538 113.38724 151.65538 119.64954 151.65538 124.726 156.73184 124.726 162.99414ZM113.38724 162.99414"/>
<use data-text="A" xlink:href="#font_1_27" transform="matrix(9.963098,0,0,-9.962799,121.05509,197.07363)"/>
<use data-text="&#x266d;" xlink:href="#font_2_1" transform="matrix(9.963098,0,0,-9.962799,128.52747,197.07363)"/>
<path transform="matrix(1.00005,0,0,-1.00002,13.335716,356.3348)" d="M96.37918 146.83626C96.37918 153.09856 91.30272 158.17502 85.04042 158.17502 78.77812 158.17502 73.70166 153.09856 73.70166 146.83626 73.70166 140.57395 78.77812 135.4975 85.04042 135.4975 91.30272 135.4975 96.37918 140.57395 96.37918 146.83626ZM85.04042 146.83626" fill="#f2f2f2"/>
<path transform="matrix(1.00005,0,0,-1.00002,13.335716,356.3348)" stroke-width=".19925" stroke-linecap="butt" stroke-miterlimit="10" stroke-linejoin="miter" fill="none" stroke="#bfbfbf" d="M96.37918 146.83626C96.37918 153.09856 91.30272 158.17502 85.04042 158.17502 78.77812 158.17502 73.70166 153.09856 73.70166 146.83626 73.70166 140.57395 78.77812 135.4975 85.04042 135.4975 91.30272 135.4975 96.37918 140.57395 96.37918 146.83626ZM85.04042 146.83626"/>
<use data-text="E" xlink:href="#font_1_49" transform="matrix(9.963098,0,0,-9.962799,93.0507,213.23194)"/>
<use data-text="&#x266d;" xlink:href="#font_2_1" transform="matrix(9.963098,0,0,-9.962799,99.83503,213.23194)"/>
<path transform="matrix(1.00005,0,0,-1.00002,13.335716,356.3348)" d="M68.03238 128.97806C68.03238 135.24037 62.95592 140.31682 56.69362 140.31682 50.4313 140.31682 45.35486 135.24037 45.35486 128.97806 45.35486 122.71576 50.4313 117.6393 56.69362 117.6393 62.95592 117.6393 68.03238 122.71576 68.03238 128.97806ZM56.69362 128.97806" fill="#f2f2f2"/>
<path transform="matrix(1.00005,0,0,-1.00002,13.335716,356.3348)" stroke-width=".19925" stroke-linecap="butt" stroke-miterlimit="10" stroke-linejoin="miter" fill="none" stroke="#bfbfbf" d="M68.03238 128.97806C68.03238 135.24037 62.95592 140.31682 56.69362 140.31682 50.4313 140.31682 45.35486 135.24037 45.35486 128.97806 45.35486 122.71576 50.4313 117.6393 56.69362 117.6393 62.95592 117.6393 68.03238 122.71576 68.03238 128.97806ZM56.69362 128.97806"/>
<use data-text="D" xlink:href="#font_1_46" transform="matrix(9.963098,0,0,-9.962799,66.226367,230.75629)"/>
<path transform="matrix(1.00005,0,0,-1.00002,13.335716,356.3348)" d="M39.68556 113.10391C39.68556 119.36621 34.6091 124.44267 28.3468 124.44267 22.0845 124.44267 17.00804 119.36621 17.00804 113.10391 17.00804 106.84161 22.0845 101.76515 28.3468 101.76515 34.6091 101.76515 39.68556 106.84161 39.68556 113.10391ZM28.3468 113.10391" fill="#f2f2f2"/>
<path transform="matrix(1.00005,0,0,-1.00002,13.335716,356.3348)" stroke-width=".19925" stroke-linecap="butt" stroke-miterlimit="10" stroke-linejoin="miter" fill="none" stroke="#bfbfbf" d="M39.68556 113.10391C39.68556 119.36621 34.6091 124.44267 28.3468 124.44267 22.0845 124.44267 17.00804 119.36621 17.00804 113.10391 17.00804 106.84161 22.0845 101.76515 28.3468 101.76515 34.6091 101.76515 39.68556 106.84161 39.68556 113.10391ZM28.3468 113.10391"/>
<use data-text="C" xlink:href="#font_1_42" transform="matrix(9.963098,0,0,-9.962799,33.937746,245.7746)"/>
<use data-text="#" xlink:href="#font_1_79" transform="matrix(9.963098,0,0,-9.962799,41.131105,245.7746)"/>
<path transform="matrix(1.00005,0,0,-1.00002,13.335716,356.3348)" d="M11.33876 97.79639C11.33876 104.05869 6.2623 109.13515 0 109.13515-6.2623 109.13515-11.33876 104.05869-11.33876 97.79639-11.33876 91.53409-6.2623 86.45763 0 86.45763 6.2623 86.45763 11.33876 91.53409 11.33876 97.79639ZM0 97.79639" fill="#f2f2f2"/>
<path transform="matrix(1.00005,0,0,-1.00002,13.335716,356.3348)" stroke-width=".19925" stroke-linecap="butt" stroke-miterlimit="10" stroke-linejoin="miter" fill="none" stroke="#bfbfbf" d="M11.33876 97.79639C11.33876 104.05869 6.2623 109.13515 0 109.13515-6.2623 109.13515-11.33876 104.05869-11.33876 97.79639-11.33876 91.53409-6.2623 86.45763 0 86.45763 6.2623 86.45763 11.33876 91.53409 11.33876 97.79639ZM0 97.79639"/>
<use data-text="C" xlink:href="#font_1_42" transform="matrix(9.963098,0,0,-9.962799,9.738533,261.9389)"/>
<path transform="matrix(1.00005,0,0,-1.00002,13.335716,356.3348)" d="M153.0728 144.5689C153.0728 150.83119 147.99634 155.90766 141.73404 155.90766 135.47174 155.90766 130.39528 150.83119 130.39528 144.5689 130.39528 138.3066 135.47174 133.23014 141.73404 133.23014 147.99634 133.23014 153.0728 138.3066 153.0728 144.5689ZM141.73404 144.5689" fill="#f2f2f2"/>
<path transform="matrix(1.00005,0,0,-1.00002,13.335716,356.3348)" stroke-width=".19925" stroke-linecap="butt" stroke-miterlimit="10" stroke-linejoin="miter" fill="none" stroke="#bfbfbf" d="M153.0728 144.5689C153.0728 150.83119 147.99634 155.90766 141.73404 155.90766 135.47174 155.90766 130.39528 150.83119 130.39528 144.5689 130.39528 138.3066 135.47174 133.23014 141.73404 133.23014 147.99634 133.23014 153.0728 138.3066 153.0728 144.5689ZM141.73404 144.5689"/>
<use data-text="G" xlink:href="#font_1_58" transform="matrix(9.963098,0,0,-9.962799,151.1666,215.16498)"/>
<path transform="matrix(1.00005,0,0,-1.00002,13.335716,356.3348)" d="M124.726 128.97806C124.726 135.24037 119.64954 140.31682 113.38724 140.31682 107.12492 140.31682 102.04848 135.24037 102.04848 128.97806 102.04848 122.71576 107.12492 117.6393 113.38724 117.6393 119.64954 117.6393 124.726 122.71576 124.726 128.97806ZM113.38724 128.97806" fill="#f2f2f2"/>
<path transform="matrix(1.00005,0,0,-1.00002,13.335716,356.3348)" stroke-width=".19925" stroke-linecap="butt" stroke-miterlimit="10" stroke-linejoin="miter" fill="none" stroke="#bfbfbf" d="M124.726 128.97806C124.726 135.24037 119.64954 140.31682 113.38724 140.31682 107.12492 140.31682 102.04848 135.24037 102.04848 128.97806 102.04848 122.71576 107.12492 117.6393 113.38724 117.6393 119.64954 117.6393 124.726 122.71576 124.726 128.97806ZM113.38724 128.97806"/>
<use data-text="E" xlink:href="#font_1_49" transform="matrix(9.963098,0,0,-9.962799,121.39911,231.0903)"/>
<use data-text="&#x266d;" xlink:href="#font_2_1" transform="matrix(9.963098,0,0,-9.962799,128.18344,231.0903)"/>
<path transform="matrix(1.00005,0,0,-1.00002,13.335716,356.3348)" d="M96.37918 113.38724C96.37918 119.64954 91.30272 124.726 85.04042 124.726 78.77812 124.726 73.70166 119.64954 73.70166 113.38724 73.70166 107.12492 78.77812 102.04848 85.04042 102.04848 91.30272 102.04848 96.37918 107.12492 96.37918 113.38724ZM85.04042 113.38724" fill="#f2f2f2"/>
<path transform="matrix(1.00005,0,0,-1.00002,13.335716,356.3348)" stroke-width=".19925" stroke-linecap="butt" stroke-miterlimit="10" stroke-linejoin="miter" fill="none" stroke="#bfbfbf" d="M96.37918 113.38724C96.37918 119.64954 91.30272 124.726 85.04042 124.726 78.77812 124.726 73.70166 119.64954 73.70166 113.38724 73.70166 107.12492 78.77812 102.04848 85.04042 102.04848 91.30272 102.04848 96.37918 107.12492 96.37918 113.38724ZM85.04042 113.38724"/>
<use data-text="C" xlink:href="#font_1_42" transform="matrix(9.963098,0,0,-9.962799,94.78378,246.3476)"/>
<path transform="matrix(1.00005,0,0,-1.00002,13.335716,356.3348)" d="M68.03238 96.37897C68.03238 102.64127 62.95592 107.71773 56.69362 107.71773 50.4313 107.71773 45.35486 102.64127 45.35486 96.37897 45.35486 90.11667 50.4313 85.0402 56.69362 85.0402 62.95592 85.0402 68.03238 90.11667 68.03238 96.37897ZM56.69362 96.37897" fill="#f2f2f2"/>
<path transform="matrix(1.00005,0,0,-1.00002,13.335716,356.3348)" stroke-width=".19925" stroke-linecap="butt" stroke-miterlimit="10" stroke-linejoin="miter" fill="none" stroke="#bfbfbf" d="M68.03238 96.37897C68.03238 102.64127 62.95592 107.71773 56.69362 107.71773 50.4313 107.71773 45.35486 102.64127 45.35486 96.37897 45.35486 90.11667 50.4313 85.0402 56.69362 85.0402 62.95592 85.0402 68.03238 90.11667 68.03238 96.37897ZM56.69362 96.37897"/>
<use data-text="B" xlink:href="#font_1_34" transform="matrix(9.963098,0,0,-9.962799,66.50537,263.35597)"/>
<path transform="matrix(1.00005,0,0,-1.00002,13.335716,356.3348)" d="M39.68556 80.78856C39.68556 87.05087 34.6091 92.12732 28.3468 92.12732 22.0845 92.12732 17.00804 87.05087 17.00804 80.78856 17.00804 74.52626 22.0845 69.4498 28.3468 69.4498 34.6091 69.4498 39.68556 74.52626 39.68556 80.78856ZM28.3468 80.78856" fill="#f2f2f2"/>
<path transform="matrix(1.00005,0,0,-1.00002,13.335716,356.3348)" stroke-width=".19925" stroke-linecap="butt" stroke-miterlimit="10" stroke-linejoin="miter" fill="none" stroke="#bfbfbf" d="M39.68556 80.78856C39.68556 87.05087 34.6091 92.12732 28.3468 92.12732 22.0845 92.12732 17.00804 87.05087 17.00804 80.78856 17.00804 74.52626 22.0845 69.4498 28.3468 69.4498 34.6091 69.4498 39.68556 74.52626 39.68556 80.78856ZM28.3468 80.78856"/>
<use data-text="B" xlink:href="#font_1_34" transform="matrix(9.963098,0,0,-9.962799,36.219858,279.28028)"/>
<use data-text="&#x266d;" xlink:href="#font_2_1" transform="matrix(9.963098,0,0,-9.962799,43.27321,279.28028)"/>
<path transform="matrix(1.00005,0,0,-1.00002,13.335716,356.3348)" d="M11.33876 65.19774C11.33876 71.46004 6.2623 76.5365 0 76.5365-6.2623 76.5365-11.33876 71.46004-11.33876 65.19774-11.33876 58.93544-6.2623 53.85898 0 53.85898 6.2623 53.85898 11.33876 58.93544 11.33876 65.19774ZM0 65.19774" fill="#f2f2f2"/>
<path transform="matrix(1.00005,0,0,-1.00002,13.335716,356.3348)" stroke-width=".19925" stroke-linecap="butt" stroke-miterlimit="10" stroke-linejoin="miter" fill="none" stroke="#bfbfbf" d="M11.33876 65.19774C11.33876 71.46004 6.2623 76.5365 0 76.5365-6.2623 76.5365-11.33876 71.46004-11.33876 65.19774-11.33876 58.93544-6.2623 53.85898 0 53.85898 6.2623 53.85898 11.33876 58.93544 11.33876 65.19774ZM0 65.19774"/>
<use data-text="A" xlink:href="#font_1_27" transform="matrix(9.963098,0,0,-9.962799,9.599533,294.70259)"/>
<path transform="matrix(1.00005,0,0,-1.00002,13.335716,356.3348)" d="M153.0728 111.9698C153.0728 118.2321 147.99634 123.30856 141.73404 123.30856 135.47174 123.30856 130.39528 118.2321 130.39528 111.9698 130.39528 105.70749 135.47174 100.63104 141.73404 100.63104 147.99634 100.63104 153.0728 105.70749 153.0728 111.9698ZM141.73404 111.9698" fill="#f2f2f2"/>
<path transform="matrix(1.00005,0,0,-1.00002,13.335716,356.3348)" stroke-width=".19925" stroke-linecap="butt" stroke-miterlimit="10" stroke-linejoin="miter" fill="none" stroke="#bfbfbf" d="M153.0728 111.9698C153.0728 118.2321 147.99634 123.30856 141.73404 123.30856 135.47174 123.30856 130.39528 118.2321 130.39528 111.9698 130.39528 105.70749 135.47174 100.63104 141.73404 100.63104 147.99634 100.63104 153.0728 105.70749 153.0728 111.9698ZM141.73404 111.9698"/>
<use data-text="D" xlink:href="#font_1_46" transform="matrix(9.963098,0,0,-9.962799,151.2706,247.76464)"/>
<path transform="matrix(1.00005,0,0,-1.00002,13.335716,356.3348)" d="M124.726 94.96198C124.726 101.22427 119.64954 106.30074 113.38724 106.30074 107.12492 106.30074 102.04848 101.22427 102.04848 94.96198 102.04848 88.69968 107.12492 83.62321 113.38724 83.62321 119.64954 83.62321 124.726 88.69968 124.726 94.96198ZM113.38724 94.96198" fill="#f2f2f2"/>
<path transform="matrix(1.00005,0,0,-1.00002,13.335716,356.3348)" stroke-width=".19925" stroke-linecap="butt" stroke-miterlimit="10" stroke-linejoin="miter" fill="none" stroke="#bfbfbf" d="M124.726 94.96198C124.726 101.22427 119.64954 106.30074 113.38724 106.30074 107.12492 106.30074 102.04848 101.22427 102.04848 94.96198 102.04848 88.69968 107.12492 83.62321 113.38724 83.62321 119.64954 83.62321 124.726 88.69968 124.726 94.96198ZM113.38724 94.96198"/>
<use data-text="B" xlink:href="#font_1_34" transform="matrix(9.963098,0,0,-9.962799,121.26411,265.107)"/>
<use data-text="&#x266d;" xlink:href="#font_2_1" transform="matrix(9.963098,0,0,-9.962799,128.31746,265.107)"/>
<path transform="matrix(1.00005,0,0,-1.00002,13.335716,356.3348)" d="M96.37918 80.2215C96.37918 86.48381 91.30272 91.56026 85.04042 91.56026 78.77812 91.56026 73.70166 86.48381 73.70166 80.2215 73.70166 73.9592 78.77812 68.88274 85.04042 68.88274 91.30272 68.88274 96.37918 73.9592 96.37918 80.2215ZM85.04042 80.2215" fill="#f2f2f2"/>
<path transform="matrix(1.00005,0,0,-1.00002,13.335716,356.3348)" stroke-width=".19925" stroke-linecap="butt" stroke-miterlimit="10" stroke-linejoin="miter" fill="none" stroke="#bfbfbf" d="M96.37918 80.2215C96.37918 86.48381 91.30272 91.56026 85.04042 91.56026 78.77812 91.56026 73.70166 86.48381 73.70166 80.2215 73.70166 73.9592 78.77812 68.88274 85.04042 68.88274 91.30272 68.88274 96.37918 73.9592 96.37918 80.2215ZM85.04042 80.2215"/>
<use data-text="A" xlink:href="#font_1_27" transform="matrix(9.963098,0,0,-9.962799,94.643779,279.67829)"/>
<path transform="matrix(1.00005,0,0,-1.00002,13.335716,356.3348)" d="M68.03238 63.7803C68.03238 70.0426 62.95592 75.11906 56.69362 75.11906 50.4313 75.11906 45.35486 70.0426 45.35486 63.7803 45.35486 57.518 50.4313 52.44154 56.69362 52.44154 62.95592 52.44154 68.03238 57.518 68.03238 63.7803ZM56.69362 63.7803" fill="#f2f2f2"/>
<path transform="matrix(1.00005,0,0,-1.00002,13.335716,356.3348)" stroke-width=".19925" stroke-linecap="butt" stroke-miterlimit="10" stroke-linejoin="miter" fill="none" stroke="#bfbfbf" d="M68.03238 63.7803C68.03238 70.0426 62.95592 75.11906 56.69362 75.11906 50.4313 75.11906 45.35486 70.0426 45.35486 63.7803 45.35486 57.518 50.4313 52.44154 56.69362 52.44154 62.95592 52.44154 68.03238 57.518 68.03238 63.7803ZM56.69362 63.7803"/>
<use data-text="A" xlink:href="#font_1_27" transform="matrix(9.963098,0,0,-9.962799,64.35826,296.2896)"/>
<use data-text="&#x266d;" xlink:href="#font_2_1" transform="matrix(9.963098,0,0,-9.962799,71.83064,296.2896)"/>
<path transform="matrix(1.00005,0,0,-1.00002,13.335716,356.3348)" d="M39.68556 48.18947C39.68556 54.45178 34.6091 59.52823 28.3468 59.52823 22.0845 59.52823 17.00804 54.45178 17.00804 48.18947 17.00804 41.92717 22.0845 36.85071 28.3468 36.85071 34.6091 36.85071 39.68556 41.92717 39.68556 48.18947ZM28.3468 48.18947" fill="#f2f2f2"/>
<path transform="matrix(1.00005,0,0,-1.00002,13.335716,356.3348)" stroke-width=".19925" stroke-linecap="butt" stroke-miterlimit="10" stroke-linejoin="miter" fill="none" stroke="#bfbfbf" d="M39.68556 48.18947C39.68556 54.45178 34.6091 59.52823 28.3468 59.52823 22.0845 59.52823 17.00804 54.45178 17.00804 48.18947 17.00804 41.92717 22.0845 36.85071 28.3468 36.85071 34.6091 36.85071 39.68556 41.92717 39.68556 48.18947ZM28.3468 48.18947"/>
<use data-text="G" xlink:href="#font_1_58" transform="matrix(9.963098,0,0,-9.962799,37.772939,311.5469)"/>
<path transform="matrix(1.00005,0,0,-1.00002,13.335716,356.3348)" d="M11.33876 32.59865C11.33876 38.86095 6.2623 43.93741 0 43.93741-6.2623 43.93741-11.33876 38.86095-11.33876 32.59865-11.33876 26.33633-6.2623 21.25989 0 21.25989 6.2623 21.25989 11.33876 26.33633 11.33876 32.59865ZM0 32.59865" fill="#f2f2f2"/>
<path transform="matrix(1.00005,0,0,-1.00002,13.335716,356.3348)" stroke-width=".19925" stroke-linecap="butt" stroke-miterlimit="10" stroke-linejoin="miter" fill="none" stroke="#bfbfbf" d="M11.33876 32.59865C11.33876 38.86095 6.2623 43.93741 0 43.93741-6.2623 43.93741-11.33876 38.86095-11.33876 32.59865-11.33876 26.33633-6.2623 21.25989 0 21.25989 6.2623 21.25989 11.33876 26.33633 11.33876 32.59865ZM0 32.59865"/>
<use data-text="F" xlink:href="#font_1_54" transform="matrix(9.963098,0,0,-9.962799,5.9333498,326.2262)"/>
<use data-text="#" xlink:href="#font_1_79" transform="matrix(9.963098,0,0,-9.962799,12.439247,326.2262)"/>
<path transform="matrix(1.00005,0,0,-1.00002,13.335716,356.3348)" d="M153.0728 79.37114C153.0728 85.63344 147.99634 90.7099 141.73404 90.7099 135.47174 90.7099 130.39528 85.63344 130.39528 79.37114 130.39528 73.10883 135.47174 68.03238 141.73404 68.03238 147.99634 68.03238 153.0728 73.10883 153.0728 79.37114ZM141.73404 79.37114" fill="#f2f2f2"/>
<path transform="matrix(1.00005,0,0,-1.00002,13.335716,356.3348)" stroke-width=".19925" stroke-linecap="butt" stroke-miterlimit="10" stroke-linejoin="miter" fill="none" stroke="#bfbfbf" d="M153.0728 79.37114C153.0728 85.63344 147.99634 90.7099 141.73404 90.7099 135.47174 90.7099 130.39528 85.63344 130.39528 79.37114 130.39528 73.10883 135.47174 68.03238 141.73404 68.03238 147.99634 68.03238 153.0728 73.10883 153.0728 79.37114ZM141.73404 79.37114"/>
<use data-text="A" xlink:href="#font_1_27" transform="matrix(9.963098,0,0,-9.962799,151.3406,280.5293)"/>
<path transform="matrix(1.00005,0,0,-1.00002,13.335716,356.3348)" d="M124.726 62.36288C124.726 68.62518 119.64954 73.70164 113.38724 73.70164 107.12492 73.70164 102.04848 68.62518 102.04848 62.36288 102.04848 56.10059 107.12492 51.02412 113.38724 51.02412 119.64954 51.02412 124.726 56.10059 124.726 62.36288ZM113.38724 62.36288" fill="#f2f2f2"/>
<path transform="matrix(1.00005,0,0,-1.00002,13.335716,356.3348)" stroke-width=".19925" stroke-linecap="butt" stroke-miterlimit="10" stroke-linejoin="miter" fill="none" stroke="#bfbfbf" d="M124.726 62.36288C124.726 68.62518 119.64954 73.70164 113.38724 73.70164 107.12492 73.70164 102.04848 68.62518 102.04848 62.36288 102.04848 56.10059 107.12492 51.02412 113.38724 51.02412 119.64954 51.02412 124.726 56.10059 124.726 62.36288ZM113.38724 62.36288"/>
<use data-text="F" xlink:href="#font_1_54" transform="matrix(9.963098,0,0,-9.962799,123.47522,297.35765)"/>
<path transform="matrix(1.00005,0,0,-1.00002,13.335716,356.3348)" d="M96.37918 46.77203C96.37918 53.03435 91.30272 58.1108 85.04042 58.1108 78.77812 58.1108 73.70166 53.03435 73.70166 46.77203 73.70166 40.50974 78.77812 35.43327 85.04042 35.43327 91.30272 35.43327 96.37918 40.50974 96.37918 46.77203ZM85.04042 46.77203" fill="#f2f2f2"/>
<path transform="matrix(1.00005,0,0,-1.00002,13.335716,356.3348)" stroke-width=".19925" stroke-linecap="butt" stroke-miterlimit="10" stroke-linejoin="miter" fill="none" stroke="#bfbfbf" d="M96.37918 46.77203C96.37918 53.03435 91.30272 58.1108 85.04042 58.1108 78.77812 58.1108 73.70166 53.03435 73.70166 46.77203 73.70166 40.50974 78.77812 35.43327 85.04042 35.43327 91.30272 35.43327 96.37918 40.50974 96.37918 46.77203ZM85.04042 46.77203"/>
<use data-text="F" xlink:href="#font_1_54" transform="matrix(9.963098,0,0,-9.962799,90.97759,312.05293)"/>
<use data-text="#" xlink:href="#font_1_79" transform="matrix(9.963098,0,0,-9.962799,97.48349,312.05293)"/>
<path transform="matrix(1.00005,0,0,-1.00002,13.335716,356.3348)" d="M68.03238 29.76422C68.03238 36.02652 62.95592 41.10298 56.69362 41.10298 50.4313 41.10298 45.35486 36.02652 45.35486 29.76422 45.35486 23.50192 50.4313 18.42546 56.69362 18.42546 62.95592 18.42546 68.03238 23.50192 68.03238 29.76422ZM56.69362 29.76422" fill="#f2f2f2"/>
<path transform="matrix(1.00005,0,0,-1.00002,13.335716,356.3348)" stroke-width=".19925" stroke-linecap="butt" stroke-miterlimit="10" stroke-linejoin="miter" fill="none" stroke="#bfbfbf" d="M68.03238 29.76422C68.03238 36.02652 62.95592 41.10298 56.69362 41.10298 50.4313 41.10298 45.35486 36.02652 45.35486 29.76422 45.35486 23.50192 50.4313 18.42546 56.69362 18.42546 62.95592 18.42546 68.03238 23.50192 68.03238 29.76422ZM56.69362 29.76422"/>
<use data-text="F" xlink:href="#font_1_54" transform="matrix(9.963098,0,0,-9.962799,66.77939,329.95729)"/>
<path transform="matrix(1.00005,0,0,-1.00002,13.335716,356.3348)" d="M11.33876 0C11.33876 6.2623 6.2623 11.33876 0 11.33876-6.2623 11.33876-11.33876 6.2623-11.33876 0-11.33876-6.2623-6.2623-11.33876 0-11.33876 6.2623-11.33876 11.33876-6.2623 11.33876 0ZM0 0" fill="#f2f2f2"/>
<path transform="matrix(1.00005,0,0,-1.00002,13.335716,356.3348)" stroke-width=".19925" stroke-linecap="butt" stroke-miterlimit="10" stroke-linejoin="miter" fill="none" stroke="#bfbfbf" d="M11.33876 0C11.33876 6.2623 6.2623 11.33876 0 11.33876-6.2623 11.33876-11.33876 6.2623-11.33876 0-11.33876-6.2623-6.2623-11.33876 0-11.33876 6.2623-11.33876 11.33876-6.2623 11.33876 0ZM0 0"/>
<use data-text="E" xlink:href="#font_1_49" transform="matrix(9.963098,0,0,-9.962799,8.005447,360.0709)"/>
<use data-text="&#x266d;" xlink:href="#font_2_1" transform="matrix(9.963098,0,0,-9.962799,14.78978,360.0709)"/>
<path transform="matrix(1.00005,0,0,-1.00002,13.335716,356.3348)" d="M39.68556 15.59082C39.68556 21.85312 34.6091 26.92958 28.3468 26.92958 22.0845 26.92958 17.00804 21.85312 17.00804 15.59082 17.00804 9.32852 22.0845 4.25206 28.3468 4.25206 34.6091 4.25206 39.68556 9.32852 39.68556 15.59082ZM28.3468 15.59082" fill="#f2f2f2"/>
<path transform="matrix(1.00005,0,0,-1.00002,13.335716,356.3348)" stroke-width=".19925" stroke-linecap="butt" stroke-miterlimit="10" stroke-linejoin="miter" fill="none" stroke="#bfbfbf" d="M39.68556 15.59082C39.68556 21.85312 34.6091 26.92958 28.3468 26.92958 22.0845 26.92958 17.00804 21.85312 17.00804 15.59082 17.00804 9.32852 22.0845 4.25206 28.3468 4.25206 34.6091 4.25206 39.68556 9.32852 39.68556 15.59082ZM28.3468 15.59082"/>
<use data-text="E" xlink:href="#font_1_49" transform="matrix(9.963098,0,0,-9.962799,38.290964,344.13157)"/>
<path transform="matrix(1.00005,0,0,-1.00002,13.335716,356.3348)" stroke-width=".79701" stroke-linecap="butt" stroke-miterlimit="10" stroke-linejoin="miter" fill="none" stroke="#000000" d="M212.60106 56.69362V354.3351"/>
<path transform="matrix(1.00005,0,0,-1.00002,13.335716,356.3348)" stroke-width=".79701" stroke-linecap="butt" stroke-miterlimit="10" stroke-linejoin="miter" fill="none" stroke="#000000" d="M198.42766 56.69362V354.3351"/>
<path transform="matrix(1.00005,0,0,-1.00002,13.335716,356.3348)" stroke-width=".79701" stroke-linecap="butt" stroke-miterlimit="10" stroke-linejoin="miter" fill="none" stroke="#000000" d="M184.25424 56.69362V354.3351"/>
</svg>
