<svg xmlns="http://www.w3.org/2000/svg" xmlns:xlink="http://www.w3.org/1999/xlink" xmlns:inkscape="http://www.inkscape.org/namespaces/inkscape" version="1.1" width="336" height="204" viewBox="0 0 336 204">
<defs>
<path id="font_1_42" d="M.70700076 .23370362C.70700076 .24371338 .70700076 .25273133 .69099429 .25273133 .6799927 .25273133 .6769867 .24772644 .6759949 .23771668 .66799929 .08357239 .5439911 .011505127 .43798829 .011505127 .35299684 .011505127 .16299439 .06355286 .16299439 .34179688 .16299439 .6110382 .34298707 .6710968 .43798829 .6710968 .5319977 .6710968 .647995 .6040344 .673996 .43188478 .6749878 .4238739 .6759949 .41687013 .6899872 .41687013 .70700076 .41687013 .70700076 .4238739 .70700076 .4429016V.6781006C.70700076 .6940918 .70700076 .70410159 .69400027 .70410159 .68699648 .70410159 .6859894 .7030945 .6769867 .690094L.6259918 .6160431C.58999636 .65509036 .5239868 .70410159 .42799378 .70410159 .22698975 .70410159 .05899048 .542984 .05899048 .34179688 .05899048 .13961792 .22599793-.021484375 .42900086-.021484375 .5970001-.021484375 .70700076 .11160278 .70700076 .23370362Z"/>
<path id="font_1_49" d="M.69200137 .25993348H.6609955C.6349945 .10997009 .6139984 .032989503 .43399049 .032989503H.2849884C.23899842 .032989503 .23699951 .039993287 .23699951 .07397461V.33691407H.33399964C.43299867 .33691407 .44699098 .30691529 .44699098 .21994019H.47799684V.4868164H.44699098C.44699098 .39988709 .43299867 .36990357 .33399964 .36990357H.23699951V.6057129C.23699951 .63967898 .23899842 .64668276 .2849884 .64668276H.4269867C.59298709 .64668276 .6139984 .5867157 .6319885 .45277406H.6629944L.6339874 .6796875H.04399109V.64668276H.06599426C.14299011 .64668276 .14498902 .63568118 .14498902 .5987091V.080963138C.14498902 .04399109 .14299011 .032989503 .06599426 .032989503H.04399109V0H.647995L.69200137 .25993348Z"/>
<path id="font_2_1" d="M.12399292 .7140045C.12399292 .7369995 .12399292 .75 .09599304 .75 .067993167 .75 .067993167 .73599246 .067993167 .7130127V.01890564C.067993167-.0030975342 .067993167-.017105103 .09599304-.017105103 .10699463-.017105103 .10899353-.017105103 .11999512-.011108398 .23399353 .0549469 .40699769 .16003418 .40699769 .3302002 .40699769 .41625978 .33399964 .4752655 .24299622 .4752655 .18598938 .4752655 .14498902 .4582672 .12399292 .44526673V.7140045M.12399292 .3381958C.12399292 .3622284 .12399292 .37623597 .15499878 .3912506 .1769867 .40226747 .20199585 .40527345 .22599793 .40527345 .2659912 .40527345 .2749939 .3572235 .2749939 .3302002 .2749939 .21409607 .18499756 .117004398 .12399292 .061950685V.3381958Z"/>
<path id="font_1_54" d="M.647995 .45303346 .61898806 .6796875H.04399109V.64668276H.06599426C.14299011 .64668276 .14498902 .6356964 .14498902 .59877017V.08102417C.14498902 .044006349 .14299011 .032989503 .06599426 .032989503H.04399109V0L.19799805 .0029907227C.24499512 .0029907227 .31799317 .0029907227 .36299134 0V.032989503H.33099366C.23699951 .032989503 .23699951 .04699707 .23699951 .08203125V.32421876H.32998658C.42799378 .32421876 .43998719 .29318238 .43998719 .2071228H.47099305V.47399903H.43998719C.43998719 .38916017 .42799378 .35720826 .32998658 .35720826H.23699951V.60575869C.23699951 .6396942 .23899842 .64668276 .2849884 .64668276H.41799928C.58099368 .64668276 .59999087 .58380129 .61698916 .45303346H.647995Z"/>
<path id="font_2_2" d="M.31098939-.03488159V-.09085083C.31098939-.10684204 .31098939-.12683106 .33198548-.12683106 .33999635-.12683106 .35598756-.11784363 .35899354-.11483765 .36698915-.10884094 .36698915-.10284424 .36698915-.083862308V-.009887695C.4059906 .0061035158 .40699769 .007095337 .40699769 .036087037V.09605408C.40699769 .11206055 .40699769 .13204956 .38598634 .13204956 .3769989 .13204956 .36799623 .12605286 .36698915 .12605286V.43389894C.4059906 .4499054 .40699769 .45089723 .40699769 .47988893V.53985598C.40699769 .55584719 .40699769 .5758362 .38598634 .5758362 .3769989 .5758362 .36799623 .5698395 .36698915 .5698395V.68078616C.36698915 .6977844 .36698915 .7167969 .34599305 .7167969 .33699037 .7167969 .32199098 .708786 .31799317 .7057953 .31098939 .6987915 .31098939 .6937866 .31098939 .6747894V.54486086L.1639862 .47888185V.5908356C.1639862 .6068268 .1639862 .6268158 .14299011 .6268158 .1349945 .6268158 .11898804 .61782839 .115997318 .6148224 .10798645 .6088257 .10798645 .602829 .10798645 .5838318V.4539032C.068984989 .43789674 .067993167 .4369049 .067993167 .4069214V.34794618C.067993167 .33195497 .067993167 .31196595 .08898926 .31196595 .09799194 .31196595 .10699463 .31796266 .10798645 .31796266V.010101318C.068984989-.0058898928 .067993167-.0068969728 .067993167-.036880495V-.09585571C.067993167-.111846927 .067993167-.13183594 .08898926-.13183594 .09799194-.13183594 .10699463-.12583924 .10798645-.12583924V-.18081665C.10798645-.19779969 .10798645-.21679688 .1289978-.21679688 .13798523-.21679688 .15299988-.20880127 .15699768-.20581055 .1639862-.19880677 .1639862-.19380188 .1639862-.17481995V-.10084534L.31098939-.03488159M.31098939 .4089203V.10105896L.1639862 .035095216V.34294129L.31098939 .4089203Z"/>
<path id="font_1_27" d="M.7589874 0V.032989503H.74198916C.67900088 .032989503 .6689911 .04197693 .6569977 .07392883L.4229889 .69184878C.41799928 .7048645 .4149933 .7138672 .397995 .7138672 .37998963 .7138672 .3769989 .7058563 .37199403 .69184878L.14898682 .102890018C.13899231 .075927738 .117996219 .032989503 .035995485 .032989503V0C.067993167 .0029907227 .12098694 .0029907227 .13899231 .0029907227 .17098999 .0029907227 .20098877 .0029907227 .25 0V.032989503C.20599365 .033996583 .17999268 .053955079 .17999268 .08291626 .17999268 .089904788 .17999268 .09190369 .18499756 .103897098L.23199463 .22871399H.5039978L.55999758 .08091736C.5649872 .06893921 .5649872 .062942508 .5649872 .062942508 .5649872 .032989503 .5130005 .032989503 .4850006 .032989503V0L.6269989 .0029907227C.68299868 .0029907227 .70098879 .0029907227 .7589874 0M.4909973 .26171876H.24398804L.36799623 .5888214 .4909973 .26171876Z"/>
<path id="font_1_58" d="M.7819977 .24238587V.27539063C.73098757 .27238465 .7029877 .27238465 .6459961 .27238465 .6029968 .27238465 .5219879 .27238465 .48298646 .27539063V.24238587H.5179901C.61299136 .24272156 .6159973 .23069763 .6159973 .19366455V.12960816C.6159973 .10958862 .6159973 .06855774 .5629883 .039535524 .5130005 .011505127 .45700074 .011505127 .44499208 .011505127 .34298707 .011505127 .16299439 .07356262 .16299439 .34179688 .16299439 .61305239 .34599305 .6710968 .43798829 .6710968 .5379944 .6710968 .6499939 .5980377 .6749878 .43289186 .6759949 .42288209 .6769867 .41687013 .69099429 .41687013 .70799258 .41687013 .70799258 .4238739 .70799258 .4429016V.6781006C.70799258 .6940918 .70799258 .70410159 .69499209 .70410159 .6879883 .70410159 .68699648 .7030945 .6779938 .690094L.6269989 .6160431C.58399966 .6620941 .5179901 .70410159 .42799378 .70410159 .22799683 .70410159 .05899048 .542984 .05899048 .34179688 .05899048 .1426239 .22299195-.021484375 .43099977-.021484375 .5079956-.021484375 .59399417 .0015106201 .6339874 .060546876 .6519928 .03253174 .6859894-.00048828127 .69599917-.00048828127 .70799258 0 .70799258 .010986328 .70799258 .025985718V.19799805C.70799258 .23738098 .71199038 .24238587 .7819977 .24238587Z"/>
<path id="font_1_34" d="M.69200137 .18299866C.69200137 .2639923 .61499026 .34298707 .48999024 .35699464 .598999 .379776 .6619873 .44573976 .6619873 .51368716 .6619873 .6026306 .56199648 .6826172 .42799378 .6826172H.04798889V.6496124H.069992069C.14698792 .6496124 .14898682 .63861086 .14898682 .6016388V.080963138C.14898682 .04399109 .14698792 .032989503 .069992069 .032989503H.04798889V0H.45599366C.59399417-.00018310547 .69200137 .08781433 .69200137 .18281555V.18299866M.5649872 .5137024C.5649872 .445755 .5049896 .3688202 .3909912 .3688202H.23399353V.6086426C.23399353 .64260867 .23599243 .6496124 .28199769 .6496124H.42099C.519989 .6498108 .5649872 .57281497 .5649872 .5138092V.5137024M.59098818 .18389893C.59098818 .10295105 .5239868 .032989503 .42199708 .032989503H.28199769C.23599243 .032989503 .23399353 .039993287 .23399353 .07397461V.3408203H.43699647C.5339966 .34098817 .59098818 .2630005 .59098818 .18399048V.18389893Z"/>
<path id="font_1_46" d="M.7509918 .33480836C.7509918 .52767947 .6049957 .6826172 .42599488 .6826172H.04598999V.6496124H.067993167C.14498902 .6496124 .14698792 .63861086 .14698792 .6016388V.080963138C.14698792 .04399109 .14498902 .032989503 .067993167 .032989503H.04598999V0H.42599488C.60598757 0 .7509918 .1499176 .7509918 .33480836M.6499939 .33580018C.6499939 .28483583 .6499939 .18688965 .58699038 .11294556 .5519867 .07197571 .48799134 .032989503 .39898683 .032989503H.28399659C.23799134 .032608034 .23599243 .039611818 .23599243 .0736084V.60861209C.23599243 .64260867 .23799134 .6496124 .28399659 .6496124H.39898683C.47698976 .6496124 .5419922 .61761477 .58599856 .5676117 .6499939 .49160768 .6499939 .38461305 .6499939 .3356018V.33580018Z"/>
<path id="font_3_104" d="M.7789917 .4308777 .7569885 .6738281H.06498718L.042999269 .4308777H.09399414C.10398865 .5418396 .11299133 .6248169 .2599945 .6248169H.33898927V.04899597H.18598938V0C.22999573 .0029907227 .3600006 .0029907227 .4119873 .0029907227 .46398927 .0029907227 .59298709 .0029907227 .6369934 0V.04899597H.48399354V.6248169H.5629883C.70999148 .6248169 .71798709 .5398407 .7279968 .4308777H.7789917Z"/>
<path id="font_3_81" d="M.55799868 .21812439C.55799868 .3491211 .46598817 .453125 .29599 .453125 .11999512 .453125 .032989503 .3441162 .032989503 .21812439 .032989503 .09413147 .12298584-.005859375 .29499818-.005859375 .47399903-.005859375 .55799868 .09913635 .55799868 .21812439M.4249878 .22912598C.4249878 .14312744 .4249878 .037139894 .29599 .037139894 .1659851 .037139894 .1659851 .14213562 .1659851 .22912598 .1659851 .3131256 .1659851 .41311646 .29499818 .41311646 .4249878 .41311646 .4249878 .3131256 .4249878 .22912598Z"/>
<path id="font_3_84" d="M.61698916 .22218323C.61698916 .354187 .526001 .4501953 .375 .4501953 .2939911 .45033265 .23899842 .41633607 .21998596 .40234376V.4501953L.040985109 .4423828V.39337159C.06098938 .39337159 .07699585 .39337159 .08999634 .39038087 .10899353 .38737489 .10899353 .3763733 .10899353 .3553772V-.14453125H.040985109V-.19354248L.16699219-.1905365 .2939911-.19354248V-.14453125H.22599793V.03942871C.2849884-.005859375 .33999635-.005859375 .35899354-.005859375 .5159912-.005859375 .61698916 .089141849 .61698916 .22216797V.22218323M.48399354 .22315979C.48399354 .08413696 .41299439 .03413391 .34700013 .03413391 .29599 .03413391 .25299073 .06314087 .22599793 .104141239V.34518434C.24398804 .3671875 .29100038 .4071808 .35899354 .4071808 .42900086 .4071808 .48399354 .34518434 .48399354 .22315979Z"/>
<path id="font_3_55" d="M.45098878 .6111908C.45098878 .65615847 .4119873 .70014956 .33399964 .70014956 .22898865 .70014956 .12098694 .65515139 .12098694 .5432434V.44433595H.04399109V.3953247H.12098694V.04899597H.052993776V0L.18099976 .0029907227C.20599365 .0029907227 .2639923 .0029907227 .31698609 0V.04899597H.23199463V.3953247H.35099793V.44433595H.22599793V.5432434C.22599793 .65216067 .3039856 .66015627 .32899476 .66015627 .33198548 .66015627 .34199525 .65815737 .34199525 .65815737 .34199525 .65815737 .34199525 .65615847 .33999635 .65415957 .32899476 .6411438 .32398988 .6271515 .32398988 .611145 .32398988 .56915286 .35798646 .54714968 .3869934 .54714968 .41999818 .54714968 .45098878 .57115176 .45098878 .611145V.6111908Z"/>
<path id="font_3_27" d="M.848999 0V.04899597H.7519989L.48999024 .67318728C.47898866 .7001953 .46398927 .7001953 .44599916 .7001953 .42799378 .7001953 .41299439 .7001953 .4019928 .67318728L.14898682 .072006229C.14199829 .055923463 .14199829 .05491638 .116989139 .05192566 .099990848 .049987794 .08099365 .04899597 .06399536 .04899597H.042999269V0C.09899902 .0019226074 .11199951 .0029296876 .16499329 .0029296876 .20399475 .0029907227 .23599243 .0029907227 .2979889 0V.04899597C.2709961 .04899597 .23699951 .04899597 .20899964 .060012819L.2639923 .1921997H.54100039L.6009979 .04899597H.5069885V0C.5419922 .0029296876 .6429901 .0029296876 .6839905 .0029296876 .7259979 .0029907227 .8109894 .0029907227 .848999 0M.519989 .24121094H.2849884L.40299989 .5212097 .519989 .24121094Z"/>
<path id="font_3_43" d="M.49198915 .11613464C.49198915 .13212586 .47698976 .13212586 .46598817 .13212586 .44599916 .13212586 .44599916 .13113404 .43798829 .11312866 .41799928 .06512451 .37298585 .037139894 .31399537 .037139894 .17199707 .037139894 .17199707 .18112183 .17199707 .22612 .17199707 .28611756 .17298889 .41011048 .3039856 .41011048 .31098939 .41011048 .36499024 .40911866 .36499024 .40411378L.3619995 .39912416C.35299684 .38812257 .34899903 .3721161 .34899903 .35812379 .34899903 .3171234 .37998963 .29312135 .4139862 .29312135 .44499208 .29312135 .47898866 .31411744 .47898866 .3591156 .47898866 .453125 .33898927 .453125 .2999878 .453125 .10798645 .453125 .038986207 .33111573 .038986207 .22212219 .038986207 .09613037 .1289978-.005859375 .29499818-.005859375 .33198548-.005859375 .3809967 .0001373291 .4229889 .026138306 .47999574 .06098938 .49198915 .11299133 .49198915 .115997318V.11613464Z"/>
<path id="font_3_96" d="M.45498658 .36618043C.45498658 .41719056 .40299989 .4501953 .34399415 .4501953 .27398683 .4501953 .23098755 .39918519 .20899964 .34118653H.20799256V.4501953L.040985109 .4423828V.39337159C.100997928 .39337159 .10899353 .39337159 .10899353 .3543396V.04899597H.040985109V0L.16899109 .0029907227C.19400025 .0029907227 .2519989 .0029907227 .30499269 0V.04899597H.21998596V.21818543C.21998596 .29125978 .24699402 .40737916 .34399415 .41036988 .33299256 .39898683 .32798768 .38198854 .32798768 .3659973 .32798768 .32199098 .36299134 .3019867 .3909912 .3019867 .4229889 .3019867 .45498658 .32398988 .45498658 .3659973V.36618043Z"/>
<path id="font_3_47" d="M.61499026 0V.04899597C.5549927 .04899597 .5469971 .04899597 .5469971 .088012699V.69433596L.36799623 .6855469V.63653567C.42799378 .63653567 .43598939 .63653567 .43598939 .5976715V.40518189C.3919983 .43719483 .34498597 .4501953 .29699708 .4501953 .13398743 .4501953 .038986207 .35118104 .038986207 .22216797 .038986207 .089141849 .1329956-.005859375 .2849884-.005859375 .34799195-.005859375 .397995 .018127442 .42999269 .044128419V-.005859375L.61499026 0M.42999269 .10899353C.4079895 .074142459 .3600006 .03413391 .29599 .03413391 .17199707 .03413391 .17199707 .15414429 .17199707 .22015381 .17199707 .27816773 .17298889 .32118226 .19898987 .3581848 .22499085 .39819337 .272995 .41018678 .30799867 .41018678 .35798646 .41018678 .39898683 .3881836 .42999269 .34918214V.10899353Z"/>
<path id="font_3_66" d="M.2919922 0V.04899597H.23098755V.4501953L.054992677 .4423828V.39337159C.11299133 .39337159 .11999512 .39337159 .11999512 .3543396V.04899597H.051986696V0C.11898804 .0019989014 .13198853 .0029907227 .17399597 .0029907227 .22299195 .0029907227 .23599243 .0019989014 .2919922 0M.24198914 .6053314C.24198914 .65234377 .20399475 .68434146 .1639862 .68434146 .12199402 .68434146 .085998538 .6503296 .085998538 .6063385 .085998538 .55934146 .12399292 .52734377 .1639862 .52734377 .20599365 .52734377 .24198914 .56134036 .24198914 .6053314Z"/>
<path id="font_3_77" d="M.6299896-.0002746582V.048721315H.56199648V.30471803C.56199648 .4237213 .48999024 .4497223 .40299989 .4497223 .27999879 .4497223 .23098755 .35972596 .22399903 .34472657H.22299195V.4497223L.049987794 .44172669V.39271546C.10998535 .39271546 .117996219 .39271546 .117996219 .353714V.048721315H.049987794V-.0002746582L.17599488 .0027160645 .30299378-.0002746582V.048721315H.23498535V.25372315C.23498535 .36572267 .32699586 .40971376 .3869934 .40971376 .4249878 .40971376 .44499208 .38871766 .44499208 .3137207V.048721315H.3769989V-.0002746582L.5029907 .0027160645 .6299896-.0002746582Z"/>
<path id="font_4_104" d="M.7599945 .47380067 .7899933 .6547241C.7919922 .6647339 .7919922 .6667328 .7919922 .6667328 .7919922 .6777344 .7849884 .6777344 .7679901 .6777344H.2659912C.24499512 .6777344 .24299622 .6777344 .23799134 .6617279L.1769867 .47779847C.17599488 .47480775 .17399597 .46780396 .17399597 .46479798 .17399597 .45480348 .18399048 .45480348 .18699646 .45480348 .19699097 .45480348 .19799805 .45581056 .20599365 .47579957 .2559967 .6247406 .27799989 .6487274 .4139862 .6487274H.44799806C.47099305 .6487274 .47099305 .6447296 .47099305 .63772585 .47099305 .6317291 .46798707 .6187439 .46699525 .616745L.33198548 .07597351C.32299806 .038986207 .31498719 .0289917 .22999573 .0289917H.21798706C.19999695 .0289917 .19099427 .0289917 .19099427 .009994507 .19099427 0 .19999695 0 .20799256 0L.34999085 .0019989014 .49499513 0C.5049896 0 .5159912 0 .5159912 .017990113 .5159912 .0289917 .5089874 .0289917 .49198915 .0289917H.47999574C.46299745 .0289917 .44699098 .02999878 .43099977 .03199768 .4119873 .033996583 .4019928 .034988405 .4019928 .050979616 .4019928 .055984498 .4019928 .0579834 .4039917 .067977908L.5399933 .6117401C.5469971 .63972476 .5529938 .6447296 .5609894 .6467285 .56799319 .6487274 .5970001 .6487274 .61499026 .6487274 .70199587 .6487274 .7429962 .6427307 .7429962 .573761 .7429962 .54377749 .7350006 .49279786 .7319946 .47680665L.7299957 .46580506C.7299957 .45480348 .73999026 .45480348 .74398806 .45480348 .7559967 .45480348 .7569885 .45780946 .7599945 .47380067Z"/>
<path id="font_4_96" d="M.48098756 .38337709C.48098756 .4343872 .41299439 .44140626 .3849945 .44140626 .33898927 .44140626 .30099488 .41938783 .2639923 .3673706 .25498963 .4263916 .21199036 .44140626 .18499756 .44140626 .1619873 .44140626 .13598633 .43139649 .114990238 .38838197 .09599304 .35136415 .08299255 .28933717 .08299255 .28933717 .08299255 .28134156 .08799744 .2793274 .09700012 .2793274 .10798645 .2793274 .10899353 .28033448 .114990238 .30334474 .12998963 .36236573 .14898682 .42138673 .18299866 .42138673 .20899964 .42138673 .20899964 .39237977 .20899964 .3803711 .20899964 .36135865 .20498657 .33935548 .20098877 .3253479L.12799073 .0332489C.12399292 .019241333 .12399292 .018234253 .12399292 .01423645 .12399292 .0022277833 .13198853-.009765625 .1499939-.009765625 .17298889-.009765625 .18299866 .009231567 .18699646 .025238038L.2519989 .28633119C.25498963 .29833985 .2999878 .42138673 .38398744 .42138673 .3889923 .42138673 .4169922 .42138673 .43899537 .40737916 .42399598 .40338136 .40499879 .38838197 .40499879 .3633728 .40499879 .34236146 .42099 .3343506 .43598939 .3343506 .45399476 .3343506 .48098756 .34736634 .48098756 .38337709Z"/>
<path id="font_4_50" d="M.45700074 .1053009C.45700074 .11231995 .44898988 .12031555 .44299317 .12031555 .43998719 .12031555 .43899537 .11932373 .43099977 .110305789 .37799073 .038253786 .30299378 .010223389 .2519989 .010223389 .18598938 .010223389 .1769867 .08929443 .1769867 .12132263 .1769867 .1653595 .18399048 .1933899 .19400025 .23242188H.22999573C.2649994 .23242188 .45298768 .23242188 .45298768 .35839845 .45298768 .4033966 .41600038 .44140626 .35699464 .44140626 .25299073 .44140626 .11399841 .33940126 .11399841 .1633606 .11399841 .06227112 .1659851-.009765625 .25099183-.009765625 .375-.009765625 .45700074 .091293338 .45700074 .1053009M.4189911 .35940553C.4189911 .2524109 .25299073 .2524109 .22099304 .2524109H.19999695C.23999024 .41140748 .33799745 .42140199 .35598756 .42140199 .3959961 .42140199 .4189911 .3934021 .4189911 .35940553Z"/>
<path id="font_4_35" d="M.44898988 .28933717C.44898988 .3763733 .40299989 .44140626 .33399964 .44140626 .28399659 .44140626 .24299622 .4013977 .22698975 .38539125L.2979889 .671402C.2999878 .67840579 .30099488 .6813965 .30099488 .68440249 .30099488 .69340518 .2939911 .694397 .27799989 .69340518L.17799378 .68440249C.1639862 .6833954 .15499878 .68240359 .15499878 .6643982 .15499878 .6544037 .16299439 .6544037 .1769867 .6544037 .22698975 .6544037 .22698975 .645401 .22698975 .6354065 .22698975 .6304016 .22499085 .6233978 .22399903 .61839297L.12298584 .21331787C.11399841 .17729187 .11399841 .1512909 .11399841 .14027405 .11399841 .04524231 .1619873-.009765625 .22399903-.009765625 .33599855-.009765625 .44898988 .14628601 .44898988 .28933717M.33198548 .10826111C.29699708 .038238527 .2559967 .010223389 .22499085 .010223389 .17999268 .010223389 .1659851 .06425476 .1659851 .10626221 .1659851 .14527893 .1769867 .18530274 .19898987 .27534486 .20199585 .28533937 .20399475 .29534913 .20698548 .30534364 .21699524 .34436036 .27799989 .42140199 .33099366 .42140199 .36698915 .42140199 .38598634 .38438417 .38598634 .33135987 .38598634 .27534486 .35198976 .15028382 .33198548 .10826111Z"/>
<path id="font_4_72" d="M.272995 .14222718C.272995 .15222168 .2649994 .15222168 .2599945 .15222168 .2559967 .15222168 .24899292 .15222168 .24699402 .14622498 .24598694 .14323426 .24198914 .1282196 .23899842 .11923218 .22599793 .07022095 .20899964 .010223389 .1749878 .010223389 .15299988 .010223389 .147995 .031219483 .147995 .050231935 .147995 .06323242 .15299988 .0912323 .1559906 .10423279L.2979889 .67123416C.29899598 .67723086 .30099488 .68122866 .30099488 .6842346 .30099488 .69322207 .2939911 .6942291 .27799989 .69322207L.17799378 .6842346C.1639862 .68322756 .15499878 .6822357 .15499878 .66423037 .15499878 .6542206 .16299439 .6542206 .1769867 .6542206 .22698975 .6542206 .22698975 .64523318 .22698975 .6352234 .22698975 .6312256 .22499085 .6212311 .22399903 .6172333L.09799194 .113220218C.09599304 .10423279 .09298706 .0932312 .09298706 .07823181 .09298706 .025222779 .1269989-.009765625 .17298889-.009765625 .20698548-.009765625 .22698975 .01322937 .24099732 .041229249 .25898744 .07423401 .272995 .13922119 .272995 .14222718Z"/>
<path id="font_5_1" d="M.116989139 .7140045C.116989139 .7369995 .116989139 .75 .09199524 .75 .06599426 .75 .06599426 .73498538 .06599426 .7140045V.01890564C.06599426-.0041046144 .06599426-.017105103 .09199524-.017105103 .09799194-.017105103 .099990848-.017105103 .10398865-.016098023 .10798645-.014099121 .17199707 .023910523 .20899964 .049926759 .27598573 .097961429 .3929901 .19104004 .3929901 .33013917 .3929901 .41419984 .32398988 .4741974 .23498535 .4741974 .18598938 .4741974 .1459961 .4611969 .116989139 .4421997V.7140045M.116989139 .33815003C.116989139 .36216737 .116989139 .37817384 .1459961 .39318849 .1769867 .40820313 .21798706 .40820313 .21899414 .40820313 .2619934 .40820313 .2630005 .34313966 .2630005 .33113099 .2630005 .20004273 .1579895 .097961429 .116989139 .057937623V.33815003Z"/>
<path id="font_5_2" d="M.3019867-.03388977V-.09086609C.3019867-.1088562 .3019867-.12686157 .32199098-.12686157 .32998658-.12686157 .34298707-.11985779 .34700013-.115859989 .35299684-.10986328 .35299684-.1048584 .35299684-.085876468V-.010894775C.37298585-.0019073486 .375-.0019073486 .38198854 .002090454 .3929901 .008087158 .3929901 .016082764 .3929901 .036087037V.094055179C.3929901 .11204529 .3929901 .1300354 .37298585 .1300354 .36299134 .1300354 .35398866 .123046878 .35299684 .123046878V.43292237C.37298585 .4419098 .375 .4419098 .38198854 .44592286 .3929901 .45191957 .3929901 .45991517 .3929901 .47990418V.5378723C.3929901 .5558777 .3929901 .5738678 .37298585 .5738678 .36299134 .5738678 .35398866 .566864 .35299684 .566864V.6798248C.35299684 .69480898 .35299684 .7158203 .33299256 .7158203 .32598878 .7158203 .31199647 .7088165 .30799867 .7048187 .3019867 .69880679 .3019867 .69381716 .3019867 .67481997V.543869L.15699768 .47790528V.59085085C.15699768 .6088562 .15699768 .6268463 .13699341 .6268463 .1289978 .6268463 .115997318 .6198425 .11199951 .6158447 .10598755 .609848 .10598755 .6048584 .10598755 .5858612V.45491029C.066986087 .437912 .06599426 .43692018 .06599426 .40792848V.34996034C.06599426 .33195497 .06599426 .31396485 .085998538 .31396485 .09599304 .31396485 .10499573 .32096864 .10598755 .32096864V.01109314C.066986087-.0059051516 .06599426-.0068969728 .06599426-.035888673V-.09387207C.06599426-.11186218 .06599426-.1298523 .085998538-.1298523 .09599304-.1298523 .10499573-.12286377 .10598755-.12286377V-.17984009C.10598755-.19482422 .10598755-.21582031 .12599182-.21582031 .1329956-.21582031 .14698792-.20883179 .15098572-.20483399 .15699768-.19882202 .15699768-.1938324 .15699768-.1748352V-.099868778L.3019867-.03388977M.3019867 .40992738V.10005188L.15699768 .034072877V.34396363L.3019867 .40992738Z"/>
</defs>
<path transform="matrix(1.00005,0,0,-1,33.102998,188.563)" d="M14.19695 0C14.19695 7.84084 7.84084 14.19695 0 14.19695-7.84084 14.19695-14.19695 7.84084-14.19695 0-14.19695-7.84084-7.84084-14.19695 0-14.19695 7.84084-14.19695 14.19695-7.84084 14.19695 0ZM0 0" fill="#f2f2f2"/>
<path transform="matrix(1.00005,0,0,-1,33.102998,188.563)" stroke-width=".3985" stroke-linecap="butt" stroke-miterlimit="10" stroke-linejoin="miter" fill="none" stroke="#7f807f" d="M14.19695 0C14.19695 7.84084 7.84084 14.19695 0 14.19695-7.84084 14.19695-14.19695 7.84084-14.19695 0-14.19695-7.84084-7.84084-14.19695 0-14.19695 7.84084-14.19695 14.19695-7.84084 14.19695 0ZM0 0"/>
<use data-text="C" xlink:href="#font_1_42" transform="matrix(5.9778735,0,0,-5.977575,30.81063,190.60425)"/>
<path transform="matrix(1.00005,0,0,-1,33.102998,188.563)" d="M46.08708 0C46.08708 7.84084 39.73099 14.19695 31.89014 14.19695 24.0493 14.19695 17.69319 7.84084 17.69319 0 17.69319-7.84084 24.0493-14.19695 31.89014-14.19695 39.73099-14.19695 46.08708-7.84084 46.08708 0ZM31.89014 0" fill="#f2f2f2"/>
<path transform="matrix(1.00005,0,0,-1,33.102998,188.563)" stroke-width=".3985" stroke-linecap="butt" stroke-miterlimit="10" stroke-linejoin="miter" fill="none" stroke="#7f807f" d="M46.08708 0C46.08708 7.84084 39.73099 14.19695 31.89014 14.19695 24.0493 14.19695 17.69319 7.84084 17.69319 0 17.69319-7.84084 24.0493-14.19695 31.89014-14.19695 39.73099-14.19695 46.08708-7.84084 46.08708 0ZM31.89014 0"/>
<use data-text="E" xlink:href="#font_1_49" transform="matrix(5.9778735,0,0,-5.977575,61.410165,190.80426)"/>
<use data-text="&#x266d;" xlink:href="#font_2_1" transform="matrix(5.9778735,0,0,-5.977575,65.73263,190.80426)"/>
<path transform="matrix(1.00005,0,0,-1,33.102998,188.563)" d="M77.97725 0C77.97725 7.84084 71.62115 14.19695 63.7803 14.19695 55.93945 14.19695 49.58336 7.84084 49.58336 0 49.58336-7.84084 55.93945-14.19695 63.7803-14.19695 71.62115-14.19695 77.97725-7.84084 77.97725 0ZM63.7803 0" fill="#f2f2f2"/>
<path transform="matrix(1.00005,0,0,-1,33.102998,188.563)" stroke-width=".3985" stroke-linecap="butt" stroke-miterlimit="10" stroke-linejoin="miter" fill="none" stroke="#7f807f" d="M77.97725 0C77.97725 7.84084 71.62115 14.19695 63.7803 14.19695 55.93945 14.19695 49.58336 7.84084 49.58336 0 49.58336-7.84084 55.93945-14.19695 63.7803-14.19695 71.62115-14.19695 77.97725-7.84084 77.97725 0ZM63.7803 0"/>
<use data-text="F" xlink:href="#font_1_54" transform="matrix(5.9778735,0,0,-5.977575,93.391757,190.05725)"/>
<use data-text="&#x266f;" xlink:href="#font_2_2" transform="matrix(5.9778735,0,0,-5.977575,97.53496,190.05725)"/>
<path transform="matrix(1.00005,0,0,-1,33.102998,188.563)" d="M109.86742 0C109.86742 7.84084 103.5113 14.19695 95.67047 14.19695 87.82962 14.19695 81.47353 7.84084 81.47353 0 81.47353-7.84084 87.82962-14.19695 95.67047-14.19695 103.5113-14.19695 109.86742-7.84084 109.86742 0ZM95.67047 0" fill="#f2f2f2"/>
<path transform="matrix(1.00005,0,0,-1,33.102998,188.563)" stroke-width=".3985" stroke-linecap="butt" stroke-miterlimit="10" stroke-linejoin="miter" fill="none" stroke="#7f807f" d="M109.86742 0C109.86742 7.84084 103.5113 14.19695 95.67047 14.19695 87.82962 14.19695 81.47353 7.84084 81.47353 0 81.47353-7.84084 87.82962-14.19695 95.67047-14.19695 103.5113-14.19695 109.86742-7.84084 109.86742 0ZM95.67047 0"/>
<use data-text="A" xlink:href="#font_1_27" transform="matrix(5.9778735,0,0,-5.977575,126.39941,190.69727)"/>
<path transform="matrix(1.00005,0,0,-1,33.102998,188.563)" d="M141.75757 0C141.75757 7.84084 135.40148 14.19695 127.56062 14.19695 119.71979 14.19695 113.36368 7.84084 113.36368 0 113.36368-7.84084 119.71979-14.19695 127.56062-14.19695 135.40148-14.19695 141.75757-7.84084 141.75757 0ZM127.56062 0" fill="#f2f2f2"/>
<path transform="matrix(1.00005,0,0,-1,33.102998,188.563)" stroke-width=".3985" stroke-linecap="butt" stroke-miterlimit="10" stroke-linejoin="miter" fill="none" stroke="#7f807f" d="M141.75757 0C141.75757 7.84084 135.40148 14.19695 127.56062 14.19695 119.71979 14.19695 113.36368 7.84084 113.36368 0 113.36368-7.84084 119.71979-14.19695 127.56062-14.19695 135.40148-14.19695 141.75757-7.84084 141.75757 0ZM127.56062 0"/>
<use data-text="C" xlink:href="#font_1_42" transform="matrix(5.9778735,0,0,-5.977575,158.378,190.60425)"/>
<path transform="matrix(1.00005,0,0,-1,33.102998,188.563)" d="M173.64774 0C173.64774 7.84084 167.29164 14.19695 159.45079 14.19695 151.60994 14.19695 145.25385 7.84084 145.25385 0 145.25385-7.84084 151.60994-14.19695 159.45079-14.19695 167.29164-14.19695 173.64774-7.84084 173.64774 0ZM159.45079 0" fill="#f2f2f2"/>
<path transform="matrix(1.00005,0,0,-1,33.102998,188.563)" stroke-width=".3985" stroke-linecap="butt" stroke-miterlimit="10" stroke-linejoin="miter" fill="none" stroke="#7f807f" d="M173.64774 0C173.64774 7.84084 167.29164 14.19695 159.45079 14.19695 151.60994 14.19695 145.25385 7.84084 145.25385 0 145.25385-7.84084 151.60994-14.19695 159.45079-14.19695 167.29164-14.19695 173.64774-7.84084 173.64774 0ZM159.45079 0"/>
<use data-text="E" xlink:href="#font_1_49" transform="matrix(5.9778735,0,0,-5.977575,188.97655,190.80426)"/>
<use data-text="&#x266d;" xlink:href="#font_2_1" transform="matrix(5.9778735,0,0,-5.977575,193.29901,190.80426)"/>
<path transform="matrix(1.00005,0,0,-1,33.102998,188.563)" d="M205.5379 0C205.5379 7.84084 199.18181 14.19695 191.34096 14.19695 183.5001 14.19695 177.14402 7.84084 177.14402 0 177.14402-7.84084 183.5001-14.19695 191.34096-14.19695 199.18181-14.19695 205.5379-7.84084 205.5379 0ZM191.34096 0" fill="#bfbfbf"/>
<path transform="matrix(1.00005,0,0,-1,33.102998,188.563)" stroke-width=".3985" stroke-linecap="butt" stroke-miterlimit="10" stroke-linejoin="miter" fill="none" stroke="#7f807f" d="M205.5379 0C205.5379 7.84084 199.18181 14.19695 191.34096 14.19695 183.5001 14.19695 177.14402 7.84084 177.14402 0 177.14402-7.84084 183.5001-14.19695 191.34096-14.19695 199.18181-14.19695 205.5379-7.84084 205.5379 0ZM191.34096 0"/>
<use data-text="F" xlink:href="#font_1_54" transform="matrix(5.9778735,0,0,-5.977575,220.95813,190.05725)"/>
<use data-text="&#x266f;" xlink:href="#font_2_2" transform="matrix(5.9778735,0,0,-5.977575,225.10134,190.05725)"/>
<path transform="matrix(1.00005,0,0,-1,33.102998,188.563)" d="M237.42806 0C237.42806 7.84084 231.07195 14.19695 223.23111 14.19695 215.39026 14.19695 209.03417 7.84084 209.03417 0 209.03417-7.84084 215.39026-14.19695 223.23111-14.19695 231.07195-14.19695 237.42806-7.84084 237.42806 0ZM223.23111 0" fill="#f2f2f2"/>
<path transform="matrix(1.00005,0,0,-1,33.102998,188.563)" stroke-width=".3985" stroke-linecap="butt" stroke-miterlimit="10" stroke-linejoin="miter" fill="none" stroke="#7f807f" d="M237.42806 0C237.42806 7.84084 231.07195 14.19695 223.23111 14.19695 215.39026 14.19695 209.03417 7.84084 209.03417 0 209.03417-7.84084 215.39026-14.19695 223.23111-14.19695 231.07195-14.19695 237.42806-7.84084 237.42806 0ZM223.23111 0"/>
<use data-text="A" xlink:href="#font_1_27" transform="matrix(5.9778735,0,0,-5.977575,253.96578,190.69727)"/>
<path transform="matrix(1.00005,0,0,-1,33.102998,188.563)" d="M269.3182 0C269.3182 7.84084 262.96214 14.19695 255.12128 14.19695 247.28044 14.19695 240.92433 7.84084 240.92433 0 240.92433-7.84084 247.28044-14.19695 255.12128-14.19695 262.96214-14.19695 269.3182-7.84084 269.3182 0ZM255.12128 0" fill="#bfbfbf"/>
<path transform="matrix(1.00005,0,0,-1,33.102998,188.563)" stroke-width=".3985" stroke-linecap="butt" stroke-miterlimit="10" stroke-linejoin="miter" fill="none" stroke="#7f807f" d="M269.3182 0C269.3182 7.84084 262.96214 14.19695 255.12128 14.19695 247.28044 14.19695 240.92433 7.84084 240.92433 0 240.92433-7.84084 247.28044-14.19695 255.12128-14.19695 262.96214-14.19695 269.3182-7.84084 269.3182 0ZM255.12128 0"/>
<use data-text="C" xlink:href="#font_1_42" transform="matrix(5.9778735,0,0,-5.977575,285.9444,190.60425)"/>
<path transform="matrix(1.00005,0,0,-1,33.102998,188.563)" d="M301.20838 0C301.20838 7.84084 294.8523 14.19695 287.01145 14.19695 279.1706 14.19695 272.81449 7.84084 272.81449 0 272.81449-7.84084 279.1706-14.19695 287.01145-14.19695 294.8523-14.19695 301.20838-7.84084 301.20838 0ZM287.01145 0" fill="#f2f2f2"/>
<path transform="matrix(1.00005,0,0,-1,33.102998,188.563)" stroke-width=".3985" stroke-linecap="butt" stroke-miterlimit="10" stroke-linejoin="miter" fill="none" stroke="#7f807f" d="M301.20838 0C301.20838 7.84084 294.8523 14.19695 287.01145 14.19695 279.1706 14.19695 272.81449 7.84084 272.81449 0 272.81449-7.84084 279.1706-14.19695 287.01145-14.19695 294.8523-14.19695 301.20838-7.84084 301.20838 0ZM287.01145 0"/>
<use data-text="E" xlink:href="#font_1_49" transform="matrix(5.9778735,0,0,-5.977575,316.54389,190.80426)"/>
<use data-text="&#x266d;" xlink:href="#font_2_1" transform="matrix(5.9778735,0,0,-5.977575,320.86637,190.80426)"/>
<path transform="matrix(1.00005,0,0,-1,33.102998,188.563)" d="M30.142 27.621C30.142 35.46184 23.7859 41.81795 15.94505 41.81795 8.10422 41.81795 1.74811 35.46184 1.74811 27.621 1.74811 19.78015 8.10422 13.42406 15.94505 13.42406 23.7859 13.42406 30.142 19.78015 30.142 27.621ZM15.94505 27.621" fill="#f2f2f2"/>
<path transform="matrix(1.00005,0,0,-1,33.102998,188.563)" stroke-width=".3985" stroke-linecap="butt" stroke-miterlimit="10" stroke-linejoin="miter" fill="none" stroke="#7f807f" d="M30.142 27.621C30.142 35.46184 23.7859 41.81795 15.94505 41.81795 8.10422 41.81795 1.74811 35.46184 1.74811 27.621 1.74811 19.78015 8.10422 13.42406 15.94505 13.42406 23.7859 13.42406 30.142 19.78015 30.142 27.621ZM15.94505 27.621"/>
<use data-text="C" xlink:href="#font_1_42" transform="matrix(5.9778735,0,0,-5.977575,45.33236,162.46526)"/>
<use data-text="&#x266f;" xlink:href="#font_2_2" transform="matrix(5.9778735,0,0,-5.977575,49.917337,162.46526)"/>
<path transform="matrix(1.00005,0,0,-1,33.102998,188.563)" d="M62.03217 27.621C62.03217 35.46184 55.67607 41.81795 47.83522 41.81795 39.99437 41.81795 33.63828 35.46184 33.63828 27.621 33.63828 19.78015 39.99437 13.42406 47.83522 13.42406 55.67607 13.42406 62.03217 19.78015 62.03217 27.621ZM47.83522 27.621" fill="#bfbfbf"/>
<path transform="matrix(1.00005,0,0,-1,33.102998,188.563)" stroke-width=".3985" stroke-linecap="butt" stroke-miterlimit="10" stroke-linejoin="miter" fill="none" stroke="#7f807f" d="M62.03217 27.621C62.03217 35.46184 55.67607 41.81795 47.83522 41.81795 39.99437 41.81795 33.63828 35.46184 33.63828 27.621 33.63828 19.78015 39.99437 13.42406 47.83522 13.42406 55.67607 13.42406 62.03217 19.78015 62.03217 27.621ZM47.83522 27.621"/>
<use data-text="E" xlink:href="#font_1_49" transform="matrix(5.9778735,0,0,-5.977575,78.78003,162.97426)"/>
<path transform="matrix(1.00005,0,0,-1,33.102998,188.563)" d="M93.92233 27.621C93.92233 35.46184 87.56622 41.81795 79.72539 41.81795 71.88454 41.81795 65.52844 35.46184 65.52844 27.621 65.52844 19.78015 71.88454 13.42406 79.72539 13.42406 87.56622 13.42406 93.92233 19.78015 93.92233 27.621ZM79.72539 27.621" fill="#f2f2f2"/>
<path transform="matrix(1.00005,0,0,-1,33.102998,188.563)" stroke-width=".3985" stroke-linecap="butt" stroke-miterlimit="10" stroke-linejoin="miter" fill="none" stroke="#7f807f" d="M93.92233 27.621C93.92233 35.46184 87.56622 41.81795 79.72539 41.81795 71.88454 41.81795 65.52844 35.46184 65.52844 27.621 65.52844 19.78015 71.88454 13.42406 79.72539 13.42406 87.56622 13.42406 93.92233 19.78015 93.92233 27.621ZM79.72539 27.621"/>
<use data-text="G" xlink:href="#font_1_58" transform="matrix(5.9778735,0,0,-5.977575,110.33961,162.98326)"/>
<path transform="matrix(1.00005,0,0,-1,33.102998,188.563)" d="M125.8125 27.621C125.8125 35.46184 119.45639 41.81795 111.61555 41.81795 103.7747 41.81795 97.41861 35.46184 97.41861 27.621 97.41861 19.78015 103.7747 13.42406 111.61555 13.42406 119.45639 13.42406 125.8125 19.78015 125.8125 27.621ZM111.61555 27.621" fill="#f2f2f2"/>
<path transform="matrix(1.00005,0,0,-1,33.102998,188.563)" stroke-width=".3985" stroke-linecap="butt" stroke-miterlimit="10" stroke-linejoin="miter" fill="none" stroke="#7f807f" d="M125.8125 27.621C125.8125 35.46184 119.45639 41.81795 111.61555 41.81795 103.7747 41.81795 97.41861 35.46184 97.41861 27.621 97.41861 19.78015 103.7747 13.42406 111.61555 13.42406 119.45639 13.42406 125.8125 19.78015 125.8125 27.621ZM111.61555 27.621"/>
<use data-text="B" xlink:href="#font_1_34" transform="matrix(5.9778735,0,0,-5.977575,141.05214,163.18326)"/>
<use data-text="&#x266d;" xlink:href="#font_2_1" transform="matrix(5.9778735,0,0,-5.977575,145.54787,163.18326)"/>
<path transform="matrix(1.00005,0,0,-1,33.102998,188.563)" d="M157.70265 27.621C157.70265 35.46184 151.34656 41.81795 143.5057 41.81795 135.66487 41.81795 129.30876 35.46184 129.30876 27.621 129.30876 19.78015 135.66487 13.42406 143.5057 13.42406 151.34656 13.42406 157.70265 19.78015 157.70265 27.621ZM143.5057 27.621" fill="#f2f2f2"/>
<path transform="matrix(1.00005,0,0,-1,33.102998,188.563)" stroke-width=".3985" stroke-linecap="butt" stroke-miterlimit="10" stroke-linejoin="miter" fill="none" stroke="#7f807f" d="M157.70265 27.621C157.70265 35.46184 151.34656 41.81795 143.5057 41.81795 135.66487 41.81795 129.30876 35.46184 129.30876 27.621 129.30876 19.78015 135.66487 13.42406 143.5057 13.42406 151.34656 13.42406 157.70265 19.78015 157.70265 27.621ZM143.5057 27.621"/>
<use data-text="C" xlink:href="#font_1_42" transform="matrix(5.9778735,0,0,-5.977575,172.89974,162.46526)"/>
<use data-text="&#x266f;" xlink:href="#font_2_2" transform="matrix(5.9778735,0,0,-5.977575,177.48471,162.46526)"/>
<path transform="matrix(1.00005,0,0,-1,33.102998,188.563)" d="M189.5928 27.621C189.5928 35.46184 183.23671 41.81795 175.39586 41.81795 167.55501 41.81795 161.19892 35.46184 161.19892 27.621 161.19892 19.78015 167.55501 13.42406 175.39586 13.42406 183.23671 13.42406 189.5928 19.78015 189.5928 27.621ZM175.39586 27.621" fill="#f2f2f2"/>
<path transform="matrix(1.00005,0,0,-1,33.102998,188.563)" stroke-width=".3985" stroke-linecap="butt" stroke-miterlimit="10" stroke-linejoin="miter" fill="none" stroke="#7f807f" d="M189.5928 27.621C189.5928 35.46184 183.23671 41.81795 175.39586 41.81795 167.55501 41.81795 161.19892 35.46184 161.19892 27.621 161.19892 19.78015 167.55501 13.42406 175.39586 13.42406 183.23671 13.42406 189.5928 19.78015 189.5928 27.621ZM175.39586 27.621"/>
<use data-text="E" xlink:href="#font_1_49" transform="matrix(5.9778735,0,0,-5.977575,206.34639,162.97426)"/>
<path transform="matrix(1.00005,0,0,-1,33.102998,188.563)" d="M221.48299 27.621C221.48299 35.46184 215.12688 41.81795 207.28604 41.81795 199.44519 41.81795 193.0891 35.46184 193.0891 27.621 193.0891 19.78015 199.44519 13.42406 207.28604 13.42406 215.12688 13.42406 221.48299 19.78015 221.48299 27.621ZM207.28604 27.621" fill="#bfbfbf"/>
<path transform="matrix(1.00005,0,0,-1,33.102998,188.563)" stroke-width=".3985" stroke-linecap="butt" stroke-miterlimit="10" stroke-linejoin="miter" fill="none" stroke="#7f807f" d="M221.48299 27.621C221.48299 35.46184 215.12688 41.81795 207.28604 41.81795 199.44519 41.81795 193.0891 35.46184 193.0891 27.621 193.0891 19.78015 199.44519 13.42406 207.28604 13.42406 215.12688 13.42406 221.48299 19.78015 221.48299 27.621ZM207.28604 27.621"/>
<use data-text="G" xlink:href="#font_1_58" transform="matrix(5.9778735,0,0,-5.977575,237.90699,162.98326)"/>
<path transform="matrix(1.00005,0,0,-1,33.102998,188.563)" d="M253.37313 27.621C253.37313 35.46184 247.01703 41.81795 239.17618 41.81795 231.33535 41.81795 224.97924 35.46184 224.97924 27.621 224.97924 19.78015 231.33535 13.42406 239.17618 13.42406 247.01703 13.42406 253.37313 19.78015 253.37313 27.621ZM239.17618 27.621" fill="#f2f2f2"/>
<path transform="matrix(1.00005,0,0,-1,33.102998,188.563)" stroke-width=".3985" stroke-linecap="butt" stroke-miterlimit="10" stroke-linejoin="miter" fill="none" stroke="#7f807f" d="M253.37313 27.621C253.37313 35.46184 247.01703 41.81795 239.17618 41.81795 231.33535 41.81795 224.97924 35.46184 224.97924 27.621 224.97924 19.78015 231.33535 13.42406 239.17618 13.42406 247.01703 13.42406 253.37313 19.78015 253.37313 27.621ZM239.17618 27.621"/>
<use data-text="B" xlink:href="#font_1_34" transform="matrix(5.9778735,0,0,-5.977575,268.6195,163.18326)"/>
<use data-text="&#x266d;" xlink:href="#font_2_1" transform="matrix(5.9778735,0,0,-5.977575,273.11524,163.18326)"/>
<path transform="matrix(1.00005,0,0,-1,33.102998,188.563)" d="M285.26329 27.621C285.26329 35.46184 278.9072 41.81795 271.06636 41.81795 263.2255 41.81795 256.8694 35.46184 256.8694 27.621 256.8694 19.78015 263.2255 13.42406 271.06636 13.42406 278.9072 13.42406 285.26329 19.78015 285.26329 27.621ZM271.06636 27.621" fill="#f2f2f2"/>
<path transform="matrix(1.00005,0,0,-1,33.102998,188.563)" stroke-width=".3985" stroke-linecap="butt" stroke-miterlimit="10" stroke-linejoin="miter" fill="none" stroke="#7f807f" d="M285.26329 27.621C285.26329 35.46184 278.9072 41.81795 271.06636 41.81795 263.2255 41.81795 256.8694 35.46184 256.8694 27.621 256.8694 19.78015 263.2255 13.42406 271.06636 13.42406 278.9072 13.42406 285.26329 19.78015 285.26329 27.621ZM271.06636 27.621"/>
<use data-text="C" xlink:href="#font_1_42" transform="matrix(5.9778735,0,0,-5.977575,300.46614,162.46526)"/>
<use data-text="&#x266f;" xlink:href="#font_2_2" transform="matrix(5.9778735,0,0,-5.977575,305.0511,162.46526)"/>
<path transform="matrix(1.00005,0,0,-1,33.102998,188.563)" d="M46.08708 55.242C46.08708 63.08286 39.73099 69.43895 31.89014 69.43895 24.0493 69.43895 17.69319 63.08286 17.69319 55.242 17.69319 47.40115 24.0493 41.04506 31.89014 41.04506 39.73099 41.04506 46.08708 47.40115 46.08708 55.242ZM31.89014 55.242" fill="#f2f2f2"/>
<path transform="matrix(1.00005,0,0,-1,33.102998,188.563)" stroke-width=".3985" stroke-linecap="butt" stroke-miterlimit="10" stroke-linejoin="miter" fill="none" stroke="#7f807f" d="M46.08708 55.242C46.08708 63.08286 39.73099 69.43895 31.89014 69.43895 24.0493 69.43895 17.69319 63.08286 17.69319 55.242 17.69319 47.40115 24.0493 41.04506 31.89014 41.04506 39.73099 41.04506 46.08708 47.40115 46.08708 55.242ZM31.89014 55.242"/>
<use data-text="D" xlink:href="#font_1_46" transform="matrix(5.9778735,0,0,-5.977575,62.57122,135.36226)"/>
<path transform="matrix(1.00005,0,0,-1,33.102998,188.563)" d="M77.97725 55.242C77.97725 63.08286 71.62115 69.43895 63.7803 69.43895 55.93945 69.43895 49.58336 63.08286 49.58336 55.242 49.58336 47.40115 55.93945 41.04506 63.7803 41.04506 71.62115 41.04506 77.97725 47.40115 77.97725 55.242ZM63.7803 55.242" fill="#f2f2f2"/>
<path transform="matrix(1.00005,0,0,-1,33.102998,188.563)" stroke-width=".3985" stroke-linecap="butt" stroke-miterlimit="10" stroke-linejoin="miter" fill="none" stroke="#7f807f" d="M77.97725 55.242C77.97725 63.08286 71.62115 69.43895 63.7803 69.43895 55.93945 69.43895 49.58336 63.08286 49.58336 55.242 49.58336 47.40115 55.93945 41.04506 63.7803 41.04506 71.62115 41.04506 77.97725 47.40115 77.97725 55.242ZM63.7803 55.242"/>
<use data-text="F" xlink:href="#font_1_54" transform="matrix(5.9778735,0,0,-5.977575,94.814838,135.35326)"/>
<path transform="matrix(1.00005,0,0,-1,33.102998,188.563)" d="M109.86742 55.242C109.86742 63.08286 103.5113 69.43895 95.67047 69.43895 87.82962 69.43895 81.47353 63.08286 81.47353 55.242 81.47353 47.40115 87.82962 41.04506 95.67047 41.04506 103.5113 41.04506 109.86742 47.40115 109.86742 55.242ZM95.67047 55.242" fill="#bfbfbf"/>
<path transform="matrix(1.00005,0,0,-1,33.102998,188.563)" stroke-width=".3985" stroke-linecap="butt" stroke-miterlimit="10" stroke-linejoin="miter" fill="none" stroke="#7f807f" d="M109.86742 55.242C109.86742 63.08286 103.5113 69.43895 95.67047 69.43895 87.82962 69.43895 81.47353 63.08286 81.47353 55.242 81.47353 47.40115 87.82962 41.04506 95.67047 41.04506 103.5113 41.04506 109.86742 47.40115 109.86742 55.242ZM95.67047 55.242"/>
<use data-text="A" xlink:href="#font_1_27" transform="matrix(5.9778735,0,0,-5.977575,124.975337,135.56226)"/>
<use data-text="&#x266d;" xlink:href="#font_2_1" transform="matrix(5.9778735,0,0,-5.977575,129.73432,135.56226)"/>
<path transform="matrix(1.00005,0,0,-1,33.102998,188.563)" d="M141.75757 55.242C141.75757 63.08286 135.40148 69.43895 127.56062 69.43895 119.71979 69.43895 113.36368 63.08286 113.36368 55.242 113.36368 47.40115 119.71979 41.04506 127.56062 41.04506 135.40148 41.04506 141.75757 47.40115 141.75757 55.242ZM127.56062 55.242" fill="#f2f2f2"/>
<path transform="matrix(1.00005,0,0,-1,33.102998,188.563)" stroke-width=".3985" stroke-linecap="butt" stroke-miterlimit="10" stroke-linejoin="miter" fill="none" stroke="#7f807f" d="M141.75757 55.242C141.75757 63.08286 135.40148 69.43895 127.56062 69.43895 119.71979 69.43895 113.36368 63.08286 113.36368 55.242 113.36368 47.40115 119.71979 41.04506 127.56062 41.04506 135.40148 41.04506 141.75757 47.40115 141.75757 55.242ZM127.56062 55.242"/>
<use data-text="B" xlink:href="#font_1_34" transform="matrix(5.9778735,0,0,-5.977575,158.422,135.36226)"/>
<path transform="matrix(1.00005,0,0,-1,33.102998,188.563)" d="M173.64774 55.242C173.64774 63.08286 167.29164 69.43895 159.45079 69.43895 151.60994 69.43895 145.25385 63.08286 145.25385 55.242 145.25385 47.40115 151.60994 41.04506 159.45079 41.04506 167.29164 41.04506 173.64774 47.40115 173.64774 55.242ZM159.45079 55.242" fill="#bfbfbf"/>
<path transform="matrix(1.00005,0,0,-1,33.102998,188.563)" stroke-width=".3985" stroke-linecap="butt" stroke-miterlimit="10" stroke-linejoin="miter" fill="none" stroke="#7f807f" d="M173.64774 55.242C173.64774 63.08286 167.29164 69.43895 159.45079 69.43895 151.60994 69.43895 145.25385 63.08286 145.25385 55.242 145.25385 47.40115 151.60994 41.04506 159.45079 41.04506 167.29164 41.04506 173.64774 47.40115 173.64774 55.242ZM159.45079 55.242"/>
<use data-text="D" xlink:href="#font_1_46" transform="matrix(5.9778735,0,0,-5.977575,190.13759,135.36226)"/>
<path transform="matrix(1.00005,0,0,-1,33.102998,188.563)" d="M205.5379 55.242C205.5379 63.08286 199.18181 69.43895 191.34096 69.43895 183.5001 69.43895 177.14402 63.08286 177.14402 55.242 177.14402 47.40115 183.5001 41.04506 191.34096 41.04506 199.18181 41.04506 205.5379 47.40115 205.5379 55.242ZM191.34096 55.242" fill="#f2f2f2"/>
<path transform="matrix(1.00005,0,0,-1,33.102998,188.563)" stroke-width=".3985" stroke-linecap="butt" stroke-miterlimit="10" stroke-linejoin="miter" fill="none" stroke="#7f807f" d="M205.5379 55.242C205.5379 63.08286 199.18181 69.43895 191.34096 69.43895 183.5001 69.43895 177.14402 63.08286 177.14402 55.242 177.14402 47.40115 183.5001 41.04506 191.34096 41.04506 199.18181 41.04506 205.5379 47.40115 205.5379 55.242ZM191.34096 55.242"/>
<use data-text="F" xlink:href="#font_1_54" transform="matrix(5.9778735,0,0,-5.977575,222.3822,135.35326)"/>
<path transform="matrix(1.00005,0,0,-1,33.102998,188.563)" d="M237.42806 55.242C237.42806 63.08286 231.07195 69.43895 223.23111 69.43895 215.39026 69.43895 209.03417 63.08286 209.03417 55.242 209.03417 47.40115 215.39026 41.04506 223.23111 41.04506 231.07195 41.04506 237.42806 47.40115 237.42806 55.242ZM223.23111 55.242" fill="#f2f2f2"/>
<path transform="matrix(1.00005,0,0,-1,33.102998,188.563)" stroke-width=".3985" stroke-linecap="butt" stroke-miterlimit="10" stroke-linejoin="miter" fill="none" stroke="#7f807f" d="M237.42806 55.242C237.42806 63.08286 231.07195 69.43895 223.23111 69.43895 215.39026 69.43895 209.03417 63.08286 209.03417 55.242 209.03417 47.40115 215.39026 41.04506 223.23111 41.04506 231.07195 41.04506 237.42806 47.40115 237.42806 55.242ZM223.23111 55.242"/>
<use data-text="A" xlink:href="#font_1_27" transform="matrix(5.9778735,0,0,-5.977575,252.54172,135.56226)"/>
<use data-text="&#x266d;" xlink:href="#font_2_1" transform="matrix(5.9778735,0,0,-5.977575,257.30073,135.56226)"/>
<path transform="matrix(1.00005,0,0,-1,33.102998,188.563)" d="M269.3182 55.242C269.3182 63.08286 262.96214 69.43895 255.12128 69.43895 247.28044 69.43895 240.92433 63.08286 240.92433 55.242 240.92433 47.40115 247.28044 41.04506 255.12128 41.04506 262.96214 41.04506 269.3182 47.40115 269.3182 55.242ZM255.12128 55.242" fill="#bfbfbf"/>
<path transform="matrix(1.00005,0,0,-1,33.102998,188.563)" stroke-width=".3985" stroke-linecap="butt" stroke-miterlimit="10" stroke-linejoin="miter" fill="none" stroke="#7f807f" d="M269.3182 55.242C269.3182 63.08286 262.96214 69.43895 255.12128 69.43895 247.28044 69.43895 240.92433 63.08286 240.92433 55.242 240.92433 47.40115 247.28044 41.04506 255.12128 41.04506 262.96214 41.04506 269.3182 47.40115 269.3182 55.242ZM255.12128 55.242"/>
<use data-text="B" xlink:href="#font_1_34" transform="matrix(5.9778735,0,0,-5.977575,285.98939,135.36226)"/>
<path transform="matrix(1.00005,0,0,-1,33.102998,188.563)" d="M301.20838 55.242C301.20838 63.08286 294.8523 69.43895 287.01145 69.43895 279.1706 69.43895 272.81449 63.08286 272.81449 55.242 272.81449 47.40115 279.1706 41.04506 287.01145 41.04506 294.8523 41.04506 301.20838 47.40115 301.20838 55.242ZM287.01145 55.242" fill="#f2f2f2"/>
<path transform="matrix(1.00005,0,0,-1,33.102998,188.563)" stroke-width=".3985" stroke-linecap="butt" stroke-miterlimit="10" stroke-linejoin="miter" fill="none" stroke="#7f807f" d="M301.20838 55.242C301.20838 63.08286 294.8523 69.43895 287.01145 69.43895 279.1706 69.43895 272.81449 63.08286 272.81449 55.242 272.81449 47.40115 279.1706 41.04506 287.01145 41.04506 294.8523 41.04506 301.20838 47.40115 301.20838 55.242ZM287.01145 55.242"/>
<use data-text="D" xlink:href="#font_1_46" transform="matrix(5.9778735,0,0,-5.977575,317.70497,135.36226)"/>
<path transform="matrix(1.00005,0,0,-1,33.102998,188.563)" d="M62.03217 82.863C62.03217 90.70386 55.67607 97.05995 47.83522 97.05995 39.99437 97.05995 33.63828 90.70386 33.63828 82.863 33.63828 75.02217 39.99437 68.66606 47.83522 68.66606 55.67607 68.66606 62.03217 75.02217 62.03217 82.863ZM47.83522 82.863" fill="#bfbfbf"/>
<path transform="matrix(1.00005,0,0,-1,33.102998,188.563)" stroke-width=".3985" stroke-linecap="butt" stroke-miterlimit="10" stroke-linejoin="miter" fill="none" stroke="#7f807f" d="M62.03217 82.863C62.03217 90.70386 55.67607 97.05995 47.83522 97.05995 39.99437 97.05995 33.63828 90.70386 33.63828 82.863 33.63828 75.02217 39.99437 68.66606 47.83522 68.66606 55.67607 68.66606 62.03217 75.02217 62.03217 82.863ZM47.83522 82.863"/>
<use data-text="E" xlink:href="#font_1_49" transform="matrix(5.9778735,0,0,-5.977575,77.35596,107.94125)"/>
<use data-text="&#x266d;" xlink:href="#font_2_1" transform="matrix(5.9778735,0,0,-5.977575,81.67842,107.94125)"/>
<path transform="matrix(1.00005,0,0,-1,33.102998,188.563)" d="M93.92233 82.863C93.92233 90.70386 87.56622 97.05995 79.72539 97.05995 71.88454 97.05995 65.52844 90.70386 65.52844 82.863 65.52844 75.02217 71.88454 68.66606 79.72539 68.66606 87.56622 68.66606 93.92233 75.02217 93.92233 82.863ZM79.72539 82.863" fill="#f2f2f2"/>
<path transform="matrix(1.00005,0,0,-1,33.102998,188.563)" stroke-width=".3985" stroke-linecap="butt" stroke-miterlimit="10" stroke-linejoin="miter" fill="none" stroke="#7f807f" d="M93.92233 82.863C93.92233 90.70386 87.56622 97.05995 79.72539 97.05995 71.88454 97.05995 65.52844 90.70386 65.52844 82.863 65.52844 75.02217 71.88454 68.66606 79.72539 68.66606 87.56622 68.66606 93.92233 75.02217 93.92233 82.863ZM79.72539 82.863"/>
<use data-text="F" xlink:href="#font_1_54" transform="matrix(5.9778735,0,0,-5.977575,109.337558,107.19426)"/>
<use data-text="&#x266f;" xlink:href="#font_2_2" transform="matrix(5.9778735,0,0,-5.977575,113.48076,107.19426)"/>
<path transform="matrix(1.00005,0,0,-1,33.102998,188.563)" d="M125.8125 82.863C125.8125 90.70386 119.45639 97.05995 111.61555 97.05995 103.7747 97.05995 97.41861 90.70386 97.41861 82.863 97.41861 75.02217 103.7747 68.66606 111.61555 68.66606 119.45639 68.66606 125.8125 75.02217 125.8125 82.863ZM111.61555 82.863" fill="#bfbfbf"/>
<path transform="matrix(1.00005,0,0,-1,33.102998,188.563)" stroke-width=".3985" stroke-linecap="butt" stroke-miterlimit="10" stroke-linejoin="miter" fill="none" stroke="#7f807f" d="M125.8125 82.863C125.8125 90.70386 119.45639 97.05995 111.61555 97.05995 103.7747 97.05995 97.41861 90.70386 97.41861 82.863 97.41861 75.02217 103.7747 68.66606 111.61555 68.66606 119.45639 68.66606 125.8125 75.02217 125.8125 82.863ZM111.61555 82.863"/>
<use data-text="A" xlink:href="#font_1_27" transform="matrix(5.9778735,0,0,-5.977575,142.3452,107.83426)"/>
<path transform="matrix(1.00005,0,0,-1,33.102998,188.563)" d="M157.70265 82.863C157.70265 90.70386 151.34656 97.05995 143.5057 97.05995 135.66487 97.05995 129.30876 90.70386 129.30876 82.863 129.30876 75.02217 135.66487 68.66606 143.5057 68.66606 151.34656 68.66606 157.70265 75.02217 157.70265 82.863ZM143.5057 82.863" fill="#f2f2f2"/>
<path transform="matrix(1.00005,0,0,-1,33.102998,188.563)" stroke-width=".3985" stroke-linecap="butt" stroke-miterlimit="10" stroke-linejoin="miter" fill="none" stroke="#7f807f" d="M157.70265 82.863C157.70265 90.70386 151.34656 97.05995 143.5057 97.05995 135.66487 97.05995 129.30876 90.70386 129.30876 82.863 129.30876 75.02217 135.66487 68.66606 143.5057 68.66606 151.34656 68.66606 157.70265 75.02217 157.70265 82.863ZM143.5057 82.863"/>
<use data-text="C" xlink:href="#font_1_42" transform="matrix(5.9778735,0,0,-5.977575,174.3238,107.74126)"/>
<path transform="matrix(1.00005,0,0,-1,33.102998,188.563)" d="M189.5928 82.863C189.5928 90.70386 183.23671 97.05995 175.39586 97.05995 167.55501 97.05995 161.19892 90.70386 161.19892 82.863 161.19892 75.02217 167.55501 68.66606 175.39586 68.66606 183.23671 68.66606 189.5928 75.02217 189.5928 82.863ZM175.39586 82.863" fill="#f2f2f2"/>
<path transform="matrix(1.00005,0,0,-1,33.102998,188.563)" stroke-width=".3985" stroke-linecap="butt" stroke-miterlimit="10" stroke-linejoin="miter" fill="none" stroke="#7f807f" d="M189.5928 82.863C189.5928 90.70386 183.23671 97.05995 175.39586 97.05995 167.55501 97.05995 161.19892 90.70386 161.19892 82.863 161.19892 75.02217 167.55501 68.66606 175.39586 68.66606 183.23671 68.66606 189.5928 75.02217 189.5928 82.863ZM175.39586 82.863"/>
<use data-text="E" xlink:href="#font_1_49" transform="matrix(5.9778735,0,0,-5.977575,204.92234,107.94125)"/>
<use data-text="&#x266d;" xlink:href="#font_2_1" transform="matrix(5.9778735,0,0,-5.977575,209.2448,107.94125)"/>
<path transform="matrix(1.00005,0,0,-1,33.102998,188.563)" d="M221.48299 82.863C221.48299 90.70386 215.12688 97.05995 207.28604 97.05995 199.44519 97.05995 193.0891 90.70386 193.0891 82.863 193.0891 75.02217 199.44519 68.66606 207.28604 68.66606 215.12688 68.66606 221.48299 75.02217 221.48299 82.863ZM207.28604 82.863" fill="#f2f2f2"/>
<path transform="matrix(1.00005,0,0,-1,33.102998,188.563)" stroke-width=".3985" stroke-linecap="butt" stroke-miterlimit="10" stroke-linejoin="miter" fill="none" stroke="#7f807f" d="M221.48299 82.863C221.48299 90.70386 215.12688 97.05995 207.28604 97.05995 199.44519 97.05995 193.0891 90.70386 193.0891 82.863 193.0891 75.02217 199.44519 68.66606 207.28604 68.66606 215.12688 68.66606 221.48299 75.02217 221.48299 82.863ZM207.28604 82.863"/>
<use data-text="F" xlink:href="#font_1_54" transform="matrix(5.9778735,0,0,-5.977575,236.90392,107.19426)"/>
<use data-text="&#x266f;" xlink:href="#font_2_2" transform="matrix(5.9778735,0,0,-5.977575,241.04712,107.19426)"/>
<path transform="matrix(1.00005,0,0,-1,33.102998,188.563)" d="M253.37313 82.863C253.37313 90.70386 247.01703 97.05995 239.17618 97.05995 231.33535 97.05995 224.97924 90.70386 224.97924 82.863 224.97924 75.02217 231.33535 68.66606 239.17618 68.66606 247.01703 68.66606 253.37313 75.02217 253.37313 82.863ZM239.17618 82.863" fill="#f2f2f2"/>
<path transform="matrix(1.00005,0,0,-1,33.102998,188.563)" stroke-width=".3985" stroke-linecap="butt" stroke-miterlimit="10" stroke-linejoin="miter" fill="none" stroke="#7f807f" d="M253.37313 82.863C253.37313 90.70386 247.01703 97.05995 239.17618 97.05995 231.33535 97.05995 224.97924 90.70386 224.97924 82.863 224.97924 75.02217 231.33535 68.66606 239.17618 68.66606 247.01703 68.66606 253.37313 75.02217 253.37313 82.863ZM239.17618 82.863"/>
<use data-text="A" xlink:href="#font_1_27" transform="matrix(5.9778735,0,0,-5.977575,269.91157,107.83426)"/>
<path transform="matrix(1.00005,0,0,-1,33.102998,188.563)" d="M285.26329 82.863C285.26329 90.70386 278.9072 97.05995 271.06636 97.05995 263.2255 97.05995 256.8694 90.70386 256.8694 82.863 256.8694 75.02217 263.2255 68.66606 271.06636 68.66606 278.9072 68.66606 285.26329 75.02217 285.26329 82.863ZM271.06636 82.863" fill="#f2f2f2"/>
<path transform="matrix(1.00005,0,0,-1,33.102998,188.563)" stroke-width=".3985" stroke-linecap="butt" stroke-miterlimit="10" stroke-linejoin="miter" fill="none" stroke="#7f807f" d="M285.26329 82.863C285.26329 90.70386 278.9072 97.05995 271.06636 97.05995 263.2255 97.05995 256.8694 90.70386 256.8694 82.863 256.8694 75.02217 263.2255 68.66606 271.06636 68.66606 278.9072 68.66606 285.26329 75.02217 285.26329 82.863ZM271.06636 82.863"/>
<use data-text="C" xlink:href="#font_1_42" transform="matrix(5.9778735,0,0,-5.977575,301.8902,107.74126)"/>
<path transform="matrix(1.00005,0,0,-1,33.102998,188.563)" d="M77.97725 110.48402C77.97725 118.32486 71.62115 124.68097 63.7803 124.68097 55.93945 124.68097 49.58336 118.32486 49.58336 110.48402 49.58336 102.64317 55.93945 96.28708 63.7803 96.28708 71.62115 96.28708 77.97725 102.64317 77.97725 110.48402ZM63.7803 110.48402" fill="#f2f2f2"/>
<path transform="matrix(1.00005,0,0,-1,33.102998,188.563)" stroke-width=".3985" stroke-linecap="butt" stroke-miterlimit="10" stroke-linejoin="miter" fill="none" stroke="#7f807f" d="M77.97725 110.48402C77.97725 118.32486 71.62115 124.68097 63.7803 124.68097 55.93945 124.68097 49.58336 118.32486 49.58336 110.48402 49.58336 102.64317 55.93945 96.28708 63.7803 96.28708 71.62115 96.28708 77.97725 102.64317 77.97725 110.48402ZM63.7803 110.48402"/>
<use data-text="E" xlink:href="#font_1_49" transform="matrix(5.9778735,0,0,-5.977575,94.72582,80.11125)"/>
<path transform="matrix(1.00005,0,0,-1,33.102998,188.563)" d="M109.86742 110.48402C109.86742 118.32486 103.5113 124.68097 95.67047 124.68097 87.82962 124.68097 81.47353 118.32486 81.47353 110.48402 81.47353 102.64317 87.82962 96.28708 95.67047 96.28708 103.5113 96.28708 109.86742 102.64317 109.86742 110.48402ZM95.67047 110.48402" fill="#f2f2f2"/>
<path transform="matrix(1.00005,0,0,-1,33.102998,188.563)" stroke-width=".3985" stroke-linecap="butt" stroke-miterlimit="10" stroke-linejoin="miter" fill="none" stroke="#7f807f" d="M109.86742 110.48402C109.86742 118.32486 103.5113 124.68097 95.67047 124.68097 87.82962 124.68097 81.47353 118.32486 81.47353 110.48402 81.47353 102.64317 87.82962 96.28708 95.67047 96.28708 103.5113 96.28708 109.86742 102.64317 109.86742 110.48402ZM95.67047 110.48402"/>
<use data-text="G" xlink:href="#font_1_58" transform="matrix(5.9778735,0,0,-5.977575,126.28541,80.120258)"/>
<path transform="matrix(1.00005,0,0,-1,33.102998,188.563)" d="M141.75757 110.48402C141.75757 118.32486 135.40148 124.68097 127.56062 124.68097 119.71979 124.68097 113.36368 118.32486 113.36368 110.48402 113.36368 102.64317 119.71979 96.28708 127.56062 96.28708 135.40148 96.28708 141.75757 102.64317 141.75757 110.48402ZM127.56062 110.48402" fill="#f2f2f2"/>
<path transform="matrix(1.00005,0,0,-1,33.102998,188.563)" stroke-width=".3985" stroke-linecap="butt" stroke-miterlimit="10" stroke-linejoin="miter" fill="none" stroke="#7f807f" d="M141.75757 110.48402C141.75757 118.32486 135.40148 124.68097 127.56062 124.68097 119.71979 124.68097 113.36368 118.32486 113.36368 110.48402 113.36368 102.64317 119.71979 96.28708 127.56062 96.28708 135.40148 96.28708 141.75757 102.64317 141.75757 110.48402ZM127.56062 110.48402"/>
<use data-text="B" xlink:href="#font_1_34" transform="matrix(5.9778735,0,0,-5.977575,156.99893,80.32025)"/>
<use data-text="&#x266d;" xlink:href="#font_2_1" transform="matrix(5.9778735,0,0,-5.977575,161.49466,80.32025)"/>
<path transform="matrix(1.00005,0,0,-1,33.102998,188.563)" d="M173.64774 110.48402C173.64774 118.32486 167.29164 124.68097 159.45079 124.68097 151.60994 124.68097 145.25385 118.32486 145.25385 110.48402 145.25385 102.64317 151.60994 96.28708 159.45079 96.28708 167.29164 96.28708 173.64774 102.64317 173.64774 110.48402ZM159.45079 110.48402" fill="#bfbfbf"/>
<path transform="matrix(1.00005,0,0,-1,33.102998,188.563)" stroke-width=".3985" stroke-linecap="butt" stroke-miterlimit="10" stroke-linejoin="miter" fill="none" stroke="#7f807f" d="M173.64774 110.48402C173.64774 118.32486 167.29164 124.68097 159.45079 124.68097 151.60994 124.68097 145.25385 118.32486 145.25385 110.48402 145.25385 102.64317 151.60994 96.28708 159.45079 96.28708 167.29164 96.28708 173.64774 102.64317 173.64774 110.48402ZM159.45079 110.48402"/>
<use data-text="C" xlink:href="#font_1_42" transform="matrix(5.9778735,0,0,-5.977575,188.84552,79.60226)"/>
<use data-text="&#x266f;" xlink:href="#font_2_2" transform="matrix(5.9778735,0,0,-5.977575,193.4305,79.60226)"/>
<path transform="matrix(1.00005,0,0,-1,33.102998,188.563)" d="M205.5379 110.48402C205.5379 118.32486 199.18181 124.68097 191.34096 124.68097 183.5001 124.68097 177.14402 118.32486 177.14402 110.48402 177.14402 102.64317 183.5001 96.28708 191.34096 96.28708 199.18181 96.28708 205.5379 102.64317 205.5379 110.48402ZM191.34096 110.48402" fill="#f2f2f2"/>
<path transform="matrix(1.00005,0,0,-1,33.102998,188.563)" stroke-width=".3985" stroke-linecap="butt" stroke-miterlimit="10" stroke-linejoin="miter" fill="none" stroke="#7f807f" d="M205.5379 110.48402C205.5379 118.32486 199.18181 124.68097 191.34096 124.68097 183.5001 124.68097 177.14402 118.32486 177.14402 110.48402 177.14402 102.64317 183.5001 96.28708 191.34096 96.28708 199.18181 96.28708 205.5379 102.64317 205.5379 110.48402ZM191.34096 110.48402"/>
<use data-text="E" xlink:href="#font_1_49" transform="matrix(5.9778735,0,0,-5.977575,222.2922,80.11125)"/>
<path transform="matrix(1.00005,0,0,-1,33.102998,188.563)" d="M237.42806 110.48402C237.42806 118.32486 231.07195 124.68097 223.23111 124.68097 215.39026 124.68097 209.03417 118.32486 209.03417 110.48402 209.03417 102.64317 215.39026 96.28708 223.23111 96.28708 231.07195 96.28708 237.42806 102.64317 237.42806 110.48402ZM223.23111 110.48402" fill="#f2f2f2"/>
<path transform="matrix(1.00005,0,0,-1,33.102998,188.563)" stroke-width=".3985" stroke-linecap="butt" stroke-miterlimit="10" stroke-linejoin="miter" fill="none" stroke="#7f807f" d="M237.42806 110.48402C237.42806 118.32486 231.07195 124.68097 223.23111 124.68097 215.39026 124.68097 209.03417 118.32486 209.03417 110.48402 209.03417 102.64317 215.39026 96.28708 223.23111 96.28708 231.07195 96.28708 237.42806 102.64317 237.42806 110.48402ZM223.23111 110.48402"/>
<use data-text="G" xlink:href="#font_1_58" transform="matrix(5.9778735,0,0,-5.977575,253.85279,80.120258)"/>
<path transform="matrix(1.00005,0,0,-1,33.102998,188.563)" d="M269.3182 110.48402C269.3182 118.32486 262.96214 124.68097 255.12128 124.68097 247.28044 124.68097 240.92433 118.32486 240.92433 110.48402 240.92433 102.64317 247.28044 96.28708 255.12128 96.28708 262.96214 96.28708 269.3182 102.64317 269.3182 110.48402ZM255.12128 110.48402" fill="#f2f2f2"/>
<path transform="matrix(1.00005,0,0,-1,33.102998,188.563)" stroke-width=".3985" stroke-linecap="butt" stroke-miterlimit="10" stroke-linejoin="miter" fill="none" stroke="#7f807f" d="M269.3182 110.48402C269.3182 118.32486 262.96214 124.68097 255.12128 124.68097 247.28044 124.68097 240.92433 118.32486 240.92433 110.48402 240.92433 102.64317 247.28044 96.28708 255.12128 96.28708 262.96214 96.28708 269.3182 102.64317 269.3182 110.48402ZM255.12128 110.48402"/>
<use data-text="B" xlink:href="#font_1_34" transform="matrix(5.9778735,0,0,-5.977575,284.5653,80.32025)"/>
<use data-text="&#x266d;" xlink:href="#font_2_1" transform="matrix(5.9778735,0,0,-5.977575,289.06105,80.32025)"/>
<path transform="matrix(1.00005,0,0,-1,33.102998,188.563)" d="M301.20838 110.48402C301.20838 118.32486 294.8523 124.68097 287.01145 124.68097 279.1706 124.68097 272.81449 118.32486 272.81449 110.48402 272.81449 102.64317 279.1706 96.28708 287.01145 96.28708 294.8523 96.28708 301.20838 102.64317 301.20838 110.48402ZM287.01145 110.48402" fill="#f2f2f2"/>
<path transform="matrix(1.00005,0,0,-1,33.102998,188.563)" stroke-width=".3985" stroke-linecap="butt" stroke-miterlimit="10" stroke-linejoin="miter" fill="none" stroke="#7f807f" d="M301.20838 110.48402C301.20838 118.32486 294.8523 124.68097 287.01145 124.68097 279.1706 124.68097 272.81449 118.32486 272.81449 110.48402 272.81449 102.64317 279.1706 96.28708 287.01145 96.28708 294.8523 96.28708 301.20838 102.64317 301.20838 110.48402ZM287.01145 110.48402"/>
<use data-text="C" xlink:href="#font_1_42" transform="matrix(5.9778735,0,0,-5.977575,316.41194,79.60226)"/>
<use data-text="&#x266f;" xlink:href="#font_2_2" transform="matrix(5.9778735,0,0,-5.977575,320.9969,79.60226)"/>
<use data-text="T" xlink:href="#font_3_104" transform="matrix(0,-6.7248,-6.725136,-0,6.101898,163.38826)"/>
<use data-text="o" xlink:href="#font_3_81" transform="matrix(0,-6.7248,-6.725136,-0,6.101898,158.51277)"/>
<use data-text="p" xlink:href="#font_3_84" transform="matrix(0,-6.7248,-6.725136,-0,6.101898,154.5317)"/>
<use data-text="o" xlink:href="#font_3_81" transform="matrix(0,-6.7248,-6.725136,-0,6.101898,147.47066)"/>
<use data-text="f" xlink:href="#font_3_55" transform="matrix(0,-6.7248,-6.725136,-0,6.101898,143.48958)"/>
<use data-text="A" xlink:href="#font_3_27" transform="matrix(0,-6.7248,-6.725136,-0,6.101898,138.40564)"/>
<use data-text="c" xlink:href="#font_3_43" transform="matrix(0,-6.7248,-6.725136,-0,6.101898,132.61559)"/>
<use data-text="c" xlink:href="#font_3_43" transform="matrix(0,-6.7248,-6.725136,-0,6.101898,129.07834)"/>
<use data-text="o" xlink:href="#font_3_81" transform="matrix(0,-6.7248,-6.725136,-0,6.101898,125.5411)"/>
<use data-text="r" xlink:href="#font_3_96" transform="matrix(0,-6.7248,-6.725136,-0,6.101898,121.56001)"/>
<use data-text="d" xlink:href="#font_3_47" transform="matrix(0,-6.7248,-6.725136,-0,6.101898,118.278308)"/>
<use data-text="i" xlink:href="#font_3_66" transform="matrix(0,-6.7248,-6.725136,-0,6.101898,113.86012)"/>
<use data-text="o" xlink:href="#font_3_81" transform="matrix(0,-6.7248,-6.725136,-0,6.101898,111.64766)"/>
<use data-text="n" xlink:href="#font_3_77" transform="matrix(0,-6.7248,-6.725136,-0,6.101898,107.66658)"/>
<path transform="matrix(1.00005,0,0,-1,33.102998,188.563)" stroke-width=".3985" stroke-linecap="butt" stroke-miterlimit="10" stroke-linejoin="miter" fill="none" stroke="#000000" d="M-25.51204 153.00424H287.8617"/>
<path transform="matrix(1.00005,0,0,-1,33.102998,188.563)" stroke-width=".3985" stroke-linecap="butt" stroke-miterlimit="10" stroke-linejoin="miter" fill="none" stroke="#000000" d="M-25.51204 158.31926H287.8617"/>
<path transform="matrix(1.00005,0,0,-1,33.102998,188.563)" stroke-width=".3985" stroke-linecap="butt" stroke-miterlimit="10" stroke-linejoin="miter" fill="none" stroke="#000000" d="M-25.51204 163.63431H287.8617"/>
<path transform="matrix(1.00005,0,0,-1,33.102998,188.563)" stroke-width=".3985" stroke-linecap="butt" stroke-miterlimit="10" stroke-linejoin="miter" fill="none" stroke="#000000" d="M-25.51204 168.94933H287.8617"/>
<path transform="matrix(1.00005,0,0,-1,33.102998,188.563)" stroke-width=".3985" stroke-linecap="butt" stroke-miterlimit="10" stroke-linejoin="miter" fill="none" stroke="#000000" d="M-25.51204 174.26435H287.8617"/>
<use data-text="T" xlink:href="#font_4_104" transform="matrix(8.966847,0,0,-8.9664,8.589523,27.05526)"/>
<use data-text="r" xlink:href="#font_4_96" transform="matrix(8.966847,0,0,-8.9664,14.202766,27.05526)"/>
<use data-text="e" xlink:href="#font_4_50" transform="matrix(8.966847,0,0,-8.9664,17.457726,27.05526)"/>
<use data-text="b" xlink:href="#font_4_35" transform="matrix(8.966847,0,0,-8.9664,21.492806,27.05526)"/>
<use data-text="l" xlink:href="#font_4_72" transform="matrix(8.966847,0,0,-8.9664,25.527886,27.05526)"/>
<use data-text="e" xlink:href="#font_4_50" transform="matrix(8.966847,0,0,-8.9664,27.7696,27.05526)"/>
<path transform="matrix(1.00005,0,0,-1,33.102998,188.563)" d="M50.8116 153.00424C50.8116 154.06095 49.47903 154.91756 47.83522 154.91756 46.1914 154.91756 44.85884 154.06095 44.85884 153.00424 44.85884 151.94754 46.1914 151.09093 47.83522 151.09093 49.47903 151.09093 50.8116 151.94754 50.8116 153.00424ZM47.83522 153.00424"/>
<path transform="matrix(1.00005,0,0,-1,33.102998,188.563)" stroke-width=".3985" stroke-linecap="butt" stroke-miterlimit="10" stroke-linejoin="miter" fill="none" stroke="#000000" d="M50.8116 153.00424C50.8116 154.06095 49.47903 154.91756 47.83522 154.91756 46.1914 154.91756 44.85884 154.06095 44.85884 153.00424 44.85884 151.94754 46.1914 151.09093 47.83522 151.09093 49.47903 151.09093 50.8116 151.94754 50.8116 153.00424ZM47.83522 153.00424"/>
<path transform="matrix(1.00005,0,0,-1,33.102998,188.563)" stroke-width=".3985" stroke-linecap="butt" stroke-miterlimit="10" stroke-linejoin="miter" fill="none" stroke="#000000" d="M50.59912 153.00424V172.13822"/>
<path transform="matrix(1.00005,0,0,-1,33.102998,188.563)" d="M50.8116 153.00424C50.8116 154.06095 49.47903 154.91756 47.83522 154.91756 46.1914 154.91756 44.85884 154.06095 44.85884 153.00424 44.85884 151.94754 46.1914 151.09093 47.83522 151.09093 49.47903 151.09093 50.8116 151.94754 50.8116 153.00424ZM47.83522 153.00424"/>
<path transform="matrix(1.00005,0,0,-1,33.102998,188.563)" stroke-width=".3985" stroke-linecap="butt" stroke-miterlimit="10" stroke-linejoin="miter" fill="none" stroke="#000000" d="M50.8116 153.00424C50.8116 154.06095 49.47903 154.91756 47.83522 154.91756 46.1914 154.91756 44.85884 154.06095 44.85884 153.00424 44.85884 151.94754 46.1914 151.09093 47.83522 151.09093 49.47903 151.09093 50.8116 151.94754 50.8116 153.00424ZM47.83522 153.00424"/>
<path transform="matrix(1.00005,0,0,-1,33.102998,188.563)" stroke-width=".3985" stroke-linecap="butt" stroke-miterlimit="10" stroke-linejoin="miter" fill="none" stroke="#000000" d="M50.59912 153.00424V172.13822"/>
<use data-text="&#x266d;" xlink:href="#font_5_1" transform="matrix(6.725136,0,0,-6.7248,73.018749,34.495256)"/>
<path transform="matrix(1.00005,0,0,-1,33.102998,188.563)" d="M98.64684 160.97678C98.64684 162.0335 97.31427 162.8901 95.67046 162.8901 94.02663 162.8901 92.69408 162.0335 92.69408 160.97678 92.69408 159.92008 94.02663 159.06346 95.67046 159.06346 97.31427 159.06346 98.64684 159.92008 98.64684 160.97678ZM95.67046 160.97678"/>
<path transform="matrix(1.00005,0,0,-1,33.102998,188.563)" stroke-width=".3985" stroke-linecap="butt" stroke-miterlimit="10" stroke-linejoin="miter" fill="none" stroke="#000000" d="M98.64684 160.97678C98.64684 162.0335 97.31427 162.8901 95.67046 162.8901 94.02663 162.8901 92.69408 162.0335 92.69408 160.97678 92.69408 159.92008 94.02663 159.06346 95.67046 159.06346 97.31427 159.06346 98.64684 159.92008 98.64684 160.97678ZM95.67046 160.97678"/>
<path transform="matrix(1.00005,0,0,-1,33.102998,188.563)" stroke-width=".3985" stroke-linecap="butt" stroke-miterlimit="10" stroke-linejoin="miter" fill="none" stroke="#000000" d="M98.43437 160.97678V180.11074"/>
<use data-text="&#x266d;" xlink:href="#font_5_1" transform="matrix(6.725136,0,0,-6.7248,120.85613,26.523255)"/>
<path transform="matrix(1.00005,0,0,-1,33.102998,188.563)" d="M114.59192 160.97678C114.59192 162.0335 113.25935 162.8901 111.61554 162.8901 109.97171 162.8901 108.63914 162.0335 108.63914 160.97678 108.63914 159.92008 109.97171 159.06346 111.61554 159.06346 113.25935 159.06346 114.59192 159.92008 114.59192 160.97678ZM111.61554 160.97678"/>
<path transform="matrix(1.00005,0,0,-1,33.102998,188.563)" stroke-width=".3985" stroke-linecap="butt" stroke-miterlimit="10" stroke-linejoin="miter" fill="none" stroke="#000000" d="M114.59192 160.97678C114.59192 162.0335 113.25935 162.8901 111.61554 162.8901 109.97171 162.8901 108.63914 162.0335 108.63914 160.97678 108.63914 159.92008 109.97171 159.06346 111.61554 159.06346 113.25935 159.06346 114.59192 159.92008 114.59192 160.97678ZM111.61554 160.97678"/>
<path transform="matrix(1.00005,0,0,-1,33.102998,188.563)" stroke-width=".3985" stroke-linecap="butt" stroke-miterlimit="10" stroke-linejoin="miter" fill="none" stroke="#000000" d="M114.37946 160.97678V180.11074"/>
<path transform="matrix(1.00005,0,0,-1,33.102998,188.563)" d="M162.42716 166.29181C162.42716 167.34851 161.0946 168.20513 159.45078 168.20513 157.80696 168.20513 156.4744 167.34851 156.4744 166.29181 156.4744 165.23509 157.80696 164.37848 159.45078 164.37848 161.0946 164.37848 162.42716 165.23509 162.42716 166.29181ZM159.45078 166.29181"/>
<path transform="matrix(1.00005,0,0,-1,33.102998,188.563)" stroke-width=".3985" stroke-linecap="butt" stroke-miterlimit="10" stroke-linejoin="miter" fill="none" stroke="#000000" d="M162.42716 166.29181C162.42716 167.34851 161.0946 168.20513 159.45078 168.20513 157.80696 168.20513 156.4744 167.34851 156.4744 166.29181 156.4744 165.23509 157.80696 164.37848 159.45078 164.37848 161.0946 164.37848 162.42716 165.23509 162.42716 166.29181ZM159.45078 166.29181"/>
<path transform="matrix(1.00005,0,0,-1,33.102998,188.563)" stroke-width=".3985" stroke-linecap="butt" stroke-miterlimit="10" stroke-linejoin="miter" fill="none" stroke="#000000" d="M156.68686 166.29181V147.15785"/>
<use data-text="&#x266f;" xlink:href="#font_5_2" transform="matrix(6.725136,0,0,-6.7248,184.6403,21.20826)"/>
<path transform="matrix(1.00005,0,0,-1,33.102998,188.563)" d="M162.42716 168.94933C162.42716 170.00603 161.0946 170.86264 159.45078 170.86264 157.80696 170.86264 156.4744 170.00603 156.4744 168.94933 156.4744 167.89263 157.80696 167.036 159.45078 167.036 161.0946 167.036 162.42716 167.89263 162.42716 168.94933ZM159.45078 168.94933"/>
<path transform="matrix(1.00005,0,0,-1,33.102998,188.563)" stroke-width=".3985" stroke-linecap="butt" stroke-miterlimit="10" stroke-linejoin="miter" fill="none" stroke="#000000" d="M162.42716 168.94933C162.42716 170.00603 161.0946 170.86264 159.45078 170.86264 157.80696 170.86264 156.4744 170.00603 156.4744 168.94933 156.4744 167.89263 157.80696 167.036 159.45078 167.036 161.0946 167.036 162.42716 167.89263 162.42716 168.94933ZM159.45078 168.94933"/>
<path transform="matrix(1.00005,0,0,-1,33.102998,188.563)" stroke-width=".3985" stroke-linecap="butt" stroke-miterlimit="10" stroke-linejoin="miter" fill="none" stroke="#000000" d="M156.68686 168.94933V149.81536"/>
<path transform="matrix(1.00005,0,0,-1,33.102998,188.563)" d="M194.31732 174.26435C194.31732 175.32105 192.98476 176.17768 191.34095 176.17768 189.69712 176.17768 188.36457 175.32105 188.36457 174.26435 188.36457 173.20764 189.69712 172.35103 191.34095 172.35103 192.98476 172.35103 194.31732 173.20764 194.31732 174.26435ZM191.34095 174.26435"/>
<path transform="matrix(1.00005,0,0,-1,33.102998,188.563)" stroke-width=".3985" stroke-linecap="butt" stroke-miterlimit="10" stroke-linejoin="miter" fill="none" stroke="#000000" d="M194.31732 174.26435C194.31732 175.32105 192.98476 176.17768 191.34095 176.17768 189.69712 176.17768 188.36457 175.32105 188.36457 174.26435 188.36457 173.20764 189.69712 172.35103 191.34095 172.35103 192.98476 172.35103 194.31732 173.20764 194.31732 174.26435ZM191.34095 174.26435"/>
<path transform="matrix(1.00005,0,0,-1,33.102998,188.563)" stroke-width=".3985" stroke-linecap="butt" stroke-miterlimit="10" stroke-linejoin="miter" fill="none" stroke="#000000" d="M188.57701 174.26435V155.13037"/>
<use data-text="&#x266f;" xlink:href="#font_5_2" transform="matrix(6.725136,0,0,-6.7248,216.53192,13.23526)"/>
<path transform="matrix(1.00005,0,0,-1,33.102998,188.563)" d="M210.2624 176.92186C210.2624 177.97856 208.92984 178.83519 207.28603 178.83519 205.6422 178.83519 204.30965 177.97856 204.30965 176.92186 204.30965 175.86516 205.6422 175.00855 207.28603 175.00855 208.92984 175.00855 210.2624 175.86516 210.2624 176.92186ZM207.28603 176.92186"/>
<path transform="matrix(1.00005,0,0,-1,33.102998,188.563)" stroke-width=".3985" stroke-linecap="butt" stroke-miterlimit="10" stroke-linejoin="miter" fill="none" stroke="#000000" d="M210.2624 176.92186C210.2624 177.97856 208.92984 178.83519 207.28603 178.83519 205.6422 178.83519 204.30965 177.97856 204.30965 176.92186 204.30965 175.86516 205.6422 175.00855 207.28603 175.00855 208.92984 175.00855 210.2624 175.86516 210.2624 176.92186ZM207.28603 176.92186"/>
<path transform="matrix(1.00005,0,0,-1,33.102998,188.563)" stroke-width=".3985" stroke-linecap="butt" stroke-miterlimit="10" stroke-linejoin="miter" fill="none" stroke="#000000" d="M204.52211 176.92186V157.78789"/>
<path transform="matrix(1.00005,0,0,-1,33.102998,188.563)" stroke-width=".3985" stroke-linecap="butt" stroke-miterlimit="10" stroke-linejoin="miter" fill="none" stroke="#000000" d="M250.86931 179.57938H259.3732"/>
<path transform="matrix(1.00005,0,0,-1,33.102998,188.563)" d="M258.09764 182.2369C258.09764 183.2936 256.76509 184.1502 255.12126 184.1502 253.47745 184.1502 252.14488 183.2936 252.14488 182.2369 252.14488 181.18018 253.47745 180.32357 255.12126 180.32357 256.76509 180.32357 258.09764 181.18018 258.09764 182.2369ZM255.12126 182.2369"/>
<path transform="matrix(1.00005,0,0,-1,33.102998,188.563)" stroke-width=".3985" stroke-linecap="butt" stroke-miterlimit="10" stroke-linejoin="miter" fill="none" stroke="#000000" d="M258.09764 182.2369C258.09764 183.2936 256.76509 184.1502 255.12126 184.1502 253.47745 184.1502 252.14488 183.2936 252.14488 182.2369 252.14488 181.18018 253.47745 180.32357 255.12126 180.32357 256.76509 180.32357 258.09764 181.18018 258.09764 182.2369ZM255.12126 182.2369"/>
<path transform="matrix(1.00005,0,0,-1,33.102998,188.563)" stroke-width=".3985" stroke-linecap="butt" stroke-miterlimit="10" stroke-linejoin="miter" fill="none" stroke="#000000" d="M252.35733 182.2369V163.10292"/>
<path transform="matrix(1.00005,0,0,-1,33.102998,188.563)" stroke-width=".3985" stroke-linecap="butt" stroke-miterlimit="10" stroke-linejoin="miter" fill="none" stroke="#000000" d="M250.86931 179.57938H259.3732"/>
<path transform="matrix(1.00005,0,0,-1,33.102998,188.563)" stroke-width=".3985" stroke-linecap="butt" stroke-miterlimit="10" stroke-linejoin="miter" fill="none" stroke="#000000" d="M250.86931 184.89441H259.3732"/>
<path transform="matrix(1.00005,0,0,-1,33.102998,188.563)" d="M258.09764 184.89441C258.09764 185.95111 256.76509 186.80773 255.12126 186.80773 253.47745 186.80773 252.14488 185.95111 252.14488 184.89441 252.14488 183.83769 253.47745 182.98108 255.12126 182.98108 256.76509 182.98108 258.09764 183.83769 258.09764 184.89441ZM255.12126 184.89441"/>
<path transform="matrix(1.00005,0,0,-1,33.102998,188.563)" stroke-width=".3985" stroke-linecap="butt" stroke-miterlimit="10" stroke-linejoin="miter" fill="none" stroke="#000000" d="M258.09764 184.89441C258.09764 185.95111 256.76509 186.80773 255.12126 186.80773 253.47745 186.80773 252.14488 185.95111 252.14488 184.89441 252.14488 183.83769 253.47745 182.98108 255.12126 182.98108 256.76509 182.98108 258.09764 183.83769 258.09764 184.89441ZM255.12126 184.89441"/>
<path transform="matrix(1.00005,0,0,-1,33.102998,188.563)" stroke-width=".3985" stroke-linecap="butt" stroke-miterlimit="10" stroke-linejoin="miter" fill="none" stroke="#000000" d="M252.35733 184.89441V165.76044"/>
<path transform="matrix(1.00005,0,0,-1,33.102998,188.563)" stroke-width=".19925" stroke-linecap="butt" stroke-miterlimit="10" stroke-linejoin="miter" fill="none" stroke="#d9d9d9" d="M0 110.48402V142.58667"/>
<path transform="matrix(1.00005,0,0,-1,33.102998,188.563)" stroke-width=".19925" stroke-linecap="butt" stroke-miterlimit="10" stroke-linejoin="miter" fill="none" stroke="#d9d9d9" d="M15.94505 110.48402V142.58667"/>
<path transform="matrix(1.00005,0,0,-1,33.102998,188.563)" stroke-width=".19925" stroke-linecap="butt" stroke-miterlimit="10" stroke-linejoin="miter" fill="none" stroke="#d9d9d9" d="M31.89014 110.48402V142.58667"/>
<path transform="matrix(1.00005,0,0,-1,33.102998,188.563)" stroke-width=".19925" stroke-linecap="butt" stroke-miterlimit="10" stroke-linejoin="miter" fill="none" stroke="#d9d9d9" d="M47.83522 110.48402V142.58667"/>
<path transform="matrix(1.00005,0,0,-1,33.102998,188.563)" stroke-width=".19925" stroke-linecap="butt" stroke-miterlimit="10" stroke-linejoin="miter" fill="none" stroke="#d9d9d9" d="M63.7803 110.48402V142.58667"/>
<path transform="matrix(1.00005,0,0,-1,33.102998,188.563)" stroke-width=".19925" stroke-linecap="butt" stroke-miterlimit="10" stroke-linejoin="miter" fill="none" stroke="#d9d9d9" d="M79.72539 110.48402V142.58667"/>
<path transform="matrix(1.00005,0,0,-1,33.102998,188.563)" stroke-width=".19925" stroke-linecap="butt" stroke-miterlimit="10" stroke-linejoin="miter" fill="none" stroke="#d9d9d9" d="M95.67047 110.48402V142.58667"/>
<path transform="matrix(1.00005,0,0,-1,33.102998,188.563)" stroke-width=".19925" stroke-linecap="butt" stroke-miterlimit="10" stroke-linejoin="miter" fill="none" stroke="#d9d9d9" d="M111.61555 110.48402V142.58667"/>
<path transform="matrix(1.00005,0,0,-1,33.102998,188.563)" stroke-width=".19925" stroke-linecap="butt" stroke-miterlimit="10" stroke-linejoin="miter" fill="none" stroke="#d9d9d9" d="M127.56062 110.48402V142.58667"/>
<path transform="matrix(1.00005,0,0,-1,33.102998,188.563)" stroke-width=".19925" stroke-linecap="butt" stroke-miterlimit="10" stroke-linejoin="miter" fill="none" stroke="#d9d9d9" d="M143.5057 110.48402V142.58667"/>
<path transform="matrix(1.00005,0,0,-1,33.102998,188.563)" stroke-width=".19925" stroke-linecap="butt" stroke-miterlimit="10" stroke-linejoin="miter" fill="none" stroke="#d9d9d9" d="M159.45079 110.48402V142.58667"/>
<path transform="matrix(1.00005,0,0,-1,33.102998,188.563)" stroke-width=".19925" stroke-linecap="butt" stroke-miterlimit="10" stroke-linejoin="miter" fill="none" stroke="#d9d9d9" d="M175.39586 110.48402V142.58667"/>
<path transform="matrix(1.00005,0,0,-1,33.102998,188.563)" stroke-width=".19925" stroke-linecap="butt" stroke-miterlimit="10" stroke-linejoin="miter" fill="none" stroke="#d9d9d9" d="M191.34096 110.48402V142.58667"/>
<path transform="matrix(1.00005,0,0,-1,33.102998,188.563)" stroke-width=".19925" stroke-linecap="butt" stroke-miterlimit="10" stroke-linejoin="miter" fill="none" stroke="#d9d9d9" d="M207.28604 110.48402V142.58667"/>
<path transform="matrix(1.00005,0,0,-1,33.102998,188.563)" stroke-width=".19925" stroke-linecap="butt" stroke-miterlimit="10" stroke-linejoin="miter" fill="none" stroke="#d9d9d9" d="M223.23111 110.48402V142.58667"/>
<path transform="matrix(1.00005,0,0,-1,33.102998,188.563)" stroke-width=".19925" stroke-linecap="butt" stroke-miterlimit="10" stroke-linejoin="miter" fill="none" stroke="#d9d9d9" d="M239.17618 110.48402V142.58667"/>
<path transform="matrix(1.00005,0,0,-1,33.102998,188.563)" stroke-width=".19925" stroke-linecap="butt" stroke-miterlimit="10" stroke-linejoin="miter" fill="none" stroke="#d9d9d9" d="M255.12128 110.48402V142.58667"/>
<path transform="matrix(1.00005,0,0,-1,33.102998,188.563)" stroke-width=".19925" stroke-linecap="butt" stroke-miterlimit="10" stroke-linejoin="miter" fill="none" stroke="#d9d9d9" d="M271.06636 110.48402V142.58667"/>
<path transform="matrix(1.00005,0,0,-1,33.102998,188.563)" stroke-width=".19925" stroke-linecap="butt" stroke-miterlimit="10" stroke-linejoin="miter" fill="none" stroke="#d9d9d9" d="M287.01145 110.48402V142.58667"/>
</svg>
