<svg xmlns="http://www.w3.org/2000/svg" xmlns:xlink="http://www.w3.org/1999/xlink" xmlns:inkscape="http://www.inkscape.org/namespaces/inkscape" version="1.1" width="299" height="571" viewBox="0 0 299 571">
<defs>
<clipPath id="clip_1">
<path transform="matrix(1.00003,0,0,-1.00006,2.2955018,568.9621)" d="M0 0V566.9362H294.62583V0ZM294.62583 566.9362"/>
</clipPath>
</defs>
<g clip-path="url(#clip_1)">
<path transform="matrix(1.00003,0,0,-1.00006,2.2955018,568.9621)" stroke-width=".19925" stroke-linecap="butt" stroke-miterlimit="10" stroke-linejoin="miter" fill="none" stroke="#bfbfbf" d="M49.1043 0V566.9362"/>
<path transform="matrix(1.00003,0,0,-1.00006,2.2955018,568.9621)" stroke-width=".19925" stroke-linecap="butt" stroke-miterlimit="10" stroke-linejoin="miter" fill="none" stroke="#bfbfbf" d="M98.2086 0V566.9362"/>
<path transform="matrix(1.00003,0,0,-1.00006,2.2955018,568.9621)" stroke-width=".19925" stroke-linecap="butt" stroke-miterlimit="10" stroke-linejoin="miter" fill="none" stroke="#bfbfbf" d="M147.31291 0V566.9362"/>
<path transform="matrix(1.00003,0,0,-1.00006,2.2955018,568.9621)" stroke-width=".19925" stroke-linecap="butt" stroke-miterlimit="10" stroke-linejoin="miter" fill="none" stroke="#bfbfbf" d="M196.41722 0V566.9362"/>
<path transform="matrix(1.00003,0,0,-1.00006,2.2955018,568.9621)" stroke-width=".19925" stroke-linecap="butt" stroke-miterlimit="10" stroke-linejoin="miter" fill="none" stroke="#bfbfbf" d="M245.52152 0V566.9362"/>
<path transform="matrix(1.00003,0,0,-1.00006,2.2955018,568.9621)" stroke-width=".19925" stroke-linecap="butt" stroke-miterlimit="10" stroke-linejoin="miter" fill="none" stroke="#bfbfbf" d="M0 0 981.965 566.9362"/>
<path transform="matrix(1.00003,0,0,-1.00006,2.2955018,568.9621)" stroke-width=".19925" stroke-linecap="butt" stroke-miterlimit="10" stroke-linejoin="miter" fill="none" stroke="#bfbfbf" d="M0 566.9362 981.965 0"/>
<path transform="matrix(1.00003,0,0,-1.00006,2.2955018,568.9621)" stroke-width=".19925" stroke-linecap="butt" stroke-miterlimit="10" stroke-linejoin="miter" fill="none" stroke="#bfbfbf" d="M98.2086 0 1080.1737 566.9362"/>
<path transform="matrix(1.00003,0,0,-1.00006,2.2955018,568.9621)" stroke-width=".19925" stroke-linecap="butt" stroke-miterlimit="10" stroke-linejoin="miter" fill="none" stroke="#bfbfbf" d="M98.2086 566.9362 1080.1737 0"/>
<path transform="matrix(1.00003,0,0,-1.00006,2.2955018,568.9621)" stroke-width=".19925" stroke-linecap="butt" stroke-miterlimit="10" stroke-linejoin="miter" fill="none" stroke="#bfbfbf" d="M196.41722 0 1178.3822 566.9362"/>
<path transform="matrix(1.00003,0,0,-1.00006,2.2955018,568.9621)" stroke-width=".19925" stroke-linecap="butt" stroke-miterlimit="10" stroke-linejoin="miter" fill="none" stroke="#bfbfbf" d="M196.41722 566.9362 1178.3822 0"/>
<path transform="matrix(1.00003,0,0,-1.00006,2.2955018,568.9621)" stroke-width=".19925" stroke-linecap="butt" stroke-miterlimit="10" stroke-linejoin="miter" fill="none" stroke="#bfbfbf" d="M294.62583 0 1276.5908 566.9362"/>
<path transform="matrix(1.00003,0,0,-1.00006,2.2955018,568.9621)" stroke-width=".19925" stroke-linecap="butt" stroke-miterlimit="10" stroke-linejoin="miter" fill="none" stroke="#bfbfbf" d="M294.62583 566.9362 1276.5908 0"/>
<path transform="matrix(1.00003,0,0,-1.00006,2.2955018,568.9621)" stroke-width=".19925" stroke-linecap="butt" stroke-miterlimit="10" stroke-linejoin="miter" fill="none" stroke="#bfbfbf" d="M0 56.69362 294.5895 226.77448"/>
<path transform="matrix(1.00003,0,0,-1.00006,2.2955018,568.9621)" stroke-width=".19925" stroke-linecap="butt" stroke-miterlimit="10" stroke-linejoin="miter" fill="none" stroke="#bfbfbf" d="M0 56.69362 294.5895-113.38724"/>
<path transform="matrix(1.00003,0,0,-1.00006,2.2955018,568.9621)" stroke-width=".19925" stroke-linecap="butt" stroke-miterlimit="10" stroke-linejoin="miter" fill="none" stroke="#bfbfbf" d="M0 113.38724 294.5895 283.4681"/>
<path transform="matrix(1.00003,0,0,-1.00006,2.2955018,568.9621)" stroke-width=".19925" stroke-linecap="butt" stroke-miterlimit="10" stroke-linejoin="miter" fill="none" stroke="#bfbfbf" d="M0 113.38724 294.5895-56.69362"/>
<path transform="matrix(1.00003,0,0,-1.00006,2.2955018,568.9621)" stroke-width=".19925" stroke-linecap="butt" stroke-miterlimit="10" stroke-linejoin="miter" fill="none" stroke="#bfbfbf" d="M0 170.08086 294.5895 340.1617"/>
<path transform="matrix(1.00003,0,0,-1.00006,2.2955018,568.9621)" stroke-width=".19925" stroke-linecap="butt" stroke-miterlimit="10" stroke-linejoin="miter" fill="none" stroke="#bfbfbf" d="M0 170.08086 294.5895 0"/>
<path transform="matrix(1.00003,0,0,-1.00006,2.2955018,568.9621)" stroke-width=".19925" stroke-linecap="butt" stroke-miterlimit="10" stroke-linejoin="miter" fill="none" stroke="#bfbfbf" d="M0 226.77448 294.5895 396.85533"/>
<path transform="matrix(1.00003,0,0,-1.00006,2.2955018,568.9621)" stroke-width=".19925" stroke-linecap="butt" stroke-miterlimit="10" stroke-linejoin="miter" fill="none" stroke="#bfbfbf" d="M0 226.77448 294.5895 56.69362"/>
<path transform="matrix(1.00003,0,0,-1.00006,2.2955018,568.9621)" stroke-width=".19925" stroke-linecap="butt" stroke-miterlimit="10" stroke-linejoin="miter" fill="none" stroke="#bfbfbf" d="M0 283.4681 294.5895 453.54896"/>
<path transform="matrix(1.00003,0,0,-1.00006,2.2955018,568.9621)" stroke-width=".19925" stroke-linecap="butt" stroke-miterlimit="10" stroke-linejoin="miter" fill="none" stroke="#bfbfbf" d="M0 283.4681 294.5895 113.38724"/>
<path transform="matrix(1.00003,0,0,-1.00006,2.2955018,568.9621)" stroke-width=".19925" stroke-linecap="butt" stroke-miterlimit="10" stroke-linejoin="miter" fill="none" stroke="#bfbfbf" d="M0 340.1617 294.5895 510.24259"/>
<path transform="matrix(1.00003,0,0,-1.00006,2.2955018,568.9621)" stroke-width=".19925" stroke-linecap="butt" stroke-miterlimit="10" stroke-linejoin="miter" fill="none" stroke="#bfbfbf" d="M0 340.1617 294.5895 170.08086"/>
<path transform="matrix(1.00003,0,0,-1.00006,2.2955018,568.9621)" stroke-width=".19925" stroke-linecap="butt" stroke-miterlimit="10" stroke-linejoin="miter" fill="none" stroke="#bfbfbf" d="M0 396.85533 294.5895 566.9362"/>
<path transform="matrix(1.00003,0,0,-1.00006,2.2955018,568.9621)" stroke-width=".19925" stroke-linecap="butt" stroke-miterlimit="10" stroke-linejoin="miter" fill="none" stroke="#bfbfbf" d="M0 396.85533 294.5895 226.77448"/>
<path transform="matrix(1.00003,0,0,-1.00006,2.2955018,568.9621)" stroke-width=".19925" stroke-linecap="butt" stroke-miterlimit="10" stroke-linejoin="miter" fill="none" stroke="#bfbfbf" d="M0 453.54896 294.5895 623.6298"/>
<path transform="matrix(1.00003,0,0,-1.00006,2.2955018,568.9621)" stroke-width=".19925" stroke-linecap="butt" stroke-miterlimit="10" stroke-linejoin="miter" fill="none" stroke="#bfbfbf" d="M0 453.54896 294.5895 283.4681"/>
<path transform="matrix(1.00003,0,0,-1.00006,2.2955018,568.9621)" stroke-width=".19925" stroke-linecap="butt" stroke-miterlimit="10" stroke-linejoin="miter" fill="none" stroke="#bfbfbf" d="M0 510.24259 294.5895 680.3234"/>
<path transform="matrix(1.00003,0,0,-1.00006,2.2955018,568.9621)" stroke-width=".19925" stroke-linecap="butt" stroke-miterlimit="10" stroke-linejoin="miter" fill="none" stroke="#bfbfbf" d="M0 510.24259 294.5895 340.1617"/>
</g>
<path transform="matrix(1.00003,0,0,-1.00006,2.2955018,568.9621)" stroke-width=".79701" stroke-linecap="butt" stroke-miterlimit="10" stroke-linejoin="miter" fill="none" stroke="#7f807f" d="M0 0V566.9362H294.62583V0ZM294.62583 566.9362"/>
<path transform="matrix(1.00003,0,0,-1.00006,2.2955018,568.9621)" d="M270.88523 85.04042C270.88523 99.04858 259.5297 110.40413 245.52152 110.40413 231.51335 110.40413 220.1578 99.04858 220.1578 85.04042 220.1578 71.03226 231.51335 59.67671 245.52152 59.67671 259.5297 59.67671 270.88523 71.03226 270.88523 85.04042ZM245.52152 85.04042" fill="#ccffcc"/>
<path transform="matrix(1.00003,0,0,-1.00006,2.2955018,568.9621)" stroke-width=".3985" stroke-linecap="butt" stroke-miterlimit="10" stroke-linejoin="miter" fill="none" stroke="#00ff00" d="M270.88523 85.04042C270.88523 99.04858 259.5297 110.40413 245.52152 110.40413 231.51335 110.40413 220.1578 99.04858 220.1578 85.04042 220.1578 71.03226 231.51335 59.67671 245.52152 59.67671 259.5297 59.67671 270.88523 71.03226 270.88523 85.04042ZM245.52152 85.04042"/>
<path transform="matrix(1.00003,0,0,-1.00006,2.2955018,568.9621)" d="M221.78093 113.38724C221.78093 127.3954 210.42539 138.75095 196.41722 138.75095 182.40904 138.75095 171.0535 127.3954 171.0535 113.38724 171.0535 99.37906 182.40904 88.02351 196.41722 88.02351 210.42539 88.02351 221.78093 99.37906 221.78093 113.38724ZM196.41722 113.38724" fill="#ccffcc"/>
<path transform="matrix(1.00003,0,0,-1.00006,2.2955018,568.9621)" stroke-width=".3985" stroke-linecap="butt" stroke-miterlimit="10" stroke-linejoin="miter" fill="none" stroke="#00ff00" d="M221.78093 113.38724C221.78093 127.3954 210.42539 138.75095 196.41722 138.75095 182.40904 138.75095 171.0535 127.3954 171.0535 113.38724 171.0535 99.37906 182.40904 88.02351 196.41722 88.02351 210.42539 88.02351 221.78093 99.37906 221.78093 113.38724ZM196.41722 113.38724"/>
<path transform="matrix(1.00003,0,0,-1.00006,2.2955018,568.9621)" d="M221.78093 170.08086C221.78093 184.08902 210.42539 195.44457 196.41722 195.44457 182.40904 195.44457 171.0535 184.08902 171.0535 170.08086 171.0535 156.07268 182.40904 144.71715 196.41722 144.71715 210.42539 144.71715 221.78093 156.07268 221.78093 170.08086ZM196.41722 170.08086" fill="#ccffcc"/>
<path transform="matrix(1.00003,0,0,-1.00006,2.2955018,568.9621)" stroke-width=".3985" stroke-linecap="butt" stroke-miterlimit="10" stroke-linejoin="miter" fill="none" stroke="#00ff00" d="M221.78093 170.08086C221.78093 184.08902 210.42539 195.44457 196.41722 195.44457 182.40904 195.44457 171.0535 184.08902 171.0535 170.08086 171.0535 156.07268 182.40904 144.71715 196.41722 144.71715 210.42539 144.71715 221.78093 156.07268 221.78093 170.08086ZM196.41722 170.08086"/>
</svg>
