<svg xmlns="http://www.w3.org/2000/svg" xmlns:xlink="http://www.w3.org/1999/xlink" xmlns:inkscape="http://www.inkscape.org/namespaces/inkscape" version="1.1" width="83" height="132" viewBox="0 0 83 132">
<defs>
<path id="font_1_42" d="M.8600006 .23370362C.8600006 .24972534 .85598757 .25473023 .83898928 .25473023 .8279877 .25473023 .81900027 .25473023 .81799319 .23771668 .80999758 .08558655 .6649933 .021530152 .5479889 .021530152 .4059906 .021530152 .21398926 .099594119 .21398926 .34179688 .21398926 .58000186 .4019928 .6610718 .5469971 .6610718 .6369934 .6610718 .7839966 .61302188 .81599429 .42686463 .81799319 .41485597 .8299866 .41485597 .83799746 .41485597 .8600006 .41485597 .8600006 .42185975 .8600006 .44288636V.677063C.8600006 .69407656 .8600006 .7050781 .84399417 .7050781 .83399966 .7050781 .83099368 .70106509 .82499697 .69306948L.7659912 .61602786C.7049866 .66807559 .6279907 .7050781 .5289917 .7050781 .2869873 .7050781 .09700012 .53796389 .09700012 .34179688 .09700012 .14363098 .2869873-.022460938 .5299988-.022460938 .72299197-.022460938 .8600006 .1006012 .8600006 .23370362Z"/>
<path id="font_2_2" d="M.3809967-.023864747V-.12182617C.3809967-.1388092 .3809967-.15480042 .397995-.15480042 .3999939-.15480042 .4139862-.15180969 .4189911-.14581299 .4229889-.1408081 .4229889-.1368103 .4229889-.11882019V-.010879517C.43399049-.007873535 .44699098-.0038757325 .45700074 .00012207031 .47200013 .0051116945 .47200013 .009109497 .47200013 .033096315V.064086917C.47200013 .08308411 .47200013 .097076419 .45498658 .097076419 .44799806 .097076419 .42900086 .09007263 .4229889 .08807373V.41990663C.43399049 .4229126 .44699098 .4269104 .45700074 .4309082 .47200013 .43589784 .47200013 .43989564 .47200013 .46388246V.49487306C.47200013 .513855 .47200013 .5278473 .45498658 .5278473 .44799806 .5278473 .42900086 .52085879 .4229889 .51885989V.68577578C.4229889 .7027588 .4229889 .71777346 .4059906 .71777346 .40499879 .71777346 .3899994 .7157593 .3849945 .7097626 .3809967 .70477297 .3809967 .7007599 .3809967 .6827698V.5058594L.21598816 .45489503V.6218109C.21598816 .63879397 .21598816 .65478518 .19898987 .65478518 .19699097 .65478518 .18299866 .65179446 .17799378 .6457977 .17399597 .64079287 .17399597 .63679507 .17399597 .61880496V.44189454C.16299439 .4389038 .14898682 .434906 .13999939 .4309082 .125 .42590333 .125 .41990663 .125 .3979187V.3669281C.125 .34794618 .125 .33395387 .14199829 .33395387 .14898682 .33395387 .16799927 .34094239 .17399597 .34294129V.011108398C.16299439 .008117676 .14898682 .004119873 .13999939 .00012207031 .125-.0048828127 .125-.010879517 .125-.03286743V-.06384277C.125-.082839969 .125-.096832279 .14199829-.096832279 .14898682-.096832279 .16799927-.08982849 .17399597-.08782959V-.18579102C.17399597-.20277405 .17399597-.21777344 .19099427-.21777344 .19198609-.21777344 .20698548-.21577454 .21199036-.20977783 .21598816-.20478821 .21598816-.20077515 .21598816-.18278504V-.07484436L.3809967-.023864747M.3809967 .4069214V.0750885L.21598816 .024108887V.35594178L.3809967 .4069214Z"/>
<path id="font_1_45" d="M.27598573 .009994507C.27598573 .07299805 .24899292 .12199402 .20098877 .12199402 .1619873 .12199402 .13999939 .09199524 .13999939 .06098938 .13999939 .02999878 .1619873 0 .20098877 0 .22698975 0 .24299622 .01499939 .24299622 .01499939 .24299622-.057113649 .21398926-.11720276 .1599884-.16229248 .1519928-.16929627 .15098572-.17030335 .15098572-.17730713 .15098572-.18632508 .16099549-.19433594 .16799927-.19433594 .18199158-.19433594 .27598573-.11621094 .27598573 .009994507Z"/>
<path id="font_1_46" d="M.9059906 .33580018C.9059906 .5226898 .7389984 .6826172 .5249939 .6826172H.084991458V.63861086C.10899353 .63861086 .13899231 .63861086 .16099549 .63661196 .19599915 .6336212 .19599915 .6206207 .19599915 .5956421V.08695984C.19599915 .0619812 .19599915 .04899597 .16099549 .04598999 .13899231 .04399109 .10699463 .04399109 .084991458 .04399109V0H.5249939C.7369995 0 .9059906 .15092469 .9059906 .33580018M.79299929 .33580018C.79299929 .24786377 .772995 .17390442 .71598818 .11894226 .68299868 .08796692 .6119995 .04399109 .49598695 .04399109H.34899903C.2979889 .04399109 .2979889 .049987794 .2979889 .083969119V.5986328C.2979889 .63261416 .2979889 .63861086 .34899903 .63861086H.49598695C.61499026 .63861086 .6859894 .5886383 .71299746 .56266787 .75 .52568057 .79299929 .46672059 .79299929 .33580018Z"/>
<path id="font_2_1" d="M.16699219 .71698C.16699219 .7389984 .16699219 .75 .1459961 .75 .125 .75 .125 .7369995 .125 .71698V.010543823C.125-.011474609 .125-.022460938 .1459961-.022460938 .16299439-.022460938 .23498535 .02154541 .25898744 .035568239 .34399415 .08760071 .47200013 .17668152 .47200013 .32080079 .47200013 .4098816 .3889923 .46289063 .3019867 .46289063 .2689972 .46289063 .21299744 .45788575 .16699219 .42788697V.71698M.16699219 .3368225C.16699219 .36083985 .16699219 .38085938 .20399475 .39587403 .23199463 .4078827 .2679901 .4098816 .2869873 .4098816 .35099793 .4098816 .375 .36184693 .375 .31980897 .375 .19169617 .25898744 .09561157 .16699219 .031555177V.3368225Z"/>
<path id="font_1_49" d="M.83599856 .27101136H.7939911C.7649994 .10699463 .7259979 .04399109 .5349884 .04399109H.34899903C.2999878 .04399109 .2999878 .050994874 .2999878 .08200073V.3300171H.41600038C.5159912 .3300171 .5439911 .30900575 .5439911 .2130127H.58599856V.49090577H.5439911C.5439911 .394989 .5159912 .37402345 .41600038 .37402345H.2999878V.59680178C.2999878 .62776187 .2999878 .6347656 .34899903 .6347656H.526001C.69299319 .6347656 .73799136 .59477236 .7599945 .44082643H.8019867L.7689972 .6787567H.08299255V.6347656H.11299133C.19400025 .6347656 .19400025 .62475588 .19400025 .59376528V.0849762C.19400025 .053985597 .19400025 .04399109 .11299133 .04399109H.08299255V0H.7859955L.83599856 .27101136Z"/>
<path id="font_1_54" d="M.7839966 .44114686 .7509918 .6787567H.08299255V.6347656H.11299133C.19400025 .6347656 .19400025 .6247711 .19400025 .59384158V.08503723C.19400025 .054000856 .19400025 .04399109 .11299133 .04399109H.08299255V0L.2519989 .0039978029C.30899049 .0039978029 .3829956 .0039978029 .43899537 0V.04399109H.3959961C.2999878 .04399109 .2999878 .054000856 .2999878 .08604431V.31829835H.4119873C.5119934 .31829835 .5369873 .29527284 .5369873 .20117188H.57899478V.47906495H.5369873C.5369873 .3852539 .5119934 .3623047 .4119873 .3623047H.2999878V.5968323C.2999878 .6277771 .2999878 .6347656 .34899903 .6347656H.5149994C.673996 .6347656 .7220001 .59584048 .74198916 .44114686H.7839966Z"/>
<path id="font_1_58" d="M.94599917 .23339844V.27738954L.79499819 .27339173C.7409973 .27339173 .6469879 .27339173 .5970001 .27738954V.23339844H.6469879C.7529907 .23339844 .7529907 .22239685 .7529907 .19142151V.12945557C.7529907 .10647583 .7529907 .06550598 .68499758 .040512086 .6349945 .021530152 .57398989 .021530152 .5609894 .021530152 .3929901 .021530152 .21398926 .111465457 .21398926 .34150697 .21398926 .57992556 .40098573 .6610718 .54599 .6610718 .6359863 .6610718 .7829895 .61198428 .8149872 .426651 .81700137 .41462709 .82899478 .41462709 .83699038 .41462709 .85899356 .41462709 .85899356 .42164613 .85899356 .442688V.677063C.85899356 .69407656 .85899356 .7050781 .84298709 .7050781 .83299258 .7050781 .8299866 .70106509 .82398989 .69306948L.7649994 .6159973C.71798709 .6550598 .644989 .7050781 .5279999 .7050781 .2869873 .7050781 .09700012 .53785708 .09700012 .34150697 .09700012 .15245056 .2749939-.022460938 .5339966-.022460938 .57099917-.022460938 .6239929-.020462037 .6749878-.0064697267 .7489929 .013534546 .7749939 .04951477 .7779999 .054504396 .8019867 .023529053 .83699038-.00047302247 .8450012-.00047302247 .85899356-.00047302247 .85899356 .012527466 .85899356 .027526856V.19342041C.85899356 .22439575 .85899356 .23339844 .9259949 .23339844H.94599917Z"/>
<path id="font_1_27" d="M.9089966 0V.04399109H.8829956C.82099917 .04399109 .80599978 .049987794 .7939911 .07698059L.5249939 .68981936C.5169983 .70780947 .5139923 .7158203 .48999024 .7158203 .47200013 .7158203 .46398927 .71180728 .45498658 .69181826L.19699097 .10298157C.1749878 .052993776 .12098694 .04399109 .070999149 .04399109V0C.10798645 .0029907227 .1499939 .0039978029 .18699646 .0039978029 .19999695 .0039978029 .2709961 .0029907227 .31698609 0V.04399109C.26098634 .043945314 .24099732 .06893921 .24099732 .0879364 .24099732 .09391785 .24299622 .09692383 .24598694 .104904178L.2979889 .22265625H.61898806L.6799927 .08293152C.6859894 .07093811 .6859894 .06793213 .6859894 .06793213 .6859894 .043945314 .6289978 .043945314 .59999087 .043945314V0L.7619934 .0039978029 .9089966 0M.59999087 .26664735H.31698609L.45799256 .58865359 .59999087 .26664735Z"/>
<path id="font_1_34" d="M.83699038 .184906C.83699038 .25585938 .7649994 .33680726 .6029968 .3577881 .70399478 .3737793 .8019867 .43174745 .8019867 .51168826 .8019867 .6046295 .6779938 .6826172 .5289917 .6826172H.08699036V.63861086H.116989139C.19799805 .63861086 .19799805 .62861636 .19799805 .597641V.08496094C.19799805 .053985597 .19799805 .04399109 .116989139 .04399109H.08699036V0H.56199648C.71598818-.0001373291 .83699038 .085861209 .83699038 .18486023V.184906M.69299319 .5107269C.69299319 .43780519 .6049957 .3718567 .49499513 .3718567H.29599V.600647C.29599 .6316223 .29599 .63861086 .34498597 .63861086H.5219879C.6289978 .638855 .69299319 .5728607 .69299319 .51086428V.5107269M.723999 .18592835C.723999 .110961917 .6409912 .04399109 .5239868 .04399109H.34498597C.29599 .04399109 .29599 .050994874 .29599 .081970218V.3388672H.5319977C.66600039 .33898927 .723999 .25099183 .723999 .18598938V.18592835Z"/>
</defs>
<path transform="matrix(1.00003,0,0,-1.00009,.5065384,142.70542)" d="M75.59477 23.49234C75.59477 27.78413 72.11569 31.26323 67.8239 31.26323 63.5321 31.26323 60.05301 27.78413 60.05301 23.49234 60.05301 19.20055 63.5321 15.72145 67.8239 15.72145 72.11569 15.72145 75.59477 19.20055 75.59477 23.49234ZM67.8239 23.49234" fill="#cccccc"/>
<path transform="matrix(1.00003,0,0,-1.00009,.5065384,142.70542)" stroke-width=".3985" stroke-linecap="butt" stroke-miterlimit="10" stroke-linejoin="miter" fill="none" stroke="#7f807f" d="M75.59477 23.49234C75.59477 27.78413 72.11569 31.26323 67.8239 31.26323 63.5321 31.26323 60.05301 27.78413 60.05301 23.49234 60.05301 19.20055 63.5321 15.72145 67.8239 15.72145 72.11569 15.72145 75.59477 19.20055 75.59477 23.49234ZM67.8239 23.49234"/>
<use data-text="C" xlink:href="#font_1_42" transform="matrix(3.2379423,0,0,-3.238136,66.78143,120.316989)"/>
<path transform="matrix(1.00003,0,0,-1.00009,.5065384,142.70542)" d="M62.03 31.32314C62.03 35.61493 58.5509 39.09402 54.25911 39.09402 49.96732 39.09402 46.48822 35.61493 46.48822 31.32314 46.48822 27.03134 49.96732 23.55225 54.25911 23.55225 58.5509 23.55225 62.03 27.03134 62.03 31.32314ZM54.25911 31.32314" fill="#cccccc"/>
<path transform="matrix(1.00003,0,0,-1.00009,.5065384,142.70542)" stroke-width=".3985" stroke-linecap="butt" stroke-miterlimit="10" stroke-linejoin="miter" fill="none" stroke="#7f807f" d="M62.03 31.32314C62.03 35.61493 58.5509 39.09402 54.25911 39.09402 49.96732 39.09402 46.48822 35.61493 46.48822 31.32314 46.48822 27.03134 49.96732 23.55225 54.25911 23.55225 58.5509 23.55225 62.03 27.03134 62.03 31.32314ZM54.25911 31.32314"/>
<use data-text="C" xlink:href="#font_1_42" transform="matrix(3.2379423,0,0,-3.238136,51.59683,110.57811)"/>
<use data-text="&#x266f;" xlink:href="#font_2_2" transform="matrix(3.2379423,0,0,-3.238136,54.698724,110.57811)"/>
<use data-text="," xlink:href="#font_1_45" transform="matrix(3.2379423,0,0,-3.238136,56.63253,110.57811)"/>
<use data-text="D" xlink:href="#font_1_46" transform="matrix(3.2379423,0,0,-3.238136,52.174695,114.46351)"/>
<use data-text="&#x266d;" xlink:href="#font_2_1" transform="matrix(3.2379423,0,0,-3.238136,55.42544,114.46351)"/>
<path transform="matrix(1.00003,0,0,-1.00009,.5065384,142.70542)" d="M48.46521 39.15392C48.46521 43.44571 44.98611 46.9248 40.69432 46.9248 36.40253 46.9248 32.92343 43.44571 32.92343 39.15392 32.92343 34.86212 36.40253 31.38303 40.69432 31.38303 44.98611 31.38303 48.46521 34.86212 48.46521 39.15392ZM40.69432 39.15392" fill="#f2f2f2"/>
<path transform="matrix(1.00003,0,0,-1.00009,.5065384,142.70542)" stroke-width=".3985" stroke-linecap="butt" stroke-miterlimit="10" stroke-linejoin="miter" fill="none" stroke="#7f807f" d="M48.46521 39.15392C48.46521 43.44571 44.98611 46.9248 40.69432 46.9248 36.40253 46.9248 32.92343 43.44571 32.92343 39.15392 32.92343 34.86212 36.40253 31.38303 40.69432 31.38303 44.98611 31.38303 48.46521 34.86212 48.46521 39.15392ZM40.69432 39.15392"/>
<use data-text="D" xlink:href="#font_1_46" transform="matrix(3.2379423,0,0,-3.238136,39.575868,104.65358)"/>
<path transform="matrix(1.00003,0,0,-1.00009,.5065384,142.70542)" d="M34.90042 46.98471C34.90042 51.2765 31.42133 54.7556 27.12953 54.7556 22.83774 54.7556 19.35864 51.2765 19.35864 46.98471 19.35864 42.69292 22.83774 39.21384 27.12953 39.21384 31.42133 39.21384 34.90042 42.69292 34.90042 46.98471ZM27.12953 46.98471" fill="#f2f2f2"/>
<path transform="matrix(1.00003,0,0,-1.00009,.5065384,142.70542)" stroke-width=".3985" stroke-linecap="butt" stroke-miterlimit="10" stroke-linejoin="miter" fill="none" stroke="#7f807f" d="M34.90042 46.98471C34.90042 51.2765 31.42133 54.7556 27.12953 54.7556 22.83774 54.7556 19.35864 51.2765 19.35864 46.98471 19.35864 42.69292 22.83774 39.21384 27.12953 39.21384 31.42133 39.21384 34.90042 42.69292 34.90042 46.98471ZM27.12953 46.98471"/>
<use data-text="E" xlink:href="#font_1_49" transform="matrix(3.2379423,0,0,-3.238136,24.559613,94.67268)"/>
<use data-text="&#x266d;" xlink:href="#font_2_1" transform="matrix(3.2379423,0,0,-3.238136,27.473649,94.67268)"/>
<use data-text="," xlink:href="#font_1_45" transform="matrix(3.2379423,0,0,-3.238136,29.407456,94.67268)"/>
<use data-text="D" xlink:href="#font_1_46" transform="matrix(3.2379423,0,0,-3.238136,25.043877,98.558078)"/>
<use data-text="&#x266f;" xlink:href="#font_2_2" transform="matrix(3.2379423,0,0,-3.238136,28.294625,98.558078)"/>
<path transform="matrix(1.00003,0,0,-1.00009,.5065384,142.70542)" d="M21.33565 54.8155C21.33565 59.10728 17.85655 62.58638 13.56476 62.58638 9.27296 62.58638 5.79388 59.10728 5.79388 54.8155 5.79388 50.52371 9.27296 47.04462 13.56476 47.04462 17.85655 47.04462 21.33565 50.52371 21.33565 54.8155ZM13.56476 54.8155" fill="#f2f2f2"/>
<path transform="matrix(1.00003,0,0,-1.00009,.5065384,142.70542)" stroke-width=".3985" stroke-linecap="butt" stroke-miterlimit="10" stroke-linejoin="miter" fill="none" stroke="#7f807f" d="M21.33565 54.8155C21.33565 59.10728 17.85655 62.58638 13.56476 62.58638 9.27296 62.58638 5.79388 59.10728 5.79388 54.8155 5.79388 50.52371 9.27296 47.04462 13.56476 47.04462 17.85655 47.04462 21.33565 50.52371 21.33565 54.8155ZM13.56476 54.8155"/>
<use data-text="E" xlink:href="#font_1_49" transform="matrix(3.2379423,0,0,-3.238136,12.615055,88.98417)"/>
<path transform="matrix(1.00003,0,0,-1.00009,.5065384,142.70542)" d="M75.59477 39.15392C75.59477 43.44571 72.11569 46.9248 67.8239 46.9248 63.5321 46.9248 60.05301 43.44571 60.05301 39.15392 60.05301 34.86212 63.5321 31.38303 67.8239 31.38303 72.11569 31.38303 75.59477 34.86212 75.59477 39.15392ZM67.8239 39.15392" fill="#f2f2f2"/>
<path transform="matrix(1.00003,0,0,-1.00009,.5065384,142.70542)" stroke-width=".3985" stroke-linecap="butt" stroke-miterlimit="10" stroke-linejoin="miter" fill="none" stroke="#7f807f" d="M75.59477 39.15392C75.59477 43.44571 72.11569 46.9248 67.8239 46.9248 63.5321 46.9248 60.05301 43.44571 60.05301 39.15392 60.05301 34.86212 63.5321 31.38303 67.8239 31.38303 72.11569 31.38303 75.59477 34.86212 75.59477 39.15392ZM67.8239 39.15392"/>
<use data-text="E" xlink:href="#font_1_49" transform="matrix(3.2379423,0,0,-3.238136,65.25584,102.50439)"/>
<use data-text="&#x266d;" xlink:href="#font_2_1" transform="matrix(3.2379423,0,0,-3.238136,68.169879,102.50439)"/>
<use data-text="," xlink:href="#font_1_45" transform="matrix(3.2379423,0,0,-3.238136,70.10368,102.50439)"/>
<use data-text="D" xlink:href="#font_1_46" transform="matrix(3.2379423,0,0,-3.238136,65.7401,106.389789)"/>
<use data-text="&#x266f;" xlink:href="#font_2_2" transform="matrix(3.2379423,0,0,-3.238136,68.990848,106.389789)"/>
<path transform="matrix(1.00003,0,0,-1.00009,.5065384,142.70542)" d="M62.03 46.98471C62.03 51.2765 58.5509 54.7556 54.25911 54.7556 49.96732 54.7556 46.48822 51.2765 46.48822 46.98471 46.48822 42.69292 49.96732 39.21384 54.25911 39.21384 58.5509 39.21384 62.03 42.69292 62.03 46.98471ZM54.25911 46.98471" fill="#f2f2f2"/>
<path transform="matrix(1.00003,0,0,-1.00009,.5065384,142.70542)" stroke-width=".3985" stroke-linecap="butt" stroke-miterlimit="10" stroke-linejoin="miter" fill="none" stroke="#7f807f" d="M62.03 46.98471C62.03 51.2765 58.5509 54.7556 54.25911 54.7556 49.96732 54.7556 46.48822 51.2765 46.48822 46.98471 46.48822 42.69292 49.96732 39.21384 54.25911 39.21384 58.5509 39.21384 62.03 42.69292 62.03 46.98471ZM54.25911 46.98471"/>
<use data-text="E" xlink:href="#font_1_49" transform="matrix(3.2379423,0,0,-3.238136,53.31028,96.81587)"/>
<path transform="matrix(1.00003,0,0,-1.00009,.5065384,142.70542)" d="M48.46521 54.8155C48.46521 59.10728 44.98611 62.58638 40.69432 62.58638 36.40253 62.58638 32.92343 59.10728 32.92343 54.8155 32.92343 50.52371 36.40253 47.04462 40.69432 47.04462 44.98611 47.04462 48.46521 50.52371 48.46521 54.8155ZM40.69432 54.8155" fill="#f2f2f2"/>
<path transform="matrix(1.00003,0,0,-1.00009,.5065384,142.70542)" stroke-width=".3985" stroke-linecap="butt" stroke-miterlimit="10" stroke-linejoin="miter" fill="none" stroke="#7f807f" d="M48.46521 54.8155C48.46521 59.10728 44.98611 62.58638 40.69432 62.58638 36.40253 62.58638 32.92343 59.10728 32.92343 54.8155 32.92343 50.52371 36.40253 47.04462 40.69432 47.04462 44.98611 47.04462 48.46521 50.52371 48.46521 54.8155ZM40.69432 54.8155"/>
<use data-text="F" xlink:href="#font_1_54" transform="matrix(3.2379423,0,0,-3.238136,39.801424,88.98417)"/>
<path transform="matrix(1.00003,0,0,-1.00009,.5065384,142.70542)" d="M34.90042 62.6463C34.90042 66.9381 31.42133 70.41718 27.12953 70.41718 22.83774 70.41718 19.35864 66.9381 19.35864 62.6463 19.35864 58.3545 22.83774 54.87541 27.12953 54.87541 31.42133 54.87541 34.90042 58.3545 34.90042 62.6463ZM27.12953 62.6463" fill="#cccccc"/>
<path transform="matrix(1.00003,0,0,-1.00009,.5065384,142.70542)" stroke-width=".3985" stroke-linecap="butt" stroke-miterlimit="10" stroke-linejoin="miter" fill="none" stroke="#7f807f" d="M34.90042 62.6463C34.90042 66.9381 31.42133 70.41718 27.12953 70.41718 22.83774 70.41718 19.35864 66.9381 19.35864 62.6463 19.35864 58.3545 22.83774 54.87541 27.12953 54.87541 31.42133 54.87541 34.90042 58.3545 34.90042 62.6463ZM27.12953 62.6463"/>
<use data-text="G" xlink:href="#font_1_58" transform="matrix(3.2379423,0,0,-3.238136,24.344452,79.01027)"/>
<use data-text="&#x266d;" xlink:href="#font_2_1" transform="matrix(3.2379423,0,0,-3.238136,27.689457,79.01027)"/>
<use data-text="," xlink:href="#font_1_45" transform="matrix(3.2379423,0,0,-3.238136,29.623265,79.01027)"/>
<use data-text="F" xlink:href="#font_1_54" transform="matrix(3.2379423,0,0,-3.238136,25.268784,82.89567)"/>
<use data-text="&#x266f;" xlink:href="#font_2_2" transform="matrix(3.2379423,0,0,-3.238136,28.069718,82.89567)"/>
<path transform="matrix(1.00003,0,0,-1.00009,.5065384,142.70542)" d="M21.33565 70.47708C21.33565 74.76888 17.85655 78.24797 13.56476 78.24797 9.27296 78.24797 5.79388 74.76888 5.79388 70.47708 5.79388 66.18529 9.27296 62.70619 13.56476 62.70619 17.85655 62.70619 21.33565 66.18529 21.33565 70.47708ZM13.56476 70.47708" fill="#cccccc"/>
<path transform="matrix(1.00003,0,0,-1.00009,.5065384,142.70542)" stroke-width=".3985" stroke-linecap="butt" stroke-miterlimit="10" stroke-linejoin="miter" fill="none" stroke="#7f807f" d="M21.33565 70.47708C21.33565 74.76888 17.85655 78.24797 13.56476 78.24797 9.27296 78.24797 5.79388 74.76888 5.79388 70.47708 5.79388 66.18529 9.27296 62.70619 13.56476 62.70619 17.85655 62.70619 21.33565 66.18529 21.33565 70.47708ZM13.56476 70.47708"/>
<use data-text="G" xlink:href="#font_1_58" transform="matrix(3.2379423,0,0,-3.238136,12.399246,73.32776)"/>
<path transform="matrix(1.00003,0,0,-1.00009,.5065384,142.70542)" d="M75.59477 54.8155C75.59477 59.10728 72.11569 62.58638 67.8239 62.58638 63.5321 62.58638 60.05301 59.10728 60.05301 54.8155 60.05301 50.52371 63.5321 47.04462 67.8239 47.04462 72.11569 47.04462 75.59477 50.52371 75.59477 54.8155ZM67.8239 54.8155" fill="#f2f2f2"/>
<path transform="matrix(1.00003,0,0,-1.00009,.5065384,142.70542)" stroke-width=".3985" stroke-linecap="butt" stroke-miterlimit="10" stroke-linejoin="miter" fill="none" stroke="#7f807f" d="M75.59477 54.8155C75.59477 59.10728 72.11569 62.58638 67.8239 62.58638 63.5321 62.58638 60.05301 59.10728 60.05301 54.8155 60.05301 50.52371 63.5321 47.04462 67.8239 47.04462 72.11569 47.04462 75.59477 50.52371 75.59477 54.8155ZM67.8239 54.8155"/>
<use data-text="G" xlink:href="#font_1_58" transform="matrix(3.2379423,0,0,-3.238136,65.04068,86.84097)"/>
<use data-text="&#x266d;" xlink:href="#font_2_1" transform="matrix(3.2379423,0,0,-3.238136,68.38568,86.84097)"/>
<use data-text="," xlink:href="#font_1_45" transform="matrix(3.2379423,0,0,-3.238136,70.31949,86.84097)"/>
<use data-text="F" xlink:href="#font_1_54" transform="matrix(3.2379423,0,0,-3.238136,65.96501,90.72637)"/>
<use data-text="&#x266f;" xlink:href="#font_2_2" transform="matrix(3.2379423,0,0,-3.238136,68.765949,90.72637)"/>
<path transform="matrix(1.00003,0,0,-1.00009,.5065384,142.70542)" d="M62.03 62.6463C62.03 66.9381 58.5509 70.41718 54.25911 70.41718 49.96732 70.41718 46.48822 66.9381 46.48822 62.6463 46.48822 58.3545 49.96732 54.87541 54.25911 54.87541 58.5509 54.87541 62.03 58.3545 62.03 62.6463ZM54.25911 62.6463" fill="#f2f2f2"/>
<path transform="matrix(1.00003,0,0,-1.00009,.5065384,142.70542)" stroke-width=".3985" stroke-linecap="butt" stroke-miterlimit="10" stroke-linejoin="miter" fill="none" stroke="#7f807f" d="M62.03 62.6463C62.03 66.9381 58.5509 70.41718 54.25911 70.41718 49.96732 70.41718 46.48822 66.9381 46.48822 62.6463 46.48822 58.3545 49.96732 54.87541 54.25911 54.87541 58.5509 54.87541 62.03 58.3545 62.03 62.6463ZM54.25911 62.6463"/>
<use data-text="G" xlink:href="#font_1_58" transform="matrix(3.2379423,0,0,-3.238136,53.09447,81.15946)"/>
<path transform="matrix(1.00003,0,0,-1.00009,.5065384,142.70542)" d="M48.46521 70.47708C48.46521 74.76888 44.98611 78.24797 40.69432 78.24797 36.40253 78.24797 32.92343 74.76888 32.92343 70.47708 32.92343 66.18529 36.40253 62.70619 40.69432 62.70619 44.98611 62.70619 48.46521 66.18529 48.46521 70.47708ZM40.69432 70.47708" fill="#f2f2f2"/>
<path transform="matrix(1.00003,0,0,-1.00009,.5065384,142.70542)" stroke-width=".3985" stroke-linecap="butt" stroke-miterlimit="10" stroke-linejoin="miter" fill="none" stroke="#7f807f" d="M48.46521 70.47708C48.46521 74.76888 44.98611 78.24797 40.69432 78.24797 36.40253 78.24797 32.92343 74.76888 32.92343 70.47708 32.92343 66.18529 36.40253 62.70619 40.69432 62.70619 44.98611 62.70619 48.46521 66.18529 48.46521 70.47708ZM40.69432 70.47708"/>
<use data-text="A" xlink:href="#font_1_27" transform="matrix(3.2379423,0,0,-3.238136,37.99437,71.178569)"/>
<use data-text="&#x266d;" xlink:href="#font_2_1" transform="matrix(3.2379423,0,0,-3.238136,41.17037,71.178569)"/>
<use data-text="," xlink:href="#font_1_45" transform="matrix(3.2379423,0,0,-3.238136,43.10417,71.178569)"/>
<use data-text="G" xlink:href="#font_1_58" transform="matrix(3.2379423,0,0,-3.238136,38.56249,75.063968)"/>
<use data-text="&#x266f;" xlink:href="#font_2_2" transform="matrix(3.2379423,0,0,-3.238136,41.906839,75.063968)"/>
<path transform="matrix(1.00003,0,0,-1.00009,.5065384,142.70542)" d="M34.90042 78.30786C34.90042 82.59966 31.42133 86.07875 27.12953 86.07875 22.83774 86.07875 19.35864 82.59966 19.35864 78.30786 19.35864 74.01607 22.83774 70.53697 27.12953 70.53697 31.42133 70.53697 34.90042 74.01607 34.90042 78.30786ZM27.12953 78.30786" fill="#f2f2f2"/>
<path transform="matrix(1.00003,0,0,-1.00009,.5065384,142.70542)" stroke-width=".3985" stroke-linecap="butt" stroke-miterlimit="10" stroke-linejoin="miter" fill="none" stroke="#7f807f" d="M34.90042 78.30786C34.90042 82.59966 31.42133 86.07875 27.12953 86.07875 22.83774 86.07875 19.35864 82.59966 19.35864 78.30786 19.35864 74.01607 22.83774 70.53697 27.12953 70.53697 31.42133 70.53697 34.90042 74.01607 34.90042 78.30786ZM27.12953 78.30786"/>
<use data-text="A" xlink:href="#font_1_27" transform="matrix(3.2379423,0,0,-3.238136,26.048157,65.550067)"/>
<path transform="matrix(1.00003,0,0,-1.00009,.5065384,142.70542)" d="M21.33565 86.13866C21.33565 90.43045 17.85655 93.90955 13.56476 93.90955 9.27296 93.90955 5.79388 90.43045 5.79388 86.13866 5.79388 81.84686 9.27296 78.36777 13.56476 78.36777 17.85655 78.36777 21.33565 81.84686 21.33565 86.13866ZM13.56476 86.13866" fill="#f2f2f2"/>
<path transform="matrix(1.00003,0,0,-1.00009,.5065384,142.70542)" stroke-width=".3985" stroke-linecap="butt" stroke-miterlimit="10" stroke-linejoin="miter" fill="none" stroke="#7f807f" d="M21.33565 86.13866C21.33565 90.43045 17.85655 93.90955 13.56476 93.90955 9.27296 93.90955 5.79388 90.43045 5.79388 86.13866 5.79388 81.84686 9.27296 78.36777 13.56476 78.36777 17.85655 78.36777 21.33565 81.84686 21.33565 86.13866ZM13.56476 86.13866"/>
<use data-text="B" xlink:href="#font_1_34" transform="matrix(3.2379423,0,0,-3.238136,10.938652,55.515157)"/>
<use data-text="&#x266d;" xlink:href="#font_2_1" transform="matrix(3.2379423,0,0,-3.238136,13.966442,55.515157)"/>
<use data-text="," xlink:href="#font_1_45" transform="matrix(3.2379423,0,0,-3.238136,15.9002499,55.515157)"/>
<use data-text="A" xlink:href="#font_1_27" transform="matrix(3.2379423,0,0,-3.238136,11.516514,59.400556)"/>
<use data-text="&#x266f;" xlink:href="#font_2_2" transform="matrix(3.2379423,0,0,-3.238136,14.693161,59.400556)"/>
<path transform="matrix(1.00003,0,0,-1.00009,.5065384,142.70542)" d="M75.59477 70.47708C75.59477 74.76888 72.11569 78.24797 67.8239 78.24797 63.5321 78.24797 60.05301 74.76888 60.05301 70.47708 60.05301 66.18529 63.5321 62.70619 67.8239 62.70619 72.11569 62.70619 75.59477 66.18529 75.59477 70.47708ZM67.8239 70.47708" fill="#f2f2f2"/>
<path transform="matrix(1.00003,0,0,-1.00009,.5065384,142.70542)" stroke-width=".3985" stroke-linecap="butt" stroke-miterlimit="10" stroke-linejoin="miter" fill="none" stroke="#7f807f" d="M75.59477 70.47708C75.59477 74.76888 72.11569 78.24797 67.8239 78.24797 63.5321 78.24797 60.05301 74.76888 60.05301 70.47708 60.05301 66.18529 63.5321 62.70619 67.8239 62.70619 72.11569 62.70619 75.59477 66.18529 75.59477 70.47708ZM67.8239 70.47708"/>
<use data-text="A" xlink:href="#font_1_27" transform="matrix(3.2379423,0,0,-3.238136,66.744388,73.38077)"/>
<path transform="matrix(1.00003,0,0,-1.00009,.5065384,142.70542)" d="M62.03 78.30786C62.03 82.59966 58.5509 86.07875 54.25911 86.07875 49.96732 86.07875 46.48822 82.59966 46.48822 78.30786 46.48822 74.01607 49.96732 70.53697 54.25911 70.53697 58.5509 70.53697 62.03 74.01607 62.03 78.30786ZM54.25911 78.30786" fill="#cccccc"/>
<path transform="matrix(1.00003,0,0,-1.00009,.5065384,142.70542)" stroke-width=".3985" stroke-linecap="butt" stroke-miterlimit="10" stroke-linejoin="miter" fill="none" stroke="#7f807f" d="M62.03 78.30786C62.03 82.59966 58.5509 86.07875 54.25911 86.07875 49.96732 86.07875 46.48822 82.59966 46.48822 78.30786 46.48822 74.01607 49.96732 70.53697 54.25911 70.53697 58.5509 70.53697 62.03 74.01607 62.03 78.30786ZM54.25911 78.30786"/>
<use data-text="B" xlink:href="#font_1_34" transform="matrix(3.2379423,0,0,-3.238136,51.633878,63.34686)"/>
<use data-text="&#x266d;" xlink:href="#font_2_1" transform="matrix(3.2379423,0,0,-3.238136,54.661668,63.34686)"/>
<use data-text="," xlink:href="#font_1_45" transform="matrix(3.2379423,0,0,-3.238136,56.595476,63.34686)"/>
<use data-text="A" xlink:href="#font_1_27" transform="matrix(3.2379423,0,0,-3.238136,52.21174,67.232257)"/>
<use data-text="&#x266f;" xlink:href="#font_2_2" transform="matrix(3.2379423,0,0,-3.238136,55.388387,67.232257)"/>
<path transform="matrix(1.00003,0,0,-1.00009,.5065384,142.70542)" d="M48.46521 86.13866C48.46521 90.43045 44.98611 93.90955 40.69432 93.90955 36.40253 93.90955 32.92343 90.43045 32.92343 86.13866 32.92343 81.84686 36.40253 78.36777 40.69432 78.36777 44.98611 78.36777 48.46521 81.84686 48.46521 86.13866ZM40.69432 86.13866" fill="#cccccc"/>
<path transform="matrix(1.00003,0,0,-1.00009,.5065384,142.70542)" stroke-width=".3985" stroke-linecap="butt" stroke-miterlimit="10" stroke-linejoin="miter" fill="none" stroke="#7f807f" d="M48.46521 86.13866C48.46521 90.43045 44.98611 93.90955 40.69432 93.90955 36.40253 93.90955 32.92343 90.43045 32.92343 86.13866 32.92343 81.84686 36.40253 78.36777 40.69432 78.36777 44.98611 78.36777 48.46521 81.84686 48.46521 86.13866ZM40.69432 86.13866"/>
<use data-text="B" xlink:href="#font_1_34" transform="matrix(3.2379423,0,0,-3.238136,39.687669,57.66435)"/>
<path transform="matrix(1.00003,0,0,-1.00009,.5065384,142.70542)" d="M34.90042 93.96945C34.90042 98.26125 31.42133 101.74034 27.12953 101.74034 22.83774 101.74034 19.35864 98.26125 19.35864 93.96945 19.35864 89.67766 22.83774 86.19856 27.12953 86.19856 31.42133 86.19856 34.90042 89.67766 34.90042 93.96945ZM27.12953 93.96945" fill="#f2f2f2"/>
<path transform="matrix(1.00003,0,0,-1.00009,.5065384,142.70542)" stroke-width=".3985" stroke-linecap="butt" stroke-miterlimit="10" stroke-linejoin="miter" fill="none" stroke="#7f807f" d="M34.90042 93.96945C34.90042 98.26125 31.42133 101.74034 27.12953 101.74034 22.83774 101.74034 19.35864 98.26125 19.35864 93.96945 19.35864 89.67766 22.83774 86.19856 27.12953 86.19856 31.42133 86.19856 34.90042 89.67766 34.90042 93.96945ZM27.12953 93.96945"/>
<use data-text="C" xlink:href="#font_1_42" transform="matrix(3.2379423,0,0,-3.238136,26.085206,49.833646)"/>
<path transform="matrix(1.00003,0,0,-1.00009,.5065384,142.70542)" d="M21.33565 101.80023C21.33565 106.09203 17.85655 109.57112 13.56476 109.57112 9.27296 109.57112 5.79388 106.09203 5.79388 101.80023 5.79388 97.50845 9.27296 94.02936 13.56476 94.02936 17.85655 94.02936 21.33565 97.50845 21.33565 101.80023ZM13.56476 101.80023" fill="#f2f2f2"/>
<path transform="matrix(1.00003,0,0,-1.00009,.5065384,142.70542)" stroke-width=".3985" stroke-linecap="butt" stroke-miterlimit="10" stroke-linejoin="miter" fill="none" stroke="#7f807f" d="M21.33565 101.80023C21.33565 106.09203 17.85655 109.57112 13.56476 109.57112 9.27296 109.57112 5.79388 106.09203 5.79388 101.80023 5.79388 97.50845 9.27296 94.02936 13.56476 94.02936 17.85655 94.02936 21.33565 97.50845 21.33565 101.80023ZM13.56476 101.80023"/>
<use data-text="C" xlink:href="#font_1_42" transform="matrix(3.2379423,0,0,-3.238136,10.901604,40.09477)"/>
<use data-text="&#x266f;" xlink:href="#font_2_2" transform="matrix(3.2379423,0,0,-3.238136,14.003498,40.09477)"/>
<use data-text="," xlink:href="#font_1_45" transform="matrix(3.2379423,0,0,-3.238136,15.937305,40.09477)"/>
<use data-text="D" xlink:href="#font_1_46" transform="matrix(3.2379423,0,0,-3.238136,11.479469,43.980169)"/>
<use data-text="&#x266d;" xlink:href="#font_2_1" transform="matrix(3.2379423,0,0,-3.238136,14.730217,43.980169)"/>
<path transform="matrix(1.00003,0,0,-1.00009,.5065384,142.70542)" d="M75.59477 86.13866C75.59477 90.43045 72.11569 93.90955 67.8239 93.90955 63.5321 93.90955 60.05301 90.43045 60.05301 86.13866 60.05301 81.84686 63.5321 78.36777 67.8239 78.36777 72.11569 78.36777 75.59477 81.84686 75.59477 86.13866ZM67.8239 86.13866" fill="#f2f2f2"/>
<path transform="matrix(1.00003,0,0,-1.00009,.5065384,142.70542)" stroke-width=".3985" stroke-linecap="butt" stroke-miterlimit="10" stroke-linejoin="miter" fill="none" stroke="#7f807f" d="M75.59477 86.13866C75.59477 90.43045 72.11569 93.90955 67.8239 93.90955 63.5321 93.90955 60.05301 90.43045 60.05301 86.13866 60.05301 81.84686 63.5321 78.36777 67.8239 78.36777 72.11569 78.36777 75.59477 81.84686 75.59477 86.13866ZM67.8239 86.13866"/>
<use data-text="C" xlink:href="#font_1_42" transform="matrix(3.2379423,0,0,-3.238136,66.78143,57.66435)"/>
<path transform="matrix(1.00003,0,0,-1.00009,.5065384,142.70542)" d="M62.03 93.96945C62.03 98.26125 58.5509 101.74034 54.25911 101.74034 49.96732 101.74034 46.48822 98.26125 46.48822 93.96945 46.48822 89.67766 49.96732 86.19856 54.25911 86.19856 58.5509 86.19856 62.03 89.67766 62.03 93.96945ZM54.25911 93.96945" fill="#f2f2f2"/>
<path transform="matrix(1.00003,0,0,-1.00009,.5065384,142.70542)" stroke-width=".3985" stroke-linecap="butt" stroke-miterlimit="10" stroke-linejoin="miter" fill="none" stroke="#7f807f" d="M62.03 93.96945C62.03 98.26125 58.5509 101.74034 54.25911 101.74034 49.96732 101.74034 46.48822 98.26125 46.48822 93.96945 46.48822 89.67766 49.96732 86.19856 54.25911 86.19856 58.5509 86.19856 62.03 89.67766 62.03 93.96945ZM54.25911 93.96945"/>
<use data-text="C" xlink:href="#font_1_42" transform="matrix(3.2379423,0,0,-3.238136,51.59683,47.925474)"/>
<use data-text="&#x266f;" xlink:href="#font_2_2" transform="matrix(3.2379423,0,0,-3.238136,54.698724,47.925474)"/>
<use data-text="," xlink:href="#font_1_45" transform="matrix(3.2379423,0,0,-3.238136,56.63253,47.925474)"/>
<use data-text="D" xlink:href="#font_1_46" transform="matrix(3.2379423,0,0,-3.238136,52.174695,51.81087)"/>
<use data-text="&#x266d;" xlink:href="#font_2_1" transform="matrix(3.2379423,0,0,-3.238136,55.42544,51.81087)"/>
<path transform="matrix(1.00003,0,0,-1.00009,.5065384,142.70542)" d="M48.46521 101.80023C48.46521 106.09203 44.98611 109.57112 40.69432 109.57112 36.40253 109.57112 32.92343 106.09203 32.92343 101.80023 32.92343 97.50845 36.40253 94.02936 40.69432 94.02936 44.98611 94.02936 48.46521 97.50845 48.46521 101.80023ZM40.69432 101.80023" fill="#f2f2f2"/>
<path transform="matrix(1.00003,0,0,-1.00009,.5065384,142.70542)" stroke-width=".3985" stroke-linecap="butt" stroke-miterlimit="10" stroke-linejoin="miter" fill="none" stroke="#7f807f" d="M48.46521 101.80023C48.46521 106.09203 44.98611 109.57112 40.69432 109.57112 36.40253 109.57112 32.92343 106.09203 32.92343 101.80023 32.92343 97.50845 36.40253 94.02936 40.69432 94.02936 44.98611 94.02936 48.46521 97.50845 48.46521 101.80023ZM40.69432 101.80023"/>
<use data-text="D" xlink:href="#font_1_46" transform="matrix(3.2379423,0,0,-3.238136,39.575868,42.00194)"/>
<path transform="matrix(1.00003,0,0,-1.00009,.5065384,142.70542)" d="M34.90042 109.63103C34.90042 113.9228 31.42133 117.4019 27.12953 117.4019 22.83774 117.4019 19.35864 113.9228 19.35864 109.63103 19.35864 105.33923 22.83774 101.86014 27.12953 101.86014 31.42133 101.86014 34.90042 105.33923 34.90042 109.63103ZM27.12953 109.63103" fill="#f2f2f2"/>
<path transform="matrix(1.00003,0,0,-1.00009,.5065384,142.70542)" stroke-width=".3985" stroke-linecap="butt" stroke-miterlimit="10" stroke-linejoin="miter" fill="none" stroke="#7f807f" d="M34.90042 109.63103C34.90042 113.9228 31.42133 117.4019 27.12953 117.4019 22.83774 117.4019 19.35864 113.9228 19.35864 109.63103 19.35864 105.33923 22.83774 101.86014 27.12953 101.86014 31.42133 101.86014 34.90042 105.33923 34.90042 109.63103ZM27.12953 109.63103"/>
<use data-text="E" xlink:href="#font_1_49" transform="matrix(3.2379423,0,0,-3.238136,24.559613,32.02104)"/>
<use data-text="&#x266d;" xlink:href="#font_2_1" transform="matrix(3.2379423,0,0,-3.238136,27.473649,32.02104)"/>
<use data-text="," xlink:href="#font_1_45" transform="matrix(3.2379423,0,0,-3.238136,29.407456,32.02104)"/>
<use data-text="D" xlink:href="#font_1_46" transform="matrix(3.2379423,0,0,-3.238136,25.043877,35.90644)"/>
<use data-text="&#x266f;" xlink:href="#font_2_2" transform="matrix(3.2379423,0,0,-3.238136,28.294625,35.90644)"/>
<path transform="matrix(1.00003,0,0,-1.00009,.5065384,142.70542)" d="M21.33565 117.4618C21.33565 121.7536 17.85655 125.2327 13.56476 125.2327 9.27296 125.2327 5.79388 121.7536 5.79388 117.4618 5.79388 113.17001 9.27296 109.69092 13.56476 109.69092 17.85655 109.69092 21.33565 113.17001 21.33565 117.4618ZM13.56476 117.4618" fill="#f2f2f2"/>
<path transform="matrix(1.00003,0,0,-1.00009,.5065384,142.70542)" stroke-width=".3985" stroke-linecap="butt" stroke-miterlimit="10" stroke-linejoin="miter" fill="none" stroke="#7f807f" d="M21.33565 117.4618C21.33565 121.7536 17.85655 125.2327 13.56476 125.2327 9.27296 125.2327 5.79388 121.7536 5.79388 117.4618 5.79388 113.17001 9.27296 109.69092 13.56476 109.69092 17.85655 109.69092 21.33565 113.17001 21.33565 117.4618ZM13.56476 117.4618"/>
<use data-text="E" xlink:href="#font_1_49" transform="matrix(3.2379423,0,0,-3.238136,12.615055,26.332528)"/>
<path transform="matrix(1.00003,0,0,-1.00009,.5065384,142.70542)" d="M75.59477 101.80023C75.59477 106.09203 72.11569 109.57112 67.8239 109.57112 63.5321 109.57112 60.05301 106.09203 60.05301 101.80023 60.05301 97.50845 63.5321 94.02936 67.8239 94.02936 72.11569 94.02936 75.59477 97.50845 75.59477 101.80023ZM67.8239 101.80023" fill="#f2f2f2"/>
<path transform="matrix(1.00003,0,0,-1.00009,.5065384,142.70542)" stroke-width=".3985" stroke-linecap="butt" stroke-miterlimit="10" stroke-linejoin="miter" fill="none" stroke="#7f807f" d="M75.59477 101.80023C75.59477 106.09203 72.11569 109.57112 67.8239 109.57112 63.5321 109.57112 60.05301 106.09203 60.05301 101.80023 60.05301 97.50845 63.5321 94.02936 67.8239 94.02936 72.11569 94.02936 75.59477 97.50845 75.59477 101.80023ZM67.8239 101.80023"/>
<use data-text="E" xlink:href="#font_1_49" transform="matrix(3.2379423,0,0,-3.238136,65.25584,39.852746)"/>
<use data-text="&#x266d;" xlink:href="#font_2_1" transform="matrix(3.2379423,0,0,-3.238136,68.169879,39.852746)"/>
<use data-text="," xlink:href="#font_1_45" transform="matrix(3.2379423,0,0,-3.238136,70.10368,39.852746)"/>
<use data-text="D" xlink:href="#font_1_46" transform="matrix(3.2379423,0,0,-3.238136,65.7401,43.738145)"/>
<use data-text="&#x266f;" xlink:href="#font_2_2" transform="matrix(3.2379423,0,0,-3.238136,68.990848,43.738145)"/>
<path transform="matrix(1.00003,0,0,-1.00009,.5065384,142.70542)" d="M62.03 109.63103C62.03 113.9228 58.5509 117.4019 54.25911 117.4019 49.96732 117.4019 46.48822 113.9228 46.48822 109.63103 46.48822 105.33923 49.96732 101.86014 54.25911 101.86014 58.5509 101.86014 62.03 105.33923 62.03 109.63103ZM54.25911 109.63103" fill="#cccccc"/>
<path transform="matrix(1.00003,0,0,-1.00009,.5065384,142.70542)" stroke-width=".3985" stroke-linecap="butt" stroke-miterlimit="10" stroke-linejoin="miter" fill="none" stroke="#7f807f" d="M62.03 109.63103C62.03 113.9228 58.5509 117.4019 54.25911 117.4019 49.96732 117.4019 46.48822 113.9228 46.48822 109.63103 46.48822 105.33923 49.96732 101.86014 54.25911 101.86014 58.5509 101.86014 62.03 105.33923 62.03 109.63103ZM54.25911 109.63103"/>
<use data-text="E" xlink:href="#font_1_49" transform="matrix(3.2379423,0,0,-3.238136,53.31028,34.16324)"/>
<path transform="matrix(1.00003,0,0,-1.00009,.5065384,142.70542)" d="M48.46521 117.4618C48.46521 121.7536 44.98611 125.2327 40.69432 125.2327 36.40253 125.2327 32.92343 121.7536 32.92343 117.4618 32.92343 113.17001 36.40253 109.69092 40.69432 109.69092 44.98611 109.69092 48.46521 113.17001 48.46521 117.4618ZM40.69432 117.4618" fill="#cccccc"/>
<path transform="matrix(1.00003,0,0,-1.00009,.5065384,142.70542)" stroke-width=".3985" stroke-linecap="butt" stroke-miterlimit="10" stroke-linejoin="miter" fill="none" stroke="#7f807f" d="M48.46521 117.4618C48.46521 121.7536 44.98611 125.2327 40.69432 125.2327 36.40253 125.2327 32.92343 121.7536 32.92343 117.4618 32.92343 113.17001 36.40253 109.69092 40.69432 109.69092 44.98611 109.69092 48.46521 113.17001 48.46521 117.4618ZM40.69432 117.4618"/>
<use data-text="F" xlink:href="#font_1_54" transform="matrix(3.2379423,0,0,-3.238136,39.801424,26.332528)"/>
<path transform="matrix(1.00003,0,0,-1.00009,.5065384,142.70542)" d="M34.90042 125.2926C34.90042 129.5844 31.42133 133.06349 27.12953 133.06349 22.83774 133.06349 19.35864 129.5844 19.35864 125.2926 19.35864 121.00081 22.83774 117.52171 27.12953 117.52171 31.42133 117.52171 34.90042 121.00081 34.90042 125.2926ZM27.12953 125.2926" fill="#f2f2f2"/>
<path transform="matrix(1.00003,0,0,-1.00009,.5065384,142.70542)" stroke-width=".3985" stroke-linecap="butt" stroke-miterlimit="10" stroke-linejoin="miter" fill="none" stroke="#7f807f" d="M34.90042 125.2926C34.90042 129.5844 31.42133 133.06349 27.12953 133.06349 22.83774 133.06349 19.35864 129.5844 19.35864 125.2926 19.35864 121.00081 22.83774 117.52171 27.12953 117.52171 31.42133 117.52171 34.90042 121.00081 34.90042 125.2926ZM27.12953 125.2926"/>
<use data-text="G" xlink:href="#font_1_58" transform="matrix(3.2379423,0,0,-3.238136,24.344452,16.357636)"/>
<use data-text="&#x266d;" xlink:href="#font_2_1" transform="matrix(3.2379423,0,0,-3.238136,27.689457,16.357636)"/>
<use data-text="," xlink:href="#font_1_45" transform="matrix(3.2379423,0,0,-3.238136,29.623265,16.357636)"/>
<use data-text="F" xlink:href="#font_1_54" transform="matrix(3.2379423,0,0,-3.238136,25.268784,20.243035)"/>
<use data-text="&#x266f;" xlink:href="#font_2_2" transform="matrix(3.2379423,0,0,-3.238136,28.069718,20.243035)"/>
<path transform="matrix(1.00003,0,0,-1.00009,.5065384,142.70542)" d="M21.33565 133.1234C21.33565 137.41519 17.85655 140.89429 13.56476 140.89429 9.27296 140.89429 5.79388 137.41519 5.79388 133.1234 5.79388 128.8316 9.27296 125.35251 13.56476 125.35251 17.85655 125.35251 21.33565 128.8316 21.33565 133.1234ZM13.56476 133.1234" fill="#f2f2f2"/>
<path transform="matrix(1.00003,0,0,-1.00009,.5065384,142.70542)" stroke-width=".3985" stroke-linecap="butt" stroke-miterlimit="10" stroke-linejoin="miter" fill="none" stroke="#7f807f" d="M21.33565 133.1234C21.33565 137.41519 17.85655 140.89429 13.56476 140.89429 9.27296 140.89429 5.79388 137.41519 5.79388 133.1234 5.79388 128.8316 9.27296 125.35251 13.56476 125.35251 17.85655 125.35251 21.33565 128.8316 21.33565 133.1234ZM13.56476 133.1234"/>
<use data-text="G" xlink:href="#font_1_58" transform="matrix(3.2379423,0,0,-3.238136,12.399246,10.676125)"/>
<path transform="matrix(1.00003,0,0,-1.00009,.5065384,142.70542)" stroke-width=".59776" stroke-linecap="butt" stroke-miterlimit="10" stroke-linejoin="miter" fill="none" stroke="#999999" d="M42.69133 38.00204C39.38412 32.2738 44.9187 22.88702 55.05334 17.0358 65.18799 11.18457 76.08447 11.0849 79.39168 16.81314 82.69888 22.54138 77.16429 31.92816 67.02965 37.77939 56.895 43.63062 45.99854 43.73029 42.69133 38.00204ZM61.0415 27.4076"/>
<path transform="matrix(1.00003,0,0,-1.00009,.5065384,142.70542)" stroke-width=".59776" stroke-linecap="butt" stroke-miterlimit="10" stroke-linejoin="miter" fill="none" stroke="#999999" d="M1.99698 77.156C-1.31021 71.42776 4.22437 62.04099 14.35901 56.18976 24.49365 50.33853 35.39012 50.23885 38.69733 55.96709 42.00453 61.69534 36.46996 71.08212 26.33531 76.93335 16.20067 82.78458 5.30418 82.88425 1.99698 77.156ZM20.34715 66.56155"/>
<path transform="matrix(1.00003,0,0,-1.00009,.5065384,142.70542)" stroke-width=".59776" stroke-linecap="butt" stroke-miterlimit="10" stroke-linejoin="miter" fill="none" stroke="#999999" d="M29.12654 92.81757C25.81934 87.08932 31.35393 77.70255 41.48856 71.85132 51.6232 66.00009 62.51968 65.90042 65.82689 71.62866 69.1341 77.3569 63.5995 86.74368 53.46486 92.59491 43.33022 98.44614 32.43375 98.5458 29.12654 92.81757ZM47.47672 82.22311"/>
<path transform="matrix(1.00003,0,0,-1.00009,.5065384,142.70542)" stroke-width=".59776" stroke-linecap="butt" stroke-miterlimit="10" stroke-linejoin="miter" fill="none" stroke="#999999" d="M29.12654 124.14073C25.81934 118.41249 31.35393 109.02571 41.48856 103.17448 51.6232 97.32326 62.51968 97.22357 65.82689 102.95181 69.1341 108.68005 63.5995 118.06685 53.46486 123.91806 43.33022 129.76929 32.43375 129.86898 29.12654 124.14073ZM47.47672 113.54628"/>
</svg>
