<svg xmlns="http://www.w3.org/2000/svg" xmlns:xlink="http://www.w3.org/1999/xlink" xmlns:inkscape="http://www.inkscape.org/namespaces/inkscape" version="1.1" width="225" height="428" viewBox="0 0 225 428">
<defs>
<clipPath id="clip_1">
<path transform="matrix(1.00005,0,0,-1.00005,1.9961472,426.91554)" d="M0 0V425.20213H220.96808V0ZM220.96808 425.20213"/>
</clipPath>
<path id="font_2_42" d="M.6649933 .23271179C.6649933 .24272156 .6649933 .24972534 .6519928 .24972534 .6409912 .24972534 .6409912 .24372864 .6399994 .23371887 .6319885 .09059143 .5249939 .008529663 .41600038 .008529663 .35499574 .008529663 .15899658 .042556764 .15899658 .34080506 .15899658 .64004519 .35398866 .67407229 .4149933 .67407229 .5239868 .67407229 .61299136 .58299258 .6329956 .4368744 .6349945 .42286683 .6349945 .41986085 .6489868 .41986085 .6649933 .41986085 .6649933 .42286683 .6649933 .44387818V.68107607C.6649933 .69807437 .6649933 .7050781 .6539917 .7050781 .6499939 .7050781 .6459961 .7050781 .6380005 .69306948L.58799746 .61901858C.5509949 .6550598 .5 .7050781 .4039917 .7050781 .21699524 .7050781 .055999757 .5459595 .055999757 .34179688 .055999757 .1346283 .21798706-.022460938 .4039917-.022460938 .5669861-.022460938 .6649933 .116622928 .6649933 .23271179Z"/>
<path id="font_2_79" d="M.776001 .15284729C.776001 .17285156 .7569885 .17285156 .74198916 .17285156H.5309906L.57099917 .32714845H.74198916C.7569885 .32714845 .776001 .32714845 .776001 .34713746 .776001 .36714173 .7569885 .36714173 .7429962 .36714173H.58299258L.6609955 .65631106C.6619873 .65830996 .6649933 .6703186 .6649933 .6743164 .6649933 .685318 .6559906 .69433596 .644989 .69433596 .6289978 .69433596 .6259918 .6813202 .6230011 .6703186L.5419922 .36714173H.35398866L.43199159 .65631106C.43299867 .65830996 .43598939 .6703186 .43598939 .6743164 .43598939 .685318 .4269867 .69433596 .41600038 .69433596 .3999939 .69433596 .39698792 .6813202 .3939972 .6703186L.31298829 .36714173H.08898926C.07499695 .36714173 .055999757 .36714173 .055999757 .34713746 .055999757 .32714845 .07499695 .32714845 .08999634 .32714845H.30099488L.26098634 .17285156H.08999634C.07499695 .17285156 .055999757 .17285156 .055999757 .15284729 .055999757 .13284302 .07499695 .13284302 .08898926 .13284302H.24899292L.17098999-.1563263C.16999817-.1583252 .16699219-.17033386 .16699219-.17433167 .16699219-.18533325 .17599488-.19433594 .18699646-.19433594 .20298767-.19433594 .20599365-.18133545 .20899964-.17033386L.2899933 .13284302H.47799684L.3999939-.1563263C.39898683-.1583252 .3959961-.17033386 .3959961-.17433167 .3959961-.18533325 .40499879-.19433594 .41600038-.19433594 .43199159-.19433594 .43499757-.18133545 .43798829-.17033386L.5189972 .13284302H.7429962C.7569885 .13284302 .776001 .13284302 .776001 .15284729M.5299988 .32714845 .48999024 .17285156H.3019867L.34199525 .32714845H.5299988Z"/>
<path id="font_2_45" d="M.20298767 .0009918213C.20298767 .06498718 .1789856 .10598755 .13899231 .10598755 .10398865 .10598755 .085998538 .07899475 .085998538 .052993776 .085998538 .026992798 .102996829 0 .13899231 0 .1539917 0 .16799927 .005996704 .1789856 .015991211 .18099976-.06312561 .15299988-.12423706 .10899353-.17132569 .102996829-.17733765 .101989749-.17834473 .101989749-.18234253 .101989749-.18936157 .10699463-.19335938 .11199951-.19335938 .12399292-.19335938 .20298767-.114227298 .20298767 .0009918213Z"/>
<path id="font_2_46" d="M.70700076 .33580018C.70700076 .52568057 .57199099 .6826172 .40098573 .6826172H.034988405V.6516113H.05899048C.13598633 .6516113 .13798523 .64060977 .13798523 .6046295V.07795715C.13798523 .041992189 .13598633 .0309906 .05899048 .0309906H.034988405V0H.40098573C.56900027 0 .70700076 .1479187 .70700076 .33580018M.6069946 .33580018C.6069946 .22486878 .58799746 .16490174 .5519867 .11593628 .5319977 .08895874 .47499085 .0309906 .37399293 .0309906H.272995C.22599793 .0309906 .22399903 .037994386 .22399903 .07096863V.6116333C.22399903 .64460757 .22599793 .6516113 .272995 .6516113H.37298585C.43499757 .6516113 .5039978 .6296234 .5549927 .55867007 .59799197 .49969483 .6069946 .41375733 .6069946 .33580018Z"/>
<path id="font_3_1" d="M.07998657 .7220001C.07998657 .7409973 .07998657 .75 .067993167 .75 .054992677 .75 .054992677 .74198916 .054992677 .7220001V.0055389406C.054992677-.014465332 .054992677-.022460938 .067993167-.022460938 .07798767-.022460938 .18199158 .049560548 .23699951 .10862732 .2919922 .16769409 .33299256 .23776245 .33299256 .32084657 .33299256 .39492799 .27799989 .45996095 .19599915 .45996095 .13999939 .45996095 .099990848 .43695069 .07998657 .41793824V.7220001M.07998657 .342865C.07998657 .3658905 .07998657 .3869171 .11299133 .40592958 .14399719 .4239502 .18699646 .4239502 .18798828 .4239502 .23399353 .4239502 .2519989 .3698883 .2519989 .32084657 .2519989 .16268921 .10398865 .03555298 .07998657 .015533447V.342865Z"/>
<path id="font_2_49" d="M.6519928 .2579193H.6269989C.60198977 .10397339 .57899478 .0309906 .40699769 .0309906H.27398683C.22698975 .0309906 .22499085 .037994386 .22499085 .07098389V.33789063H.31498719C.4119873 .33789063 .4229889 .30589295 .4229889 .220932H.44799806V.48606874H.4229889C.4229889 .39994813 .4119873 .36888124 .31498719 .36888124H.22499085V.6087799C.22499085 .6416931 .22698975 .64868167 .27398683 .64868167H.40299989C.55599978 .64868167 .58299258 .59381106 .598999 .45507813H.6239929L.59599307 .6796875H.032989503V.64868167H.056991579C.13398743 .64868167 .13598633 .6377106 .13598633 .6017914V.07797241C.13598633 .041992189 .13398743 .0309906 .056991579 .0309906H.032989503V0H.6100006L.6519928 .2579193Z"/>
<path id="font_2_54" d="M.6100006 .45477296 .58200076 .6796875H.032989503V.64868167H.056991579C.13398743 .64868167 .13598633 .63768008 .13598633 .6016998V.07797241C.13598633 .041992189 .13398743 .0309906 .056991579 .0309906H.032989503V0C.067993167 .0029907227 .1459961 .0029907227 .18499756 .0029907227 .22599793 .0029907227 .31698609 .0029907227 .35299684 0V.0309906H.31999208C.22499085 .031188965 .22499085 .044189454 .22499085 .079193118V.3251953H.31098939C.40699769 .3251953 .4169922 .29318238 .4169922 .20819092H.44198609V.4731903H.4169922C.4169922 .38919068 .40699769 .3561859 .31098939 .3561859H.22499085V.6091919C.22499085 .64167788 .22698975 .64868167 .27398683 .64868167H.3939972C.5439911 .64868167 .56900027 .5926819 .58499148 .4546814L.6100006 .45477296Z"/>
<path id="font_2_58" d="M.7350006 .24145508V.27246095L.61299136 .26945497C.57299807 .26945497 .48799134 .26945497 .45199586 .27246095V.24145508H.48399354C.57398989 .24145508 .57699587 .23045349 .57699587 .19346619V.12948609C.57699587 .017532349 .44999696 .008529663 .42199708 .008529663 .35699464 .008529663 .15899658 .043518068 .15899658 .34155274 .15899658 .6410217 .35598756 .67407229 .41600038 .67407229 .522995 .67407229 .6139984 .5839386 .6339874 .43670655 .6359863 .42268373 .6359863 .41967774 .6499939 .41967774 .66600039 .41967774 .66600039 .42268373 .66600039 .44371034V.68107607C.66600039 .69807437 .66600039 .7050781 .6549988 .7050781 .651001 .7050781 .6469879 .7050781 .6389923 .69306948L.58898928 .61898806C.5569916 .6510315 .5029907 .7050781 .4039917 .7050781 .21798706 .7050781 .055999757 .546875 .055999757 .34155274 .055999757 .13648987 .21598816-.022460938 .4059906-.022460938 .47898866-.022460938 .5589905 .0035247803 .59298709 .06251526 .60598757 .040527345 .6459961 .0005340576 .6569977 .0005340576 .66600039 .0005340576 .66600039 .008529663 .66600039 .023529053V.19746399C.66600039 .2364502 .66999819 .24145508 .7350006 .24145508Z"/>
<path id="font_2_27" d="M.71699526 0V.0309906H.69898989C.6389923 .0309906 .625 .037979127 .6139984 .07095337L.397995 .6958008C.3929901 .7088165 .3909912 .7158203 .375 .7158203 .35899354 .7158203 .35598756 .70980837 .35099793 .6958008L.14399719 .09791565C.12599182 .04698181 .085998538 .03199768 .03199768 .0309906V0L.13398743 .0029907227 .24899292 0V.0309906C.19898987 .0309906 .17399597 .05596924 .17399597 .0819397 .17399597 .08493042 .1749878 .09492493 .17599488 .09692383L.22200012 .2277832H.46899415L.5219879 .07495117C.522995 .07095337 .5249939 .064956668 .5249939 .060958864 .5249939 .0309906 .46899415 .0309906 .44198609 .0309906V0C.47799684 .0029907227 .5479889 .0029907227 .58599856 .0029907227L.71699526 0M.45799256 .25878907H.23298645L.34498597 .58380129 .45799256 .25878907Z"/>
<path id="font_2_34" d="M.651001 .18289185C.651001 .26983644 .56900027 .34480287 .45799256 .35679627 .5549927 .3757782 .6239929 .43974305 .6239929 .51368716 .6239929 .6006317 .5319977 .6826172 .4019928 .6826172H.035995485V.6516113H.05999756C.13699341 .6516113 .13899231 .64060977 .13899231 .6046295V.07795715C.13899231 .041992189 .13699341 .0309906 .05999756 .0309906H.035995485V0H.42799378C.5609894-.0002593994 .651001 .08874512 .651001 .18273926V.18289185M.5269928 .5136719C.5269928 .44970704 .47799684 .36573792 .36698915 .36573792H.22200012V.6116333C.22200012 .64460757 .22399903 .6516113 .2709961 .6516113H.394989C.49198915 .65174868 .5269928 .56674197 .5269928 .51374819V.5136719M.5509949 .18386841C.5509949 .1129303 .49899293 .0309906 .3959961 .0309906H.2709961C.22399903 .0309906 .22200012 .037994386 .22200012 .07095337V.34375H.4099884C.5089874 .34399415 .5509949 .25099183 .5509949 .18399048V.18386841Z"/>
</defs>
<g clip-path="url(#clip_1)">
<path transform="matrix(1.00005,0,0,-1.00005,1.9961472,426.91554)" stroke-width=".19925" stroke-linecap="butt" stroke-miterlimit="10" stroke-linejoin="miter" fill="none" stroke="#bfbfbf" d="M36.828 0V425.20213"/>
<path transform="matrix(1.00005,0,0,-1.00005,1.9961472,426.91554)" stroke-width=".19925" stroke-linecap="butt" stroke-miterlimit="10" stroke-linejoin="miter" fill="none" stroke="#bfbfbf" d="M73.656 0V425.20213"/>
<path transform="matrix(1.00005,0,0,-1.00005,1.9961472,426.91554)" stroke-width=".19925" stroke-linecap="butt" stroke-miterlimit="10" stroke-linejoin="miter" fill="none" stroke="#bfbfbf" d="M110.48404 0V425.20213"/>
<path transform="matrix(1.00005,0,0,-1.00005,1.9961472,426.91554)" stroke-width=".19925" stroke-linecap="butt" stroke-miterlimit="10" stroke-linejoin="miter" fill="none" stroke="#bfbfbf" d="M147.31204 0V425.20213"/>
<path transform="matrix(1.00005,0,0,-1.00005,1.9961472,426.91554)" stroke-width=".19925" stroke-linecap="butt" stroke-miterlimit="10" stroke-linejoin="miter" fill="none" stroke="#bfbfbf" d="M184.14005 0V425.20213"/>
<path transform="matrix(1.00005,0,0,-1.00005,1.9961472,426.91554)" stroke-width=".19925" stroke-linecap="butt" stroke-miterlimit="10" stroke-linejoin="miter" fill="none" stroke="#bfbfbf" d="M0 0 736.47378 425.20213"/>
<path transform="matrix(1.00005,0,0,-1.00005,1.9961472,426.91554)" stroke-width=".19925" stroke-linecap="butt" stroke-miterlimit="10" stroke-linejoin="miter" fill="none" stroke="#bfbfbf" d="M0 425.20213 736.47378 0"/>
<path transform="matrix(1.00005,0,0,-1.00005,1.9961472,426.91554)" stroke-width=".19925" stroke-linecap="butt" stroke-miterlimit="10" stroke-linejoin="miter" fill="none" stroke="#bfbfbf" d="M73.656 0 810.12979 425.20213"/>
<path transform="matrix(1.00005,0,0,-1.00005,1.9961472,426.91554)" stroke-width=".19925" stroke-linecap="butt" stroke-miterlimit="10" stroke-linejoin="miter" fill="none" stroke="#bfbfbf" d="M73.656 425.20213 810.12979 0"/>
<path transform="matrix(1.00005,0,0,-1.00005,1.9961472,426.91554)" stroke-width=".19925" stroke-linecap="butt" stroke-miterlimit="10" stroke-linejoin="miter" fill="none" stroke="#bfbfbf" d="M147.31204 0 883.7858 425.20213"/>
<path transform="matrix(1.00005,0,0,-1.00005,1.9961472,426.91554)" stroke-width=".19925" stroke-linecap="butt" stroke-miterlimit="10" stroke-linejoin="miter" fill="none" stroke="#bfbfbf" d="M147.31204 425.20213 883.7858 0"/>
<path transform="matrix(1.00005,0,0,-1.00005,1.9961472,426.91554)" stroke-width=".19925" stroke-linecap="butt" stroke-miterlimit="10" stroke-linejoin="miter" fill="none" stroke="#bfbfbf" d="M220.96808 0 957.44186 425.20213"/>
<path transform="matrix(1.00005,0,0,-1.00005,1.9961472,426.91554)" stroke-width=".19925" stroke-linecap="butt" stroke-miterlimit="10" stroke-linejoin="miter" fill="none" stroke="#bfbfbf" d="M220.96808 425.20213 957.44186 0"/>
<path transform="matrix(1.00005,0,0,-1.00005,1.9961472,426.91554)" stroke-width=".19925" stroke-linecap="butt" stroke-miterlimit="10" stroke-linejoin="miter" fill="none" stroke="#bfbfbf" d="M0 42.5202 220.94213 170.08084"/>
<path transform="matrix(1.00005,0,0,-1.00005,1.9961472,426.91554)" stroke-width=".19925" stroke-linecap="butt" stroke-miterlimit="10" stroke-linejoin="miter" fill="none" stroke="#bfbfbf" d="M0 42.5202 220.94213-85.04042"/>
<path transform="matrix(1.00005,0,0,-1.00005,1.9961472,426.91554)" stroke-width=".19925" stroke-linecap="butt" stroke-miterlimit="10" stroke-linejoin="miter" fill="none" stroke="#bfbfbf" d="M0 85.04042 220.94213 212.60106"/>
<path transform="matrix(1.00005,0,0,-1.00005,1.9961472,426.91554)" stroke-width=".19925" stroke-linecap="butt" stroke-miterlimit="10" stroke-linejoin="miter" fill="none" stroke="#bfbfbf" d="M0 85.04042 220.94213-42.5202"/>
<path transform="matrix(1.00005,0,0,-1.00005,1.9961472,426.91554)" stroke-width=".19925" stroke-linecap="butt" stroke-miterlimit="10" stroke-linejoin="miter" fill="none" stroke="#bfbfbf" d="M0 127.56062 220.94213 255.12126"/>
<path transform="matrix(1.00005,0,0,-1.00005,1.9961472,426.91554)" stroke-width=".19925" stroke-linecap="butt" stroke-miterlimit="10" stroke-linejoin="miter" fill="none" stroke="#bfbfbf" d="M0 127.56062 220.94213 0"/>
<path transform="matrix(1.00005,0,0,-1.00005,1.9961472,426.91554)" stroke-width=".19925" stroke-linecap="butt" stroke-miterlimit="10" stroke-linejoin="miter" fill="none" stroke="#bfbfbf" d="M0 170.08086 220.94213 297.6415"/>
<path transform="matrix(1.00005,0,0,-1.00005,1.9961472,426.91554)" stroke-width=".19925" stroke-linecap="butt" stroke-miterlimit="10" stroke-linejoin="miter" fill="none" stroke="#bfbfbf" d="M0 170.08086 220.94213 42.52022"/>
<path transform="matrix(1.00005,0,0,-1.00005,1.9961472,426.91554)" stroke-width=".19925" stroke-linecap="butt" stroke-miterlimit="10" stroke-linejoin="miter" fill="none" stroke="#bfbfbf" d="M0 212.60106 220.94213 340.1617"/>
<path transform="matrix(1.00005,0,0,-1.00005,1.9961472,426.91554)" stroke-width=".19925" stroke-linecap="butt" stroke-miterlimit="10" stroke-linejoin="miter" fill="none" stroke="#bfbfbf" d="M0 212.60106 220.94213 85.04042"/>
<path transform="matrix(1.00005,0,0,-1.00005,1.9961472,426.91554)" stroke-width=".19925" stroke-linecap="butt" stroke-miterlimit="10" stroke-linejoin="miter" fill="none" stroke="#bfbfbf" d="M0 255.12128 220.94213 382.68193"/>
<path transform="matrix(1.00005,0,0,-1.00005,1.9961472,426.91554)" stroke-width=".19925" stroke-linecap="butt" stroke-miterlimit="10" stroke-linejoin="miter" fill="none" stroke="#bfbfbf" d="M0 255.12128 220.94213 127.56064"/>
<path transform="matrix(1.00005,0,0,-1.00005,1.9961472,426.91554)" stroke-width=".19925" stroke-linecap="butt" stroke-miterlimit="10" stroke-linejoin="miter" fill="none" stroke="#bfbfbf" d="M0 297.6415 220.94213 425.20213"/>
<path transform="matrix(1.00005,0,0,-1.00005,1.9961472,426.91554)" stroke-width=".19925" stroke-linecap="butt" stroke-miterlimit="10" stroke-linejoin="miter" fill="none" stroke="#bfbfbf" d="M0 297.6415 220.94213 170.08086"/>
<path transform="matrix(1.00005,0,0,-1.00005,1.9961472,426.91554)" stroke-width=".19925" stroke-linecap="butt" stroke-miterlimit="10" stroke-linejoin="miter" fill="none" stroke="#bfbfbf" d="M0 340.1617 220.94213 467.72236"/>
<path transform="matrix(1.00005,0,0,-1.00005,1.9961472,426.91554)" stroke-width=".19925" stroke-linecap="butt" stroke-miterlimit="10" stroke-linejoin="miter" fill="none" stroke="#bfbfbf" d="M0 340.1617 220.94213 212.60108"/>
<path transform="matrix(1.00005,0,0,-1.00005,1.9961472,426.91554)" stroke-width=".19925" stroke-linecap="butt" stroke-miterlimit="10" stroke-linejoin="miter" fill="none" stroke="#bfbfbf" d="M0 382.68193 220.94213 510.24256"/>
<path transform="matrix(1.00005,0,0,-1.00005,1.9961472,426.91554)" stroke-width=".19925" stroke-linecap="butt" stroke-miterlimit="10" stroke-linejoin="miter" fill="none" stroke="#bfbfbf" d="M0 382.68193 220.94213 255.12128"/>
</g>
<path transform="matrix(1.00005,0,0,-1.00005,1.9961472,426.91554)" stroke-width=".19925" stroke-linecap="butt" stroke-miterlimit="10" stroke-linejoin="miter" fill="none" stroke="#bfbfbf" d="M0 0V425.20213H220.96808V0ZM220.96808 425.20213"/>
<path transform="matrix(1.00005,0,0,-1.00005,1.9961472,426.91554)" d="M204.06558 63.7803C204.06558 74.78502 195.14476 83.70584 184.14005 83.70584 173.13535 83.70584 164.21451 74.78502 164.21451 63.7803 164.21451 52.77559 173.13535 43.85477 184.14005 43.85477 195.14476 43.85477 204.06558 52.77559 204.06558 63.7803ZM184.14005 63.7803" fill="#ffe6e6"/>
<path transform="matrix(1.00005,0,0,-1.00005,1.9961472,426.91554)" stroke-width=".3985" stroke-linecap="butt" stroke-miterlimit="10" stroke-linejoin="miter" fill="none" stroke="#ff0000" d="M204.06558 63.7803C204.06558 74.78502 195.14476 83.70584 184.14005 83.70584 173.13535 83.70584 164.21451 74.78502 164.21451 63.7803 164.21451 52.77559 173.13535 43.85477 184.14005 43.85477 195.14476 43.85477 204.06558 52.77559 204.06558 63.7803ZM184.14005 63.7803"/>
<use data-text="C" xlink:href="#font_2_42" transform="matrix(9.963098,0,0,-9.963098,182.54816,366.53453)"/>
<path transform="matrix(1.00005,0,0,-1.00005,1.9961472,426.91554)" d="M167.23758 85.04042C167.23758 96.04514 158.31676 104.96596 147.31204 104.96596 136.30733 104.96596 127.3865 96.04514 127.3865 85.04042 127.3865 74.0357 136.30733 65.11488 147.31204 65.11488 158.31676 65.11488 167.23758 74.0357 167.23758 85.04042ZM147.31204 85.04042" fill="#e6ffe6"/>
<path transform="matrix(1.00005,0,0,-1.00005,1.9961472,426.91554)" stroke-width=".3985" stroke-linecap="butt" stroke-miterlimit="10" stroke-linejoin="miter" fill="none" stroke="#00ff00" d="M167.23758 85.04042C167.23758 96.04514 158.31676 104.96596 147.31204 104.96596 136.30733 104.96596 127.3865 96.04514 127.3865 85.04042 127.3865 74.0357 136.30733 65.11488 147.31204 65.11488 158.31676 65.11488 167.23758 74.0357 167.23758 85.04042ZM147.31204 85.04042"/>
<use data-text="C" xlink:href="#font_2_42" transform="matrix(9.963098,0,0,-9.963098,132.78168,344.6404)"/>
<use data-text="#" xlink:href="#font_2_79" transform="matrix(9.963098,0,0,-9.963098,139.97504,344.6404)"/>
<use data-text="," xlink:href="#font_2_45" transform="matrix(9.963098,0,0,-9.963098,148.2743,344.6404)"/>
<use data-text="D" xlink:href="#font_2_46" transform="matrix(9.963098,0,0,-9.963098,154.36176,344.6404)"/>
<use data-text="&#x266d;" xlink:href="#font_3_1" transform="matrix(9.963098,0,0,-9.963098,161.97415,344.6404)"/>
<path transform="matrix(1.00005,0,0,-1.00005,1.9961472,426.91554)" d="M130.40958 106.30052C130.40958 117.30524 121.48874 126.22606 110.48404 126.22606 99.47932 126.22606 90.5585 117.30524 90.5585 106.30052 90.5585 95.2958 99.47932 86.37498 110.48404 86.37498 121.48874 86.37498 130.40958 95.2958 130.40958 106.30052ZM110.48404 106.30052" fill="#e6ffe6"/>
<path transform="matrix(1.00005,0,0,-1.00005,1.9961472,426.91554)" stroke-width=".3985" stroke-linecap="butt" stroke-miterlimit="10" stroke-linejoin="miter" fill="none" stroke="#00ff00" d="M130.40958 106.30052C130.40958 117.30524 121.48874 126.22606 110.48404 126.22606 99.47932 126.22606 90.5585 117.30524 90.5585 106.30052 90.5585 95.2958 99.47932 86.37498 110.48404 86.37498 121.48874 86.37498 130.40958 95.2958 130.40958 106.30052ZM110.48404 106.30052"/>
<use data-text="D" xlink:href="#font_2_46" transform="matrix(9.963098,0,0,-9.963098,108.679477,324.0124)"/>
<path transform="matrix(1.00005,0,0,-1.00005,1.9961472,426.91554)" d="M93.58154 127.56062C93.58154 138.56534 84.66072 147.48616 73.656 147.48616 62.65129 147.48616 53.73047 138.56534 53.73047 127.56062 53.73047 116.55592 62.65129 107.63509 73.656 107.63509 84.66072 107.63509 93.58154 116.55592 93.58154 127.56062ZM73.656 127.56062" fill="#e6ffe6"/>
<path transform="matrix(1.00005,0,0,-1.00005,1.9961472,426.91554)" stroke-width=".3985" stroke-linecap="butt" stroke-miterlimit="10" stroke-linejoin="miter" fill="none" stroke="#00ff00" d="M93.58154 127.56062C93.58154 138.56534 84.66072 147.48616 73.656 147.48616 62.65129 147.48616 53.73047 138.56534 53.73047 127.56062 53.73047 116.55592 62.65129 107.63509 73.656 107.63509 84.66072 107.63509 93.58154 116.55592 93.58154 127.56062ZM73.656 127.56062"/>
<use data-text="E" xlink:href="#font_2_49" transform="matrix(9.963098,0,0,-9.963098,59.32701,302.1183)"/>
<use data-text="&#x266d;" xlink:href="#font_3_1" transform="matrix(9.963098,0,0,-9.963098,66.11236,302.1183)"/>
<use data-text="," xlink:href="#font_2_45" transform="matrix(9.963098,0,0,-9.963098,69.98655,302.1183)"/>
<use data-text="D" xlink:href="#font_2_46" transform="matrix(9.963098,0,0,-9.963098,76.074,302.1183)"/>
<use data-text="#" xlink:href="#font_2_79" transform="matrix(9.963098,0,0,-9.963098,83.68581,302.1183)"/>
<path transform="matrix(1.00005,0,0,-1.00005,1.9961472,426.91554)" d="M56.75354 148.82074C56.75354 159.82544 47.83272 168.74628 36.828 168.74628 25.82329 168.74628 16.90247 159.82544 16.90247 148.82074 16.90247 137.81603 25.82329 128.8952 36.828 128.8952 47.83272 128.8952 56.75354 137.81603 56.75354 148.82074ZM36.828 148.82074" fill="#ffe6e6"/>
<path transform="matrix(1.00005,0,0,-1.00005,1.9961472,426.91554)" stroke-width=".3985" stroke-linecap="butt" stroke-miterlimit="10" stroke-linejoin="miter" fill="none" stroke="#ff0000" d="M56.75354 148.82074C56.75354 159.82544 47.83272 168.74628 36.828 168.74628 25.82329 168.74628 16.90247 159.82544 16.90247 148.82074 16.90247 137.81603 25.82329 128.8952 36.828 128.8952 47.83272 128.8952 56.75354 137.81603 56.75354 148.82074ZM36.828 148.82074"/>
<use data-text="E" xlink:href="#font_2_49" transform="matrix(9.963098,0,0,-9.963098,35.43382,281.47529)"/>
<path transform="matrix(1.00005,0,0,-1.00005,1.9961472,426.91554)" d="M204.06558 106.30052C204.06558 117.30524 195.14476 126.22606 184.14005 126.22606 173.13535 126.22606 164.21451 117.30524 164.21451 106.30052 164.21451 95.2958 173.13535 86.37498 184.14005 86.37498 195.14476 86.37498 204.06558 95.2958 204.06558 106.30052ZM184.14005 106.30052" fill="#e6ffe6"/>
<path transform="matrix(1.00005,0,0,-1.00005,1.9961472,426.91554)" stroke-width=".3985" stroke-linecap="butt" stroke-miterlimit="10" stroke-linejoin="miter" fill="none" stroke="#00ff00" d="M204.06558 106.30052C204.06558 117.30524 195.14476 126.22606 184.14005 126.22606 173.13535 126.22606 164.21451 117.30524 164.21451 106.30052 164.21451 95.2958 173.13535 86.37498 184.14005 86.37498 195.14476 86.37498 204.06558 95.2958 204.06558 106.30052ZM184.14005 106.30052"/>
<use data-text="E" xlink:href="#font_2_49" transform="matrix(9.963098,0,0,-9.963098,171.47461,323.37937)"/>
<use data-text="&#x266d;" xlink:href="#font_3_1" transform="matrix(9.963098,0,0,-9.963098,178.25997,323.37937)"/>
<use data-text="," xlink:href="#font_2_45" transform="matrix(9.963098,0,0,-9.963098,182.13416,323.37937)"/>
<use data-text="D" xlink:href="#font_2_46" transform="matrix(9.963098,0,0,-9.963098,184.9039,323.37937)"/>
<use data-text="#" xlink:href="#font_2_79" transform="matrix(9.963098,0,0,-9.963098,192.5157,323.37937)"/>
<path transform="matrix(1.00005,0,0,-1.00005,1.9961472,426.91554)" d="M167.23758 127.56062C167.23758 138.56534 158.31676 147.48616 147.31204 147.48616 136.30733 147.48616 127.3865 138.56534 127.3865 127.56062 127.3865 116.55592 136.30733 107.63509 147.31204 107.63509 158.31676 107.63509 167.23758 116.55592 167.23758 127.56062ZM147.31204 127.56062" fill="#ffe6e6"/>
<path transform="matrix(1.00005,0,0,-1.00005,1.9961472,426.91554)" stroke-width=".3985" stroke-linecap="butt" stroke-miterlimit="10" stroke-linejoin="miter" fill="none" stroke="#ff0000" d="M167.23758 127.56062C167.23758 138.56534 158.31676 147.48616 147.31204 147.48616 136.30733 147.48616 127.3865 138.56534 127.3865 127.56062 127.3865 116.55592 136.30733 107.63509 147.31204 107.63509 158.31676 107.63509 167.23758 116.55592 167.23758 127.56062ZM147.31204 127.56062"/>
<use data-text="E" xlink:href="#font_2_49" transform="matrix(9.963098,0,0,-9.963098,145.92334,302.73634)"/>
<path transform="matrix(1.00005,0,0,-1.00005,1.9961472,426.91554)" d="M130.40958 148.82074C130.40958 159.82544 121.48874 168.74628 110.48404 168.74628 99.47932 168.74628 90.5585 159.82544 90.5585 148.82074 90.5585 137.81603 99.47932 128.8952 110.48404 128.8952 121.48874 128.8952 130.40958 137.81603 130.40958 148.82074ZM110.48404 148.82074" fill="#e6ffe6"/>
<path transform="matrix(1.00005,0,0,-1.00005,1.9961472,426.91554)" stroke-width=".3985" stroke-linecap="butt" stroke-miterlimit="10" stroke-linejoin="miter" fill="none" stroke="#00ff00" d="M130.40958 148.82074C130.40958 159.82544 121.48874 168.74628 110.48404 168.74628 99.47932 168.74628 90.5585 159.82544 90.5585 148.82074 90.5585 137.81603 99.47932 128.8952 110.48404 128.8952 121.48874 128.8952 130.40958 137.81603 130.40958 148.82074ZM110.48404 148.82074"/>
<use data-text="F" xlink:href="#font_2_54" transform="matrix(9.963098,0,0,-9.963098,109.232509,281.47529)"/>
<path transform="matrix(1.00005,0,0,-1.00005,1.9961472,426.91554)" d="M93.58154 170.08086C93.58154 181.08556 84.66072 190.0064 73.656 190.0064 62.65129 190.0064 53.73047 181.08556 53.73047 170.08086 53.73047 159.07614 62.65129 150.15532 73.656 150.15532 84.66072 150.15532 93.58154 159.07614 93.58154 170.08086ZM73.656 170.08086" fill="#e6ffe6"/>
<path transform="matrix(1.00005,0,0,-1.00005,1.9961472,426.91554)" stroke-width=".3985" stroke-linecap="butt" stroke-miterlimit="10" stroke-linejoin="miter" fill="none" stroke="#00ff00" d="M93.58154 170.08086C93.58154 181.08556 84.66072 190.0064 73.656 190.0064 62.65129 190.0064 53.73047 181.08556 53.73047 170.08086 53.73047 159.07614 62.65129 150.15532 73.656 150.15532 84.66072 150.15532 93.58154 159.07614 93.58154 170.08086ZM73.656 170.08086"/>
<use data-text="G" xlink:href="#font_2_58" transform="matrix(9.963098,0,0,-9.963098,59.36101,259.59617)"/>
<use data-text="&#x266d;" xlink:href="#font_3_1" transform="matrix(9.963098,0,0,-9.963098,67.1824,259.59617)"/>
<use data-text="," xlink:href="#font_2_45" transform="matrix(9.963098,0,0,-9.963098,71.056598,259.59617)"/>
<use data-text="F" xlink:href="#font_2_54" transform="matrix(9.963098,0,0,-9.963098,77.14404,259.59617)"/>
<use data-text="#" xlink:href="#font_2_79" transform="matrix(9.963098,0,0,-9.963098,83.64995,259.59617)"/>
<path transform="matrix(1.00005,0,0,-1.00005,1.9961472,426.91554)" d="M56.75354 191.34096C56.75354 202.34568 47.83272 211.2665 36.828 211.2665 25.82329 211.2665 16.90247 202.34568 16.90247 191.34096 16.90247 180.33625 25.82329 171.41542 36.828 171.41542 47.83272 171.41542 56.75354 180.33625 56.75354 191.34096ZM36.828 191.34096" fill="#ffe6e6"/>
<path transform="matrix(1.00005,0,0,-1.00005,1.9961472,426.91554)" stroke-width=".3985" stroke-linecap="butt" stroke-miterlimit="10" stroke-linejoin="miter" fill="none" stroke="#ff0000" d="M56.75354 191.34096C56.75354 202.34568 47.83272 211.2665 36.828 211.2665 25.82329 211.2665 16.90247 202.34568 16.90247 191.34096 16.90247 180.33625 25.82329 171.41542 36.828 171.41542 47.83272 171.41542 56.75354 180.33625 56.75354 191.34096ZM36.828 191.34096"/>
<use data-text="G" xlink:href="#font_2_58" transform="matrix(9.963098,0,0,-9.963098,34.91579,238.96715)"/>
<path transform="matrix(1.00005,0,0,-1.00005,1.9961472,426.91554)" d="M204.06558 148.82074C204.06558 159.82544 195.14476 168.74628 184.14005 168.74628 173.13535 168.74628 164.21451 159.82544 164.21451 148.82074 164.21451 137.81603 173.13535 128.8952 184.14005 128.8952 195.14476 128.8952 204.06558 137.81603 204.06558 148.82074ZM184.14005 148.82074" fill="#e6ffe6"/>
<path transform="matrix(1.00005,0,0,-1.00005,1.9961472,426.91554)" stroke-width=".3985" stroke-linecap="butt" stroke-miterlimit="10" stroke-linejoin="miter" fill="none" stroke="#00ff00" d="M204.06558 148.82074C204.06558 159.82544 195.14476 168.74628 184.14005 168.74628 173.13535 168.74628 164.21451 159.82544 164.21451 148.82074 164.21451 137.81603 173.13535 128.8952 184.14005 128.8952 195.14476 128.8952 204.06558 137.81603 204.06558 148.82074ZM184.14005 148.82074"/>
<use data-text="G" xlink:href="#font_2_58" transform="matrix(9.963098,0,0,-9.963098,169.85053,280.85725)"/>
<use data-text="&#x266d;" xlink:href="#font_3_1" transform="matrix(9.963098,0,0,-9.963098,177.6719,280.85725)"/>
<use data-text="," xlink:href="#font_2_45" transform="matrix(9.963098,0,0,-9.963098,181.54611,280.85725)"/>
<use data-text="F" xlink:href="#font_2_54" transform="matrix(9.963098,0,0,-9.963098,187.63355,280.85725)"/>
<use data-text="#" xlink:href="#font_2_79" transform="matrix(9.963098,0,0,-9.963098,194.13945,280.85725)"/>
<path transform="matrix(1.00005,0,0,-1.00005,1.9961472,426.91554)" d="M167.23758 170.08086C167.23758 181.08556 158.31676 190.0064 147.31204 190.0064 136.30733 190.0064 127.3865 181.08556 127.3865 170.08086 127.3865 159.07614 136.30733 150.15532 147.31204 150.15532 158.31676 150.15532 167.23758 159.07614 167.23758 170.08086ZM147.31204 170.08086" fill="#ffe6e6"/>
<path transform="matrix(1.00005,0,0,-1.00005,1.9961472,426.91554)" stroke-width=".3985" stroke-linecap="butt" stroke-miterlimit="10" stroke-linejoin="miter" fill="none" stroke="#ff0000" d="M167.23758 170.08086C167.23758 181.08556 158.31676 190.0064 147.31204 190.0064 136.30733 190.0064 127.3865 181.08556 127.3865 170.08086 127.3865 159.07614 136.30733 150.15532 147.31204 150.15532 158.31676 150.15532 167.23758 159.07614 167.23758 170.08086ZM147.31204 170.08086"/>
<use data-text="G" xlink:href="#font_2_58" transform="matrix(9.963098,0,0,-9.963098,145.4053,260.2282)"/>
<path transform="matrix(1.00005,0,0,-1.00005,1.9961472,426.91554)" d="M130.40958 191.34096C130.40958 202.34568 121.48874 211.2665 110.48404 211.2665 99.47932 211.2665 90.5585 202.34568 90.5585 191.34096 90.5585 180.33625 99.47932 171.41542 110.48404 171.41542 121.48874 171.41542 130.40958 180.33625 130.40958 191.34096ZM110.48404 191.34096" fill="#e6ffe6"/>
<path transform="matrix(1.00005,0,0,-1.00005,1.9961472,426.91554)" stroke-width=".3985" stroke-linecap="butt" stroke-miterlimit="10" stroke-linejoin="miter" fill="none" stroke="#00ff00" d="M130.40958 191.34096C130.40958 202.34568 121.48874 211.2665 110.48404 211.2665 99.47932 211.2665 90.5585 202.34568 90.5585 191.34096 90.5585 180.33625 99.47932 171.41542 110.48404 171.41542 121.48874 171.41542 130.40958 180.33625 130.40958 191.34096ZM110.48404 191.34096"/>
<use data-text="A" xlink:href="#font_2_27" transform="matrix(9.963098,0,0,-9.963098,95.707828,238.33512)"/>
<use data-text="&#x266d;" xlink:href="#font_3_1" transform="matrix(9.963098,0,0,-9.963098,103.1802,238.33512)"/>
<use data-text="," xlink:href="#font_2_45" transform="matrix(9.963098,0,0,-9.963098,107.0554,238.33512)"/>
<use data-text="G" xlink:href="#font_2_58" transform="matrix(9.963098,0,0,-9.963098,113.13288,238.33512)"/>
<use data-text="#" xlink:href="#font_2_79" transform="matrix(9.963098,0,0,-9.963098,120.95392,238.33512)"/>
<path transform="matrix(1.00005,0,0,-1.00005,1.9961472,426.91554)" d="M93.58154 212.60106C93.58154 223.60578 84.66072 232.5266 73.656 232.5266 62.65129 232.5266 53.73047 223.60578 53.73047 212.60106 53.73047 201.59635 62.65129 192.67552 73.656 192.67552 84.66072 192.67552 93.58154 201.59635 93.58154 212.60106ZM73.656 212.60106" fill="#e6ffe6"/>
<path transform="matrix(1.00005,0,0,-1.00005,1.9961472,426.91554)" stroke-width=".3985" stroke-linecap="butt" stroke-miterlimit="10" stroke-linejoin="miter" fill="none" stroke="#00ff00" d="M93.58154 212.60106C93.58154 223.60578 84.66072 232.5266 73.656 232.5266 62.65129 232.5266 53.73047 223.60578 53.73047 212.60106 53.73047 201.59635 62.65129 192.67552 73.656 192.67552 84.66072 192.67552 93.58154 201.59635 93.58154 212.60106ZM73.656 212.60106"/>
<use data-text="A" xlink:href="#font_2_27" transform="matrix(9.963098,0,0,-9.963098,71.91964,217.8711)"/>
<path transform="matrix(1.00005,0,0,-1.00005,1.9961472,426.91554)" d="M56.75354 233.86116C56.75354 244.86588 47.83272 253.7867 36.828 253.7867 25.82329 253.7867 16.90247 244.86588 16.90247 233.86116 16.90247 222.85645 25.82329 213.93563 36.828 213.93563 47.83272 213.93563 56.75354 222.85645 56.75354 233.86116ZM36.828 233.86116" fill="#e6ffe6"/>
<path transform="matrix(1.00005,0,0,-1.00005,1.9961472,426.91554)" stroke-width=".3985" stroke-linecap="butt" stroke-miterlimit="10" stroke-linejoin="miter" fill="none" stroke="#00ff00" d="M56.75354 233.86116C56.75354 244.86588 47.83272 253.7867 36.828 253.7867 25.82329 253.7867 16.90247 244.86588 16.90247 233.86116 16.90247 222.85645 25.82329 213.93563 36.828 213.93563 47.83272 213.93563 56.75354 222.85645 56.75354 233.86116ZM36.828 233.86116"/>
<use data-text="B" xlink:href="#font_2_34" transform="matrix(9.963098,0,0,-9.963098,22.432168,195.81299)"/>
<use data-text="&#x266d;" xlink:href="#font_3_1" transform="matrix(9.963098,0,0,-9.963098,29.486527,195.81299)"/>
<use data-text="," xlink:href="#font_2_45" transform="matrix(9.963098,0,0,-9.963098,33.360719,195.81299)"/>
<use data-text="A" xlink:href="#font_2_27" transform="matrix(9.963098,0,0,-9.963098,39.448167,195.81299)"/>
<use data-text="#" xlink:href="#font_2_79" transform="matrix(9.963098,0,0,-9.963098,46.920488,195.81299)"/>
<path transform="matrix(1.00005,0,0,-1.00005,1.9961472,426.91554)" d="M204.06558 191.34096C204.06558 202.34568 195.14476 211.2665 184.14005 211.2665 173.13535 211.2665 164.21451 202.34568 164.21451 191.34096 164.21451 180.33625 173.13535 171.41542 184.14005 171.41542 195.14476 171.41542 204.06558 180.33625 204.06558 191.34096ZM184.14005 191.34096" fill="#e6ffe6"/>
<path transform="matrix(1.00005,0,0,-1.00005,1.9961472,426.91554)" stroke-width=".3985" stroke-linecap="butt" stroke-miterlimit="10" stroke-linejoin="miter" fill="none" stroke="#00ff00" d="M204.06558 191.34096C204.06558 202.34568 195.14476 211.2665 184.14005 211.2665 173.13535 211.2665 164.21451 202.34568 164.21451 191.34096 164.21451 180.33625 173.13535 171.41542 184.14005 171.41542 195.14476 171.41542 204.06558 180.33625 204.06558 191.34096ZM184.14005 191.34096"/>
<use data-text="A" xlink:href="#font_2_27" transform="matrix(9.963098,0,0,-9.963098,182.40918,239.13214)"/>
<path transform="matrix(1.00005,0,0,-1.00005,1.9961472,426.91554)" d="M167.23758 212.60106C167.23758 223.60578 158.31676 232.5266 147.31204 232.5266 136.30733 232.5266 127.3865 223.60578 127.3865 212.60106 127.3865 201.59635 136.30733 192.67552 147.31204 192.67552 158.31676 192.67552 167.23758 201.59635 167.23758 212.60106ZM147.31204 212.60106" fill="#e6ffe6"/>
<path transform="matrix(1.00005,0,0,-1.00005,1.9961472,426.91554)" stroke-width=".3985" stroke-linecap="butt" stroke-miterlimit="10" stroke-linejoin="miter" fill="none" stroke="#00ff00" d="M167.23758 212.60106C167.23758 223.60578 158.31676 232.5266 147.31204 232.5266 136.30733 232.5266 127.3865 223.60578 127.3865 212.60106 127.3865 201.59635 136.30733 192.67552 147.31204 192.67552 158.31676 192.67552 167.23758 201.59635 167.23758 212.60106ZM147.31204 212.60106"/>
<use data-text="B" xlink:href="#font_2_34" transform="matrix(9.963098,0,0,-9.963098,134.58078,217.07405)"/>
<use data-text="&#x266d;" xlink:href="#font_3_1" transform="matrix(9.963098,0,0,-9.963098,141.63513,217.07405)"/>
<use data-text="," xlink:href="#font_2_45" transform="matrix(9.963098,0,0,-9.963098,145.50933,217.07405)"/>
<use data-text="A" xlink:href="#font_2_27" transform="matrix(9.963098,0,0,-9.963098,148.27906,217.07405)"/>
<use data-text="#" xlink:href="#font_2_79" transform="matrix(9.963098,0,0,-9.963098,155.75139,217.07405)"/>
<path transform="matrix(1.00005,0,0,-1.00005,1.9961472,426.91554)" d="M130.40958 233.86116C130.40958 244.86588 121.48874 253.7867 110.48404 253.7867 99.47932 253.7867 90.5585 244.86588 90.5585 233.86116 90.5585 222.85645 99.47932 213.93563 110.48404 213.93563 121.48874 213.93563 130.40958 222.85645 130.40958 233.86116ZM110.48404 233.86116" fill="#e6ffe6"/>
<path transform="matrix(1.00005,0,0,-1.00005,1.9961472,426.91554)" stroke-width=".3985" stroke-linecap="butt" stroke-miterlimit="10" stroke-linejoin="miter" fill="none" stroke="#00ff00" d="M130.40958 233.86116C130.40958 244.86588 121.48874 253.7867 110.48404 253.7867 99.47932 253.7867 90.5585 244.86588 90.5585 233.86116 90.5585 222.85645 99.47932 213.93563 110.48404 213.93563 121.48874 213.93563 130.40958 222.85645 130.40958 233.86116ZM110.48404 233.86116"/>
<use data-text="B" xlink:href="#font_2_34" transform="matrix(9.963098,0,0,-9.963098,108.95849,196.44503)"/>
<path transform="matrix(1.00005,0,0,-1.00005,1.9961472,426.91554)" d="M93.58154 255.12128C93.58154 266.12599 84.66072 275.0468 73.656 275.0468 62.65129 275.0468 53.73047 266.12599 53.73047 255.12128 53.73047 244.11656 62.65129 235.19574 73.656 235.19574 84.66072 235.19574 93.58154 244.11656 93.58154 255.12128ZM73.656 255.12128" fill="#ffe6e6"/>
<path transform="matrix(1.00005,0,0,-1.00005,1.9961472,426.91554)" stroke-width=".3985" stroke-linecap="butt" stroke-miterlimit="10" stroke-linejoin="miter" fill="none" stroke="#ff0000" d="M93.58154 255.12128C93.58154 266.12599 84.66072 275.0468 73.656 275.0468 62.65129 275.0468 53.73047 266.12599 53.73047 255.12128 53.73047 244.11656 62.65129 235.19574 73.656 235.19574 84.66072 235.19574 93.58154 244.11656 93.58154 255.12128ZM73.656 255.12128"/>
<use data-text="C" xlink:href="#font_2_42" transform="matrix(9.963098,0,0,-9.963098,72.05865,175.18396)"/>
<path transform="matrix(1.00005,0,0,-1.00005,1.9961472,426.91554)" d="M56.75354 276.38139C56.75354 287.3861 47.83272 296.30693 36.828 296.30693 25.82329 296.30693 16.90247 287.3861 16.90247 276.38139 16.90247 265.37669 25.82329 256.45585 36.828 256.45585 47.83272 256.45585 56.75354 265.37669 56.75354 276.38139ZM36.828 276.38139" fill="#e6ffe6"/>
<path transform="matrix(1.00005,0,0,-1.00005,1.9961472,426.91554)" stroke-width=".3985" stroke-linecap="butt" stroke-miterlimit="10" stroke-linejoin="miter" fill="none" stroke="#00ff00" d="M56.75354 276.38139C56.75354 287.3861 47.83272 296.30693 36.828 296.30693 25.82329 296.30693 16.90247 287.3861 16.90247 276.38139 16.90247 265.37669 25.82329 256.45585 36.828 256.45585 47.83272 256.45585 56.75354 265.37669 56.75354 276.38139ZM36.828 276.38139"/>
<use data-text="C" xlink:href="#font_2_42" transform="matrix(9.963098,0,0,-9.963098,23.951245,153.28986)"/>
<use data-text="#" xlink:href="#font_2_79" transform="matrix(9.963098,0,0,-9.963098,31.144604,153.28986)"/>
<use data-text="," xlink:href="#font_2_45" transform="matrix(9.963098,0,0,-9.963098,39.443868,153.28986)"/>
<use data-text="D" xlink:href="#font_2_46" transform="matrix(9.963098,0,0,-9.963098,42.213605,153.28986)"/>
<use data-text="&#x266d;" xlink:href="#font_3_1" transform="matrix(9.963098,0,0,-9.963098,49.825544,153.28986)"/>
<path transform="matrix(1.00005,0,0,-1.00005,1.9961472,426.91554)" d="M204.06558 233.86116C204.06558 244.86588 195.14476 253.7867 184.14005 253.7867 173.13535 253.7867 164.21451 244.86588 164.21451 233.86116 164.21451 222.85645 173.13535 213.93563 184.14005 213.93563 195.14476 213.93563 204.06558 222.85645 204.06558 233.86116ZM184.14005 233.86116" fill="#ffe6e6"/>
<path transform="matrix(1.00005,0,0,-1.00005,1.9961472,426.91554)" stroke-width=".3985" stroke-linecap="butt" stroke-miterlimit="10" stroke-linejoin="miter" fill="none" stroke="#ff0000" d="M204.06558 233.86116C204.06558 244.86588 195.14476 253.7867 184.14005 253.7867 173.13535 253.7867 164.21451 244.86588 164.21451 233.86116 164.21451 222.85645 173.13535 213.93563 184.14005 213.93563 195.14476 213.93563 204.06558 222.85645 204.06558 233.86116ZM184.14005 233.86116"/>
<use data-text="C" xlink:href="#font_2_42" transform="matrix(9.963098,0,0,-9.963098,182.54816,196.44503)"/>
<path transform="matrix(1.00005,0,0,-1.00005,1.9961472,426.91554)" d="M167.23758 255.12128C167.23758 266.12599 158.31676 275.0468 147.31204 275.0468 136.30733 275.0468 127.3865 266.12599 127.3865 255.12128 127.3865 244.11656 136.30733 235.19574 147.31204 235.19574 158.31676 235.19574 167.23758 244.11656 167.23758 255.12128ZM147.31204 255.12128" fill="#e6ffe6"/>
<path transform="matrix(1.00005,0,0,-1.00005,1.9961472,426.91554)" stroke-width=".3985" stroke-linecap="butt" stroke-miterlimit="10" stroke-linejoin="miter" fill="none" stroke="#00ff00" d="M167.23758 255.12128C167.23758 266.12599 158.31676 275.0468 147.31204 275.0468 136.30733 275.0468 127.3865 266.12599 127.3865 255.12128 127.3865 244.11656 136.30733 235.19574 147.31204 235.19574 158.31676 235.19574 167.23758 244.11656 167.23758 255.12128ZM147.31204 255.12128"/>
<use data-text="C" xlink:href="#font_2_42" transform="matrix(9.963098,0,0,-9.963098,134.44077,174.55092)"/>
<use data-text="#" xlink:href="#font_2_79" transform="matrix(9.963098,0,0,-9.963098,141.63413,174.55092)"/>
<use data-text="," xlink:href="#font_2_45" transform="matrix(9.963098,0,0,-9.963098,149.9334,174.55092)"/>
<use data-text="D" xlink:href="#font_2_46" transform="matrix(9.963098,0,0,-9.963098,152.70313,174.55092)"/>
<use data-text="&#x266d;" xlink:href="#font_3_1" transform="matrix(9.963098,0,0,-9.963098,160.31507,174.55092)"/>
<path transform="matrix(1.00005,0,0,-1.00005,1.9961472,426.91554)" d="M130.40958 276.38139C130.40958 287.3861 121.48874 296.30693 110.48404 296.30693 99.47932 296.30693 90.5585 287.3861 90.5585 276.38139 90.5585 265.37669 99.47932 256.45585 110.48404 256.45585 121.48874 256.45585 130.40958 265.37669 130.40958 276.38139ZM110.48404 276.38139" fill="#e6ffe6"/>
<path transform="matrix(1.00005,0,0,-1.00005,1.9961472,426.91554)" stroke-width=".3985" stroke-linecap="butt" stroke-miterlimit="10" stroke-linejoin="miter" fill="none" stroke="#00ff00" d="M130.40958 276.38139C130.40958 287.3861 121.48874 296.30693 110.48404 296.30693 99.47932 296.30693 90.5585 287.3861 90.5585 276.38139 90.5585 265.37669 99.47932 256.45585 110.48404 256.45585 121.48874 256.45585 130.40958 265.37669 130.40958 276.38139ZM110.48404 276.38139"/>
<use data-text="D" xlink:href="#font_2_46" transform="matrix(9.963098,0,0,-9.963098,108.679477,153.92288)"/>
<path transform="matrix(1.00005,0,0,-1.00005,1.9961472,426.91554)" d="M93.58154 297.6415C93.58154 308.6462 84.66072 317.56703 73.656 317.56703 62.65129 317.56703 53.73047 308.6462 53.73047 297.6415 53.73047 286.63679 62.65129 277.71598 73.656 277.71598 84.66072 277.71598 93.58154 286.63679 93.58154 297.6415ZM73.656 297.6415" fill="#e6ffe6"/>
<path transform="matrix(1.00005,0,0,-1.00005,1.9961472,426.91554)" stroke-width=".3985" stroke-linecap="butt" stroke-miterlimit="10" stroke-linejoin="miter" fill="none" stroke="#00ff00" d="M93.58154 297.6415C93.58154 308.6462 84.66072 317.56703 73.656 317.56703 62.65129 317.56703 53.73047 308.6462 53.73047 297.6415 53.73047 286.63679 62.65129 277.71598 73.656 277.71598 84.66072 277.71598 93.58154 286.63679 93.58154 297.6415ZM73.656 297.6415"/>
<use data-text="E" xlink:href="#font_2_49" transform="matrix(9.963098,0,0,-9.963098,60.985094,132.02878)"/>
<use data-text="&#x266d;" xlink:href="#font_3_1" transform="matrix(9.963098,0,0,-9.963098,67.77044,132.02878)"/>
<use data-text="," xlink:href="#font_2_45" transform="matrix(9.963098,0,0,-9.963098,71.64463,132.02878)"/>
<use data-text="D" xlink:href="#font_2_46" transform="matrix(9.963098,0,0,-9.963098,74.41437,132.02878)"/>
<use data-text="#" xlink:href="#font_2_79" transform="matrix(9.963098,0,0,-9.963098,82.02618,132.02878)"/>
<path transform="matrix(1.00005,0,0,-1.00005,1.9961472,426.91554)" d="M56.75354 318.9016C56.75354 329.9063 47.83272 338.82713 36.828 338.82713 25.82329 338.82713 16.90247 329.9063 16.90247 318.9016 16.90247 307.89689 25.82329 298.97608 36.828 298.97608 47.83272 298.97608 56.75354 307.89689 56.75354 318.9016ZM36.828 318.9016" fill="#ffe6e6"/>
<path transform="matrix(1.00005,0,0,-1.00005,1.9961472,426.91554)" stroke-width=".3985" stroke-linecap="butt" stroke-miterlimit="10" stroke-linejoin="miter" fill="none" stroke="#ff0000" d="M56.75354 318.9016C56.75354 329.9063 47.83272 338.82713 36.828 338.82713 25.82329 338.82713 16.90247 329.9063 16.90247 318.9016 16.90247 307.89689 25.82329 298.97608 36.828 298.97608 47.83272 298.97608 56.75354 307.89689 56.75354 318.9016ZM36.828 318.9016"/>
<use data-text="E" xlink:href="#font_2_49" transform="matrix(9.963098,0,0,-9.963098,35.43382,111.38577)"/>
<path transform="matrix(1.00005,0,0,-1.00005,1.9961472,426.91554)" d="M204.06558 276.38139C204.06558 287.3861 195.14476 296.30693 184.14005 296.30693 173.13535 296.30693 164.21451 287.3861 164.21451 276.38139 164.21451 265.37669 173.13535 256.45585 184.14005 256.45585 195.14476 256.45585 204.06558 265.37669 204.06558 276.38139ZM184.14005 276.38139" fill="#e6ffe6"/>
<path transform="matrix(1.00005,0,0,-1.00005,1.9961472,426.91554)" stroke-width=".3985" stroke-linecap="butt" stroke-miterlimit="10" stroke-linejoin="miter" fill="none" stroke="#00ff00" d="M204.06558 276.38139C204.06558 287.3861 195.14476 296.30693 184.14005 296.30693 173.13535 296.30693 164.21451 287.3861 164.21451 276.38139 164.21451 265.37669 173.13535 256.45585 184.14005 256.45585 195.14476 256.45585 204.06558 265.37669 204.06558 276.38139ZM184.14005 276.38139"/>
<use data-text="E" xlink:href="#font_2_49" transform="matrix(9.963098,0,0,-9.963098,171.47461,153.28986)"/>
<use data-text="&#x266d;" xlink:href="#font_3_1" transform="matrix(9.963098,0,0,-9.963098,178.25997,153.28986)"/>
<use data-text="," xlink:href="#font_2_45" transform="matrix(9.963098,0,0,-9.963098,182.13416,153.28986)"/>
<use data-text="D" xlink:href="#font_2_46" transform="matrix(9.963098,0,0,-9.963098,184.9039,153.28986)"/>
<use data-text="#" xlink:href="#font_2_79" transform="matrix(9.963098,0,0,-9.963098,192.5157,153.28986)"/>
<path transform="matrix(1.00005,0,0,-1.00005,1.9961472,426.91554)" d="M167.23758 297.6415C167.23758 308.6462 158.31676 317.56703 147.31204 317.56703 136.30733 317.56703 127.3865 308.6462 127.3865 297.6415 127.3865 286.63679 136.30733 277.71598 147.31204 277.71598 158.31676 277.71598 167.23758 286.63679 167.23758 297.6415ZM147.31204 297.6415" fill="#ffe6e6"/>
<path transform="matrix(1.00005,0,0,-1.00005,1.9961472,426.91554)" stroke-width=".3985" stroke-linecap="butt" stroke-miterlimit="10" stroke-linejoin="miter" fill="none" stroke="#ff0000" d="M167.23758 297.6415C167.23758 308.6462 158.31676 317.56703 147.31204 317.56703 136.30733 317.56703 127.3865 308.6462 127.3865 297.6415 127.3865 286.63679 136.30733 277.71598 147.31204 277.71598 158.31676 277.71598 167.23758 286.63679 167.23758 297.6415ZM147.31204 297.6415"/>
<use data-text="E" xlink:href="#font_2_49" transform="matrix(9.963098,0,0,-9.963098,145.92334,132.64682)"/>
<path transform="matrix(1.00005,0,0,-1.00005,1.9961472,426.91554)" d="M130.40958 318.9016C130.40958 329.9063 121.48874 338.82713 110.48404 338.82713 99.47932 338.82713 90.5585 329.9063 90.5585 318.9016 90.5585 307.89689 99.47932 298.97608 110.48404 298.97608 121.48874 298.97608 130.40958 307.89689 130.40958 318.9016ZM110.48404 318.9016" fill="#e6ffe6"/>
<path transform="matrix(1.00005,0,0,-1.00005,1.9961472,426.91554)" stroke-width=".3985" stroke-linecap="butt" stroke-miterlimit="10" stroke-linejoin="miter" fill="none" stroke="#00ff00" d="M130.40958 318.9016C130.40958 329.9063 121.48874 338.82713 110.48404 338.82713 99.47932 338.82713 90.5585 329.9063 90.5585 318.9016 90.5585 307.89689 99.47932 298.97608 110.48404 298.97608 121.48874 298.97608 130.40958 307.89689 130.40958 318.9016ZM110.48404 318.9016"/>
<use data-text="F" xlink:href="#font_2_54" transform="matrix(9.963098,0,0,-9.963098,109.232509,111.38577)"/>
<path transform="matrix(1.00005,0,0,-1.00005,1.9961472,426.91554)" d="M93.58154 340.1617C93.58154 351.16645 84.66072 360.08726 73.656 360.08726 62.65129 360.08726 53.73047 351.16645 53.73047 340.1617 53.73047 329.157 62.65129 320.23619 73.656 320.23619 84.66072 320.23619 93.58154 329.157 93.58154 340.1617ZM73.656 340.1617" fill="#e6ffe6"/>
<path transform="matrix(1.00005,0,0,-1.00005,1.9961472,426.91554)" stroke-width=".3985" stroke-linecap="butt" stroke-miterlimit="10" stroke-linejoin="miter" fill="none" stroke="#00ff00" d="M93.58154 340.1617C93.58154 351.16645 84.66072 360.08726 73.656 360.08726 62.65129 360.08726 53.73047 351.16645 53.73047 340.1617 53.73047 329.157 62.65129 320.23619 73.656 320.23619 84.66072 320.23619 93.58154 329.157 93.58154 340.1617ZM73.656 340.1617"/>
<use data-text="G" xlink:href="#font_2_58" transform="matrix(9.963098,0,0,-9.963098,61.020097,89.50668)"/>
<use data-text="&#x266d;" xlink:href="#font_3_1" transform="matrix(9.963098,0,0,-9.963098,68.84149,89.50668)"/>
<use data-text="," xlink:href="#font_2_45" transform="matrix(9.963098,0,0,-9.963098,72.71568,89.50668)"/>
<use data-text="F" xlink:href="#font_2_54" transform="matrix(9.963098,0,0,-9.963098,75.48542,89.50668)"/>
<use data-text="#" xlink:href="#font_2_79" transform="matrix(9.963098,0,0,-9.963098,81.991329,89.50668)"/>
<path transform="matrix(1.00005,0,0,-1.00005,1.9961472,426.91554)" d="M56.75354 361.4218C56.75354 372.42655 47.83272 381.34736 36.828 381.34736 25.82329 381.34736 16.90247 372.42655 16.90247 361.4218 16.90247 350.4171 25.82329 341.49629 36.828 341.49629 47.83272 341.49629 56.75354 350.4171 56.75354 361.4218ZM36.828 361.4218" fill="#ffe6e6"/>
<path transform="matrix(1.00005,0,0,-1.00005,1.9961472,426.91554)" stroke-width=".3985" stroke-linecap="butt" stroke-miterlimit="10" stroke-linejoin="miter" fill="none" stroke="#ff0000" d="M56.75354 361.4218C56.75354 372.42655 47.83272 381.34736 36.828 381.34736 25.82329 381.34736 16.90247 372.42655 16.90247 361.4218 16.90247 350.4171 25.82329 341.49629 36.828 341.49629 47.83272 341.49629 56.75354 350.4171 56.75354 361.4218ZM36.828 361.4218"/>
<use data-text="G" xlink:href="#font_2_58" transform="matrix(9.963098,0,0,-9.963098,34.91579,68.877658)"/>
<path transform="matrix(1.00005,0,0,-1.00005,1.9961472,426.91554)" d="M204.06558 318.9016C204.06558 329.9063 195.14476 338.82713 184.14005 338.82713 173.13535 338.82713 164.21451 329.9063 164.21451 318.9016 164.21451 307.89689 173.13535 298.97608 184.14005 298.97608 195.14476 298.97608 204.06558 307.89689 204.06558 318.9016ZM184.14005 318.9016" fill="#e6ffe6"/>
<path transform="matrix(1.00005,0,0,-1.00005,1.9961472,426.91554)" stroke-width=".3985" stroke-linecap="butt" stroke-miterlimit="10" stroke-linejoin="miter" fill="none" stroke="#00ff00" d="M204.06558 318.9016C204.06558 329.9063 195.14476 338.82713 184.14005 338.82713 173.13535 338.82713 164.21451 329.9063 164.21451 318.9016 164.21451 307.89689 173.13535 298.97608 184.14005 298.97608 195.14476 298.97608 204.06558 307.89689 204.06558 318.9016ZM184.14005 318.9016"/>
<use data-text="G" xlink:href="#font_2_58" transform="matrix(9.963098,0,0,-9.963098,171.50962,110.76776)"/>
<use data-text="&#x266d;" xlink:href="#font_3_1" transform="matrix(9.963098,0,0,-9.963098,179.33103,110.76776)"/>
<use data-text="," xlink:href="#font_2_45" transform="matrix(9.963098,0,0,-9.963098,183.2052,110.76776)"/>
<use data-text="F" xlink:href="#font_2_54" transform="matrix(9.963098,0,0,-9.963098,185.97495,110.76776)"/>
<use data-text="#" xlink:href="#font_2_79" transform="matrix(9.963098,0,0,-9.963098,192.48085,110.76776)"/>
<path transform="matrix(1.00005,0,0,-1.00005,1.9961472,426.91554)" d="M167.23758 340.1617C167.23758 351.16645 158.31676 360.08726 147.31204 360.08726 136.30733 360.08726 127.3865 351.16645 127.3865 340.1617 127.3865 329.157 136.30733 320.23619 147.31204 320.23619 158.31676 320.23619 167.23758 329.157 167.23758 340.1617ZM147.31204 340.1617" fill="#ffe6e6"/>
<path transform="matrix(1.00005,0,0,-1.00005,1.9961472,426.91554)" stroke-width=".3985" stroke-linecap="butt" stroke-miterlimit="10" stroke-linejoin="miter" fill="none" stroke="#ff0000" d="M167.23758 340.1617C167.23758 351.16645 158.31676 360.08726 147.31204 360.08726 136.30733 360.08726 127.3865 351.16645 127.3865 340.1617 127.3865 329.157 136.30733 320.23619 147.31204 320.23619 158.31676 320.23619 167.23758 329.157 167.23758 340.1617ZM147.31204 340.1617"/>
<use data-text="G" xlink:href="#font_2_58" transform="matrix(9.963098,0,0,-9.963098,145.4053,90.13971)"/>
<path transform="matrix(1.00005,0,0,-1.00005,1.9961472,426.91554)" d="M130.40958 361.4218C130.40958 372.42655 121.48874 381.34736 110.48404 381.34736 99.47932 381.34736 90.5585 372.42655 90.5585 361.4218 90.5585 350.4171 99.47932 341.49629 110.48404 341.49629 121.48874 341.49629 130.40958 350.4171 130.40958 361.4218ZM110.48404 361.4218" fill="#e6ffe6"/>
<path transform="matrix(1.00005,0,0,-1.00005,1.9961472,426.91554)" stroke-width=".3985" stroke-linecap="butt" stroke-miterlimit="10" stroke-linejoin="miter" fill="none" stroke="#00ff00" d="M130.40958 361.4218C130.40958 372.42655 121.48874 381.34736 110.48404 381.34736 99.47932 381.34736 90.5585 372.42655 90.5585 361.4218 90.5585 350.4171 99.47932 341.49629 110.48404 341.49629 121.48874 341.49629 130.40958 350.4171 130.40958 361.4218ZM110.48404 361.4218"/>
<use data-text="A" xlink:href="#font_2_27" transform="matrix(9.963098,0,0,-9.963098,95.707828,68.245609)"/>
<use data-text="&#x266d;" xlink:href="#font_3_1" transform="matrix(9.963098,0,0,-9.963098,103.1802,68.245609)"/>
<use data-text="," xlink:href="#font_2_45" transform="matrix(9.963098,0,0,-9.963098,107.0554,68.245609)"/>
<use data-text="G" xlink:href="#font_2_58" transform="matrix(9.963098,0,0,-9.963098,113.13288,68.245609)"/>
<use data-text="#" xlink:href="#font_2_79" transform="matrix(9.963098,0,0,-9.963098,120.95392,68.245609)"/>
<path transform="matrix(1.00005,0,0,-1.00005,1.9961472,426.91554)" d="M93.58154 382.68193C93.58154 393.6866 84.66072 402.60746 73.656 402.60746 62.65129 402.60746 53.73047 393.6866 53.73047 382.68193 53.73047 371.6772 62.65129 362.75639 73.656 362.75639 84.66072 362.75639 93.58154 371.6772 93.58154 382.68193ZM73.656 382.68193" fill="#e6ffe6"/>
<path transform="matrix(1.00005,0,0,-1.00005,1.9961472,426.91554)" stroke-width=".3985" stroke-linecap="butt" stroke-miterlimit="10" stroke-linejoin="miter" fill="none" stroke="#00ff00" d="M93.58154 382.68193C93.58154 393.6866 84.66072 402.60746 73.656 402.60746 62.65129 402.60746 53.73047 393.6866 53.73047 382.68193 53.73047 371.6772 62.65129 362.75639 73.656 362.75639 84.66072 362.75639 93.58154 371.6772 93.58154 382.68193ZM73.656 382.68193"/>
<use data-text="A" xlink:href="#font_2_27" transform="matrix(9.963098,0,0,-9.963098,71.91964,47.781587)"/>
<path transform="matrix(1.00005,0,0,-1.00005,1.9961472,426.91554)" d="M56.75354 403.94203C56.75354 414.94673 47.83272 423.86756 36.828 423.86756 25.82329 423.86756 16.90247 414.94673 16.90247 403.94203 16.90247 392.9373 25.82329 384.01649 36.828 384.01649 47.83272 384.01649 56.75354 392.9373 56.75354 403.94203ZM36.828 403.94203" fill="#e6ffe6"/>
<path transform="matrix(1.00005,0,0,-1.00005,1.9961472,426.91554)" stroke-width=".3985" stroke-linecap="butt" stroke-miterlimit="10" stroke-linejoin="miter" fill="none" stroke="#00ff00" d="M56.75354 403.94203C56.75354 414.94673 47.83272 423.86756 36.828 423.86756 25.82329 423.86756 16.90247 414.94673 16.90247 403.94203 16.90247 392.9373 25.82329 384.01649 36.828 384.01649 47.83272 384.01649 56.75354 392.9373 56.75354 403.94203ZM36.828 403.94203"/>
<use data-text="B" xlink:href="#font_2_34" transform="matrix(9.963098,0,0,-9.963098,22.432168,25.72348)"/>
<use data-text="&#x266d;" xlink:href="#font_3_1" transform="matrix(9.963098,0,0,-9.963098,29.486527,25.72348)"/>
<use data-text="," xlink:href="#font_2_45" transform="matrix(9.963098,0,0,-9.963098,33.360719,25.72348)"/>
<use data-text="A" xlink:href="#font_2_27" transform="matrix(9.963098,0,0,-9.963098,39.448167,25.72348)"/>
<use data-text="#" xlink:href="#font_2_79" transform="matrix(9.963098,0,0,-9.963098,46.920488,25.72348)"/>
</svg>
