<svg xmlns="http://www.w3.org/2000/svg" xmlns:xlink="http://www.w3.org/1999/xlink" xmlns:inkscape="http://www.inkscape.org/namespaces/inkscape" version="1.1" width="72" height="135" viewBox="0 0 72 135">
<defs>
<path id="font_1_34" d="M.7739868 .18595886C.7739868 .2729187 .69999697 .3439026 .5669861 .35890199 .6769867 .37789918 .7409973 .43981935 .7409973 .51371768 .7409973 .60557559 .651001 .6855469 .48599244 .6855469H.041992189V.63653567H.1499939V.04899597H.041992189V0H.5169983C.6879883 0 .7739868 .088974 .7739868 .18595886M.59599307 .51371768C.59599307 .44081117 .5469971 .37690736 .44699098 .37690736H.2829895V.63653567H.47299195C.59199526 .63653567 .59599307 .5336914 .59599307 .51371768M.6230011 .18795777C.6230011 .11897278 .58299258 .04899597 .47499085 .04899597H.2829895V.33691407H.4850006C.5009918 .3368683 .55400088 .3368683 .58799746 .296875 .61698916 .26086427 .6230011 .21986389 .6230011 .18786621V.18795777Z"/>
<path id="font_2_1" d="M.084991458 .72099307C.084991458 .73999026 .084991458 .75 .070999149 .75 .056991579 .75 .056991579 .73999026 .056991579 .72099307V.0065460207C.056991579-.012466431 .056991579-.022460938 .070999149-.022460938 .07998657-.022460938 .17098999 .034561159 .24798584 .11164856 .2829895 .14767456 .34199525 .22375489 .34199525 .32084657 .34199525 .39593507 .2849884 .45996095 .20199585 .45996095 .12599182 .45996095 .08799744 .42295838 .084991458 .4199524V.72099307M.084991458 .3408661C.084991458 .36489869 .084991458 .3849182 .117996219 .40393067 .14099121 .4159546 .16699219 .42095948 .19299317 .42095948 .23999024 .42095948 .2579956 .36689759 .2579956 .32084657 .2579956 .19873047 .16899109 .09162903 .084991458 .020553589V.3408661Z"/>
<path id="font_1_74" d="M1.0759888 0V.04899597H.96798709V.63653567H1.0759888V.6855469H.8529968C.83200076 .6855469 .81900027 .6855469 .8069916 .6605377L.5609894 .13093567 .31599427 .6595459C.3039856 .6855469 .2899933 .6855469 .2689972 .6855469H.04499817V.63653567H.15299988V.07797241C.15299988 .055923463 .1519928 .05491638 .12399292 .05192566 .099990848 .04899597 .09799194 .04899597 .070999149 .04899597H.04499817V0C.10998535 .0029296876 .13798523 .0029296876 .18099976 .0029296876 .22499085 .0029907227 .2519989 .0029907227 .31799317 0V.04899597H.2919922C.2649994 .048919679 .2630005 .048919679 .23899842 .05192566 .21099854 .05491638 .20999146 .055923463 .20999146 .077926639V.6229248H.21099854L.48799134 .025924683C.49198915 .016998291 .5 0 .5219879 0 .54499819 0 .5519867 .015991211 .5569916 .025985718L.83999636 .6359863H.84098818V.04899597H.73298647V0C.7679901 .0029296876 .8639984 .0029296876 .9039917 .0029296876 .94400027 .0029907227 1.0410004 .0029907227 1.0759888 0Z"/>
<path id="font_1_28" d="M.56900027 .025131226C.56900027 .0491333 .5529938 .0491333 .54299929 .0491333 .47898866 .050125123 .47898866 .060134889 .47898866 .08413696V.29812623C.47898866 .38612367 .40699769 .453125 .25299073 .453125 .19599915 .453125 .067993167 .45111085 .067993167 .3591156 .067993167 .31411744 .101989749 .29312135 .1329956 .29312135 .16699219 .29312135 .19799805 .3171234 .19799805 .35812379 .19799805 .38711549 .18099976 .40411378 .17799378 .40711976 .18798828 .40911866 .21199036 .41311646 .24899292 .41311646 .32099916 .41311646 .3619995 .37712098 .3619995 .29812623V.26612855C.19599915 .26612855 .027999878 .22312927 .027999878 .11213684 .027999878 .013137817 .15299988-.005859375 .22499085-.005859375 .30099488-.005859375 .35299684 .027130127 .37998963 .0741272 .37998963 .04798889 .37998963 0 .4869995 0H.5359955C.5549927 0 .56900027 0 .56900027 .024993897V.025131226M.3619995 .13899231C.3619995 .033996583 .24598694 .033996583 .24198914 .033996583 .19099427 .033996583 .14898682 .066986087 .14898682 .11199951 .14898682 .14498902 .16699219 .22299195 .3619995 .23199463V.13899231Z"/>
<path id="font_1_68" d="M.2749939-.03881836V.4501953L.08898926 .44218446V.39318849C.1559906 .3935089 .1639862 .3935089 .1639862 .35351563V-.040008546C.1639862-.095077518 .14498902-.16015625 .08699036-.16015625 .07998657-.16015625 .051986696-.15815735 .051986696-.15515137L.053985597-.15216065C.06599426-.14013672 .07199097-.12411499 .07199097-.10609436 .07199097-.06704712 .042999269-.041000368 .0069885256-.041000368-.029006958-.041000368-.058013917-.06704712-.058013917-.10609436-.058013917-.17016602 .010986328-.2001648 .08898926-.2001648 .1749878-.2001648 .2749939-.14915467 .2749939-.039001466V-.03881836M.2749939 .6053314C.2749939 .65234377 .23699951 .68434146 .19699097 .68434146 .15499878 .68434146 .11898804 .6503296 .11898804 .6063385 .11898804 .55934146 .15699768 .52734377 .19699097 .52734377 .23899842 .52734377 .2749939 .56134036 .2749939 .6053314Z"/>
<path id="font_1_100" d="M.57499697 .614624V.6436157H.34700013C.32598878 .6436157 .18598938 .64964297 .1749878 .6526642 .15499878 .6576843 .1539917 .6647186 .1519928 .67578127H.100997928L.06599426 .4187317H.116989139C.12799073 .5036316 .14399719 .5096283 .14399719 .5096283 .15899658 .515625 .23498535 .515625 .25498963 .515625H.42099C.31900025 .39875794 .31900025 .39675904 .2979889 .36579896 .21598816 .24195862 .19799805 .12809754 .19799805 .060180665 .19799805-.009735107 .25299073-.01171875 .2630005-.01171875 .2899933-.01171875 .30799867 .004257202 .31298829 .009246826 .32798768 .030227662 .32798768 .035217287 .32798768 .09214783 .32798768 .22097779 .33999635 .3418274 .40499879 .4147339L.5649872 .59461978C.57398989 .60562136 .57499697 .61161807 .57499697 .614624Z"/>
<path id="font_3_42" d="M.8600006 .23370362C.8600006 .24972534 .85598757 .25473023 .83898928 .25473023 .8279877 .25473023 .81900027 .25473023 .81799319 .23771668 .80999758 .08558655 .6649933 .021530152 .5479889 .021530152 .4059906 .021530152 .21398926 .099594119 .21398926 .34179688 .21398926 .58000186 .4019928 .6610718 .5469971 .6610718 .6369934 .6610718 .7839966 .61302188 .81599429 .42686463 .81799319 .41485597 .8299866 .41485597 .83799746 .41485597 .8600006 .41485597 .8600006 .42185975 .8600006 .44288636V.677063C.8600006 .69407656 .8600006 .7050781 .84399417 .7050781 .83399966 .7050781 .83099368 .70106509 .82499697 .69306948L.7659912 .61602786C.7049866 .66807559 .6279907 .7050781 .5289917 .7050781 .2869873 .7050781 .09700012 .53796389 .09700012 .34179688 .09700012 .14363098 .2869873-.022460938 .5299988-.022460938 .72299197-.022460938 .8600006 .1006012 .8600006 .23370362Z"/>
<path id="font_4_2" d="M.3809967-.023864747V-.12182617C.3809967-.1388092 .3809967-.15480042 .397995-.15480042 .3999939-.15480042 .4139862-.15180969 .4189911-.14581299 .4229889-.1408081 .4229889-.1368103 .4229889-.11882019V-.010879517C.43399049-.007873535 .44699098-.0038757325 .45700074 .00012207031 .47200013 .0051116945 .47200013 .009109497 .47200013 .033096315V.064086917C.47200013 .08308411 .47200013 .097076419 .45498658 .097076419 .44799806 .097076419 .42900086 .09007263 .4229889 .08807373V.41990663C.43399049 .4229126 .44699098 .4269104 .45700074 .4309082 .47200013 .43589784 .47200013 .43989564 .47200013 .46388246V.49487306C.47200013 .513855 .47200013 .5278473 .45498658 .5278473 .44799806 .5278473 .42900086 .52085879 .4229889 .51885989V.68577578C.4229889 .7027588 .4229889 .71777346 .4059906 .71777346 .40499879 .71777346 .3899994 .7157593 .3849945 .7097626 .3809967 .70477297 .3809967 .7007599 .3809967 .6827698V.5058594L.21598816 .45489503V.6218109C.21598816 .63879397 .21598816 .65478518 .19898987 .65478518 .19699097 .65478518 .18299866 .65179446 .17799378 .6457977 .17399597 .64079287 .17399597 .63679507 .17399597 .61880496V.44189454C.16299439 .4389038 .14898682 .434906 .13999939 .4309082 .125 .42590333 .125 .41990663 .125 .3979187V.3669281C.125 .34794618 .125 .33395387 .14199829 .33395387 .14898682 .33395387 .16799927 .34094239 .17399597 .34294129V.011108398C.16299439 .008117676 .14898682 .004119873 .13999939 .00012207031 .125-.0048828127 .125-.010879517 .125-.03286743V-.06384277C.125-.082839969 .125-.096832279 .14199829-.096832279 .14898682-.096832279 .16799927-.08982849 .17399597-.08782959V-.18579102C.17399597-.20277405 .17399597-.21777344 .19099427-.21777344 .19198609-.21777344 .20698548-.21577454 .21199036-.20977783 .21598816-.20478821 .21598816-.20077515 .21598816-.18278504V-.07484436L.3809967-.023864747M.3809967 .4069214V.0750885L.21598816 .024108887V.35594178L.3809967 .4069214Z"/>
<path id="font_3_45" d="M.27598573 .009994507C.27598573 .07299805 .24899292 .12199402 .20098877 .12199402 .1619873 .12199402 .13999939 .09199524 .13999939 .06098938 .13999939 .02999878 .1619873 0 .20098877 0 .22698975 0 .24299622 .01499939 .24299622 .01499939 .24299622-.057113649 .21398926-.11720276 .1599884-.16229248 .1519928-.16929627 .15098572-.17030335 .15098572-.17730713 .15098572-.18632508 .16099549-.19433594 .16799927-.19433594 .18199158-.19433594 .27598573-.11621094 .27598573 .009994507Z"/>
<path id="font_3_46" d="M.9059906 .33580018C.9059906 .5226898 .7389984 .6826172 .5249939 .6826172H.084991458V.63861086C.10899353 .63861086 .13899231 .63861086 .16099549 .63661196 .19599915 .6336212 .19599915 .6206207 .19599915 .5956421V.08695984C.19599915 .0619812 .19599915 .04899597 .16099549 .04598999 .13899231 .04399109 .10699463 .04399109 .084991458 .04399109V0H.5249939C.7369995 0 .9059906 .15092469 .9059906 .33580018M.79299929 .33580018C.79299929 .24786377 .772995 .17390442 .71598818 .11894226 .68299868 .08796692 .6119995 .04399109 .49598695 .04399109H.34899903C.2979889 .04399109 .2979889 .049987794 .2979889 .083969119V.5986328C.2979889 .63261416 .2979889 .63861086 .34899903 .63861086H.49598695C.61499026 .63861086 .6859894 .5886383 .71299746 .56266787 .75 .52568057 .79299929 .46672059 .79299929 .33580018Z"/>
<path id="font_4_1" d="M.16699219 .71698C.16699219 .7389984 .16699219 .75 .1459961 .75 .125 .75 .125 .7369995 .125 .71698V.010543823C.125-.011474609 .125-.022460938 .1459961-.022460938 .16299439-.022460938 .23498535 .02154541 .25898744 .035568239 .34399415 .08760071 .47200013 .17668152 .47200013 .32080079 .47200013 .4098816 .3889923 .46289063 .3019867 .46289063 .2689972 .46289063 .21299744 .45788575 .16699219 .42788697V.71698M.16699219 .3368225C.16699219 .36083985 .16699219 .38085938 .20399475 .39587403 .23199463 .4078827 .2679901 .4098816 .2869873 .4098816 .35099793 .4098816 .375 .36184693 .375 .31980897 .375 .19169617 .25898744 .09561157 .16699219 .031555177V.3368225Z"/>
<path id="font_3_49" d="M.83599856 .27101136H.7939911C.7649994 .10699463 .7259979 .04399109 .5349884 .04399109H.34899903C.2999878 .04399109 .2999878 .050994874 .2999878 .08200073V.3300171H.41600038C.5159912 .3300171 .5439911 .30900575 .5439911 .2130127H.58599856V.49090577H.5439911C.5439911 .394989 .5159912 .37402345 .41600038 .37402345H.2999878V.59680178C.2999878 .62776187 .2999878 .6347656 .34899903 .6347656H.526001C.69299319 .6347656 .73799136 .59477236 .7599945 .44082643H.8019867L.7689972 .6787567H.08299255V.6347656H.11299133C.19400025 .6347656 .19400025 .62475588 .19400025 .59376528V.0849762C.19400025 .053985597 .19400025 .04399109 .11299133 .04399109H.08299255V0H.7859955L.83599856 .27101136Z"/>
<path id="font_3_54" d="M.7839966 .44114686 .7509918 .6787567H.08299255V.6347656H.11299133C.19400025 .6347656 .19400025 .6247711 .19400025 .59384158V.08503723C.19400025 .054000856 .19400025 .04399109 .11299133 .04399109H.08299255V0L.2519989 .0039978029C.30899049 .0039978029 .3829956 .0039978029 .43899537 0V.04399109H.3959961C.2999878 .04399109 .2999878 .054000856 .2999878 .08604431V.31829835H.4119873C.5119934 .31829835 .5369873 .29527284 .5369873 .20117188H.57899478V.47906495H.5369873C.5369873 .3852539 .5119934 .3623047 .4119873 .3623047H.2999878V.5968323C.2999878 .6277771 .2999878 .6347656 .34899903 .6347656H.5149994C.673996 .6347656 .7220001 .59584048 .74198916 .44114686H.7839966Z"/>
<path id="font_3_58" d="M.94599917 .23339844V.27738954L.79499819 .27339173C.7409973 .27339173 .6469879 .27339173 .5970001 .27738954V.23339844H.6469879C.7529907 .23339844 .7529907 .22239685 .7529907 .19142151V.12945557C.7529907 .10647583 .7529907 .06550598 .68499758 .040512086 .6349945 .021530152 .57398989 .021530152 .5609894 .021530152 .3929901 .021530152 .21398926 .111465457 .21398926 .34150697 .21398926 .57992556 .40098573 .6610718 .54599 .6610718 .6359863 .6610718 .7829895 .61198428 .8149872 .426651 .81700137 .41462709 .82899478 .41462709 .83699038 .41462709 .85899356 .41462709 .85899356 .42164613 .85899356 .442688V.677063C.85899356 .69407656 .85899356 .7050781 .84298709 .7050781 .83299258 .7050781 .8299866 .70106509 .82398989 .69306948L.7649994 .6159973C.71798709 .6550598 .644989 .7050781 .5279999 .7050781 .2869873 .7050781 .09700012 .53785708 .09700012 .34150697 .09700012 .15245056 .2749939-.022460938 .5339966-.022460938 .57099917-.022460938 .6239929-.020462037 .6749878-.0064697267 .7489929 .013534546 .7749939 .04951477 .7779999 .054504396 .8019867 .023529053 .83699038-.00047302247 .8450012-.00047302247 .85899356-.00047302247 .85899356 .012527466 .85899356 .027526856V.19342041C.85899356 .22439575 .85899356 .23339844 .9259949 .23339844H.94599917Z"/>
<path id="font_3_27" d="M.9089966 0V.04399109H.8829956C.82099917 .04399109 .80599978 .049987794 .7939911 .07698059L.5249939 .68981936C.5169983 .70780947 .5139923 .7158203 .48999024 .7158203 .47200013 .7158203 .46398927 .71180728 .45498658 .69181826L.19699097 .10298157C.1749878 .052993776 .12098694 .04399109 .070999149 .04399109V0C.10798645 .0029907227 .1499939 .0039978029 .18699646 .0039978029 .19999695 .0039978029 .2709961 .0029907227 .31698609 0V.04399109C.26098634 .043945314 .24099732 .06893921 .24099732 .0879364 .24099732 .09391785 .24299622 .09692383 .24598694 .104904178L.2979889 .22265625H.61898806L.6799927 .08293152C.6859894 .07093811 .6859894 .06793213 .6859894 .06793213 .6859894 .043945314 .6289978 .043945314 .59999087 .043945314V0L.7619934 .0039978029 .9089966 0M.59999087 .26664735H.31698609L.45799256 .58865359 .59999087 .26664735Z"/>
<path id="font_3_34" d="M.83699038 .184906C.83699038 .25585938 .7649994 .33680726 .6029968 .3577881 .70399478 .3737793 .8019867 .43174745 .8019867 .51168826 .8019867 .6046295 .6779938 .6826172 .5289917 .6826172H.08699036V.63861086H.116989139C.19799805 .63861086 .19799805 .62861636 .19799805 .597641V.08496094C.19799805 .053985597 .19799805 .04399109 .116989139 .04399109H.08699036V0H.56199648C.71598818-.0001373291 .83699038 .085861209 .83699038 .18486023V.184906M.69299319 .5107269C.69299319 .43780519 .6049957 .3718567 .49499513 .3718567H.29599V.600647C.29599 .6316223 .29599 .63861086 .34498597 .63861086H.5219879C.6289978 .638855 .69299319 .5728607 .69299319 .51086428V.5107269M.723999 .18592835C.723999 .110961917 .6409912 .04399109 .5239868 .04399109H.34498597C.29599 .04399109 .29599 .050994874 .29599 .081970218V.3388672H.5319977C.66600039 .33898927 .723999 .25099183 .723999 .18598938V.18592835Z"/>
</defs>
<use data-text="B" xlink:href="#font_1_34" transform="matrix(5.8286845,0,0,-5.8283355,24.915276,6.127411)"/>
<use data-text="&#x266d;" xlink:href="#font_2_1" transform="matrix(5.8286845,0,0,-5.8283355,29.816716,6.127411)"/>
<use data-text="M" xlink:href="#font_1_74" transform="matrix(5.8286845,0,0,-5.8283355,32.146528,6.127411)"/>
<use data-text="a" xlink:href="#font_1_28" transform="matrix(5.8286845,0,0,-5.8283355,38.68631,6.127411)"/>
<use data-text="j" xlink:href="#font_1_68" transform="matrix(5.8286845,0,0,-5.8283355,42.23015,6.127411)"/>
<use data-text="7" xlink:href="#font_1_100" transform="matrix(5.8286845,0,0,-5.8283355,44.340135,6.127411)"/>
<path transform="matrix(1.00009,0,0,-1.00003,-4.345108,150.18109)" d="M74.9472 23.49234C74.9472 27.42647 71.75803 30.61565 67.8239 30.61565 63.88976 30.61565 60.70058 27.42647 60.70058 23.49234 60.70058 19.5582 63.88976 16.36903 67.8239 16.36903 71.75803 16.36903 74.9472 19.5582 74.9472 23.49234ZM67.8239 23.49234" fill="#f2f2f2"/>
<path transform="matrix(1.00009,0,0,-1.00003,-4.345108,150.18109)" stroke-width=".3985" stroke-linecap="butt" stroke-miterlimit="10" stroke-linejoin="miter" fill="none" stroke="#7f807f" d="M74.9472 23.49234C74.9472 27.42647 71.75803 30.61565 67.8239 30.61565 63.88976 30.61565 60.70058 27.42647 60.70058 23.49234 60.70058 19.5582 63.88976 16.36903 67.8239 16.36903 71.75803 16.36903 74.9472 19.5582 74.9472 23.49234ZM67.8239 23.49234"/>
<use data-text="C" xlink:href="#font_3_42" transform="matrix(3.238136,0,0,-3.2379423,61.9332,127.79407)"/>
<path transform="matrix(1.00009,0,0,-1.00003,-4.345108,150.18109)" d="M61.38242 31.32314C61.38242 35.25728 58.19324 38.44646 54.25911 38.44646 50.32497 38.44646 47.13579 35.25728 47.13579 31.32314 47.13579 27.389 50.32497 24.19983 54.25911 24.19983 58.19324 24.19983 61.38242 27.389 61.38242 31.32314ZM54.25911 31.32314" fill="#f2f2f2"/>
<path transform="matrix(1.00009,0,0,-1.00003,-4.345108,150.18109)" stroke-width=".3985" stroke-linecap="butt" stroke-miterlimit="10" stroke-linejoin="miter" fill="none" stroke="#7f807f" d="M61.38242 31.32314C61.38242 35.25728 58.19324 38.44646 54.25911 38.44646 50.32497 38.44646 47.13579 35.25728 47.13579 31.32314 47.13579 27.389 50.32497 24.19983 54.25911 24.19983 58.19324 24.19983 61.38242 27.389 61.38242 31.32314ZM54.25911 31.32314"/>
<use data-text="C" xlink:href="#font_3_42" transform="matrix(3.238136,0,0,-3.2379423,46.748037,118.05578)"/>
<use data-text="&#x266f;" xlink:href="#font_4_2" transform="matrix(3.238136,0,0,-3.2379423,49.850114,118.05578)"/>
<use data-text="," xlink:href="#font_3_45" transform="matrix(3.238136,0,0,-3.2379423,51.78404,118.05578)"/>
<use data-text="D" xlink:href="#font_3_46" transform="matrix(3.238136,0,0,-3.2379423,47.326585,121.94159)"/>
<use data-text="&#x266d;" xlink:href="#font_4_1" transform="matrix(3.238136,0,0,-3.2379423,50.577527,121.94159)"/>
<path transform="matrix(1.00009,0,0,-1.00003,-4.345108,150.18109)" d="M47.81763 39.15392C47.81763 43.08806 44.62845 46.27724 40.69432 46.27724 36.76018 46.27724 33.57101 43.08806 33.57101 39.15392 33.57101 35.21979 36.76018 32.03061 40.69432 32.03061 44.62845 32.03061 47.81763 35.21979 47.81763 39.15392ZM40.69432 39.15392" fill="#f2f2f2"/>
<path transform="matrix(1.00009,0,0,-1.00003,-4.345108,150.18109)" stroke-width=".3985" stroke-linecap="butt" stroke-miterlimit="10" stroke-linejoin="miter" fill="none" stroke="#7f807f" d="M47.81763 39.15392C47.81763 43.08806 44.62845 46.27724 40.69432 46.27724 36.76018 46.27724 33.57101 43.08806 33.57101 39.15392 33.57101 35.21979 36.76018 32.03061 40.69432 32.03061 44.62845 32.03061 47.81763 35.21979 47.81763 39.15392ZM40.69432 39.15392"/>
<use data-text="D" xlink:href="#font_3_46" transform="matrix(3.238136,0,0,-3.2379423,34.727006,112.1316)"/>
<path transform="matrix(1.00009,0,0,-1.00003,-4.345108,150.18109)" d="M34.25285 46.98471C34.25285 50.91885 31.06367 54.10803 27.12953 54.10803 23.1954 54.10803 20.00623 50.91885 20.00623 46.98471 20.00623 43.05058 23.1954 39.8614 27.12953 39.8614 31.06367 39.8614 34.25285 43.05058 34.25285 46.98471ZM27.12953 46.98471" fill="#f2f2f2"/>
<path transform="matrix(1.00009,0,0,-1.00003,-4.345108,150.18109)" stroke-width=".3985" stroke-linecap="butt" stroke-miterlimit="10" stroke-linejoin="miter" fill="none" stroke="#7f807f" d="M34.25285 46.98471C34.25285 50.91885 31.06367 54.10803 27.12953 54.10803 23.1954 54.10803 20.00623 50.91885 20.00623 46.98471 20.00623 43.05058 23.1954 39.8614 27.12953 39.8614 31.06367 39.8614 34.25285 43.05058 34.25285 46.98471ZM27.12953 46.98471"/>
<use data-text="E" xlink:href="#font_3_49" transform="matrix(3.238136,0,0,-3.2379423,19.709855,102.1513)"/>
<use data-text="&#x266d;" xlink:href="#font_4_1" transform="matrix(3.238136,0,0,-3.2379423,22.62407,102.1513)"/>
<use data-text="," xlink:href="#font_3_45" transform="matrix(3.238136,0,0,-3.2379423,24.557991,102.1513)"/>
<use data-text="D" xlink:href="#font_3_46" transform="matrix(3.238136,0,0,-3.2379423,20.194149,106.03711)"/>
<use data-text="&#x266f;" xlink:href="#font_4_2" transform="matrix(3.238136,0,0,-3.2379423,23.445092,106.03711)"/>
<path transform="matrix(1.00009,0,0,-1.00003,-4.345108,150.18109)" d="M20.68808 54.8155C20.68808 58.74963 17.4989 61.93881 13.56476 61.93881 9.63063 61.93881 6.44145 58.74963 6.44145 54.8155 6.44145 50.88136 9.63063 47.69218 13.56476 47.69218 17.4989 47.69218 20.68808 50.88136 20.68808 54.8155ZM13.56476 54.8155" fill="#f2f2f2"/>
<path transform="matrix(1.00009,0,0,-1.00003,-4.345108,150.18109)" stroke-width=".3985" stroke-linecap="butt" stroke-miterlimit="10" stroke-linejoin="miter" fill="none" stroke="#7f807f" d="M20.68808 54.8155C20.68808 58.74963 17.4989 61.93881 13.56476 61.93881 9.63063 61.93881 6.44145 58.74963 6.44145 54.8155 6.44145 50.88136 9.63063 47.69218 13.56476 47.69218 17.4989 47.69218 20.68808 50.88136 20.68808 54.8155ZM13.56476 54.8155"/>
<use data-text="E" xlink:href="#font_3_49" transform="matrix(3.238136,0,0,-3.2379423,7.7629358,96.46313)"/>
<path transform="matrix(1.00009,0,0,-1.00003,-4.345108,150.18109)" d="M74.9472 39.15392C74.9472 43.08806 71.75803 46.27724 67.8239 46.27724 63.88976 46.27724 60.70058 43.08806 60.70058 39.15392 60.70058 35.21979 63.88976 32.03061 67.8239 32.03061 71.75803 32.03061 74.9472 35.21979 74.9472 39.15392ZM67.8239 39.15392" fill="#f2f2f2"/>
<path transform="matrix(1.00009,0,0,-1.00003,-4.345108,150.18109)" stroke-width=".3985" stroke-linecap="butt" stroke-miterlimit="10" stroke-linejoin="miter" fill="none" stroke="#7f807f" d="M74.9472 39.15392C74.9472 43.08806 71.75803 46.27724 67.8239 46.27724 63.88976 46.27724 60.70058 43.08806 60.70058 39.15392 60.70058 35.21979 63.88976 32.03061 67.8239 32.03061 71.75803 32.03061 74.9472 35.21979 74.9472 39.15392ZM67.8239 39.15392"/>
<use data-text="E" xlink:href="#font_3_49" transform="matrix(3.238136,0,0,-3.2379423,60.407514,109.98254)"/>
<use data-text="&#x266d;" xlink:href="#font_4_1" transform="matrix(3.238136,0,0,-3.2379423,63.321729,109.98254)"/>
<use data-text="," xlink:href="#font_3_45" transform="matrix(3.238136,0,0,-3.2379423,65.255649,109.98254)"/>
<use data-text="D" xlink:href="#font_3_46" transform="matrix(3.238136,0,0,-3.2379423,60.891809,113.86835)"/>
<use data-text="&#x266f;" xlink:href="#font_4_2" transform="matrix(3.238136,0,0,-3.2379423,64.142749,113.86835)"/>
<path transform="matrix(1.00009,0,0,-1.00003,-4.345108,150.18109)" d="M61.38242 46.98471C61.38242 50.91885 58.19324 54.10803 54.25911 54.10803 50.32497 54.10803 47.13579 50.91885 47.13579 46.98471 47.13579 43.05058 50.32497 39.8614 54.25911 39.8614 58.19324 39.8614 61.38242 43.05058 61.38242 46.98471ZM54.25911 46.98471" fill="#f2f2f2"/>
<path transform="matrix(1.00009,0,0,-1.00003,-4.345108,150.18109)" stroke-width=".3985" stroke-linecap="butt" stroke-miterlimit="10" stroke-linejoin="miter" fill="none" stroke="#7f807f" d="M61.38242 46.98471C61.38242 50.91885 58.19324 54.10803 54.25911 54.10803 50.32497 54.10803 47.13579 50.91885 47.13579 46.98471 47.13579 43.05058 50.32497 39.8614 54.25911 39.8614 58.19324 39.8614 61.38242 43.05058 61.38242 46.98471ZM54.25911 46.98471"/>
<use data-text="E" xlink:href="#font_3_49" transform="matrix(3.238136,0,0,-3.2379423,48.46159,104.294368)"/>
<path transform="matrix(1.00009,0,0,-1.00003,-4.345108,150.18109)" d="M47.81763 54.8155C47.81763 58.74963 44.62845 61.93881 40.69432 61.93881 36.76018 61.93881 33.57101 58.74963 33.57101 54.8155 33.57101 50.88136 36.76018 47.69218 40.69432 47.69218 44.62845 47.69218 47.81763 50.88136 47.81763 54.8155ZM40.69432 54.8155" fill="#cccccc"/>
<path transform="matrix(1.00009,0,0,-1.00003,-4.345108,150.18109)" stroke-width=".3985" stroke-linecap="butt" stroke-miterlimit="10" stroke-linejoin="miter" fill="none" stroke="#7f807f" d="M47.81763 54.8155C47.81763 58.74963 44.62845 61.93881 40.69432 61.93881 36.76018 61.93881 33.57101 58.74963 33.57101 54.8155 33.57101 50.88136 36.76018 47.69218 40.69432 47.69218 44.62845 47.69218 47.81763 50.88136 47.81763 54.8155ZM40.69432 54.8155"/>
<use data-text="F" xlink:href="#font_3_54" transform="matrix(3.238136,0,0,-3.2379423,34.951929,96.46313)"/>
<path transform="matrix(1.00009,0,0,-1.00003,-4.345108,150.18109)" d="M34.25285 62.6463C34.25285 66.58043 31.06367 69.7696 27.12953 69.7696 23.1954 69.7696 20.00623 66.58043 20.00623 62.6463 20.00623 58.71216 23.1954 55.52298 27.12953 55.52298 31.06367 55.52298 34.25285 58.71216 34.25285 62.6463ZM27.12953 62.6463" fill="#f2f2f2"/>
<path transform="matrix(1.00009,0,0,-1.00003,-4.345108,150.18109)" stroke-width=".3985" stroke-linecap="butt" stroke-miterlimit="10" stroke-linejoin="miter" fill="none" stroke="#7f807f" d="M34.25285 62.6463C34.25285 66.58043 31.06367 69.7696 27.12953 69.7696 23.1954 69.7696 20.00623 66.58043 20.00623 62.6463 20.00623 58.71216 23.1954 55.52298 27.12953 55.52298 31.06367 55.52298 34.25285 58.71216 34.25285 62.6463ZM27.12953 62.6463"/>
<use data-text="G" xlink:href="#font_3_58" transform="matrix(3.238136,0,0,-3.2379423,19.494687,86.48983)"/>
<use data-text="&#x266d;" xlink:href="#font_4_1" transform="matrix(3.238136,0,0,-3.2379423,22.839234,86.48983)"/>
<use data-text="," xlink:href="#font_3_45" transform="matrix(3.238136,0,0,-3.2379423,24.773156,86.48983)"/>
<use data-text="F" xlink:href="#font_3_54" transform="matrix(3.238136,0,0,-3.2379423,20.419068,90.37564)"/>
<use data-text="&#x266f;" xlink:href="#font_4_2" transform="matrix(3.238136,0,0,-3.2379423,23.220166,90.37564)"/>
<path transform="matrix(1.00009,0,0,-1.00003,-4.345108,150.18109)" d="M20.68808 70.47708C20.68808 74.41121 17.4989 77.60039 13.56476 77.60039 9.63063 77.60039 6.44145 74.41121 6.44145 70.47708 6.44145 66.54294 9.63063 63.35376 13.56476 63.35376 17.4989 63.35376 20.68808 66.54294 20.68808 70.47708ZM13.56476 70.47708" fill="#f2f2f2"/>
<path transform="matrix(1.00009,0,0,-1.00003,-4.345108,150.18109)" stroke-width=".3985" stroke-linecap="butt" stroke-miterlimit="10" stroke-linejoin="miter" fill="none" stroke="#7f807f" d="M20.68808 70.47708C20.68808 74.41121 17.4989 77.60039 13.56476 77.60039 9.63063 77.60039 6.44145 74.41121 6.44145 70.47708 6.44145 66.54294 9.63063 63.35376 13.56476 63.35376 17.4989 63.35376 20.68808 66.54294 20.68808 70.47708ZM13.56476 70.47708"/>
<use data-text="G" xlink:href="#font_3_58" transform="matrix(3.238136,0,0,-3.2379423,7.547764,80.80766)"/>
<path transform="matrix(1.00009,0,0,-1.00003,-4.345108,150.18109)" d="M74.9472 54.8155C74.9472 58.74963 71.75803 61.93881 67.8239 61.93881 63.88976 61.93881 60.70058 58.74963 60.70058 54.8155 60.70058 50.88136 63.88976 47.69218 67.8239 47.69218 71.75803 47.69218 74.9472 50.88136 74.9472 54.8155ZM67.8239 54.8155" fill="#f2f2f2"/>
<path transform="matrix(1.00009,0,0,-1.00003,-4.345108,150.18109)" stroke-width=".3985" stroke-linecap="butt" stroke-miterlimit="10" stroke-linejoin="miter" fill="none" stroke="#7f807f" d="M74.9472 54.8155C74.9472 58.74963 71.75803 61.93881 67.8239 61.93881 63.88976 61.93881 60.70058 58.74963 60.70058 54.8155 60.70058 50.88136 63.88976 47.69218 67.8239 47.69218 71.75803 47.69218 74.9472 50.88136 74.9472 54.8155ZM67.8239 54.8155"/>
<use data-text="G" xlink:href="#font_3_58" transform="matrix(3.238136,0,0,-3.2379423,60.192346,94.32107)"/>
<use data-text="&#x266d;" xlink:href="#font_4_1" transform="matrix(3.238136,0,0,-3.2379423,63.536893,94.32107)"/>
<use data-text="," xlink:href="#font_3_45" transform="matrix(3.238136,0,0,-3.2379423,65.47081,94.32107)"/>
<use data-text="F" xlink:href="#font_3_54" transform="matrix(3.238136,0,0,-3.2379423,61.116727,98.20688)"/>
<use data-text="&#x266f;" xlink:href="#font_4_2" transform="matrix(3.238136,0,0,-3.2379423,63.917825,98.20688)"/>
<path transform="matrix(1.00009,0,0,-1.00003,-4.345108,150.18109)" d="M61.38242 62.6463C61.38242 66.58043 58.19324 69.7696 54.25911 69.7696 50.32497 69.7696 47.13579 66.58043 47.13579 62.6463 47.13579 58.71216 50.32497 55.52298 54.25911 55.52298 58.19324 55.52298 61.38242 58.71216 61.38242 62.6463ZM54.25911 62.6463" fill="#f2f2f2"/>
<path transform="matrix(1.00009,0,0,-1.00003,-4.345108,150.18109)" stroke-width=".3985" stroke-linecap="butt" stroke-miterlimit="10" stroke-linejoin="miter" fill="none" stroke="#7f807f" d="M61.38242 62.6463C61.38242 66.58043 58.19324 69.7696 54.25911 69.7696 50.32497 69.7696 47.13579 66.58043 47.13579 62.6463 47.13579 58.71216 50.32497 55.52298 54.25911 55.52298 58.19324 55.52298 61.38242 58.71216 61.38242 62.6463ZM54.25911 62.6463"/>
<use data-text="G" xlink:href="#font_3_58" transform="matrix(3.238136,0,0,-3.2379423,48.246419,88.63889)"/>
<path transform="matrix(1.00009,0,0,-1.00003,-4.345108,150.18109)" d="M47.81763 70.47708C47.81763 74.41121 44.62845 77.60039 40.69432 77.60039 36.76018 77.60039 33.57101 74.41121 33.57101 70.47708 33.57101 66.54294 36.76018 63.35376 40.69432 63.35376 44.62845 63.35376 47.81763 66.54294 47.81763 70.47708ZM40.69432 70.47708" fill="#f2f2f2"/>
<path transform="matrix(1.00009,0,0,-1.00003,-4.345108,150.18109)" stroke-width=".3985" stroke-linecap="butt" stroke-miterlimit="10" stroke-linejoin="miter" fill="none" stroke="#7f807f" d="M47.81763 70.47708C47.81763 74.41121 44.62845 77.60039 40.69432 77.60039 36.76018 77.60039 33.57101 74.41121 33.57101 70.47708 33.57101 66.54294 36.76018 63.35376 40.69432 63.35376 44.62845 63.35376 47.81763 66.54294 47.81763 70.47708ZM40.69432 70.47708"/>
<use data-text="A" xlink:href="#font_3_27" transform="matrix(3.238136,0,0,-3.2379423,33.144765,78.65859)"/>
<use data-text="&#x266d;" xlink:href="#font_4_1" transform="matrix(3.238136,0,0,-3.2379423,36.3216,78.65859)"/>
<use data-text="," xlink:href="#font_3_45" transform="matrix(3.238136,0,0,-3.2379423,38.255525,78.65859)"/>
<use data-text="G" xlink:href="#font_3_58" transform="matrix(3.238136,0,0,-3.2379423,33.712919,82.5444)"/>
<use data-text="&#x266f;" xlink:href="#font_4_2" transform="matrix(3.238136,0,0,-3.2379423,37.05812,82.5444)"/>
<path transform="matrix(1.00009,0,0,-1.00003,-4.345108,150.18109)" d="M34.25285 78.30786C34.25285 82.24199 31.06367 85.43117 27.12953 85.43117 23.1954 85.43117 20.00623 82.24199 20.00623 78.30786 20.00623 74.37372 23.1954 71.18456 27.12953 71.18456 31.06367 71.18456 34.25285 74.37372 34.25285 78.30786ZM27.12953 78.30786" fill="#cccccc"/>
<path transform="matrix(1.00009,0,0,-1.00003,-4.345108,150.18109)" stroke-width=".3985" stroke-linecap="butt" stroke-miterlimit="10" stroke-linejoin="miter" fill="none" stroke="#7f807f" d="M34.25285 78.30786C34.25285 82.24199 31.06367 85.43117 27.12953 85.43117 23.1954 85.43117 20.00623 82.24199 20.00623 78.30786 20.00623 74.37372 23.1954 71.18456 27.12953 71.18456 31.06367 71.18456 34.25285 74.37372 34.25285 78.30786ZM27.12953 78.30786"/>
<use data-text="A" xlink:href="#font_3_27" transform="matrix(3.238136,0,0,-3.2379423,21.197842,73.030429)"/>
<path transform="matrix(1.00009,0,0,-1.00003,-4.345108,150.18109)" d="M20.68808 86.13866C20.68808 90.0728 17.4989 93.26198 13.56476 93.26198 9.63063 93.26198 6.44145 90.0728 6.44145 86.13866 6.44145 82.20453 9.63063 79.01535 13.56476 79.01535 17.4989 79.01535 20.68808 82.20453 20.68808 86.13866ZM13.56476 86.13866" fill="#cccccc"/>
<path transform="matrix(1.00009,0,0,-1.00003,-4.345108,150.18109)" stroke-width=".3985" stroke-linecap="butt" stroke-miterlimit="10" stroke-linejoin="miter" fill="none" stroke="#7f807f" d="M20.68808 86.13866C20.68808 90.0728 17.4989 93.26198 13.56476 93.26198 9.63063 93.26198 6.44145 90.0728 6.44145 86.13866 6.44145 82.20453 9.63063 79.01535 13.56476 79.01535 17.4989 79.01535 20.68808 82.20453 20.68808 86.13866ZM13.56476 86.13866"/>
<use data-text="B" xlink:href="#font_3_34" transform="matrix(3.238136,0,0,-3.2379423,6.087082,62.996126)"/>
<use data-text="&#x266d;" xlink:href="#font_4_1" transform="matrix(3.238136,0,0,-3.2379423,9.114403,62.996126)"/>
<use data-text="," xlink:href="#font_3_45" transform="matrix(3.238136,0,0,-3.2379423,11.048325,62.996126)"/>
<use data-text="A" xlink:href="#font_3_27" transform="matrix(3.238136,0,0,-3.2379423,6.6649858,66.881938)"/>
<use data-text="&#x266f;" xlink:href="#font_4_2" transform="matrix(3.238136,0,0,-3.2379423,9.841171,66.881938)"/>
<path transform="matrix(1.00009,0,0,-1.00003,-4.345108,150.18109)" d="M74.9472 70.47708C74.9472 74.41121 71.75803 77.60039 67.8239 77.60039 63.88976 77.60039 60.70058 74.41121 60.70058 70.47708 60.70058 66.54294 63.88976 63.35376 67.8239 63.35376 71.75803 63.35376 74.9472 66.54294 74.9472 70.47708ZM67.8239 70.47708" fill="#f2f2f2"/>
<path transform="matrix(1.00009,0,0,-1.00003,-4.345108,150.18109)" stroke-width=".3985" stroke-linecap="butt" stroke-miterlimit="10" stroke-linejoin="miter" fill="none" stroke="#7f807f" d="M74.9472 70.47708C74.9472 74.41121 71.75803 77.60039 67.8239 77.60039 63.88976 77.60039 60.70058 74.41121 60.70058 70.47708 60.70058 66.54294 63.88976 63.35376 67.8239 63.35376 71.75803 63.35376 74.9472 66.54294 74.9472 70.47708ZM67.8239 70.47708"/>
<use data-text="A" xlink:href="#font_3_27" transform="matrix(3.238136,0,0,-3.2379423,61.8955,80.861667)"/>
<path transform="matrix(1.00009,0,0,-1.00003,-4.345108,150.18109)" d="M61.38242 78.30786C61.38242 82.24199 58.19324 85.43117 54.25911 85.43117 50.32497 85.43117 47.13579 82.24199 47.13579 78.30786 47.13579 74.37372 50.32497 71.18456 54.25911 71.18456 58.19324 71.18456 61.38242 74.37372 61.38242 78.30786ZM54.25911 78.30786" fill="#f2f2f2"/>
<path transform="matrix(1.00009,0,0,-1.00003,-4.345108,150.18109)" stroke-width=".3985" stroke-linecap="butt" stroke-miterlimit="10" stroke-linejoin="miter" fill="none" stroke="#7f807f" d="M61.38242 78.30786C61.38242 82.24199 58.19324 85.43117 54.25911 85.43117 50.32497 85.43117 47.13579 82.24199 47.13579 78.30786 47.13579 74.37372 50.32497 71.18456 54.25911 71.18456 58.19324 71.18456 61.38242 74.37372 61.38242 78.30786ZM54.25911 78.30786"/>
<use data-text="B" xlink:href="#font_3_34" transform="matrix(3.238136,0,0,-3.2379423,46.785737,70.82736)"/>
<use data-text="&#x266d;" xlink:href="#font_4_1" transform="matrix(3.238136,0,0,-3.2379423,49.813058,70.82736)"/>
<use data-text="," xlink:href="#font_3_45" transform="matrix(3.238136,0,0,-3.2379423,51.74698,70.82736)"/>
<use data-text="A" xlink:href="#font_3_27" transform="matrix(3.238136,0,0,-3.2379423,47.36364,74.71317)"/>
<use data-text="&#x266f;" xlink:href="#font_4_2" transform="matrix(3.238136,0,0,-3.2379423,50.539827,74.71317)"/>
<path transform="matrix(1.00009,0,0,-1.00003,-4.345108,150.18109)" d="M47.81763 86.13866C47.81763 90.0728 44.62845 93.26198 40.69432 93.26198 36.76018 93.26198 33.57101 90.0728 33.57101 86.13866 33.57101 82.20453 36.76018 79.01535 40.69432 79.01535 44.62845 79.01535 47.81763 82.20453 47.81763 86.13866ZM40.69432 86.13866" fill="#f2f2f2"/>
<path transform="matrix(1.00009,0,0,-1.00003,-4.345108,150.18109)" stroke-width=".3985" stroke-linecap="butt" stroke-miterlimit="10" stroke-linejoin="miter" fill="none" stroke="#7f807f" d="M47.81763 86.13866C47.81763 90.0728 44.62845 93.26198 40.69432 93.26198 36.76018 93.26198 33.57101 90.0728 33.57101 86.13866 33.57101 82.20453 36.76018 79.01535 40.69432 79.01535 44.62845 79.01535 47.81763 82.20453 47.81763 86.13866ZM40.69432 86.13866"/>
<use data-text="B" xlink:href="#font_3_34" transform="matrix(3.238136,0,0,-3.2379423,34.838815,65.146198)"/>
<path transform="matrix(1.00009,0,0,-1.00003,-4.345108,150.18109)" d="M34.25285 93.96945C34.25285 97.9036 31.06367 101.09277 27.12953 101.09277 23.1954 101.09277 20.00623 97.9036 20.00623 93.96945 20.00623 90.03532 23.1954 86.84615 27.12953 86.84615 31.06367 86.84615 34.25285 90.03532 34.25285 93.96945ZM27.12953 93.96945" fill="#f2f2f2"/>
<path transform="matrix(1.00009,0,0,-1.00003,-4.345108,150.18109)" stroke-width=".3985" stroke-linecap="butt" stroke-miterlimit="10" stroke-linejoin="miter" fill="none" stroke="#7f807f" d="M34.25285 93.96945C34.25285 97.9036 31.06367 101.09277 27.12953 101.09277 23.1954 101.09277 20.00623 97.9036 20.00623 93.96945 20.00623 90.03532 23.1954 86.84615 27.12953 86.84615 31.06367 86.84615 34.25285 90.03532 34.25285 93.96945ZM27.12953 93.96945"/>
<use data-text="C" xlink:href="#font_3_42" transform="matrix(3.238136,0,0,-3.2379423,21.235543,57.314954)"/>
<path transform="matrix(1.00009,0,0,-1.00003,-4.345108,150.18109)" d="M20.68808 101.80023C20.68808 105.73438 17.4989 108.92355 13.56476 108.92355 9.63063 108.92355 6.44145 105.73438 6.44145 101.80023 6.44145 97.8661 9.63063 94.67693 13.56476 94.67693 17.4989 94.67693 20.68808 97.8661 20.68808 101.80023ZM13.56476 101.80023" fill="#f2f2f2"/>
<path transform="matrix(1.00009,0,0,-1.00003,-4.345108,150.18109)" stroke-width=".3985" stroke-linecap="butt" stroke-miterlimit="10" stroke-linejoin="miter" fill="none" stroke="#7f807f" d="M20.68808 101.80023C20.68808 105.73438 17.4989 108.92355 13.56476 108.92355 9.63063 108.92355 6.44145 105.73438 6.44145 101.80023 6.44145 97.8661 9.63063 94.67693 13.56476 94.67693 17.4989 94.67693 20.68808 97.8661 20.68808 101.80023ZM13.56476 101.80023"/>
<use data-text="C" xlink:href="#font_3_42" transform="matrix(3.238136,0,0,-3.2379423,6.0493814,47.57666)"/>
<use data-text="&#x266f;" xlink:href="#font_4_2" transform="matrix(3.238136,0,0,-3.2379423,9.151459,47.57666)"/>
<use data-text="," xlink:href="#font_3_45" transform="matrix(3.238136,0,0,-3.2379423,11.085384,47.57666)"/>
<use data-text="D" xlink:href="#font_3_46" transform="matrix(3.238136,0,0,-3.2379423,6.6279299,51.46247)"/>
<use data-text="&#x266d;" xlink:href="#font_4_1" transform="matrix(3.238136,0,0,-3.2379423,9.878872,51.46247)"/>
<path transform="matrix(1.00009,0,0,-1.00003,-4.345108,150.18109)" d="M74.9472 86.13866C74.9472 90.0728 71.75803 93.26198 67.8239 93.26198 63.88976 93.26198 60.70058 90.0728 60.70058 86.13866 60.70058 82.20453 63.88976 79.01535 67.8239 79.01535 71.75803 79.01535 74.9472 82.20453 74.9472 86.13866ZM67.8239 86.13866" fill="#f2f2f2"/>
<path transform="matrix(1.00009,0,0,-1.00003,-4.345108,150.18109)" stroke-width=".3985" stroke-linecap="butt" stroke-miterlimit="10" stroke-linejoin="miter" fill="none" stroke="#7f807f" d="M74.9472 86.13866C74.9472 90.0728 71.75803 93.26198 67.8239 93.26198 63.88976 93.26198 60.70058 90.0728 60.70058 86.13866 60.70058 82.20453 63.88976 79.01535 67.8239 79.01535 71.75803 79.01535 74.9472 82.20453 74.9472 86.13866ZM67.8239 86.13866"/>
<use data-text="C" xlink:href="#font_3_42" transform="matrix(3.238136,0,0,-3.2379423,61.9332,65.146198)"/>
<path transform="matrix(1.00009,0,0,-1.00003,-4.345108,150.18109)" d="M61.38242 93.96945C61.38242 97.9036 58.19324 101.09277 54.25911 101.09277 50.32497 101.09277 47.13579 97.9036 47.13579 93.96945 47.13579 90.03532 50.32497 86.84615 54.25911 86.84615 58.19324 86.84615 61.38242 90.03532 61.38242 93.96945ZM54.25911 93.96945" fill="#f2f2f2"/>
<path transform="matrix(1.00009,0,0,-1.00003,-4.345108,150.18109)" stroke-width=".3985" stroke-linecap="butt" stroke-miterlimit="10" stroke-linejoin="miter" fill="none" stroke="#7f807f" d="M61.38242 93.96945C61.38242 97.9036 58.19324 101.09277 54.25911 101.09277 50.32497 101.09277 47.13579 97.9036 47.13579 93.96945 47.13579 90.03532 50.32497 86.84615 54.25911 86.84615 58.19324 86.84615 61.38242 90.03532 61.38242 93.96945ZM54.25911 93.96945"/>
<use data-text="C" xlink:href="#font_3_42" transform="matrix(3.238136,0,0,-3.2379423,46.748037,55.407899)"/>
<use data-text="&#x266f;" xlink:href="#font_4_2" transform="matrix(3.238136,0,0,-3.2379423,49.850114,55.407899)"/>
<use data-text="," xlink:href="#font_3_45" transform="matrix(3.238136,0,0,-3.2379423,51.78404,55.407899)"/>
<use data-text="D" xlink:href="#font_3_46" transform="matrix(3.238136,0,0,-3.2379423,47.326585,59.29371)"/>
<use data-text="&#x266d;" xlink:href="#font_4_1" transform="matrix(3.238136,0,0,-3.2379423,50.577527,59.29371)"/>
<path transform="matrix(1.00009,0,0,-1.00003,-4.345108,150.18109)" d="M47.81763 101.80023C47.81763 105.73438 44.62845 108.92355 40.69432 108.92355 36.76018 108.92355 33.57101 105.73438 33.57101 101.80023 33.57101 97.8661 36.76018 94.67693 40.69432 94.67693 44.62845 94.67693 47.81763 97.8661 47.81763 101.80023ZM40.69432 101.80023" fill="#cccccc"/>
<path transform="matrix(1.00009,0,0,-1.00003,-4.345108,150.18109)" stroke-width=".3985" stroke-linecap="butt" stroke-miterlimit="10" stroke-linejoin="miter" fill="none" stroke="#7f807f" d="M47.81763 101.80023C47.81763 105.73438 44.62845 108.92355 40.69432 108.92355 36.76018 108.92355 33.57101 105.73438 33.57101 101.80023 33.57101 97.8661 36.76018 94.67693 40.69432 94.67693 44.62845 94.67693 47.81763 97.8661 47.81763 101.80023ZM40.69432 101.80023"/>
<use data-text="D" xlink:href="#font_3_46" transform="matrix(3.238136,0,0,-3.2379423,34.727006,49.48372)"/>
<path transform="matrix(1.00009,0,0,-1.00003,-4.345108,150.18109)" d="M34.25285 109.63103C34.25285 113.56516 31.06367 116.75433 27.12953 116.75433 23.1954 116.75433 20.00623 113.56516 20.00623 109.63103 20.00623 105.69688 23.1954 102.5077 27.12953 102.5077 31.06367 102.5077 34.25285 105.69688 34.25285 109.63103ZM27.12953 109.63103" fill="#f2f2f2"/>
<path transform="matrix(1.00009,0,0,-1.00003,-4.345108,150.18109)" stroke-width=".3985" stroke-linecap="butt" stroke-miterlimit="10" stroke-linejoin="miter" fill="none" stroke="#7f807f" d="M34.25285 109.63103C34.25285 113.56516 31.06367 116.75433 27.12953 116.75433 23.1954 116.75433 20.00623 113.56516 20.00623 109.63103 20.00623 105.69688 23.1954 102.5077 27.12953 102.5077 31.06367 102.5077 34.25285 105.69688 34.25285 109.63103ZM27.12953 109.63103"/>
<use data-text="E" xlink:href="#font_3_49" transform="matrix(3.238136,0,0,-3.2379423,19.709855,39.503419)"/>
<use data-text="&#x266d;" xlink:href="#font_4_1" transform="matrix(3.238136,0,0,-3.2379423,22.62407,39.503419)"/>
<use data-text="," xlink:href="#font_3_45" transform="matrix(3.238136,0,0,-3.2379423,24.557991,39.503419)"/>
<use data-text="D" xlink:href="#font_3_46" transform="matrix(3.238136,0,0,-3.2379423,20.194149,43.38923)"/>
<use data-text="&#x266f;" xlink:href="#font_4_2" transform="matrix(3.238136,0,0,-3.2379423,23.445092,43.38923)"/>
<path transform="matrix(1.00009,0,0,-1.00003,-4.345108,150.18109)" d="M20.68808 117.4618C20.68808 121.39594 17.4989 124.58511 13.56476 124.58511 9.63063 124.58511 6.44145 121.39594 6.44145 117.4618 6.44145 113.52766 9.63063 110.33849 13.56476 110.33849 17.4989 110.33849 20.68808 113.52766 20.68808 117.4618ZM13.56476 117.4618" fill="#f2f2f2"/>
<path transform="matrix(1.00009,0,0,-1.00003,-4.345108,150.18109)" stroke-width=".3985" stroke-linecap="butt" stroke-miterlimit="10" stroke-linejoin="miter" fill="none" stroke="#7f807f" d="M20.68808 117.4618C20.68808 121.39594 17.4989 124.58511 13.56476 124.58511 9.63063 124.58511 6.44145 121.39594 6.44145 117.4618 6.44145 113.52766 9.63063 110.33849 13.56476 110.33849 17.4989 110.33849 20.68808 113.52766 20.68808 117.4618ZM13.56476 117.4618"/>
<use data-text="E" xlink:href="#font_3_49" transform="matrix(3.238136,0,0,-3.2379423,7.7629358,33.815248)"/>
<path transform="matrix(1.00009,0,0,-1.00003,-4.345108,150.18109)" d="M74.9472 101.80023C74.9472 105.73438 71.75803 108.92355 67.8239 108.92355 63.88976 108.92355 60.70058 105.73438 60.70058 101.80023 60.70058 97.8661 63.88976 94.67693 67.8239 94.67693 71.75803 94.67693 74.9472 97.8661 74.9472 101.80023ZM67.8239 101.80023" fill="#f2f2f2"/>
<path transform="matrix(1.00009,0,0,-1.00003,-4.345108,150.18109)" stroke-width=".3985" stroke-linecap="butt" stroke-miterlimit="10" stroke-linejoin="miter" fill="none" stroke="#7f807f" d="M74.9472 101.80023C74.9472 105.73438 71.75803 108.92355 67.8239 108.92355 63.88976 108.92355 60.70058 105.73438 60.70058 101.80023 60.70058 97.8661 63.88976 94.67693 67.8239 94.67693 71.75803 94.67693 74.9472 97.8661 74.9472 101.80023ZM67.8239 101.80023"/>
<use data-text="E" xlink:href="#font_3_49" transform="matrix(3.238136,0,0,-3.2379423,60.407514,47.334653)"/>
<use data-text="&#x266d;" xlink:href="#font_4_1" transform="matrix(3.238136,0,0,-3.2379423,63.321729,47.334653)"/>
<use data-text="," xlink:href="#font_3_45" transform="matrix(3.238136,0,0,-3.2379423,65.255649,47.334653)"/>
<use data-text="D" xlink:href="#font_3_46" transform="matrix(3.238136,0,0,-3.2379423,60.891809,51.220464)"/>
<use data-text="&#x266f;" xlink:href="#font_4_2" transform="matrix(3.238136,0,0,-3.2379423,64.142749,51.220464)"/>
<path transform="matrix(1.00009,0,0,-1.00003,-4.345108,150.18109)" d="M61.38242 109.63103C61.38242 113.56516 58.19324 116.75433 54.25911 116.75433 50.32497 116.75433 47.13579 113.56516 47.13579 109.63103 47.13579 105.69688 50.32497 102.5077 54.25911 102.5077 58.19324 102.5077 61.38242 105.69688 61.38242 109.63103ZM54.25911 109.63103" fill="#f2f2f2"/>
<path transform="matrix(1.00009,0,0,-1.00003,-4.345108,150.18109)" stroke-width=".3985" stroke-linecap="butt" stroke-miterlimit="10" stroke-linejoin="miter" fill="none" stroke="#7f807f" d="M61.38242 109.63103C61.38242 113.56516 58.19324 116.75433 54.25911 116.75433 50.32497 116.75433 47.13579 113.56516 47.13579 109.63103 47.13579 105.69688 50.32497 102.5077 54.25911 102.5077 58.19324 102.5077 61.38242 105.69688 61.38242 109.63103ZM54.25911 109.63103"/>
<use data-text="E" xlink:href="#font_3_49" transform="matrix(3.238136,0,0,-3.2379423,48.46159,41.646486)"/>
<path transform="matrix(1.00009,0,0,-1.00003,-4.345108,150.18109)" d="M47.81763 117.4618C47.81763 121.39594 44.62845 124.58511 40.69432 124.58511 36.76018 124.58511 33.57101 121.39594 33.57101 117.4618 33.57101 113.52766 36.76018 110.33849 40.69432 110.33849 44.62845 110.33849 47.81763 113.52766 47.81763 117.4618ZM40.69432 117.4618" fill="#f2f2f2"/>
<path transform="matrix(1.00009,0,0,-1.00003,-4.345108,150.18109)" stroke-width=".3985" stroke-linecap="butt" stroke-miterlimit="10" stroke-linejoin="miter" fill="none" stroke="#7f807f" d="M47.81763 117.4618C47.81763 121.39594 44.62845 124.58511 40.69432 124.58511 36.76018 124.58511 33.57101 121.39594 33.57101 117.4618 33.57101 113.52766 36.76018 110.33849 40.69432 110.33849 44.62845 110.33849 47.81763 113.52766 47.81763 117.4618ZM40.69432 117.4618"/>
<use data-text="F" xlink:href="#font_3_54" transform="matrix(3.238136,0,0,-3.2379423,34.951929,33.815248)"/>
<path transform="matrix(1.00009,0,0,-1.00003,-4.345108,150.18109)" d="M34.25285 125.2926C34.25285 129.22673 31.06367 132.41591 27.12953 132.41591 23.1954 132.41591 20.00623 129.22673 20.00623 125.2926 20.00623 121.35846 23.1954 118.16928 27.12953 118.16928 31.06367 118.16928 34.25285 121.35846 34.25285 125.2926ZM27.12953 125.2926" fill="#f2f2f2"/>
<path transform="matrix(1.00009,0,0,-1.00003,-4.345108,150.18109)" stroke-width=".3985" stroke-linecap="butt" stroke-miterlimit="10" stroke-linejoin="miter" fill="none" stroke="#7f807f" d="M34.25285 125.2926C34.25285 129.22673 31.06367 132.41591 27.12953 132.41591 23.1954 132.41591 20.00623 129.22673 20.00623 125.2926 20.00623 121.35846 23.1954 118.16928 27.12953 118.16928 31.06367 118.16928 34.25285 121.35846 34.25285 125.2926ZM27.12953 125.2926"/>
<use data-text="G" xlink:href="#font_3_58" transform="matrix(3.238136,0,0,-3.2379423,19.494687,23.84195)"/>
<use data-text="&#x266d;" xlink:href="#font_4_1" transform="matrix(3.238136,0,0,-3.2379423,22.839234,23.84195)"/>
<use data-text="," xlink:href="#font_3_45" transform="matrix(3.238136,0,0,-3.2379423,24.773156,23.84195)"/>
<use data-text="F" xlink:href="#font_3_54" transform="matrix(3.238136,0,0,-3.2379423,20.419068,27.72776)"/>
<use data-text="&#x266f;" xlink:href="#font_4_2" transform="matrix(3.238136,0,0,-3.2379423,23.220166,27.72776)"/>
<path transform="matrix(1.00009,0,0,-1.00003,-4.345108,150.18109)" d="M20.68808 133.1234C20.68808 137.05753 17.4989 140.2467 13.56476 140.2467 9.63063 140.2467 6.44145 137.05753 6.44145 133.1234 6.44145 129.18927 9.63063 126.00009 13.56476 126.00009 17.4989 126.00009 20.68808 129.18927 20.68808 133.1234ZM13.56476 133.1234" fill="#f2f2f2"/>
<path transform="matrix(1.00009,0,0,-1.00003,-4.345108,150.18109)" stroke-width=".3985" stroke-linecap="butt" stroke-miterlimit="10" stroke-linejoin="miter" fill="none" stroke="#7f807f" d="M20.68808 133.1234C20.68808 137.05753 17.4989 140.2467 13.56476 140.2467 9.63063 140.2467 6.44145 137.05753 6.44145 133.1234 6.44145 129.18927 9.63063 126.00009 13.56476 126.00009 17.4989 126.00009 20.68808 129.18927 20.68808 133.1234ZM13.56476 133.1234"/>
<use data-text="G" xlink:href="#font_3_58" transform="matrix(3.238136,0,0,-3.2379423,7.547764,18.159783)"/>
</svg>
