<svg xmlns="http://www.w3.org/2000/svg" xmlns:xlink="http://www.w3.org/1999/xlink" xmlns:inkscape="http://www.inkscape.org/namespaces/inkscape" version="1.1" width="100" height="118" viewBox="0 0 100 118">
<defs>
<path id="font_1_42" d="M.8600006 .23370362C.8600006 .24972534 .85598757 .25473023 .83898928 .25473023 .8279877 .25473023 .81900027 .25473023 .81799319 .23771668 .80999758 .08558655 .6649933 .021530152 .5479889 .021530152 .4059906 .021530152 .21398926 .099594119 .21398926 .34179688 .21398926 .58000186 .4019928 .6610718 .5469971 .6610718 .6369934 .6610718 .7839966 .61302188 .81599429 .42686463 .81799319 .41485597 .8299866 .41485597 .83799746 .41485597 .8600006 .41485597 .8600006 .42185975 .8600006 .44288636V.677063C.8600006 .69407656 .8600006 .7050781 .84399417 .7050781 .83399966 .7050781 .83099368 .70106509 .82499697 .69306948L.7659912 .61602786C.7049866 .66807559 .6279907 .7050781 .5289917 .7050781 .2869873 .7050781 .09700012 .53796389 .09700012 .34179688 .09700012 .14363098 .2869873-.022460938 .5299988-.022460938 .72299197-.022460938 .8600006 .1006012 .8600006 .23370362Z"/>
<path id="font_2_2" d="M.3809967-.023864747V-.12182617C.3809967-.1388092 .3809967-.15480042 .397995-.15480042 .3999939-.15480042 .4139862-.15180969 .4189911-.14581299 .4229889-.1408081 .4229889-.1368103 .4229889-.11882019V-.010879517C.43399049-.007873535 .44699098-.0038757325 .45700074 .00012207031 .47200013 .0051116945 .47200013 .009109497 .47200013 .033096315V.064086917C.47200013 .08308411 .47200013 .097076419 .45498658 .097076419 .44799806 .097076419 .42900086 .09007263 .4229889 .08807373V.41990663C.43399049 .4229126 .44699098 .4269104 .45700074 .4309082 .47200013 .43589784 .47200013 .43989564 .47200013 .46388246V.49487306C.47200013 .513855 .47200013 .5278473 .45498658 .5278473 .44799806 .5278473 .42900086 .52085879 .4229889 .51885989V.68577578C.4229889 .7027588 .4229889 .71777346 .4059906 .71777346 .40499879 .71777346 .3899994 .7157593 .3849945 .7097626 .3809967 .70477297 .3809967 .7007599 .3809967 .6827698V.5058594L.21598816 .45489503V.6218109C.21598816 .63879397 .21598816 .65478518 .19898987 .65478518 .19699097 .65478518 .18299866 .65179446 .17799378 .6457977 .17399597 .64079287 .17399597 .63679507 .17399597 .61880496V.44189454C.16299439 .4389038 .14898682 .434906 .13999939 .4309082 .125 .42590333 .125 .41990663 .125 .3979187V.3669281C.125 .34794618 .125 .33395387 .14199829 .33395387 .14898682 .33395387 .16799927 .34094239 .17399597 .34294129V.011108398C.16299439 .008117676 .14898682 .004119873 .13999939 .00012207031 .125-.0048828127 .125-.010879517 .125-.03286743V-.06384277C.125-.082839969 .125-.096832279 .14199829-.096832279 .14898682-.096832279 .16799927-.08982849 .17399597-.08782959V-.18579102C.17399597-.20277405 .17399597-.21777344 .19099427-.21777344 .19198609-.21777344 .20698548-.21577454 .21199036-.20977783 .21598816-.20478821 .21598816-.20077515 .21598816-.18278504V-.07484436L.3809967-.023864747M.3809967 .4069214V.0750885L.21598816 .024108887V.35594178L.3809967 .4069214Z"/>
<path id="font_1_45" d="M.27598573 .009994507C.27598573 .07299805 .24899292 .12199402 .20098877 .12199402 .1619873 .12199402 .13999939 .09199524 .13999939 .06098938 .13999939 .02999878 .1619873 0 .20098877 0 .22698975 0 .24299622 .01499939 .24299622 .01499939 .24299622-.057113649 .21398926-.11720276 .1599884-.16229248 .1519928-.16929627 .15098572-.17030335 .15098572-.17730713 .15098572-.18632508 .16099549-.19433594 .16799927-.19433594 .18199158-.19433594 .27598573-.11621094 .27598573 .009994507Z"/>
<path id="font_1_46" d="M.9059906 .33580018C.9059906 .5226898 .7389984 .6826172 .5249939 .6826172H.084991458V.63861086C.10899353 .63861086 .13899231 .63861086 .16099549 .63661196 .19599915 .6336212 .19599915 .6206207 .19599915 .5956421V.08695984C.19599915 .0619812 .19599915 .04899597 .16099549 .04598999 .13899231 .04399109 .10699463 .04399109 .084991458 .04399109V0H.5249939C.7369995 0 .9059906 .15092469 .9059906 .33580018M.79299929 .33580018C.79299929 .24786377 .772995 .17390442 .71598818 .11894226 .68299868 .08796692 .6119995 .04399109 .49598695 .04399109H.34899903C.2979889 .04399109 .2979889 .049987794 .2979889 .083969119V.5986328C.2979889 .63261416 .2979889 .63861086 .34899903 .63861086H.49598695C.61499026 .63861086 .6859894 .5886383 .71299746 .56266787 .75 .52568057 .79299929 .46672059 .79299929 .33580018Z"/>
<path id="font_2_1" d="M.16699219 .71698C.16699219 .7389984 .16699219 .75 .1459961 .75 .125 .75 .125 .7369995 .125 .71698V.010543823C.125-.011474609 .125-.022460938 .1459961-.022460938 .16299439-.022460938 .23498535 .02154541 .25898744 .035568239 .34399415 .08760071 .47200013 .17668152 .47200013 .32080079 .47200013 .4098816 .3889923 .46289063 .3019867 .46289063 .2689972 .46289063 .21299744 .45788575 .16699219 .42788697V.71698M.16699219 .3368225C.16699219 .36083985 .16699219 .38085938 .20399475 .39587403 .23199463 .4078827 .2679901 .4098816 .2869873 .4098816 .35099793 .4098816 .375 .36184693 .375 .31980897 .375 .19169617 .25898744 .09561157 .16699219 .031555177V.3368225Z"/>
<path id="font_1_49" d="M.83599856 .27101136H.7939911C.7649994 .10699463 .7259979 .04399109 .5349884 .04399109H.34899903C.2999878 .04399109 .2999878 .050994874 .2999878 .08200073V.3300171H.41600038C.5159912 .3300171 .5439911 .30900575 .5439911 .2130127H.58599856V.49090577H.5439911C.5439911 .394989 .5159912 .37402345 .41600038 .37402345H.2999878V.59680178C.2999878 .62776187 .2999878 .6347656 .34899903 .6347656H.526001C.69299319 .6347656 .73799136 .59477236 .7599945 .44082643H.8019867L.7689972 .6787567H.08299255V.6347656H.11299133C.19400025 .6347656 .19400025 .62475588 .19400025 .59376528V.0849762C.19400025 .053985597 .19400025 .04399109 .11299133 .04399109H.08299255V0H.7859955L.83599856 .27101136Z"/>
<path id="font_1_54" d="M.7839966 .44114686 .7509918 .6787567H.08299255V.6347656H.11299133C.19400025 .6347656 .19400025 .6247711 .19400025 .59384158V.08503723C.19400025 .054000856 .19400025 .04399109 .11299133 .04399109H.08299255V0L.2519989 .0039978029C.30899049 .0039978029 .3829956 .0039978029 .43899537 0V.04399109H.3959961C.2999878 .04399109 .2999878 .054000856 .2999878 .08604431V.31829835H.4119873C.5119934 .31829835 .5369873 .29527284 .5369873 .20117188H.57899478V.47906495H.5369873C.5369873 .3852539 .5119934 .3623047 .4119873 .3623047H.2999878V.5968323C.2999878 .6277771 .2999878 .6347656 .34899903 .6347656H.5149994C.673996 .6347656 .7220001 .59584048 .74198916 .44114686H.7839966Z"/>
<path id="font_1_58" d="M.94599917 .23339844V.27738954L.79499819 .27339173C.7409973 .27339173 .6469879 .27339173 .5970001 .27738954V.23339844H.6469879C.7529907 .23339844 .7529907 .22239685 .7529907 .19142151V.12945557C.7529907 .10647583 .7529907 .06550598 .68499758 .040512086 .6349945 .021530152 .57398989 .021530152 .5609894 .021530152 .3929901 .021530152 .21398926 .111465457 .21398926 .34150697 .21398926 .57992556 .40098573 .6610718 .54599 .6610718 .6359863 .6610718 .7829895 .61198428 .8149872 .426651 .81700137 .41462709 .82899478 .41462709 .83699038 .41462709 .85899356 .41462709 .85899356 .42164613 .85899356 .442688V.677063C.85899356 .69407656 .85899356 .7050781 .84298709 .7050781 .83299258 .7050781 .8299866 .70106509 .82398989 .69306948L.7649994 .6159973C.71798709 .6550598 .644989 .7050781 .5279999 .7050781 .2869873 .7050781 .09700012 .53785708 .09700012 .34150697 .09700012 .15245056 .2749939-.022460938 .5339966-.022460938 .57099917-.022460938 .6239929-.020462037 .6749878-.0064697267 .7489929 .013534546 .7749939 .04951477 .7779999 .054504396 .8019867 .023529053 .83699038-.00047302247 .8450012-.00047302247 .85899356-.00047302247 .85899356 .012527466 .85899356 .027526856V.19342041C.85899356 .22439575 .85899356 .23339844 .9259949 .23339844H.94599917Z"/>
<path id="font_1_27" d="M.9089966 0V.04399109H.8829956C.82099917 .04399109 .80599978 .049987794 .7939911 .07698059L.5249939 .68981936C.5169983 .70780947 .5139923 .7158203 .48999024 .7158203 .47200013 .7158203 .46398927 .71180728 .45498658 .69181826L.19699097 .10298157C.1749878 .052993776 .12098694 .04399109 .070999149 .04399109V0C.10798645 .0029907227 .1499939 .0039978029 .18699646 .0039978029 .19999695 .0039978029 .2709961 .0029907227 .31698609 0V.04399109C.26098634 .043945314 .24099732 .06893921 .24099732 .0879364 .24099732 .09391785 .24299622 .09692383 .24598694 .104904178L.2979889 .22265625H.61898806L.6799927 .08293152C.6859894 .07093811 .6859894 .06793213 .6859894 .06793213 .6859894 .043945314 .6289978 .043945314 .59999087 .043945314V0L.7619934 .0039978029 .9089966 0M.59999087 .26664735H.31698609L.45799256 .58865359 .59999087 .26664735Z"/>
<path id="font_1_34" d="M.83699038 .184906C.83699038 .25585938 .7649994 .33680726 .6029968 .3577881 .70399478 .3737793 .8019867 .43174745 .8019867 .51168826 .8019867 .6046295 .6779938 .6826172 .5289917 .6826172H.08699036V.63861086H.116989139C.19799805 .63861086 .19799805 .62861636 .19799805 .597641V.08496094C.19799805 .053985597 .19799805 .04399109 .116989139 .04399109H.08699036V0H.56199648C.71598818-.0001373291 .83699038 .085861209 .83699038 .18486023V.184906M.69299319 .5107269C.69299319 .43780519 .6049957 .3718567 .49499513 .3718567H.29599V.600647C.29599 .6316223 .29599 .63861086 .34498597 .63861086H.5219879C.6289978 .638855 .69299319 .5728607 .69299319 .51086428V.5107269M.723999 .18592835C.723999 .110961917 .6409912 .04399109 .5239868 .04399109H.34498597C.29599 .04399109 .29599 .050994874 .29599 .081970218V.3388672H.5319977C.66600039 .33898927 .723999 .25099183 .723999 .18598938V.18592835Z"/>
</defs>
<path transform="matrix(1.00003,0,0,-1.00005,-11.362907,131.26476)" d="M106.74841 21.68565C106.74841 25.31725 103.8045 28.26115 100.17291 28.26115 96.54132 28.26115 93.59741 25.31725 93.59741 21.68565 93.59741 18.05408 96.54132 15.11017 100.17291 15.11017 103.8045 15.11017 106.74841 18.05408 106.74841 21.68565ZM100.17291 21.68565" fill="#cccccc"/>
<path transform="matrix(1.00003,0,0,-1.00005,-11.362907,131.26476)" stroke-width=".3985" stroke-linecap="butt" stroke-miterlimit="10" stroke-linejoin="miter" fill="none" stroke="#7f807f" d="M106.74841 21.68565C106.74841 25.31725 103.8045 28.26115 100.17291 28.26115 96.54132 28.26115 93.59741 25.31725 93.59741 21.68565 93.59741 18.05408 96.54132 15.11017 100.17291 15.11017 103.8045 15.11017 106.74841 18.05408 106.74841 21.68565ZM100.17291 21.68565"/>
<use data-text="C" xlink:href="#font_1_42" transform="matrix(2.9888697,0,0,-2.9889293,87.38166,110.59912)"/>
<path transform="matrix(1.00003,0,0,-1.00005,-11.362907,131.26476)" d="M86.7138 28.91423C86.7138 32.54582 83.7699 35.48973 80.13832 35.48973 76.50673 35.48973 73.56282 32.54582 73.56282 28.91423 73.56282 25.28264 76.50673 22.33873 80.13832 22.33873 83.7699 22.33873 86.7138 25.28264 86.7138 28.91423ZM80.13832 28.91423" fill="#cccccc"/>
<path transform="matrix(1.00003,0,0,-1.00005,-11.362907,131.26476)" stroke-width=".3985" stroke-linecap="butt" stroke-miterlimit="10" stroke-linejoin="miter" fill="none" stroke="#7f807f" d="M86.7138 28.91423C86.7138 32.54582 83.7699 35.48973 80.13832 35.48973 76.50673 35.48973 73.56282 32.54582 73.56282 28.91423 73.56282 25.28264 76.50673 22.33873 80.13832 22.33873 83.7699 22.33873 86.7138 25.28264 86.7138 28.91423ZM80.13832 28.91423"/>
<use data-text="C" xlink:href="#font_1_42" transform="matrix(2.9888697,0,0,-2.9889293,65.85141,101.60967)"/>
<use data-text="&#x266f;" xlink:href="#font_2_2" transform="matrix(2.9888697,0,0,-2.9889293,68.7147,101.60967)"/>
<use data-text="," xlink:href="#font_1_45" transform="matrix(2.9888697,0,0,-2.9889293,70.499759,101.60967)"/>
<use data-text="D" xlink:href="#font_1_46" transform="matrix(2.9888697,0,0,-2.9889293,66.38483,105.19605)"/>
<use data-text="&#x266d;" xlink:href="#font_2_1" transform="matrix(2.9888697,0,0,-2.9889293,69.38551,105.19605)"/>
<path transform="matrix(1.00003,0,0,-1.00005,-11.362907,131.26476)" d="M66.67923 36.14279C66.67923 39.77437 63.73532 42.71828 60.10373 42.71828 56.47215 42.71828 53.52824 39.77437 53.52824 36.14279 53.52824 32.5112 56.47215 29.56729 60.10373 29.56729 63.73532 29.56729 66.67923 32.5112 66.67923 36.14279ZM60.10373 36.14279" fill="#cccccc"/>
<path transform="matrix(1.00003,0,0,-1.00005,-11.362907,131.26476)" stroke-width=".3985" stroke-linecap="butt" stroke-miterlimit="10" stroke-linejoin="miter" fill="none" stroke="#7f807f" d="M66.67923 36.14279C66.67923 39.77437 63.73532 42.71828 60.10373 42.71828 56.47215 42.71828 53.52824 39.77437 53.52824 36.14279 53.52824 32.5112 56.47215 29.56729 60.10373 29.56729 63.73532 29.56729 66.67923 32.5112 66.67923 36.14279ZM60.10373 36.14279"/>
<use data-text="D" xlink:href="#font_1_46" transform="matrix(2.9888697,0,0,-2.9889293,47.241464,96.140399)"/>
<path transform="matrix(1.00003,0,0,-1.00005,-11.362907,131.26476)" d="M46.64465 43.37135C46.64465 47.00294 43.70074 49.94685 40.06915 49.94685 36.43758 49.94685 33.49367 47.00294 33.49367 43.37135 33.49367 39.73978 36.43758 36.79587 40.06915 36.79587 43.70074 36.79587 46.64465 39.73978 46.64465 43.37135ZM40.06915 43.37135" fill="#cccccc"/>
<path transform="matrix(1.00003,0,0,-1.00005,-11.362907,131.26476)" stroke-width=".3985" stroke-linecap="butt" stroke-miterlimit="10" stroke-linejoin="miter" fill="none" stroke="#7f807f" d="M46.64465 43.37135C46.64465 47.00294 43.70074 49.94685 40.06915 49.94685 36.43758 49.94685 33.49367 47.00294 33.49367 43.37135 33.49367 39.73978 36.43758 36.79587 40.06915 36.79587 43.70074 36.79587 46.64465 39.73978 46.64465 43.37135ZM40.06915 43.37135"/>
<use data-text="E" xlink:href="#font_1_49" transform="matrix(2.9888697,0,0,-2.9889293,25.86761,86.92794)"/>
<use data-text="&#x266d;" xlink:href="#font_2_1" transform="matrix(2.9888697,0,0,-2.9889293,28.557492,86.92794)"/>
<use data-text="," xlink:href="#font_1_45" transform="matrix(2.9888697,0,0,-2.9889293,30.342545,86.92794)"/>
<use data-text="D" xlink:href="#font_1_46" transform="matrix(2.9888697,0,0,-2.9889293,26.314625,90.51432)"/>
<use data-text="&#x266f;" xlink:href="#font_2_2" transform="matrix(2.9888697,0,0,-2.9889293,29.315316,90.51432)"/>
<path transform="matrix(1.00003,0,0,-1.00005,-11.362907,131.26476)" d="M26.61006 50.59991C26.61006 54.2315 23.66615 57.17542 20.03458 57.17542 16.40298 57.17542 13.45908 54.2315 13.45908 50.59991 13.45908 46.96832 16.40298 44.02441 20.03458 44.02441 23.66615 44.02441 26.61006 46.96832 26.61006 50.59991ZM20.03458 50.59991" fill="#f2f2f2"/>
<path transform="matrix(1.00003,0,0,-1.00005,-11.362907,131.26476)" stroke-width=".3985" stroke-linecap="butt" stroke-miterlimit="10" stroke-linejoin="miter" fill="none" stroke="#7f807f" d="M26.61006 50.59991C26.61006 54.2315 23.66615 57.17542 20.03458 57.17542 16.40298 57.17542 13.45908 54.2315 13.45908 50.59991 13.45908 46.96832 16.40298 44.02441 20.03458 44.02441 23.66615 44.02441 26.61006 46.96832 26.61006 50.59991ZM20.03458 50.59991"/>
<use data-text="E" xlink:href="#font_1_49" transform="matrix(2.9888697,0,0,-2.9889293,7.3266489,81.67668)"/>
<path transform="matrix(1.00003,0,0,-1.00005,-11.362907,131.26476)" d="M106.74841 36.14279C106.74841 39.77437 103.8045 42.71828 100.17291 42.71828 96.54132 42.71828 93.59741 39.77437 93.59741 36.14279 93.59741 32.5112 96.54132 29.56729 100.17291 29.56729 103.8045 29.56729 106.74841 32.5112 106.74841 36.14279ZM100.17291 36.14279" fill="#f2f2f2"/>
<path transform="matrix(1.00003,0,0,-1.00005,-11.362907,131.26476)" stroke-width=".3985" stroke-linecap="butt" stroke-miterlimit="10" stroke-linejoin="miter" fill="none" stroke="#7f807f" d="M106.74841 36.14279C106.74841 39.77437 103.8045 42.71828 100.17291 42.71828 96.54132 42.71828 93.59741 39.77437 93.59741 36.14279 93.59741 32.5112 96.54132 29.56729 100.17291 29.56729 103.8045 29.56729 106.74841 32.5112 106.74841 36.14279ZM100.17291 36.14279"/>
<use data-text="E" xlink:href="#font_1_49" transform="matrix(2.9888697,0,0,-2.9889293,85.97342,94.1573)"/>
<use data-text="&#x266d;" xlink:href="#font_2_1" transform="matrix(2.9888697,0,0,-2.9889293,88.6633,94.1573)"/>
<use data-text="," xlink:href="#font_1_45" transform="matrix(2.9888697,0,0,-2.9889293,90.44835,94.1573)"/>
<use data-text="D" xlink:href="#font_1_46" transform="matrix(2.9888697,0,0,-2.9889293,86.42043,97.74368)"/>
<use data-text="&#x266f;" xlink:href="#font_2_2" transform="matrix(2.9888697,0,0,-2.9889293,89.42113,97.74368)"/>
<path transform="matrix(1.00003,0,0,-1.00005,-11.362907,131.26476)" d="M86.7138 43.37135C86.7138 47.00294 83.7699 49.94685 80.13832 49.94685 76.50673 49.94685 73.56282 47.00294 73.56282 43.37135 73.56282 39.73978 76.50673 36.79587 80.13832 36.79587 83.7699 36.79587 86.7138 39.73978 86.7138 43.37135ZM80.13832 43.37135" fill="#f2f2f2"/>
<path transform="matrix(1.00003,0,0,-1.00005,-11.362907,131.26476)" stroke-width=".3985" stroke-linecap="butt" stroke-miterlimit="10" stroke-linejoin="miter" fill="none" stroke="#7f807f" d="M86.7138 43.37135C86.7138 47.00294 83.7699 49.94685 80.13832 49.94685 76.50673 49.94685 73.56282 47.00294 73.56282 43.37135 73.56282 39.73978 76.50673 36.79587 80.13832 36.79587 83.7699 36.79587 86.7138 39.73978 86.7138 43.37135ZM80.13832 43.37135"/>
<use data-text="E" xlink:href="#font_1_49" transform="matrix(2.9888697,0,0,-2.9889293,67.43245,88.90604)"/>
<path transform="matrix(1.00003,0,0,-1.00005,-11.362907,131.26476)" d="M66.67923 50.59991C66.67923 54.2315 63.73532 57.17542 60.10373 57.17542 56.47215 57.17542 53.52824 54.2315 53.52824 50.59991 53.52824 46.96832 56.47215 44.02441 60.10373 44.02441 63.73532 44.02441 66.67923 46.96832 66.67923 50.59991ZM60.10373 50.59991" fill="#f2f2f2"/>
<path transform="matrix(1.00003,0,0,-1.00005,-11.362907,131.26476)" stroke-width=".3985" stroke-linecap="butt" stroke-miterlimit="10" stroke-linejoin="miter" fill="none" stroke="#7f807f" d="M66.67923 50.59991C66.67923 54.2315 63.73532 57.17542 60.10373 57.17542 56.47215 57.17542 53.52824 54.2315 53.52824 50.59991 53.52824 46.96832 56.47215 44.02441 60.10373 44.02441 63.73532 44.02441 66.67923 46.96832 66.67923 50.59991ZM60.10373 50.59991"/>
<use data-text="F" xlink:href="#font_1_54" transform="matrix(2.9888697,0,0,-2.9889293,47.44967,81.67668)"/>
<path transform="matrix(1.00003,0,0,-1.00005,-11.362907,131.26476)" d="M46.64465 57.82849C46.64465 61.46007 43.70074 64.40398 40.06915 64.40398 36.43758 64.40398 33.49367 61.46007 33.49367 57.82849 33.49367 54.1969 36.43758 51.25299 40.06915 51.25299 43.70074 51.25299 46.64465 54.1969 46.64465 57.82849ZM40.06915 57.82849" fill="#f2f2f2"/>
<path transform="matrix(1.00003,0,0,-1.00005,-11.362907,131.26476)" stroke-width=".3985" stroke-linecap="butt" stroke-miterlimit="10" stroke-linejoin="miter" fill="none" stroke="#7f807f" d="M46.64465 57.82849C46.64465 61.46007 43.70074 64.40398 40.06915 64.40398 36.43758 64.40398 33.49367 61.46007 33.49367 57.82849 33.49367 54.1969 36.43758 51.25299 40.06915 51.25299 43.70074 51.25299 46.64465 54.1969 46.64465 57.82849ZM40.06915 57.82849"/>
<use data-text="G" xlink:href="#font_1_58" transform="matrix(2.9888697,0,0,-2.9889293,25.669003,72.47022)"/>
<use data-text="&#x266d;" xlink:href="#font_2_1" transform="matrix(2.9888697,0,0,-2.9889293,28.756691,72.47022)"/>
<use data-text="," xlink:href="#font_1_45" transform="matrix(2.9888697,0,0,-2.9889293,30.541745,72.47022)"/>
<use data-text="F" xlink:href="#font_1_54" transform="matrix(2.9888697,0,0,-2.9889293,26.522225,76.0566)"/>
<use data-text="&#x266f;" xlink:href="#font_2_2" transform="matrix(2.9888697,0,0,-2.9889293,29.107705,76.0566)"/>
<path transform="matrix(1.00003,0,0,-1.00005,-11.362907,131.26476)" d="M26.61006 65.05704C26.61006 68.68863 23.66615 71.63254 20.03458 71.63254 16.40298 71.63254 13.45908 68.68863 13.45908 65.05704 13.45908 61.42546 16.40298 58.48155 20.03458 58.48155 23.66615 58.48155 26.61006 61.42546 26.61006 65.05704ZM20.03458 65.05704" fill="#f2f2f2"/>
<path transform="matrix(1.00003,0,0,-1.00005,-11.362907,131.26476)" stroke-width=".3985" stroke-linecap="butt" stroke-miterlimit="10" stroke-linejoin="miter" fill="none" stroke="#7f807f" d="M26.61006 65.05704C26.61006 68.68863 23.66615 71.63254 20.03458 71.63254 16.40298 71.63254 13.45908 68.68863 13.45908 65.05704 13.45908 61.42546 16.40298 58.48155 20.03458 58.48155 23.66615 58.48155 26.61006 61.42546 26.61006 65.05704ZM20.03458 65.05704"/>
<use data-text="G" xlink:href="#font_1_58" transform="matrix(2.9888697,0,0,-2.9889293,7.128044,67.22496)"/>
<path transform="matrix(1.00003,0,0,-1.00005,-11.362907,131.26476)" d="M106.74841 50.59991C106.74841 54.2315 103.8045 57.17542 100.17291 57.17542 96.54132 57.17542 93.59741 54.2315 93.59741 50.59991 93.59741 46.96832 96.54132 44.02441 100.17291 44.02441 103.8045 44.02441 106.74841 46.96832 106.74841 50.59991ZM100.17291 50.59991" fill="#cccccc"/>
<path transform="matrix(1.00003,0,0,-1.00005,-11.362907,131.26476)" stroke-width=".3985" stroke-linecap="butt" stroke-miterlimit="10" stroke-linejoin="miter" fill="none" stroke="#7f807f" d="M106.74841 50.59991C106.74841 54.2315 103.8045 57.17542 100.17291 57.17542 96.54132 57.17542 93.59741 54.2315 93.59741 50.59991 93.59741 46.96832 96.54132 44.02441 100.17291 44.02441 103.8045 44.02441 106.74841 46.96832 106.74841 50.59991ZM100.17291 50.59991"/>
<use data-text="G" xlink:href="#font_1_58" transform="matrix(2.9888697,0,0,-2.9889293,85.77481,79.69958)"/>
<use data-text="&#x266d;" xlink:href="#font_2_1" transform="matrix(2.9888697,0,0,-2.9889293,88.8625,79.69958)"/>
<use data-text="," xlink:href="#font_1_45" transform="matrix(2.9888697,0,0,-2.9889293,90.64755,79.69958)"/>
<use data-text="F" xlink:href="#font_1_54" transform="matrix(2.9888697,0,0,-2.9889293,86.62804,83.28596)"/>
<use data-text="&#x266f;" xlink:href="#font_2_2" transform="matrix(2.9888697,0,0,-2.9889293,89.21352,83.28596)"/>
<path transform="matrix(1.00003,0,0,-1.00005,-11.362907,131.26476)" d="M86.7138 57.82849C86.7138 61.46007 83.7699 64.40398 80.13832 64.40398 76.50673 64.40398 73.56282 61.46007 73.56282 57.82849 73.56282 54.1969 76.50673 51.25299 80.13832 51.25299 83.7699 51.25299 86.7138 54.1969 86.7138 57.82849ZM80.13832 57.82849" fill="#f2f2f2"/>
<path transform="matrix(1.00003,0,0,-1.00005,-11.362907,131.26476)" stroke-width=".3985" stroke-linecap="butt" stroke-miterlimit="10" stroke-linejoin="miter" fill="none" stroke="#7f807f" d="M86.7138 57.82849C86.7138 61.46007 83.7699 64.40398 80.13832 64.40398 76.50673 64.40398 73.56282 61.46007 73.56282 57.82849 73.56282 54.1969 76.50673 51.25299 80.13832 51.25299 83.7699 51.25299 86.7138 54.1969 86.7138 57.82849ZM80.13832 57.82849"/>
<use data-text="G" xlink:href="#font_1_58" transform="matrix(2.9888697,0,0,-2.9889293,67.23385,74.454319)"/>
<path transform="matrix(1.00003,0,0,-1.00005,-11.362907,131.26476)" d="M66.67923 65.05704C66.67923 68.68863 63.73532 71.63254 60.10373 71.63254 56.47215 71.63254 53.52824 68.68863 53.52824 65.05704 53.52824 61.42546 56.47215 58.48155 60.10373 58.48155 63.73532 58.48155 66.67923 61.42546 66.67923 65.05704ZM60.10373 65.05704" fill="#f2f2f2"/>
<path transform="matrix(1.00003,0,0,-1.00005,-11.362907,131.26476)" stroke-width=".3985" stroke-linecap="butt" stroke-miterlimit="10" stroke-linejoin="miter" fill="none" stroke="#7f807f" d="M66.67923 65.05704C66.67923 68.68863 63.73532 71.63254 60.10373 71.63254 56.47215 71.63254 53.52824 68.68863 53.52824 65.05704 53.52824 61.42546 56.47215 58.48155 60.10373 58.48155 63.73532 58.48155 66.67923 61.42546 66.67923 65.05704ZM60.10373 65.05704"/>
<use data-text="A" xlink:href="#font_1_27" transform="matrix(2.9888697,0,0,-2.9889293,45.781614,65.24086)"/>
<use data-text="&#x266d;" xlink:href="#font_2_1" transform="matrix(2.9888697,0,0,-2.9889293,48.713304,65.24086)"/>
<use data-text="," xlink:href="#font_1_45" transform="matrix(2.9888697,0,0,-2.9889293,50.498357,65.24086)"/>
<use data-text="G" xlink:href="#font_1_58" transform="matrix(2.9888697,0,0,-2.9889293,46.30603,68.82724)"/>
<use data-text="&#x266f;" xlink:href="#font_2_2" transform="matrix(2.9888697,0,0,-2.9889293,49.39312,68.82724)"/>
<path transform="matrix(1.00003,0,0,-1.00005,-11.362907,131.26476)" d="M46.64465 72.2856C46.64465 75.91718 43.70074 78.86108 40.06915 78.86108 36.43758 78.86108 33.49367 75.91718 33.49367 72.2856 33.49367 68.654 36.43758 65.7101 40.06915 65.7101 43.70074 65.7101 46.64465 68.654 46.64465 72.2856ZM40.06915 72.2856" fill="#f2f2f2"/>
<path transform="matrix(1.00003,0,0,-1.00005,-11.362907,131.26476)" stroke-width=".3985" stroke-linecap="butt" stroke-miterlimit="10" stroke-linejoin="miter" fill="none" stroke="#7f807f" d="M46.64465 72.2856C46.64465 75.91718 43.70074 78.86108 40.06915 78.86108 36.43758 78.86108 33.49367 75.91718 33.49367 72.2856 33.49367 68.654 36.43758 65.7101 40.06915 65.7101 43.70074 65.7101 46.64465 68.654 46.64465 72.2856ZM40.06915 72.2856"/>
<use data-text="A" xlink:href="#font_1_27" transform="matrix(2.9888697,0,0,-2.9889293,27.24165,60.045598)"/>
<path transform="matrix(1.00003,0,0,-1.00005,-11.362907,131.26476)" d="M26.61006 79.51416C26.61006 83.14574 23.66615 86.08965 20.03458 86.08965 16.40298 86.08965 13.45908 83.14574 13.45908 79.51416 13.45908 75.88257 16.40298 72.93866 20.03458 72.93866 23.66615 72.93866 26.61006 75.88257 26.61006 79.51416ZM20.03458 79.51416" fill="#f2f2f2"/>
<path transform="matrix(1.00003,0,0,-1.00005,-11.362907,131.26476)" stroke-width=".3985" stroke-linecap="butt" stroke-miterlimit="10" stroke-linejoin="miter" fill="none" stroke="#7f807f" d="M26.61006 79.51416C26.61006 83.14574 23.66615 86.08965 20.03458 86.08965 16.40298 86.08965 13.45908 83.14574 13.45908 79.51416 13.45908 75.88257 16.40298 72.93866 20.03458 72.93866 23.66615 72.93866 26.61006 75.88257 26.61006 79.51416ZM20.03458 79.51416"/>
<use data-text="B" xlink:href="#font_1_34" transform="matrix(2.9888697,0,0,-2.9889293,5.779808,50.783136)"/>
<use data-text="&#x266d;" xlink:href="#font_2_1" transform="matrix(2.9888697,0,0,-2.9889293,8.574688,50.783136)"/>
<use data-text="," xlink:href="#font_1_45" transform="matrix(2.9888697,0,0,-2.9889293,10.359741,50.783136)"/>
<use data-text="A" xlink:href="#font_1_27" transform="matrix(2.9888697,0,0,-2.9889293,6.313217,54.369516)"/>
<use data-text="&#x266f;" xlink:href="#font_2_2" transform="matrix(2.9888697,0,0,-2.9889293,9.245506,54.369516)"/>
<path transform="matrix(1.00003,0,0,-1.00005,-11.362907,131.26476)" d="M106.74841 65.05704C106.74841 68.68863 103.8045 71.63254 100.17291 71.63254 96.54132 71.63254 93.59741 68.68863 93.59741 65.05704 93.59741 61.42546 96.54132 58.48155 100.17291 58.48155 103.8045 58.48155 106.74841 61.42546 106.74841 65.05704ZM100.17291 65.05704" fill="#f2f2f2"/>
<path transform="matrix(1.00003,0,0,-1.00005,-11.362907,131.26476)" stroke-width=".3985" stroke-linecap="butt" stroke-miterlimit="10" stroke-linejoin="miter" fill="none" stroke="#7f807f" d="M106.74841 65.05704C106.74841 68.68863 103.8045 71.63254 100.17291 71.63254 96.54132 71.63254 93.59741 68.68863 93.59741 65.05704 93.59741 61.42546 96.54132 58.48155 100.17291 58.48155 103.8045 58.48155 106.74841 61.42546 106.74841 65.05704ZM100.17291 65.05704"/>
<use data-text="A" xlink:href="#font_1_27" transform="matrix(2.9888697,0,0,-2.9889293,87.34746,67.27496)"/>
<path transform="matrix(1.00003,0,0,-1.00005,-11.362907,131.26476)" d="M86.7138 72.2856C86.7138 75.91718 83.7699 78.86108 80.13832 78.86108 76.50673 78.86108 73.56282 75.91718 73.56282 72.2856 73.56282 68.654 76.50673 65.7101 80.13832 65.7101 83.7699 65.7101 86.7138 68.654 86.7138 72.2856ZM80.13832 72.2856" fill="#cccccc"/>
<path transform="matrix(1.00003,0,0,-1.00005,-11.362907,131.26476)" stroke-width=".3985" stroke-linecap="butt" stroke-miterlimit="10" stroke-linejoin="miter" fill="none" stroke="#7f807f" d="M86.7138 72.2856C86.7138 75.91718 83.7699 78.86108 80.13832 78.86108 76.50673 78.86108 73.56282 75.91718 73.56282 72.2856 73.56282 68.654 76.50673 65.7101 80.13832 65.7101 83.7699 65.7101 86.7138 68.654 86.7138 72.2856ZM80.13832 72.2856"/>
<use data-text="B" xlink:href="#font_1_34" transform="matrix(2.9888697,0,0,-2.9889293,65.88561,58.012498)"/>
<use data-text="&#x266d;" xlink:href="#font_2_1" transform="matrix(2.9888697,0,0,-2.9889293,68.6805,58.012498)"/>
<use data-text="," xlink:href="#font_1_45" transform="matrix(2.9888697,0,0,-2.9889293,70.465549,58.012498)"/>
<use data-text="A" xlink:href="#font_1_27" transform="matrix(2.9888697,0,0,-2.9889293,66.41902,61.598878)"/>
<use data-text="&#x266f;" xlink:href="#font_2_2" transform="matrix(2.9888697,0,0,-2.9889293,69.35131,61.598878)"/>
<path transform="matrix(1.00003,0,0,-1.00005,-11.362907,131.26476)" d="M66.67923 79.51416C66.67923 83.14574 63.73532 86.08965 60.10373 86.08965 56.47215 86.08965 53.52824 83.14574 53.52824 79.51416 53.52824 75.88257 56.47215 72.93866 60.10373 72.93866 63.73532 72.93866 66.67923 75.88257 66.67923 79.51416ZM60.10373 79.51416" fill="#f2f2f2"/>
<path transform="matrix(1.00003,0,0,-1.00005,-11.362907,131.26476)" stroke-width=".3985" stroke-linecap="butt" stroke-miterlimit="10" stroke-linejoin="miter" fill="none" stroke="#7f807f" d="M66.67923 79.51416C66.67923 83.14574 63.73532 86.08965 60.10373 86.08965 56.47215 86.08965 53.52824 83.14574 53.52824 79.51416 53.52824 75.88257 56.47215 72.93866 60.10373 72.93866 63.73532 72.93866 66.67923 75.88257 66.67923 79.51416ZM60.10373 79.51416"/>
<use data-text="B" xlink:href="#font_1_34" transform="matrix(2.9888697,0,0,-2.9889293,47.34466,52.767236)"/>
<path transform="matrix(1.00003,0,0,-1.00005,-11.362907,131.26476)" d="M46.64465 86.74272C46.64465 90.37431 43.70074 93.31822 40.06915 93.31822 36.43758 93.31822 33.49367 90.37431 33.49367 86.74272 33.49367 83.11115 36.43758 80.16724 40.06915 80.16724 43.70074 80.16724 46.64465 83.11115 46.64465 86.74272ZM40.06915 86.74272" fill="#f2f2f2"/>
<path transform="matrix(1.00003,0,0,-1.00005,-11.362907,131.26476)" stroke-width=".3985" stroke-linecap="butt" stroke-miterlimit="10" stroke-linejoin="miter" fill="none" stroke="#7f807f" d="M46.64465 86.74272C46.64465 90.37431 43.70074 93.31822 40.06915 93.31822 36.43758 93.31822 33.49367 90.37431 33.49367 86.74272 33.49367 83.11115 36.43758 80.16724 40.06915 80.16724 43.70074 80.16724 46.64465 83.11115 46.64465 86.74272ZM40.06915 86.74272"/>
<use data-text="C" xlink:href="#font_1_42" transform="matrix(2.9888697,0,0,-2.9889293,27.275853,45.53887)"/>
<path transform="matrix(1.00003,0,0,-1.00005,-11.362907,131.26476)" d="M26.61006 93.97128C26.61006 97.60286 23.66615 100.54677 20.03458 100.54677 16.40298 100.54677 13.45908 97.60286 13.45908 93.97128 13.45908 90.33969 16.40298 87.39578 20.03458 87.39578 23.66615 87.39578 26.61006 90.33969 26.61006 93.97128ZM20.03458 93.97128" fill="#f2f2f2"/>
<path transform="matrix(1.00003,0,0,-1.00005,-11.362907,131.26476)" stroke-width=".3985" stroke-linecap="butt" stroke-miterlimit="10" stroke-linejoin="miter" fill="none" stroke="#7f807f" d="M26.61006 93.97128C26.61006 97.60286 23.66615 100.54677 20.03458 100.54677 16.40298 100.54677 13.45908 97.60286 13.45908 93.97128 13.45908 90.33969 16.40298 87.39578 20.03458 87.39578 23.66615 87.39578 26.61006 90.33969 26.61006 93.97128ZM20.03458 93.97128"/>
<use data-text="C" xlink:href="#font_1_42" transform="matrix(2.9888697,0,0,-2.9889293,5.7456057,36.549428)"/>
<use data-text="&#x266f;" xlink:href="#font_2_2" transform="matrix(2.9888697,0,0,-2.9889293,8.608894,36.549428)"/>
<use data-text="," xlink:href="#font_1_45" transform="matrix(2.9888697,0,0,-2.9889293,10.393948,36.549428)"/>
<use data-text="D" xlink:href="#font_1_46" transform="matrix(2.9888697,0,0,-2.9889293,6.279022,40.135808)"/>
<use data-text="&#x266d;" xlink:href="#font_2_1" transform="matrix(2.9888697,0,0,-2.9889293,9.279713,40.135808)"/>
<path transform="matrix(1.00003,0,0,-1.00005,-11.362907,131.26476)" d="M106.74841 79.51416C106.74841 83.14574 103.8045 86.08965 100.17291 86.08965 96.54132 86.08965 93.59741 83.14574 93.59741 79.51416 93.59741 75.88257 96.54132 72.93866 100.17291 72.93866 103.8045 72.93866 106.74841 75.88257 106.74841 79.51416ZM100.17291 79.51416" fill="#f2f2f2"/>
<path transform="matrix(1.00003,0,0,-1.00005,-11.362907,131.26476)" stroke-width=".3985" stroke-linecap="butt" stroke-miterlimit="10" stroke-linejoin="miter" fill="none" stroke="#7f807f" d="M106.74841 79.51416C106.74841 83.14574 103.8045 86.08965 100.17291 86.08965 96.54132 86.08965 93.59741 83.14574 93.59741 79.51416 93.59741 75.88257 96.54132 72.93866 100.17291 72.93866 103.8045 72.93866 106.74841 75.88257 106.74841 79.51416ZM100.17291 79.51416"/>
<use data-text="C" xlink:href="#font_1_42" transform="matrix(2.9888697,0,0,-2.9889293,87.38166,52.767236)"/>
<path transform="matrix(1.00003,0,0,-1.00005,-11.362907,131.26476)" d="M86.7138 86.74272C86.7138 90.37431 83.7699 93.31822 80.13832 93.31822 76.50673 93.31822 73.56282 90.37431 73.56282 86.74272 73.56282 83.11115 76.50673 80.16724 80.13832 80.16724 83.7699 80.16724 86.7138 83.11115 86.7138 86.74272ZM80.13832 86.74272" fill="#f2f2f2"/>
<path transform="matrix(1.00003,0,0,-1.00005,-11.362907,131.26476)" stroke-width=".3985" stroke-linecap="butt" stroke-miterlimit="10" stroke-linejoin="miter" fill="none" stroke="#7f807f" d="M86.7138 86.74272C86.7138 90.37431 83.7699 93.31822 80.13832 93.31822 76.50673 93.31822 73.56282 90.37431 73.56282 86.74272 73.56282 83.11115 76.50673 80.16724 80.13832 80.16724 83.7699 80.16724 86.7138 83.11115 86.7138 86.74272ZM80.13832 86.74272"/>
<use data-text="C" xlink:href="#font_1_42" transform="matrix(2.9888697,0,0,-2.9889293,65.85141,43.777788)"/>
<use data-text="&#x266f;" xlink:href="#font_2_2" transform="matrix(2.9888697,0,0,-2.9889293,68.7147,43.777788)"/>
<use data-text="," xlink:href="#font_1_45" transform="matrix(2.9888697,0,0,-2.9889293,70.499759,43.777788)"/>
<use data-text="D" xlink:href="#font_1_46" transform="matrix(2.9888697,0,0,-2.9889293,66.38483,47.364168)"/>
<use data-text="&#x266d;" xlink:href="#font_2_1" transform="matrix(2.9888697,0,0,-2.9889293,69.38551,47.364168)"/>
<path transform="matrix(1.00003,0,0,-1.00005,-11.362907,131.26476)" d="M66.67923 93.97128C66.67923 97.60286 63.73532 100.54677 60.10373 100.54677 56.47215 100.54677 53.52824 97.60286 53.52824 93.97128 53.52824 90.33969 56.47215 87.39578 60.10373 87.39578 63.73532 87.39578 66.67923 90.33969 66.67923 93.97128ZM60.10373 93.97128" fill="#cccccc"/>
<path transform="matrix(1.00003,0,0,-1.00005,-11.362907,131.26476)" stroke-width=".3985" stroke-linecap="butt" stroke-miterlimit="10" stroke-linejoin="miter" fill="none" stroke="#7f807f" d="M66.67923 93.97128C66.67923 97.60286 63.73532 100.54677 60.10373 100.54677 56.47215 100.54677 53.52824 97.60286 53.52824 93.97128 53.52824 90.33969 56.47215 87.39578 60.10373 87.39578 63.73532 87.39578 66.67923 90.33969 66.67923 93.97128ZM60.10373 93.97128"/>
<use data-text="D" xlink:href="#font_1_46" transform="matrix(2.9888697,0,0,-2.9889293,47.241464,38.309514)"/>
<path transform="matrix(1.00003,0,0,-1.00005,-11.362907,131.26476)" d="M46.64465 101.19984C46.64465 104.83144 43.70074 107.77534 40.06915 107.77534 36.43758 107.77534 33.49367 104.83144 33.49367 101.19984 33.49367 97.56827 36.43758 94.62436 40.06915 94.62436 43.70074 94.62436 46.64465 97.56827 46.64465 101.19984ZM40.06915 101.19984" fill="#f2f2f2"/>
<path transform="matrix(1.00003,0,0,-1.00005,-11.362907,131.26476)" stroke-width=".3985" stroke-linecap="butt" stroke-miterlimit="10" stroke-linejoin="miter" fill="none" stroke="#7f807f" d="M46.64465 101.19984C46.64465 104.83144 43.70074 107.77534 40.06915 107.77534 36.43758 107.77534 33.49367 104.83144 33.49367 101.19984 33.49367 97.56827 36.43758 94.62436 40.06915 94.62436 43.70074 94.62436 46.64465 97.56827 46.64465 101.19984ZM40.06915 101.19984"/>
<use data-text="E" xlink:href="#font_1_49" transform="matrix(2.9888697,0,0,-2.9889293,25.86761,29.097054)"/>
<use data-text="&#x266d;" xlink:href="#font_2_1" transform="matrix(2.9888697,0,0,-2.9889293,28.557492,29.097054)"/>
<use data-text="," xlink:href="#font_1_45" transform="matrix(2.9888697,0,0,-2.9889293,30.342545,29.097054)"/>
<use data-text="D" xlink:href="#font_1_46" transform="matrix(2.9888697,0,0,-2.9889293,26.314625,32.683435)"/>
<use data-text="&#x266f;" xlink:href="#font_2_2" transform="matrix(2.9888697,0,0,-2.9889293,29.315316,32.683435)"/>
<path transform="matrix(1.00003,0,0,-1.00005,-11.362907,131.26476)" d="M26.61006 108.4284C26.61006 112.06 23.66615 115.0039 20.03458 115.0039 16.40298 115.0039 13.45908 112.06 13.45908 108.4284 13.45908 104.79683 16.40298 101.85292 20.03458 101.85292 23.66615 101.85292 26.61006 104.79683 26.61006 108.4284ZM20.03458 108.4284" fill="#f2f2f2"/>
<path transform="matrix(1.00003,0,0,-1.00005,-11.362907,131.26476)" stroke-width=".3985" stroke-linecap="butt" stroke-miterlimit="10" stroke-linejoin="miter" fill="none" stroke="#7f807f" d="M26.61006 108.4284C26.61006 112.06 23.66615 115.0039 20.03458 115.0039 16.40298 115.0039 13.45908 112.06 13.45908 108.4284 13.45908 104.79683 16.40298 101.85292 20.03458 101.85292 23.66615 101.85292 26.61006 104.79683 26.61006 108.4284ZM20.03458 108.4284"/>
<use data-text="E" xlink:href="#font_1_49" transform="matrix(2.9888697,0,0,-2.9889293,7.3266489,23.84579)"/>
<path transform="matrix(1.00003,0,0,-1.00005,-11.362907,131.26476)" d="M106.74841 93.97128C106.74841 97.60286 103.8045 100.54677 100.17291 100.54677 96.54132 100.54677 93.59741 97.60286 93.59741 93.97128 93.59741 90.33969 96.54132 87.39578 100.17291 87.39578 103.8045 87.39578 106.74841 90.33969 106.74841 93.97128ZM100.17291 93.97128" fill="#f2f2f2"/>
<path transform="matrix(1.00003,0,0,-1.00005,-11.362907,131.26476)" stroke-width=".3985" stroke-linecap="butt" stroke-miterlimit="10" stroke-linejoin="miter" fill="none" stroke="#7f807f" d="M106.74841 93.97128C106.74841 97.60286 103.8045 100.54677 100.17291 100.54677 96.54132 100.54677 93.59741 97.60286 93.59741 93.97128 93.59741 90.33969 96.54132 87.39578 100.17291 87.39578 103.8045 87.39578 106.74841 90.33969 106.74841 93.97128ZM100.17291 93.97128"/>
<use data-text="E" xlink:href="#font_1_49" transform="matrix(2.9888697,0,0,-2.9889293,85.97342,36.325418)"/>
<use data-text="&#x266d;" xlink:href="#font_2_1" transform="matrix(2.9888697,0,0,-2.9889293,88.6633,36.325418)"/>
<use data-text="," xlink:href="#font_1_45" transform="matrix(2.9888697,0,0,-2.9889293,90.44835,36.325418)"/>
<use data-text="D" xlink:href="#font_1_46" transform="matrix(2.9888697,0,0,-2.9889293,86.42043,39.911798)"/>
<use data-text="&#x266f;" xlink:href="#font_2_2" transform="matrix(2.9888697,0,0,-2.9889293,89.42113,39.911798)"/>
<path transform="matrix(1.00003,0,0,-1.00005,-11.362907,131.26476)" d="M86.7138 101.19984C86.7138 104.83144 83.7699 107.77534 80.13832 107.77534 76.50673 107.77534 73.56282 104.83144 73.56282 101.19984 73.56282 97.56827 76.50673 94.62436 80.13832 94.62436 83.7699 94.62436 86.7138 97.56827 86.7138 101.19984ZM80.13832 101.19984" fill="#f2f2f2"/>
<path transform="matrix(1.00003,0,0,-1.00005,-11.362907,131.26476)" stroke-width=".3985" stroke-linecap="butt" stroke-miterlimit="10" stroke-linejoin="miter" fill="none" stroke="#7f807f" d="M86.7138 101.19984C86.7138 104.83144 83.7699 107.77534 80.13832 107.77534 76.50673 107.77534 73.56282 104.83144 73.56282 101.19984 73.56282 97.56827 76.50673 94.62436 80.13832 94.62436 83.7699 94.62436 86.7138 97.56827 86.7138 101.19984ZM80.13832 101.19984"/>
<use data-text="E" xlink:href="#font_1_49" transform="matrix(2.9888697,0,0,-2.9889293,67.43245,31.07415)"/>
<path transform="matrix(1.00003,0,0,-1.00005,-11.362907,131.26476)" d="M66.67923 108.4284C66.67923 112.06 63.73532 115.0039 60.10373 115.0039 56.47215 115.0039 53.52824 112.06 53.52824 108.4284 53.52824 104.79683 56.47215 101.85292 60.10373 101.85292 63.73532 101.85292 66.67923 104.79683 66.67923 108.4284ZM60.10373 108.4284" fill="#f2f2f2"/>
<path transform="matrix(1.00003,0,0,-1.00005,-11.362907,131.26476)" stroke-width=".3985" stroke-linecap="butt" stroke-miterlimit="10" stroke-linejoin="miter" fill="none" stroke="#7f807f" d="M66.67923 108.4284C66.67923 112.06 63.73532 115.0039 60.10373 115.0039 56.47215 115.0039 53.52824 112.06 53.52824 108.4284 53.52824 104.79683 56.47215 101.85292 60.10373 101.85292 63.73532 101.85292 66.67923 104.79683 66.67923 108.4284ZM60.10373 108.4284"/>
<use data-text="F" xlink:href="#font_1_54" transform="matrix(2.9888697,0,0,-2.9889293,47.44967,23.84579)"/>
<path transform="matrix(1.00003,0,0,-1.00005,-11.362907,131.26476)" d="M46.64465 115.65698C46.64465 119.28856 43.70074 122.23247 40.06915 122.23247 36.43758 122.23247 33.49367 119.28856 33.49367 115.65698 33.49367 112.02539 36.43758 109.08148 40.06915 109.08148 43.70074 109.08148 46.64465 112.02539 46.64465 115.65698ZM40.06915 115.65698" fill="#cccccc"/>
<path transform="matrix(1.00003,0,0,-1.00005,-11.362907,131.26476)" stroke-width=".3985" stroke-linecap="butt" stroke-miterlimit="10" stroke-linejoin="miter" fill="none" stroke="#7f807f" d="M46.64465 115.65698C46.64465 119.28856 43.70074 122.23247 40.06915 122.23247 36.43758 122.23247 33.49367 119.28856 33.49367 115.65698 33.49367 112.02539 36.43758 109.08148 40.06915 109.08148 43.70074 109.08148 46.64465 112.02539 46.64465 115.65698ZM40.06915 115.65698"/>
<use data-text="G" xlink:href="#font_1_58" transform="matrix(2.9888697,0,0,-2.9889293,25.669003,14.639328)"/>
<use data-text="&#x266d;" xlink:href="#font_2_1" transform="matrix(2.9888697,0,0,-2.9889293,28.756691,14.639328)"/>
<use data-text="," xlink:href="#font_1_45" transform="matrix(2.9888697,0,0,-2.9889293,30.541745,14.639328)"/>
<use data-text="F" xlink:href="#font_1_54" transform="matrix(2.9888697,0,0,-2.9889293,26.522225,18.225708)"/>
<use data-text="&#x266f;" xlink:href="#font_2_2" transform="matrix(2.9888697,0,0,-2.9889293,29.107705,18.225708)"/>
<path transform="matrix(1.00003,0,0,-1.00005,-11.362907,131.26476)" d="M26.61006 122.88553C26.61006 126.51712 23.66615 129.46103 20.03458 129.46103 16.40298 129.46103 13.45908 126.51712 13.45908 122.88553 13.45908 119.25395 16.40298 116.31004 20.03458 116.31004 23.66615 116.31004 26.61006 119.25395 26.61006 122.88553ZM20.03458 122.88553" fill="#f2f2f2"/>
<path transform="matrix(1.00003,0,0,-1.00005,-11.362907,131.26476)" stroke-width=".3985" stroke-linecap="butt" stroke-miterlimit="10" stroke-linejoin="miter" fill="none" stroke="#7f807f" d="M26.61006 122.88553C26.61006 126.51712 23.66615 129.46103 20.03458 129.46103 16.40298 129.46103 13.45908 126.51712 13.45908 122.88553 13.45908 119.25395 16.40298 116.31004 20.03458 116.31004 23.66615 116.31004 26.61006 119.25395 26.61006 122.88553ZM20.03458 122.88553"/>
<use data-text="G" xlink:href="#font_1_58" transform="matrix(2.9888697,0,0,-2.9889293,7.128044,9.394066)"/>
<path transform="matrix(1.00003,0,0,-1.00005,-11.362907,131.26476)" stroke-width=".3985" stroke-linecap="butt" stroke-miterlimit="10" stroke-linejoin="miter" fill="none" stroke="#7f807f" d="M107.42845 21.68565H109.8096V50.59991H107.42845"/>
<path transform="matrix(1.00003,0,0,-1.00005,-11.362907,131.26476)" stroke-width=".3985" stroke-linecap="butt" stroke-miterlimit="10" stroke-linejoin="miter" fill="none" stroke="#7f807f" d="M87.39388 28.91423H89.77502V72.2856H87.39388"/>
<path transform="matrix(1.00003,0,0,-1.00005,-11.362907,131.26476)" stroke-width=".3985" stroke-linecap="butt" stroke-miterlimit="10" stroke-linejoin="miter" fill="none" stroke="#7f807f" d="M67.35928 36.14279H71.61136V93.97128H67.35928"/>
<path transform="matrix(1.00003,0,0,-1.00005,-11.362907,131.26476)" stroke-width=".3985" stroke-linecap="butt" stroke-miterlimit="10" stroke-linejoin="miter" fill="none" stroke="#7f807f" d="M47.3247 43.37135H49.70586V115.65698H47.3247"/>
</svg>
