<svg xmlns="http://www.w3.org/2000/svg" xmlns:xlink="http://www.w3.org/1999/xlink" xmlns:inkscape="http://www.inkscape.org/namespaces/inkscape" version="1.1" width="234" height="473" viewBox="0 0 234 473">
<defs>
<path id="font_1_46" d="M.70700076 .33580018C.70700076 .52568057 .57199099 .6826172 .40098573 .6826172H.034988405V.6516113H.05899048C.13598633 .6516113 .13798523 .64060977 .13798523 .6046295V.07795715C.13798523 .041992189 .13598633 .0309906 .05899048 .0309906H.034988405V0H.40098573C.56900027 0 .70700076 .1479187 .70700076 .33580018M.6069946 .33580018C.6069946 .22486878 .58799746 .16490174 .5519867 .11593628 .5319977 .08895874 .47499085 .0309906 .37399293 .0309906H.272995C.22599793 .0309906 .22399903 .037994386 .22399903 .07096863V.6116333C.22399903 .64460757 .22599793 .6516113 .272995 .6516113H.37298585C.43499757 .6516113 .5039978 .6296234 .5549927 .55867007 .59799197 .49969483 .6069946 .41375733 .6069946 .33580018Z"/>
<path id="font_1_74" d="M.8789978 0V.0309906H.8549957C.7779999 .0309906 .776001 .041992189 .776001 .07795715V.6046295C.776001 .64060977 .7779999 .6516113 .8549957 .6516113H.8789978V.6826172H.70999148C.6839905 .6826172 .6839905 .6816101 .6769867 .66360476L.45799256 .10095215 .24099732 .660614C.23199463 .6826172 .22898865 .6826172 .20599365 .6826172H.036987306V.6516113H.06098938C.13798523 .6516113 .13999939 .64060977 .13999939 .6046295V.10494995C.13999939 .07795715 .13999939 .0309906 .036987306 .0309906V0L.1539917 .0029907227 .2709961 0V.0309906C.16799927 .0309906 .16799927 .07795715 .16799927 .10494995V.6436157H.16899109L.4099884 .021987915C.4149933 .008987427 .41999818 0 .42999269 0 .44099427 0 .44400025 .0079956059 .44799806 .018997193L.69400027 .6516113H.69499209V.07795715C.69499209 .041992189 .69299319 .0309906 .6159973 .0309906H.59199526V0C.6289978 .0029907227 .69699099 .0029907227 .73599246 .0029907227 .7749939 .0029907227 .84199526 .0029907227 .8789978 0Z"/>
<path id="font_1_54" d="M.6100006 .45477296 .58200076 .6796875H.032989503V.64868167H.056991579C.13398743 .64868167 .13598633 .63768008 .13598633 .6016998V.07797241C.13598633 .041992189 .13398743 .0309906 .056991579 .0309906H.032989503V0C.067993167 .0029907227 .1459961 .0029907227 .18499756 .0029907227 .22599793 .0029907227 .31698609 .0029907227 .35299684 0V.0309906H.31999208C.22499085 .031188965 .22499085 .044189454 .22499085 .079193118V.3251953H.31098939C.40699769 .3251953 .4169922 .29318238 .4169922 .20819092H.44198609V.4731903H.4169922C.4169922 .38919068 .40699769 .3561859 .31098939 .3561859H.22499085V.6091919C.22499085 .64167788 .22698975 .64868167 .27398683 .64868167H.3939972C.5439911 .64868167 .56900027 .5926819 .58499148 .4546814L.6100006 .45477296Z"/>
<path id="font_1_79" d="M.776001 .15284729C.776001 .17285156 .7569885 .17285156 .74198916 .17285156H.5309906L.57099917 .32714845H.74198916C.7569885 .32714845 .776001 .32714845 .776001 .34713746 .776001 .36714173 .7569885 .36714173 .7429962 .36714173H.58299258L.6609955 .65631106C.6619873 .65830996 .6649933 .6703186 .6649933 .6743164 .6649933 .685318 .6559906 .69433596 .644989 .69433596 .6289978 .69433596 .6259918 .6813202 .6230011 .6703186L.5419922 .36714173H.35398866L.43199159 .65631106C.43299867 .65830996 .43598939 .6703186 .43598939 .6743164 .43598939 .685318 .4269867 .69433596 .41600038 .69433596 .3999939 .69433596 .39698792 .6813202 .3939972 .6703186L.31298829 .36714173H.08898926C.07499695 .36714173 .055999757 .36714173 .055999757 .34713746 .055999757 .32714845 .07499695 .32714845 .08999634 .32714845H.30099488L.26098634 .17285156H.08999634C.07499695 .17285156 .055999757 .17285156 .055999757 .15284729 .055999757 .13284302 .07499695 .13284302 .08898926 .13284302H.24899292L.17098999-.1563263C.16999817-.1583252 .16699219-.17033386 .16699219-.17433167 .16699219-.18533325 .17599488-.19433594 .18699646-.19433594 .20298767-.19433594 .20599365-.18133545 .20899964-.17033386L.2899933 .13284302H.47799684L.3999939-.1563263C.39898683-.1583252 .3959961-.17033386 .3959961-.17433167 .3959961-.18533325 .40499879-.19433594 .41600038-.19433594 .43199159-.19433594 .43499757-.18133545 .43798829-.17033386L.5189972 .13284302H.7429962C.7569885 .13284302 .776001 .13284302 .776001 .15284729M.5299988 .32714845 .48999024 .17285156H.3019867L.34199525 .32714845H.5299988Z"/>
<path id="font_1_75" d="M.8129883 0V.0309906C.7609863 .0309906 .73599246 .0309906 .7350006 .061019899V.25221253C.7350006 .3383026 .7350006 .36932374 .70399478 .405365 .6899872 .42237855 .6569977 .4423828 .598999 .4423828 .5149994 .4423828 .47099305 .38233949 .45399476 .34429933 .43998719 .43138124 .3659973 .4423828 .32099916 .4423828 .24798584 .4423828 .20098877 .39935304 .17298889 .33729554V.4423828L.03199768 .43066407V.3996582C.101989749 .3996582 .10998535 .39266969 .10998535 .34370423V.07595825C.10998535 .0309906 .09899902 .0309906 .03199768 .0309906V0L.14498902 .0029907227 .25698854 0V.0309906C.18998719 .0309906 .1789856 .0309906 .1789856 .07595825V.25978089C.1789856 .36431886 .25 .42037965 .31399537 .42037965 .3769989 .42037965 .3880005 .36631776 .3880005 .30926515V.076034549C.3880005 .0309906 .3769989 .0309906 .30999757 .0309906V0L.4229889 .0029907227 .5349884 0V.0309906C.46798707 .0309906 .45700074 .0309906 .45700074 .076034549V.2602234C.45700074 .36431886 .5279999 .42037965 .59199526 .42037965 .6549988 .42037965 .66600039 .36631776 .66600039 .30926515V.076034549C.66600039 .0309906 .6549988 .0309906 .58799746 .0309906V0L.70098879 .0029907227 .8129883 0Z"/>
<path id="font_1_66" d="M.24699402 0V.0309906C.18099976 .0309906 .1769867 .035995485 .1769867 .075042728V.4423828L.036987306 .43066407V.3996582C.101989749 .3996582 .11099243 .3936615 .11099243 .3447113V.07595825C.11099243 .0309906 .099990848 .0309906 .032989503 .0309906V0L.14299011 .0029907227C.17799378 .0029907227 .21299744 .0009918213 .24699402 0M.19198609 .603775C.19198609 .6307678 .16899109 .6567688 .13899231 .6567688 .10499573 .6567688 .084991458 .6287689 .084991458 .603775 .084991458 .57676699 .10798645 .55078127 .13798523 .55078127 .17199707 .55078127 .19198609 .5787811 .19198609 .603775Z"/>
<path id="font_1_100" d="M.4850006 .6435547H.24198914C.11999512 .6435547 .117996219 .6566467 .11399841 .67578127H.08898926L.055999757 .46954347H.08099365C.083999637 .48554994 .09298706 .54855349 .10598755 .5605469 .11299133 .5665436 .19099427 .5665436 .20399475 .5665436H.41099549L.29899598 .40853883C.20899964 .2735443 .17599488 .13453675 .17599488 .03253174 .17599488 .022537232 .17599488-.022460938 .22200012-.022460938 .2679901-.022460938 .2679901 .022537232 .2679901 .03253174V.08354187C.2679901 .13853455 .2709961 .19354248 .2789917 .24754334 .2829895 .27053834 .29699708 .35653688 .34098817 .41854859L.47599793 .608551C.4850006 .62054446 .4850006 .62254336 .4850006 .6435547Z"/>
<path id="font_1_47" d="M.5269928 0V.0309906C.45700074 .0309906 .44898988 .038009645 .44898988 .0871582V.69433596L.30499269 .6826172V.6516113C.375 .6516113 .3829956 .64463809 .3829956 .59580996V.38035584C.35398866 .41636659 .31098939 .4423828 .25698854 .4423828 .13899231 .4423828 .033996583 .3443451 .033996583 .21531677 .033996583 .088272098 .13198853-.0107421879 .24598694-.0107421879 .30999757-.0107421879 .35499574 .023254395 .37998963 .055267335V-.0107421879L.5269928 0M.37998963 .117996219C.37998963 .099990848 .37998963 .09799194 .36898805 .08099365 .33898927 .033218385 .2939911 .011245728 .25099183 .011245728 .20599365 .011245728 .16999817 .037216188 .1459961 .075164798 .11999512 .1161499 .116989139 .17320252 .116989139 .21421814 .116989139 .25125123 .11898804 .31129457 .147995 .35632325 .16899109 .38734437 .20698548 .42037965 .26098634 .42037965 .29599 .42037965 .33799745 .405365 .36898805 .3603363 .37998963 .34332276 .37998963 .34132386 .37998963 .32330323V.117996219Z"/>
<path id="font_1_27" d="M.71699526 0V.0309906H.69898989C.6389923 .0309906 .625 .037979127 .6139984 .07095337L.397995 .6958008C.3929901 .7088165 .3909912 .7158203 .375 .7158203 .35899354 .7158203 .35598756 .70980837 .35099793 .6958008L.14399719 .09791565C.12599182 .04698181 .085998538 .03199768 .03199768 .0309906V0L.13398743 .0029907227 .24899292 0V.0309906C.19898987 .0309906 .17399597 .05596924 .17399597 .0819397 .17399597 .08493042 .1749878 .09492493 .17599488 .09692383L.22200012 .2277832H.46899415L.5219879 .07495117C.522995 .07095337 .5249939 .064956668 .5249939 .060958864 .5249939 .0309906 .46899415 .0309906 .44198609 .0309906V0C.47799684 .0029907227 .5479889 .0029907227 .58599856 .0029907227L.71699526 0M.45799256 .25878907H.23298645L.34498597 .58380129 .45799256 .25878907Z"/>
<path id="font_2_1" d="M.07998657 .7220001C.07998657 .7409973 .07998657 .75 .067993167 .75 .054992677 .75 .054992677 .74198916 .054992677 .7220001V.0055389406C.054992677-.014465332 .054992677-.022460938 .067993167-.022460938 .07798767-.022460938 .18199158 .049560548 .23699951 .10862732 .2919922 .16769409 .33299256 .23776245 .33299256 .32084657 .33299256 .39492799 .27799989 .45996095 .19599915 .45996095 .13999939 .45996095 .099990848 .43695069 .07998657 .41793824V.7220001M.07998657 .342865C.07998657 .3658905 .07998657 .3869171 .11299133 .40592958 .14399719 .4239502 .18699646 .4239502 .18798828 .4239502 .23399353 .4239502 .2519989 .3698883 .2519989 .32084657 .2519989 .16268921 .10398865 .03555298 .07998657 .015533447V.342865Z"/>
<path id="font_1_49" d="M.6519928 .2579193H.6269989C.60198977 .10397339 .57899478 .0309906 .40699769 .0309906H.27398683C.22698975 .0309906 .22499085 .037994386 .22499085 .07098389V.33789063H.31498719C.4119873 .33789063 .4229889 .30589295 .4229889 .220932H.44799806V.48606874H.4229889C.4229889 .39994813 .4119873 .36888124 .31498719 .36888124H.22499085V.6087799C.22499085 .6416931 .22698975 .64868167 .27398683 .64868167H.40299989C.55599978 .64868167 .58299258 .59381106 .598999 .45507813H.6239929L.59599307 .6796875H.032989503V.64868167H.056991579C.13398743 .64868167 .13598633 .6377106 .13598633 .6017914V.07797241C.13598633 .041992189 .13398743 .0309906 .056991579 .0309906H.032989503V0H.6100006L.6519928 .2579193Z"/>
<path id="font_1_34" d="M.651001 .18289185C.651001 .26983644 .56900027 .34480287 .45799256 .35679627 .5549927 .3757782 .6239929 .43974305 .6239929 .51368716 .6239929 .6006317 .5319977 .6826172 .4019928 .6826172H.035995485V.6516113H.05999756C.13699341 .6516113 .13899231 .64060977 .13899231 .6046295V.07795715C.13899231 .041992189 .13699341 .0309906 .05999756 .0309906H.035995485V0H.42799378C.5609894-.0002593994 .651001 .08874512 .651001 .18273926V.18289185M.5269928 .5136719C.5269928 .44970704 .47799684 .36573792 .36698915 .36573792H.22200012V.6116333C.22200012 .64460757 .22399903 .6516113 .2709961 .6516113H.394989C.49198915 .65174868 .5269928 .56674197 .5269928 .51374819V.5136719M.5509949 .18386841C.5509949 .1129303 .49899293 .0309906 .3959961 .0309906H.2709961C.22399903 .0309906 .22200012 .037994386 .22200012 .07095337V.34375H.4099884C.5089874 .34399415 .5509949 .25099183 .5509949 .18399048V.18386841Z"/>
<path id="font_1_42" d="M.6649933 .23271179C.6649933 .24272156 .6649933 .24972534 .6519928 .24972534 .6409912 .24972534 .6409912 .24372864 .6399994 .23371887 .6319885 .09059143 .5249939 .008529663 .41600038 .008529663 .35499574 .008529663 .15899658 .042556764 .15899658 .34080506 .15899658 .64004519 .35398866 .67407229 .4149933 .67407229 .5239868 .67407229 .61299136 .58299258 .6329956 .4368744 .6349945 .42286683 .6349945 .41986085 .6489868 .41986085 .6649933 .41986085 .6649933 .42286683 .6649933 .44387818V.68107607C.6649933 .69807437 .6649933 .7050781 .6539917 .7050781 .6499939 .7050781 .6459961 .7050781 .6380005 .69306948L.58799746 .61901858C.5509949 .6550598 .5 .7050781 .4039917 .7050781 .21699524 .7050781 .055999757 .5459595 .055999757 .34179688 .055999757 .1346283 .21798706-.022460938 .4039917-.022460938 .5669861-.022460938 .6649933 .116622928 .6649933 .23271179Z"/>
<path id="font_1_58" d="M.7350006 .24145508V.27246095L.61299136 .26945497C.57299807 .26945497 .48799134 .26945497 .45199586 .27246095V.24145508H.48399354C.57398989 .24145508 .57699587 .23045349 .57699587 .19346619V.12948609C.57699587 .017532349 .44999696 .008529663 .42199708 .008529663 .35699464 .008529663 .15899658 .043518068 .15899658 .34155274 .15899658 .6410217 .35598756 .67407229 .41600038 .67407229 .522995 .67407229 .6139984 .5839386 .6339874 .43670655 .6359863 .42268373 .6359863 .41967774 .6499939 .41967774 .66600039 .41967774 .66600039 .42268373 .66600039 .44371034V.68107607C.66600039 .69807437 .66600039 .7050781 .6549988 .7050781 .651001 .7050781 .6469879 .7050781 .6389923 .69306948L.58898928 .61898806C.5569916 .6510315 .5029907 .7050781 .4039917 .7050781 .21798706 .7050781 .055999757 .546875 .055999757 .34155274 .055999757 .13648987 .21598816-.022460938 .4059906-.022460938 .47898866-.022460938 .5589905 .0035247803 .59298709 .06251526 .60598757 .040527345 .6459961 .0005340576 .6569977 .0005340576 .66600039 .0005340576 .66600039 .008529663 .66600039 .023529053V.19746399C.66600039 .2364502 .66999819 .24145508 .7350006 .24145508Z"/>
</defs>
<path transform="matrix(1.00003,0,0,-1,19.572022,390.613)" d="M99.49756 343.5632C99.49756 352.17387 92.51741 359.154 83.90674 359.154 75.29607 359.154 68.3159 352.17387 68.3159 343.5632 68.3159 334.9525 75.29607 327.97236 83.90674 327.97236 92.51741 327.97236 99.49756 334.9525 99.49756 343.5632ZM83.90674 343.5632" fill="#f2f2f2"/>
<path transform="matrix(1.00003,0,0,-1,19.572022,390.613)" stroke-width=".19925" stroke-linecap="butt" stroke-miterlimit="10" stroke-linejoin="miter" fill="none" stroke="#bfbfbf" d="M99.49756 343.5632C99.49756 352.17387 92.51741 359.154 83.90674 359.154 75.29607 359.154 68.3159 352.17387 68.3159 343.5632 68.3159 334.9525 75.29607 327.97236 83.90674 327.97236 92.51741 327.97236 99.49756 334.9525 99.49756 343.5632ZM83.90674 343.5632"/>
<use data-text="D" xlink:href="#font_1_46" transform="matrix(9.962899,0,0,-9.9626,95.107288,50.451997)"/>
<use data-text="M" xlink:href="#font_1_74" transform="matrix(9.962899,0,0,-9.9626,102.71894,50.451997)"/>
<path transform="matrix(1.00003,0,0,-1,19.572022,390.613)" d="M128.97806 358.58695C128.97806 367.19764 121.99791 374.17778 113.38724 374.17778 104.77655 374.17778 97.7964 367.19764 97.7964 358.58695 97.7964 349.97627 104.77655 342.99613 113.38724 342.99613 121.99791 342.99613 128.97806 349.97627 128.97806 358.58695ZM113.38724 358.58695" fill="#f2f2f2"/>
<path transform="matrix(1.00003,0,0,-1,19.572022,390.613)" stroke-width=".19925" stroke-linecap="butt" stroke-miterlimit="10" stroke-linejoin="miter" fill="none" stroke="#bfbfbf" d="M128.97806 358.58695C128.97806 367.19764 121.99791 374.17778 113.38724 374.17778 104.77655 374.17778 97.7964 367.19764 97.7964 358.58695 97.7964 349.97627 104.77655 342.99613 113.38724 342.99613 121.99791 342.99613 128.97806 349.97627 128.97806 358.58695ZM113.38724 358.58695"/>
<use data-text="D" xlink:href="#font_1_46" transform="matrix(9.962899,0,0,-9.9626,129.15631,35.42801)"/>
<path transform="matrix(1.00003,0,0,-1,19.572022,390.613)" d="M158.45854 373.32743C158.45854 381.9381 151.4784 388.91828 142.86772 388.91828 134.25704 388.91828 127.27689 381.9381 127.27689 373.32743 127.27689 364.71675 134.25704 357.7366 142.86772 357.7366 151.4784 357.7366 158.45854 364.71675 158.45854 373.32743ZM142.86772 373.32743" fill="#f2f2f2"/>
<path transform="matrix(1.00003,0,0,-1,19.572022,390.613)" stroke-width=".19925" stroke-linecap="butt" stroke-miterlimit="10" stroke-linejoin="miter" fill="none" stroke="#bfbfbf" d="M158.45854 373.32743C158.45854 381.9381 151.4784 388.91828 142.86772 388.91828 134.25704 388.91828 127.27689 381.9381 127.27689 373.32743 127.27689 364.71675 134.25704 357.7366 142.86772 357.7366 151.4784 357.7366 158.45854 364.71675 158.45854 373.32743ZM142.86772 373.32743"/>
<use data-text="F" xlink:href="#font_1_54" transform="matrix(9.962899,0,0,-9.9626,155.04109,19.776001)"/>
<use data-text="#" xlink:href="#font_1_79" transform="matrix(9.962899,0,0,-9.9626,161.54688,19.776001)"/>
<path transform="matrix(1.00003,0,0,-1,19.572022,390.613)" d="M70.867 327.68904C70.867 336.2997 63.88686 343.27986 55.27618 343.27986 46.66551 343.27986 39.68535 336.2997 39.68535 327.68904 39.68535 319.07835 46.66551 312.0982 55.27618 312.0982 63.88686 312.0982 70.867 319.07835 70.867 327.68904ZM55.27618 327.68904" fill="#f2f2f2"/>
<path transform="matrix(1.00003,0,0,-1,19.572022,390.613)" stroke-width=".19925" stroke-linecap="butt" stroke-miterlimit="10" stroke-linejoin="miter" fill="none" stroke="#bfbfbf" d="M70.867 327.68904C70.867 336.2997 63.88686 343.27986 55.27618 343.27986 46.66551 343.27986 39.68535 336.2997 39.68535 327.68904 39.68535 319.07835 46.66551 312.0982 55.27618 312.0982 63.88686 312.0982 70.867 319.07835 70.867 327.68904ZM55.27618 327.68904"/>
<use data-text="D" xlink:href="#font_1_46" transform="matrix(9.962899,0,0,-9.9626,65.5094,66.32602)"/>
<use data-text="m" xlink:href="#font_1_75" transform="matrix(9.962899,0,0,-9.9626,73.12106,66.32602)"/>
<use data-text="i" xlink:href="#font_1_66" transform="matrix(9.962899,0,0,-9.9626,81.42015,66.32602)"/>
<path transform="matrix(1.00003,0,0,-1,19.572022,390.613)" d="M42.5202 311.24784C42.5202 319.8585 35.54004 326.83869 26.92937 326.83869 18.3187 326.83869 11.33855 319.8585 11.33855 311.24784 11.33855 302.63716 18.3187 295.657 26.92937 295.657 35.54004 295.657 42.5202 302.63716 42.5202 311.24784ZM26.92937 311.24784" fill="#f2f2f2"/>
<path transform="matrix(1.00003,0,0,-1,19.572022,390.613)" stroke-width=".19925" stroke-linecap="butt" stroke-miterlimit="10" stroke-linejoin="miter" fill="none" stroke="#bfbfbf" d="M42.5202 311.24784C42.5202 319.8585 35.54004 326.83869 26.92937 326.83869 18.3187 326.83869 11.33855 319.8585 11.33855 311.24784 11.33855 302.63716 18.3187 295.657 26.92937 295.657 35.54004 295.657 42.5202 302.63716 42.5202 311.24784ZM26.92937 311.24784"/>
<use data-text="D" xlink:href="#font_1_46" transform="matrix(9.962899,0,0,-9.9626,40.205644,82.65802)"/>
<use data-text="7" xlink:href="#font_1_100" transform="matrix(9.962899,0,0,-9.9626,47.8173,82.65802)"/>
<path transform="matrix(1.00003,0,0,-1,19.572022,390.613)" d="M14.1734 296.22407C14.1734 304.83473 7.19325 311.81489-1.4174 311.81489-10.02809 311.81489-17.00824 304.83473-17.00824 296.22407-17.00824 287.6134-10.02809 280.6332-1.4174 280.6332 7.19325 280.6332 14.1734 287.6134 14.1734 296.22407ZM-1.4174 296.22407" fill="#f2f2f2"/>
<path transform="matrix(1.00003,0,0,-1,19.572022,390.613)" stroke-width=".19925" stroke-linecap="butt" stroke-miterlimit="10" stroke-linejoin="miter" fill="none" stroke="#bfbfbf" d="M14.1734 296.22407C14.1734 304.83473 7.19325 311.81489-1.4174 311.81489-10.02809 311.81489-17.00824 304.83473-17.00824 296.22407-17.00824 287.6134-10.02809 280.6332-1.4174 280.6332 7.19325 280.6332 14.1734 287.6134 14.1734 296.22407ZM-1.4174 296.22407"/>
<use data-text="D" xlink:href="#font_1_46" transform="matrix(9.962899,0,0,-9.9626,4.3855669,97.791019)"/>
<use data-text="d" xlink:href="#font_1_47" transform="matrix(9.962899,0,0,-9.9626,15.314865,97.791019)"/>
<use data-text="i" xlink:href="#font_1_66" transform="matrix(9.962899,0,0,-9.9626,20.85424,97.791019)"/>
<use data-text="m" xlink:href="#font_1_75" transform="matrix(9.962899,0,0,-9.9626,23.623925,97.791019)"/>
<path transform="matrix(1.00003,0,0,-1,19.572022,390.613)" d="M100.63126 310.39747C100.63126 319.00816 93.6511 325.9883 85.04042 325.9883 76.42975 325.9883 69.44958 319.00816 69.44958 310.39747 69.44958 301.7868 76.42975 294.80665 85.04042 294.80665 93.6511 294.80665 100.63126 301.7868 100.63126 310.39747ZM85.04042 310.39747" fill="#f2f2f2"/>
<path transform="matrix(1.00003,0,0,-1,19.572022,390.613)" stroke-width=".19925" stroke-linecap="butt" stroke-miterlimit="10" stroke-linejoin="miter" fill="none" stroke="#bfbfbf" d="M100.63126 310.39747C100.63126 319.00816 93.6511 325.9883 85.04042 325.9883 76.42975 325.9883 69.44958 319.00816 69.44958 310.39747 69.44958 301.7868 76.42975 294.80665 85.04042 294.80665 93.6511 294.80665 100.63126 301.7868 100.63126 310.39747ZM85.04042 310.39747"/>
<use data-text="A" xlink:href="#font_1_27" transform="matrix(9.962899,0,0,-9.9626,96.310329,83.78201)"/>
<use data-text="M" xlink:href="#font_1_74" transform="matrix(9.962899,0,0,-9.9626,103.7825,83.78201)"/>
<path transform="matrix(1.00003,0,0,-1,19.572022,390.613)" d="M128.97806 325.9883C128.97806 334.59898 121.99791 341.57914 113.38724 341.57914 104.77655 341.57914 97.7964 334.59898 97.7964 325.9883 97.7964 317.37763 104.77655 310.39747 113.38724 310.39747 121.99791 310.39747 128.97806 317.37763 128.97806 325.9883ZM113.38724 325.9883" fill="#f2f2f2"/>
<path transform="matrix(1.00003,0,0,-1,19.572022,390.613)" stroke-width=".19925" stroke-linecap="butt" stroke-miterlimit="10" stroke-linejoin="miter" fill="none" stroke="#bfbfbf" d="M128.97806 325.9883C128.97806 334.59898 121.99791 341.57914 113.38724 341.57914 104.77655 341.57914 97.7964 334.59898 97.7964 325.9883 97.7964 317.37763 104.77655 310.39747 113.38724 310.39747 121.99791 310.39747 128.97806 317.37763 128.97806 325.9883ZM113.38724 325.9883"/>
<use data-text="A" xlink:href="#font_1_27" transform="matrix(9.962899,0,0,-9.9626,129.22632,68.19101)"/>
<path transform="matrix(1.00003,0,0,-1,19.572022,390.613)" d="M157.32488 341.57914C157.32488 350.1898 150.34471 357.16996 141.73404 357.16996 133.12337 357.16996 126.14322 350.1898 126.14322 341.57914 126.14322 332.96846 133.12337 325.9883 141.73404 325.9883 150.34471 325.9883 157.32488 332.96846 157.32488 341.57914ZM141.73404 341.57914" fill="#f2f2f2"/>
<path transform="matrix(1.00003,0,0,-1,19.572022,390.613)" stroke-width=".19925" stroke-linecap="butt" stroke-miterlimit="10" stroke-linejoin="miter" fill="none" stroke="#bfbfbf" d="M157.32488 341.57914C157.32488 350.1898 150.34471 357.16996 141.73404 357.16996 133.12337 357.16996 126.14322 350.1898 126.14322 341.57914 126.14322 332.96846 133.12337 325.9883 141.73404 325.9883 150.34471 325.9883 157.32488 332.96846 157.32488 341.57914ZM141.73404 341.57914"/>
<use data-text="D" xlink:href="#font_1_46" transform="matrix(9.962899,0,0,-9.9626,155.56711,52.77002)"/>
<use data-text="&#x266d;" xlink:href="#font_2_1" transform="matrix(9.962899,0,0,-9.9626,163.17934,52.77002)"/>
<path transform="matrix(1.00003,0,0,-1,19.572022,390.613)" d="M72.28444 294.80665C72.28444 303.4173 65.30429 310.39747 56.69362 310.39747 48.08293 310.39747 41.10278 303.4173 41.10278 294.80665 41.10278 286.19599 48.08293 279.2158 56.69362 279.2158 65.30429 279.2158 72.28444 286.19599 72.28444 294.80665ZM56.69362 294.80665" fill="#f2f2f2"/>
<path transform="matrix(1.00003,0,0,-1,19.572022,390.613)" stroke-width=".19925" stroke-linecap="butt" stroke-miterlimit="10" stroke-linejoin="miter" fill="none" stroke="#bfbfbf" d="M72.28444 294.80665C72.28444 303.4173 65.30429 310.39747 56.69362 310.39747 48.08293 310.39747 41.10278 303.4173 41.10278 294.80665 41.10278 286.19599 48.08293 279.2158 56.69362 279.2158 65.30429 279.2158 72.28444 286.19599 72.28444 294.80665ZM56.69362 294.80665"/>
<use data-text="A" xlink:href="#font_1_27" transform="matrix(9.962899,0,0,-9.9626,66.996448,99.37302)"/>
<use data-text="m" xlink:href="#font_1_75" transform="matrix(9.962899,0,0,-9.9626,74.46862,99.37302)"/>
<use data-text="i" xlink:href="#font_1_66" transform="matrix(9.962899,0,0,-9.9626,82.767719,99.37302)"/>
<path transform="matrix(1.00003,0,0,-1,19.572022,390.613)" d="M43.93764 278.64918C43.93764 287.25984 36.95747 294.24 28.3468 294.24 19.73613 294.24 12.75597 287.25984 12.75597 278.64918 12.75597 270.0385 19.73613 263.05833 28.3468 263.05833 36.95747 263.05833 43.93764 270.0385 43.93764 278.64918ZM28.3468 278.64918" fill="#f2f2f2"/>
<path transform="matrix(1.00003,0,0,-1,19.572022,390.613)" stroke-width=".19925" stroke-linecap="butt" stroke-miterlimit="10" stroke-linejoin="miter" fill="none" stroke="#bfbfbf" d="M43.93764 278.64918C43.93764 287.25984 36.95747 294.24 28.3468 294.24 19.73613 294.24 12.75597 287.25984 12.75597 278.64918 12.75597 270.0385 19.73613 263.05833 28.3468 263.05833 36.95747 263.05833 43.93764 270.0385 43.93764 278.64918ZM28.3468 278.64918"/>
<use data-text="A" xlink:href="#font_1_27" transform="matrix(9.962899,0,0,-9.9626,41.692689,115.42102)"/>
<use data-text="7" xlink:href="#font_1_100" transform="matrix(9.962899,0,0,-9.9626,49.164865,115.42102)"/>
<path transform="matrix(1.00003,0,0,-1,19.572022,390.613)" d="M15.59082 263.9087C15.59082 272.51939 8.61067 279.49955 0 279.49955-8.61067 279.49955-15.59082 272.51939-15.59082 263.9087-15.59082 255.29804-8.61067 248.31789 0 248.31789 8.61067 248.31789 15.59082 255.29804 15.59082 263.9087ZM0 263.9087" fill="#f2f2f2"/>
<path transform="matrix(1.00003,0,0,-1,19.572022,390.613)" stroke-width=".19925" stroke-linecap="butt" stroke-miterlimit="10" stroke-linejoin="miter" fill="none" stroke="#bfbfbf" d="M15.59082 263.9087C15.59082 272.51939 8.61067 279.49955 0 279.49955-8.61067 279.49955-15.59082 272.51939-15.59082 263.9087-15.59082 255.29804-8.61067 248.31789 0 248.31789 8.61067 248.31789 15.59082 255.29804 15.59082 263.9087ZM0 263.9087"/>
<use data-text="A" xlink:href="#font_1_27" transform="matrix(9.962899,0,0,-9.9626,7.670662,130.216)"/>
<use data-text="d" xlink:href="#font_1_47" transform="matrix(9.962899,0,0,-9.9626,14.87384,130.216)"/>
<use data-text="i" xlink:href="#font_1_66" transform="matrix(9.962899,0,0,-9.9626,20.413216,130.216)"/>
<use data-text="m" xlink:href="#font_1_75" transform="matrix(9.962899,0,0,-9.9626,23.1829,130.216)"/>
<path transform="matrix(1.00003,0,0,-1,19.572022,390.613)" d="M157.32488 308.98005C157.32488 317.5907 150.34471 324.57087 141.73404 324.57087 133.12337 324.57087 126.14322 317.5907 126.14322 308.98005 126.14322 300.36936 133.12337 293.3892 141.73404 293.3892 150.34471 293.3892 157.32488 300.36936 157.32488 308.98005ZM141.73404 308.98005" fill="#f2f2f2"/>
<path transform="matrix(1.00003,0,0,-1,19.572022,390.613)" stroke-width=".19925" stroke-linecap="butt" stroke-miterlimit="10" stroke-linejoin="miter" fill="none" stroke="#bfbfbf" d="M157.32488 308.98005C157.32488 317.5907 150.34471 324.57087 141.73404 324.57087 133.12337 324.57087 126.14322 317.5907 126.14322 308.98005 126.14322 300.36936 133.12337 293.3892 141.73404 293.3892 150.34471 293.3892 157.32488 300.36936 157.32488 308.98005ZM141.73404 308.98005"/>
<use data-text="A" xlink:href="#font_1_27" transform="matrix(9.962899,0,0,-9.9626,155.63712,85.36902)"/>
<use data-text="&#x266d;" xlink:href="#font_2_1" transform="matrix(9.962899,0,0,-9.9626,163.10935,85.36902)"/>
<path transform="matrix(1.00003,0,0,-1,19.572022,390.613)" d="M128.97806 293.67298C128.97806 302.28364 121.99791 309.2638 113.38724 309.2638 104.77655 309.2638 97.7964 302.28364 97.7964 293.67298 97.7964 285.06227 104.77655 278.08213 113.38724 278.08213 121.99791 278.08213 128.97806 285.06227 128.97806 293.67298ZM113.38724 293.67298" fill="#f2f2f2"/>
<path transform="matrix(1.00003,0,0,-1,19.572022,390.613)" stroke-width=".19925" stroke-linecap="butt" stroke-miterlimit="10" stroke-linejoin="miter" fill="none" stroke="#bfbfbf" d="M128.97806 293.67298C128.97806 302.28364 121.99791 309.2638 113.38724 309.2638 104.77655 309.2638 97.7964 302.28364 97.7964 293.67298 97.7964 285.06227 104.77655 278.08213 113.38724 278.08213 121.99791 278.08213 128.97806 285.06227 128.97806 293.67298ZM113.38724 293.67298"/>
<use data-text="E" xlink:href="#font_1_49" transform="matrix(9.962899,0,0,-9.9626,129.57033,100.326999)"/>
<path transform="matrix(1.00003,0,0,-1,19.572022,390.613)" d="M100.63126 278.36589C100.63126 286.97657 93.6511 293.9567 85.04042 293.9567 76.42975 293.9567 69.44958 286.97657 69.44958 278.36589 69.44958 269.7552 76.42975 262.77507 85.04042 262.77507 93.6511 262.77507 100.63126 269.7552 100.63126 278.36589ZM85.04042 278.36589" fill="#f2f2f2"/>
<path transform="matrix(1.00003,0,0,-1,19.572022,390.613)" stroke-width=".19925" stroke-linecap="butt" stroke-miterlimit="10" stroke-linejoin="miter" fill="none" stroke="#bfbfbf" d="M100.63126 278.36589C100.63126 286.97657 93.6511 293.9567 85.04042 293.9567 76.42975 293.9567 69.44958 286.97657 69.44958 278.36589 69.44958 269.7552 76.42975 262.77507 85.04042 262.77507 93.6511 262.77507 100.63126 269.7552 100.63126 278.36589ZM85.04042 278.36589"/>
<use data-text="E" xlink:href="#font_1_49" transform="matrix(9.962899,0,0,-9.9626,96.65434,115.64902)"/>
<use data-text="M" xlink:href="#font_1_74" transform="matrix(9.962899,0,0,-9.9626,103.43908,115.64902)"/>
<path transform="matrix(1.00003,0,0,-1,19.572022,390.613)" d="M72.28444 262.20799C72.28444 270.81867 65.30429 277.7988 56.69362 277.7988 48.08293 277.7988 41.10278 270.81867 41.10278 262.20799 41.10278 253.5973 48.08293 246.61714 56.69362 246.61714 65.30429 246.61714 72.28444 253.5973 72.28444 262.20799ZM56.69362 262.20799" fill="#f2f2f2"/>
<path transform="matrix(1.00003,0,0,-1,19.572022,390.613)" stroke-width=".19925" stroke-linecap="butt" stroke-miterlimit="10" stroke-linejoin="miter" fill="none" stroke="#bfbfbf" d="M72.28444 262.20799C72.28444 270.81867 65.30429 277.7988 56.69362 277.7988 48.08293 277.7988 41.10278 270.81867 41.10278 262.20799 41.10278 253.5973 48.08293 246.61714 56.69362 246.61714 65.30429 246.61714 72.28444 253.5973 72.28444 262.20799ZM56.69362 262.20799"/>
<use data-text="E" xlink:href="#font_1_49" transform="matrix(9.962899,0,0,-9.9626,67.340457,131.79199)"/>
<use data-text="m" xlink:href="#font_1_75" transform="matrix(9.962899,0,0,-9.9626,74.12519,131.79199)"/>
<use data-text="i" xlink:href="#font_1_66" transform="matrix(9.962899,0,0,-9.9626,82.42428,131.79199)"/>
<path transform="matrix(1.00003,0,0,-1,19.572022,390.613)" d="M43.93764 245.1997C43.93764 253.81038 36.95747 260.79054 28.3468 260.79054 19.73613 260.79054 12.75597 253.81038 12.75597 245.1997 12.75597 236.58904 19.73613 229.60889 28.3468 229.60889 36.95747 229.60889 43.93764 236.58904 43.93764 245.1997ZM28.3468 245.1997" fill="#f2f2f2"/>
<path transform="matrix(1.00003,0,0,-1,19.572022,390.613)" stroke-width=".19925" stroke-linecap="butt" stroke-miterlimit="10" stroke-linejoin="miter" fill="none" stroke="#bfbfbf" d="M43.93764 245.1997C43.93764 253.81038 36.95747 260.79054 28.3468 260.79054 19.73613 260.79054 12.75597 253.81038 12.75597 245.1997 12.75597 236.58904 19.73613 229.60889 28.3468 229.60889 36.95747 229.60889 43.93764 236.58904 43.93764 245.1997ZM28.3468 245.1997"/>
<use data-text="E" xlink:href="#font_1_49" transform="matrix(9.962899,0,0,-9.9626,42.036699,148.69101)"/>
<use data-text="7" xlink:href="#font_1_100" transform="matrix(9.962899,0,0,-9.9626,48.821435,148.69101)"/>
<path transform="matrix(1.00003,0,0,-1,19.572022,390.613)" d="M13.60634 231.0263C13.60634 239.637 6.62619 246.61714-1.98447 246.61714-10.59515 246.61714-17.5753 239.637-17.5753 231.0263-17.5753 222.41564-10.59515 215.43549-1.98447 215.43549 6.62619 215.43549 13.60634 222.41564 13.60634 231.0263ZM-1.98447 231.0263" fill="#f2f2f2"/>
<path transform="matrix(1.00003,0,0,-1,19.572022,390.613)" stroke-width=".19925" stroke-linecap="butt" stroke-miterlimit="10" stroke-linejoin="miter" fill="none" stroke="#bfbfbf" d="M13.60634 231.0263C13.60634 239.637 6.62619 246.61714-1.98447 246.61714-10.59515 246.61714-17.5753 239.637-17.5753 231.0263-17.5753 222.41564-10.59515 215.43549-1.98447 215.43549 6.62619 215.43549 13.60634 222.41564 13.60634 231.0263ZM-1.98447 231.0263"/>
<use data-text="E" xlink:href="#font_1_49" transform="matrix(9.962899,0,0,-9.9626,5.8906099,162.98902)"/>
<use data-text="d" xlink:href="#font_1_47" transform="matrix(9.962899,0,0,-9.9626,12.675346,162.98902)"/>
<use data-text="i" xlink:href="#font_1_66" transform="matrix(9.962899,0,0,-9.9626,18.214722,162.98902)"/>
<use data-text="m" xlink:href="#font_1_75" transform="matrix(9.962899,0,0,-9.9626,20.984398,162.98902)"/>
<path transform="matrix(1.00003,0,0,-1,19.572022,390.613)" d="M157.32488 275.81434C157.32488 284.425 150.34471 291.40516 141.73404 291.40516 133.12337 291.40516 126.14322 284.425 126.14322 275.81434 126.14322 267.20365 133.12337 260.2235 141.73404 260.2235 150.34471 260.2235 157.32488 267.20365 157.32488 275.81434ZM141.73404 275.81434" fill="#f2f2f2"/>
<path transform="matrix(1.00003,0,0,-1,19.572022,390.613)" stroke-width=".19925" stroke-linecap="butt" stroke-miterlimit="10" stroke-linejoin="miter" fill="none" stroke="#bfbfbf" d="M157.32488 275.81434C157.32488 284.425 150.34471 291.40516 141.73404 291.40516 133.12337 291.40516 126.14322 284.425 126.14322 275.81434 126.14322 267.20365 133.12337 260.2235 141.73404 260.2235 150.34471 260.2235 157.32488 267.20365 157.32488 275.81434ZM141.73404 275.81434"/>
<use data-text="E" xlink:href="#font_1_49" transform="matrix(9.962899,0,0,-9.9626,155.98113,118.535)"/>
<use data-text="&#x266d;" xlink:href="#font_2_1" transform="matrix(9.962899,0,0,-9.9626,162.76633,118.535)"/>
<path transform="matrix(1.00003,0,0,-1,19.572022,390.613)" d="M128.97806 261.64094C128.97806 270.2516 121.99791 277.23176 113.38724 277.23176 104.77655 277.23176 97.7964 270.2516 97.7964 261.64094 97.7964 253.03025 104.77655 246.0501 113.38724 246.0501 121.99791 246.0501 128.97806 253.03025 128.97806 261.64094ZM113.38724 261.64094" fill="#f2f2f2"/>
<path transform="matrix(1.00003,0,0,-1,19.572022,390.613)" stroke-width=".19925" stroke-linecap="butt" stroke-miterlimit="10" stroke-linejoin="miter" fill="none" stroke="#bfbfbf" d="M128.97806 261.64094C128.97806 270.2516 121.99791 277.23176 113.38724 277.23176 104.77655 277.23176 97.7964 270.2516 97.7964 261.64094 97.7964 253.03025 104.77655 246.0501 113.38724 246.0501 121.99791 246.0501 128.97806 253.03025 128.97806 261.64094ZM113.38724 261.64094"/>
<use data-text="B" xlink:href="#font_1_34" transform="matrix(9.962899,0,0,-9.9626,129.43534,132.374)"/>
<path transform="matrix(1.00003,0,0,-1,19.572022,390.613)" d="M100.63126 245.76677C100.63126 254.37744 93.6511 261.3576 85.04042 261.3576 76.42975 261.3576 69.44958 254.37744 69.44958 245.76677 69.44958 237.1561 76.42975 230.17595 85.04042 230.17595 93.6511 230.17595 100.63126 237.1561 100.63126 245.76677ZM85.04042 245.76677" fill="#f2f2f2"/>
<path transform="matrix(1.00003,0,0,-1,19.572022,390.613)" stroke-width=".19925" stroke-linecap="butt" stroke-miterlimit="10" stroke-linejoin="miter" fill="none" stroke="#bfbfbf" d="M100.63126 245.76677C100.63126 254.37744 93.6511 261.3576 85.04042 261.3576 76.42975 261.3576 69.44958 254.37744 69.44958 245.76677 69.44958 237.1561 76.42975 230.17595 85.04042 230.17595 93.6511 230.17595 100.63126 237.1561 100.63126 245.76677ZM85.04042 245.76677"/>
<use data-text="B" xlink:href="#font_1_34" transform="matrix(9.962899,0,0,-9.9626,96.52033,148.24901)"/>
<use data-text="M" xlink:href="#font_1_74" transform="matrix(9.962899,0,0,-9.9626,103.574069,148.24901)"/>
<path transform="matrix(1.00003,0,0,-1,19.572022,390.613)" d="M72.28444 229.60932C72.28444 238.22 65.30429 245.20015 56.69362 245.20015 48.08293 245.20015 41.10278 238.22 41.10278 229.60932 41.10278 220.99864 48.08293 214.0185 56.69362 214.0185 65.30429 214.0185 72.28444 220.99864 72.28444 229.60932ZM56.69362 229.60932" fill="#f2f2f2"/>
<path transform="matrix(1.00003,0,0,-1,19.572022,390.613)" stroke-width=".19925" stroke-linecap="butt" stroke-miterlimit="10" stroke-linejoin="miter" fill="none" stroke="#bfbfbf" d="M72.28444 229.60932C72.28444 238.22 65.30429 245.20015 56.69362 245.20015 48.08293 245.20015 41.10278 238.22 41.10278 229.60932 41.10278 220.99864 48.08293 214.0185 56.69362 214.0185 65.30429 214.0185 72.28444 220.99864 72.28444 229.60932ZM56.69362 229.60932"/>
<use data-text="B" xlink:href="#font_1_34" transform="matrix(9.962899,0,0,-9.9626,67.20545,164.406)"/>
<use data-text="m" xlink:href="#font_1_75" transform="matrix(9.962899,0,0,-9.9626,74.259189,164.406)"/>
<use data-text="i" xlink:href="#font_1_66" transform="matrix(9.962899,0,0,-9.9626,82.55827,164.406)"/>
<path transform="matrix(1.00003,0,0,-1,19.572022,390.613)" d="M44.788 212.88439C44.788 221.49506 37.80785 228.4752 29.19717 228.4752 20.5865 228.4752 13.60634 221.49506 13.60634 212.88439 13.60634 204.2737 20.5865 197.29355 29.19717 197.29355 37.80785 197.29355 44.788 204.2737 44.788 212.88439ZM29.19717 212.88439" fill="#f2f2f2"/>
<path transform="matrix(1.00003,0,0,-1,19.572022,390.613)" stroke-width=".19925" stroke-linecap="butt" stroke-miterlimit="10" stroke-linejoin="miter" fill="none" stroke="#bfbfbf" d="M44.788 212.88439C44.788 221.49506 37.80785 228.4752 29.19717 228.4752 20.5865 228.4752 13.60634 221.49506 13.60634 212.88439 13.60634 204.2737 20.5865 197.29355 29.19717 197.29355 37.80785 197.29355 44.788 204.2737 44.788 212.88439ZM29.19717 212.88439"/>
<use data-text="B" xlink:href="#font_1_34" transform="matrix(9.962899,0,0,-9.9626,42.752717,181.02101)"/>
<use data-text="7" xlink:href="#font_1_100" transform="matrix(9.962899,0,0,-9.9626,49.80645,181.02101)"/>
<path transform="matrix(1.00003,0,0,-1,19.572022,390.613)" d="M15.59082 198.42766C15.59082 207.03833 8.61067 214.0185 0 214.0185-8.61067 214.0185-15.59082 207.03833-15.59082 198.42766-15.59082 189.81699-8.61067 182.83684 0 182.83684 8.61067 182.83684 15.59082 189.81699 15.59082 198.42766ZM0 198.42766" fill="#f2f2f2"/>
<path transform="matrix(1.00003,0,0,-1,19.572022,390.613)" stroke-width=".19925" stroke-linecap="butt" stroke-miterlimit="10" stroke-linejoin="miter" fill="none" stroke="#bfbfbf" d="M15.59082 198.42766C15.59082 207.03833 8.61067 214.0185 0 214.0185-8.61067 214.0185-15.59082 207.03833-15.59082 198.42766-15.59082 189.81699-8.61067 182.83684 0 182.83684 8.61067 182.83684 15.59082 189.81699 15.59082 198.42766ZM0 198.42766"/>
<use data-text="B" xlink:href="#font_1_34" transform="matrix(9.962899,0,0,-9.9626,7.7406618,195.58802)"/>
<use data-text="d" xlink:href="#font_1_47" transform="matrix(9.962899,0,0,-9.9626,14.794395,195.58802)"/>
<use data-text="i" xlink:href="#font_1_66" transform="matrix(9.962899,0,0,-9.9626,20.33377,195.58802)"/>
<use data-text="m" xlink:href="#font_1_75" transform="matrix(9.962899,0,0,-9.9626,23.103447,195.58802)"/>
<path transform="matrix(1.00003,0,0,-1,19.572022,390.613)" d="M157.32488 243.78272C157.32488 252.39339 150.34471 259.37355 141.73404 259.37355 133.12337 259.37355 126.14322 252.39339 126.14322 243.78272 126.14322 235.17205 133.12337 228.1919 141.73404 228.1919 150.34471 228.1919 157.32488 235.17205 157.32488 243.78272ZM141.73404 243.78272" fill="#f2f2f2"/>
<path transform="matrix(1.00003,0,0,-1,19.572022,390.613)" stroke-width=".19925" stroke-linecap="butt" stroke-miterlimit="10" stroke-linejoin="miter" fill="none" stroke="#bfbfbf" d="M157.32488 243.78272C157.32488 252.39339 150.34471 259.37355 141.73404 259.37355 133.12337 259.37355 126.14322 252.39339 126.14322 243.78272 126.14322 235.17205 133.12337 228.1919 141.73404 228.1919 150.34471 228.1919 157.32488 235.17205 157.32488 243.78272ZM141.73404 243.78272"/>
<use data-text="B" xlink:href="#font_1_34" transform="matrix(9.962899,0,0,-9.9626,155.84612,150.56601)"/>
<use data-text="&#x266d;" xlink:href="#font_2_1" transform="matrix(9.962899,0,0,-9.9626,162.90033,150.56601)"/>
<path transform="matrix(1.00003,0,0,-1,19.572022,390.613)" d="M128.97806 229.04225C128.97806 237.65293 121.99791 244.63309 113.38724 244.63309 104.77655 244.63309 97.7964 237.65293 97.7964 229.04225 97.7964 220.43158 104.77655 213.45143 113.38724 213.45143 121.99791 213.45143 128.97806 220.43158 128.97806 229.04225ZM113.38724 229.04225" fill="#f2f2f2"/>
<path transform="matrix(1.00003,0,0,-1,19.572022,390.613)" stroke-width=".19925" stroke-linecap="butt" stroke-miterlimit="10" stroke-linejoin="miter" fill="none" stroke="#bfbfbf" d="M128.97806 229.04225C128.97806 237.65293 121.99791 244.63309 113.38724 244.63309 104.77655 244.63309 97.7964 237.65293 97.7964 229.04225 97.7964 220.43158 104.77655 213.45143 113.38724 213.45143 121.99791 213.45143 128.97806 220.43158 128.97806 229.04225ZM113.38724 229.04225"/>
<use data-text="F" xlink:href="#font_1_54" transform="matrix(9.962899,0,0,-9.9626,125.5602,164.061)"/>
<use data-text="#" xlink:href="#font_1_79" transform="matrix(9.962899,0,0,-9.9626,132.06598,164.061)"/>
<path transform="matrix(1.00003,0,0,-1,19.572022,390.613)" d="M100.63126 211.46738C100.63126 220.07805 93.6511 227.0582 85.04042 227.0582 76.42975 227.0582 69.44958 220.07805 69.44958 211.46738 69.44958 202.85669 76.42975 195.87654 85.04042 195.87654 93.6511 195.87654 100.63126 202.85669 100.63126 211.46738ZM85.04042 211.46738" fill="#f2f2f2"/>
<path transform="matrix(1.00003,0,0,-1,19.572022,390.613)" stroke-width=".19925" stroke-linecap="butt" stroke-miterlimit="10" stroke-linejoin="miter" fill="none" stroke="#bfbfbf" d="M100.63126 211.46738C100.63126 220.07805 93.6511 227.0582 85.04042 227.0582 76.42975 227.0582 69.44958 220.07805 69.44958 211.46738 69.44958 202.85669 76.42975 195.87654 85.04042 195.87654 93.6511 195.87654 100.63126 202.85669 100.63126 211.46738ZM85.04042 211.46738"/>
<use data-text="F" xlink:href="#font_1_54" transform="matrix(9.962899,0,0,-9.9626,90.98517,181.636)"/>
<use data-text="#" xlink:href="#font_1_79" transform="matrix(9.962899,0,0,-9.9626,97.490947,181.636)"/>
<use data-text="M" xlink:href="#font_1_74" transform="matrix(9.962899,0,0,-9.9626,109.10767,181.636)"/>
<path transform="matrix(1.00003,0,0,-1,19.572022,390.613)" d="M72.28444 195.5928C72.28444 204.20348 65.30429 211.18363 56.69362 211.18363 48.08293 211.18363 41.10278 204.20348 41.10278 195.5928 41.10278 186.98212 48.08293 180.00197 56.69362 180.00197 65.30429 180.00197 72.28444 186.98212 72.28444 195.5928ZM56.69362 195.5928" fill="#f2f2f2"/>
<path transform="matrix(1.00003,0,0,-1,19.572022,390.613)" stroke-width=".19925" stroke-linecap="butt" stroke-miterlimit="10" stroke-linejoin="miter" fill="none" stroke="#bfbfbf" d="M72.28444 195.5928C72.28444 204.20348 65.30429 211.18363 56.69362 211.18363 48.08293 211.18363 41.10278 204.20348 41.10278 195.5928 41.10278 186.98212 48.08293 180.00197 56.69362 180.00197 65.30429 180.00197 72.28444 186.98212 72.28444 195.5928ZM56.69362 195.5928"/>
<use data-text="F" xlink:href="#font_1_54" transform="matrix(9.962899,0,0,-9.9626,63.330339,197.511)"/>
<use data-text="#" xlink:href="#font_1_79" transform="matrix(9.962899,0,0,-9.9626,69.83611,197.511)"/>
<use data-text="m" xlink:href="#font_1_75" transform="matrix(9.962899,0,0,-9.9626,78.1352,197.511)"/>
<use data-text="i" xlink:href="#font_1_66" transform="matrix(9.962899,0,0,-9.9626,86.434299,197.511)"/>
<path transform="matrix(1.00003,0,0,-1,19.572022,390.613)" d="M43.93764 180.00241C43.93764 188.61309 36.95747 195.59323 28.3468 195.59323 19.73613 195.59323 12.75597 188.61309 12.75597 180.00241 12.75597 171.39174 19.73613 164.41158 28.3468 164.41158 36.95747 164.41158 43.93764 171.39174 43.93764 180.00241ZM28.3468 180.00241" fill="#f2f2f2"/>
<path transform="matrix(1.00003,0,0,-1,19.572022,390.613)" stroke-width=".19925" stroke-linecap="butt" stroke-miterlimit="10" stroke-linejoin="miter" fill="none" stroke="#bfbfbf" d="M43.93764 180.00241C43.93764 188.61309 36.95747 195.59323 28.3468 195.59323 19.73613 195.59323 12.75597 188.61309 12.75597 180.00241 12.75597 171.39174 19.73613 164.41158 28.3468 164.41158 36.95747 164.41158 43.93764 171.39174 43.93764 180.00241ZM28.3468 180.00241"/>
<use data-text="F" xlink:href="#font_1_54" transform="matrix(9.962899,0,0,-9.9626,38.026578,213.10102)"/>
<use data-text="#" xlink:href="#font_1_79" transform="matrix(9.962899,0,0,-9.9626,44.532354,213.10102)"/>
<use data-text="7" xlink:href="#font_1_100" transform="matrix(9.962899,0,0,-9.9626,52.83144,213.10102)"/>
<path transform="matrix(1.00003,0,0,-1,19.572022,390.613)" d="M16.27852 164.41156C16.27852 173.40204 8.99048 180.69008 0 180.69008-8.99048 180.69008-16.27852 173.40204-16.27852 164.41156-16.27852 155.42108-8.99048 148.13304 0 148.13304 8.99048 148.13304 16.27852 155.42108 16.27852 164.41156ZM0 164.41156" fill="#f2f2f2"/>
<path transform="matrix(1.00003,0,0,-1,19.572022,390.613)" stroke-width=".19925" stroke-linecap="butt" stroke-miterlimit="10" stroke-linejoin="miter" fill="none" stroke="#bfbfbf" d="M16.27852 164.41156C16.27852 173.40204 8.99048 180.69008 0 180.69008-8.99048 180.69008-16.27852 173.40204-16.27852 164.41156-16.27852 155.42108-8.99048 148.13304 0 148.13304 8.99048 148.13304 16.27852 155.42108 16.27852 164.41156ZM0 164.41156"/>
<use data-text="F" xlink:href="#font_1_54" transform="matrix(9.962899,0,0,-9.9626,3.8655472,228.692)"/>
<use data-text="#" xlink:href="#font_1_79" transform="matrix(9.962899,0,0,-9.9626,10.371323,228.692)"/>
<use data-text="d" xlink:href="#font_1_47" transform="matrix(9.962899,0,0,-9.9626,18.67041,228.692)"/>
<use data-text="i" xlink:href="#font_1_66" transform="matrix(9.962899,0,0,-9.9626,24.209786,228.692)"/>
<use data-text="m" xlink:href="#font_1_75" transform="matrix(9.962899,0,0,-9.9626,26.97947,228.692)"/>
<path transform="matrix(1.00003,0,0,-1,19.572022,390.613)" d="M158.7423 211.75069C158.7423 220.36136 151.76213 227.34152 143.15146 227.34152 134.54079 227.34152 127.56062 220.36136 127.56062 211.75069 127.56062 203.14002 134.54079 196.15987 143.15146 196.15987 151.76213 196.15987 158.7423 203.14002 158.7423 211.75069ZM143.15146 211.75069" fill="#f2f2f2"/>
<path transform="matrix(1.00003,0,0,-1,19.572022,390.613)" stroke-width=".19925" stroke-linecap="butt" stroke-miterlimit="10" stroke-linejoin="miter" fill="none" stroke="#bfbfbf" d="M158.7423 211.75069C158.7423 220.36136 151.76213 227.34152 143.15146 227.34152 134.54079 227.34152 127.56062 220.36136 127.56062 211.75069 127.56062 203.14002 134.54079 196.15987 143.15146 196.15987 151.76213 196.15987 158.7423 203.14002 158.7423 211.75069ZM143.15146 211.75069"/>
<use data-text="F" xlink:href="#font_1_54" transform="matrix(9.962899,0,0,-9.9626,159.47522,182.25)"/>
<path transform="matrix(1.00003,0,0,-1,19.572022,390.613)" d="M128.97806 196.44316C128.97806 205.05384 121.99791 212.034 113.38724 212.034 104.77655 212.034 97.7964 205.05384 97.7964 196.44316 97.7964 187.83249 104.77655 180.85234 113.38724 180.85234 121.99791 180.85234 128.97806 187.83249 128.97806 196.44316ZM113.38724 196.44316" fill="#f2f2f2"/>
<path transform="matrix(1.00003,0,0,-1,19.572022,390.613)" stroke-width=".19925" stroke-linecap="butt" stroke-miterlimit="10" stroke-linejoin="miter" fill="none" stroke="#bfbfbf" d="M128.97806 196.44316C128.97806 205.05384 121.99791 212.034 113.38724 212.034 104.77655 212.034 97.7964 205.05384 97.7964 196.44316 97.7964 187.83249 104.77655 180.85234 113.38724 180.85234 121.99791 180.85234 128.97806 187.83249 128.97806 196.44316ZM113.38724 196.44316"/>
<use data-text="D" xlink:href="#font_1_46" transform="matrix(9.962899,0,0,-9.9626,127.21925,197.906)"/>
<use data-text="&#x266d;" xlink:href="#font_2_1" transform="matrix(9.962899,0,0,-9.9626,134.83148,197.906)"/>
<path transform="matrix(1.00003,0,0,-1,19.572022,390.613)" d="M100.63126 179.43535C100.63126 188.04602 93.6511 195.02617 85.04042 195.02617 76.42975 195.02617 69.44958 188.04602 69.44958 179.43535 69.44958 170.82468 76.42975 163.84452 85.04042 163.84452 93.6511 163.84452 100.63126 170.82468 100.63126 179.43535ZM85.04042 179.43535" fill="#f2f2f2"/>
<path transform="matrix(1.00003,0,0,-1,19.572022,390.613)" stroke-width=".19925" stroke-linecap="butt" stroke-miterlimit="10" stroke-linejoin="miter" fill="none" stroke="#bfbfbf" d="M100.63126 179.43535C100.63126 188.04602 93.6511 195.02617 85.04042 195.02617 76.42975 195.02617 69.44958 188.04602 69.44958 179.43535 69.44958 170.82468 76.42975 163.84452 85.04042 163.84452 93.6511 163.84452 100.63126 170.82468 100.63126 179.43535ZM85.04042 179.43535"/>
<use data-text="D" xlink:href="#font_1_46" transform="matrix(9.962899,0,0,-9.9626,92.64522,214.914)"/>
<use data-text="&#x266d;" xlink:href="#font_2_1" transform="matrix(9.962899,0,0,-9.9626,100.25745,214.914)"/>
<use data-text="M" xlink:href="#font_1_74" transform="matrix(9.962899,0,0,-9.9626,107.44966,214.914)"/>
<path transform="matrix(1.00003,0,0,-1,19.572022,390.613)" d="M72.28444 163.56119C72.28444 172.17188 65.30429 179.15203 56.69362 179.15203 48.08293 179.15203 41.10278 172.17188 41.10278 163.56119 41.10278 154.95052 48.08293 147.97037 56.69362 147.97037 65.30429 147.97037 72.28444 154.95052 72.28444 163.56119ZM56.69362 163.56119" fill="#f2f2f2"/>
<path transform="matrix(1.00003,0,0,-1,19.572022,390.613)" stroke-width=".19925" stroke-linecap="butt" stroke-miterlimit="10" stroke-linejoin="miter" fill="none" stroke="#bfbfbf" d="M72.28444 163.56119C72.28444 172.17188 65.30429 179.15203 56.69362 179.15203 48.08293 179.15203 41.10278 172.17188 41.10278 163.56119 41.10278 154.95052 48.08293 147.97037 56.69362 147.97037 65.30429 147.97037 72.28444 154.95052 72.28444 163.56119ZM56.69362 163.56119"/>
<use data-text="D" xlink:href="#font_1_46" transform="matrix(9.962899,0,0,-9.9626,63.331338,230.78801)"/>
<use data-text="&#x266d;" xlink:href="#font_2_1" transform="matrix(9.962899,0,0,-9.9626,70.943569,230.78801)"/>
<use data-text="m" xlink:href="#font_1_75" transform="matrix(9.962899,0,0,-9.9626,78.13578,230.78801)"/>
<use data-text="i" xlink:href="#font_1_66" transform="matrix(9.962899,0,0,-9.9626,86.434879,230.78801)"/>
<path transform="matrix(1.00003,0,0,-1,19.572022,390.613)" d="M43.93764 147.40332C43.93764 156.01399 36.95747 162.99414 28.3468 162.99414 19.73613 162.99414 12.75597 156.01399 12.75597 147.40332 12.75597 138.79265 19.73613 131.81249 28.3468 131.81249 36.95747 131.81249 43.93764 138.79265 43.93764 147.40332ZM28.3468 147.40332" fill="#f2f2f2"/>
<path transform="matrix(1.00003,0,0,-1,19.572022,390.613)" stroke-width=".19925" stroke-linecap="butt" stroke-miterlimit="10" stroke-linejoin="miter" fill="none" stroke="#bfbfbf" d="M43.93764 147.40332C43.93764 156.01399 36.95747 162.99414 28.3468 162.99414 19.73613 162.99414 12.75597 156.01399 12.75597 147.40332 12.75597 138.79265 19.73613 131.81249 28.3468 131.81249 36.95747 131.81249 43.93764 138.79265 43.93764 147.40332ZM28.3468 147.40332"/>
<use data-text="D" xlink:href="#font_1_46" transform="matrix(9.962899,0,0,-9.9626,38.026578,246.83602)"/>
<use data-text="&#x266d;" xlink:href="#font_2_1" transform="matrix(9.962899,0,0,-9.9626,45.638807,246.83602)"/>
<use data-text="7" xlink:href="#font_1_100" transform="matrix(9.962899,0,0,-9.9626,52.83102,246.83602)"/>
<path transform="matrix(1.00003,0,0,-1,19.572022,390.613)" d="M16.14717 130.39548C16.14717 139.31343 8.91794 146.54265 0 146.54265-8.91794 146.54265-16.14717 139.31343-16.14717 130.39548-16.14717 121.47752-8.91794 114.2483 0 114.2483 8.91794 114.2483 16.14717 121.47752 16.14717 130.39548ZM0 130.39548" fill="#f2f2f2"/>
<path transform="matrix(1.00003,0,0,-1,19.572022,390.613)" stroke-width=".19925" stroke-linecap="butt" stroke-miterlimit="10" stroke-linejoin="miter" fill="none" stroke="#bfbfbf" d="M16.14717 130.39548C16.14717 139.31343 8.91794 146.54265 0 146.54265-8.91794 146.54265-16.14717 139.31343-16.14717 130.39548-16.14717 121.47752-8.91794 114.2483 0 114.2483 8.91794 114.2483 16.14717 121.47752 16.14717 130.39548ZM0 130.39548"/>
<use data-text="D" xlink:href="#font_1_46" transform="matrix(9.962899,0,0,-9.9626,3.8655472,263.89903)"/>
<use data-text="&#x266d;" xlink:href="#font_2_1" transform="matrix(9.962899,0,0,-9.9626,11.477776,263.89903)"/>
<use data-text="d" xlink:href="#font_1_47" transform="matrix(9.962899,0,0,-9.9626,18.66999,263.89903)"/>
<use data-text="i" xlink:href="#font_1_66" transform="matrix(9.962899,0,0,-9.9626,24.209366,263.89903)"/>
<use data-text="m" xlink:href="#font_1_75" transform="matrix(9.962899,0,0,-9.9626,26.97905,263.89903)"/>
<path transform="matrix(1.00003,0,0,-1,19.572022,390.613)" d="M157.32488 178.58498C157.32488 187.19565 150.34471 194.17581 141.73404 194.17581 133.12337 194.17581 126.14322 187.19565 126.14322 178.58498 126.14322 169.9743 133.12337 162.99414 141.73404 162.99414 150.34471 162.99414 157.32488 169.9743 157.32488 178.58498ZM141.73404 178.58498" fill="#f2f2f2"/>
<path transform="matrix(1.00003,0,0,-1,19.572022,390.613)" stroke-width=".19925" stroke-linecap="butt" stroke-miterlimit="10" stroke-linejoin="miter" fill="none" stroke="#bfbfbf" d="M157.32488 178.58498C157.32488 187.19565 150.34471 194.17581 141.73404 194.17581 133.12337 194.17581 126.14322 187.19565 126.14322 178.58498 126.14322 169.9743 133.12337 162.99414 141.73404 162.99414 150.34471 162.99414 157.32488 169.9743 157.32488 178.58498ZM141.73404 178.58498"/>
<use data-text="C" xlink:href="#font_1_42" transform="matrix(9.962899,0,0,-9.9626,157.71317,215.43001)"/>
<path transform="matrix(1.00003,0,0,-1,19.572022,390.613)" d="M128.97806 162.99414C128.97806 171.60482 121.99791 178.58498 113.38724 178.58498 104.77655 178.58498 97.7964 171.60482 97.7964 162.99414 97.7964 154.38347 104.77655 147.40332 113.38724 147.40332 121.99791 147.40332 128.97806 154.38347 128.97806 162.99414ZM113.38724 162.99414" fill="#f2f2f2"/>
<path transform="matrix(1.00003,0,0,-1,19.572022,390.613)" stroke-width=".19925" stroke-linecap="butt" stroke-miterlimit="10" stroke-linejoin="miter" fill="none" stroke="#bfbfbf" d="M128.97806 162.99414C128.97806 171.60482 121.99791 178.58498 113.38724 178.58498 104.77655 178.58498 97.7964 171.60482 97.7964 162.99414 97.7964 154.38347 104.77655 147.40332 113.38724 147.40332 121.99791 147.40332 128.97806 154.38347 128.97806 162.99414ZM113.38724 162.99414"/>
<use data-text="A" xlink:href="#font_1_27" transform="matrix(9.962899,0,0,-9.9626,127.28925,231.35501)"/>
<use data-text="&#x266d;" xlink:href="#font_2_1" transform="matrix(9.962899,0,0,-9.9626,134.76148,231.35501)"/>
<path transform="matrix(1.00003,0,0,-1,19.572022,390.613)" d="M100.63126 146.83626C100.63126 155.44693 93.6511 162.42708 85.04042 162.42708 76.42975 162.42708 69.44958 155.44693 69.44958 146.83626 69.44958 138.22557 76.42975 131.24542 85.04042 131.24542 93.6511 131.24542 100.63126 138.22557 100.63126 146.83626ZM85.04042 146.83626" fill="#f2f2f2"/>
<path transform="matrix(1.00003,0,0,-1,19.572022,390.613)" stroke-width=".19925" stroke-linecap="butt" stroke-miterlimit="10" stroke-linejoin="miter" fill="none" stroke="#bfbfbf" d="M100.63126 146.83626C100.63126 155.44693 93.6511 162.42708 85.04042 162.42708 76.42975 162.42708 69.44958 155.44693 69.44958 146.83626 69.44958 138.22557 76.42975 131.24542 85.04042 131.24542 93.6511 131.24542 100.63126 138.22557 100.63126 146.83626ZM85.04042 146.83626"/>
<use data-text="A" xlink:href="#font_1_27" transform="matrix(9.962899,0,0,-9.9626,92.71422,247.513)"/>
<use data-text="&#x266d;" xlink:href="#font_2_1" transform="matrix(9.962899,0,0,-9.9626,100.18644,247.513)"/>
<use data-text="M" xlink:href="#font_1_74" transform="matrix(9.962899,0,0,-9.9626,107.37866,247.513)"/>
<path transform="matrix(1.00003,0,0,-1,19.572022,390.613)" d="M72.28444 128.97806C72.28444 137.58873 65.30429 144.5689 56.69362 144.5689 48.08293 144.5689 41.10278 137.58873 41.10278 128.97806 41.10278 120.36739 48.08293 113.38724 56.69362 113.38724 65.30429 113.38724 72.28444 120.36739 72.28444 128.97806ZM56.69362 128.97806" fill="#f2f2f2"/>
<path transform="matrix(1.00003,0,0,-1,19.572022,390.613)" stroke-width=".19925" stroke-linecap="butt" stroke-miterlimit="10" stroke-linejoin="miter" fill="none" stroke="#bfbfbf" d="M72.28444 128.97806C72.28444 137.58873 65.30429 144.5689 56.69362 144.5689 48.08293 144.5689 41.10278 137.58873 41.10278 128.97806 41.10278 120.36739 48.08293 113.38724 56.69362 113.38724 65.30429 113.38724 72.28444 120.36739 72.28444 128.97806ZM56.69362 128.97806"/>
<use data-text="A" xlink:href="#font_1_27" transform="matrix(9.962899,0,0,-9.9626,63.400339,265.371)"/>
<use data-text="&#x266d;" xlink:href="#font_2_1" transform="matrix(9.962899,0,0,-9.9626,70.87256,265.371)"/>
<use data-text="m" xlink:href="#font_1_75" transform="matrix(9.962899,0,0,-9.9626,78.06478,265.371)"/>
<use data-text="i" xlink:href="#font_1_66" transform="matrix(9.962899,0,0,-9.9626,86.36387,265.371)"/>
<path transform="matrix(1.00003,0,0,-1,19.572022,390.613)" d="M43.93764 113.10391C43.93764 121.71458 36.95747 128.69475 28.3468 128.69475 19.73613 128.69475 12.75597 121.71458 12.75597 113.10391 12.75597 104.49324 19.73613 97.51308 28.3468 97.51308 36.95747 97.51308 43.93764 104.49324 43.93764 113.10391ZM28.3468 113.10391" fill="#f2f2f2"/>
<path transform="matrix(1.00003,0,0,-1,19.572022,390.613)" stroke-width=".19925" stroke-linecap="butt" stroke-miterlimit="10" stroke-linejoin="miter" fill="none" stroke="#bfbfbf" d="M43.93764 113.10391C43.93764 121.71458 36.95747 128.69475 28.3468 128.69475 19.73613 128.69475 12.75597 121.71458 12.75597 113.10391 12.75597 104.49324 19.73613 97.51308 28.3468 97.51308 36.95747 97.51308 43.93764 104.49324 43.93764 113.10391ZM28.3468 113.10391"/>
<use data-text="A" xlink:href="#font_1_27" transform="matrix(9.962899,0,0,-9.9626,38.09658,281.13603)"/>
<use data-text="&#x266d;" xlink:href="#font_2_1" transform="matrix(9.962899,0,0,-9.9626,45.5688,281.13603)"/>
<use data-text="7" xlink:href="#font_1_100" transform="matrix(9.962899,0,0,-9.9626,52.761026,281.13603)"/>
<path transform="matrix(1.00003,0,0,-1,19.572022,390.613)" d="M16.07541 97.79639C16.07541 106.67471 8.87831 113.87181 0 113.87181-8.87831 113.87181-16.07541 106.67471-16.07541 97.79639-16.07541 88.91806-8.87831 81.72096 0 81.72096 8.87831 81.72096 16.07541 88.91806 16.07541 97.79639ZM0 97.79639" fill="#f2f2f2"/>
<path transform="matrix(1.00003,0,0,-1,19.572022,390.613)" stroke-width=".19925" stroke-linecap="butt" stroke-miterlimit="10" stroke-linejoin="miter" fill="none" stroke="#bfbfbf" d="M16.07541 97.79639C16.07541 106.67471 8.87831 113.87181 0 113.87181-8.87831 113.87181-16.07541 106.67471-16.07541 97.79639-16.07541 88.91806-8.87831 81.72096 0 81.72096 8.87831 81.72096 16.07541 88.91806 16.07541 97.79639ZM0 97.79639"/>
<use data-text="A" xlink:href="#font_1_27" transform="matrix(9.962899,0,0,-9.9626,3.9355546,296.49803)"/>
<use data-text="&#x266d;" xlink:href="#font_2_1" transform="matrix(9.962899,0,0,-9.9626,11.407776,296.49803)"/>
<use data-text="d" xlink:href="#font_1_47" transform="matrix(9.962899,0,0,-9.9626,18.599999,296.49803)"/>
<use data-text="i" xlink:href="#font_1_66" transform="matrix(9.962899,0,0,-9.9626,24.139374,296.49803)"/>
<use data-text="m" xlink:href="#font_1_75" transform="matrix(9.962899,0,0,-9.9626,26.90905,296.49803)"/>
<path transform="matrix(1.00003,0,0,-1,19.572022,390.613)" d="M157.32488 144.5689C157.32488 153.17957 150.34471 160.15972 141.73404 160.15972 133.12337 160.15972 126.14322 153.17957 126.14322 144.5689 126.14322 135.95822 133.12337 128.97806 141.73404 128.97806 150.34471 128.97806 157.32488 135.95822 157.32488 144.5689ZM141.73404 144.5689" fill="#f2f2f2"/>
<path transform="matrix(1.00003,0,0,-1,19.572022,390.613)" stroke-width=".19925" stroke-linecap="butt" stroke-miterlimit="10" stroke-linejoin="miter" fill="none" stroke="#bfbfbf" d="M157.32488 144.5689C157.32488 153.17957 150.34471 160.15972 141.73404 160.15972 133.12337 160.15972 126.14322 153.17957 126.14322 144.5689 126.14322 135.95822 133.12337 128.97806 141.73404 128.97806 150.34471 128.97806 157.32488 135.95822 157.32488 144.5689ZM141.73404 144.5689"/>
<use data-text="G" xlink:href="#font_1_58" transform="matrix(9.962899,0,0,-9.9626,157.40016,249.446)"/>
<path transform="matrix(1.00003,0,0,-1,19.572022,390.613)" d="M128.97806 128.97806C128.97806 137.58873 121.99791 144.5689 113.38724 144.5689 104.77655 144.5689 97.7964 137.58873 97.7964 128.97806 97.7964 120.36739 104.77655 113.38724 113.38724 113.38724 121.99791 113.38724 128.97806 120.36739 128.97806 128.97806ZM113.38724 128.97806" fill="#f2f2f2"/>
<path transform="matrix(1.00003,0,0,-1,19.572022,390.613)" stroke-width=".19925" stroke-linecap="butt" stroke-miterlimit="10" stroke-linejoin="miter" fill="none" stroke="#bfbfbf" d="M128.97806 128.97806C128.97806 137.58873 121.99791 144.5689 113.38724 144.5689 104.77655 144.5689 97.7964 137.58873 97.7964 128.97806 97.7964 120.36739 104.77655 113.38724 113.38724 113.38724 121.99791 113.38724 128.97806 120.36739 128.97806 128.97806ZM113.38724 128.97806"/>
<use data-text="E" xlink:href="#font_1_49" transform="matrix(9.962899,0,0,-9.9626,127.63326,265.371)"/>
<use data-text="&#x266d;" xlink:href="#font_2_1" transform="matrix(9.962899,0,0,-9.9626,134.41847,265.371)"/>
<path transform="matrix(1.00003,0,0,-1,19.572022,390.613)" d="M100.63126 113.38724C100.63126 121.99791 93.6511 128.97806 85.04042 128.97806 76.42975 128.97806 69.44958 121.99791 69.44958 113.38724 69.44958 104.77655 76.42975 97.7964 85.04042 97.7964 93.6511 97.7964 100.63126 104.77655 100.63126 113.38724ZM85.04042 113.38724" fill="#f2f2f2"/>
<path transform="matrix(1.00003,0,0,-1,19.572022,390.613)" stroke-width=".19925" stroke-linecap="butt" stroke-miterlimit="10" stroke-linejoin="miter" fill="none" stroke="#bfbfbf" d="M100.63126 113.38724C100.63126 121.99791 93.6511 128.97806 85.04042 128.97806 76.42975 128.97806 69.44958 121.99791 69.44958 113.38724 69.44958 104.77655 76.42975 97.7964 85.04042 97.7964 93.6511 97.7964 100.63126 104.77655 100.63126 113.38724ZM85.04042 113.38724"/>
<use data-text="E" xlink:href="#font_1_49" transform="matrix(9.962899,0,0,-9.9626,93.05823,280.962)"/>
<use data-text="&#x266d;" xlink:href="#font_2_1" transform="matrix(9.962899,0,0,-9.9626,99.84344,280.962)"/>
<use data-text="M" xlink:href="#font_1_74" transform="matrix(9.962899,0,0,-9.9626,107.03565,280.962)"/>
<path transform="matrix(1.00003,0,0,-1,19.572022,390.613)" d="M72.28444 96.37897C72.28444 104.98964 65.30429 111.9698 56.69362 111.9698 48.08293 111.9698 41.10278 104.98964 41.10278 96.37897 41.10278 87.7683 48.08293 80.78815 56.69362 80.78815 65.30429 80.78815 72.28444 87.7683 72.28444 96.37897ZM56.69362 96.37897" fill="#f2f2f2"/>
<path transform="matrix(1.00003,0,0,-1,19.572022,390.613)" stroke-width=".19925" stroke-linecap="butt" stroke-miterlimit="10" stroke-linejoin="miter" fill="none" stroke="#bfbfbf" d="M72.28444 96.37897C72.28444 104.98964 65.30429 111.9698 56.69362 111.9698 48.08293 111.9698 41.10278 104.98964 41.10278 96.37897 41.10278 87.7683 48.08293 80.78815 56.69362 80.78815 65.30429 80.78815 72.28444 87.7683 72.28444 96.37897ZM56.69362 96.37897"/>
<use data-text="E" xlink:href="#font_1_49" transform="matrix(9.962899,0,0,-9.9626,63.74435,297.97)"/>
<use data-text="&#x266d;" xlink:href="#font_2_1" transform="matrix(9.962899,0,0,-9.9626,70.52956,297.97)"/>
<use data-text="m" xlink:href="#font_1_75" transform="matrix(9.962899,0,0,-9.9626,77.72177,297.97)"/>
<use data-text="i" xlink:href="#font_1_66" transform="matrix(9.962899,0,0,-9.9626,86.020877,297.97)"/>
<path transform="matrix(1.00003,0,0,-1,19.572022,390.613)" d="M43.93764 80.78856C43.93764 89.39925 36.95747 96.3794 28.3468 96.3794 19.73613 96.3794 12.75597 89.39925 12.75597 80.78856 12.75597 72.17789 19.73613 65.19774 28.3468 65.19774 36.95747 65.19774 43.93764 72.17789 43.93764 80.78856ZM28.3468 80.78856" fill="#f2f2f2"/>
<path transform="matrix(1.00003,0,0,-1,19.572022,390.613)" stroke-width=".19925" stroke-linecap="butt" stroke-miterlimit="10" stroke-linejoin="miter" fill="none" stroke="#bfbfbf" d="M43.93764 80.78856C43.93764 89.39925 36.95747 96.3794 28.3468 96.3794 19.73613 96.3794 12.75597 89.39925 12.75597 80.78856 12.75597 72.17789 19.73613 65.19774 28.3468 65.19774 36.95747 65.19774 43.93764 72.17789 43.93764 80.78856ZM28.3468 80.78856"/>
<use data-text="E" xlink:href="#font_1_49" transform="matrix(9.962899,0,0,-9.9626,38.44059,313.451)"/>
<use data-text="&#x266d;" xlink:href="#font_2_1" transform="matrix(9.962899,0,0,-9.9626,45.2258,313.451)"/>
<use data-text="7" xlink:href="#font_1_100" transform="matrix(9.962899,0,0,-9.9626,52.418016,313.451)"/>
<path transform="matrix(1.00003,0,0,-1,19.572022,390.613)" d="M15.722 65.19774C15.722 73.88086 8.68312 80.91974 0 80.91974-8.68312 80.91974-15.722 73.88086-15.722 65.19774-15.722 56.5146-8.68312 49.47572 0 49.47572 8.68312 49.47572 15.722 56.5146 15.722 65.19774ZM0 65.19774" fill="#f2f2f2"/>
<path transform="matrix(1.00003,0,0,-1,19.572022,390.613)" stroke-width=".19925" stroke-linecap="butt" stroke-miterlimit="10" stroke-linejoin="miter" fill="none" stroke="#bfbfbf" d="M15.722 65.19774C15.722 73.88086 8.68312 80.91974 0 80.91974-8.68312 80.91974-15.722 73.88086-15.722 65.19774-15.722 56.5146-8.68312 49.47572 0 49.47572 8.68312 49.47572 15.722 56.5146 15.722 65.19774ZM0 65.19774"/>
<use data-text="E" xlink:href="#font_1_49" transform="matrix(9.962899,0,0,-9.9626,4.279564,329.09703)"/>
<use data-text="&#x266d;" xlink:href="#font_2_1" transform="matrix(9.962899,0,0,-9.9626,11.064774,329.09703)"/>
<use data-text="d" xlink:href="#font_1_47" transform="matrix(9.962899,0,0,-9.9626,18.256989,329.09703)"/>
<use data-text="i" xlink:href="#font_1_66" transform="matrix(9.962899,0,0,-9.9626,23.796364,329.09703)"/>
<use data-text="m" xlink:href="#font_1_75" transform="matrix(9.962899,0,0,-9.9626,26.566048,329.09703)"/>
<path transform="matrix(1.00003,0,0,-1,19.572022,390.613)" d="M157.32488 111.9698C157.32488 120.58047 150.34471 127.56062 141.73404 127.56062 133.12337 127.56062 126.14322 120.58047 126.14322 111.9698 126.14322 103.35913 133.12337 96.37897 141.73404 96.37897 150.34471 96.37897 157.32488 103.35913 157.32488 111.9698ZM141.73404 111.9698" fill="#f2f2f2"/>
<path transform="matrix(1.00003,0,0,-1,19.572022,390.613)" stroke-width=".19925" stroke-linecap="butt" stroke-miterlimit="10" stroke-linejoin="miter" fill="none" stroke="#bfbfbf" d="M157.32488 111.9698C157.32488 120.58047 150.34471 127.56062 141.73404 127.56062 133.12337 127.56062 126.14322 120.58047 126.14322 111.9698 126.14322 103.35913 133.12337 96.37897 141.73404 96.37897 150.34471 96.37897 157.32488 103.35913 157.32488 111.9698ZM141.73404 111.9698"/>
<use data-text="D" xlink:href="#font_1_46" transform="matrix(9.962899,0,0,-9.9626,157.50417,282.045)"/>
<path transform="matrix(1.00003,0,0,-1,19.572022,390.613)" d="M128.97806 94.96198C128.97806 103.57265 121.99791 110.55281 113.38724 110.55281 104.77655 110.55281 97.7964 103.57265 97.7964 94.96198 97.7964 86.3513 104.77655 79.37115 113.38724 79.37115 121.99791 79.37115 128.97806 86.3513 128.97806 94.96198ZM113.38724 94.96198" fill="#f2f2f2"/>
<path transform="matrix(1.00003,0,0,-1,19.572022,390.613)" stroke-width=".19925" stroke-linecap="butt" stroke-miterlimit="10" stroke-linejoin="miter" fill="none" stroke="#bfbfbf" d="M128.97806 94.96198C128.97806 103.57265 121.99791 110.55281 113.38724 110.55281 104.77655 110.55281 97.7964 103.57265 97.7964 94.96198 97.7964 86.3513 104.77655 79.37115 113.38724 79.37115 121.99791 79.37115 128.97806 86.3513 128.97806 94.96198ZM113.38724 94.96198"/>
<use data-text="B" xlink:href="#font_1_34" transform="matrix(9.962899,0,0,-9.9626,127.49826,299.38703)"/>
<use data-text="&#x266d;" xlink:href="#font_2_1" transform="matrix(9.962899,0,0,-9.9626,134.55248,299.38703)"/>
<path transform="matrix(1.00003,0,0,-1,19.572022,390.613)" d="M100.63126 80.2215C100.63126 88.83217 93.6511 95.81233 85.04042 95.81233 76.42975 95.81233 69.44958 88.83217 69.44958 80.2215 69.44958 71.61082 76.42975 64.63068 85.04042 64.63068 93.6511 64.63068 100.63126 71.61082 100.63126 80.2215ZM85.04042 80.2215" fill="#f2f2f2"/>
<path transform="matrix(1.00003,0,0,-1,19.572022,390.613)" stroke-width=".19925" stroke-linecap="butt" stroke-miterlimit="10" stroke-linejoin="miter" fill="none" stroke="#bfbfbf" d="M100.63126 80.2215C100.63126 88.83217 93.6511 95.81233 85.04042 95.81233 76.42975 95.81233 69.44958 88.83217 69.44958 80.2215 69.44958 71.61082 76.42975 64.63068 85.04042 64.63068 93.6511 64.63068 100.63126 71.61082 100.63126 80.2215ZM85.04042 80.2215"/>
<use data-text="B" xlink:href="#font_1_34" transform="matrix(9.962899,0,0,-9.9626,92.924228,314.128)"/>
<use data-text="&#x266d;" xlink:href="#font_2_1" transform="matrix(9.962899,0,0,-9.9626,99.97844,314.128)"/>
<use data-text="M" xlink:href="#font_1_74" transform="matrix(9.962899,0,0,-9.9626,107.170658,314.128)"/>
<path transform="matrix(1.00003,0,0,-1,19.572022,390.613)" d="M72.28444 63.7803C72.28444 72.39098 65.30429 79.37114 56.69362 79.37114 48.08293 79.37114 41.10278 72.39098 41.10278 63.7803 41.10278 55.16963 48.08293 48.18947 56.69362 48.18947 65.30429 48.18947 72.28444 55.16963 72.28444 63.7803ZM56.69362 63.7803" fill="#f2f2f2"/>
<path transform="matrix(1.00003,0,0,-1,19.572022,390.613)" stroke-width=".19925" stroke-linecap="butt" stroke-miterlimit="10" stroke-linejoin="miter" fill="none" stroke="#bfbfbf" d="M72.28444 63.7803C72.28444 72.39098 65.30429 79.37114 56.69362 79.37114 48.08293 79.37114 41.10278 72.39098 41.10278 63.7803 41.10278 55.16963 48.08293 48.18947 56.69362 48.18947 65.30429 48.18947 72.28444 55.16963 72.28444 63.7803ZM56.69362 63.7803"/>
<use data-text="B" xlink:href="#font_1_34" transform="matrix(9.962899,0,0,-9.9626,63.609346,330.569)"/>
<use data-text="&#x266d;" xlink:href="#font_2_1" transform="matrix(9.962899,0,0,-9.9626,70.66356,330.569)"/>
<use data-text="m" xlink:href="#font_1_75" transform="matrix(9.962899,0,0,-9.9626,77.855777,330.569)"/>
<use data-text="i" xlink:href="#font_1_66" transform="matrix(9.962899,0,0,-9.9626,86.15487,330.569)"/>
<path transform="matrix(1.00003,0,0,-1,19.572022,390.613)" d="M43.93764 48.18947C43.93764 56.80014 36.95747 63.7803 28.3468 63.7803 19.73613 63.7803 12.75597 56.80014 12.75597 48.18947 12.75597 39.5788 19.73613 32.59865 28.3468 32.59865 36.95747 32.59865 43.93764 39.5788 43.93764 48.18947ZM28.3468 48.18947" fill="#f2f2f2"/>
<path transform="matrix(1.00003,0,0,-1,19.572022,390.613)" stroke-width=".19925" stroke-linecap="butt" stroke-miterlimit="10" stroke-linejoin="miter" fill="none" stroke="#bfbfbf" d="M43.93764 48.18947C43.93764 56.80014 36.95747 63.7803 28.3468 63.7803 19.73613 63.7803 12.75597 56.80014 12.75597 48.18947 12.75597 39.5788 19.73613 32.59865 28.3468 32.59865 36.95747 32.59865 43.93764 39.5788 43.93764 48.18947ZM28.3468 48.18947"/>
<use data-text="B" xlink:href="#font_1_34" transform="matrix(9.962899,0,0,-9.9626,38.305585,346.05003)"/>
<use data-text="&#x266d;" xlink:href="#font_2_1" transform="matrix(9.962899,0,0,-9.9626,45.3598,346.05003)"/>
<use data-text="7" xlink:href="#font_1_100" transform="matrix(9.962899,0,0,-9.9626,52.552015,346.05003)"/>
<path transform="matrix(1.00003,0,0,-1,19.572022,390.613)" d="M15.8604 32.59865C15.8604 41.3582 8.75955 48.45905 0 48.45905-8.75955 48.45905-15.8604 41.3582-15.8604 32.59865-15.8604 23.83908-8.75955 16.73824 0 16.73824 8.75955 16.73824 15.8604 23.83908 15.8604 32.59865ZM0 32.59865" fill="#f2f2f2"/>
<path transform="matrix(1.00003,0,0,-1,19.572022,390.613)" stroke-width=".19925" stroke-linecap="butt" stroke-miterlimit="10" stroke-linejoin="miter" fill="none" stroke="#bfbfbf" d="M15.8604 32.59865C15.8604 41.3582 8.75955 48.45905 0 48.45905-8.75955 48.45905-15.8604 41.3582-15.8604 32.59865-15.8604 23.83908-8.75955 16.73824 0 16.73824 8.75955 16.73824 15.8604 23.83908 15.8604 32.59865ZM0 32.59865"/>
<use data-text="B" xlink:href="#font_1_34" transform="matrix(9.962899,0,0,-9.9626,4.144562,361.696)"/>
<use data-text="&#x266d;" xlink:href="#font_2_1" transform="matrix(9.962899,0,0,-9.9626,11.198776,361.696)"/>
<use data-text="d" xlink:href="#font_1_47" transform="matrix(9.962899,0,0,-9.9626,18.390992,361.696)"/>
<use data-text="i" xlink:href="#font_1_66" transform="matrix(9.962899,0,0,-9.9626,23.930367,361.696)"/>
<use data-text="m" xlink:href="#font_1_75" transform="matrix(9.962899,0,0,-9.9626,26.70005,361.696)"/>
<path transform="matrix(1.00003,0,0,-1,19.572022,390.613)" d="M157.32488 79.37114C157.32488 87.98181 150.34471 94.96196 141.73404 94.96196 133.12337 94.96196 126.14322 87.98181 126.14322 79.37114 126.14322 70.76045 133.12337 63.7803 141.73404 63.7803 150.34471 63.7803 157.32488 70.76045 157.32488 79.37114ZM141.73404 79.37114" fill="#f2f2f2"/>
<path transform="matrix(1.00003,0,0,-1,19.572022,390.613)" stroke-width=".19925" stroke-linecap="butt" stroke-miterlimit="10" stroke-linejoin="miter" fill="none" stroke="#bfbfbf" d="M157.32488 79.37114C157.32488 87.98181 150.34471 94.96196 141.73404 94.96196 133.12337 94.96196 126.14322 87.98181 126.14322 79.37114 126.14322 70.76045 133.12337 63.7803 141.73404 63.7803 150.34471 63.7803 157.32488 70.76045 157.32488 79.37114ZM141.73404 79.37114"/>
<use data-text="A" xlink:href="#font_1_27" transform="matrix(9.962899,0,0,-9.9626,157.57418,314.80903)"/>
<path transform="matrix(1.00003,0,0,-1,19.572022,390.613)" d="M128.97806 62.36288C128.97806 70.97356 121.99791 77.95372 113.38724 77.95372 104.77655 77.95372 97.7964 70.97356 97.7964 62.36288 97.7964 53.75221 104.77655 46.77205 113.38724 46.77205 121.99791 46.77205 128.97806 53.75221 128.97806 62.36288ZM113.38724 62.36288" fill="#f2f2f2"/>
<path transform="matrix(1.00003,0,0,-1,19.572022,390.613)" stroke-width=".19925" stroke-linecap="butt" stroke-miterlimit="10" stroke-linejoin="miter" fill="none" stroke="#bfbfbf" d="M128.97806 62.36288C128.97806 70.97356 121.99791 77.95372 113.38724 77.95372 104.77655 77.95372 97.7964 70.97356 97.7964 62.36288 97.7964 53.75221 104.77655 46.77205 113.38724 46.77205 121.99791 46.77205 128.97806 53.75221 128.97806 62.36288ZM113.38724 62.36288"/>
<use data-text="F" xlink:href="#font_1_54" transform="matrix(9.962899,0,0,-9.9626,129.70934,331.637)"/>
<path transform="matrix(1.00003,0,0,-1,19.572022,390.613)" d="M100.63126 46.77203C100.63126 55.38272 93.6511 62.36287 85.04042 62.36287 76.42975 62.36287 69.44958 55.38272 69.44958 46.77203 69.44958 38.16136 76.42975 31.18121 85.04042 31.18121 93.6511 31.18121 100.63126 38.16136 100.63126 46.77203ZM85.04042 46.77203" fill="#f2f2f2"/>
<path transform="matrix(1.00003,0,0,-1,19.572022,390.613)" stroke-width=".19925" stroke-linecap="butt" stroke-miterlimit="10" stroke-linejoin="miter" fill="none" stroke="#bfbfbf" d="M100.63126 46.77203C100.63126 55.38272 93.6511 62.36287 85.04042 62.36287 76.42975 62.36287 69.44958 55.38272 69.44958 46.77203 69.44958 38.16136 76.42975 31.18121 85.04042 31.18121 93.6511 31.18121 100.63126 38.16136 100.63126 46.77203ZM85.04042 46.77203"/>
<use data-text="F" xlink:href="#font_1_54" transform="matrix(9.962899,0,0,-9.9626,96.79434,347.243)"/>
<use data-text="M" xlink:href="#font_1_74" transform="matrix(9.962899,0,0,-9.9626,103.30012,347.243)"/>
<path transform="matrix(1.00003,0,0,-1,19.572022,390.613)" d="M72.28444 29.76422C72.28444 38.3749 65.30429 45.35506 56.69362 45.35506 48.08293 45.35506 41.10278 38.3749 41.10278 29.76422 41.10278 21.15355 48.08293 14.17339 56.69362 14.17339 65.30429 14.17339 72.28444 21.15355 72.28444 29.76422ZM56.69362 29.76422" fill="#f2f2f2"/>
<path transform="matrix(1.00003,0,0,-1,19.572022,390.613)" stroke-width=".19925" stroke-linecap="butt" stroke-miterlimit="10" stroke-linejoin="miter" fill="none" stroke="#bfbfbf" d="M72.28444 29.76422C72.28444 38.3749 65.30429 45.35506 56.69362 45.35506 48.08293 45.35506 41.10278 38.3749 41.10278 29.76422 41.10278 21.15355 48.08293 14.17339 56.69362 14.17339 65.30429 14.17339 72.28444 21.15355 72.28444 29.76422ZM56.69362 29.76422"/>
<use data-text="F" xlink:href="#font_1_54" transform="matrix(9.962899,0,0,-9.9626,67.89348,364.236)"/>
<use data-text="m" xlink:href="#font_1_75" transform="matrix(9.962899,0,0,-9.9626,73.58229,364.236)"/>
<use data-text="i" xlink:href="#font_1_66" transform="matrix(9.962899,0,0,-9.9626,81.88138,364.236)"/>
<path transform="matrix(1.00003,0,0,-1,19.572022,390.613)" d="M14.1734 0C14.1734 8.61067 7.19325 15.59082-1.4174 15.59082-10.02809 15.59082-17.00824 8.61067-17.00824 0-17.00824-8.61067-10.02809-15.59082-1.4174-15.59082 7.19325-15.59082 14.1734-8.61067 14.1734 0ZM-1.4174 0" fill="#f2f2f2"/>
<path transform="matrix(1.00003,0,0,-1,19.572022,390.613)" stroke-width=".19925" stroke-linecap="butt" stroke-miterlimit="10" stroke-linejoin="miter" fill="none" stroke="#bfbfbf" d="M14.1734 0C14.1734 8.61067 7.19325 15.59082-1.4174 15.59082-10.02809 15.59082-17.00824 8.61067-17.00824 0-17.00824-8.61067-10.02809-15.59082-1.4174-15.59082 7.19325-15.59082 14.1734-8.61067 14.1734 0ZM-1.4174 0"/>
<use data-text="F" xlink:href="#font_1_54" transform="matrix(9.962899,0,0,-9.9626,4.9385836,394.015)"/>
<use data-text="d" xlink:href="#font_1_47" transform="matrix(9.962899,0,0,-9.9626,14.762001,394.015)"/>
<use data-text="i" xlink:href="#font_1_66" transform="matrix(9.962899,0,0,-9.9626,20.301369,394.015)"/>
<use data-text="m" xlink:href="#font_1_75" transform="matrix(9.962899,0,0,-9.9626,23.071053,394.015)"/>
<path transform="matrix(1.00003,0,0,-1,19.572022,390.613)" d="M43.08725 15.59082C43.08725 24.20149 36.10709 31.18166 27.49641 31.18166 18.88574 31.18166 11.9056 24.20149 11.9056 15.59082 11.9056 6.98015 18.88574 0 27.49641 0 36.10709 0 43.08725 6.98015 43.08725 15.59082ZM27.49641 15.59082" fill="#f2f2f2"/>
<path transform="matrix(1.00003,0,0,-1,19.572022,390.613)" stroke-width=".19925" stroke-linecap="butt" stroke-miterlimit="10" stroke-linejoin="miter" fill="none" stroke="#bfbfbf" d="M43.08725 15.59082C43.08725 24.20149 36.10709 31.18166 27.49641 31.18166 18.88574 31.18166 11.9056 24.20149 11.9056 15.59082 11.9056 6.98015 18.88574 0 27.49641 0 36.10709 0 43.08725 6.98015 43.08725 15.59082ZM27.49641 15.59082"/>
<use data-text="F" xlink:href="#font_1_54" transform="matrix(9.962899,0,0,-9.9626,41.325677,378.30003)"/>
<use data-text="7" xlink:href="#font_1_100" transform="matrix(9.962899,0,0,-9.9626,47.83145,378.30003)"/>
<path transform="matrix(1.00003,0,0,-1,19.572022,390.613)" d="M14.1734-32.59865C14.1734-23.98798 7.19325-17.00781-1.4174-17.00781-10.02809-17.00781-17.00824-23.98798-17.00824-32.59865-17.00824-41.20932-10.02809-48.18947-1.4174-48.18947 7.19325-48.18947 14.1734-41.20932 14.1734-32.59865ZM-1.4174-32.59865" fill="#f2f2f2"/>
<path transform="matrix(1.00003,0,0,-1,19.572022,390.613)" stroke-width=".19925" stroke-linecap="butt" stroke-miterlimit="10" stroke-linejoin="miter" fill="none" stroke="#bfbfbf" d="M14.1734-32.59865C14.1734-23.98798 7.19325-17.00781-1.4174-17.00781-10.02809-17.00781-17.00824-23.98798-17.00824-32.59865-17.00824-41.20932-10.02809-48.18947-1.4174-48.18947 7.19325-48.18947 14.1734-41.20932 14.1734-32.59865ZM-1.4174-32.59865"/>
<use data-text="C" xlink:href="#font_1_42" transform="matrix(9.962899,0,0,-9.9626,6.253624,426.614)"/>
<use data-text="d" xlink:href="#font_1_47" transform="matrix(9.962899,0,0,-9.9626,13.446838,426.614)"/>
<use data-text="i" xlink:href="#font_1_66" transform="matrix(9.962899,0,0,-9.9626,18.986214,426.614)"/>
<use data-text="m" xlink:href="#font_1_75" transform="matrix(9.962899,0,0,-9.9626,21.755898,426.614)"/>
<path transform="matrix(1.00003,0,0,-1,19.572022,390.613)" d="M43.08725-17.00824C43.08725-8.39757 36.10709-1.4174 27.49641-1.4174 18.88574-1.4174 11.9056-8.39757 11.9056-17.00824 11.9056-25.61891 18.88574-32.59908 27.49641-32.59908 36.10709-32.59908 43.08725-25.61891 43.08725-17.00824ZM27.49641-17.00824" fill="#f2f2f2"/>
<path transform="matrix(1.00003,0,0,-1,19.572022,390.613)" stroke-width=".19925" stroke-linecap="butt" stroke-miterlimit="10" stroke-linejoin="miter" fill="none" stroke="#bfbfbf" d="M43.08725-17.00824C43.08725-8.39757 36.10709-1.4174 27.49641-1.4174 18.88574-1.4174 11.9056-8.39757 11.9056-17.00824 11.9056-25.61891 18.88574-32.59908 27.49641-32.59908 36.10709-32.59908 43.08725-25.61891 43.08725-17.00824ZM27.49641-17.00824"/>
<use data-text="C" xlink:href="#font_1_42" transform="matrix(9.962899,0,0,-9.9626,40.981668,411.02403)"/>
<use data-text="7" xlink:href="#font_1_100" transform="matrix(9.962899,0,0,-9.9626,48.17488,411.02403)"/>
<path transform="matrix(1.00003,0,0,-1,19.572022,390.613)" d="M72.28444-2.83484C72.28444 5.77582 65.30429 12.75597 56.69362 12.75597 48.08293 12.75597 41.10278 5.77582 41.10278-2.83484 41.10278-11.44551 48.08293-18.42567 56.69362-18.42567 65.30429-18.42567 72.28444-11.44551 72.28444-2.83484ZM56.69362-2.83484" fill="#f2f2f2"/>
<path transform="matrix(1.00003,0,0,-1,19.572022,390.613)" stroke-width=".19925" stroke-linecap="butt" stroke-miterlimit="10" stroke-linejoin="miter" fill="none" stroke="#bfbfbf" d="M72.28444-2.83484C72.28444 5.77582 65.30429 12.75597 56.69362 12.75597 48.08293 12.75597 41.10278 5.77582 41.10278-2.83484 41.10278-11.44551 48.08293-18.42567 56.69362-18.42567 65.30429-18.42567 72.28444-11.44551 72.28444-2.83484ZM56.69362-2.83484"/>
<use data-text="C" xlink:href="#font_1_42" transform="matrix(9.962899,0,0,-9.9626,67.13645,396.85)"/>
<use data-text="m" xlink:href="#font_1_75" transform="matrix(9.962899,0,0,-9.9626,74.329669,396.85)"/>
<use data-text="i" xlink:href="#font_1_66" transform="matrix(9.962899,0,0,-9.9626,82.62876,396.85)"/>
<path transform="matrix(1.00003,0,0,-1,19.572022,390.613)" d="M100.63126 14.17339C100.63126 22.78406 93.6511 29.76422 85.04042 29.76422 76.42975 29.76422 69.44958 22.78406 69.44958 14.17339 69.44958 5.56271 76.42975-1.41742 85.04042-1.41742 93.6511-1.41742 100.63126 5.56271 100.63126 14.17339ZM85.04042 14.17339" fill="#f2f2f2"/>
<path transform="matrix(1.00003,0,0,-1,19.572022,390.613)" stroke-width=".19925" stroke-linecap="butt" stroke-miterlimit="10" stroke-linejoin="miter" fill="none" stroke="#bfbfbf" d="M100.63126 14.17339C100.63126 22.78406 93.6511 29.76422 85.04042 29.76422 76.42975 29.76422 69.44958 22.78406 69.44958 14.17339 69.44958 5.56271 76.42975-1.41742 85.04042-1.41742 93.6511-1.41742 100.63126 5.56271 100.63126 14.17339ZM85.04042 14.17339"/>
<use data-text="C" xlink:href="#font_1_42" transform="matrix(9.962899,0,0,-9.9626,96.45033,379.842)"/>
<use data-text="M" xlink:href="#font_1_74" transform="matrix(9.962899,0,0,-9.9626,103.64355,379.842)"/>
<path transform="matrix(1.00003,0,0,-1,19.572022,390.613)" d="M128.97806 29.76422C128.97806 38.3749 121.99791 45.35506 113.38724 45.35506 104.77655 45.35506 97.7964 38.3749 97.7964 29.76422 97.7964 21.15355 104.77655 14.17339 113.38724 14.17339 121.99791 14.17339 128.97806 21.15355 128.97806 29.76422ZM113.38724 29.76422" fill="#f2f2f2"/>
<path transform="matrix(1.00003,0,0,-1,19.572022,390.613)" stroke-width=".19925" stroke-linecap="butt" stroke-miterlimit="10" stroke-linejoin="miter" fill="none" stroke="#bfbfbf" d="M128.97806 29.76422C128.97806 38.3749 121.99791 45.35506 113.38724 45.35506 104.77655 45.35506 97.7964 38.3749 97.7964 29.76422 97.7964 21.15355 104.77655 14.17339 113.38724 14.17339 121.99791 14.17339 128.97806 21.15355 128.97806 29.76422ZM113.38724 29.76422"/>
<use data-text="C" xlink:href="#font_1_42" transform="matrix(9.962899,0,0,-9.9626,129.36632,364.251)"/>
<path transform="matrix(1.00003,0,0,-1,19.572022,390.613)" d="M157.32488 46.77203C157.32488 55.38272 150.34471 62.36287 141.73404 62.36287 133.12337 62.36287 126.14322 55.38272 126.14322 46.77203 126.14322 38.16136 133.12337 31.18121 141.73404 31.18121 150.34471 31.18121 157.32488 38.16136 157.32488 46.77203ZM141.73404 46.77203" fill="#f2f2f2"/>
<path transform="matrix(1.00003,0,0,-1,19.572022,390.613)" stroke-width=".19925" stroke-linecap="butt" stroke-miterlimit="10" stroke-linejoin="miter" fill="none" stroke="#bfbfbf" d="M157.32488 46.77203C157.32488 55.38272 150.34471 62.36287 141.73404 62.36287 133.12337 62.36287 126.14322 55.38272 126.14322 46.77203 126.14322 38.16136 133.12337 31.18121 141.73404 31.18121 150.34471 31.18121 157.32488 38.16136 157.32488 46.77203ZM141.73404 46.77203"/>
<use data-text="E" xlink:href="#font_1_49" transform="matrix(9.962899,0,0,-9.9626,157.91817,347.228)"/>
<path transform="matrix(1.00003,0,0,-1,19.572022,390.613)" d="M13.60634-65.19774C13.60634-56.58707 6.62619-49.6069-1.98447-49.6069-10.59515-49.6069-17.5753-56.58707-17.5753-65.19774-17.5753-73.80841-10.59515-80.78856-1.98447-80.78856 6.62619-80.78856 13.60634-73.80841 13.60634-65.19774ZM-1.98447-65.19774" fill="#f2f2f2"/>
<path transform="matrix(1.00003,0,0,-1,19.572022,390.613)" stroke-width=".19925" stroke-linecap="butt" stroke-miterlimit="10" stroke-linejoin="miter" fill="none" stroke="#bfbfbf" d="M13.60634-65.19774C13.60634-56.58707 6.62619-49.6069-1.98447-49.6069-10.59515-49.6069-17.5753-56.58707-17.5753-65.19774-17.5753-73.80841-10.59515-80.78856-1.98447-80.78856 6.62619-80.78856 13.60634-73.80841 13.60634-65.19774ZM-1.98447-65.19774"/>
<use data-text="G" xlink:href="#font_1_58" transform="matrix(9.962899,0,0,-9.9626,5.3725969,459.213)"/>
<use data-text="d" xlink:href="#font_1_47" transform="matrix(9.962899,0,0,-9.9626,13.193474,459.213)"/>
<use data-text="i" xlink:href="#font_1_66" transform="matrix(9.962899,0,0,-9.9626,18.73285,459.213)"/>
<use data-text="m" xlink:href="#font_1_75" transform="matrix(9.962899,0,0,-9.9626,21.502533,459.213)"/>
<path transform="matrix(1.00003,0,0,-1,19.572022,390.613)" d="M43.08725-49.6069C43.08725-40.99623 36.10709-34.01608 27.49641-34.01608 18.88574-34.01608 11.9056-40.99623 11.9056-49.6069 11.9056-58.21758 18.88574-65.19774 27.49641-65.19774 36.10709-65.19774 43.08725-58.21758 43.08725-49.6069ZM27.49641-49.6069" fill="#f2f2f2"/>
<path transform="matrix(1.00003,0,0,-1,19.572022,390.613)" stroke-width=".19925" stroke-linecap="butt" stroke-miterlimit="10" stroke-linejoin="miter" fill="none" stroke="#bfbfbf" d="M43.08725-49.6069C43.08725-40.99623 36.10709-34.01608 27.49641-34.01608 18.88574-34.01608 11.9056-40.99623 11.9056-49.6069 11.9056-58.21758 18.88574-65.19774 27.49641-65.19774 36.10709-65.19774 43.08725-58.21758 43.08725-49.6069ZM27.49641-49.6069"/>
<use data-text="G" xlink:href="#font_1_58" transform="matrix(9.962899,0,0,-9.9626,40.667657,443.622)"/>
<use data-text="7" xlink:href="#font_1_100" transform="matrix(9.962899,0,0,-9.9626,48.488534,443.622)"/>
<path transform="matrix(1.00003,0,0,-1,19.572022,390.613)" d="M72.28444-35.43349C72.28444-26.82281 65.30429-19.84267 56.69362-19.84267 48.08293-19.84267 41.10278-26.82281 41.10278-35.43349 41.10278-44.04417 48.08293-51.02432 56.69362-51.02432 65.30429-51.02432 72.28444-44.04417 72.28444-35.43349ZM56.69362-35.43349" fill="#f2f2f2"/>
<path transform="matrix(1.00003,0,0,-1,19.572022,390.613)" stroke-width=".19925" stroke-linecap="butt" stroke-miterlimit="10" stroke-linejoin="miter" fill="none" stroke="#bfbfbf" d="M72.28444-35.43349C72.28444-26.82281 65.30429-19.84267 56.69362-19.84267 48.08293-19.84267 41.10278-26.82281 41.10278-35.43349 41.10278-44.04417 48.08293-51.02432 56.69362-51.02432 65.30429-51.02432 72.28444-44.04417 72.28444-35.43349ZM56.69362-35.43349"/>
<use data-text="G" xlink:href="#font_1_58" transform="matrix(9.962899,0,0,-9.9626,66.82244,429.449)"/>
<use data-text="m" xlink:href="#font_1_75" transform="matrix(9.962899,0,0,-9.9626,74.64332,429.449)"/>
<use data-text="i" xlink:href="#font_1_66" transform="matrix(9.962899,0,0,-9.9626,82.942409,429.449)"/>
<path transform="matrix(1.00003,0,0,-1,19.572022,390.613)" d="M100.63126-17.85861C100.63126-9.24794 93.6511-2.26778 85.04042-2.26778 76.42975-2.26778 69.44958-9.24794 69.44958-17.85861 69.44958-26.46928 76.42975-33.44943 85.04042-33.44943 93.6511-33.44943 100.63126-26.46928 100.63126-17.85861ZM85.04042-17.85861" fill="#f2f2f2"/>
<path transform="matrix(1.00003,0,0,-1,19.572022,390.613)" stroke-width=".19925" stroke-linecap="butt" stroke-miterlimit="10" stroke-linejoin="miter" fill="none" stroke="#bfbfbf" d="M100.63126-17.85861C100.63126-9.24794 93.6511-2.26778 85.04042-2.26778 76.42975-2.26778 69.44958-9.24794 69.44958-17.85861 69.44958-26.46928 76.42975-33.44943 85.04042-33.44943 93.6511-33.44943 100.63126-26.46928 100.63126-17.85861ZM85.04042-17.85861"/>
<use data-text="G" xlink:href="#font_1_58" transform="matrix(9.962899,0,0,-9.9626,96.136318,411.87403)"/>
<use data-text="M" xlink:href="#font_1_74" transform="matrix(9.962899,0,0,-9.9626,103.95719,411.87403)"/>
<path transform="matrix(1.00003,0,0,-1,19.572022,390.613)" d="M128.97806-2.69296C128.97806 5.9177 121.99791 12.89786 113.38724 12.89786 104.77655 12.89786 97.7964 5.9177 97.7964-2.69296 97.7964-11.30363 104.77655-18.2838 113.38724-18.2838 121.99791-18.2838 128.97806-11.30363 128.97806-2.69296ZM113.38724-2.69296" fill="#f2f2f2"/>
<path transform="matrix(1.00003,0,0,-1,19.572022,390.613)" stroke-width=".19925" stroke-linecap="butt" stroke-miterlimit="10" stroke-linejoin="miter" fill="none" stroke="#bfbfbf" d="M128.97806-2.69296C128.97806 5.9177 121.99791 12.89786 113.38724 12.89786 104.77655 12.89786 97.7964 5.9177 97.7964-2.69296 97.7964-11.30363 104.77655-18.2838 113.38724-18.2838 121.99791-18.2838 128.97806-11.30363 128.97806-2.69296ZM113.38724-2.69296"/>
<use data-text="G" xlink:href="#font_1_58" transform="matrix(9.962899,0,0,-9.9626,129.0523,396.708)"/>
<path transform="matrix(1.00003,0,0,-1,19.572022,390.613)" d="M157.32488 14.74045C157.32488 23.35114 150.34471 30.33128 141.73404 30.33128 133.12337 30.33128 126.14322 23.35114 126.14322 14.74045 126.14322 6.12978 133.12337-.85036 141.73404-.85036 150.34471-.85036 157.32488 6.12978 157.32488 14.74045ZM141.73404 14.74045" fill="#f2f2f2"/>
<path transform="matrix(1.00003,0,0,-1,19.572022,390.613)" stroke-width=".19925" stroke-linecap="butt" stroke-miterlimit="10" stroke-linejoin="miter" fill="none" stroke="#bfbfbf" d="M157.32488 14.74045C157.32488 23.35114 150.34471 30.33128 141.73404 30.33128 133.12337 30.33128 126.14322 23.35114 126.14322 14.74045 126.14322 6.12978 133.12337-.85036 141.73404-.85036 150.34471-.85036 157.32488 6.12978 157.32488 14.74045ZM141.73404 14.74045"/>
<use data-text="B" xlink:href="#font_1_34" transform="matrix(9.962899,0,0,-9.9626,157.78318,379.275)"/>
<path transform="matrix(1.00003,0,0,-1,19.572022,390.613)" stroke-width=".79701" stroke-linecap="butt" stroke-miterlimit="10" stroke-linejoin="miter" fill="none" stroke="#000000" d="M212.60106 56.69362V354.3351"/>
<path transform="matrix(1.00003,0,0,-1,19.572022,390.613)" stroke-width=".79701" stroke-linecap="butt" stroke-miterlimit="10" stroke-linejoin="miter" fill="none" stroke="#000000" d="M198.42766 56.69362V354.3351"/>
<path transform="matrix(1.00003,0,0,-1,19.572022,390.613)" stroke-width=".79701" stroke-linecap="butt" stroke-miterlimit="10" stroke-linejoin="miter" fill="none" stroke="#000000" d="M184.25424 56.69362V354.3351"/>
</svg>
