<svg xmlns="http://www.w3.org/2000/svg" xmlns:xlink="http://www.w3.org/1999/xlink" xmlns:inkscape="http://www.inkscape.org/namespaces/inkscape" version="1.1" width="233" height="464" viewBox="0 0 233 464">
<defs>
<path id="font_1_46" d="M.70700076 .33580018C.70700076 .52568057 .57199099 .6826172 .40098573 .6826172H.034988405V.6516113H.05899048C.13598633 .6516113 .13798523 .64060977 .13798523 .6046295V.07795715C.13798523 .041992189 .13598633 .0309906 .05899048 .0309906H.034988405V0H.40098573C.56900027 0 .70700076 .1479187 .70700076 .33580018M.6069946 .33580018C.6069946 .22486878 .58799746 .16490174 .5519867 .11593628 .5319977 .08895874 .47499085 .0309906 .37399293 .0309906H.272995C.22599793 .0309906 .22399903 .037994386 .22399903 .07096863V.6116333C.22399903 .64460757 .22599793 .6516113 .272995 .6516113H.37298585C.43499757 .6516113 .5039978 .6296234 .5549927 .55867007 .59799197 .49969483 .6069946 .41375733 .6069946 .33580018Z"/>
<path id="font_1_74" d="M.8789978 0V.0309906H.8549957C.7779999 .0309906 .776001 .041992189 .776001 .07795715V.6046295C.776001 .64060977 .7779999 .6516113 .8549957 .6516113H.8789978V.6826172H.70999148C.6839905 .6826172 .6839905 .6816101 .6769867 .66360476L.45799256 .10095215 .24099732 .660614C.23199463 .6826172 .22898865 .6826172 .20599365 .6826172H.036987306V.6516113H.06098938C.13798523 .6516113 .13999939 .64060977 .13999939 .6046295V.10494995C.13999939 .07795715 .13999939 .0309906 .036987306 .0309906V0L.1539917 .0029907227 .2709961 0V.0309906C.16799927 .0309906 .16799927 .07795715 .16799927 .10494995V.6436157H.16899109L.4099884 .021987915C.4149933 .008987427 .41999818 0 .42999269 0 .44099427 0 .44400025 .0079956059 .44799806 .018997193L.69400027 .6516113H.69499209V.07795715C.69499209 .041992189 .69299319 .0309906 .6159973 .0309906H.59199526V0C.6289978 .0029907227 .69699099 .0029907227 .73599246 .0029907227 .7749939 .0029907227 .84199526 .0029907227 .8789978 0Z"/>
<path id="font_1_54" d="M.6100006 .45477296 .58200076 .6796875H.032989503V.64868167H.056991579C.13398743 .64868167 .13598633 .63768008 .13598633 .6016998V.07797241C.13598633 .041992189 .13398743 .0309906 .056991579 .0309906H.032989503V0C.067993167 .0029907227 .1459961 .0029907227 .18499756 .0029907227 .22599793 .0029907227 .31698609 .0029907227 .35299684 0V.0309906H.31999208C.22499085 .031188965 .22499085 .044189454 .22499085 .079193118V.3251953H.31098939C.40699769 .3251953 .4169922 .29318238 .4169922 .20819092H.44198609V.4731903H.4169922C.4169922 .38919068 .40699769 .3561859 .31098939 .3561859H.22499085V.6091919C.22499085 .64167788 .22698975 .64868167 .27398683 .64868167H.3939972C.5439911 .64868167 .56900027 .5926819 .58499148 .4546814L.6100006 .45477296Z"/>
<path id="font_1_79" d="M.776001 .15284729C.776001 .17285156 .7569885 .17285156 .74198916 .17285156H.5309906L.57099917 .32714845H.74198916C.7569885 .32714845 .776001 .32714845 .776001 .34713746 .776001 .36714173 .7569885 .36714173 .7429962 .36714173H.58299258L.6609955 .65631106C.6619873 .65830996 .6649933 .6703186 .6649933 .6743164 .6649933 .685318 .6559906 .69433596 .644989 .69433596 .6289978 .69433596 .6259918 .6813202 .6230011 .6703186L.5419922 .36714173H.35398866L.43199159 .65631106C.43299867 .65830996 .43598939 .6703186 .43598939 .6743164 .43598939 .685318 .4269867 .69433596 .41600038 .69433596 .3999939 .69433596 .39698792 .6813202 .3939972 .6703186L.31298829 .36714173H.08898926C.07499695 .36714173 .055999757 .36714173 .055999757 .34713746 .055999757 .32714845 .07499695 .32714845 .08999634 .32714845H.30099488L.26098634 .17285156H.08999634C.07499695 .17285156 .055999757 .17285156 .055999757 .15284729 .055999757 .13284302 .07499695 .13284302 .08898926 .13284302H.24899292L.17098999-.1563263C.16999817-.1583252 .16699219-.17033386 .16699219-.17433167 .16699219-.18533325 .17599488-.19433594 .18699646-.19433594 .20298767-.19433594 .20599365-.18133545 .20899964-.17033386L.2899933 .13284302H.47799684L.3999939-.1563263C.39898683-.1583252 .3959961-.17033386 .3959961-.17433167 .3959961-.18533325 .40499879-.19433594 .41600038-.19433594 .43199159-.19433594 .43499757-.18133545 .43798829-.17033386L.5189972 .13284302H.7429962C.7569885 .13284302 .776001 .13284302 .776001 .15284729M.5299988 .32714845 .48999024 .17285156H.3019867L.34199525 .32714845H.5299988Z"/>
<path id="font_1_75" d="M.8129883 0V.0309906C.7609863 .0309906 .73599246 .0309906 .7350006 .061019899V.25221253C.7350006 .3383026 .7350006 .36932374 .70399478 .405365 .6899872 .42237855 .6569977 .4423828 .598999 .4423828 .5149994 .4423828 .47099305 .38233949 .45399476 .34429933 .43998719 .43138124 .3659973 .4423828 .32099916 .4423828 .24798584 .4423828 .20098877 .39935304 .17298889 .33729554V.4423828L.03199768 .43066407V.3996582C.101989749 .3996582 .10998535 .39266969 .10998535 .34370423V.07595825C.10998535 .0309906 .09899902 .0309906 .03199768 .0309906V0L.14498902 .0029907227 .25698854 0V.0309906C.18998719 .0309906 .1789856 .0309906 .1789856 .07595825V.25978089C.1789856 .36431886 .25 .42037965 .31399537 .42037965 .3769989 .42037965 .3880005 .36631776 .3880005 .30926515V.076034549C.3880005 .0309906 .3769989 .0309906 .30999757 .0309906V0L.4229889 .0029907227 .5349884 0V.0309906C.46798707 .0309906 .45700074 .0309906 .45700074 .076034549V.2602234C.45700074 .36431886 .5279999 .42037965 .59199526 .42037965 .6549988 .42037965 .66600039 .36631776 .66600039 .30926515V.076034549C.66600039 .0309906 .6549988 .0309906 .58799746 .0309906V0L.70098879 .0029907227 .8129883 0Z"/>
<path id="font_1_66" d="M.24699402 0V.0309906C.18099976 .0309906 .1769867 .035995485 .1769867 .075042728V.4423828L.036987306 .43066407V.3996582C.101989749 .3996582 .11099243 .3936615 .11099243 .3447113V.07595825C.11099243 .0309906 .099990848 .0309906 .032989503 .0309906V0L.14299011 .0029907227C.17799378 .0029907227 .21299744 .0009918213 .24699402 0M.19198609 .603775C.19198609 .6307678 .16899109 .6567688 .13899231 .6567688 .10499573 .6567688 .084991458 .6287689 .084991458 .603775 .084991458 .57676699 .10798645 .55078127 .13798523 .55078127 .17199707 .55078127 .19198609 .5787811 .19198609 .603775Z"/>
<path id="font_1_100" d="M.4850006 .6435547H.24198914C.11999512 .6435547 .117996219 .6566467 .11399841 .67578127H.08898926L.055999757 .46954347H.08099365C.083999637 .48554994 .09298706 .54855349 .10598755 .5605469 .11299133 .5665436 .19099427 .5665436 .20399475 .5665436H.41099549L.29899598 .40853883C.20899964 .2735443 .17599488 .13453675 .17599488 .03253174 .17599488 .022537232 .17599488-.022460938 .22200012-.022460938 .2679901-.022460938 .2679901 .022537232 .2679901 .03253174V.08354187C.2679901 .13853455 .2709961 .19354248 .2789917 .24754334 .2829895 .27053834 .29699708 .35653688 .34098817 .41854859L.47599793 .608551C.4850006 .62054446 .4850006 .62254336 .4850006 .6435547Z"/>
<path id="font_1_47" d="M.5269928 0V.0309906C.45700074 .0309906 .44898988 .038009645 .44898988 .0871582V.69433596L.30499269 .6826172V.6516113C.375 .6516113 .3829956 .64463809 .3829956 .59580996V.38035584C.35398866 .41636659 .31098939 .4423828 .25698854 .4423828 .13899231 .4423828 .033996583 .3443451 .033996583 .21531677 .033996583 .088272098 .13198853-.0107421879 .24598694-.0107421879 .30999757-.0107421879 .35499574 .023254395 .37998963 .055267335V-.0107421879L.5269928 0M.37998963 .117996219C.37998963 .099990848 .37998963 .09799194 .36898805 .08099365 .33898927 .033218385 .2939911 .011245728 .25099183 .011245728 .20599365 .011245728 .16999817 .037216188 .1459961 .075164798 .11999512 .1161499 .116989139 .17320252 .116989139 .21421814 .116989139 .25125123 .11898804 .31129457 .147995 .35632325 .16899109 .38734437 .20698548 .42037965 .26098634 .42037965 .29599 .42037965 .33799745 .405365 .36898805 .3603363 .37998963 .34332276 .37998963 .34132386 .37998963 .32330323V.117996219Z"/>
<path id="font_1_27" d="M.71699526 0V.0309906H.69898989C.6389923 .0309906 .625 .037979127 .6139984 .07095337L.397995 .6958008C.3929901 .7088165 .3909912 .7158203 .375 .7158203 .35899354 .7158203 .35598756 .70980837 .35099793 .6958008L.14399719 .09791565C.12599182 .04698181 .085998538 .03199768 .03199768 .0309906V0L.13398743 .0029907227 .24899292 0V.0309906C.19898987 .0309906 .17399597 .05596924 .17399597 .0819397 .17399597 .08493042 .1749878 .09492493 .17599488 .09692383L.22200012 .2277832H.46899415L.5219879 .07495117C.522995 .07095337 .5249939 .064956668 .5249939 .060958864 .5249939 .0309906 .46899415 .0309906 .44198609 .0309906V0C.47799684 .0029907227 .5479889 .0029907227 .58599856 .0029907227L.71699526 0M.45799256 .25878907H.23298645L.34498597 .58380129 .45799256 .25878907Z"/>
<path id="font_2_1" d="M.07998657 .7220001C.07998657 .7409973 .07998657 .75 .067993167 .75 .054992677 .75 .054992677 .74198916 .054992677 .7220001V.0055389406C.054992677-.014465332 .054992677-.022460938 .067993167-.022460938 .07798767-.022460938 .18199158 .049560548 .23699951 .10862732 .2919922 .16769409 .33299256 .23776245 .33299256 .32084657 .33299256 .39492799 .27799989 .45996095 .19599915 .45996095 .13999939 .45996095 .099990848 .43695069 .07998657 .41793824V.7220001M.07998657 .342865C.07998657 .3658905 .07998657 .3869171 .11299133 .40592958 .14399719 .4239502 .18699646 .4239502 .18798828 .4239502 .23399353 .4239502 .2519989 .3698883 .2519989 .32084657 .2519989 .16268921 .10398865 .03555298 .07998657 .015533447V.342865Z"/>
<path id="font_1_49" d="M.6519928 .2579193H.6269989C.60198977 .10397339 .57899478 .0309906 .40699769 .0309906H.27398683C.22698975 .0309906 .22499085 .037994386 .22499085 .07098389V.33789063H.31498719C.4119873 .33789063 .4229889 .30589295 .4229889 .220932H.44799806V.48606874H.4229889C.4229889 .39994813 .4119873 .36888124 .31498719 .36888124H.22499085V.6087799C.22499085 .6416931 .22698975 .64868167 .27398683 .64868167H.40299989C.55599978 .64868167 .58299258 .59381106 .598999 .45507813H.6239929L.59599307 .6796875H.032989503V.64868167H.056991579C.13398743 .64868167 .13598633 .6377106 .13598633 .6017914V.07797241C.13598633 .041992189 .13398743 .0309906 .056991579 .0309906H.032989503V0H.6100006L.6519928 .2579193Z"/>
<path id="font_1_34" d="M.651001 .18289185C.651001 .26983644 .56900027 .34480287 .45799256 .35679627 .5549927 .3757782 .6239929 .43974305 .6239929 .51368716 .6239929 .6006317 .5319977 .6826172 .4019928 .6826172H.035995485V.6516113H.05999756C.13699341 .6516113 .13899231 .64060977 .13899231 .6046295V.07795715C.13899231 .041992189 .13699341 .0309906 .05999756 .0309906H.035995485V0H.42799378C.5609894-.0002593994 .651001 .08874512 .651001 .18273926V.18289185M.5269928 .5136719C.5269928 .44970704 .47799684 .36573792 .36698915 .36573792H.22200012V.6116333C.22200012 .64460757 .22399903 .6516113 .2709961 .6516113H.394989C.49198915 .65174868 .5269928 .56674197 .5269928 .51374819V.5136719M.5509949 .18386841C.5509949 .1129303 .49899293 .0309906 .3959961 .0309906H.2709961C.22399903 .0309906 .22200012 .037994386 .22200012 .07095337V.34375H.4099884C.5089874 .34399415 .5509949 .25099183 .5509949 .18399048V.18386841Z"/>
<path id="font_1_42" d="M.6649933 .23271179C.6649933 .24272156 .6649933 .24972534 .6519928 .24972534 .6409912 .24972534 .6409912 .24372864 .6399994 .23371887 .6319885 .09059143 .5249939 .008529663 .41600038 .008529663 .35499574 .008529663 .15899658 .042556764 .15899658 .34080506 .15899658 .64004519 .35398866 .67407229 .4149933 .67407229 .5239868 .67407229 .61299136 .58299258 .6329956 .4368744 .6349945 .42286683 .6349945 .41986085 .6489868 .41986085 .6649933 .41986085 .6649933 .42286683 .6649933 .44387818V.68107607C.6649933 .69807437 .6649933 .7050781 .6539917 .7050781 .6499939 .7050781 .6459961 .7050781 .6380005 .69306948L.58799746 .61901858C.5509949 .6550598 .5 .7050781 .4039917 .7050781 .21699524 .7050781 .055999757 .5459595 .055999757 .34179688 .055999757 .1346283 .21798706-.022460938 .4039917-.022460938 .5669861-.022460938 .6649933 .116622928 .6649933 .23271179Z"/>
<path id="font_1_58" d="M.7350006 .24145508V.27246095L.61299136 .26945497C.57299807 .26945497 .48799134 .26945497 .45199586 .27246095V.24145508H.48399354C.57398989 .24145508 .57699587 .23045349 .57699587 .19346619V.12948609C.57699587 .017532349 .44999696 .008529663 .42199708 .008529663 .35699464 .008529663 .15899658 .043518068 .15899658 .34155274 .15899658 .6410217 .35598756 .67407229 .41600038 .67407229 .522995 .67407229 .6139984 .5839386 .6339874 .43670655 .6359863 .42268373 .6359863 .41967774 .6499939 .41967774 .66600039 .41967774 .66600039 .42268373 .66600039 .44371034V.68107607C.66600039 .69807437 .66600039 .7050781 .6549988 .7050781 .651001 .7050781 .6469879 .7050781 .6389923 .69306948L.58898928 .61898806C.5569916 .6510315 .5029907 .7050781 .4039917 .7050781 .21798706 .7050781 .055999757 .546875 .055999757 .34155274 .055999757 .13648987 .21598816-.022460938 .4059906-.022460938 .47898866-.022460938 .5589905 .0035247803 .59298709 .06251526 .60598757 .040527345 .6459961 .0005340576 .6569977 .0005340576 .66600039 .0005340576 .66600039 .008529663 .66600039 .023529053V.19746399C.66600039 .2364502 .66999819 .24145508 .7350006 .24145508Z"/>
</defs>
<path transform="matrix(1.00003,0,0,-1.00003,18.374985,385.05509)" stroke-width=".3985" stroke-linecap="butt" stroke-miterlimit="10" stroke-linejoin="miter" fill="none" stroke="#000000" d="M96.37918 345.831C96.37918 352.0933 91.30272 357.16975 85.04042 357.16975 78.77812 357.16975 73.70166 352.0933 73.70166 345.831 73.70166 339.5687 78.77812 334.49223 85.04042 334.49223 91.30272 334.49223 96.37918 339.5687 96.37918 345.831ZM85.04042 345.831"/>
<use data-text="D" xlink:href="#font_1_46" transform="matrix(9.962899,0,0,-9.962899,95.04429,42.615816)"/>
<use data-text="M" xlink:href="#font_1_74" transform="matrix(9.962899,0,0,-9.962899,102.655948,42.615816)"/>
<path transform="matrix(1.00003,0,0,-1.00003,18.374985,385.05509)" stroke-width=".3985" stroke-linecap="butt" stroke-miterlimit="10" stroke-linejoin="miter" fill="none" stroke="#000000" d="M124.726 357.16996C124.726 363.43229 119.64954 368.5087 113.38724 368.5087 107.12492 368.5087 102.04848 363.43229 102.04848 357.16996 102.04848 350.90766 107.12492 345.83119 113.38724 345.83119 119.64954 345.83119 124.726 350.90766 124.726 357.16996ZM113.38724 357.16996"/>
<use data-text="D" xlink:href="#font_1_46" transform="matrix(9.962899,0,0,-9.962899,127.959278,31.276459)"/>
<path transform="matrix(1.00003,0,0,-1.00003,18.374985,385.05509)" stroke-width=".3985" stroke-linecap="butt" stroke-miterlimit="10" stroke-linejoin="miter" fill="none" stroke="#000000" d="M153.0728 371.91C153.0728 378.1723 147.99634 383.24876 141.73404 383.24876 135.47174 383.24876 130.39528 378.1723 130.39528 371.91 130.39528 365.6477 135.47174 360.57124 141.73404 360.57124 147.99634 360.57124 153.0728 365.6477 153.0728 371.91ZM141.73404 371.91"/>
<use data-text="F" xlink:href="#font_1_54" transform="matrix(9.962899,0,0,-9.962899,152.71102,15.6249699)"/>
<use data-text="#" xlink:href="#font_1_79" transform="matrix(9.962899,0,0,-9.962899,159.2168,15.6249699)"/>
<path transform="matrix(1.00003,0,0,-1.00003,18.374985,385.05509)" stroke-width=".3985" stroke-linecap="butt" stroke-miterlimit="10" stroke-linejoin="miter" fill="none" stroke="#000000" d="M68.03238 325.9883C68.03238 332.2506 62.95592 337.32707 56.69362 337.32707 50.4313 337.32707 45.35486 332.2506 45.35486 325.9883 45.35486 319.726 50.4313 314.64955 56.69362 314.64955 62.95592 314.64955 68.03238 319.726 68.03238 325.9883ZM56.69362 325.9883"/>
<use data-text="D" xlink:href="#font_1_46" transform="matrix(9.962899,0,0,-9.962899,65.73041,62.45938)"/>
<use data-text="m" xlink:href="#font_1_75" transform="matrix(9.962899,0,0,-9.962899,73.342067,62.45938)"/>
<use data-text="i" xlink:href="#font_1_66" transform="matrix(9.962899,0,0,-9.962899,81.64116,62.45938)"/>
<path transform="matrix(1.00003,0,0,-1.00003,18.374985,385.05509)" stroke-width=".3985" stroke-linecap="butt" stroke-miterlimit="10" stroke-linejoin="miter" fill="none" stroke="#000000" d="M39.68556 310.39747C39.68556 316.65977 34.6091 321.7362 28.3468 321.7362 22.0845 321.7362 17.00804 316.65977 17.00804 310.39747 17.00804 304.13517 22.0845 299.0587 28.3468 299.0587 34.6091 299.0587 39.68556 304.13517 39.68556 310.39747ZM28.3468 310.39747"/>
<use data-text="D" xlink:href="#font_1_46" transform="matrix(9.962899,0,0,-9.962899,40.425645,77.94086)"/>
<use data-text="7" xlink:href="#font_1_100" transform="matrix(9.962899,0,0,-9.962899,48.0373,77.94086)"/>
<path transform="matrix(1.00003,0,0,-1.00003,18.374985,385.05509)" stroke-width=".3985" stroke-linecap="butt" stroke-miterlimit="10" stroke-linejoin="miter" fill="none" stroke="#000000" d="M14.1556 296.22407C14.1556 304.04209 7.81801 310.37965 0 310.37965-7.81801 310.37965-14.1556 304.04209-14.1556 296.22407-14.1556 288.40605-7.81801 282.06849 0 282.06849 7.81801 282.06849 14.1556 288.40605 14.1556 296.22407ZM0 296.22407"/>
<use data-text="D" xlink:href="#font_1_46" transform="matrix(9.962899,0,0,-9.962899,4.605568,92.224308)"/>
<use data-text="d" xlink:href="#font_1_47" transform="matrix(9.962899,0,0,-9.962899,15.534866,92.224308)"/>
<use data-text="i" xlink:href="#font_1_66" transform="matrix(9.962899,0,0,-9.962899,21.074242,92.224308)"/>
<use data-text="m" xlink:href="#font_1_75" transform="matrix(9.962899,0,0,-9.962899,23.843926,92.224308)"/>
<path transform="matrix(1.00003,0,0,-1.00003,18.374985,385.05509)" stroke-width=".3985" stroke-linecap="butt" stroke-miterlimit="10" stroke-linejoin="miter" fill="none" stroke="#000000" d="M96.37918 310.39747C96.37918 316.65977 91.30272 321.7362 85.04042 321.7362 78.77812 321.7362 73.70166 316.65977 73.70166 310.39747 73.70166 304.13517 78.77812 299.0587 85.04042 299.0587 91.30272 299.0587 96.37918 304.13517 96.37918 310.39747ZM85.04042 310.39747"/>
<use data-text="A" xlink:href="#font_1_27" transform="matrix(9.962899,0,0,-9.962899,95.11329,78.214878)"/>
<use data-text="M" xlink:href="#font_1_74" transform="matrix(9.962899,0,0,-9.962899,102.585468,78.214878)"/>
<path transform="matrix(1.00003,0,0,-1.00003,18.374985,385.05509)" stroke-width=".3985" stroke-linecap="butt" stroke-miterlimit="10" stroke-linejoin="miter" fill="none" stroke="#000000" d="M124.726 325.9883C124.726 332.2506 119.64954 337.32707 113.38724 337.32707 107.12492 337.32707 102.04848 332.2506 102.04848 325.9883 102.04848 319.726 107.12492 314.64955 113.38724 314.64955 119.64954 314.64955 124.726 319.726 124.726 325.9883ZM113.38724 325.9883"/>
<use data-text="A" xlink:href="#font_1_27" transform="matrix(9.962899,0,0,-9.962899,128.02928,62.623414)"/>
<path transform="matrix(1.00003,0,0,-1.00003,18.374985,385.05509)" stroke-width=".3985" stroke-linecap="butt" stroke-miterlimit="10" stroke-linejoin="miter" fill="none" stroke="#000000" d="M153.0728 340.1617C153.0728 346.424 147.99634 351.50047 141.73404 351.50047 135.47174 351.50047 130.39528 346.424 130.39528 340.1617 130.39528 333.8994 135.47174 328.82295 141.73404 328.82295 147.99634 328.82295 153.0728 333.8994 153.0728 340.1617ZM141.73404 340.1617"/>
<use data-text="D" xlink:href="#font_1_46" transform="matrix(9.962899,0,0,-9.962899,154.37007,48.618989)"/>
<use data-text="&#x266d;" xlink:href="#font_2_1" transform="matrix(9.962899,0,0,-9.962899,161.9823,48.618989)"/>
<path transform="matrix(1.00003,0,0,-1.00003,18.374985,385.05509)" stroke-width=".3985" stroke-linecap="butt" stroke-miterlimit="10" stroke-linejoin="miter" fill="none" stroke="#000000" d="M68.03238 294.80665C68.03238 301.06895 62.95592 306.1454 56.69362 306.1454 50.4313 306.1454 45.35486 301.06895 45.35486 294.80665 45.35486 288.54435 50.4313 283.46788 56.69362 283.46788 62.95592 283.46788 68.03238 288.54435 68.03238 294.80665ZM56.69362 294.80665"/>
<use data-text="A" xlink:href="#font_1_27" transform="matrix(9.962899,0,0,-9.962899,65.79941,93.806339)"/>
<use data-text="m" xlink:href="#font_1_75" transform="matrix(9.962899,0,0,-9.962899,73.27158,93.806339)"/>
<use data-text="i" xlink:href="#font_1_66" transform="matrix(9.962899,0,0,-9.962899,81.57067,93.806339)"/>
<path transform="matrix(1.00003,0,0,-1.00003,18.374985,385.05509)" stroke-width=".3985" stroke-linecap="butt" stroke-miterlimit="10" stroke-linejoin="miter" fill="none" stroke="#000000" d="M39.68556 279.21623C39.68556 285.47853 34.6091 290.555 28.3468 290.555 22.0845 290.555 17.00804 285.47853 17.00804 279.21623 17.00804 272.95393 22.0845 267.87748 28.3468 267.87748 34.6091 267.87748 39.68556 272.95393 39.68556 279.21623ZM28.3468 279.21623"/>
<use data-text="A" xlink:href="#font_1_27" transform="matrix(9.962899,0,0,-9.962899,40.49565,109.28781)"/>
<use data-text="7" xlink:href="#font_1_100" transform="matrix(9.962899,0,0,-9.962899,47.967828,109.28781)"/>
<path transform="matrix(1.00003,0,0,-1.00003,18.374985,385.05509)" stroke-width=".3985" stroke-linecap="butt" stroke-miterlimit="10" stroke-linejoin="miter" fill="none" stroke="#000000" d="M12.43472 265.04283C12.43472 271.91044 6.8676 277.47758 0 277.47758-6.8676 277.47758-12.43472 271.91044-12.43472 265.04283-12.43472 258.17524-6.8676 252.60811 0 252.60811 6.8676 252.60811 12.43472 258.17524 12.43472 265.04283ZM0 265.04283"/>
<use data-text="A" xlink:href="#font_1_27" transform="matrix(9.962899,0,0,-9.962899,6.473625,123.516239)"/>
<use data-text="d" xlink:href="#font_1_47" transform="matrix(9.962899,0,0,-9.962899,13.676804,123.516239)"/>
<use data-text="i" xlink:href="#font_1_66" transform="matrix(9.962899,0,0,-9.962899,19.216172,123.516239)"/>
<use data-text="m" xlink:href="#font_1_75" transform="matrix(9.962899,0,0,-9.962899,21.985856,123.516239)"/>
<path transform="matrix(1.00003,0,0,-1.00003,18.374985,385.05509)" stroke-width=".3985" stroke-linecap="butt" stroke-miterlimit="10" stroke-linejoin="miter" fill="none" stroke="#000000" d="M153.0728 308.98005C153.0728 315.24235 147.99634 320.3188 141.73404 320.3188 135.47174 320.3188 130.39528 315.24235 130.39528 308.98005 130.39528 302.71775 135.47174 297.64128 141.73404 297.64128 147.99634 297.64128 153.0728 302.71775 153.0728 308.98005ZM141.73404 308.98005"/>
<use data-text="A" xlink:href="#font_1_27" transform="matrix(9.962899,0,0,-9.962899,154.44008,79.80194)"/>
<use data-text="&#x266d;" xlink:href="#font_2_1" transform="matrix(9.962899,0,0,-9.962899,161.91231,79.80194)"/>
<path transform="matrix(1.00003,0,0,-1.00003,18.374985,385.05509)" stroke-width=".3985" stroke-linecap="butt" stroke-miterlimit="10" stroke-linejoin="miter" fill="none" stroke="#000000" d="M124.726 295.657C124.726 301.9193 119.64954 306.99577 113.38724 306.99577 107.12492 306.99577 102.04848 301.9193 102.04848 295.657 102.04848 289.3947 107.12492 284.31825 113.38724 284.31825 119.64954 284.31825 124.726 289.3947 124.726 295.657ZM113.38724 295.657"/>
<use data-text="E" xlink:href="#font_1_49" transform="matrix(9.962899,0,0,-9.962899,128.37329,92.776309)"/>
<path transform="matrix(1.00003,0,0,-1.00003,18.374985,385.05509)" stroke-width=".3985" stroke-linecap="butt" stroke-miterlimit="10" stroke-linejoin="miter" fill="none" stroke="#000000" d="M96.37918 279.21623C96.37918 285.47853 91.30272 290.555 85.04042 290.555 78.77812 290.555 73.70166 285.47853 73.70166 279.21623 73.70166 272.95393 78.77812 267.87748 85.04042 267.87748 91.30272 267.87748 96.37918 272.95393 96.37918 279.21623ZM85.04042 279.21623"/>
<use data-text="E" xlink:href="#font_1_49" transform="matrix(9.962899,0,0,-9.962899,95.457309,109.23279)"/>
<use data-text="M" xlink:href="#font_1_74" transform="matrix(9.962899,0,0,-9.962899,102.24204,109.23279)"/>
<path transform="matrix(1.00003,0,0,-1.00003,18.374985,385.05509)" stroke-width=".3985" stroke-linecap="butt" stroke-miterlimit="10" stroke-linejoin="miter" fill="none" stroke="#000000" d="M68.03238 262.20799C68.03238 268.47029 62.95592 273.54676 56.69362 273.54676 50.4313 273.54676 45.35486 268.47029 45.35486 262.20799 45.35486 255.94567 50.4313 250.86922 56.69362 250.86922 62.95592 250.86922 68.03238 255.94567 68.03238 262.20799ZM56.69362 262.20799"/>
<use data-text="E" xlink:href="#font_1_49" transform="matrix(9.962899,0,0,-9.962899,66.14342,126.22629)"/>
<use data-text="m" xlink:href="#font_1_75" transform="matrix(9.962899,0,0,-9.962899,72.928157,126.22629)"/>
<use data-text="i" xlink:href="#font_1_66" transform="matrix(9.962899,0,0,-9.962899,81.22725,126.22629)"/>
<path transform="matrix(1.00003,0,0,-1.00003,18.374985,385.05509)" stroke-width=".3985" stroke-linecap="butt" stroke-miterlimit="10" stroke-linejoin="miter" fill="none" stroke="#000000" d="M39.68556 245.1997C39.68556 251.462 34.6091 256.53849 28.3468 256.53849 22.0845 256.53849 17.00804 251.462 17.00804 245.1997 17.00804 238.93741 22.0845 233.86095 28.3468 233.86095 34.6091 233.86095 39.68556 238.93741 39.68556 245.1997ZM28.3468 245.1997"/>
<use data-text="E" xlink:href="#font_1_49" transform="matrix(9.962899,0,0,-9.962899,40.83966,143.12583)"/>
<use data-text="7" xlink:href="#font_1_100" transform="matrix(9.962899,0,0,-9.962899,47.624399,143.12583)"/>
<path transform="matrix(1.00003,0,0,-1.00003,18.374985,385.05509)" stroke-width=".3985" stroke-linecap="butt" stroke-miterlimit="10" stroke-linejoin="miter" fill="none" stroke="#000000" d="M12.17155 231.0263C12.17155 237.74855 6.72223 243.19786 0 243.19786-6.72223 243.19786-12.17155 237.74855-12.17155 231.0263-12.17155 224.30408-6.72223 218.85475 0 218.85475 6.72223 218.85475 12.17155 224.30408 12.17155 231.0263ZM0 231.0263"/>
<use data-text="E" xlink:href="#font_1_49" transform="matrix(9.962899,0,0,-9.962899,6.6786348,157.42426)"/>
<use data-text="d" xlink:href="#font_1_47" transform="matrix(9.962899,0,0,-9.962899,13.463371,157.42426)"/>
<use data-text="i" xlink:href="#font_1_66" transform="matrix(9.962899,0,0,-9.962899,19.002747,157.42426)"/>
<use data-text="m" xlink:href="#font_1_75" transform="matrix(9.962899,0,0,-9.962899,21.77243,157.42426)"/>
<path transform="matrix(1.00003,0,0,-1.00003,18.374985,385.05509)" stroke-width=".3985" stroke-linecap="butt" stroke-miterlimit="10" stroke-linejoin="miter" fill="none" stroke="#000000" d="M153.0728 277.51506C153.0728 283.77738 147.99634 288.85383 141.73404 288.85383 135.47174 288.85383 130.39528 283.77738 130.39528 277.51506 130.39528 271.25276 135.47174 266.1763 141.73404 266.1763 147.99634 266.1763 153.0728 271.25276 153.0728 277.51506ZM141.73404 277.51506"/>
<use data-text="E" xlink:href="#font_1_49" transform="matrix(9.962899,0,0,-9.962899,154.78409,111.26785)"/>
<use data-text="&#x266d;" xlink:href="#font_2_1" transform="matrix(9.962899,0,0,-9.962899,161.56929,111.26785)"/>
<path transform="matrix(1.00003,0,0,-1.00003,18.374985,385.05509)" stroke-width=".3985" stroke-linecap="butt" stroke-miterlimit="10" stroke-linejoin="miter" fill="none" stroke="#000000" d="M124.726 262.77507C124.726 269.03736 119.64954 274.1138 113.38724 274.1138 107.12492 274.1138 102.04848 269.03736 102.04848 262.77507 102.04848 256.51274 107.12492 251.43628 113.38724 251.43628 119.64954 251.43628 124.726 256.51274 124.726 262.77507ZM113.38724 262.77507"/>
<use data-text="B" xlink:href="#font_1_34" transform="matrix(9.962899,0,0,-9.962899,128.23828,125.67432)"/>
<path transform="matrix(1.00003,0,0,-1.00003,18.374985,385.05509)" stroke-width=".3985" stroke-linecap="butt" stroke-miterlimit="10" stroke-linejoin="miter" fill="none" stroke="#000000" d="M96.37918 245.76677C96.37918 252.02909 91.30272 257.10554 85.04042 257.10554 78.77812 257.10554 73.70166 252.02909 73.70166 245.76677 73.70166 239.50447 78.77812 234.42801 85.04042 234.42801 91.30272 234.42801 96.37918 239.50447 96.37918 245.76677ZM85.04042 245.76677"/>
<use data-text="B" xlink:href="#font_1_34" transform="matrix(9.962899,0,0,-9.962899,95.323299,142.6838)"/>
<use data-text="M" xlink:href="#font_1_74" transform="matrix(9.962899,0,0,-9.962899,102.37703,142.6838)"/>
<path transform="matrix(1.00003,0,0,-1.00003,18.374985,385.05509)" stroke-width=".3985" stroke-linecap="butt" stroke-miterlimit="10" stroke-linejoin="miter" fill="none" stroke="#000000" d="M68.03238 229.60932C68.03238 235.87163 62.95592 240.94808 56.69362 240.94808 50.4313 240.94808 45.35486 235.87163 45.35486 229.60932 45.35486 223.34702 50.4313 218.27056 56.69362 218.27056 62.95592 218.27056 68.03238 223.34702 68.03238 229.60932ZM56.69362 229.60932"/>
<use data-text="B" xlink:href="#font_1_34" transform="matrix(9.962899,0,0,-9.962899,66.008419,158.8413)"/>
<use data-text="m" xlink:href="#font_1_75" transform="matrix(9.962899,0,0,-9.962899,73.06215,158.8413)"/>
<use data-text="i" xlink:href="#font_1_66" transform="matrix(9.962899,0,0,-9.962899,81.361248,158.8413)"/>
<path transform="matrix(1.00003,0,0,-1.00003,18.374985,385.05509)" stroke-width=".3985" stroke-linecap="butt" stroke-miterlimit="10" stroke-linejoin="miter" fill="none" stroke="#000000" d="M39.68556 212.31774C39.68556 218.58005 34.6091 223.6565 28.3468 223.6565 22.0845 223.6565 17.00804 218.58005 17.00804 212.31774 17.00804 206.05544 22.0845 200.97898 28.3468 200.97898 34.6091 200.97898 39.68556 206.05544 39.68556 212.31774ZM28.3468 212.31774"/>
<use data-text="B" xlink:href="#font_1_34" transform="matrix(9.962899,0,0,-9.962899,40.70466,176.0238)"/>
<use data-text="7" xlink:href="#font_1_100" transform="matrix(9.962899,0,0,-9.962899,47.758394,176.0238)"/>
<path transform="matrix(1.00003,0,0,-1.00003,18.374985,385.05509)" stroke-width=".3985" stroke-linecap="butt" stroke-miterlimit="10" stroke-linejoin="miter" fill="none" stroke="#000000" d="M12.31165 198.42766C12.31165 205.22728 6.7996 210.73932 0 210.73932-6.7996 210.73932-12.31165 205.22728-12.31165 198.42766-12.31165 191.62805-6.7996 186.116 0 186.116 6.7996 186.116 12.31165 191.62805 12.31165 198.42766ZM0 198.42766"/>
<use data-text="B" xlink:href="#font_1_34" transform="matrix(9.962899,0,0,-9.962899,6.543625,190.02423)"/>
<use data-text="d" xlink:href="#font_1_47" transform="matrix(9.962899,0,0,-9.962899,13.597359,190.02423)"/>
<use data-text="i" xlink:href="#font_1_66" transform="matrix(9.962899,0,0,-9.962899,19.136734,190.02423)"/>
<use data-text="m" xlink:href="#font_1_75" transform="matrix(9.962899,0,0,-9.962899,21.906418,190.02423)"/>
<path transform="matrix(1.00003,0,0,-1.00003,18.374985,385.05509)" stroke-width=".3985" stroke-linecap="butt" stroke-miterlimit="10" stroke-linejoin="miter" fill="none" stroke="#000000" d="M153.0728 243.78272C153.0728 250.04503 147.99634 255.12148 141.73404 255.12148 135.47174 255.12148 130.39528 250.04503 130.39528 243.78272 130.39528 237.52042 135.47174 232.44396 141.73404 232.44396 147.99634 232.44396 153.0728 237.52042 153.0728 243.78272ZM141.73404 243.78272"/>
<use data-text="B" xlink:href="#font_1_34" transform="matrix(9.962899,0,0,-9.962899,154.64908,145.00087)"/>
<use data-text="&#x266d;" xlink:href="#font_2_1" transform="matrix(9.962899,0,0,-9.962899,161.7033,145.00087)"/>
<path transform="matrix(1.00003,0,0,-1.00003,18.374985,385.05509)" stroke-width=".3985" stroke-linecap="butt" stroke-miterlimit="10" stroke-linejoin="miter" fill="none" stroke="#000000" d="M124.726 229.04225C124.726 235.30457 119.64954 240.38101 113.38724 240.38101 107.12492 240.38101 102.04848 235.30457 102.04848 229.04225 102.04848 222.77996 107.12492 217.70349 113.38724 217.70349 119.64954 217.70349 124.726 222.77996 124.726 229.04225ZM113.38724 229.04225"/>
<use data-text="F" xlink:href="#font_1_54" transform="matrix(9.962899,0,0,-9.962899,124.36317,158.49628)"/>
<use data-text="#" xlink:href="#font_1_79" transform="matrix(9.962899,0,0,-9.962899,130.86894,158.49628)"/>
<path transform="matrix(1.00003,0,0,-1.00003,18.374985,385.05509)" stroke-width=".3985" stroke-linecap="butt" stroke-miterlimit="10" stroke-linejoin="miter" fill="none" stroke="#000000" d="M99.33952 211.46738C99.33952 219.36464 92.9377 225.76648 85.04042 225.76648 77.14314 225.76648 70.74132 219.36464 70.74132 211.46738 70.74132 203.5701 77.14314 197.16828 85.04042 197.16828 92.9377 197.16828 99.33952 203.5701 99.33952 211.46738ZM85.04042 211.46738"/>
<use data-text="F" xlink:href="#font_1_54" transform="matrix(9.962899,0,0,-9.962899,89.78813,176.07181)"/>
<use data-text="#" xlink:href="#font_1_79" transform="matrix(9.962899,0,0,-9.962899,96.29391,176.07181)"/>
<use data-text="M" xlink:href="#font_1_74" transform="matrix(9.962899,0,0,-9.962899,107.910648,176.07181)"/>
<path transform="matrix(1.00003,0,0,-1.00003,18.374985,385.05509)" stroke-width=".3985" stroke-linecap="butt" stroke-miterlimit="10" stroke-linejoin="miter" fill="none" stroke="#000000" d="M70.32213 195.5928C70.32213 203.1197 64.22052 209.22132 56.69362 209.22132 49.1667 209.22132 43.0651 203.1197 43.0651 195.5928 43.0651 188.06589 49.1667 181.96428 56.69362 181.96428 64.22052 181.96428 70.32213 188.06589 70.32213 195.5928ZM56.69362 195.5928"/>
<use data-text="F" xlink:href="#font_1_54" transform="matrix(9.962899,0,0,-9.962899,62.1333,191.94728)"/>
<use data-text="#" xlink:href="#font_1_79" transform="matrix(9.962899,0,0,-9.962899,68.63908,191.94728)"/>
<use data-text="m" xlink:href="#font_1_75" transform="matrix(9.962899,0,0,-9.962899,76.93817,191.94728)"/>
<use data-text="i" xlink:href="#font_1_66" transform="matrix(9.962899,0,0,-9.962899,85.23726,191.94728)"/>
<path transform="matrix(1.00003,0,0,-1.00003,18.374985,385.05509)" stroke-width=".3985" stroke-linecap="butt" stroke-miterlimit="10" stroke-linejoin="miter" fill="none" stroke="#000000" d="M39.68556 180.00241C39.68556 186.26471 34.6091 191.34117 28.3468 191.34117 22.0845 191.34117 17.00804 186.26471 17.00804 180.00241 17.00804 173.7401 22.0845 168.66365 28.3468 168.66365 34.6091 168.66365 39.68556 173.7401 39.68556 180.00241ZM28.3468 180.00241"/>
<use data-text="F" xlink:href="#font_1_54" transform="matrix(9.962899,0,0,-9.962899,36.82954,207.53777)"/>
<use data-text="#" xlink:href="#font_1_79" transform="matrix(9.962899,0,0,-9.962899,43.335317,207.53777)"/>
<use data-text="7" xlink:href="#font_1_100" transform="matrix(9.962899,0,0,-9.962899,51.63441,207.53777)"/>
<path transform="matrix(1.00003,0,0,-1.00003,18.374985,385.05509)" stroke-width=".3985" stroke-linecap="butt" stroke-miterlimit="10" stroke-linejoin="miter" fill="none" stroke="#000000" d="M16.27852 164.41156C16.27852 173.40204 8.99048 180.69008 0 180.69008-8.99048 180.69008-16.27852 173.40204-16.27852 164.41156-16.27852 155.42108-8.99048 148.13304 0 148.13304 8.99048 148.13304 16.27852 155.42108 16.27852 164.41156ZM0 164.41156"/>
<use data-text="F" xlink:href="#font_1_54" transform="matrix(9.962899,0,0,-9.962899,2.6685105,223.12921)"/>
<use data-text="#" xlink:href="#font_1_79" transform="matrix(9.962899,0,0,-9.962899,9.174286,223.12921)"/>
<use data-text="d" xlink:href="#font_1_47" transform="matrix(9.962899,0,0,-9.962899,17.473381,223.12921)"/>
<use data-text="i" xlink:href="#font_1_66" transform="matrix(9.962899,0,0,-9.962899,23.012749,223.12921)"/>
<use data-text="m" xlink:href="#font_1_75" transform="matrix(9.962899,0,0,-9.962899,25.782433,223.12921)"/>
<path transform="matrix(1.00003,0,0,-1.00003,18.374985,385.05509)" stroke-width=".3985" stroke-linecap="butt" stroke-miterlimit="10" stroke-linejoin="miter" fill="none" stroke="#000000" d="M153.0728 212.31774C153.0728 218.58005 147.99634 223.6565 141.73404 223.6565 135.47174 223.6565 130.39528 218.58005 130.39528 212.31774 130.39528 206.05544 135.47174 200.97898 141.73404 200.97898 147.99634 200.97898 153.0728 206.05544 153.0728 212.31774ZM141.73404 212.31774"/>
<use data-text="F" xlink:href="#font_1_54" transform="matrix(9.962899,0,0,-9.962899,156.86016,176.11882)"/>
<path transform="matrix(1.00003,0,0,-1.00003,18.374985,385.05509)" stroke-width=".3985" stroke-linecap="butt" stroke-miterlimit="10" stroke-linejoin="miter" fill="none" stroke="#000000" d="M124.726 197.01023C124.726 203.27254 119.64954 208.34899 113.38724 208.34899 107.12492 208.34899 102.04848 203.27254 102.04848 197.01023 102.04848 190.74793 107.12492 185.67147 113.38724 185.67147 119.64954 185.67147 124.726 190.74793 124.726 197.01023ZM113.38724 197.01023"/>
<use data-text="D" xlink:href="#font_1_46" transform="matrix(9.962899,0,0,-9.962899,126.02222,191.77527)"/>
<use data-text="&#x266d;" xlink:href="#font_2_1" transform="matrix(9.962899,0,0,-9.962899,133.63445,191.77527)"/>
<path transform="matrix(1.00003,0,0,-1.00003,18.374985,385.05509)" stroke-width=".3985" stroke-linecap="butt" stroke-miterlimit="10" stroke-linejoin="miter" fill="none" stroke="#000000" d="M96.37918 180.00241C96.37918 186.26471 91.30272 191.34117 85.04042 191.34117 78.77812 191.34117 73.70166 186.26471 73.70166 180.00241 73.70166 173.7401 78.77812 168.66365 85.04042 168.66365 91.30272 168.66365 96.37918 173.7401 96.37918 180.00241ZM85.04042 180.00241"/>
<use data-text="D" xlink:href="#font_1_46" transform="matrix(9.962899,0,0,-9.962899,93.10723,208.78379)"/>
<use data-text="&#x266d;" xlink:href="#font_2_1" transform="matrix(9.962899,0,0,-9.962899,100.71946,208.78379)"/>
<use data-text="M" xlink:href="#font_1_74" transform="matrix(9.962899,0,0,-9.962899,104.59358,208.78379)"/>
<path transform="matrix(1.00003,0,0,-1.00003,18.374985,385.05509)" stroke-width=".3985" stroke-linecap="butt" stroke-miterlimit="10" stroke-linejoin="miter" fill="none" stroke="#000000" d="M68.57402 163.56119C68.57402 170.12264 63.25507 175.4416 56.69362 175.4416 50.13217 175.4416 44.8132 170.12264 44.8132 163.56119 44.8132 156.99974 50.13217 151.68079 56.69362 151.68079 63.25507 151.68079 68.57402 156.99974 68.57402 163.56119ZM56.69362 163.56119"/>
<use data-text="D" xlink:href="#font_1_46" transform="matrix(9.962899,0,0,-9.962899,63.79235,225.22528)"/>
<use data-text="&#x266d;" xlink:href="#font_2_1" transform="matrix(9.962899,0,0,-9.962899,71.40458,225.22528)"/>
<use data-text="m" xlink:href="#font_1_75" transform="matrix(9.962899,0,0,-9.962899,75.2787,225.22528)"/>
<use data-text="i" xlink:href="#font_1_66" transform="matrix(9.962899,0,0,-9.962899,83.57779,225.22528)"/>
<path transform="matrix(1.00003,0,0,-1.00003,18.374985,385.05509)" stroke-width=".3985" stroke-linecap="butt" stroke-miterlimit="10" stroke-linejoin="miter" fill="none" stroke="#000000" d="M39.68556 147.40332C39.68556 153.66562 34.6091 158.74208 28.3468 158.74208 22.0845 158.74208 17.00804 153.66562 17.00804 147.40332 17.00804 141.141 22.0845 136.06456 28.3468 136.06456 34.6091 136.06456 39.68556 141.141 39.68556 147.40332ZM28.3468 147.40332"/>
<use data-text="D" xlink:href="#font_1_46" transform="matrix(9.962899,0,0,-9.962899,38.48859,241.27378)"/>
<use data-text="&#x266d;" xlink:href="#font_2_1" transform="matrix(9.962899,0,0,-9.962899,46.10082,241.27378)"/>
<use data-text="7" xlink:href="#font_1_100" transform="matrix(9.962899,0,0,-9.962899,49.97494,241.27378)"/>
<path transform="matrix(1.00003,0,0,-1.00003,18.374985,385.05509)" stroke-width=".3985" stroke-linecap="butt" stroke-miterlimit="10" stroke-linejoin="miter" fill="none" stroke="#000000" d="M14.5 130.39548C14.5 138.40372 8.00822 144.8955 0 144.8955-8.00822 144.8955-14.5 138.40372-14.5 130.39548-14.5 122.38724-8.00822 115.89546 0 115.89546 8.00822 115.89546 14.5 122.38724 14.5 130.39548ZM0 130.39548"/>
<use data-text="D" xlink:href="#font_1_46" transform="matrix(9.962899,0,0,-9.962899,4.3275606,258.33729)"/>
<use data-text="&#x266d;" xlink:href="#font_2_1" transform="matrix(9.962899,0,0,-9.962899,11.939789,258.33729)"/>
<use data-text="d" xlink:href="#font_1_47" transform="matrix(9.962899,0,0,-9.962899,15.813911,258.33729)"/>
<use data-text="i" xlink:href="#font_1_66" transform="matrix(9.962899,0,0,-9.962899,21.35328,258.33729)"/>
<use data-text="m" xlink:href="#font_1_75" transform="matrix(9.962899,0,0,-9.962899,24.122963,258.33729)"/>
<path transform="matrix(1.00003,0,0,-1.00003,18.374985,385.05509)" stroke-width=".3985" stroke-linecap="butt" stroke-miterlimit="10" stroke-linejoin="miter" fill="none" stroke="#000000" d="M153.0728 178.58498C153.0728 184.84728 147.99634 189.92374 141.73404 189.92374 135.47174 189.92374 130.39528 184.84728 130.39528 178.58498 130.39528 172.32268 135.47174 167.24622 141.73404 167.24622 147.99634 167.24622 153.0728 172.32268 153.0728 178.58498ZM141.73404 178.58498"/>
<use data-text="C" xlink:href="#font_1_42" transform="matrix(9.962899,0,0,-9.962899,156.51613,209.86682)"/>
<path transform="matrix(1.00003,0,0,-1.00003,18.374985,385.05509)" stroke-width=".3985" stroke-linecap="butt" stroke-miterlimit="10" stroke-linejoin="miter" fill="none" stroke="#000000" d="M124.726 162.99414C124.726 169.25646 119.64954 174.3329 113.38724 174.3329 107.12492 174.3329 102.04848 169.25646 102.04848 162.99414 102.04848 156.73184 107.12492 151.65538 113.38724 151.65538 119.64954 151.65538 124.726 156.73184 124.726 162.99414ZM113.38724 162.99414"/>
<use data-text="A" xlink:href="#font_1_27" transform="matrix(9.962899,0,0,-9.962899,126.09222,225.7923)"/>
<use data-text="&#x266d;" xlink:href="#font_2_1" transform="matrix(9.962899,0,0,-9.962899,133.56446,225.7923)"/>
<path transform="matrix(1.00003,0,0,-1.00003,18.374985,385.05509)" stroke-width=".3985" stroke-linecap="butt" stroke-miterlimit="10" stroke-linejoin="miter" fill="none" stroke="#000000" d="M96.37918 146.83626C96.37918 153.09856 91.30272 158.17502 85.04042 158.17502 78.77812 158.17502 73.70166 153.09856 73.70166 146.83626 73.70166 140.57395 78.77812 135.4975 85.04042 135.4975 91.30272 135.4975 96.37918 140.57395 96.37918 146.83626ZM85.04042 146.83626"/>
<use data-text="A" xlink:href="#font_1_27" transform="matrix(9.962899,0,0,-9.962899,93.17624,241.95078)"/>
<use data-text="&#x266d;" xlink:href="#font_2_1" transform="matrix(9.962899,0,0,-9.962899,100.64847,241.95078)"/>
<use data-text="M" xlink:href="#font_1_74" transform="matrix(9.962899,0,0,-9.962899,104.52358,241.95078)"/>
<path transform="matrix(1.00003,0,0,-1.00003,18.374985,385.05509)" stroke-width=".3985" stroke-linecap="butt" stroke-miterlimit="10" stroke-linejoin="miter" fill="none" stroke="#000000" d="M68.50056 128.97806C68.50056 135.49893 63.2145 140.78502 56.69362 140.78502 50.17274 140.78502 44.88666 135.49893 44.88666 128.97806 44.88666 122.45718 50.17274 117.17111 56.69362 117.17111 63.2145 117.17111 68.50056 122.45718 68.50056 128.97806ZM56.69362 128.97806"/>
<use data-text="A" xlink:href="#font_1_27" transform="matrix(9.962899,0,0,-9.962899,63.86235,259.80934)"/>
<use data-text="&#x266d;" xlink:href="#font_2_1" transform="matrix(9.962899,0,0,-9.962899,71.33458,259.80934)"/>
<use data-text="m" xlink:href="#font_1_75" transform="matrix(9.962899,0,0,-9.962899,75.209697,259.80934)"/>
<use data-text="i" xlink:href="#font_1_66" transform="matrix(9.962899,0,0,-9.962899,83.50879,259.80934)"/>
<path transform="matrix(1.00003,0,0,-1.00003,18.374985,385.05509)" stroke-width=".3985" stroke-linecap="butt" stroke-miterlimit="10" stroke-linejoin="miter" fill="none" stroke="#000000" d="M39.68556 113.10391C39.68556 119.36621 34.6091 124.44267 28.3468 124.44267 22.0845 124.44267 17.00804 119.36621 17.00804 113.10391 17.00804 106.84161 22.0845 101.76515 28.3468 101.76515 34.6091 101.76515 39.68556 106.84161 39.68556 113.10391ZM28.3468 113.10391"/>
<use data-text="A" xlink:href="#font_1_27" transform="matrix(9.962899,0,0,-9.962899,38.558595,275.5748)"/>
<use data-text="&#x266d;" xlink:href="#font_2_1" transform="matrix(9.962899,0,0,-9.962899,46.030824,275.5748)"/>
<use data-text="7" xlink:href="#font_1_100" transform="matrix(9.962899,0,0,-9.962899,49.905939,275.5748)"/>
<path transform="matrix(1.00003,0,0,-1.00003,18.374985,385.05509)" stroke-width=".3985" stroke-linecap="butt" stroke-miterlimit="10" stroke-linejoin="miter" fill="none" stroke="#000000" d="M14.42801 97.79639C14.42801 105.76485 7.96846 112.2244 0 112.2244-7.96846 112.2244-14.42801 105.76485-14.42801 97.79639-14.42801 89.82793-7.96846 83.36838 0 83.36838 7.96846 83.36838 14.42801 89.82793 14.42801 97.79639ZM0 97.79639"/>
<use data-text="A" xlink:href="#font_1_27" transform="matrix(9.962899,0,0,-9.962899,4.3975679,290.93727)"/>
<use data-text="&#x266d;" xlink:href="#font_2_1" transform="matrix(9.962899,0,0,-9.962899,11.869797,290.93727)"/>
<use data-text="d" xlink:href="#font_1_47" transform="matrix(9.962899,0,0,-9.962899,15.744911,290.93727)"/>
<use data-text="i" xlink:href="#font_1_66" transform="matrix(9.962899,0,0,-9.962899,21.284287,290.93727)"/>
<use data-text="m" xlink:href="#font_1_75" transform="matrix(9.962899,0,0,-9.962899,24.05397,290.93727)"/>
<path transform="matrix(1.00003,0,0,-1.00003,18.374985,385.05509)" stroke-width=".3985" stroke-linecap="butt" stroke-miterlimit="10" stroke-linejoin="miter" fill="none" stroke="#000000" d="M153.0728 144.5689C153.0728 150.83119 147.99634 155.90766 141.73404 155.90766 135.47174 155.90766 130.39528 150.83119 130.39528 144.5689 130.39528 138.3066 135.47174 133.23014 141.73404 133.23014 147.99634 133.23014 153.0728 138.3066 153.0728 144.5689ZM141.73404 144.5689"/>
<use data-text="G" xlink:href="#font_1_58" transform="matrix(9.962899,0,0,-9.962899,156.20313,243.88384)"/>
<path transform="matrix(1.00003,0,0,-1.00003,18.374985,385.05509)" stroke-width=".3985" stroke-linecap="butt" stroke-miterlimit="10" stroke-linejoin="miter" fill="none" stroke="#000000" d="M124.726 128.97806C124.726 135.24037 119.64954 140.31682 113.38724 140.31682 107.12492 140.31682 102.04848 135.24037 102.04848 128.97806 102.04848 122.71576 107.12492 117.6393 113.38724 117.6393 119.64954 117.6393 124.726 122.71576 124.726 128.97806ZM113.38724 128.97806"/>
<use data-text="E" xlink:href="#font_1_49" transform="matrix(9.962899,0,0,-9.962899,126.436229,259.80934)"/>
<use data-text="&#x266d;" xlink:href="#font_2_1" transform="matrix(9.962899,0,0,-9.962899,133.22144,259.80934)"/>
<path transform="matrix(1.00003,0,0,-1.00003,18.374985,385.05509)" stroke-width=".3985" stroke-linecap="butt" stroke-miterlimit="10" stroke-linejoin="miter" fill="none" stroke="#000000" d="M96.37918 113.38724C96.37918 119.64954 91.30272 124.726 85.04042 124.726 78.77812 124.726 73.70166 119.64954 73.70166 113.38724 73.70166 107.12492 78.77812 102.04848 85.04042 102.04848 91.30272 102.04848 96.37918 107.12492 96.37918 113.38724ZM85.04042 113.38724"/>
<use data-text="E" xlink:href="#font_1_49" transform="matrix(9.962899,0,0,-9.962899,93.52024,275.4008)"/>
<use data-text="&#x266d;" xlink:href="#font_2_1" transform="matrix(9.962899,0,0,-9.962899,100.30544,275.4008)"/>
<use data-text="M" xlink:href="#font_1_74" transform="matrix(9.962899,0,0,-9.962899,104.17956,275.4008)"/>
<path transform="matrix(1.00003,0,0,-1.00003,18.374985,385.05509)" stroke-width=".3985" stroke-linecap="butt" stroke-miterlimit="10" stroke-linejoin="miter" fill="none" stroke="#000000" d="M68.13864 96.37897C68.13864 102.69995 63.01459 107.82399 56.69362 107.82399 50.37263 107.82399 45.2486 102.69995 45.2486 96.37897 45.2486 90.05798 50.37263 84.93394 56.69362 84.93394 63.01459 84.93394 68.13864 90.05798 68.13864 96.37897ZM56.69362 96.37897"/>
<use data-text="E" xlink:href="#font_1_49" transform="matrix(9.962899,0,0,-9.962899,64.20636,292.4093)"/>
<use data-text="&#x266d;" xlink:href="#font_2_1" transform="matrix(9.962899,0,0,-9.962899,70.99156,292.4093)"/>
<use data-text="m" xlink:href="#font_1_75" transform="matrix(9.962899,0,0,-9.962899,74.86568,292.4093)"/>
<use data-text="i" xlink:href="#font_1_66" transform="matrix(9.962899,0,0,-9.962899,83.16478,292.4093)"/>
<path transform="matrix(1.00003,0,0,-1.00003,18.374985,385.05509)" stroke-width=".3985" stroke-linecap="butt" stroke-miterlimit="10" stroke-linejoin="miter" fill="none" stroke="#000000" d="M39.68556 80.78856C39.68556 87.05087 34.6091 92.12732 28.3468 92.12732 22.0845 92.12732 17.00804 87.05087 17.00804 80.78856 17.00804 74.52626 22.0845 69.4498 28.3468 69.4498 34.6091 69.4498 39.68556 74.52626 39.68556 80.78856ZM28.3468 80.78856"/>
<use data-text="E" xlink:href="#font_1_49" transform="matrix(9.962899,0,0,-9.962899,38.902605,307.89076)"/>
<use data-text="&#x266d;" xlink:href="#font_2_1" transform="matrix(9.962899,0,0,-9.962899,45.687807,307.89076)"/>
<use data-text="7" xlink:href="#font_1_100" transform="matrix(9.962899,0,0,-9.962899,49.56192,307.89076)"/>
<path transform="matrix(1.00003,0,0,-1.00003,18.374985,385.05509)" stroke-width=".3985" stroke-linecap="butt" stroke-miterlimit="10" stroke-linejoin="miter" fill="none" stroke="#000000" d="M14.13005 65.19774C14.13005 73.00165 7.8039 79.32779 0 79.32779-7.8039 79.32779-14.13005 73.00165-14.13005 65.19774-14.13005 57.39383-7.8039 51.06767 0 51.06767 7.8039 51.06767 14.13005 57.39383 14.13005 65.19774ZM0 65.19774"/>
<use data-text="E" xlink:href="#font_1_49" transform="matrix(9.962899,0,0,-9.962899,4.741577,323.53724)"/>
<use data-text="&#x266d;" xlink:href="#font_2_1" transform="matrix(9.962899,0,0,-9.962899,11.526779,323.53724)"/>
<use data-text="d" xlink:href="#font_1_47" transform="matrix(9.962899,0,0,-9.962899,15.400894,323.53724)"/>
<use data-text="i" xlink:href="#font_1_66" transform="matrix(9.962899,0,0,-9.962899,20.94027,323.53724)"/>
<use data-text="m" xlink:href="#font_1_75" transform="matrix(9.962899,0,0,-9.962899,23.709954,323.53724)"/>
<path transform="matrix(1.00003,0,0,-1.00003,18.374985,385.05509)" stroke-width=".3985" stroke-linecap="butt" stroke-miterlimit="10" stroke-linejoin="miter" fill="none" stroke="#000000" d="M153.0728 111.9698C153.0728 118.2321 147.99634 123.30856 141.73404 123.30856 135.47174 123.30856 130.39528 118.2321 130.39528 111.9698 130.39528 105.70749 135.47174 100.63104 141.73404 100.63104 147.99634 100.63104 153.0728 105.70749 153.0728 111.9698ZM141.73404 111.9698"/>
<use data-text="D" xlink:href="#font_1_46" transform="matrix(9.962899,0,0,-9.962899,156.30713,276.48384)"/>
<path transform="matrix(1.00003,0,0,-1.00003,18.374985,385.05509)" stroke-width=".3985" stroke-linecap="butt" stroke-miterlimit="10" stroke-linejoin="miter" fill="none" stroke="#000000" d="M124.726 94.96198C124.726 101.22427 119.64954 106.30074 113.38724 106.30074 107.12492 106.30074 102.04848 101.22427 102.04848 94.96198 102.04848 88.69968 107.12492 83.62321 113.38724 83.62321 119.64954 83.62321 124.726 88.69968 124.726 94.96198ZM113.38724 94.96198"/>
<use data-text="B" xlink:href="#font_1_34" transform="matrix(9.962899,0,0,-9.962899,126.30122,293.82637)"/>
<use data-text="&#x266d;" xlink:href="#font_2_1" transform="matrix(9.962899,0,0,-9.962899,133.35544,293.82637)"/>
<path transform="matrix(1.00003,0,0,-1.00003,18.374985,385.05509)" stroke-width=".3985" stroke-linecap="butt" stroke-miterlimit="10" stroke-linejoin="miter" fill="none" stroke="#000000" d="M96.37918 80.2215C96.37918 86.48381 91.30272 91.56026 85.04042 91.56026 78.77812 91.56026 73.70166 86.48381 73.70166 80.2215 73.70166 73.9592 78.77812 68.88274 85.04042 68.88274 91.30272 68.88274 96.37918 73.9592 96.37918 80.2215ZM85.04042 80.2215"/>
<use data-text="B" xlink:href="#font_1_34" transform="matrix(9.962899,0,0,-9.962899,93.38524,308.56779)"/>
<use data-text="&#x266d;" xlink:href="#font_2_1" transform="matrix(9.962899,0,0,-9.962899,100.43945,308.56779)"/>
<use data-text="M" xlink:href="#font_1_74" transform="matrix(9.962899,0,0,-9.962899,104.31357,308.56779)"/>
<path transform="matrix(1.00003,0,0,-1.00003,18.374985,385.05509)" stroke-width=".3985" stroke-linecap="butt" stroke-miterlimit="10" stroke-linejoin="miter" fill="none" stroke="#000000" d="M68.2802 63.7803C68.2802 70.17947 63.09277 75.36688 56.69362 75.36688 50.29445 75.36688 45.10703 70.17947 45.10703 63.7803 45.10703 57.38113 50.29445 52.19373 56.69362 52.19373 63.09277 52.19373 68.2802 57.38113 68.2802 63.7803ZM56.69362 63.7803"/>
<use data-text="B" xlink:href="#font_1_34" transform="matrix(9.962899,0,0,-9.962899,64.07136,325.00929)"/>
<use data-text="&#x266d;" xlink:href="#font_2_1" transform="matrix(9.962899,0,0,-9.962899,71.12557,325.00929)"/>
<use data-text="m" xlink:href="#font_1_75" transform="matrix(9.962899,0,0,-9.962899,74.99969,325.00929)"/>
<use data-text="i" xlink:href="#font_1_66" transform="matrix(9.962899,0,0,-9.962899,83.29878,325.00929)"/>
<path transform="matrix(1.00003,0,0,-1.00003,18.374985,385.05509)" stroke-width=".3985" stroke-linecap="butt" stroke-miterlimit="10" stroke-linejoin="miter" fill="none" stroke="#000000" d="M39.68556 48.18947C39.68556 54.45178 34.6091 59.52823 28.3468 59.52823 22.0845 59.52823 17.00804 54.45178 17.00804 48.18947 17.00804 41.92717 22.0845 36.85071 28.3468 36.85071 34.6091 36.85071 39.68556 41.92717 39.68556 48.18947ZM28.3468 48.18947"/>
<use data-text="B" xlink:href="#font_1_34" transform="matrix(9.962899,0,0,-9.962899,38.767599,340.49076)"/>
<use data-text="&#x266d;" xlink:href="#font_2_1" transform="matrix(9.962899,0,0,-9.962899,45.82181,340.49076)"/>
<use data-text="7" xlink:href="#font_1_100" transform="matrix(9.962899,0,0,-9.962899,49.695928,340.49076)"/>
<path transform="matrix(1.00003,0,0,-1.00003,18.374985,385.05509)" stroke-width=".3985" stroke-linecap="butt" stroke-miterlimit="10" stroke-linejoin="miter" fill="none" stroke="#000000" d="M14.26942 32.59865C14.26942 40.47954 7.88087 46.86807 0 46.86807-7.88087 46.86807-14.26942 40.47954-14.26942 32.59865-14.26942 24.71776-7.88087 18.32921 0 18.32921 7.88087 18.32921 14.26942 24.71776 14.26942 32.59865ZM0 32.59865"/>
<use data-text="B" xlink:href="#font_1_34" transform="matrix(9.962899,0,0,-9.962899,4.6065676,356.1372)"/>
<use data-text="&#x266d;" xlink:href="#font_2_1" transform="matrix(9.962899,0,0,-9.962899,11.660782,356.1372)"/>
<use data-text="d" xlink:href="#font_1_47" transform="matrix(9.962899,0,0,-9.962899,15.534897,356.1372)"/>
<use data-text="i" xlink:href="#font_1_66" transform="matrix(9.962899,0,0,-9.962899,21.074273,356.1372)"/>
<use data-text="m" xlink:href="#font_1_75" transform="matrix(9.962899,0,0,-9.962899,23.843956,356.1372)"/>
<path transform="matrix(1.00003,0,0,-1.00003,18.374985,385.05509)" stroke-width=".3985" stroke-linecap="butt" stroke-miterlimit="10" stroke-linejoin="miter" fill="none" stroke="#000000" d="M153.0728 79.37114C153.0728 85.63344 147.99634 90.7099 141.73404 90.7099 135.47174 90.7099 130.39528 85.63344 130.39528 79.37114 130.39528 73.10883 135.47174 68.03238 141.73404 68.03238 147.99634 68.03238 153.0728 73.10883 153.0728 79.37114ZM141.73404 79.37114"/>
<use data-text="A" xlink:href="#font_1_27" transform="matrix(9.962899,0,0,-9.962899,156.37714,309.2488)"/>
<path transform="matrix(1.00003,0,0,-1.00003,18.374985,385.05509)" stroke-width=".3985" stroke-linecap="butt" stroke-miterlimit="10" stroke-linejoin="miter" fill="none" stroke="#000000" d="M124.726 62.36288C124.726 68.62518 119.64954 73.70164 113.38724 73.70164 107.12492 73.70164 102.04848 68.62518 102.04848 62.36288 102.04848 56.10059 107.12492 51.02412 113.38724 51.02412 119.64954 51.02412 124.726 56.10059 124.726 62.36288ZM113.38724 62.36288"/>
<use data-text="F" xlink:href="#font_1_54" transform="matrix(9.962899,0,0,-9.962899,128.5123,326.0773)"/>
<path transform="matrix(1.00003,0,0,-1.00003,18.374985,385.05509)" stroke-width=".3985" stroke-linecap="butt" stroke-miterlimit="10" stroke-linejoin="miter" fill="none" stroke="#000000" d="M96.37918 46.77203C96.37918 53.03435 91.30272 58.1108 85.04042 58.1108 78.77812 58.1108 73.70166 53.03435 73.70166 46.77203 73.70166 40.50974 78.77812 35.43327 85.04042 35.43327 91.30272 35.43327 96.37918 40.50974 96.37918 46.77203ZM85.04042 46.77203"/>
<use data-text="F" xlink:href="#font_1_54" transform="matrix(9.962899,0,0,-9.962899,95.597309,341.68379)"/>
<use data-text="M" xlink:href="#font_1_74" transform="matrix(9.962899,0,0,-9.962899,102.10308,341.68379)"/>
<path transform="matrix(1.00003,0,0,-1.00003,18.374985,385.05509)" stroke-width=".3985" stroke-linecap="butt" stroke-miterlimit="10" stroke-linejoin="miter" fill="none" stroke="#000000" d="M68.03238 29.76422C68.03238 36.02652 62.95592 41.10298 56.69362 41.10298 50.4313 41.10298 45.35486 36.02652 45.35486 29.76422 45.35486 23.50192 50.4313 18.42546 56.69362 18.42546 62.95592 18.42546 68.03238 23.50192 68.03238 29.76422ZM56.69362 29.76422"/>
<use data-text="F" xlink:href="#font_1_54" transform="matrix(9.962899,0,0,-9.962899,66.69644,358.6773)"/>
<use data-text="m" xlink:href="#font_1_75" transform="matrix(9.962899,0,0,-9.962899,72.385257,358.6773)"/>
<use data-text="i" xlink:href="#font_1_66" transform="matrix(9.962899,0,0,-9.962899,80.68434,358.6773)"/>
<path transform="matrix(1.00003,0,0,-1.00003,18.374985,385.05509)" stroke-width=".3985" stroke-linecap="butt" stroke-miterlimit="10" stroke-linejoin="miter" fill="none" stroke="#000000" d="M13.64188 0C13.64188 7.53429 7.53429 13.64188 0 13.64188-7.53429 13.64188-13.64188 7.53429-13.64188 0-13.64188-7.53429-7.53429-13.64188 0-13.64188 7.53429-13.64188 13.64188-7.53429 13.64188 0ZM0 0"/>
<use data-text="F" xlink:href="#font_1_54" transform="matrix(9.962899,0,0,-9.962899,5.1585848,388.45719)"/>
<use data-text="d" xlink:href="#font_1_47" transform="matrix(9.962899,0,0,-9.962899,14.982002,388.45719)"/>
<use data-text="i" xlink:href="#font_1_66" transform="matrix(9.962899,0,0,-9.962899,20.521378,388.45719)"/>
<use data-text="m" xlink:href="#font_1_75" transform="matrix(9.962899,0,0,-9.962899,23.291062,388.45719)"/>
<path transform="matrix(1.00003,0,0,-1.00003,18.374985,385.05509)" stroke-width=".3985" stroke-linecap="butt" stroke-miterlimit="10" stroke-linejoin="miter" fill="none" stroke="#000000" d="M39.68556 15.59082C39.68556 21.85312 34.6091 26.92958 28.3468 26.92958 22.0845 26.92958 17.00804 21.85312 17.00804 15.59082 17.00804 9.32852 22.0845 4.25206 28.3468 4.25206 34.6091 4.25206 39.68556 9.32852 39.68556 15.59082ZM28.3468 15.59082"/>
<use data-text="F" xlink:href="#font_1_54" transform="matrix(9.962899,0,0,-9.962899,40.978666,372.7417)"/>
<use data-text="7" xlink:href="#font_1_100" transform="matrix(9.962899,0,0,-9.962899,47.48444,372.7417)"/>
<path transform="matrix(1.00003,0,0,-1.00003,18.374985,385.05509)" stroke-width=".3985" stroke-linecap="butt" stroke-miterlimit="10" stroke-linejoin="miter" fill="none" stroke="#000000" d="M12.43472-32.59865C12.43472-25.73105 6.8676-20.16391 0-20.16391-6.8676-20.16391-12.43472-25.73105-12.43472-32.59865-12.43472-39.46625-6.8676-45.03337 0-45.03337 6.8676-45.03337 12.43472-39.46625 12.43472-32.59865ZM0-32.59865"/>
<use data-text="C" xlink:href="#font_1_42" transform="matrix(9.962899,0,0,-9.962899,6.473625,421.05717)"/>
<use data-text="d" xlink:href="#font_1_47" transform="matrix(9.962899,0,0,-9.962899,13.666847,421.05717)"/>
<use data-text="i" xlink:href="#font_1_66" transform="matrix(9.962899,0,0,-9.962899,19.206215,421.05717)"/>
<use data-text="m" xlink:href="#font_1_75" transform="matrix(9.962899,0,0,-9.962899,21.975899,421.05717)"/>
<path transform="matrix(1.00003,0,0,-1.00003,18.374985,385.05509)" stroke-width=".3985" stroke-linecap="butt" stroke-miterlimit="10" stroke-linejoin="miter" fill="none" stroke="#000000" d="M39.68556-17.00824C39.68556-10.74594 34.6091-5.66948 28.3468-5.66948 22.0845-5.66948 17.00804-10.74594 17.00804-17.00824 17.00804-23.27054 22.0845-28.347 28.3468-28.347 34.6091-28.347 39.68556-23.27054 39.68556-17.00824ZM28.3468-17.00824"/>
<use data-text="C" xlink:href="#font_1_42" transform="matrix(9.962899,0,0,-9.962899,40.635656,405.4667)"/>
<use data-text="7" xlink:href="#font_1_100" transform="matrix(9.962899,0,0,-9.962899,47.828878,405.4667)"/>
<path transform="matrix(1.00003,0,0,-1.00003,18.374985,385.05509)" stroke-width=".3985" stroke-linecap="butt" stroke-miterlimit="10" stroke-linejoin="miter" fill="none" stroke="#000000" d="M68.03238-2.83484C68.03238 3.42744 62.95592 8.5039 56.69362 8.5039 50.4313 8.5039 45.35486 3.42744 45.35486-2.83484 45.35486-9.09714 50.4313-14.1736 56.69362-14.1736 62.95592-14.1736 68.03238-9.09714 68.03238-2.83484ZM56.69362-2.83484"/>
<use data-text="C" xlink:href="#font_1_42" transform="matrix(9.962899,0,0,-9.962899,65.939418,391.29228)"/>
<use data-text="m" xlink:href="#font_1_75" transform="matrix(9.962899,0,0,-9.962899,73.13264,391.29228)"/>
<use data-text="i" xlink:href="#font_1_66" transform="matrix(9.962899,0,0,-9.962899,81.431728,391.29228)"/>
<path transform="matrix(1.00003,0,0,-1.00003,18.374985,385.05509)" stroke-width=".3985" stroke-linecap="butt" stroke-miterlimit="10" stroke-linejoin="miter" fill="none" stroke="#000000" d="M96.37918 14.17339C96.37918 20.4357 91.30272 25.51215 85.04042 25.51215 78.77812 25.51215 73.70166 20.4357 73.70166 14.17339 73.70166 7.91109 78.77812 2.83463 85.04042 2.83463 91.30272 2.83463 96.37918 7.91109 96.37918 14.17339ZM85.04042 14.17339"/>
<use data-text="C" xlink:href="#font_1_42" transform="matrix(9.962899,0,0,-9.962899,95.253299,374.28376)"/>
<use data-text="M" xlink:href="#font_1_74" transform="matrix(9.962899,0,0,-9.962899,102.44652,374.28376)"/>
<path transform="matrix(1.00003,0,0,-1.00003,18.374985,385.05509)" stroke-width=".3985" stroke-linecap="butt" stroke-miterlimit="10" stroke-linejoin="miter" fill="none" stroke="#000000" d="M124.726 29.76422C124.726 36.02652 119.64954 41.10298 113.38724 41.10298 107.12492 41.10298 102.04848 36.02652 102.04848 29.76422 102.04848 23.50192 107.12492 18.42546 113.38724 18.42546 119.64954 18.42546 124.726 23.50192 124.726 29.76422ZM113.38724 29.76422"/>
<use data-text="C" xlink:href="#font_1_42" transform="matrix(9.962899,0,0,-9.962899,128.16928,358.6923)"/>
<path transform="matrix(1.00003,0,0,-1.00003,18.374985,385.05509)" stroke-width=".3985" stroke-linecap="butt" stroke-miterlimit="10" stroke-linejoin="miter" fill="none" stroke="#000000" d="M153.0728 46.77203C153.0728 53.03435 147.99634 58.1108 141.73404 58.1108 135.47174 58.1108 130.39528 53.03435 130.39528 46.77203 130.39528 40.50974 135.47174 35.43327 141.73404 35.43327 147.99634 35.43327 153.0728 40.50974 153.0728 46.77203ZM141.73404 46.77203"/>
<use data-text="E" xlink:href="#font_1_49" transform="matrix(9.962899,0,0,-9.962899,156.72113,341.6688)"/>
<path transform="matrix(1.00003,0,0,-1.00003,18.374985,385.05509)" stroke-width=".3985" stroke-linecap="butt" stroke-miterlimit="10" stroke-linejoin="miter" fill="none" stroke="#000000" d="M12.60182-65.19774C12.60182-58.23785 6.95987-52.5959 0-52.5959-6.95987-52.5959-12.60182-58.23785-12.60182-65.19774-12.60182-72.15761-6.95987-77.79956 0-77.79956 6.95987-77.79956 12.60182-72.15761 12.60182-65.19774ZM0-65.19774"/>
<use data-text="D" xlink:href="#font_1_46" transform="matrix(9.962899,0,0,-9.962899,6.264618,453.65715)"/>
<use data-text="d" xlink:href="#font_1_47" transform="matrix(9.962899,0,0,-9.962899,13.876274,453.65715)"/>
<use data-text="i" xlink:href="#font_1_66" transform="matrix(9.962899,0,0,-9.962899,19.41565,453.65715)"/>
<use data-text="m" xlink:href="#font_1_75" transform="matrix(9.962899,0,0,-9.962899,22.185334,453.65715)"/>
<path transform="matrix(1.00003,0,0,-1.00003,18.374985,385.05509)" stroke-width=".3985" stroke-linecap="butt" stroke-miterlimit="10" stroke-linejoin="miter" fill="none" stroke="#000000" d="M39.68556-49.6069C39.68556-43.3446 34.6091-38.26814 28.3468-38.26814 22.0845-38.26814 17.00804-43.3446 17.00804-49.6069 17.00804-55.8692 22.0845-60.94566 28.3468-60.94566 34.6091-60.94566 39.68556-55.8692 39.68556-49.6069ZM28.3468-49.6069"/>
<use data-text="D" xlink:href="#font_1_46" transform="matrix(9.962899,0,0,-9.962899,40.425645,437.95668)"/>
<use data-text="7" xlink:href="#font_1_100" transform="matrix(9.962899,0,0,-9.962899,48.0373,437.95668)"/>
<path transform="matrix(1.00003,0,0,-1.00003,18.374985,385.05509)" stroke-width=".3985" stroke-linecap="butt" stroke-miterlimit="10" stroke-linejoin="miter" fill="none" stroke="#000000" d="M68.03238-35.43349C68.03238-29.17119 62.95592-24.09473 56.69362-24.09473 50.4313-24.09473 45.35486-29.17119 45.35486-35.43349 45.35486-41.6958 50.4313-46.77225 56.69362-46.77225 62.95592-46.77225 68.03238-41.6958 68.03238-35.43349ZM56.69362-35.43349"/>
<use data-text="D" xlink:href="#font_1_46" transform="matrix(9.962899,0,0,-9.962899,65.73041,423.89225)"/>
<use data-text="m" xlink:href="#font_1_75" transform="matrix(9.962899,0,0,-9.962899,73.342067,423.89225)"/>
<use data-text="i" xlink:href="#font_1_66" transform="matrix(9.962899,0,0,-9.962899,81.64116,423.89225)"/>
<path transform="matrix(1.00003,0,0,-1.00003,18.374985,385.05509)" stroke-width=".3985" stroke-linecap="butt" stroke-miterlimit="10" stroke-linejoin="miter" fill="none" stroke="#000000" d="M96.37918-17.85861C96.37918-11.5963 91.30272-6.51985 85.04042-6.51985 78.77812-6.51985 73.70166-11.5963 73.70166-17.85861 73.70166-24.12091 78.77812-29.19737 85.04042-29.19737 91.30272-29.19737 96.37918-24.12091 96.37918-17.85861ZM85.04042-17.85861"/>
<use data-text="D" xlink:href="#font_1_46" transform="matrix(9.962899,0,0,-9.962899,95.04429,406.3167)"/>
<use data-text="M" xlink:href="#font_1_74" transform="matrix(9.962899,0,0,-9.962899,102.655948,406.3167)"/>
<path transform="matrix(1.00003,0,0,-1.00003,18.374985,385.05509)" stroke-width=".3985" stroke-linecap="butt" stroke-miterlimit="10" stroke-linejoin="miter" fill="none" stroke="#000000" d="M124.726-2.69296C124.726 3.56932 119.64954 8.64578 113.38724 8.64578 107.12492 8.64578 102.04848 3.56932 102.04848-2.69296 102.04848-8.95526 107.12492-14.03172 113.38724-14.03172 119.64954-14.03172 124.726-8.95526 124.726-2.69296ZM113.38724-2.69296"/>
<use data-text="D" xlink:href="#font_1_46" transform="matrix(9.962899,0,0,-9.962899,127.959278,391.15028)"/>
<path transform="matrix(1.00003,0,0,-1.00003,18.374985,385.05509)" stroke-width=".3985" stroke-linecap="butt" stroke-miterlimit="10" stroke-linejoin="miter" fill="none" stroke="#000000" d="M153.0728 14.74045C153.0728 21.00276 147.99634 26.07921 141.73404 26.07921 135.47174 26.07921 130.39528 21.00276 130.39528 14.74045 130.39528 8.47815 135.47174 3.40169 141.73404 3.40169 147.99634 3.40169 153.0728 8.47815 153.0728 14.74045ZM141.73404 14.74045"/>
<use data-text="B" xlink:href="#font_1_34" transform="matrix(9.962899,0,0,-9.962899,156.58614,373.71675)"/>
<path transform="matrix(1.00003,0,0,-1.00003,18.374985,385.05509)" stroke-width=".79701" stroke-linecap="butt" stroke-miterlimit="10" stroke-linejoin="miter" fill="none" stroke="#000000" d="M212.60106 56.69362V354.3351"/>
<path transform="matrix(1.00003,0,0,-1.00003,18.374985,385.05509)" stroke-width=".79701" stroke-linecap="butt" stroke-miterlimit="10" stroke-linejoin="miter" fill="none" stroke="#000000" d="M198.42766 56.69362V354.3351"/>
<path transform="matrix(1.00003,0,0,-1.00003,18.374985,385.05509)" stroke-width=".79701" stroke-linecap="butt" stroke-miterlimit="10" stroke-linejoin="miter" fill="none" stroke="#000000" d="M184.25424 56.69362V354.3351"/>
</svg>
