<svg xmlns="http://www.w3.org/2000/svg" xmlns:xlink="http://www.w3.org/1999/xlink" xmlns:inkscape="http://www.inkscape.org/namespaces/inkscape" version="1.1" width="188" height="317" viewBox="0 0 188 317">
<defs>
<path id="font_1_46" d="M.70700076 .33580018C.70700076 .52568057 .57199099 .6826172 .40098573 .6826172H.034988405V.6516113H.05899048C.13598633 .6516113 .13798523 .64060977 .13798523 .6046295V.07795715C.13798523 .041992189 .13598633 .0309906 .05899048 .0309906H.034988405V0H.40098573C.56900027 0 .70700076 .1479187 .70700076 .33580018M.6069946 .33580018C.6069946 .22486878 .58799746 .16490174 .5519867 .11593628 .5319977 .08895874 .47499085 .0309906 .37399293 .0309906H.272995C.22599793 .0309906 .22399903 .037994386 .22399903 .07096863V.6116333C.22399903 .64460757 .22599793 .6516113 .272995 .6516113H.37298585C.43499757 .6516113 .5039978 .6296234 .5549927 .55867007 .59799197 .49969483 .6069946 .41375733 .6069946 .33580018Z"/>
<path id="font_2_2" d="M.2649994-.01890564V-.135849C.2649994-.15484619 .2649994-.1628418 .27598573-.1628418 .2899933-.1628418 .2899933-.15383911 .2899933-.13485718V-.009902954C.2939911-.008895874 .31799317-.0019073486 .31999208-.00090026858 .33198548 .0030975342 .33299256 .0040893557 .33299256 .028076172V.05307007C.33299256 .07106018 .33299256 .080062869 .32199098 .080062869 .31698609 .080062869 .29499818 .07305908 .2899933 .07106018V.42092896C.2939911 .42192079 .31799317 .42892457 .31999208 .42991639 .33198548 .43391419 .33299256 .43492127 .33299256 .45890809V.48390199C.33299256 .5018921 .33299256 .5108948 .32199098 .5108948 .31698609 .5108948 .29499818 .503891 .2899933 .5018921V.68881228C.2899933 .7068176 .2899933 .7158203 .2789917 .7158203 .2649994 .7158203 .2649994 .7068176 .2649994 .68782046V.49389649L.12298584 .44992066V.63583377C.12298584 .65483096 .12298584 .66282656 .11199951 .66282656 .09799194 .66282656 .09799194 .6538391 .09799194 .6348419V.44091798C.09399414 .4399109 .069992069 .43292237 .067993167 .43191529 .055999757 .42791749 .054992677 .42692567 .054992677 .40293885V.37794496C.054992677 .35995484 .054992677 .35095216 .06599426 .35095216 .070999149 .35095216 .09298706 .35795594 .09799194 .35995484V.01008606C.09399414 .009094238 .069992069 .002090454 .067993167 .0010986328 .055999757-.00289917 .054992677-.00390625 .054992677-.027893067V-.052886964C.054992677-.070877078 .054992677-.07987976 .06599426-.07987976 .070999149-.07987976 .09298706-.07287598 .09799194-.070877078V-.18882752C.09799194-.20683289 .09799194-.21582031 .10899353-.21582031 .12298584-.21582031 .12298584-.20683289 .12298584-.1878357V-.06288147L.2649994-.01890564M.2649994 .41192628V.063064578L.12298584 .019088746V.36795045L.2649994 .41192628Z"/>
<path id="font_1_102" d="M.44299317 .7299957C.44299317 .7409973 .43399049 .75 .4229889 .75 .40899659 .75 .40499879 .73999026 .4019928 .7299957L.06098938-.21200562C.055999757-.2250061 .055999757-.23001099 .055999757-.23001099 .055999757-.24101258 .06498718-.25 .07598877-.25 .08999634-.25 .09399414-.2400055 .09700012-.23001099L.43798829 .71199038C.44299317 .72499087 .44299317 .7299957 .44299317 .7299957Z"/>
<path id="font_1_49" d="M.6519928 .2579193H.6269989C.60198977 .10397339 .57899478 .0309906 .40699769 .0309906H.27398683C.22698975 .0309906 .22499085 .037994386 .22499085 .07098389V.33789063H.31498719C.4119873 .33789063 .4229889 .30589295 .4229889 .220932H.44799806V.48606874H.4229889C.4229889 .39994813 .4119873 .36888124 .31498719 .36888124H.22499085V.6087799C.22499085 .6416931 .22698975 .64868167 .27398683 .64868167H.40299989C.55599978 .64868167 .58299258 .59381106 .598999 .45507813H.6239929L.59599307 .6796875H.032989503V.64868167H.056991579C.13398743 .64868167 .13598633 .6377106 .13598633 .6017914V.07797241C.13598633 .041992189 .13398743 .0309906 .056991579 .0309906H.032989503V0H.6100006L.6519928 .2579193Z"/>
<path id="font_2_1" d="M.07998657 .7220001C.07998657 .7409973 .07998657 .75 .067993167 .75 .054992677 .75 .054992677 .74198916 .054992677 .7220001V.0055389406C.054992677-.014465332 .054992677-.022460938 .067993167-.022460938 .07798767-.022460938 .18199158 .049560548 .23699951 .10862732 .2919922 .16769409 .33299256 .23776245 .33299256 .32084657 .33299256 .39492799 .27799989 .45996095 .19599915 .45996095 .13999939 .45996095 .099990848 .43695069 .07998657 .41793824V.7220001M.07998657 .342865C.07998657 .3658905 .07998657 .3869171 .11299133 .40592958 .14399719 .4239502 .18699646 .4239502 .18798828 .4239502 .23399353 .4239502 .2519989 .3698883 .2519989 .32084657 .2519989 .16268921 .10398865 .03555298 .07998657 .015533447V.342865Z"/>
<path id="font_1_42" d="M.6649933 .23271179C.6649933 .24272156 .6649933 .24972534 .6519928 .24972534 .6409912 .24972534 .6409912 .24372864 .6399994 .23371887 .6319885 .09059143 .5249939 .008529663 .41600038 .008529663 .35499574 .008529663 .15899658 .042556764 .15899658 .34080506 .15899658 .64004519 .35398866 .67407229 .4149933 .67407229 .5239868 .67407229 .61299136 .58299258 .6329956 .4368744 .6349945 .42286683 .6349945 .41986085 .6489868 .41986085 .6649933 .41986085 .6649933 .42286683 .6649933 .44387818V.68107607C.6649933 .69807437 .6649933 .7050781 .6539917 .7050781 .6499939 .7050781 .6459961 .7050781 .6380005 .69306948L.58799746 .61901858C.5509949 .6550598 .5 .7050781 .4039917 .7050781 .21699524 .7050781 .055999757 .5459595 .055999757 .34179688 .055999757 .1346283 .21798706-.022460938 .4039917-.022460938 .5669861-.022460938 .6649933 .116622928 .6649933 .23271179Z"/>
<path id="font_1_34" d="M.651001 .18289185C.651001 .26983644 .56900027 .34480287 .45799256 .35679627 .5549927 .3757782 .6239929 .43974305 .6239929 .51368716 .6239929 .6006317 .5319977 .6826172 .4019928 .6826172H.035995485V.6516113H.05999756C.13699341 .6516113 .13899231 .64060977 .13899231 .6046295V.07795715C.13899231 .041992189 .13699341 .0309906 .05999756 .0309906H.035995485V0H.42799378C.5609894-.0002593994 .651001 .08874512 .651001 .18273926V.18289185M.5269928 .5136719C.5269928 .44970704 .47799684 .36573792 .36698915 .36573792H.22200012V.6116333C.22200012 .64460757 .22399903 .6516113 .2709961 .6516113H.394989C.49198915 .65174868 .5269928 .56674197 .5269928 .51374819V.5136719M.5509949 .18386841C.5509949 .1129303 .49899293 .0309906 .3959961 .0309906H.2709961C.22399903 .0309906 .22200012 .037994386 .22200012 .07095337V.34375H.4099884C.5089874 .34399415 .5509949 .25099183 .5509949 .18399048V.18386841Z"/>
<path id="font_1_27" d="M.71699526 0V.0309906H.69898989C.6389923 .0309906 .625 .037979127 .6139984 .07095337L.397995 .6958008C.3929901 .7088165 .3909912 .7158203 .375 .7158203 .35899354 .7158203 .35598756 .70980837 .35099793 .6958008L.14399719 .09791565C.12599182 .04698181 .085998538 .03199768 .03199768 .0309906V0L.13398743 .0029907227 .24899292 0V.0309906C.19898987 .0309906 .17399597 .05596924 .17399597 .0819397 .17399597 .08493042 .1749878 .09492493 .17599488 .09692383L.22200012 .2277832H.46899415L.5219879 .07495117C.522995 .07095337 .5249939 .064956668 .5249939 .060958864 .5249939 .0309906 .46899415 .0309906 .44198609 .0309906V0C.47799684 .0029907227 .5479889 .0029907227 .58599856 .0029907227L.71699526 0M.45799256 .25878907H.23298645L.34498597 .58380129 .45799256 .25878907Z"/>
<path id="font_1_58" d="M.7350006 .24145508V.27246095L.61299136 .26945497C.57299807 .26945497 .48799134 .26945497 .45199586 .27246095V.24145508H.48399354C.57398989 .24145508 .57699587 .23045349 .57699587 .19346619V.12948609C.57699587 .017532349 .44999696 .008529663 .42199708 .008529663 .35699464 .008529663 .15899658 .043518068 .15899658 .34155274 .15899658 .6410217 .35598756 .67407229 .41600038 .67407229 .522995 .67407229 .6139984 .5839386 .6339874 .43670655 .6359863 .42268373 .6359863 .41967774 .6499939 .41967774 .66600039 .41967774 .66600039 .42268373 .66600039 .44371034V.68107607C.66600039 .69807437 .66600039 .7050781 .6549988 .7050781 .651001 .7050781 .6469879 .7050781 .6389923 .69306948L.58898928 .61898806C.5569916 .6510315 .5029907 .7050781 .4039917 .7050781 .21798706 .7050781 .055999757 .546875 .055999757 .34155274 .055999757 .13648987 .21598816-.022460938 .4059906-.022460938 .47898866-.022460938 .5589905 .0035247803 .59298709 .06251526 .60598757 .040527345 .6459961 .0005340576 .6569977 .0005340576 .66600039 .0005340576 .66600039 .008529663 .66600039 .023529053V.19746399C.66600039 .2364502 .66999819 .24145508 .7350006 .24145508Z"/>
<path id="font_1_54" d="M.6100006 .45477296 .58200076 .6796875H.032989503V.64868167H.056991579C.13398743 .64868167 .13598633 .63768008 .13598633 .6016998V.07797241C.13598633 .041992189 .13398743 .0309906 .056991579 .0309906H.032989503V0C.067993167 .0029907227 .1459961 .0029907227 .18499756 .0029907227 .22599793 .0029907227 .31698609 .0029907227 .35299684 0V.0309906H.31999208C.22499085 .031188965 .22499085 .044189454 .22499085 .079193118V.3251953H.31098939C.40699769 .3251953 .4169922 .29318238 .4169922 .20819092H.44198609V.4731903H.4169922C.4169922 .38919068 .40699769 .3561859 .31098939 .3561859H.22499085V.6091919C.22499085 .64167788 .22698975 .64868167 .27398683 .64868167H.3939972C.5439911 .64868167 .56900027 .5926819 .58499148 .4546814L.6100006 .45477296Z"/>
</defs>
<path transform="matrix(1.00006,0,0,-1.00002,30.643692,313.81394)" stroke-width=".3985" stroke-linecap="butt" stroke-miterlimit="10" stroke-linejoin="miter" fill="none" stroke="#000000" d="M71.10095 294.80665C71.10095 302.7637 64.65067 309.21397 56.69362 309.21397 48.73656 309.21397 42.28627 302.7637 42.28627 294.80665 42.28627 286.8496 48.73656 280.3993 56.69362 280.3993 64.65067 280.3993 71.10095 286.8496 71.10095 294.80665ZM56.69362 294.80665"/>
<use data-text="D" xlink:href="#font_1_46" transform="matrix(9.963197,0,0,-9.962799,73.776279,21.492066)"/>
<use data-text="&#x266f;" xlink:href="#font_2_2" transform="matrix(9.963197,0,0,-9.962799,81.38774,21.492066)"/>
<use data-text="/" xlink:href="#font_1_102" transform="matrix(9.963197,0,0,-9.962799,85.26198,21.492066)"/>
<use data-text="E" xlink:href="#font_1_49" transform="matrix(9.963197,0,0,-9.962799,90.24356,21.492066)"/>
<use data-text="&#x266d;" xlink:href="#font_2_1" transform="matrix(9.963197,0,0,-9.962799,97.02869,21.492066)"/>
<path transform="matrix(1.00006,0,0,-1.00002,30.643692,313.81394)" stroke-width=".3985" stroke-linecap="butt" stroke-miterlimit="10" stroke-linejoin="miter" fill="none" stroke="#000000" d="M42.9711 279.21623C42.9711 287.2931 36.42368 293.8405 28.3468 293.8405 20.26993 293.8405 13.7225 287.2931 13.7225 279.21623 13.7225 271.13938 20.26993 264.59193 28.3468 264.59193 36.42368 264.59193 42.9711 271.13938 42.9711 279.21623ZM28.3468 279.21623"/>
<use data-text="C" xlink:href="#font_1_42" transform="matrix(9.963197,0,0,-9.962799,45.223566,37.082368)"/>
<use data-text="&#x266f;" xlink:href="#font_2_2" transform="matrix(9.963197,0,0,-9.962799,52.417,37.082368)"/>
<use data-text="/" xlink:href="#font_1_102" transform="matrix(9.963197,0,0,-9.962799,56.29123,37.082368)"/>
<use data-text="D" xlink:href="#font_1_46" transform="matrix(9.963197,0,0,-9.962799,61.272836,37.082368)"/>
<use data-text="&#x266d;" xlink:href="#font_2_1" transform="matrix(9.963197,0,0,-9.962799,68.884998,37.082368)"/>
<path transform="matrix(1.00006,0,0,-1.00002,30.643692,313.81394)" stroke-width=".3985" stroke-linecap="butt" stroke-miterlimit="10" stroke-linejoin="miter" fill="none" stroke="#000000" d="M127.56062 295.657C127.56062 303.48487 121.21507 309.8304 113.38724 309.8304 105.55939 309.8304 99.21384 303.48487 99.21384 295.657 99.21384 287.82917 105.55939 281.4836 113.38724 281.4836 121.21507 281.4836 127.56062 287.82917 127.56062 295.657ZM113.38724 295.657"/>
<use data-text="E" xlink:href="#font_1_49" transform="matrix(9.963197,0,0,-9.962799,140.6453,21.538086)"/>
<path transform="matrix(1.00006,0,0,-1.00002,30.643692,313.81394)" stroke-width=".3985" stroke-linecap="butt" stroke-miterlimit="10" stroke-linejoin="miter" fill="none" stroke="#000000" d="M99.21382 279.21623C99.21382 287.04408 92.86827 293.38963 85.04042 293.38963 77.21257 293.38963 70.86702 287.04408 70.86702 279.21623 70.86702 271.38838 77.21257 265.04283 85.04042 265.04283 92.86827 265.04283 99.21382 271.38838 99.21382 279.21623ZM85.04042 279.21623"/>
<use data-text="D" xlink:href="#font_1_46" transform="matrix(9.963197,0,0,-9.962799,111.88356,37.994417)"/>
<path transform="matrix(1.00006,0,0,-1.00002,30.643692,313.81394)" stroke-width=".3985" stroke-linecap="butt" stroke-miterlimit="10" stroke-linejoin="miter" fill="none" stroke="#000000" d="M70.867 262.20799C70.867 270.03584 64.52145 276.38136 56.69362 276.38136 48.86577 276.38136 42.52022 270.03584 42.52022 262.20799 42.52022 254.38013 48.86577 248.03458 56.69362 248.03458 64.52145 248.03458 70.867 254.38013 70.867 262.20799ZM56.69362 262.20799"/>
<use data-text="C" xlink:href="#font_1_42" transform="matrix(9.963197,0,0,-9.962799,83.74388,55.002748)"/>
<path transform="matrix(1.00006,0,0,-1.00002,30.643692,313.81394)" stroke-width=".3985" stroke-linecap="butt" stroke-miterlimit="10" stroke-linejoin="miter" fill="none" stroke="#000000" d="M42.82298 245.1997C42.82298 253.19478 36.34187 259.6759 28.3468 259.6759 20.35173 259.6759 13.87062 253.19478 13.87062 245.1997 13.87062 237.20464 20.35173 230.72354 28.3468 230.72354 36.34187 230.72354 42.82298 237.20464 42.82298 245.1997ZM28.3468 245.1997"/>
<use data-text="B" xlink:href="#font_1_34" transform="matrix(9.963197,0,0,-9.962799,45.36357,71.10007)"/>
<use data-text="&#x266d;" xlink:href="#font_2_1" transform="matrix(9.963197,0,0,-9.962799,52.417,71.10007)"/>
<use data-text="/" xlink:href="#font_1_102" transform="matrix(9.963197,0,0,-9.962799,56.29223,71.10007)"/>
<use data-text="A" xlink:href="#font_1_27" transform="matrix(9.963197,0,0,-9.962799,61.273828,71.10007)"/>
<use data-text="&#x266f;" xlink:href="#font_2_2" transform="matrix(9.963197,0,0,-9.962799,68.74598,71.10007)"/>
<path transform="matrix(1.00006,0,0,-1.00002,30.643692,313.81394)" stroke-width=".3985" stroke-linecap="butt" stroke-miterlimit="10" stroke-linejoin="miter" fill="none" stroke="#000000" d="M156.14139 277.51506C156.14139 285.4721 149.69109 291.9224 141.73404 291.9224 133.777 291.9224 127.3267 285.4721 127.3267 277.51506 127.3267 269.558 133.777 263.1077 141.73404 263.1077 149.69109 263.1077 156.14139 269.558 156.14139 277.51506ZM141.73404 277.51506"/>
<use data-text="D" xlink:href="#font_1_46" transform="matrix(9.963197,0,0,-9.962799,158.82239,38.784456)"/>
<use data-text="&#x266f;" xlink:href="#font_2_2" transform="matrix(9.963197,0,0,-9.962799,166.43384,38.784456)"/>
<use data-text="/" xlink:href="#font_1_102" transform="matrix(9.963197,0,0,-9.962799,170.30808,38.784456)"/>
<use data-text="E" xlink:href="#font_1_49" transform="matrix(9.963197,0,0,-9.962799,175.28968,38.784456)"/>
<use data-text="&#x266d;" xlink:href="#font_2_1" transform="matrix(9.963197,0,0,-9.962799,182.0748,38.784456)"/>
<path transform="matrix(1.00006,0,0,-1.00002,30.643692,313.81394)" stroke-width=".3985" stroke-linecap="butt" stroke-miterlimit="10" stroke-linejoin="miter" fill="none" stroke="#000000" d="M128.01154 262.77507C128.01154 270.8519 121.46411 277.39936 113.38724 277.39936 105.31036 277.39936 98.76292 270.8519 98.76292 262.77507 98.76292 254.69817 105.31036 248.15073 113.38724 248.15073 121.46411 248.15073 128.01154 254.69817 128.01154 262.77507ZM113.38724 262.77507"/>
<use data-text="C" xlink:href="#font_1_42" transform="matrix(9.963197,0,0,-9.962799,130.26967,53.52472)"/>
<use data-text="&#x266f;" xlink:href="#font_2_2" transform="matrix(9.963197,0,0,-9.962799,137.4631,53.52472)"/>
<use data-text="/" xlink:href="#font_1_102" transform="matrix(9.963197,0,0,-9.962799,141.33734,53.52472)"/>
<use data-text="D" xlink:href="#font_1_46" transform="matrix(9.963197,0,0,-9.962799,146.31894,53.52472)"/>
<use data-text="&#x266d;" xlink:href="#font_2_1" transform="matrix(9.963197,0,0,-9.962799,153.93109,53.52472)"/>
<path transform="matrix(1.00006,0,0,-1.00002,30.643692,313.81394)" stroke-width=".3985" stroke-linecap="butt" stroke-miterlimit="10" stroke-linejoin="miter" fill="none" stroke="#000000" d="M99.21382 245.76677C99.21382 253.59462 92.86827 259.94017 85.04042 259.94017 77.21257 259.94017 70.86702 253.59462 70.86702 245.76677 70.86702 237.93892 77.21257 231.59339 85.04042 231.59339 92.86827 231.59339 99.21382 237.93892 99.21382 245.76677ZM85.04042 245.76677"/>
<use data-text="B" xlink:href="#font_1_34" transform="matrix(9.963197,0,0,-9.962799,112.16258,71.44508)"/>
<path transform="matrix(1.00006,0,0,-1.00002,30.643692,313.81394)" stroke-width=".3985" stroke-linecap="butt" stroke-miterlimit="10" stroke-linejoin="miter" fill="none" stroke="#000000" d="M70.867 229.60932C70.867 237.43717 64.52145 243.78272 56.69362 243.78272 48.86577 243.78272 42.52022 237.43717 42.52022 229.60932 42.52022 221.78148 48.86577 215.43593 56.69362 215.43593 64.52145 215.43593 70.867 221.78148 70.867 229.60932ZM56.69362 229.60932"/>
<use data-text="A" xlink:href="#font_1_27" transform="matrix(9.963197,0,0,-9.962799,83.604869,87.7664)"/>
<path transform="matrix(1.00006,0,0,-1.00002,30.643692,313.81394)" stroke-width=".3985" stroke-linecap="butt" stroke-miterlimit="10" stroke-linejoin="miter" fill="none" stroke="#000000" d="M42.5202 212.31774C42.5202 220.14559 36.17465 226.49114 28.3468 226.49114 20.51895 226.49114 14.1734 220.14559 14.1734 212.31774 14.1734 204.4899 20.51895 198.14435 28.3468 198.14435 36.17465 198.14435 42.5202 204.4899 42.5202 212.31774ZM28.3468 212.31774"/>
<use data-text="G" xlink:href="#font_1_58" transform="matrix(9.963197,0,0,-9.962799,55.081159,104.89476)"/>
<path transform="matrix(1.00006,0,0,-1.00002,30.643692,313.81394)" stroke-width=".3985" stroke-linecap="butt" stroke-miterlimit="10" stroke-linejoin="miter" fill="none" stroke="#000000" d="M155.90744 243.78272C155.90744 251.61057 149.56189 257.95613 141.73404 257.95613 133.90619 257.95613 127.56064 251.61057 127.56064 243.78272 127.56064 235.95487 133.90619 229.60932 141.73404 229.60932 149.56189 229.60932 155.90744 235.95487 155.90744 243.78272ZM141.73404 243.78272"/>
<use data-text="C" xlink:href="#font_1_42" transform="matrix(9.963197,0,0,-9.962799,168.78897,73.42912)"/>
<path transform="matrix(1.00006,0,0,-1.00002,30.643692,313.81394)" stroke-width=".3985" stroke-linecap="butt" stroke-miterlimit="10" stroke-linejoin="miter" fill="none" stroke="#000000" d="M127.8634 229.04225C127.8634 237.03733 121.38231 243.51844 113.38724 243.51844 105.39217 243.51844 98.91106 237.03733 98.91106 229.04225 98.91106 221.04718 105.39217 214.56609 113.38724 214.56609 121.38231 214.56609 127.8634 221.04718 127.8634 229.04225ZM113.38724 229.04225"/>
<use data-text="B" xlink:href="#font_1_34" transform="matrix(9.963197,0,0,-9.962799,130.40868,87.2574)"/>
<use data-text="&#x266d;" xlink:href="#font_2_1" transform="matrix(9.963197,0,0,-9.962799,137.4621,87.2574)"/>
<use data-text="/" xlink:href="#font_1_102" transform="matrix(9.963197,0,0,-9.962799,141.33734,87.2574)"/>
<use data-text="A" xlink:href="#font_1_27" transform="matrix(9.963197,0,0,-9.962799,146.31894,87.2574)"/>
<use data-text="&#x266f;" xlink:href="#font_2_2" transform="matrix(9.963197,0,0,-9.962799,153.79108,87.2574)"/>
<path transform="matrix(1.00006,0,0,-1.00002,30.643692,313.81394)" stroke-width=".3985" stroke-linecap="butt" stroke-miterlimit="10" stroke-linejoin="miter" fill="none" stroke="#000000" d="M99.41055 211.46738C99.41055 219.40387 92.97691 225.8375 85.04042 225.8375 77.10393 225.8375 70.6703 219.40387 70.6703 211.46738 70.6703 203.53087 77.10393 197.09725 85.04042 197.09725 92.97691 197.09725 99.41055 203.53087 99.41055 211.46738ZM85.04042 211.46738"/>
<use data-text="G" xlink:href="#font_1_58" transform="matrix(9.963197,0,0,-9.962799,102.15998,104.83275)"/>
<use data-text="&#x266f;" xlink:href="#font_2_2" transform="matrix(9.963197,0,0,-9.962799,109.98045,104.83275)"/>
<use data-text="/" xlink:href="#font_1_102" transform="matrix(9.963197,0,0,-9.962799,113.85568,104.83275)"/>
<use data-text="F" xlink:href="#font_1_54" transform="matrix(9.963197,0,0,-9.962799,118.83728,104.83275)"/>
<use data-text="&#x266d;" xlink:href="#font_2_1" transform="matrix(9.963197,0,0,-9.962799,125.34338,104.83275)"/>
<path transform="matrix(1.00006,0,0,-1.00002,30.643692,313.81394)" stroke-width=".3985" stroke-linecap="butt" stroke-miterlimit="10" stroke-linejoin="miter" fill="none" stroke="#000000" d="M71.06374 195.5928C71.06374 203.5293 64.63011 209.96292 56.69362 209.96292 48.75711 209.96292 42.32349 203.5293 42.32349 195.5928 42.32349 187.6563 48.75711 181.22267 56.69362 181.22267 64.63011 181.22267 71.06374 187.6563 71.06374 195.5928ZM56.69362 195.5928"/>
<use data-text="F" xlink:href="#font_1_54" transform="matrix(9.963197,0,0,-9.962799,73.81128,120.70807)"/>
<use data-text="&#x266f;" xlink:href="#font_2_2" transform="matrix(9.963197,0,0,-9.962799,80.31667,120.70807)"/>
<use data-text="/" xlink:href="#font_1_102" transform="matrix(9.963197,0,0,-9.962799,84.1919,120.70807)"/>
<use data-text="G" xlink:href="#font_1_58" transform="matrix(9.963197,0,0,-9.962799,89.1735,120.70807)"/>
<use data-text="&#x266d;" xlink:href="#font_2_1" transform="matrix(9.963197,0,0,-9.962799,96.99467,120.70807)"/>
<path transform="matrix(1.00006,0,0,-1.00002,30.643692,313.81394)" stroke-width=".3985" stroke-linecap="butt" stroke-miterlimit="10" stroke-linejoin="miter" fill="none" stroke="#000000" d="M42.5202 180.00241C42.5202 187.83026 36.17465 194.17581 28.3468 194.17581 20.51895 194.17581 14.1734 187.83026 14.1734 180.00241 14.1734 172.17456 20.51895 165.82901 28.3468 165.82901 36.17465 165.82901 42.5202 172.17456 42.5202 180.00241ZM28.3468 180.00241"/>
<use data-text="E" xlink:href="#font_1_49" transform="matrix(9.963197,0,0,-9.962799,55.59919,137.19539)"/>
<path transform="matrix(1.00006,0,0,-1.00002,30.643692,313.81394)" stroke-width=".3985" stroke-linecap="butt" stroke-miterlimit="10" stroke-linejoin="miter" fill="none" stroke="#000000" d="M155.90744 212.31774C155.90744 220.14559 149.56189 226.49114 141.73404 226.49114 133.90619 226.49114 127.56064 220.14559 127.56064 212.31774 127.56064 204.4899 133.90619 198.14435 141.73404 198.14435 149.56189 198.14435 155.90744 204.4899 155.90744 212.31774ZM141.73404 212.31774"/>
<use data-text="A" xlink:href="#font_1_27" transform="matrix(9.963197,0,0,-9.962799,168.64997,105.05875)"/>
<path transform="matrix(1.00006,0,0,-1.00002,30.643692,313.81394)" stroke-width=".3985" stroke-linecap="butt" stroke-miterlimit="10" stroke-linejoin="miter" fill="none" stroke="#000000" d="M127.56062 197.01023C127.56062 204.83808 121.21507 211.18363 113.38724 211.18363 105.55939 211.18363 99.21384 204.83808 99.21384 197.01023 99.21384 189.18238 105.55939 182.83684 113.38724 182.83684 121.21507 182.83684 127.56062 189.18238 127.56062 197.01023ZM113.38724 197.01023"/>
<use data-text="G" xlink:href="#font_1_58" transform="matrix(9.963197,0,0,-9.962799,140.12726,120.20206)"/>
<path transform="matrix(1.00006,0,0,-1.00002,30.643692,313.81394)" stroke-width=".3985" stroke-linecap="butt" stroke-miterlimit="10" stroke-linejoin="miter" fill="none" stroke="#000000" d="M99.21382 180.00241C99.21382 187.83026 92.86827 194.17581 85.04042 194.17581 77.21257 194.17581 70.86702 187.83026 70.86702 180.00241 70.86702 172.17456 77.21257 165.82901 85.04042 165.82901 92.86827 165.82901 99.21382 172.17456 99.21382 180.00241ZM85.04042 180.00241"/>
<use data-text="F" xlink:href="#font_1_54" transform="matrix(9.963197,0,0,-9.962799,112.4366,137.19539)"/>
<path transform="matrix(1.00006,0,0,-1.00002,30.643692,313.81394)" stroke-width=".3985" stroke-linecap="butt" stroke-miterlimit="10" stroke-linejoin="miter" fill="none" stroke="#000000" d="M71.10095 163.56119C71.10095 171.51825 64.65067 177.96854 56.69362 177.96854 48.73656 177.96854 42.28627 171.51825 42.28627 163.56119 42.28627 155.60414 48.73656 149.15386 56.69362 149.15386 64.65067 149.15386 71.10095 155.60414 71.10095 163.56119ZM56.69362 163.56119"/>
<use data-text="E" xlink:href="#font_1_49" transform="matrix(9.963197,0,0,-9.962799,73.776279,152.7407)"/>
<use data-text="&#x266d;" xlink:href="#font_2_1" transform="matrix(9.963197,0,0,-9.962799,80.560688,152.7407)"/>
<use data-text="/" xlink:href="#font_1_102" transform="matrix(9.963197,0,0,-9.962799,84.43591,152.7407)"/>
<use data-text="D" xlink:href="#font_1_46" transform="matrix(9.963197,0,0,-9.962799,89.41751,152.7407)"/>
<use data-text="&#x266f;" xlink:href="#font_2_2" transform="matrix(9.963197,0,0,-9.962799,97.02867,152.7407)"/>
<path transform="matrix(1.00006,0,0,-1.00002,30.643692,313.81394)" stroke-width=".3985" stroke-linecap="butt" stroke-miterlimit="10" stroke-linejoin="miter" fill="none" stroke="#000000" d="M42.9711 146.83626C42.9711 154.91312 36.42368 161.46056 28.3468 161.46056 20.26993 161.46056 13.7225 154.91312 13.7225 146.83626 13.7225 138.75939 20.26993 132.21195 28.3468 132.21195 36.42368 132.21195 42.9711 138.75939 42.9711 146.83626ZM28.3468 146.83626"/>
<use data-text="C" xlink:href="#font_1_42" transform="matrix(9.963197,0,0,-9.962799,45.223566,169.46506)"/>
<use data-text="&#x266f;" xlink:href="#font_2_2" transform="matrix(9.963197,0,0,-9.962799,52.417,169.46506)"/>
<use data-text="/" xlink:href="#font_1_102" transform="matrix(9.963197,0,0,-9.962799,56.29123,169.46506)"/>
<use data-text="D" xlink:href="#font_1_46" transform="matrix(9.963197,0,0,-9.962799,61.272836,169.46506)"/>
<use data-text="&#x266d;" xlink:href="#font_2_1" transform="matrix(9.963197,0,0,-9.962799,68.884998,169.46506)"/>
<path transform="matrix(1.00006,0,0,-1.00002,30.643692,313.81394)" stroke-width=".3985" stroke-linecap="butt" stroke-miterlimit="10" stroke-linejoin="miter" fill="none" stroke="#000000" d="M156.10417 178.58498C156.10417 186.52147 149.67053 192.95511 141.73404 192.95511 133.79755 192.95511 127.36392 186.52147 127.36392 178.58498 127.36392 170.64849 133.79755 164.21485 141.73404 164.21485 149.67053 164.21485 156.10417 170.64849 156.10417 178.58498ZM141.73404 178.58498"/>
<use data-text="F" xlink:href="#font_1_54" transform="matrix(9.963197,0,0,-9.962799,158.85738,137.71642)"/>
<use data-text="&#x266f;" xlink:href="#font_2_2" transform="matrix(9.963197,0,0,-9.962799,165.36277,137.71642)"/>
<use data-text="/" xlink:href="#font_1_102" transform="matrix(9.963197,0,0,-9.962799,169.238,137.71642)"/>
<use data-text="G" xlink:href="#font_1_58" transform="matrix(9.963197,0,0,-9.962799,174.2196,137.71642)"/>
<use data-text="&#x266d;" xlink:href="#font_2_1" transform="matrix(9.963197,0,0,-9.962799,182.04077,137.71642)"/>
<path transform="matrix(1.00006,0,0,-1.00002,30.643692,313.81394)" stroke-width=".3985" stroke-linecap="butt" stroke-miterlimit="10" stroke-linejoin="miter" fill="none" stroke="#000000" d="M127.56062 162.99414C127.56062 170.82199 121.21507 177.16754 113.38724 177.16754 105.55939 177.16754 99.21384 170.82199 99.21384 162.99414 99.21384 155.16629 105.55939 148.82076 113.38724 148.82076 121.21507 148.82076 127.56062 155.16629 127.56062 162.99414ZM113.38724 162.99414"/>
<use data-text="E" xlink:href="#font_1_49" transform="matrix(9.963197,0,0,-9.962799,140.6453,154.20375)"/>
<path transform="matrix(1.00006,0,0,-1.00002,30.643692,313.81394)" stroke-width=".3985" stroke-linecap="butt" stroke-miterlimit="10" stroke-linejoin="miter" fill="none" stroke="#000000" d="M99.21382 146.83626C99.21382 154.6641 92.86827 161.00965 85.04042 161.00965 77.21257 161.00965 70.86702 154.6641 70.86702 146.83626 70.86702 139.0084 77.21257 132.66286 85.04042 132.66286 92.86827 132.66286 99.21382 139.0084 99.21382 146.83626ZM85.04042 146.83626"/>
<use data-text="D" xlink:href="#font_1_46" transform="matrix(9.963197,0,0,-9.962799,111.88356,170.37706)"/>
<path transform="matrix(1.00006,0,0,-1.00002,30.643692,313.81394)" stroke-width=".3985" stroke-linecap="butt" stroke-miterlimit="10" stroke-linejoin="miter" fill="none" stroke="#000000" d="M70.867 128.97806C70.867 136.80591 64.52145 143.15146 56.69362 143.15146 48.86577 143.15146 42.52022 136.80591 42.52022 128.97806 42.52022 121.1502 48.86577 114.80466 56.69362 114.80466 64.52145 114.80466 70.867 121.1502 70.867 128.97806ZM56.69362 128.97806"/>
<use data-text="C" xlink:href="#font_1_42" transform="matrix(9.963197,0,0,-9.962799,83.74388,188.23542)"/>
<path transform="matrix(1.00006,0,0,-1.00002,30.643692,313.81394)" stroke-width=".3985" stroke-linecap="butt" stroke-miterlimit="10" stroke-linejoin="miter" fill="none" stroke="#000000" d="M42.82298 112.53685C42.82298 120.53192 36.34187 127.01303 28.3468 127.01303 20.35173 127.01303 13.87062 120.53192 13.87062 112.53685 13.87062 104.54178 20.35173 98.06067 28.3468 98.06067 36.34187 98.06067 42.82298 104.54178 42.82298 112.53685ZM28.3468 112.53685"/>
<use data-text="B" xlink:href="#font_1_34" transform="matrix(9.963197,0,0,-9.962799,45.36357,203.76573)"/>
<use data-text="&#x266d;" xlink:href="#font_2_1" transform="matrix(9.963197,0,0,-9.962799,52.417,203.76573)"/>
<use data-text="/" xlink:href="#font_1_102" transform="matrix(9.963197,0,0,-9.962799,56.29223,203.76573)"/>
<use data-text="A" xlink:href="#font_1_27" transform="matrix(9.963197,0,0,-9.962799,61.273828,203.76573)"/>
<use data-text="&#x266f;" xlink:href="#font_2_2" transform="matrix(9.963197,0,0,-9.962799,68.74598,203.76573)"/>
<path transform="matrix(1.00006,0,0,-1.00002,30.643692,313.81394)" stroke-width=".3985" stroke-linecap="butt" stroke-miterlimit="10" stroke-linejoin="miter" fill="none" stroke="#000000" d="M156.14139 144.5689C156.14139 152.52594 149.69109 158.97623 141.73404 158.97623 133.777 158.97623 127.3267 152.52594 127.3267 144.5689 127.3267 136.61185 133.777 130.16155 141.73404 130.16155 149.69109 130.16155 156.14139 136.61185 156.14139 144.5689ZM141.73404 144.5689"/>
<use data-text="E" xlink:href="#font_1_49" transform="matrix(9.963197,0,0,-9.962799,158.82239,171.7331)"/>
<use data-text="&#x266d;" xlink:href="#font_2_1" transform="matrix(9.963197,0,0,-9.962799,165.6068,171.7331)"/>
<use data-text="/" xlink:href="#font_1_102" transform="matrix(9.963197,0,0,-9.962799,169.48203,171.7331)"/>
<use data-text="D" xlink:href="#font_1_46" transform="matrix(9.963197,0,0,-9.962799,174.46363,171.7331)"/>
<use data-text="&#x266f;" xlink:href="#font_2_2" transform="matrix(9.963197,0,0,-9.962799,182.07477,171.7331)"/>
<path transform="matrix(1.00006,0,0,-1.00002,30.643692,313.81394)" stroke-width=".3985" stroke-linecap="butt" stroke-miterlimit="10" stroke-linejoin="miter" fill="none" stroke="#000000" d="M128.01154 128.97806C128.01154 137.05493 121.46411 143.60237 113.38724 143.60237 105.31036 143.60237 98.76292 137.05493 98.76292 128.97806 98.76292 120.90118 105.31036 114.35376 113.38724 114.35376 121.46411 114.35376 128.01154 120.90118 128.01154 128.97806ZM113.38724 128.97806"/>
<use data-text="C" xlink:href="#font_1_42" transform="matrix(9.963197,0,0,-9.962799,130.26967,187.3244)"/>
<use data-text="&#x266f;" xlink:href="#font_2_2" transform="matrix(9.963197,0,0,-9.962799,137.4631,187.3244)"/>
<use data-text="/" xlink:href="#font_1_102" transform="matrix(9.963197,0,0,-9.962799,141.33734,187.3244)"/>
<use data-text="D" xlink:href="#font_1_46" transform="matrix(9.963197,0,0,-9.962799,146.31894,187.3244)"/>
<use data-text="&#x266d;" xlink:href="#font_2_1" transform="matrix(9.963197,0,0,-9.962799,153.93109,187.3244)"/>
<path transform="matrix(1.00006,0,0,-1.00002,30.643692,313.81394)" stroke-width=".3985" stroke-linecap="butt" stroke-miterlimit="10" stroke-linejoin="miter" fill="none" stroke="#000000" d="M99.21382 113.38724C99.21382 121.21507 92.86827 127.56062 85.04042 127.56062 77.21257 127.56062 70.86702 121.21507 70.86702 113.38724 70.86702 105.55939 77.21257 99.21384 85.04042 99.21384 92.86827 99.21384 99.21382 105.55939 99.21382 113.38724ZM85.04042 113.38724"/>
<use data-text="B" xlink:href="#font_1_34" transform="matrix(9.963197,0,0,-9.962799,112.16258,203.82672)"/>
<path transform="matrix(1.00006,0,0,-1.00002,30.643692,313.81394)" stroke-width=".3985" stroke-linecap="butt" stroke-miterlimit="10" stroke-linejoin="miter" fill="none" stroke="#000000" d="M70.867 96.37897C70.867 104.20682 64.52145 110.55237 56.69362 110.55237 48.86577 110.55237 42.52022 104.20682 42.52022 96.37897 42.52022 88.55112 48.86577 82.20557 56.69362 82.20557 64.52145 82.20557 70.867 88.55112 70.867 96.37897ZM56.69362 96.37897"/>
<use data-text="A" xlink:href="#font_1_27" transform="matrix(9.963197,0,0,-9.962799,83.604869,221.00008)"/>
<path transform="matrix(1.00006,0,0,-1.00002,30.643692,313.81394)" stroke-width=".3985" stroke-linecap="butt" stroke-miterlimit="10" stroke-linejoin="miter" fill="none" stroke="#000000" d="M42.5202 80.78856C42.5202 88.61641 36.17465 94.96196 28.3468 94.96196 20.51895 94.96196 14.1734 88.61641 14.1734 80.78856 14.1734 72.96072 20.51895 66.61517 28.3468 66.61517 36.17465 66.61517 42.5202 72.96072 42.5202 80.78856ZM28.3468 80.78856"/>
<use data-text="G" xlink:href="#font_1_58" transform="matrix(9.963197,0,0,-9.962799,55.081159,236.42639)"/>
<path transform="matrix(1.00006,0,0,-1.00002,30.643692,313.81394)" stroke-width=".3985" stroke-linecap="butt" stroke-miterlimit="10" stroke-linejoin="miter" fill="none" stroke="#000000" d="M155.90744 111.9698C155.90744 119.79765 149.56189 126.1432 141.73404 126.1432 133.90619 126.1432 127.56064 119.79765 127.56064 111.9698 127.56064 104.14195 133.90619 97.7964 141.73404 97.7964 149.56189 97.7964 155.90744 104.14195 155.90744 111.9698ZM141.73404 111.9698"/>
<use data-text="C" xlink:href="#font_1_42" transform="matrix(9.963197,0,0,-9.962799,168.78897,205.24475)"/>
<path transform="matrix(1.00006,0,0,-1.00002,30.643692,313.81394)" stroke-width=".3985" stroke-linecap="butt" stroke-miterlimit="10" stroke-linejoin="miter" fill="none" stroke="#000000" d="M127.8634 94.96198C127.8634 102.95705 121.38231 109.43816 113.38724 109.43816 105.39217 109.43816 98.91106 102.95705 98.91106 94.96198 98.91106 86.9669 105.39217 80.48581 113.38724 80.48581 121.38231 80.48581 127.8634 86.9669 127.8634 94.96198ZM113.38724 94.96198"/>
<use data-text="B" xlink:href="#font_1_34" transform="matrix(9.963197,0,0,-9.962799,130.40868,221.34108)"/>
<use data-text="&#x266d;" xlink:href="#font_2_1" transform="matrix(9.963197,0,0,-9.962799,137.4621,221.34108)"/>
<use data-text="/" xlink:href="#font_1_102" transform="matrix(9.963197,0,0,-9.962799,141.33734,221.34108)"/>
<use data-text="A" xlink:href="#font_1_27" transform="matrix(9.963197,0,0,-9.962799,146.31894,221.34108)"/>
<use data-text="&#x266f;" xlink:href="#font_2_2" transform="matrix(9.963197,0,0,-9.962799,153.79108,221.34108)"/>
<path transform="matrix(1.00006,0,0,-1.00002,30.643692,313.81394)" stroke-width=".3985" stroke-linecap="butt" stroke-miterlimit="10" stroke-linejoin="miter" fill="none" stroke="#000000" d="M99.41055 80.2215C99.41055 88.158 92.97691 94.59163 85.04042 94.59163 77.10393 94.59163 70.6703 88.158 70.6703 80.2215 70.6703 72.285 77.10393 65.85138 85.04042 65.85138 92.97691 65.85138 99.41055 72.285 99.41055 80.2215ZM85.04042 80.2215"/>
<use data-text="G" xlink:href="#font_1_58" transform="matrix(9.963197,0,0,-9.962799,102.15998,236.08138)"/>
<use data-text="&#x266f;" xlink:href="#font_2_2" transform="matrix(9.963197,0,0,-9.962799,109.98045,236.08138)"/>
<use data-text="/" xlink:href="#font_1_102" transform="matrix(9.963197,0,0,-9.962799,113.85568,236.08138)"/>
<use data-text="F" xlink:href="#font_1_54" transform="matrix(9.963197,0,0,-9.962799,118.83728,236.08138)"/>
<use data-text="&#x266d;" xlink:href="#font_2_1" transform="matrix(9.963197,0,0,-9.962799,125.34338,236.08138)"/>
<path transform="matrix(1.00006,0,0,-1.00002,30.643692,313.81394)" stroke-width=".3985" stroke-linecap="butt" stroke-miterlimit="10" stroke-linejoin="miter" fill="none" stroke="#000000" d="M71.06374 63.7803C71.06374 71.7168 64.63011 78.15044 56.69362 78.15044 48.75711 78.15044 42.32349 71.7168 42.32349 63.7803 42.32349 55.84381 48.75711 49.41017 56.69362 49.41017 64.63011 49.41017 71.06374 55.84381 71.06374 63.7803ZM56.69362 63.7803"/>
<use data-text="F" xlink:href="#font_1_54" transform="matrix(9.963197,0,0,-9.962799,73.81128,252.5227)"/>
<use data-text="&#x266f;" xlink:href="#font_2_2" transform="matrix(9.963197,0,0,-9.962799,80.31667,252.5227)"/>
<use data-text="/" xlink:href="#font_1_102" transform="matrix(9.963197,0,0,-9.962799,84.1919,252.5227)"/>
<use data-text="G" xlink:href="#font_1_58" transform="matrix(9.963197,0,0,-9.962799,89.1735,252.5227)"/>
<use data-text="&#x266d;" xlink:href="#font_2_1" transform="matrix(9.963197,0,0,-9.962799,96.99467,252.5227)"/>
<path transform="matrix(1.00006,0,0,-1.00002,30.643692,313.81394)" stroke-width=".3985" stroke-linecap="butt" stroke-miterlimit="10" stroke-linejoin="miter" fill="none" stroke="#000000" d="M42.5202 48.18947C42.5202 56.01732 36.17465 62.36287 28.3468 62.36287 20.51895 62.36287 14.1734 56.01732 14.1734 48.18947 14.1734 40.36162 20.51895 34.01608 28.3468 34.01608 36.17465 34.01608 42.5202 40.36162 42.5202 48.18947ZM28.3468 48.18947"/>
<use data-text="E" xlink:href="#font_1_49" transform="matrix(9.963197,0,0,-9.962799,55.59919,269.01106)"/>
<path transform="matrix(1.00006,0,0,-1.00002,30.643692,313.81394)" stroke-width=".3985" stroke-linecap="butt" stroke-miterlimit="10" stroke-linejoin="miter" fill="none" stroke="#000000" d="M155.90744 79.37114C155.90744 87.19897 149.56189 93.54453 141.73404 93.54453 133.90619 93.54453 127.56064 87.19897 127.56064 79.37114 127.56064 71.54329 133.90619 65.19774 141.73404 65.19774 149.56189 65.19774 155.90744 71.54329 155.90744 79.37114ZM141.73404 79.37114"/>
<use data-text="A" xlink:href="#font_1_27" transform="matrix(9.963197,0,0,-9.962799,168.64997,238.00843)"/>
<path transform="matrix(1.00006,0,0,-1.00002,30.643692,313.81394)" stroke-width=".3985" stroke-linecap="butt" stroke-miterlimit="10" stroke-linejoin="miter" fill="none" stroke="#000000" d="M127.56062 62.36288C127.56062 70.19073 121.21507 76.53629 113.38724 76.53629 105.55939 76.53629 99.21384 70.19073 99.21384 62.36288 99.21384 54.53503 105.55939 48.18948 113.38724 48.18948 121.21507 48.18948 127.56062 54.53503 127.56062 62.36288ZM113.38724 62.36288"/>
<use data-text="G" xlink:href="#font_1_58" transform="matrix(9.963197,0,0,-9.962799,140.12726,254.85175)"/>
<path transform="matrix(1.00006,0,0,-1.00002,30.643692,313.81394)" stroke-width=".3985" stroke-linecap="butt" stroke-miterlimit="10" stroke-linejoin="miter" fill="none" stroke="#000000" d="M99.21382 46.77203C99.21382 54.59988 92.86827 60.94543 85.04042 60.94543 77.21257 60.94543 70.86702 54.59988 70.86702 46.77203 70.86702 38.9442 77.21257 32.59865 85.04042 32.59865 92.86827 32.59865 99.21382 38.9442 99.21382 46.77203ZM85.04042 46.77203"/>
<use data-text="F" xlink:href="#font_1_54" transform="matrix(9.963197,0,0,-9.962799,112.4366,270.42808)"/>
<path transform="matrix(1.00006,0,0,-1.00002,30.643692,313.81394)" stroke-width=".3985" stroke-linecap="butt" stroke-miterlimit="10" stroke-linejoin="miter" fill="none" stroke="#000000" d="M71.10095 29.76422C71.10095 37.72127 64.65067 44.17155 56.69362 44.17155 48.73656 44.17155 42.28627 37.72127 42.28627 29.76422 42.28627 21.80717 48.73656 15.35687 56.69362 15.35687 64.65067 15.35687 71.10095 21.80717 71.10095 29.76422ZM56.69362 29.76422"/>
<use data-text="E" xlink:href="#font_1_49" transform="matrix(9.963197,0,0,-9.962799,73.776279,286.5394)"/>
<use data-text="&#x266d;" xlink:href="#font_2_1" transform="matrix(9.963197,0,0,-9.962799,80.560688,286.5394)"/>
<use data-text="/" xlink:href="#font_1_102" transform="matrix(9.963197,0,0,-9.962799,84.43591,286.5394)"/>
<use data-text="D" xlink:href="#font_1_46" transform="matrix(9.963197,0,0,-9.962799,89.41751,286.5394)"/>
<use data-text="&#x266f;" xlink:href="#font_2_2" transform="matrix(9.963197,0,0,-9.962799,97.02867,286.5394)"/>
<path transform="matrix(1.00006,0,0,-1.00002,30.643692,313.81394)" stroke-width=".3985" stroke-linecap="butt" stroke-miterlimit="10" stroke-linejoin="miter" fill="none" stroke="#000000" d="M99.21382 12.47266C99.21382 20.3005 92.86827 26.64606 85.04042 26.64606 77.21257 26.64606 70.86702 20.3005 70.86702 12.47266 70.86702 4.6448 77.21257-1.70073 85.04042-1.70073 92.86827-1.70073 99.21382 4.6448 99.21382 12.47266ZM85.04042 12.47266"/>
<use data-text="D" xlink:href="#font_1_46" transform="matrix(9.963197,0,0,-9.962799,111.88356,304.74375)"/>
<path transform="matrix(1.00006,0,0,-1.00002,30.643692,313.81394)" stroke-width=".3985" stroke-linecap="butt" stroke-miterlimit="10" stroke-linejoin="miter" fill="none" stroke="#000000" d="M127.56062 29.76422C127.56062 37.59207 121.21507 43.93762 113.38724 43.93762 105.55939 43.93762 99.21384 37.59207 99.21384 29.76422 99.21384 21.93637 105.55939 15.59082 113.38724 15.59082 121.21507 15.59082 127.56062 21.93637 127.56062 29.76422ZM113.38724 29.76422"/>
<use data-text="E" xlink:href="#font_1_49" transform="matrix(9.963197,0,0,-9.962799,140.6453,287.4364)"/>
<path transform="matrix(1.00006,0,0,-1.00002,30.643692,313.81394)" stroke-width=".3985" stroke-linecap="butt" stroke-miterlimit="10" stroke-linejoin="miter" fill="none" stroke="#000000" d="M156.10417 45.35506C156.10417 53.29155 149.67053 59.72517 141.73404 59.72517 133.79755 59.72517 127.36392 53.29155 127.36392 45.35506 127.36392 37.41855 133.79755 30.98492 141.73404 30.98492 149.67053 30.98492 156.10417 37.41855 156.10417 45.35506ZM141.73404 45.35506"/>
<use data-text="F" xlink:href="#font_1_54" transform="matrix(9.963197,0,0,-9.962799,158.85738,270.94908)"/>
<use data-text="&#x266f;" xlink:href="#font_2_2" transform="matrix(9.963197,0,0,-9.962799,165.36277,270.94908)"/>
<use data-text="/" xlink:href="#font_1_102" transform="matrix(9.963197,0,0,-9.962799,169.238,270.94908)"/>
<use data-text="G" xlink:href="#font_1_58" transform="matrix(9.963197,0,0,-9.962799,174.2196,270.94908)"/>
<use data-text="&#x266d;" xlink:href="#font_2_1" transform="matrix(9.963197,0,0,-9.962799,182.04077,270.94908)"/>
<path transform="matrix(1.00006,0,0,-1.00002,30.643692,313.81394)" stroke-width=".79701" stroke-linecap="butt" stroke-miterlimit="10" stroke-linejoin="miter" fill="none" stroke="#000000" d="M0 0V311.8149"/>
<path transform="matrix(1.00006,0,0,-1.00002,30.643692,313.81394)" stroke-width=".79701" stroke-linecap="butt" stroke-miterlimit="10" stroke-linejoin="miter" fill="none" stroke="#000000" d="M-14.17339 0V311.8149"/>
<path transform="matrix(1.00006,0,0,-1.00002,30.643692,313.81394)" stroke-width=".79701" stroke-linecap="butt" stroke-miterlimit="10" stroke-linejoin="miter" fill="none" stroke="#000000" d="M-28.3468 0V311.8149"/>
</svg>
