<svg xmlns="http://www.w3.org/2000/svg" xmlns:xlink="http://www.w3.org/1999/xlink" xmlns:inkscape="http://www.inkscape.org/namespaces/inkscape" version="1.1" width="222" height="511" viewBox="0 0 222 511">
<defs>
<clipPath id="clip_1">
<path transform="matrix(1.00005,0,0,-1.00009,16.468873,553.4531)" d="M0 0V637.8032H368.28013V0ZM368.28013 637.8032"/>
</clipPath>
<path id="font_2_42" d="M.6649933 .23271179C.6649933 .24272156 .6649933 .24972534 .6519928 .24972534 .6409912 .24972534 .6409912 .24372864 .6399994 .23371887 .6319885 .09059143 .5249939 .008529663 .41600038 .008529663 .35499574 .008529663 .15899658 .042556764 .15899658 .34080506 .15899658 .64004519 .35398866 .67407229 .4149933 .67407229 .5239868 .67407229 .61299136 .58299258 .6329956 .4368744 .6349945 .42286683 .6349945 .41986085 .6489868 .41986085 .6649933 .41986085 .6649933 .42286683 .6649933 .44387818V.68107607C.6649933 .69807437 .6649933 .7050781 .6539917 .7050781 .6499939 .7050781 .6459961 .7050781 .6380005 .69306948L.58799746 .61901858C.5509949 .6550598 .5 .7050781 .4039917 .7050781 .21699524 .7050781 .055999757 .5459595 .055999757 .34179688 .055999757 .1346283 .21798706-.022460938 .4039917-.022460938 .5669861-.022460938 .6649933 .116622928 .6649933 .23271179Z"/>
<path id="font_3_2" d="M.2649994-.01890564V-.135849C.2649994-.15484619 .2649994-.1628418 .27598573-.1628418 .2899933-.1628418 .2899933-.15383911 .2899933-.13485718V-.009902954C.2939911-.008895874 .31799317-.0019073486 .31999208-.00090026858 .33198548 .0030975342 .33299256 .0040893557 .33299256 .028076172V.05307007C.33299256 .07106018 .33299256 .080062869 .32199098 .080062869 .31698609 .080062869 .29499818 .07305908 .2899933 .07106018V.42092896C.2939911 .42192079 .31799317 .42892457 .31999208 .42991639 .33198548 .43391419 .33299256 .43492127 .33299256 .45890809V.48390199C.33299256 .5018921 .33299256 .5108948 .32199098 .5108948 .31698609 .5108948 .29499818 .503891 .2899933 .5018921V.68881228C.2899933 .7068176 .2899933 .7158203 .2789917 .7158203 .2649994 .7158203 .2649994 .7068176 .2649994 .68782046V.49389649L.12298584 .44992066V.63583377C.12298584 .65483096 .12298584 .66282656 .11199951 .66282656 .09799194 .66282656 .09799194 .6538391 .09799194 .6348419V.44091798C.09399414 .4399109 .069992069 .43292237 .067993167 .43191529 .055999757 .42791749 .054992677 .42692567 .054992677 .40293885V.37794496C.054992677 .35995484 .054992677 .35095216 .06599426 .35095216 .070999149 .35095216 .09298706 .35795594 .09799194 .35995484V.01008606C.09399414 .009094238 .069992069 .002090454 .067993167 .0010986328 .055999757-.00289917 .054992677-.00390625 .054992677-.027893067V-.052886964C.054992677-.070877078 .054992677-.07987976 .06599426-.07987976 .070999149-.07987976 .09298706-.07287598 .09799194-.070877078V-.18882752C.09799194-.20683289 .09799194-.21582031 .10899353-.21582031 .12298584-.21582031 .12298584-.20683289 .12298584-.1878357V-.06288147L.2649994-.01890564M.2649994 .41192628V.063064578L.12298584 .019088746V.36795045L.2649994 .41192628Z"/>
<path id="font_2_45" d="M.20298767 .0009918213C.20298767 .06498718 .1789856 .10598755 .13899231 .10598755 .10398865 .10598755 .085998538 .07899475 .085998538 .052993776 .085998538 .026992798 .102996829 0 .13899231 0 .1539917 0 .16799927 .005996704 .1789856 .015991211 .18099976-.06312561 .15299988-.12423706 .10899353-.17132569 .102996829-.17733765 .101989749-.17834473 .101989749-.18234253 .101989749-.18936157 .10699463-.19335938 .11199951-.19335938 .12399292-.19335938 .20298767-.114227298 .20298767 .0009918213Z"/>
<path id="font_2_46" d="M.70700076 .33580018C.70700076 .52568057 .57199099 .6826172 .40098573 .6826172H.034988405V.6516113H.05899048C.13598633 .6516113 .13798523 .64060977 .13798523 .6046295V.07795715C.13798523 .041992189 .13598633 .0309906 .05899048 .0309906H.034988405V0H.40098573C.56900027 0 .70700076 .1479187 .70700076 .33580018M.6069946 .33580018C.6069946 .22486878 .58799746 .16490174 .5519867 .11593628 .5319977 .08895874 .47499085 .0309906 .37399293 .0309906H.272995C.22599793 .0309906 .22399903 .037994386 .22399903 .07096863V.6116333C.22399903 .64460757 .22599793 .6516113 .272995 .6516113H.37298585C.43499757 .6516113 .5039978 .6296234 .5549927 .55867007 .59799197 .49969483 .6069946 .41375733 .6069946 .33580018Z"/>
<path id="font_3_1" d="M.07998657 .7220001C.07998657 .7409973 .07998657 .75 .067993167 .75 .054992677 .75 .054992677 .74198916 .054992677 .7220001V.0055389406C.054992677-.014465332 .054992677-.022460938 .067993167-.022460938 .07798767-.022460938 .18199158 .049560548 .23699951 .10862732 .2919922 .16769409 .33299256 .23776245 .33299256 .32084657 .33299256 .39492799 .27799989 .45996095 .19599915 .45996095 .13999939 .45996095 .099990848 .43695069 .07998657 .41793824V.7220001M.07998657 .342865C.07998657 .3658905 .07998657 .3869171 .11299133 .40592958 .14399719 .4239502 .18699646 .4239502 .18798828 .4239502 .23399353 .4239502 .2519989 .3698883 .2519989 .32084657 .2519989 .16268921 .10398865 .03555298 .07998657 .015533447V.342865Z"/>
<path id="font_2_49" d="M.6519928 .2579193H.6269989C.60198977 .10397339 .57899478 .0309906 .40699769 .0309906H.27398683C.22698975 .0309906 .22499085 .037994386 .22499085 .07098389V.33789063H.31498719C.4119873 .33789063 .4229889 .30589295 .4229889 .220932H.44799806V.48606874H.4229889C.4229889 .39994813 .4119873 .36888124 .31498719 .36888124H.22499085V.6087799C.22499085 .6416931 .22698975 .64868167 .27398683 .64868167H.40299989C.55599978 .64868167 .58299258 .59381106 .598999 .45507813H.6239929L.59599307 .6796875H.032989503V.64868167H.056991579C.13398743 .64868167 .13598633 .6377106 .13598633 .6017914V.07797241C.13598633 .041992189 .13398743 .0309906 .056991579 .0309906H.032989503V0H.6100006L.6519928 .2579193Z"/>
<path id="font_4_1" d="M.5189972 .13284302H.7429962C.7569885 .13284302 .776001 .13284302 .776001 .15284729 .776001 .17285156 .7569885 .17285156 .74198916 .17285156H.5309906L.57099917 .32714845H.74198916C.7569885 .32714845 .776001 .32714845 .776001 .34713746 .776001 .36714173 .7569885 .36714173 .7429962 .36714173H.58299258L.6609955 .65631106C.6619873 .6583252 .6649933 .67033389 .6649933 .67433169 .6649933 .68533328 .6559906 .69433596 .644989 .69433596 .6289978 .69433596 .6259918 .68133547 .6230011 .67033389L.5419922 .36714173H.35398866L.43199159 .65631106C.43299867 .6583252 .43598939 .67033389 .43598939 .67433169 .43598939 .68533328 .4269867 .69433596 .41600038 .69433596 .3999939 .69433596 .39698792 .68133547 .3939972 .67033389L.31298829 .36714173H.08898926C.07499695 .36714173 .055999757 .36714173 .055999757 .34713746 .055999757 .32714845 .07499695 .32714845 .08999634 .32714845H.30099488L.26098634 .17285156H.08999634C.07499695 .17285156 .055999757 .17285156 .055999757 .15284729 .055999757 .13284302 .07499695 .13284302 .08898926 .13284302H.24899292L.17098999-.1563263C.16999817-.15834046 .16699219-.17034912 .16699219-.17434693 .16699219-.18534851 .17599488-.19433594 .18699646-.19433594 .20298767-.19433594 .20599365-.18135071 .20899964-.17034912L.2899933 .13284302H.47799684L.3999939-.1563263C.39898683-.15834046 .3959961-.17034912 .3959961-.17434693 .3959961-.18534851 .40499879-.19433594 .41600038-.19433594 .43199159-.19433594 .43499757-.18135071 .43798829-.17034912L.5189972 .13284302M.3019867 .17285156 .34199525 .32714845H.5299988L.48999024 .17285156H.3019867Z"/>
<path id="font_2_54" d="M.6100006 .45477296 .58200076 .6796875H.032989503V.64868167H.056991579C.13398743 .64868167 .13598633 .63768008 .13598633 .6016998V.07797241C.13598633 .041992189 .13398743 .0309906 .056991579 .0309906H.032989503V0C.067993167 .0029907227 .1459961 .0029907227 .18499756 .0029907227 .22599793 .0029907227 .31698609 .0029907227 .35299684 0V.0309906H.31999208C.22499085 .031188965 .22499085 .044189454 .22499085 .079193118V.3251953H.31098939C.40699769 .3251953 .4169922 .29318238 .4169922 .20819092H.44198609V.4731903H.4169922C.4169922 .38919068 .40699769 .3561859 .31098939 .3561859H.22499085V.6091919C.22499085 .64167788 .22698975 .64868167 .27398683 .64868167H.3939972C.5439911 .64868167 .56900027 .5926819 .58499148 .4546814L.6100006 .45477296Z"/>
<path id="font_2_58" d="M.7350006 .24145508V.27246095L.61299136 .26945497C.57299807 .26945497 .48799134 .26945497 .45199586 .27246095V.24145508H.48399354C.57398989 .24145508 .57699587 .23045349 .57699587 .19346619V.12948609C.57699587 .017532349 .44999696 .008529663 .42199708 .008529663 .35699464 .008529663 .15899658 .043518068 .15899658 .34155274 .15899658 .6410217 .35598756 .67407229 .41600038 .67407229 .522995 .67407229 .6139984 .5839386 .6339874 .43670655 .6359863 .42268373 .6359863 .41967774 .6499939 .41967774 .66600039 .41967774 .66600039 .42268373 .66600039 .44371034V.68107607C.66600039 .69807437 .66600039 .7050781 .6549988 .7050781 .651001 .7050781 .6469879 .7050781 .6389923 .69306948L.58898928 .61898806C.5569916 .6510315 .5029907 .7050781 .4039917 .7050781 .21798706 .7050781 .055999757 .546875 .055999757 .34155274 .055999757 .13648987 .21598816-.022460938 .4059906-.022460938 .47898866-.022460938 .5589905 .0035247803 .59298709 .06251526 .60598757 .040527345 .6459961 .0005340576 .6569977 .0005340576 .66600039 .0005340576 .66600039 .008529663 .66600039 .023529053V.19746399C.66600039 .2364502 .66999819 .24145508 .7350006 .24145508Z"/>
<path id="font_2_27" d="M.71699526 0V.0309906H.69898989C.6389923 .0309906 .625 .037979127 .6139984 .07095337L.397995 .6958008C.3929901 .7088165 .3909912 .7158203 .375 .7158203 .35899354 .7158203 .35598756 .70980837 .35099793 .6958008L.14399719 .09791565C.12599182 .04698181 .085998538 .03199768 .03199768 .0309906V0L.13398743 .0029907227 .24899292 0V.0309906C.19898987 .0309906 .17399597 .05596924 .17399597 .0819397 .17399597 .08493042 .1749878 .09492493 .17599488 .09692383L.22200012 .2277832H.46899415L.5219879 .07495117C.522995 .07095337 .5249939 .064956668 .5249939 .060958864 .5249939 .0309906 .46899415 .0309906 .44198609 .0309906V0C.47799684 .0029907227 .5479889 .0029907227 .58599856 .0029907227L.71699526 0M.45799256 .25878907H.23298645L.34498597 .58380129 .45799256 .25878907Z"/>
<path id="font_2_34" d="M.651001 .18289185C.651001 .26983644 .56900027 .34480287 .45799256 .35679627 .5549927 .3757782 .6239929 .43974305 .6239929 .51368716 .6239929 .6006317 .5319977 .6826172 .4019928 .6826172H.035995485V.6516113H.05999756C.13699341 .6516113 .13899231 .64060977 .13899231 .6046295V.07795715C.13899231 .041992189 .13699341 .0309906 .05999756 .0309906H.035995485V0H.42799378C.5609894-.0002593994 .651001 .08874512 .651001 .18273926V.18289185M.5269928 .5136719C.5269928 .44970704 .47799684 .36573792 .36698915 .36573792H.22200012V.6116333C.22200012 .64460757 .22399903 .6516113 .2709961 .6516113H.394989C.49198915 .65174868 .5269928 .56674197 .5269928 .51374819V.5136719M.5509949 .18386841C.5509949 .1129303 .49899293 .0309906 .3959961 .0309906H.2709961C.22399903 .0309906 .22200012 .037994386 .22200012 .07095337V.34375H.4099884C.5089874 .34399415 .5509949 .25099183 .5509949 .18399048V.18386841Z"/>
</defs>
<g clip-path="url(#clip_1)">
</g>
<path transform="matrix(1.00005,0,0,-1.00009,16.468873,553.4531)" d="M204.06558 63.7803C204.06558 74.78502 195.14476 83.70584 184.14005 83.70584 173.13535 83.70584 164.21451 74.78502 164.21451 63.7803 164.21451 52.77559 173.13535 43.85477 184.14005 43.85477 195.14476 43.85477 204.06558 52.77559 204.06558 63.7803ZM184.14005 63.7803" fill="#f2f2f2"/>
<path transform="matrix(1.00005,0,0,-1.00009,16.468873,553.4531)" stroke-width=".3985" stroke-linecap="butt" stroke-miterlimit="10" stroke-linejoin="miter" fill="none" stroke="#7f807f" d="M204.06558 63.7803C204.06558 74.78502 195.14476 83.70584 184.14005 83.70584 173.13535 83.70584 164.21451 74.78502 164.21451 63.7803 164.21451 52.77559 173.13535 43.85477 184.14005 43.85477 195.14476 43.85477 204.06558 52.77559 204.06558 63.7803ZM184.14005 63.7803"/>
<use data-text="C" xlink:href="#font_2_42" transform="matrix(9.963098,0,0,-9.963496,197.02089,493.0697)"/>
<path transform="matrix(1.00005,0,0,-1.00009,16.468873,553.4531)" d="M167.23758 85.04042C167.23758 96.04514 158.31676 104.96596 147.31204 104.96596 136.30733 104.96596 127.3865 96.04514 127.3865 85.04042 127.3865 74.0357 136.30733 65.11488 147.31204 65.11488 158.31676 65.11488 167.23758 74.0357 167.23758 85.04042ZM147.31204 85.04042" fill="#f2f2f2"/>
<path transform="matrix(1.00005,0,0,-1.00009,16.468873,553.4531)" stroke-width=".3985" stroke-linecap="butt" stroke-miterlimit="10" stroke-linejoin="miter" fill="none" stroke="#7f807f" d="M167.23758 85.04042C167.23758 96.04514 158.31676 104.96596 147.31204 104.96596 136.30733 104.96596 127.3865 96.04514 127.3865 85.04042 127.3865 74.0357 136.30733 65.11488 147.31204 65.11488 158.31676 65.11488 167.23758 74.0357 167.23758 85.04042ZM147.31204 85.04042"/>
<use data-text="C" xlink:href="#font_2_42" transform="matrix(9.963098,0,0,-9.963496,149.46752,471.17274)"/>
<use data-text="&#x266f;" xlink:href="#font_3_2" transform="matrix(9.963098,0,0,-9.963496,156.66088,471.17274)"/>
<use data-text="," xlink:href="#font_2_45" transform="matrix(9.963098,0,0,-9.963496,160.53607,471.17274)"/>
<use data-text="D" xlink:href="#font_2_46" transform="matrix(9.963098,0,0,-9.963496,166.61356,471.17274)"/>
<use data-text="&#x266d;" xlink:href="#font_3_1" transform="matrix(9.963098,0,0,-9.963496,174.23474,471.17274)"/>
<path transform="matrix(1.00005,0,0,-1.00009,16.468873,553.4531)" d="M130.40958 106.30052C130.40958 117.30524 121.48874 126.22606 110.48404 126.22606 99.47932 126.22606 90.5585 117.30524 90.5585 106.30052 90.5585 95.2958 99.47932 86.37498 110.48404 86.37498 121.48874 86.37498 130.40958 95.2958 130.40958 106.30052ZM110.48404 106.30052" fill="#f2f2f2"/>
<path transform="matrix(1.00005,0,0,-1.00009,16.468873,553.4531)" stroke-width=".3985" stroke-linecap="butt" stroke-miterlimit="10" stroke-linejoin="miter" fill="none" stroke="#7f807f" d="M130.40958 106.30052C130.40958 117.30524 121.48874 126.22606 110.48404 126.22606 99.47932 126.22606 90.5585 117.30524 90.5585 106.30052 90.5585 95.2958 99.47932 86.37498 110.48404 86.37498 121.48874 86.37498 130.40958 95.2958 130.40958 106.30052ZM110.48404 106.30052"/>
<use data-text="D" xlink:href="#font_2_46" transform="matrix(9.963098,0,0,-9.963496,123.1522,450.54588)"/>
<path transform="matrix(1.00005,0,0,-1.00009,16.468873,553.4531)" d="M93.58154 127.56062C93.58154 138.56534 84.66072 147.48616 73.656 147.48616 62.65129 147.48616 53.73047 138.56534 53.73047 127.56062 53.73047 116.55592 62.65129 107.63509 73.656 107.63509 84.66072 107.63509 93.58154 116.55592 93.58154 127.56062ZM73.656 127.56062" fill="#f2f2f2"/>
<path transform="matrix(1.00005,0,0,-1.00009,16.468873,553.4531)" stroke-width=".3985" stroke-linecap="butt" stroke-miterlimit="10" stroke-linejoin="miter" fill="none" stroke="#7f807f" d="M93.58154 127.56062C93.58154 138.56534 84.66072 147.48616 73.656 147.48616 62.65129 147.48616 53.73047 138.56534 53.73047 127.56062 53.73047 116.55592 62.65129 107.63509 73.656 107.63509 84.66072 107.63509 93.58154 116.55592 93.58154 127.56062ZM73.656 127.56062"/>
<use data-text="E" xlink:href="#font_2_49" transform="matrix(9.963098,0,0,-9.963496,73.79774,428.6489)"/>
<use data-text="&#x266d;" xlink:href="#font_3_1" transform="matrix(9.963098,0,0,-9.963496,80.583087,428.6489)"/>
<use data-text="," xlink:href="#font_2_45" transform="matrix(9.963098,0,0,-9.963496,84.457279,428.6489)"/>
<use data-text="D" xlink:href="#font_2_46" transform="matrix(9.963098,0,0,-9.963496,90.54472,428.6489)"/>
<use data-text="#" xlink:href="#font_4_1" transform="matrix(9.963098,0,0,-9.963496,98.15696,428.6489)"/>
<path transform="matrix(1.00005,0,0,-1.00009,16.468873,553.4531)" d="M56.75354 148.82074C56.75354 159.82544 47.83272 168.74628 36.828 168.74628 25.82329 168.74628 16.90247 159.82544 16.90247 148.82074 16.90247 137.81603 25.82329 128.8952 36.828 128.8952 47.83272 128.8952 56.75354 137.81603 56.75354 148.82074ZM36.828 148.82074" fill="#f2f2f2"/>
<path transform="matrix(1.00005,0,0,-1.00009,16.468873,553.4531)" stroke-width=".3985" stroke-linecap="butt" stroke-miterlimit="10" stroke-linejoin="miter" fill="none" stroke="#7f807f" d="M56.75354 148.82074C56.75354 159.82544 47.83272 168.74628 36.828 168.74628 25.82329 168.74628 16.90247 159.82544 16.90247 148.82074 16.90247 137.81603 25.82329 128.8952 36.828 128.8952 47.83272 128.8952 56.75354 137.81603 56.75354 148.82074ZM36.828 148.82074"/>
<use data-text="E" xlink:href="#font_2_49" transform="matrix(9.963098,0,0,-9.963496,49.906545,408.00703)"/>
<path transform="matrix(1.00005,0,0,-1.00009,16.468873,553.4531)" d="M204.06558 106.30052C204.06558 117.30524 195.14476 126.22606 184.14005 126.22606 173.13535 126.22606 164.21451 117.30524 164.21451 106.30052 164.21451 95.2958 173.13535 86.37498 184.14005 86.37498 195.14476 86.37498 204.06558 95.2958 204.06558 106.30052ZM184.14005 106.30052" fill="#f2f2f2"/>
<path transform="matrix(1.00005,0,0,-1.00009,16.468873,553.4531)" stroke-width=".3985" stroke-linecap="butt" stroke-miterlimit="10" stroke-linejoin="miter" fill="none" stroke="#7f807f" d="M204.06558 106.30052C204.06558 117.30524 195.14476 126.22606 184.14005 126.22606 173.13535 126.22606 164.21451 117.30524 164.21451 106.30052 164.21451 95.2958 173.13535 86.37498 184.14005 86.37498 195.14476 86.37498 204.06558 95.2958 204.06558 106.30052ZM184.14005 106.30052"/>
<use data-text="E" xlink:href="#font_2_49" transform="matrix(9.963098,0,0,-9.963496,185.94634,449.91084)"/>
<use data-text="&#x266d;" xlink:href="#font_3_1" transform="matrix(9.963098,0,0,-9.963496,192.73169,449.91084)"/>
<use data-text="," xlink:href="#font_2_45" transform="matrix(9.963098,0,0,-9.963496,196.60587,449.91084)"/>
<use data-text="D" xlink:href="#font_2_46" transform="matrix(9.963098,0,0,-9.963496,199.37561,449.91084)"/>
<use data-text="#" xlink:href="#font_4_1" transform="matrix(9.963098,0,0,-9.963496,206.9874,449.91084)"/>
<path transform="matrix(1.00005,0,0,-1.00009,16.468873,553.4531)" d="M167.23758 127.56062C167.23758 138.56534 158.31676 147.48616 147.31204 147.48616 136.30733 147.48616 127.3865 138.56534 127.3865 127.56062 127.3865 116.55592 136.30733 107.63509 147.31204 107.63509 158.31676 107.63509 167.23758 116.55592 167.23758 127.56062ZM147.31204 127.56062" fill="#f2f2f2"/>
<path transform="matrix(1.00005,0,0,-1.00009,16.468873,553.4531)" stroke-width=".3985" stroke-linecap="butt" stroke-miterlimit="10" stroke-linejoin="miter" fill="none" stroke="#7f807f" d="M167.23758 127.56062C167.23758 138.56534 158.31676 147.48616 147.31204 147.48616 136.30733 147.48616 127.3865 138.56534 127.3865 127.56062 127.3865 116.55592 136.30733 107.63509 147.31204 107.63509 158.31676 107.63509 167.23758 116.55592 167.23758 127.56062ZM147.31204 127.56062"/>
<use data-text="E" xlink:href="#font_2_49" transform="matrix(9.963098,0,0,-9.963496,160.39606,429.26896)"/>
<path transform="matrix(1.00005,0,0,-1.00009,16.468873,553.4531)" d="M130.40958 148.82074C130.40958 159.82544 121.48874 168.74628 110.48404 168.74628 99.47932 168.74628 90.5585 159.82544 90.5585 148.82074 90.5585 137.81603 99.47932 128.8952 110.48404 128.8952 121.48874 128.8952 130.40958 137.81603 130.40958 148.82074ZM110.48404 148.82074" fill="#f2f2f2"/>
<path transform="matrix(1.00005,0,0,-1.00009,16.468873,553.4531)" stroke-width=".3985" stroke-linecap="butt" stroke-miterlimit="10" stroke-linejoin="miter" fill="none" stroke="#7f807f" d="M130.40958 148.82074C130.40958 159.82544 121.48874 168.74628 110.48404 168.74628 99.47932 168.74628 90.5585 159.82544 90.5585 148.82074 90.5585 137.81603 99.47932 128.8952 110.48404 128.8952 121.48874 128.8952 130.40958 137.81603 130.40958 148.82074ZM110.48404 148.82074"/>
<use data-text="F" xlink:href="#font_2_54" transform="matrix(9.963098,0,0,-9.963496,123.70523,408.00703)"/>
<path transform="matrix(1.00005,0,0,-1.00009,16.468873,553.4531)" d="M93.58154 170.08086C93.58154 181.08556 84.66072 190.0064 73.656 190.0064 62.65129 190.0064 53.73047 181.08556 53.73047 170.08086 53.73047 159.07614 62.65129 150.15532 73.656 150.15532 84.66072 150.15532 93.58154 159.07614 93.58154 170.08086ZM73.656 170.08086" fill="#f2f2f2"/>
<path transform="matrix(1.00005,0,0,-1.00009,16.468873,553.4531)" stroke-width=".3985" stroke-linecap="butt" stroke-miterlimit="10" stroke-linejoin="miter" fill="none" stroke="#7f807f" d="M93.58154 170.08086C93.58154 181.08556 84.66072 190.0064 73.656 190.0064 62.65129 190.0064 53.73047 181.08556 53.73047 170.08086 53.73047 159.07614 62.65129 150.15532 73.656 150.15532 84.66072 150.15532 93.58154 159.07614 93.58154 170.08086ZM73.656 170.08086"/>
<use data-text="G" xlink:href="#font_2_58" transform="matrix(9.963098,0,0,-9.963496,73.83273,386.12507)"/>
<use data-text="&#x266d;" xlink:href="#font_3_1" transform="matrix(9.963098,0,0,-9.963496,81.65413,386.12507)"/>
<use data-text="," xlink:href="#font_2_45" transform="matrix(9.963098,0,0,-9.963496,85.52832,386.12507)"/>
<use data-text="F" xlink:href="#font_2_54" transform="matrix(9.963098,0,0,-9.963496,91.61577,386.12507)"/>
<use data-text="#" xlink:href="#font_4_1" transform="matrix(9.963098,0,0,-9.963496,98.12195,386.12507)"/>
<path transform="matrix(1.00005,0,0,-1.00009,16.468873,553.4531)" d="M56.75354 191.34096C56.75354 202.34568 47.83272 211.2665 36.828 211.2665 25.82329 211.2665 16.90247 202.34568 16.90247 191.34096 16.90247 180.33625 25.82329 171.41542 36.828 171.41542 47.83272 171.41542 56.75354 180.33625 56.75354 191.34096ZM36.828 191.34096" fill="#f2f2f2"/>
<path transform="matrix(1.00005,0,0,-1.00009,16.468873,553.4531)" stroke-width=".3985" stroke-linecap="butt" stroke-miterlimit="10" stroke-linejoin="miter" fill="none" stroke="#7f807f" d="M56.75354 191.34096C56.75354 202.34568 47.83272 211.2665 36.828 211.2665 25.82329 211.2665 16.90247 202.34568 16.90247 191.34096 16.90247 180.33625 25.82329 171.41542 36.828 171.41542 47.83272 171.41542 56.75354 180.33625 56.75354 191.34096ZM36.828 191.34096"/>
<use data-text="G" xlink:href="#font_2_58" transform="matrix(9.963098,0,0,-9.963496,49.388517,365.4972)"/>
<path transform="matrix(1.00005,0,0,-1.00009,16.468873,553.4531)" d="M204.06558 148.82074C204.06558 159.82544 195.14476 168.74628 184.14005 168.74628 173.13535 168.74628 164.21451 159.82544 164.21451 148.82074 164.21451 137.81603 173.13535 128.8952 184.14005 128.8952 195.14476 128.8952 204.06558 137.81603 204.06558 148.82074ZM184.14005 148.82074" fill="#f2f2f2"/>
<path transform="matrix(1.00005,0,0,-1.00009,16.468873,553.4531)" stroke-width=".3985" stroke-linecap="butt" stroke-miterlimit="10" stroke-linejoin="miter" fill="none" stroke="#7f807f" d="M204.06558 148.82074C204.06558 159.82544 195.14476 168.74628 184.14005 168.74628 173.13535 168.74628 164.21451 159.82544 164.21451 148.82074 164.21451 137.81603 173.13535 128.8952 184.14005 128.8952 195.14476 128.8952 204.06558 137.81603 204.06558 148.82074ZM184.14005 148.82074"/>
<use data-text="G" xlink:href="#font_2_58" transform="matrix(9.963098,0,0,-9.963496,184.32225,407.387)"/>
<use data-text="&#x266d;" xlink:href="#font_3_1" transform="matrix(9.963098,0,0,-9.963496,192.14365,407.387)"/>
<use data-text="," xlink:href="#font_2_45" transform="matrix(9.963098,0,0,-9.963496,196.01784,407.387)"/>
<use data-text="F" xlink:href="#font_2_54" transform="matrix(9.963098,0,0,-9.963496,202.10529,407.387)"/>
<use data-text="#" xlink:href="#font_4_1" transform="matrix(9.963098,0,0,-9.963496,208.61147,407.387)"/>
<path transform="matrix(1.00005,0,0,-1.00009,16.468873,553.4531)" d="M167.23758 170.08086C167.23758 181.08556 158.31676 190.0064 147.31204 190.0064 136.30733 190.0064 127.3865 181.08556 127.3865 170.08086 127.3865 159.07614 136.30733 150.15532 147.31204 150.15532 158.31676 150.15532 167.23758 159.07614 167.23758 170.08086ZM147.31204 170.08086" fill="#f2f2f2"/>
<path transform="matrix(1.00005,0,0,-1.00009,16.468873,553.4531)" stroke-width=".3985" stroke-linecap="butt" stroke-miterlimit="10" stroke-linejoin="miter" fill="none" stroke="#7f807f" d="M167.23758 170.08086C167.23758 181.08556 158.31676 190.0064 147.31204 190.0064 136.30733 190.0064 127.3865 181.08556 127.3865 170.08086 127.3865 159.07614 136.30733 150.15532 147.31204 150.15532 158.31676 150.15532 167.23758 159.07614 167.23758 170.08086ZM147.31204 170.08086"/>
<use data-text="G" xlink:href="#font_2_58" transform="matrix(9.963098,0,0,-9.963496,159.87802,386.75914)"/>
<path transform="matrix(1.00005,0,0,-1.00009,16.468873,553.4531)" d="M130.40958 191.34096C130.40958 202.34568 121.48874 211.2665 110.48404 211.2665 99.47932 211.2665 90.5585 202.34568 90.5585 191.34096 90.5585 180.33625 99.47932 171.41542 110.48404 171.41542 121.48874 171.41542 130.40958 180.33625 130.40958 191.34096ZM110.48404 191.34096" fill="#f2f2f2"/>
<path transform="matrix(1.00005,0,0,-1.00009,16.468873,553.4531)" stroke-width=".3985" stroke-linecap="butt" stroke-miterlimit="10" stroke-linejoin="miter" fill="none" stroke="#7f807f" d="M130.40958 191.34096C130.40958 202.34568 121.48874 211.2665 110.48404 211.2665 99.47932 211.2665 90.5585 202.34568 90.5585 191.34096 90.5585 180.33625 99.47932 171.41542 110.48404 171.41542 121.48874 171.41542 130.40958 180.33625 130.40958 191.34096ZM110.48404 191.34096"/>
<use data-text="A" xlink:href="#font_2_27" transform="matrix(9.963098,0,0,-9.963496,110.17955,364.86216)"/>
<use data-text="&#x266d;" xlink:href="#font_3_1" transform="matrix(9.963098,0,0,-9.963496,117.651927,364.86216)"/>
<use data-text="," xlink:href="#font_2_45" transform="matrix(9.963098,0,0,-9.963496,121.527118,364.86216)"/>
<use data-text="G" xlink:href="#font_2_58" transform="matrix(9.963098,0,0,-9.963496,127.60461,364.86216)"/>
<use data-text="#" xlink:href="#font_4_1" transform="matrix(9.963098,0,0,-9.963496,135.4358,364.86216)"/>
<path transform="matrix(1.00005,0,0,-1.00009,16.468873,553.4531)" d="M93.58154 212.60106C93.58154 223.60578 84.66072 232.5266 73.656 232.5266 62.65129 232.5266 53.73047 223.60578 53.73047 212.60106 53.73047 201.59635 62.65129 192.67552 73.656 192.67552 84.66072 192.67552 93.58154 201.59635 93.58154 212.60106ZM73.656 212.60106" fill="#f2f2f2"/>
<path transform="matrix(1.00005,0,0,-1.00009,16.468873,553.4531)" stroke-width=".3985" stroke-linecap="butt" stroke-miterlimit="10" stroke-linejoin="miter" fill="none" stroke="#7f807f" d="M93.58154 212.60106C93.58154 223.60578 84.66072 232.5266 73.656 232.5266 62.65129 232.5266 53.73047 223.60578 53.73047 212.60106 53.73047 201.59635 62.65129 192.67552 73.656 192.67552 84.66072 192.67552 93.58154 201.59635 93.58154 212.60106ZM73.656 212.60106"/>
<use data-text="A" xlink:href="#font_2_27" transform="matrix(9.963098,0,0,-9.963496,86.392368,344.40034)"/>
<path transform="matrix(1.00005,0,0,-1.00009,16.468873,553.4531)" d="M56.75354 233.86116C56.75354 244.86588 47.83272 253.7867 36.828 253.7867 25.82329 253.7867 16.90247 244.86588 16.90247 233.86116 16.90247 222.85645 25.82329 213.93563 36.828 213.93563 47.83272 213.93563 56.75354 222.85645 56.75354 233.86116ZM36.828 233.86116" fill="#f2f2f2"/>
<path transform="matrix(1.00005,0,0,-1.00009,16.468873,553.4531)" stroke-width=".3985" stroke-linecap="butt" stroke-miterlimit="10" stroke-linejoin="miter" fill="none" stroke="#7f807f" d="M56.75354 233.86116C56.75354 244.86588 47.83272 253.7867 36.828 253.7867 25.82329 253.7867 16.90247 244.86588 16.90247 233.86116 16.90247 222.85645 25.82329 213.93563 36.828 213.93563 47.83272 213.93563 56.75354 222.85645 56.75354 233.86116ZM36.828 233.86116"/>
<use data-text="B" xlink:href="#font_2_34" transform="matrix(9.963098,0,0,-9.963496,36.902894,322.33833)"/>
<use data-text="&#x266d;" xlink:href="#font_3_1" transform="matrix(9.963098,0,0,-9.963496,43.957246,322.33833)"/>
<use data-text="," xlink:href="#font_2_45" transform="matrix(9.963098,0,0,-9.963496,47.831445,322.33833)"/>
<use data-text="A" xlink:href="#font_2_27" transform="matrix(9.963098,0,0,-9.963496,53.91889,322.33833)"/>
<use data-text="#" xlink:href="#font_4_1" transform="matrix(9.963098,0,0,-9.963496,61.391115,322.33833)"/>
<path transform="matrix(1.00005,0,0,-1.00009,16.468873,553.4531)" d="M204.06558 191.34096C204.06558 202.34568 195.14476 211.2665 184.14005 211.2665 173.13535 211.2665 164.21451 202.34568 164.21451 191.34096 164.21451 180.33625 173.13535 171.41542 184.14005 171.41542 195.14476 171.41542 204.06558 180.33625 204.06558 191.34096ZM184.14005 191.34096" fill="#f2f2f2"/>
<path transform="matrix(1.00005,0,0,-1.00009,16.468873,553.4531)" stroke-width=".3985" stroke-linecap="butt" stroke-miterlimit="10" stroke-linejoin="miter" fill="none" stroke="#7f807f" d="M204.06558 191.34096C204.06558 202.34568 195.14476 211.2665 184.14005 211.2665 173.13535 211.2665 164.21451 202.34568 164.21451 191.34096 164.21451 180.33625 173.13535 171.41542 184.14005 171.41542 195.14476 171.41542 204.06558 180.33625 204.06558 191.34096ZM184.14005 191.34096"/>
<use data-text="A" xlink:href="#font_2_27" transform="matrix(9.963098,0,0,-9.963496,196.8819,365.66224)"/>
<path transform="matrix(1.00005,0,0,-1.00009,16.468873,553.4531)" d="M167.23758 212.60106C167.23758 223.60578 158.31676 232.5266 147.31204 232.5266 136.30733 232.5266 127.3865 223.60578 127.3865 212.60106 127.3865 201.59635 136.30733 192.67552 147.31204 192.67552 158.31676 192.67552 167.23758 201.59635 167.23758 212.60106ZM147.31204 212.60106" fill="#f2f2f2"/>
<path transform="matrix(1.00005,0,0,-1.00009,16.468873,553.4531)" stroke-width=".3985" stroke-linecap="butt" stroke-miterlimit="10" stroke-linejoin="miter" fill="none" stroke="#7f807f" d="M167.23758 212.60106C167.23758 223.60578 158.31676 232.5266 147.31204 232.5266 136.30733 232.5266 127.3865 223.60578 127.3865 212.60106 127.3865 201.59635 136.30733 192.67552 147.31204 192.67552 158.31676 192.67552 167.23758 201.59635 167.23758 212.60106ZM147.31204 212.60106"/>
<use data-text="B" xlink:href="#font_2_34" transform="matrix(9.963098,0,0,-9.963496,149.0515,343.60023)"/>
<use data-text="&#x266d;" xlink:href="#font_3_1" transform="matrix(9.963098,0,0,-9.963496,156.10585,343.60023)"/>
<use data-text="," xlink:href="#font_2_45" transform="matrix(9.963098,0,0,-9.963496,159.98004,343.60023)"/>
<use data-text="A" xlink:href="#font_2_27" transform="matrix(9.963098,0,0,-9.963496,162.74979,343.60023)"/>
<use data-text="#" xlink:href="#font_4_1" transform="matrix(9.963098,0,0,-9.963496,170.22257,343.60023)"/>
<path transform="matrix(1.00005,0,0,-1.00009,16.468873,553.4531)" d="M130.40958 233.86116C130.40958 244.86588 121.48874 253.7867 110.48404 253.7867 99.47932 253.7867 90.5585 244.86588 90.5585 233.86116 90.5585 222.85645 99.47932 213.93563 110.48404 213.93563 121.48874 213.93563 130.40958 222.85645 130.40958 233.86116ZM110.48404 233.86116" fill="#f2f2f2"/>
<path transform="matrix(1.00005,0,0,-1.00009,16.468873,553.4531)" stroke-width=".3985" stroke-linecap="butt" stroke-miterlimit="10" stroke-linejoin="miter" fill="none" stroke="#7f807f" d="M130.40958 233.86116C130.40958 244.86588 121.48874 253.7867 110.48404 253.7867 99.47932 253.7867 90.5585 244.86588 90.5585 233.86116 90.5585 222.85645 99.47932 213.93563 110.48404 213.93563 121.48874 213.93563 130.40958 222.85645 130.40958 233.86116ZM110.48404 233.86116"/>
<use data-text="B" xlink:href="#font_2_34" transform="matrix(9.963098,0,0,-9.963496,123.43121,322.9734)"/>
<path transform="matrix(1.00005,0,0,-1.00009,16.468873,553.4531)" d="M93.58154 255.12128C93.58154 266.12599 84.66072 275.0468 73.656 275.0468 62.65129 275.0468 53.73047 266.12599 53.73047 255.12128 53.73047 244.11656 62.65129 235.19574 73.656 235.19574 84.66072 235.19574 93.58154 244.11656 93.58154 255.12128ZM73.656 255.12128" fill="#f2f2f2"/>
<path transform="matrix(1.00005,0,0,-1.00009,16.468873,553.4531)" stroke-width=".3985" stroke-linecap="butt" stroke-miterlimit="10" stroke-linejoin="miter" fill="none" stroke="#7f807f" d="M93.58154 255.12128C93.58154 266.12599 84.66072 275.0468 73.656 275.0468 62.65129 275.0468 53.73047 266.12599 53.73047 255.12128 53.73047 244.11656 62.65129 235.19574 73.656 235.19574 84.66072 235.19574 93.58154 244.11656 93.58154 255.12128ZM73.656 255.12128"/>
<use data-text="C" xlink:href="#font_2_42" transform="matrix(9.963098,0,0,-9.963496,86.53137,301.7115)"/>
<path transform="matrix(1.00005,0,0,-1.00009,16.468873,553.4531)" d="M56.75354 276.38139C56.75354 287.3861 47.83272 296.30693 36.828 296.30693 25.82329 296.30693 16.90247 287.3861 16.90247 276.38139 16.90247 265.37669 25.82329 256.45585 36.828 256.45585 47.83272 256.45585 56.75354 265.37669 56.75354 276.38139ZM36.828 276.38139" fill="#f2f2f2"/>
<path transform="matrix(1.00005,0,0,-1.00009,16.468873,553.4531)" stroke-width=".3985" stroke-linecap="butt" stroke-miterlimit="10" stroke-linejoin="miter" fill="none" stroke="#7f807f" d="M56.75354 276.38139C56.75354 287.3861 47.83272 296.30693 36.828 296.30693 25.82329 296.30693 16.90247 287.3861 16.90247 276.38139 16.90247 265.37669 25.82329 256.45585 36.828 256.45585 47.83272 256.45585 56.75354 265.37669 56.75354 276.38139ZM36.828 276.38139"/>
<use data-text="C" xlink:href="#font_2_42" transform="matrix(9.963098,0,0,-9.963496,38.421968,279.81449)"/>
<use data-text="#" xlink:href="#font_4_1" transform="matrix(9.963098,0,0,-9.963496,45.615327,279.81449)"/>
<use data-text="," xlink:href="#font_2_45" transform="matrix(9.963098,0,0,-9.963496,53.918748,279.81449)"/>
<use data-text="D" xlink:href="#font_2_46" transform="matrix(9.963098,0,0,-9.963496,56.688486,279.81449)"/>
<use data-text="&#x266d;" xlink:href="#font_3_1" transform="matrix(9.963098,0,0,-9.963496,64.30026,279.81449)"/>
<path transform="matrix(1.00005,0,0,-1.00009,16.468873,553.4531)" d="M204.06558 233.86116C204.06558 244.86588 195.14476 253.7867 184.14005 253.7867 173.13535 253.7867 164.21451 244.86588 164.21451 233.86116 164.21451 222.85645 173.13535 213.93563 184.14005 213.93563 195.14476 213.93563 204.06558 222.85645 204.06558 233.86116ZM184.14005 233.86116" fill="#f2f2f2"/>
<path transform="matrix(1.00005,0,0,-1.00009,16.468873,553.4531)" stroke-width=".3985" stroke-linecap="butt" stroke-miterlimit="10" stroke-linejoin="miter" fill="none" stroke="#7f807f" d="M204.06558 233.86116C204.06558 244.86588 195.14476 253.7867 184.14005 253.7867 173.13535 253.7867 164.21451 244.86588 164.21451 233.86116 164.21451 222.85645 173.13535 213.93563 184.14005 213.93563 195.14476 213.93563 204.06558 222.85645 204.06558 233.86116ZM184.14005 233.86116"/>
<use data-text="C" xlink:href="#font_2_42" transform="matrix(9.963098,0,0,-9.963496,197.02089,322.9734)"/>
<path transform="matrix(1.00005,0,0,-1.00009,16.468873,553.4531)" d="M167.23758 255.12128C167.23758 266.12599 158.31676 275.0468 147.31204 275.0468 136.30733 275.0468 127.3865 266.12599 127.3865 255.12128 127.3865 244.11656 136.30733 235.19574 147.31204 235.19574 158.31676 235.19574 167.23758 244.11656 167.23758 255.12128ZM147.31204 255.12128" fill="#f2f2f2"/>
<path transform="matrix(1.00005,0,0,-1.00009,16.468873,553.4531)" stroke-width=".3985" stroke-linecap="butt" stroke-miterlimit="10" stroke-linejoin="miter" fill="none" stroke="#7f807f" d="M167.23758 255.12128C167.23758 266.12599 158.31676 275.0468 147.31204 275.0468 136.30733 275.0468 127.3865 266.12599 127.3865 255.12128 127.3865 244.11656 136.30733 235.19574 147.31204 235.19574 158.31676 235.19574 167.23758 244.11656 167.23758 255.12128ZM147.31204 255.12128"/>
<use data-text="C" xlink:href="#font_2_42" transform="matrix(9.963098,0,0,-9.963496,148.91249,301.07643)"/>
<use data-text="#" xlink:href="#font_4_1" transform="matrix(9.963098,0,0,-9.963496,156.10585,301.07643)"/>
<use data-text="," xlink:href="#font_2_45" transform="matrix(9.963098,0,0,-9.963496,164.40927,301.07643)"/>
<use data-text="D" xlink:href="#font_2_46" transform="matrix(9.963098,0,0,-9.963496,167.17902,301.07643)"/>
<use data-text="&#x266d;" xlink:href="#font_3_1" transform="matrix(9.963098,0,0,-9.963496,174.79079,301.07643)"/>
<path transform="matrix(1.00005,0,0,-1.00009,16.468873,553.4531)" d="M130.40958 276.38139C130.40958 287.3861 121.48874 296.30693 110.48404 296.30693 99.47932 296.30693 90.5585 287.3861 90.5585 276.38139 90.5585 265.37669 99.47932 256.45585 110.48404 256.45585 121.48874 256.45585 130.40958 265.37669 130.40958 276.38139ZM110.48404 276.38139" fill="#f2f2f2"/>
<path transform="matrix(1.00005,0,0,-1.00009,16.468873,553.4531)" stroke-width=".3985" stroke-linecap="butt" stroke-miterlimit="10" stroke-linejoin="miter" fill="none" stroke="#7f807f" d="M130.40958 276.38139C130.40958 287.3861 121.48874 296.30693 110.48404 296.30693 99.47932 296.30693 90.5585 287.3861 90.5585 276.38139 90.5585 265.37669 99.47932 256.45585 110.48404 256.45585 121.48874 256.45585 130.40958 265.37669 130.40958 276.38139ZM110.48404 276.38139"/>
<use data-text="D" xlink:href="#font_2_46" transform="matrix(9.963098,0,0,-9.963496,123.1522,280.44956)"/>
<path transform="matrix(1.00005,0,0,-1.00009,16.468873,553.4531)" d="M93.58154 297.6415C93.58154 308.6462 84.66072 317.56703 73.656 317.56703 62.65129 317.56703 53.73047 308.6462 53.73047 297.6415 53.73047 286.63679 62.65129 277.71598 73.656 277.71598 84.66072 277.71598 93.58154 286.63679 93.58154 297.6415ZM73.656 297.6415" fill="#f2f2f2"/>
<path transform="matrix(1.00005,0,0,-1.00009,16.468873,553.4531)" stroke-width=".3985" stroke-linecap="butt" stroke-miterlimit="10" stroke-linejoin="miter" fill="none" stroke="#7f807f" d="M93.58154 297.6415C93.58154 308.6462 84.66072 317.56703 73.656 317.56703 62.65129 317.56703 53.73047 308.6462 53.73047 297.6415 53.73047 286.63679 62.65129 277.71598 73.656 277.71598 84.66072 277.71598 93.58154 286.63679 93.58154 297.6415ZM73.656 297.6415"/>
<use data-text="E" xlink:href="#font_2_49" transform="matrix(9.963098,0,0,-9.963496,75.45682,258.55259)"/>
<use data-text="&#x266d;" xlink:href="#font_3_1" transform="matrix(9.963098,0,0,-9.963496,82.242168,258.55259)"/>
<use data-text="," xlink:href="#font_2_45" transform="matrix(9.963098,0,0,-9.963496,86.116359,258.55259)"/>
<use data-text="D" xlink:href="#font_2_46" transform="matrix(9.963098,0,0,-9.963496,88.88609,258.55259)"/>
<use data-text="#" xlink:href="#font_4_1" transform="matrix(9.963098,0,0,-9.963496,96.49787,258.55259)"/>
<path transform="matrix(1.00005,0,0,-1.00009,16.468873,553.4531)" d="M56.75354 318.9016C56.75354 329.9063 47.83272 338.82713 36.828 338.82713 25.82329 338.82713 16.90247 329.9063 16.90247 318.9016 16.90247 307.89689 25.82329 298.97608 36.828 298.97608 47.83272 298.97608 56.75354 307.89689 56.75354 318.9016ZM36.828 318.9016" fill="#f2f2f2"/>
<path transform="matrix(1.00005,0,0,-1.00009,16.468873,553.4531)" stroke-width=".3985" stroke-linecap="butt" stroke-miterlimit="10" stroke-linejoin="miter" fill="none" stroke="#7f807f" d="M56.75354 318.9016C56.75354 329.9063 47.83272 338.82713 36.828 338.82713 25.82329 338.82713 16.90247 329.9063 16.90247 318.9016 16.90247 307.89689 25.82329 298.97608 36.828 298.97608 47.83272 298.97608 56.75354 307.89689 56.75354 318.9016ZM36.828 318.9016"/>
<use data-text="E" xlink:href="#font_2_49" transform="matrix(9.963098,0,0,-9.963496,49.906545,237.9107)"/>
<path transform="matrix(1.00005,0,0,-1.00009,16.468873,553.4531)" d="M204.06558 276.38139C204.06558 287.3861 195.14476 296.30693 184.14005 296.30693 173.13535 296.30693 164.21451 287.3861 164.21451 276.38139 164.21451 265.37669 173.13535 256.45585 184.14005 256.45585 195.14476 256.45585 204.06558 265.37669 204.06558 276.38139ZM184.14005 276.38139" fill="#f2f2f2"/>
<path transform="matrix(1.00005,0,0,-1.00009,16.468873,553.4531)" stroke-width=".3985" stroke-linecap="butt" stroke-miterlimit="10" stroke-linejoin="miter" fill="none" stroke="#7f807f" d="M204.06558 276.38139C204.06558 287.3861 195.14476 296.30693 184.14005 296.30693 173.13535 296.30693 164.21451 287.3861 164.21451 276.38139 164.21451 265.37669 173.13535 256.45585 184.14005 256.45585 195.14476 256.45585 204.06558 265.37669 204.06558 276.38139ZM184.14005 276.38139"/>
<use data-text="E" xlink:href="#font_2_49" transform="matrix(9.963098,0,0,-9.963496,185.94634,279.81449)"/>
<use data-text="&#x266d;" xlink:href="#font_3_1" transform="matrix(9.963098,0,0,-9.963496,192.73169,279.81449)"/>
<use data-text="," xlink:href="#font_2_45" transform="matrix(9.963098,0,0,-9.963496,196.60587,279.81449)"/>
<use data-text="D" xlink:href="#font_2_46" transform="matrix(9.963098,0,0,-9.963496,199.37561,279.81449)"/>
<use data-text="#" xlink:href="#font_4_1" transform="matrix(9.963098,0,0,-9.963496,206.9874,279.81449)"/>
<path transform="matrix(1.00005,0,0,-1.00009,16.468873,553.4531)" d="M167.23758 297.6415C167.23758 308.6462 158.31676 317.56703 147.31204 317.56703 136.30733 317.56703 127.3865 308.6462 127.3865 297.6415 127.3865 286.63679 136.30733 277.71598 147.31204 277.71598 158.31676 277.71598 167.23758 286.63679 167.23758 297.6415ZM147.31204 297.6415" fill="#f2f2f2"/>
<path transform="matrix(1.00005,0,0,-1.00009,16.468873,553.4531)" stroke-width=".3985" stroke-linecap="butt" stroke-miterlimit="10" stroke-linejoin="miter" fill="none" stroke="#7f807f" d="M167.23758 297.6415C167.23758 308.6462 158.31676 317.56703 147.31204 317.56703 136.30733 317.56703 127.3865 308.6462 127.3865 297.6415 127.3865 286.63679 136.30733 277.71598 147.31204 277.71598 158.31676 277.71598 167.23758 286.63679 167.23758 297.6415ZM147.31204 297.6415"/>
<use data-text="E" xlink:href="#font_2_49" transform="matrix(9.963098,0,0,-9.963496,160.39606,259.17265)"/>
<path transform="matrix(1.00005,0,0,-1.00009,16.468873,553.4531)" d="M130.40958 318.9016C130.40958 329.9063 121.48874 338.82713 110.48404 338.82713 99.47932 338.82713 90.5585 329.9063 90.5585 318.9016 90.5585 307.89689 99.47932 298.97608 110.48404 298.97608 121.48874 298.97608 130.40958 307.89689 130.40958 318.9016ZM110.48404 318.9016" fill="#f2f2f2"/>
<path transform="matrix(1.00005,0,0,-1.00009,16.468873,553.4531)" stroke-width=".3985" stroke-linecap="butt" stroke-miterlimit="10" stroke-linejoin="miter" fill="none" stroke="#7f807f" d="M130.40958 318.9016C130.40958 329.9063 121.48874 338.82713 110.48404 338.82713 99.47932 338.82713 90.5585 329.9063 90.5585 318.9016 90.5585 307.89689 99.47932 298.97608 110.48404 298.97608 121.48874 298.97608 130.40958 307.89689 130.40958 318.9016ZM110.48404 318.9016"/>
<use data-text="F" xlink:href="#font_2_54" transform="matrix(9.963098,0,0,-9.963496,123.70523,237.9107)"/>
<path transform="matrix(1.00005,0,0,-1.00009,16.468873,553.4531)" d="M93.58154 340.1617C93.58154 351.16645 84.66072 360.08726 73.656 360.08726 62.65129 360.08726 53.73047 351.16645 53.73047 340.1617 53.73047 329.157 62.65129 320.23619 73.656 320.23619 84.66072 320.23619 93.58154 329.157 93.58154 340.1617ZM73.656 340.1617" fill="#f2f2f2"/>
<path transform="matrix(1.00005,0,0,-1.00009,16.468873,553.4531)" stroke-width=".3985" stroke-linecap="butt" stroke-miterlimit="10" stroke-linejoin="miter" fill="none" stroke="#7f807f" d="M93.58154 340.1617C93.58154 351.16645 84.66072 360.08726 73.656 360.08726 62.65129 360.08726 53.73047 351.16645 53.73047 340.1617 53.73047 329.157 62.65129 320.23619 73.656 320.23619 84.66072 320.23619 93.58154 329.157 93.58154 340.1617ZM73.656 340.1617"/>
<use data-text="G" xlink:href="#font_2_58" transform="matrix(9.963098,0,0,-9.963496,75.49182,216.02875)"/>
<use data-text="&#x266d;" xlink:href="#font_3_1" transform="matrix(9.963098,0,0,-9.963496,83.31321,216.02875)"/>
<use data-text="," xlink:href="#font_2_45" transform="matrix(9.963098,0,0,-9.963496,87.18741,216.02875)"/>
<use data-text="F" xlink:href="#font_2_54" transform="matrix(9.963098,0,0,-9.963496,89.957149,216.02875)"/>
<use data-text="#" xlink:href="#font_4_1" transform="matrix(9.963098,0,0,-9.963496,96.46387,216.02875)"/>
<path transform="matrix(1.00005,0,0,-1.00009,16.468873,553.4531)" d="M56.75354 361.4218C56.75354 372.42655 47.83272 381.34736 36.828 381.34736 25.82329 381.34736 16.90247 372.42655 16.90247 361.4218 16.90247 350.4171 25.82329 341.49629 36.828 341.49629 47.83272 341.49629 56.75354 350.4171 56.75354 361.4218ZM36.828 361.4218" fill="#f2f2f2"/>
<path transform="matrix(1.00005,0,0,-1.00009,16.468873,553.4531)" stroke-width=".3985" stroke-linecap="butt" stroke-miterlimit="10" stroke-linejoin="miter" fill="none" stroke="#7f807f" d="M56.75354 361.4218C56.75354 372.42655 47.83272 381.34736 36.828 381.34736 25.82329 381.34736 16.90247 372.42655 16.90247 361.4218 16.90247 350.4171 25.82329 341.49629 36.828 341.49629 47.83272 341.49629 56.75354 350.4171 56.75354 361.4218ZM36.828 361.4218"/>
<use data-text="G" xlink:href="#font_2_58" transform="matrix(9.963098,0,0,-9.963496,49.388517,195.40091)"/>
<path transform="matrix(1.00005,0,0,-1.00009,16.468873,553.4531)" d="M204.06558 318.9016C204.06558 329.9063 195.14476 338.82713 184.14005 338.82713 173.13535 338.82713 164.21451 329.9063 164.21451 318.9016 164.21451 307.89689 173.13535 298.97608 184.14005 298.97608 195.14476 298.97608 204.06558 307.89689 204.06558 318.9016ZM184.14005 318.9016" fill="#f2f2f2"/>
<path transform="matrix(1.00005,0,0,-1.00009,16.468873,553.4531)" stroke-width=".3985" stroke-linecap="butt" stroke-miterlimit="10" stroke-linejoin="miter" fill="none" stroke="#7f807f" d="M204.06558 318.9016C204.06558 329.9063 195.14476 338.82713 184.14005 338.82713 173.13535 338.82713 164.21451 329.9063 164.21451 318.9016 164.21451 307.89689 173.13535 298.97608 184.14005 298.97608 195.14476 298.97608 204.06558 307.89689 204.06558 318.9016ZM184.14005 318.9016"/>
<use data-text="G" xlink:href="#font_2_58" transform="matrix(9.963098,0,0,-9.963496,185.98134,237.29068)"/>
<use data-text="&#x266d;" xlink:href="#font_3_1" transform="matrix(9.963098,0,0,-9.963496,193.80274,237.29068)"/>
<use data-text="," xlink:href="#font_2_45" transform="matrix(9.963098,0,0,-9.963496,197.67693,237.29068)"/>
<use data-text="F" xlink:href="#font_2_54" transform="matrix(9.963098,0,0,-9.963496,200.44666,237.29068)"/>
<use data-text="#" xlink:href="#font_4_1" transform="matrix(9.963098,0,0,-9.963496,206.95339,237.29068)"/>
<path transform="matrix(1.00005,0,0,-1.00009,16.468873,553.4531)" d="M167.23758 340.1617C167.23758 351.16645 158.31676 360.08726 147.31204 360.08726 136.30733 360.08726 127.3865 351.16645 127.3865 340.1617 127.3865 329.157 136.30733 320.23619 147.31204 320.23619 158.31676 320.23619 167.23758 329.157 167.23758 340.1617ZM147.31204 340.1617" fill="#f2f2f2"/>
<path transform="matrix(1.00005,0,0,-1.00009,16.468873,553.4531)" stroke-width=".3985" stroke-linecap="butt" stroke-miterlimit="10" stroke-linejoin="miter" fill="none" stroke="#7f807f" d="M167.23758 340.1617C167.23758 351.16645 158.31676 360.08726 147.31204 360.08726 136.30733 360.08726 127.3865 351.16645 127.3865 340.1617 127.3865 329.157 136.30733 320.23619 147.31204 320.23619 158.31676 320.23619 167.23758 329.157 167.23758 340.1617ZM147.31204 340.1617"/>
<use data-text="G" xlink:href="#font_2_58" transform="matrix(9.963098,0,0,-9.963496,159.87802,216.66382)"/>
<path transform="matrix(1.00005,0,0,-1.00009,16.468873,553.4531)" d="M130.40958 361.4218C130.40958 372.42655 121.48874 381.34736 110.48404 381.34736 99.47932 381.34736 90.5585 372.42655 90.5585 361.4218 90.5585 350.4171 99.47932 341.49629 110.48404 341.49629 121.48874 341.49629 130.40958 350.4171 130.40958 361.4218ZM110.48404 361.4218" fill="#f2f2f2"/>
<path transform="matrix(1.00005,0,0,-1.00009,16.468873,553.4531)" stroke-width=".3985" stroke-linecap="butt" stroke-miterlimit="10" stroke-linejoin="miter" fill="none" stroke="#7f807f" d="M130.40958 361.4218C130.40958 372.42655 121.48874 381.34736 110.48404 381.34736 99.47932 381.34736 90.5585 372.42655 90.5585 361.4218 90.5585 350.4171 99.47932 341.49629 110.48404 341.49629 121.48874 341.49629 130.40958 350.4171 130.40958 361.4218ZM110.48404 361.4218"/>
<use data-text="A" xlink:href="#font_2_27" transform="matrix(9.963098,0,0,-9.963496,110.17955,194.76685)"/>
<use data-text="&#x266d;" xlink:href="#font_3_1" transform="matrix(9.963098,0,0,-9.963496,117.651927,194.76685)"/>
<use data-text="," xlink:href="#font_2_45" transform="matrix(9.963098,0,0,-9.963496,121.527118,194.76685)"/>
<use data-text="G" xlink:href="#font_2_58" transform="matrix(9.963098,0,0,-9.963496,127.60461,194.76685)"/>
<use data-text="#" xlink:href="#font_4_1" transform="matrix(9.963098,0,0,-9.963496,135.4358,194.76685)"/>
<path transform="matrix(1.00005,0,0,-1.00009,16.468873,553.4531)" d="M93.58154 382.68193C93.58154 393.6866 84.66072 402.60746 73.656 402.60746 62.65129 402.60746 53.73047 393.6866 53.73047 382.68193 53.73047 371.6772 62.65129 362.75639 73.656 362.75639 84.66072 362.75639 93.58154 371.6772 93.58154 382.68193ZM73.656 382.68193" fill="#f2f2f2"/>
<path transform="matrix(1.00005,0,0,-1.00009,16.468873,553.4531)" stroke-width=".3985" stroke-linecap="butt" stroke-miterlimit="10" stroke-linejoin="miter" fill="none" stroke="#7f807f" d="M93.58154 382.68193C93.58154 393.6866 84.66072 402.60746 73.656 402.60746 62.65129 402.60746 53.73047 393.6866 53.73047 382.68193 53.73047 371.6772 62.65129 362.75639 73.656 362.75639 84.66072 362.75639 93.58154 371.6772 93.58154 382.68193ZM73.656 382.68193"/>
<use data-text="A" xlink:href="#font_2_27" transform="matrix(9.963098,0,0,-9.963496,86.392368,174.30402)"/>
<path transform="matrix(1.00005,0,0,-1.00009,16.468873,553.4531)" d="M56.75354 403.94203C56.75354 414.94673 47.83272 423.86756 36.828 423.86756 25.82329 423.86756 16.90247 414.94673 16.90247 403.94203 16.90247 392.9373 25.82329 384.01649 36.828 384.01649 47.83272 384.01649 56.75354 392.9373 56.75354 403.94203ZM36.828 403.94203" fill="#f2f2f2"/>
<path transform="matrix(1.00005,0,0,-1.00009,16.468873,553.4531)" stroke-width=".3985" stroke-linecap="butt" stroke-miterlimit="10" stroke-linejoin="miter" fill="none" stroke="#7f807f" d="M56.75354 403.94203C56.75354 414.94673 47.83272 423.86756 36.828 423.86756 25.82329 423.86756 16.90247 414.94673 16.90247 403.94203 16.90247 392.9373 25.82329 384.01649 36.828 384.01649 47.83272 384.01649 56.75354 392.9373 56.75354 403.94203ZM36.828 403.94203"/>
<use data-text="B" xlink:href="#font_2_34" transform="matrix(9.963098,0,0,-9.963496,36.902894,152.24204)"/>
<use data-text="&#x266d;" xlink:href="#font_3_1" transform="matrix(9.963098,0,0,-9.963496,43.957246,152.24204)"/>
<use data-text="," xlink:href="#font_2_45" transform="matrix(9.963098,0,0,-9.963496,47.831445,152.24204)"/>
<use data-text="A" xlink:href="#font_2_27" transform="matrix(9.963098,0,0,-9.963496,53.91889,152.24204)"/>
<use data-text="#" xlink:href="#font_4_1" transform="matrix(9.963098,0,0,-9.963496,61.391115,152.24204)"/>
<path transform="matrix(1.00005,0,0,-1.00009,16.468873,553.4531)" d="M204.06558 361.4218C204.06558 372.42655 195.14476 381.34736 184.14005 381.34736 173.13535 381.34736 164.21451 372.42655 164.21451 361.4218 164.21451 350.4171 173.13535 341.49629 184.14005 341.49629 195.14476 341.49629 204.06558 350.4171 204.06558 361.4218ZM184.14005 361.4218" fill="#f2f2f2"/>
<path transform="matrix(1.00005,0,0,-1.00009,16.468873,553.4531)" stroke-width=".3985" stroke-linecap="butt" stroke-miterlimit="10" stroke-linejoin="miter" fill="none" stroke="#7f807f" d="M204.06558 361.4218C204.06558 372.42655 195.14476 381.34736 184.14005 381.34736 173.13535 381.34736 164.21451 372.42655 164.21451 361.4218 164.21451 350.4171 173.13535 341.49629 184.14005 341.49629 195.14476 341.49629 204.06558 350.4171 204.06558 361.4218ZM184.14005 361.4218"/>
<use data-text="A" xlink:href="#font_2_27" transform="matrix(9.963098,0,0,-9.963496,196.8819,195.56592)"/>
<path transform="matrix(1.00005,0,0,-1.00009,16.468873,553.4531)" d="M167.23758 382.68193C167.23758 393.6866 158.31676 402.60746 147.31204 402.60746 136.30733 402.60746 127.3865 393.6866 127.3865 382.68193 127.3865 371.6772 136.30733 362.75639 147.31204 362.75639 158.31676 362.75639 167.23758 371.6772 167.23758 382.68193ZM147.31204 382.68193" fill="#f2f2f2"/>
<path transform="matrix(1.00005,0,0,-1.00009,16.468873,553.4531)" stroke-width=".3985" stroke-linecap="butt" stroke-miterlimit="10" stroke-linejoin="miter" fill="none" stroke="#7f807f" d="M167.23758 382.68193C167.23758 393.6866 158.31676 402.60746 147.31204 402.60746 136.30733 402.60746 127.3865 393.6866 127.3865 382.68193 127.3865 371.6772 136.30733 362.75639 147.31204 362.75639 158.31676 362.75639 167.23758 371.6772 167.23758 382.68193ZM147.31204 382.68193"/>
<use data-text="B" xlink:href="#font_2_34" transform="matrix(9.963098,0,0,-9.963496,149.0515,173.50495)"/>
<use data-text="&#x266d;" xlink:href="#font_3_1" transform="matrix(9.963098,0,0,-9.963496,156.10585,173.50495)"/>
<use data-text="," xlink:href="#font_2_45" transform="matrix(9.963098,0,0,-9.963496,159.98004,173.50495)"/>
<use data-text="A" xlink:href="#font_2_27" transform="matrix(9.963098,0,0,-9.963496,162.74979,173.50495)"/>
<use data-text="#" xlink:href="#font_4_1" transform="matrix(9.963098,0,0,-9.963496,170.22257,173.50495)"/>
<path transform="matrix(1.00005,0,0,-1.00009,16.468873,553.4531)" d="M130.40958 403.94203C130.40958 414.94673 121.48874 423.86756 110.48404 423.86756 99.47932 423.86756 90.5585 414.94673 90.5585 403.94203 90.5585 392.9373 99.47932 384.01649 110.48404 384.01649 121.48874 384.01649 130.40958 392.9373 130.40958 403.94203ZM110.48404 403.94203" fill="#f2f2f2"/>
<path transform="matrix(1.00005,0,0,-1.00009,16.468873,553.4531)" stroke-width=".3985" stroke-linecap="butt" stroke-miterlimit="10" stroke-linejoin="miter" fill="none" stroke="#7f807f" d="M130.40958 403.94203C130.40958 414.94673 121.48874 423.86756 110.48404 423.86756 99.47932 423.86756 90.5585 414.94673 90.5585 403.94203 90.5585 392.9373 99.47932 384.01649 110.48404 384.01649 121.48874 384.01649 130.40958 392.9373 130.40958 403.94203ZM110.48404 403.94203"/>
<use data-text="B" xlink:href="#font_2_34" transform="matrix(9.963098,0,0,-9.963496,123.43121,152.87708)"/>
<path transform="matrix(1.00005,0,0,-1.00009,16.468873,553.4531)" d="M93.58154 425.20213C93.58154 436.20686 84.66072 445.12767 73.656 445.12767 62.65129 445.12767 53.73047 436.20686 53.73047 425.20213 53.73047 414.19743 62.65129 405.2766 73.656 405.2766 84.66072 405.2766 93.58154 414.19743 93.58154 425.20213ZM73.656 425.20213" fill="#f2f2f2"/>
<path transform="matrix(1.00005,0,0,-1.00009,16.468873,553.4531)" stroke-width=".3985" stroke-linecap="butt" stroke-miterlimit="10" stroke-linejoin="miter" fill="none" stroke="#7f807f" d="M93.58154 425.20213C93.58154 436.20686 84.66072 445.12767 73.656 445.12767 62.65129 445.12767 53.73047 436.20686 53.73047 425.20213 53.73047 414.19743 62.65129 405.2766 73.656 405.2766 84.66072 405.2766 93.58154 414.19743 93.58154 425.20213ZM73.656 425.20213"/>
<use data-text="C" xlink:href="#font_2_42" transform="matrix(9.963098,0,0,-9.963496,86.53137,131.61518)"/>
<path transform="matrix(1.00005,0,0,-1.00009,16.468873,553.4531)" d="M56.75354 446.46226C56.75354 457.46696 47.83272 466.3878 36.828 466.3878 25.82329 466.3878 16.90247 457.46696 16.90247 446.46226 16.90247 435.45753 25.82329 426.5367 36.828 426.5367 47.83272 426.5367 56.75354 435.45753 56.75354 446.46226ZM36.828 446.46226" fill="#f2f2f2"/>
<path transform="matrix(1.00005,0,0,-1.00009,16.468873,553.4531)" stroke-width=".3985" stroke-linecap="butt" stroke-miterlimit="10" stroke-linejoin="miter" fill="none" stroke="#7f807f" d="M56.75354 446.46226C56.75354 457.46696 47.83272 466.3878 36.828 466.3878 25.82329 466.3878 16.90247 457.46696 16.90247 446.46226 16.90247 435.45753 25.82329 426.5367 36.828 426.5367 47.83272 426.5367 56.75354 435.45753 56.75354 446.46226ZM36.828 446.46226"/>
<use data-text="C" xlink:href="#font_2_42" transform="matrix(9.963098,0,0,-9.963496,38.421968,109.7182)"/>
<use data-text="#" xlink:href="#font_4_1" transform="matrix(9.963098,0,0,-9.963496,45.615327,109.7182)"/>
<use data-text="," xlink:href="#font_2_45" transform="matrix(9.963098,0,0,-9.963496,53.918748,109.7182)"/>
<use data-text="D" xlink:href="#font_2_46" transform="matrix(9.963098,0,0,-9.963496,56.688486,109.7182)"/>
<use data-text="&#x266d;" xlink:href="#font_3_1" transform="matrix(9.963098,0,0,-9.963496,64.30026,109.7182)"/>
<path transform="matrix(1.00005,0,0,-1.00009,16.468873,553.4531)" d="M204.06558 403.94203C204.06558 414.94673 195.14476 423.86756 184.14005 423.86756 173.13535 423.86756 164.21451 414.94673 164.21451 403.94203 164.21451 392.9373 173.13535 384.01649 184.14005 384.01649 195.14476 384.01649 204.06558 392.9373 204.06558 403.94203ZM184.14005 403.94203" fill="#f2f2f2"/>
<path transform="matrix(1.00005,0,0,-1.00009,16.468873,553.4531)" stroke-width=".3985" stroke-linecap="butt" stroke-miterlimit="10" stroke-linejoin="miter" fill="none" stroke="#7f807f" d="M204.06558 403.94203C204.06558 414.94673 195.14476 423.86756 184.14005 423.86756 173.13535 423.86756 164.21451 414.94673 164.21451 403.94203 164.21451 392.9373 173.13535 384.01649 184.14005 384.01649 195.14476 384.01649 204.06558 392.9373 204.06558 403.94203ZM184.14005 403.94203"/>
<use data-text="C" xlink:href="#font_2_42" transform="matrix(9.963098,0,0,-9.963496,197.02089,152.87708)"/>
<path transform="matrix(1.00005,0,0,-1.00009,16.468873,553.4531)" d="M167.23758 425.20213C167.23758 436.20686 158.31676 445.12767 147.31204 445.12767 136.30733 445.12767 127.3865 436.20686 127.3865 425.20213 127.3865 414.19743 136.30733 405.2766 147.31204 405.2766 158.31676 405.2766 167.23758 414.19743 167.23758 425.20213ZM147.31204 425.20213" fill="#f2f2f2"/>
<path transform="matrix(1.00005,0,0,-1.00009,16.468873,553.4531)" stroke-width=".3985" stroke-linecap="butt" stroke-miterlimit="10" stroke-linejoin="miter" fill="none" stroke="#7f807f" d="M167.23758 425.20213C167.23758 436.20686 158.31676 445.12767 147.31204 445.12767 136.30733 445.12767 127.3865 436.20686 127.3865 425.20213 127.3865 414.19743 136.30733 405.2766 147.31204 405.2766 158.31676 405.2766 167.23758 414.19743 167.23758 425.20213ZM147.31204 425.20213"/>
<use data-text="C" xlink:href="#font_2_42" transform="matrix(9.963098,0,0,-9.963496,148.91249,130.9801)"/>
<use data-text="#" xlink:href="#font_4_1" transform="matrix(9.963098,0,0,-9.963496,156.10585,130.9801)"/>
<use data-text="," xlink:href="#font_2_45" transform="matrix(9.963098,0,0,-9.963496,164.40927,130.9801)"/>
<use data-text="D" xlink:href="#font_2_46" transform="matrix(9.963098,0,0,-9.963496,167.17902,130.9801)"/>
<use data-text="&#x266d;" xlink:href="#font_3_1" transform="matrix(9.963098,0,0,-9.963496,174.79079,130.9801)"/>
<path transform="matrix(1.00005,0,0,-1.00009,16.468873,553.4531)" d="M130.40958 446.46226C130.40958 457.46696 121.48874 466.3878 110.48404 466.3878 99.47932 466.3878 90.5585 457.46696 90.5585 446.46226 90.5585 435.45753 99.47932 426.5367 110.48404 426.5367 121.48874 426.5367 130.40958 435.45753 130.40958 446.46226ZM110.48404 446.46226" fill="#f2f2f2"/>
<path transform="matrix(1.00005,0,0,-1.00009,16.468873,553.4531)" stroke-width=".3985" stroke-linecap="butt" stroke-miterlimit="10" stroke-linejoin="miter" fill="none" stroke="#7f807f" d="M130.40958 446.46226C130.40958 457.46696 121.48874 466.3878 110.48404 466.3878 99.47932 466.3878 90.5585 457.46696 90.5585 446.46226 90.5585 435.45753 99.47932 426.5367 110.48404 426.5367 121.48874 426.5367 130.40958 435.45753 130.40958 446.46226ZM110.48404 446.46226"/>
<use data-text="D" xlink:href="#font_2_46" transform="matrix(9.963098,0,0,-9.963496,123.1522,110.35321)"/>
<path transform="matrix(1.00005,0,0,-1.00009,16.468873,553.4531)" d="M93.58154 467.72236C93.58154 478.72709 84.66072 487.6479 73.656 487.6479 62.65129 487.6479 53.73047 478.72709 53.73047 467.72236 53.73047 456.71766 62.65129 447.7968 73.656 447.7968 84.66072 447.7968 93.58154 456.71766 93.58154 467.72236ZM73.656 467.72236" fill="#f2f2f2"/>
<path transform="matrix(1.00005,0,0,-1.00009,16.468873,553.4531)" stroke-width=".3985" stroke-linecap="butt" stroke-miterlimit="10" stroke-linejoin="miter" fill="none" stroke="#7f807f" d="M93.58154 467.72236C93.58154 478.72709 84.66072 487.6479 73.656 487.6479 62.65129 487.6479 53.73047 478.72709 53.73047 467.72236 53.73047 456.71766 62.65129 447.7968 73.656 447.7968 84.66072 447.7968 93.58154 456.71766 93.58154 467.72236ZM73.656 467.72236"/>
<use data-text="E" xlink:href="#font_2_49" transform="matrix(9.963098,0,0,-9.963496,75.45682,88.4563)"/>
<use data-text="&#x266d;" xlink:href="#font_3_1" transform="matrix(9.963098,0,0,-9.963496,82.242168,88.4563)"/>
<use data-text="," xlink:href="#font_2_45" transform="matrix(9.963098,0,0,-9.963496,86.116359,88.4563)"/>
<use data-text="D" xlink:href="#font_2_46" transform="matrix(9.963098,0,0,-9.963496,88.88609,88.4563)"/>
<use data-text="#" xlink:href="#font_4_1" transform="matrix(9.963098,0,0,-9.963496,96.49787,88.4563)"/>
<path transform="matrix(1.00005,0,0,-1.00009,16.468873,553.4531)" d="M56.75354 488.98246C56.75354 499.98719 47.83272 508.908 36.828 508.908 25.82329 508.908 16.90247 499.98719 16.90247 488.98246 16.90247 477.97776 25.82329 469.05693 36.828 469.05693 47.83272 469.05693 56.75354 477.97776 56.75354 488.98246ZM36.828 488.98246" fill="#f2f2f2"/>
<path transform="matrix(1.00005,0,0,-1.00009,16.468873,553.4531)" stroke-width=".3985" stroke-linecap="butt" stroke-miterlimit="10" stroke-linejoin="miter" fill="none" stroke="#7f807f" d="M56.75354 488.98246C56.75354 499.98719 47.83272 508.908 36.828 508.908 25.82329 508.908 16.90247 499.98719 16.90247 488.98246 16.90247 477.97776 25.82329 469.05693 36.828 469.05693 47.83272 469.05693 56.75354 477.97776 56.75354 488.98246ZM36.828 488.98246"/>
<use data-text="E" xlink:href="#font_2_49" transform="matrix(9.963098,0,0,-9.963496,49.906545,67.81439)"/>
<path transform="matrix(1.00005,0,0,-1.00009,16.468873,553.4531)" d="M204.06558 446.46226C204.06558 457.46696 195.14476 466.3878 184.14005 466.3878 173.13535 466.3878 164.21451 457.46696 164.21451 446.46226 164.21451 435.45753 173.13535 426.5367 184.14005 426.5367 195.14476 426.5367 204.06558 435.45753 204.06558 446.46226ZM184.14005 446.46226" fill="#f2f2f2"/>
<path transform="matrix(1.00005,0,0,-1.00009,16.468873,553.4531)" stroke-width=".3985" stroke-linecap="butt" stroke-miterlimit="10" stroke-linejoin="miter" fill="none" stroke="#7f807f" d="M204.06558 446.46226C204.06558 457.46696 195.14476 466.3878 184.14005 466.3878 173.13535 466.3878 164.21451 457.46696 164.21451 446.46226 164.21451 435.45753 173.13535 426.5367 184.14005 426.5367 195.14476 426.5367 204.06558 435.45753 204.06558 446.46226ZM184.14005 446.46226"/>
<use data-text="E" xlink:href="#font_2_49" transform="matrix(9.963098,0,0,-9.963496,185.94634,109.7182)"/>
<use data-text="&#x266d;" xlink:href="#font_3_1" transform="matrix(9.963098,0,0,-9.963496,192.73169,109.7182)"/>
<use data-text="," xlink:href="#font_2_45" transform="matrix(9.963098,0,0,-9.963496,196.60587,109.7182)"/>
<use data-text="D" xlink:href="#font_2_46" transform="matrix(9.963098,0,0,-9.963496,199.37561,109.7182)"/>
<use data-text="#" xlink:href="#font_4_1" transform="matrix(9.963098,0,0,-9.963496,206.9874,109.7182)"/>
<path transform="matrix(1.00005,0,0,-1.00009,16.468873,553.4531)" d="M167.23758 467.72236C167.23758 478.72709 158.31676 487.6479 147.31204 487.6479 136.30733 487.6479 127.3865 478.72709 127.3865 467.72236 127.3865 456.71766 136.30733 447.7968 147.31204 447.7968 158.31676 447.7968 167.23758 456.71766 167.23758 467.72236ZM147.31204 467.72236" fill="#f2f2f2"/>
<path transform="matrix(1.00005,0,0,-1.00009,16.468873,553.4531)" stroke-width=".3985" stroke-linecap="butt" stroke-miterlimit="10" stroke-linejoin="miter" fill="none" stroke="#7f807f" d="M167.23758 467.72236C167.23758 478.72709 158.31676 487.6479 147.31204 487.6479 136.30733 487.6479 127.3865 478.72709 127.3865 467.72236 127.3865 456.71766 136.30733 447.7968 147.31204 447.7968 158.31676 447.7968 167.23758 456.71766 167.23758 467.72236ZM147.31204 467.72236"/>
<use data-text="E" xlink:href="#font_2_49" transform="matrix(9.963098,0,0,-9.963496,160.39606,89.076358)"/>
<path transform="matrix(1.00005,0,0,-1.00009,16.468873,553.4531)" d="M130.40958 488.98246C130.40958 499.98719 121.48874 508.908 110.48404 508.908 99.47932 508.908 90.5585 499.98719 90.5585 488.98246 90.5585 477.97776 99.47932 469.05693 110.48404 469.05693 121.48874 469.05693 130.40958 477.97776 130.40958 488.98246ZM110.48404 488.98246" fill="#f2f2f2"/>
<path transform="matrix(1.00005,0,0,-1.00009,16.468873,553.4531)" stroke-width=".3985" stroke-linecap="butt" stroke-miterlimit="10" stroke-linejoin="miter" fill="none" stroke="#7f807f" d="M130.40958 488.98246C130.40958 499.98719 121.48874 508.908 110.48404 508.908 99.47932 508.908 90.5585 499.98719 90.5585 488.98246 90.5585 477.97776 99.47932 469.05693 110.48404 469.05693 121.48874 469.05693 130.40958 477.97776 130.40958 488.98246ZM110.48404 488.98246"/>
<use data-text="F" xlink:href="#font_2_54" transform="matrix(9.963098,0,0,-9.963496,123.70523,67.81439)"/>
<path transform="matrix(1.00005,0,0,-1.00009,16.468873,553.4531)" d="M93.58154 510.24259C93.58154 521.24728 84.66072 530.1681 73.656 530.1681 62.65129 530.1681 53.73047 521.24728 53.73047 510.24259 53.73047 499.23786 62.65129 490.31703 73.656 490.31703 84.66072 490.31703 93.58154 499.23786 93.58154 510.24259ZM73.656 510.24259" fill="#f2f2f2"/>
<path transform="matrix(1.00005,0,0,-1.00009,16.468873,553.4531)" stroke-width=".3985" stroke-linecap="butt" stroke-miterlimit="10" stroke-linejoin="miter" fill="none" stroke="#7f807f" d="M93.58154 510.24259C93.58154 521.24728 84.66072 530.1681 73.656 530.1681 62.65129 530.1681 53.73047 521.24728 53.73047 510.24259 53.73047 499.23786 62.65129 490.31703 73.656 490.31703 84.66072 490.31703 93.58154 499.23786 93.58154 510.24259ZM73.656 510.24259"/>
<use data-text="G" xlink:href="#font_2_58" transform="matrix(9.963098,0,0,-9.963496,75.49182,45.932435)"/>
<use data-text="&#x266d;" xlink:href="#font_3_1" transform="matrix(9.963098,0,0,-9.963496,83.31321,45.932435)"/>
<use data-text="," xlink:href="#font_2_45" transform="matrix(9.963098,0,0,-9.963496,87.18741,45.932435)"/>
<use data-text="F" xlink:href="#font_2_54" transform="matrix(9.963098,0,0,-9.963496,89.957149,45.932435)"/>
<use data-text="#" xlink:href="#font_4_1" transform="matrix(9.963098,0,0,-9.963496,96.46387,45.932435)"/>
<path transform="matrix(1.00005,0,0,-1.00009,16.468873,553.4531)" d="M56.75354 531.5027C56.75354 542.5074 47.83272 551.4282 36.828 551.4282 25.82329 551.4282 16.90247 542.5074 16.90247 531.5027 16.90247 520.498 25.82329 511.57713 36.828 511.57713 47.83272 511.57713 56.75354 520.498 56.75354 531.5027ZM36.828 531.5027" fill="#f2f2f2"/>
<path transform="matrix(1.00005,0,0,-1.00009,16.468873,553.4531)" stroke-width=".3985" stroke-linecap="butt" stroke-miterlimit="10" stroke-linejoin="miter" fill="none" stroke="#7f807f" d="M56.75354 531.5027C56.75354 542.5074 47.83272 551.4282 36.828 551.4282 25.82329 551.4282 16.90247 542.5074 16.90247 531.5027 16.90247 520.498 25.82329 511.57713 36.828 511.57713 47.83272 511.57713 56.75354 520.498 56.75354 531.5027ZM36.828 531.5027"/>
<use data-text="G" xlink:href="#font_2_58" transform="matrix(9.963098,0,0,-9.963496,49.388517,25.305603)"/>
<path transform="matrix(1.00005,0,0,-1.00009,16.468873,553.4531)" stroke-width=".79701" stroke-linecap="butt" stroke-miterlimit="10" stroke-linejoin="miter" fill="none" stroke="#000000" d="M0 141.73404V538.5894"/>
<path transform="matrix(1.00005,0,0,-1.00009,16.468873,553.4531)" stroke-width=".79701" stroke-linecap="butt" stroke-miterlimit="10" stroke-linejoin="miter" fill="none" stroke="#000000" d="M-14.17339 141.73404V538.5894"/>
</svg>
