<svg xmlns="http://www.w3.org/2000/svg" xmlns:xlink="http://www.w3.org/1999/xlink" version="1.2" width="71.13mm" height="34.61mm" viewBox="0.0000 0.0280 57.8247 28.1368">
<style type="text/css">
<![CDATA[
tspan { white-space: pre; }
]]>
</style>
<g transform="translate(0.0000, 7.0280)">
<line stroke-linejoin="round" stroke-linecap="round" stroke-width="0.1282" stroke="currentColor" x1="0.0641" y1="0" x2="57.7606" y2="0"/>
</g>
<g transform="translate(0.0000, 6.0280)">
<line stroke-linejoin="round" stroke-linecap="round" stroke-width="0.1282" stroke="currentColor" x1="0.0641" y1="0" x2="57.7606" y2="0"/>
</g>
<g transform="translate(0.0000, 5.0280)">
<line stroke-linejoin="round" stroke-linecap="round" stroke-width="0.1282" stroke="currentColor" x1="0.0641" y1="0" x2="57.7606" y2="0"/>
</g>
<g transform="translate(0.0000, 4.0280)">
<line stroke-linejoin="round" stroke-linecap="round" stroke-width="0.1282" stroke="currentColor" x1="0.0641" y1="0" x2="57.7606" y2="0"/>
</g>
<g transform="translate(0.0000, 3.0280)">
<line stroke-linejoin="round" stroke-linecap="round" stroke-width="0.1282" stroke="currentColor" x1="0.0641" y1="0" x2="57.7606" y2="0"/>
</g>
<g transform="translate(33.9859, 5.0280)">
<rect x="0.0000" y="-2.0000" width="0.2435" height="4.0000" ry="0.0000" fill="currentColor"/>
</g>
<g transform="translate(47.0604, 5.0280)">
<rect x="0.0000" y="-2.0000" width="0.2435" height="4.0000" ry="0.0000" fill="currentColor"/>
</g>
<g transform="translate(21.2502, 5.0280)">
<rect x="0.0000" y="-2.0000" width="0.2435" height="4.0000" ry="0.0000" fill="currentColor"/>
</g>
<g transform="translate(57.5812, 5.0280)">
<rect x="0.0000" y="-2.0000" width="0.2435" height="4.0000" ry="0.0000" fill="currentColor"/>
</g>
<g transform="translate(56.9532, 5.0280)">
<rect x="0.0000" y="-2.0000" width="0.2435" height="4.0000" ry="0.0000" fill="currentColor"/>
</g>
<g transform="translate(0.0000, 1.0280)">
<rect x="54.6021" y="-0.1141" width="1.9471" height="0.2282" ry="0.1141" fill="currentColor"/>
</g>
<g transform="translate(0.0000, 2.0280)">
<rect x="54.6021" y="-0.1141" width="1.9471" height="0.2282" ry="0.1141" fill="currentColor"/>
</g>
<g transform="translate(0.0000, 2.0280)">
<rect x="51.7486" y="-0.1141" width="1.8143" height="0.2282" ry="0.1141" fill="currentColor"/>
</g>
<g transform="translate(0.0000, 2.0280)">
<rect x="48.7623" y="-0.1141" width="1.8143" height="0.2282" ry="0.1141" fill="currentColor"/>
</g>
<g transform="translate(0.0000, 8.0280)">
<rect x="9.3335" y="-0.1141" width="1.9471" height="0.2282" ry="0.1141" fill="currentColor"/>
</g>
<a style="color:inherit;" xlink:href="textedit:///workspaces/Build-testing/assets/notation/c-melodic-minor-two-octave.ly:50:48:49">
<g transform="translate(41.1760, 3.0280)">
<path transform="scale(0.0040, -0.0040)" d="M208 139c69 0 117 -40 117 -99c0 -91 -107 -179 -209 -179c-69 0 -116 40 -116 99c0 91 106 179 208 179z" fill="currentColor"/>
</g>
</a>
<a style="color:inherit;" xlink:href="textedit:///workspaces/Build-testing/assets/notation/c-melodic-minor-two-octave.ly:6:46:47">
<g transform="translate(40.5569, 10.5400)">
<text font-family="serif" font-size="1.9600" text-anchor="start" fill="currentColor">
<tspan>11</tspan>
</text>
</g>
</a>
<g transform="translate(41.2593, 5.0280)">
<rect x="-0.0833" y="-1.8382" width="0.1666" height="3.3382" ry="0.0571" fill="currentColor"/>
</g>
<a style="color:inherit;" xlink:href="textedit:///workspaces/Build-testing/assets/notation/c-melodic-minor-two-octave.ly:50:52:53">
<g transform="translate(44.1624, 2.5280)">
<path transform="scale(0.0040, -0.0040)" d="M208 139c69 0 117 -40 117 -99c0 -91 -107 -179 -209 -179c-69 0 -116 40 -116 99c0 91 106 179 208 179z" fill="currentColor"/>
</g>
</a>
<a style="color:inherit;" xlink:href="textedit:///workspaces/Build-testing/assets/notation/c-melodic-minor-two-octave.ly:6:51:52">
<g transform="translate(43.5432, 10.5400)">
<text font-family="serif" font-size="1.9600" text-anchor="start" fill="currentColor">
<tspan>12</tspan>
</text>
</g>
</a>
<g transform="translate(44.2457, 5.0280)">
<rect x="-0.0833" y="-2.3382" width="0.1666" height="3.3382" ry="0.0571" fill="currentColor"/>
</g>
<a style="color:inherit;" xlink:href="textedit:///workspaces/Build-testing/assets/notation/c-melodic-minor-two-octave.ly:50:56:57">
<g transform="translate(48.9539, 2.0280)">
<path transform="scale(0.0040, -0.0040)" d="M208 139c69 0 117 -40 117 -99c0 -91 -107 -179 -209 -179c-69 0 -116 40 -116 99c0 91 106 179 208 179z" fill="currentColor"/>
</g>
</a>
<a style="color:inherit;" xlink:href="textedit:///workspaces/Build-testing/assets/notation/c-melodic-minor-two-octave.ly:6:56:57">
<g transform="translate(48.3348, 10.5400)">
<text font-family="serif" font-size="1.9600" text-anchor="start" fill="currentColor">
<tspan>13</tspan>
</text>
</g>
</a>
<g transform="translate(49.0372, 5.0280)">
<rect x="-0.0833" y="-2.8382" width="0.1666" height="3.3382" ry="0.0571" fill="currentColor"/>
</g>
<a style="color:inherit;" xlink:href="textedit:///workspaces/Build-testing/assets/notation/c-melodic-minor-two-octave.ly:6:36:37">
<g transform="translate(35.3066, 10.5400)">
<text font-family="serif" font-size="1.9600" text-anchor="start" fill="currentColor">
<tspan>9</tspan>
</text>
</g>
</a>
<g transform="translate(35.3749, 5.0280)">
<rect x="-0.0833" y="-0.8382" width="0.1666" height="3.3382" ry="0.0571" fill="currentColor"/>
</g>
<a style="color:inherit;" xlink:href="textedit:///workspaces/Build-testing/assets/notation/c-melodic-minor-two-octave.ly:50:42:43">
<g transform="translate(38.1897, 3.5280)">
<path transform="scale(0.0040, -0.0040)" d="M208 139c69 0 117 -40 117 -99c0 -91 -107 -179 -209 -179c-69 0 -116 40 -116 99c0 91 106 179 208 179z" fill="currentColor"/>
</g>
</a>
<a style="color:inherit;" xlink:href="textedit:///workspaces/Build-testing/assets/notation/c-melodic-minor-two-octave.ly:6:41:42">
<g transform="translate(37.5705, 10.5400)">
<text font-family="serif" font-size="1.9600" text-anchor="start" fill="currentColor">
<tspan>10</tspan>
</text>
</g>
</a>
<g transform="translate(38.2730, 5.0280)">
<rect x="-0.0833" y="-1.3382" width="0.1666" height="3.3382" ry="0.0571" fill="currentColor"/>
</g>
<a style="color:inherit;" xlink:href="textedit:///workspaces/Build-testing/assets/notation/c-melodic-minor-two-octave.ly:6:61:62">
<g transform="translate(51.3212, 10.5400)">
<text font-family="serif" font-size="1.9600" text-anchor="start" fill="currentColor">
<tspan>14</tspan>
</text>
</g>
</a>
<g transform="translate(47.9039, 2.0280)">
<path transform="scale(0.0040, -0.0040)" d="M-8 375c8 5 18 7 27 7s20 -2 28 -7l-3 -196l99 24h4c11 0 20 -8 20 -19l8 -559c-8 -5 -19 -7 -28 -7s-19 2 -27 7l3 196l-99 -24h-5c-11 0 -19 8 -19 19zM127 109l-85 -20l-2 -198l84 20z" fill="currentColor"/>
</g>
<a style="color:inherit;" xlink:href="textedit:///workspaces/Build-testing/assets/notation/c-melodic-minor-two-octave.ly:50:60:61">
<g transform="translate(51.9403, 1.5280)">
<path transform="scale(0.0040, -0.0040)" d="M208 139c69 0 117 -40 117 -99c0 -91 -107 -179 -209 -179c-69 0 -116 40 -116 99c0 91 106 179 208 179z" fill="currentColor"/>
</g>
</a>
<g transform="translate(52.0236, 5.0280)">
<rect x="-0.0833" y="-3.3382" width="0.1666" height="3.3382" ry="0.0571" fill="currentColor"/>
</g>
<g transform="translate(50.8903, 1.5280)">
<path transform="scale(0.0040, -0.0040)" d="M-8 375c8 5 18 7 27 7s20 -2 28 -7l-3 -196l99 24h4c11 0 20 -8 20 -19l8 -559c-8 -5 -19 -7 -28 -7s-19 2 -27 7l3 196l-99 -24h-5c-11 0 -19 8 -19 19zM127 109l-85 -20l-2 -198l84 20z" fill="currentColor"/>
</g>
<a style="color:inherit;" xlink:href="textedit:///workspaces/Build-testing/assets/notation/c-melodic-minor-two-octave.ly:50:64:65">
<g transform="translate(54.9267, 1.0280)">
<path transform="scale(0.0040, -0.0040)" d="M208 139c69 0 117 -40 117 -99c0 -91 -107 -179 -209 -179c-69 0 -116 40 -116 99c0 91 106 179 208 179z" fill="currentColor"/>
</g>
</a>
<a style="color:inherit;" xlink:href="textedit:///workspaces/Build-testing/assets/notation/c-melodic-minor-two-octave.ly:6:66:67">
<g transform="translate(54.3075, 10.5400)">
<text font-family="serif" font-size="1.9600" text-anchor="start" fill="currentColor">
<tspan>15</tspan>
</text>
</g>
</a>
<g transform="translate(55.0100, 5.0280)">
<rect x="-0.0833" y="-3.8382" width="0.1666" height="3.8382" ry="0.0571" fill="currentColor"/>
</g>
<g transform="translate(10.8728, 5.0280)">
<rect x="-0.0833" y="-0.5000" width="0.1666" height="3.3382" ry="0.0571" fill="currentColor"/>
</g>
<a style="color:inherit;" xlink:href="textedit:///workspaces/Build-testing/assets/notation/c-melodic-minor-two-octave.ly:6:4:5">
<g transform="translate(9.6730, 10.5400)">
<text font-family="serif" font-size="1.9600" text-anchor="start" fill="currentColor">
<tspan>1</tspan>
</text>
</g>
</a>
<a style="color:inherit;" xlink:href="textedit:///workspaces/Build-testing/assets/notation/c-melodic-minor-two-octave.ly:50:22:23">
<g transform="translate(18.3522, 6.5280)">
<path transform="scale(0.0040, -0.0040)" d="M208 139c69 0 117 -40 117 -99c0 -91 -107 -179 -209 -179c-69 0 -116 40 -116 99c0 91 106 179 208 179z" fill="currentColor"/>
</g>
</a>
<a style="color:inherit;" xlink:href="textedit:///workspaces/Build-testing/assets/notation/c-melodic-minor-two-octave.ly:6:16:17">
<g transform="translate(18.3671, 10.5400)">
<text font-family="serif" font-size="1.9600" text-anchor="start" fill="currentColor">
<tspan>4</tspan>
</text>
</g>
</a>
<g transform="translate(19.5670, 5.0280)">
<rect x="-0.0833" y="-2.0000" width="0.1666" height="3.3382" ry="0.0571" fill="currentColor"/>
</g>
<a style="color:inherit;" xlink:href="textedit:///workspaces/Build-testing/assets/notation/c-melodic-minor-two-octave.ly:50:38:39">
<g transform="translate(35.2916, 4.0280)">
<path transform="scale(0.0040, -0.0040)" d="M208 139c69 0 117 -40 117 -99c0 -91 -107 -179 -209 -179c-69 0 -116 40 -116 99c0 91 106 179 208 179z" fill="currentColor"/>
</g>
</a>
<a style="color:inherit;" xlink:href="textedit:///workspaces/Build-testing/assets/notation/c-melodic-minor-two-octave.ly:50:25:26">
<g transform="translate(22.3937, 6.0280)">
<path transform="scale(0.0040, -0.0040)" d="M208 139c69 0 117 -40 117 -99c0 -91 -107 -179 -209 -179c-69 0 -116 40 -116 99c0 91 106 179 208 179z" fill="currentColor"/>
</g>
</a>
<a style="color:inherit;" xlink:href="textedit:///workspaces/Build-testing/assets/notation/c-melodic-minor-two-octave.ly:6:20:21">
<g transform="translate(22.4087, 10.5400)">
<text font-family="serif" font-size="1.9600" text-anchor="start" fill="currentColor">
<tspan>5</tspan>
</text>
</g>
</a>
<g transform="translate(23.6085, 5.0280)">
<rect x="-0.0833" y="-2.5000" width="0.1666" height="3.3382" ry="0.0571" fill="currentColor"/>
</g>
<a style="color:inherit;" xlink:href="textedit:///workspaces/Build-testing/assets/notation/c-melodic-minor-two-octave.ly:6:8:9">
<g transform="translate(12.5711, 10.5400)">
<text font-family="serif" font-size="1.9600" text-anchor="start" fill="currentColor">
<tspan>2</tspan>
</text>
</g>
</a>
<a style="color:inherit;" xlink:href="textedit:///workspaces/Build-testing/assets/notation/c-melodic-minor-two-octave.ly:50:14:15">
<g transform="translate(12.5561, 7.5280)">
<path transform="scale(0.0040, -0.0040)" d="M208 139c69 0 117 -40 117 -99c0 -91 -107 -179 -209 -179c-69 0 -116 40 -116 99c0 91 106 179 208 179z" fill="currentColor"/>
</g>
</a>
<g transform="translate(13.7709, 5.0280)">
<rect x="-0.0833" y="-1.0000" width="0.1666" height="3.3382" ry="0.0571" fill="currentColor"/>
</g>
<a style="color:inherit;" xlink:href="textedit:///workspaces/Build-testing/assets/notation/c-melodic-minor-two-octave.ly:50:17:18">
<g transform="translate(15.4541, 7.0280)">
<path transform="scale(0.0040, -0.0040)" d="M208 139c69 0 117 -40 117 -99c0 -91 -107 -179 -209 -179c-69 0 -116 40 -116 99c0 91 106 179 208 179z" fill="currentColor"/>
</g>
</a>
<a style="color:inherit;" xlink:href="textedit:///workspaces/Build-testing/assets/notation/c-melodic-minor-two-octave.ly:6:12:13">
<g transform="translate(15.4691, 10.5400)">
<text font-family="serif" font-size="1.9600" text-anchor="start" fill="currentColor">
<tspan>3</tspan>
</text>
</g>
</a>
<g transform="translate(16.6689, 5.0280)">
<rect x="-0.0833" y="-1.5000" width="0.1666" height="3.3382" ry="0.0571" fill="currentColor"/>
</g>
<a style="color:inherit;" xlink:href="textedit:///workspaces/Build-testing/assets/notation/c-melodic-minor-two-octave.ly:50:31:32">
<g transform="translate(28.1898, 5.0280)">
<path transform="scale(0.0040, -0.0040)" d="M208 139c69 0 117 -40 117 -99c0 -91 -107 -179 -209 -179c-69 0 -116 40 -116 99c0 91 106 179 208 179z" fill="currentColor"/>
</g>
</a>
<a style="color:inherit;" xlink:href="textedit:///workspaces/Build-testing/assets/notation/c-melodic-minor-two-octave.ly:6:28:29">
<g transform="translate(28.2048, 10.5400)">
<text font-family="serif" font-size="1.9600" text-anchor="start" fill="currentColor">
<tspan>7</tspan>
</text>
</g>
</a>
<g transform="translate(28.2731, 5.0280)">
<rect x="-0.0833" y="0.1618" width="0.1666" height="3.1715" ry="0.0571" fill="currentColor"/>
</g>
<g transform="translate(27.1398, 5.0280)">
<path transform="scale(0.0040, -0.0040)" d="M-8 375c8 5 18 7 27 7s20 -2 28 -7l-3 -196l99 24h4c11 0 20 -8 20 -19l8 -559c-8 -5 -19 -7 -28 -7s-19 2 -27 7l3 196l-99 -24h-5c-11 0 -19 8 -19 19zM127 109l-85 -20l-2 -198l84 20z" fill="currentColor"/>
</g>
<a style="color:inherit;" xlink:href="textedit:///workspaces/Build-testing/assets/notation/c-melodic-minor-two-octave.ly:50:34:35">
<g transform="translate(31.0879, 4.5280)">
<path transform="scale(0.0040, -0.0040)" d="M208 139c69 0 117 -40 117 -99c0 -91 -107 -179 -209 -179c-69 0 -116 40 -116 99c0 91 106 179 208 179z" fill="currentColor"/>
</g>
</a>
<a style="color:inherit;" xlink:href="textedit:///workspaces/Build-testing/assets/notation/c-melodic-minor-two-octave.ly:6:32:33">
<g transform="translate(31.1028, 10.5400)">
<text font-family="serif" font-size="1.9600" text-anchor="start" fill="currentColor">
<tspan>8</tspan>
</text>
</g>
</a>
<g transform="translate(31.1712, 5.0280)">
<rect x="-0.0833" y="-0.3382" width="0.1666" height="3.3382" ry="0.0571" fill="currentColor"/>
</g>
<a style="color:inherit;" xlink:href="textedit:///workspaces/Build-testing/assets/notation/c-melodic-minor-two-octave.ly:50:10:11">
<g transform="translate(9.6581, 8.0280)">
<path transform="scale(0.0040, -0.0040)" d="M208 139c69 0 117 -40 117 -99c0 -91 -107 -179 -209 -179c-69 0 -116 40 -116 99c0 91 106 179 208 179z" fill="currentColor"/>
</g>
</a>
<a style="color:inherit;" xlink:href="textedit:///workspaces/Build-testing/assets/notation/c-melodic-minor-two-octave.ly:47:6:7">
<g transform="translate(4.4527, 5.0280)">
<path transform="scale(0.0040, -0.0040)" d="M33 35l-2 -60v-11c0 -21 2 -43 5 -64c42 38 87 81 87 138c0 32 -13 63 -41 63c-31 0 -48 -32 -49 -66zM32 446l-9 -337c25 26 59 40 95 40c50 0 82 -51 82 -105c0 -77 -80 -117 -137 -169c-18 -17 -26 -48 -52 -48c-16 0 -28 15 -28 32l-15 587c10 6 21 8 32 8
s22 -2 32 -8z" fill="currentColor"/>
</g>
<g transform="translate(5.4054, 3.5280)">
<path transform="scale(0.0040, -0.0040)" d="M33 35l-2 -60v-11c0 -21 2 -43 5 -64c42 38 87 81 87 138c0 32 -13 63 -41 63c-31 0 -48 -32 -49 -66zM32 446l-9 -337c25 26 59 40 95 40c50 0 82 -51 82 -105c0 -77 -80 -117 -137 -169c-18 -17 -26 -48 -52 -48c-16 0 -28 15 -28 32l-15 587c10 6 21 8 32 8
s22 -2 32 -8z" fill="currentColor"/>
</g>
<g transform="translate(6.3580, 5.5280)">
<path transform="scale(0.0040, -0.0040)" d="M33 35l-2 -60v-11c0 -21 2 -43 5 -64c42 38 87 81 87 138c0 32 -13 63 -41 63c-31 0 -48 -32 -49 -66zM32 446l-9 -337c25 26 59 40 95 40c50 0 82 -51 82 -105c0 -77 -80 -117 -137 -169c-18 -17 -26 -48 -52 -48c-16 0 -28 15 -28 32l-15 587c10 6 21 8 32 8
s22 -2 32 -8z" fill="currentColor"/>
</g>
</a>
<g transform="translate(0.8000, 6.0280)">
<path transform="scale(0.0040, -0.0040)" d="M648 2c0 -114 -74 -214 -179 -248c2 -32 3 -65 3 -97c0 -21 -1 -43 -2 -64c-7 -123 -92 -230 -211 -230c-108 0 -197 88 -197 197c0 58 54 104 113 104c54 0 95 -48 95 -104c0 -52 -43 -95 -95 -95c-8 0 -16 2 -24 4c25 -35 65 -59 111 -59c93 0 155 90 161 190
c1 20 2 39 2 59c0 28 -1 55 -3 83c-5 -1 -43 -7 -87 -7c-194 0 -333 181 -333 377c0 176 128 307 242 443c-36 105 -58 171 -58 348c0 113 54 219 146 286c8 6 21 7 29 0c69 -78 136 -242 136 -357c0 -141 -83 -253 -174 -362c22 -67 41 -135 58 -204h9
c157 0 258 -130 258 -264zM464 -200c62 24 108 86 108 159c0 87 -62 173 -163 187c28 -132 47 -265 55 -346zM338 -218c1 0 46 0 80 6c-7 68 -26 209 -58 359c-79 -7 -123 -59 -123 -116c0 -43 24 -89 78 -120c5 -5 8 -11 8 -17c0 -13 -11 -24 -24 -24
c-17 0 -129 63 -129 189c0 90 60 178 164 201c-14 56 -30 112 -47 167c-104 -122 -208 -245 -208 -404c0 -143 140 -241 259 -241zM239 782c0 -43 15 -102 41 -183c77 97 140 199 140 323c0 58 -8 83 -19 113c-99 -45 -162 -145 -162 -253z" fill="currentColor"/>
</g>
<a style="color:inherit;" xlink:href="textedit:///workspaces/Build-testing/assets/notation/c-melodic-minor-two-octave.ly:50:28:29">
<g transform="translate(25.2918, 5.5280)">
<path transform="scale(0.0040, -0.0040)" d="M208 139c69 0 117 -40 117 -99c0 -91 -107 -179 -209 -179c-69 0 -116 40 -116 99c0 91 106 179 208 179z" fill="currentColor"/>
</g>
</a>
<a style="color:inherit;" xlink:href="textedit:///workspaces/Build-testing/assets/notation/c-melodic-minor-two-octave.ly:6:24:25">
<g transform="translate(25.3067, 10.5400)">
<text font-family="serif" font-size="1.9600" text-anchor="start" fill="currentColor">
<tspan>6</tspan>
</text>
</g>
</a>
<g transform="translate(26.5066, 5.0280)">
<rect x="-0.0833" y="-3.0000" width="0.1666" height="3.3382" ry="0.0571" fill="currentColor"/>
</g>
<g transform="translate(24.2553, 5.5280)">
<path transform="scale(0.0040, -0.0040)" d="M-8 375c8 5 18 7 27 7s20 -2 28 -7l-3 -196l99 24h4c11 0 20 -8 20 -19l8 -559c-8 -5 -19 -7 -28 -7s-19 2 -27 7l3 196l-99 -24h-5c-11 0 -19 8 -19 19zM127 109l-85 -20l-2 -198l84 20z" fill="currentColor"/>
</g>
<g transform="translate(0.0000, 24.6250)">
<line stroke-linejoin="round" stroke-linecap="round" stroke-width="0.1282" stroke="currentColor" x1="0.0641" y1="0" x2="57.1442" y2="0"/>
</g>
<g transform="translate(0.0000, 23.6250)">
<line stroke-linejoin="round" stroke-linecap="round" stroke-width="0.1282" stroke="currentColor" x1="0.0641" y1="0" x2="57.1442" y2="0"/>
</g>
<g transform="translate(0.0000, 22.6250)">
<line stroke-linejoin="round" stroke-linecap="round" stroke-width="0.1282" stroke="currentColor" x1="0.0641" y1="0" x2="57.1442" y2="0"/>
</g>
<g transform="translate(0.0000, 21.6250)">
<line stroke-linejoin="round" stroke-linecap="round" stroke-width="0.1282" stroke="currentColor" x1="0.0641" y1="0" x2="57.1442" y2="0"/>
</g>
<g transform="translate(0.0000, 20.6250)">
<line stroke-linejoin="round" stroke-linecap="round" stroke-width="0.1282" stroke="currentColor" x1="0.0641" y1="0" x2="57.1442" y2="0"/>
</g>
<g transform="translate(34.1767, 22.6250)">
<rect x="0.0000" y="-2.0000" width="0.2435" height="4.0000" ry="0.0000" fill="currentColor"/>
</g>
<g transform="translate(47.1940, 22.6250)">
<rect x="0.0000" y="-2.0000" width="0.2435" height="4.0000" ry="0.0000" fill="currentColor"/>
</g>
<g transform="translate(21.2502, 22.6250)">
<rect x="0.0000" y="-2.0000" width="0.2435" height="4.0000" ry="0.0000" fill="currentColor"/>
</g>
<g transform="translate(56.9648, 22.6250)">
<rect x="0.0000" y="-2.0000" width="0.2435" height="4.0000" ry="0.0000" fill="currentColor"/>
</g>
<g transform="translate(56.3368, 22.6250)">
<rect x="0.0000" y="-2.0000" width="0.2435" height="4.0000" ry="0.0000" fill="currentColor"/>
</g>
<g transform="translate(0.0000, 25.6250)">
<rect x="53.9857" y="-0.1141" width="1.9471" height="0.2282" ry="0.1141" fill="currentColor"/>
</g>
<g transform="translate(0.0000, 19.6250)">
<rect x="15.1296" y="-0.1141" width="1.9471" height="0.2282" ry="0.1141" fill="currentColor"/>
</g>
<g transform="translate(0.0000, 19.6250)">
<rect x="12.2316" y="-0.1141" width="1.9471" height="0.2282" ry="0.1141" fill="currentColor"/>
</g>
<g transform="translate(0.0000, 18.6250)">
<rect x="9.3335" y="-0.1141" width="1.9471" height="0.2282" ry="0.1141" fill="currentColor"/>
</g>
<g transform="translate(0.0000, 19.6250)">
<rect x="9.3335" y="-0.1141" width="1.9471" height="0.2282" ry="0.1141" fill="currentColor"/>
</g>
<a style="color:inherit;" xlink:href="textedit:///workspaces/Build-testing/assets/notation/c-melodic-minor-two-octave.ly:66:60:61">
<g transform="translate(41.3096, 23.6250)">
<path transform="scale(0.0040, -0.0040)" d="M208 139c69 0 117 -40 117 -99c0 -91 -107 -179 -209 -179c-69 0 -116 40 -116 99c0 91 106 179 208 179z" fill="currentColor"/>
</g>
</a>
<a style="color:inherit;" xlink:href="textedit:///workspaces/Build-testing/assets/notation/c-melodic-minor-two-octave.ly:10:46:47">
<g transform="translate(40.6905, 28.1371)">
<text font-family="serif" font-size="1.9600" text-anchor="start" fill="currentColor">
<tspan>11</tspan>
</text>
</g>
</a>
<g transform="translate(42.5244, 22.6250)">
<rect x="-0.0833" y="-2.5000" width="0.1666" height="3.3382" ry="0.0571" fill="currentColor"/>
</g>
<a style="color:inherit;" xlink:href="textedit:///workspaces/Build-testing/assets/notation/c-melodic-minor-two-octave.ly:66:63:64">
<g transform="translate(44.2960, 24.1250)">
<path transform="scale(0.0040, -0.0040)" d="M208 139c69 0 117 -40 117 -99c0 -91 -107 -179 -209 -179c-69 0 -116 40 -116 99c0 91 106 179 208 179z" fill="currentColor"/>
</g>
</a>
<a style="color:inherit;" xlink:href="textedit:///workspaces/Build-testing/assets/notation/c-melodic-minor-two-octave.ly:10:51:52">
<g transform="translate(43.6769, 28.1371)">
<text font-family="serif" font-size="1.9600" text-anchor="start" fill="currentColor">
<tspan>12</tspan>
</text>
</g>
</a>
<g transform="translate(45.5108, 22.6250)">
<rect x="-0.0833" y="-2.0000" width="0.1666" height="3.3382" ry="0.0571" fill="currentColor"/>
</g>
<a style="color:inherit;" xlink:href="textedit:///workspaces/Build-testing/assets/notation/c-melodic-minor-two-octave.ly:66:66:67">
<g transform="translate(48.3375, 24.6250)">
<path transform="scale(0.0040, -0.0040)" d="M208 139c69 0 117 -40 117 -99c0 -91 -107 -179 -209 -179c-69 0 -116 40 -116 99c0 91 106 179 208 179z" fill="currentColor"/>
</g>
</a>
<a style="color:inherit;" xlink:href="textedit:///workspaces/Build-testing/assets/notation/c-melodic-minor-two-octave.ly:10:56:57">
<g transform="translate(47.7184, 28.1371)">
<text font-family="serif" font-size="1.9600" text-anchor="start" fill="currentColor">
<tspan>13</tspan>
</text>
</g>
</a>
<g transform="translate(49.5523, 22.6250)">
<rect x="-0.0833" y="-1.5000" width="0.1666" height="3.3382" ry="0.0571" fill="currentColor"/>
</g>
<a style="color:inherit;" xlink:href="textedit:///workspaces/Build-testing/assets/notation/c-melodic-minor-two-octave.ly:10:36:37">
<g transform="translate(35.4402, 28.1371)">
<text font-family="serif" font-size="1.9600" text-anchor="start" fill="currentColor">
<tspan>9</tspan>
</text>
</g>
</a>
<g transform="translate(35.5085, 22.6250)">
<rect x="-0.0833" y="0.1618" width="0.1666" height="3.1715" ry="0.0571" fill="currentColor"/>
</g>
<a style="color:inherit;" xlink:href="textedit:///workspaces/Build-testing/assets/notation/c-melodic-minor-two-octave.ly:66:55:56">
<g transform="translate(38.3233, 23.1250)">
<path transform="scale(0.0040, -0.0040)" d="M208 139c69 0 117 -40 117 -99c0 -91 -107 -179 -209 -179c-69 0 -116 40 -116 99c0 91 106 179 208 179z" fill="currentColor"/>
</g>
</a>
<a style="color:inherit;" xlink:href="textedit:///workspaces/Build-testing/assets/notation/c-melodic-minor-two-octave.ly:10:41:42">
<g transform="translate(37.7041, 28.1371)">
<text font-family="serif" font-size="1.9600" text-anchor="start" fill="currentColor">
<tspan>10</tspan>
</text>
</g>
</a>
<g transform="translate(39.5381, 22.6250)">
<rect x="-0.0833" y="-3.0000" width="0.1666" height="3.3382" ry="0.0571" fill="currentColor"/>
</g>
<a style="color:inherit;" xlink:href="textedit:///workspaces/Build-testing/assets/notation/c-melodic-minor-two-octave.ly:10:61:62">
<g transform="translate(50.7048, 28.1371)">
<text font-family="serif" font-size="1.9600" text-anchor="start" fill="currentColor">
<tspan>14</tspan>
</text>
</g>
</a>
<a style="color:inherit;" xlink:href="textedit:///workspaces/Build-testing/assets/notation/c-melodic-minor-two-octave.ly:66:71:72">
<g transform="translate(51.3239, 25.1250)">
<path transform="scale(0.0040, -0.0040)" d="M208 139c69 0 117 -40 117 -99c0 -91 -107 -179 -209 -179c-69 0 -116 40 -116 99c0 91 106 179 208 179z" fill="currentColor"/>
</g>
</a>
<g transform="translate(52.5387, 22.6250)">
<rect x="-0.0833" y="-1.0000" width="0.1666" height="3.3382" ry="0.0571" fill="currentColor"/>
</g>
<a style="color:inherit;" xlink:href="textedit:///workspaces/Build-testing/assets/notation/c-melodic-minor-two-octave.ly:66:74:75">
<g transform="translate(54.3103, 25.6250)">
<path transform="scale(0.0040, -0.0040)" d="M208 139c69 0 117 -40 117 -99c0 -91 -107 -179 -209 -179c-69 0 -116 40 -116 99c0 91 106 179 208 179z" fill="currentColor"/>
</g>
</a>
<a style="color:inherit;" xlink:href="textedit:///workspaces/Build-testing/assets/notation/c-melodic-minor-two-octave.ly:10:66:67">
<g transform="translate(53.6911, 28.1371)">
<text font-family="serif" font-size="1.9600" text-anchor="start" fill="currentColor">
<tspan>15</tspan>
</text>
</g>
</a>
<g transform="translate(55.5251, 22.6250)">
<rect x="-0.0833" y="-0.5000" width="0.1666" height="3.3382" ry="0.0571" fill="currentColor"/>
</g>
<a style="color:inherit;" xlink:href="textedit:///workspaces/Build-testing/assets/notation/c-melodic-minor-two-octave.ly:66:16:17">
<g transform="translate(12.5561, 19.1250)">
<path transform="scale(0.0040, -0.0040)" d="M208 139c69 0 117 -40 117 -99c0 -91 -107 -179 -209 -179c-69 0 -116 40 -116 99c0 91 106 179 208 179z" fill="currentColor"/>
</g>
</a>
<a style="color:inherit;" xlink:href="textedit:///workspaces/Build-testing/assets/notation/c-melodic-minor-two-octave.ly:10:8:9">
<g transform="translate(12.5711, 28.1371)">
<text font-family="serif" font-size="1.9600" text-anchor="start" fill="currentColor">
<tspan>2</tspan>
</text>
</g>
</a>
<g transform="translate(12.6394, 22.6250)">
<rect x="-0.0833" y="-3.3382" width="0.1666" height="3.3382" ry="0.0571" fill="currentColor"/>
</g>
<a style="color:inherit;" xlink:href="textedit:///workspaces/Build-testing/assets/notation/c-melodic-minor-two-octave.ly:66:22:23">
<g transform="translate(15.4541, 19.6250)">
<path transform="scale(0.0040, -0.0040)" d="M208 139c69 0 117 -40 117 -99c0 -91 -107 -179 -209 -179c-69 0 -116 40 -116 99c0 91 106 179 208 179z" fill="currentColor"/>
</g>
</a>
<a style="color:inherit;" xlink:href="textedit:///workspaces/Build-testing/assets/notation/c-melodic-minor-two-octave.ly:10:12:13">
<g transform="translate(15.4691, 28.1371)">
<text font-family="serif" font-size="1.9600" text-anchor="start" fill="currentColor">
<tspan>3</tspan>
</text>
</g>
</a>
<g transform="translate(15.5374, 22.6250)">
<rect x="-0.0833" y="-2.8382" width="0.1666" height="3.3382" ry="0.0571" fill="currentColor"/>
</g>
<a style="color:inherit;" xlink:href="textedit:///workspaces/Build-testing/assets/notation/c-melodic-minor-two-octave.ly:66:28:29">
<g transform="translate(18.3522, 20.1250)">
<path transform="scale(0.0040, -0.0040)" d="M208 139c69 0 117 -40 117 -99c0 -91 -107 -179 -209 -179c-69 0 -116 40 -116 99c0 91 106 179 208 179z" fill="currentColor"/>
</g>
</a>
<a style="color:inherit;" xlink:href="textedit:///workspaces/Build-testing/assets/notation/c-melodic-minor-two-octave.ly:10:16:17">
<g transform="translate(18.3671, 28.1371)">
<text font-family="serif" font-size="1.9600" text-anchor="start" fill="currentColor">
<tspan>4</tspan>
</text>
</g>
</a>
<g transform="translate(18.4355, 22.6250)">
<rect x="-0.0833" y="-2.3382" width="0.1666" height="3.3382" ry="0.0571" fill="currentColor"/>
</g>
<a style="color:inherit;" xlink:href="textedit:///workspaces/Build-testing/assets/notation/c-melodic-minor-two-octave.ly:66:50:51">
<g transform="translate(35.4252, 22.6250)">
<path transform="scale(0.0040, -0.0040)" d="M208 139c69 0 117 -40 117 -99c0 -91 -107 -179 -209 -179c-69 0 -116 40 -116 99c0 91 106 179 208 179z" fill="currentColor"/>
</g>
</a>
<a style="color:inherit;" xlink:href="textedit:///workspaces/Build-testing/assets/notation/c-melodic-minor-two-octave.ly:66:32:33">
<g transform="translate(22.5845, 20.6250)">
<path transform="scale(0.0040, -0.0040)" d="M208 139c69 0 117 -40 117 -99c0 -91 -107 -179 -209 -179c-69 0 -116 40 -116 99c0 91 106 179 208 179z" fill="currentColor"/>
</g>
</a>
<g transform="translate(9.7414, 22.6250)">
<rect x="-0.0833" y="-3.8382" width="0.1666" height="3.8382" ry="0.0571" fill="currentColor"/>
</g>
<a style="color:inherit;" xlink:href="textedit:///workspaces/Build-testing/assets/notation/c-melodic-minor-two-octave.ly:66:10:11">
<g transform="translate(9.6581, 18.6250)">
<path transform="scale(0.0040, -0.0040)" d="M208 139c69 0 117 -40 117 -99c0 -91 -107 -179 -209 -179c-69 0 -116 40 -116 99c0 91 106 179 208 179z" fill="currentColor"/>
</g>
</a>
<g transform="translate(0.8000, 23.6250)">
<path transform="scale(0.0040, -0.0040)" d="M648 2c0 -114 -74 -214 -179 -248c2 -32 3 -65 3 -97c0 -21 -1 -43 -2 -64c-7 -123 -92 -230 -211 -230c-108 0 -197 88 -197 197c0 58 54 104 113 104c54 0 95 -48 95 -104c0 -52 -43 -95 -95 -95c-8 0 -16 2 -24 4c25 -35 65 -59 111 -59c93 0 155 90 161 190
c1 20 2 39 2 59c0 28 -1 55 -3 83c-5 -1 -43 -7 -87 -7c-194 0 -333 181 -333 377c0 176 128 307 242 443c-36 105 -58 171 -58 348c0 113 54 219 146 286c8 6 21 7 29 0c69 -78 136 -242 136 -357c0 -141 -83 -253 -174 -362c22 -67 41 -135 58 -204h9
c157 0 258 -130 258 -264zM464 -200c62 24 108 86 108 159c0 87 -62 173 -163 187c28 -132 47 -265 55 -346zM338 -218c1 0 46 0 80 6c-7 68 -26 209 -58 359c-79 -7 -123 -59 -123 -116c0 -43 24 -89 78 -120c5 -5 8 -11 8 -17c0 -13 -11 -24 -24 -24
c-17 0 -129 63 -129 189c0 90 60 178 164 201c-14 56 -30 112 -47 167c-104 -122 -208 -245 -208 -404c0 -143 140 -241 259 -241zM239 782c0 -43 15 -102 41 -183c77 97 140 199 140 323c0 58 -8 83 -19 113c-99 -45 -162 -145 -162 -253z" fill="currentColor"/>
</g>
<a style="color:inherit;" xlink:href="textedit:///workspaces/Build-testing/assets/notation/c-melodic-minor-two-octave.ly:63:6:7">
<g transform="translate(4.4527, 22.6250)">
<path transform="scale(0.0040, -0.0040)" d="M33 35l-2 -60v-11c0 -21 2 -43 5 -64c42 38 87 81 87 138c0 32 -13 63 -41 63c-31 0 -48 -32 -49 -66zM32 446l-9 -337c25 26 59 40 95 40c50 0 82 -51 82 -105c0 -77 -80 -117 -137 -169c-18 -17 -26 -48 -52 -48c-16 0 -28 15 -28 32l-15 587c10 6 21 8 32 8
s22 -2 32 -8z" fill="currentColor"/>
</g>
<g transform="translate(5.4054, 21.1250)">
<path transform="scale(0.0040, -0.0040)" d="M33 35l-2 -60v-11c0 -21 2 -43 5 -64c42 38 87 81 87 138c0 32 -13 63 -41 63c-31 0 -48 -32 -49 -66zM32 446l-9 -337c25 26 59 40 95 40c50 0 82 -51 82 -105c0 -77 -80 -117 -137 -169c-18 -17 -26 -48 -52 -48c-16 0 -28 15 -28 32l-15 587c10 6 21 8 32 8
s22 -2 32 -8z" fill="currentColor"/>
</g>
<g transform="translate(6.3580, 23.1250)">
<path transform="scale(0.0040, -0.0040)" d="M33 35l-2 -60v-11c0 -21 2 -43 5 -64c42 38 87 81 87 138c0 32 -13 63 -41 63c-31 0 -48 -32 -49 -66zM32 446l-9 -337c25 26 59 40 95 40c50 0 82 -51 82 -105c0 -77 -80 -117 -137 -169c-18 -17 -26 -48 -52 -48c-16 0 -28 15 -28 32l-15 587c10 6 21 8 32 8
s22 -2 32 -8z" fill="currentColor"/>
</g>
</a>
<a style="color:inherit;" xlink:href="textedit:///workspaces/Build-testing/assets/notation/c-melodic-minor-two-octave.ly:10:4:5">
<g transform="translate(9.6730, 28.1371)">
<text font-family="serif" font-size="1.9600" text-anchor="start" fill="currentColor">
<tspan>1</tspan>
</text>
</g>
</a>
<g transform="translate(31.3619, 22.6250)">
<rect x="-0.0833" y="-0.3382" width="0.1666" height="3.3382" ry="0.0571" fill="currentColor"/>
</g>
<a style="color:inherit;" xlink:href="textedit:///workspaces/Build-testing/assets/notation/c-melodic-minor-two-octave.ly:10:32:33">
<g transform="translate(31.2936, 28.1371)">
<text font-family="serif" font-size="1.9600" text-anchor="start" fill="currentColor">
<tspan>8</tspan>
</text>
</g>
</a>
<a style="color:inherit;" xlink:href="textedit:///workspaces/Build-testing/assets/notation/c-melodic-minor-two-octave.ly:66:46:47">
<g transform="translate(31.2786, 22.1250)">
<path transform="scale(0.0040, -0.0040)" d="M208 139c69 0 117 -40 117 -99c0 -91 -107 -179 -209 -179c-69 0 -116 40 -116 99c0 91 106 179 208 179z" fill="currentColor"/>
</g>
</a>
<a style="color:inherit;" xlink:href="textedit:///workspaces/Build-testing/assets/notation/c-melodic-minor-two-octave.ly:66:36:37">
<g transform="translate(25.4825, 21.1250)">
<path transform="scale(0.0040, -0.0040)" d="M208 139c69 0 117 -40 117 -99c0 -91 -107 -179 -209 -179c-69 0 -116 40 -116 99c0 91 106 179 208 179z" fill="currentColor"/>
</g>
</a>
<a style="color:inherit;" xlink:href="textedit:///workspaces/Build-testing/assets/notation/c-melodic-minor-two-octave.ly:10:24:25">
<g transform="translate(25.4975, 28.1371)">
<text font-family="serif" font-size="1.9600" text-anchor="start" fill="currentColor">
<tspan>6</tspan>
</text>
</g>
</a>
<g transform="translate(25.5658, 22.6250)">
<rect x="-0.0833" y="-1.3382" width="0.1666" height="3.3382" ry="0.0571" fill="currentColor"/>
</g>
<a style="color:inherit;" xlink:href="textedit:///workspaces/Build-testing/assets/notation/c-melodic-minor-two-octave.ly:66:42:43">
<g transform="translate(28.3806, 21.6250)">
<path transform="scale(0.0040, -0.0040)" d="M208 139c69 0 117 -40 117 -99c0 -91 -107 -179 -209 -179c-69 0 -116 40 -116 99c0 91 106 179 208 179z" fill="currentColor"/>
</g>
</a>
<g transform="translate(28.4639, 22.6250)">
<rect x="-0.0833" y="-0.8382" width="0.1666" height="3.3382" ry="0.0571" fill="currentColor"/>
</g>
<a style="color:inherit;" xlink:href="textedit:///workspaces/Build-testing/assets/notation/c-melodic-minor-two-octave.ly:10:28:29">
<g transform="translate(28.3955, 28.1371)">
<text font-family="serif" font-size="1.9600" text-anchor="start" fill="currentColor">
<tspan>7</tspan>
</text>
</g>
</a>
<a style="color:inherit;" xlink:href="textedit:///workspaces/Build-testing/assets/notation/c-melodic-minor-two-octave.ly:10:20:21">
<g transform="translate(22.5995, 28.1371)">
<text font-family="serif" font-size="1.9600" text-anchor="start" fill="currentColor">
<tspan>5</tspan>
</text>
</g>
</a>
<g transform="translate(22.6678, 22.6250)">
<rect x="-0.0833" y="-1.8382" width="0.1666" height="3.3382" ry="0.0571" fill="currentColor"/>
</g>
</svg>
