<svg xmlns="http://www.w3.org/2000/svg" xmlns:xlink="http://www.w3.org/1999/xlink" version="1.2" width="58.31mm" height="30.78mm" viewBox="0.0000 -0.0240 55.3050 29.1894">
<style type="text/css">
<![CDATA[
tspan { white-space: pre; }
]]>
</style>
<g transform="translate(0.0000, 5.7760)">
<line stroke-linejoin="round" stroke-linecap="round" stroke-width="0.1438" stroke="currentColor" x1="0.0719" y1="0" x2="55.2331" y2="0"/>
</g>
<g transform="translate(0.0000, 4.7760)">
<line stroke-linejoin="round" stroke-linecap="round" stroke-width="0.1438" stroke="currentColor" x1="0.0719" y1="0" x2="55.2331" y2="0"/>
</g>
<g transform="translate(0.0000, 3.7760)">
<line stroke-linejoin="round" stroke-linecap="round" stroke-width="0.1438" stroke="currentColor" x1="0.0719" y1="0" x2="55.2331" y2="0"/>
</g>
<g transform="translate(0.0000, 2.7760)">
<line stroke-linejoin="round" stroke-linecap="round" stroke-width="0.1438" stroke="currentColor" x1="0.0719" y1="0" x2="55.2331" y2="0"/>
</g>
<g transform="translate(0.0000, 1.7760)">
<line stroke-linejoin="round" stroke-linecap="round" stroke-width="0.1438" stroke="currentColor" x1="0.0719" y1="0" x2="55.2331" y2="0"/>
</g>
<g transform="translate(32.2576, 3.7760)">
<rect x="0.0000" y="-2.0000" width="0.2732" height="4.0000" ry="0.0000" fill="currentColor"/>
</g>
<g transform="translate(45.1346, 3.7760)">
<rect x="0.0000" y="-2.0000" width="0.2732" height="4.0000" ry="0.0000" fill="currentColor"/>
</g>
<g transform="translate(19.4922, 3.7760)">
<rect x="0.0000" y="-2.0000" width="0.2732" height="4.0000" ry="0.0000" fill="currentColor"/>
</g>
<g transform="translate(55.0318, 3.7760)">
<rect x="0.0000" y="-2.0000" width="0.2732" height="4.0000" ry="0.0000" fill="currentColor"/>
</g>
<g transform="translate(54.3271, 3.7760)">
<rect x="0.0000" y="-2.0000" width="0.2732" height="4.0000" ry="0.0000" fill="currentColor"/>
</g>
<g transform="translate(0.0000, 6.7760)">
<rect x="16.2705" y="-0.1219" width="1.9416" height="0.2438" ry="0.1219" fill="currentColor"/>
</g>
<g transform="translate(0.0000, 6.7760)">
<rect x="13.3725" y="-0.1219" width="1.9416" height="0.2438" ry="0.1219" fill="currentColor"/>
</g>
<g transform="translate(0.0000, 6.7760)">
<rect x="10.4745" y="-0.1219" width="1.9416" height="0.2438" ry="0.1219" fill="currentColor"/>
</g>
<g transform="translate(0.0000, 7.7760)">
<rect x="10.4745" y="-0.1219" width="1.9416" height="0.2438" ry="0.1219" fill="currentColor"/>
</g>
<g transform="translate(0.0000, 6.7760)">
<rect x="7.5764" y="-0.1219" width="1.9416" height="0.2438" ry="0.1219" fill="currentColor"/>
</g>
<g transform="translate(0.0000, 7.7760)">
<rect x="7.5764" y="-0.1219" width="1.9416" height="0.2438" ry="0.1219" fill="currentColor"/>
</g>
<a style="color:inherit;" xlink:href="textedit:///workspaces/Build-testing/assets/notation/g-major-scale-two-octave.ly:51:40:41">
<g transform="translate(39.2827, 3.2760)">
<path transform="scale(0.0040, -0.0040)" d="M204 141c70 0 120 -41 120 -103c0 -91 -104 -179 -205 -179c-70 0 -119 41 -119 103c0 91 103 179 204 179z" fill="currentColor"/>
</g>
</a>
<a style="color:inherit;" xlink:href="textedit:///workspaces/Build-testing/assets/notation/g-major-scale-two-octave.ly:6:46:47">
<g transform="translate(38.6780, 10.7930)">
<text font-family="serif" font-size="1.9594" text-anchor="start" fill="currentColor">
<tspan>11</tspan>
</text>
</g>
</a>
<g transform="translate(39.3762, 3.7760)">
<rect x="-0.0935" y="-0.3496" width="0.1870" height="3.3496" ry="0.0667" fill="currentColor"/>
</g>
<a style="color:inherit;" xlink:href="textedit:///workspaces/Build-testing/assets/notation/g-major-scale-two-octave.ly:51:44:45">
<g transform="translate(42.2366, 2.7760)">
<path transform="scale(0.0040, -0.0040)" d="M204 141c70 0 120 -41 120 -103c0 -91 -104 -179 -205 -179c-70 0 -119 41 -119 103c0 91 103 179 204 179z" fill="currentColor"/>
</g>
</a>
<a style="color:inherit;" xlink:href="textedit:///workspaces/Build-testing/assets/notation/g-major-scale-two-octave.ly:6:51:52">
<g transform="translate(41.6319, 10.7930)">
<text font-family="serif" font-size="1.9594" text-anchor="start" fill="currentColor">
<tspan>12</tspan>
</text>
</g>
</a>
<g transform="translate(42.3301, 3.7760)">
<rect x="-0.0935" y="-0.8496" width="0.1870" height="3.3496" ry="0.0667" fill="currentColor"/>
</g>
<a style="color:inherit;" xlink:href="textedit:///workspaces/Build-testing/assets/notation/g-major-scale-two-octave.ly:51:48:49">
<g transform="translate(46.4993, 2.2760)">
<path transform="scale(0.0040, -0.0040)" d="M204 141c70 0 120 -41 120 -103c0 -91 -104 -179 -205 -179c-70 0 -119 41 -119 103c0 91 103 179 204 179z" fill="currentColor"/>
</g>
</a>
<a style="color:inherit;" xlink:href="textedit:///workspaces/Build-testing/assets/notation/g-major-scale-two-octave.ly:6:56:57">
<g transform="translate(45.8945, 10.7930)">
<text font-family="serif" font-size="1.9594" text-anchor="start" fill="currentColor">
<tspan>13</tspan>
</text>
</g>
</a>
<g transform="translate(46.5927, 3.7760)">
<rect x="-0.0935" y="-1.3496" width="0.1870" height="3.3496" ry="0.0667" fill="currentColor"/>
</g>
<a style="color:inherit;" xlink:href="textedit:///workspaces/Build-testing/assets/notation/g-major-scale-two-octave.ly:6:36:37">
<g transform="translate(33.4521, 10.7930)">
<text font-family="serif" font-size="1.9594" text-anchor="start" fill="currentColor">
<tspan>9</tspan>
</text>
</g>
</a>
<g transform="translate(34.6318, 3.7760)">
<rect x="-0.0935" y="-3.0000" width="0.1870" height="3.3496" ry="0.0667" fill="currentColor"/>
</g>
<a style="color:inherit;" xlink:href="textedit:///workspaces/Build-testing/assets/notation/g-major-scale-two-octave.ly:51:37:38">
<g transform="translate(36.3289, 3.7760)">
<path transform="scale(0.0040, -0.0040)" d="M204 141c70 0 120 -41 120 -103c0 -91 -104 -179 -205 -179c-70 0 -119 41 -119 103c0 91 103 179 204 179z" fill="currentColor"/>
</g>
</a>
<a style="color:inherit;" xlink:href="textedit:///workspaces/Build-testing/assets/notation/g-major-scale-two-octave.ly:6:41:42">
<g transform="translate(35.7242, 10.7930)">
<text font-family="serif" font-size="1.9594" text-anchor="start" fill="currentColor">
<tspan>10</tspan>
</text>
</g>
</a>
<g transform="translate(36.4224, 3.7760)">
<rect x="-0.0935" y="0.1504" width="0.1870" height="3.1829" ry="0.0667" fill="currentColor"/>
</g>
<a style="color:inherit;" xlink:href="textedit:///workspaces/Build-testing/assets/notation/g-major-scale-two-octave.ly:6:61:62">
<g transform="translate(48.8484, 10.7930)">
<text font-family="serif" font-size="1.9594" text-anchor="start" fill="currentColor">
<tspan>14</tspan>
</text>
</g>
</a>
<a style="color:inherit;" xlink:href="textedit:///workspaces/Build-testing/assets/notation/g-major-scale-two-octave.ly:51:52:53">
<g transform="translate(49.4531, 1.7760)">
<path transform="scale(0.0040, -0.0040)" d="M204 141c70 0 120 -41 120 -103c0 -91 -104 -179 -205 -179c-70 0 -119 41 -119 103c0 91 103 179 204 179z" fill="currentColor"/>
</g>
</a>
<g transform="translate(49.5466, 3.7760)">
<rect x="-0.0935" y="-1.8496" width="0.1870" height="3.3496" ry="0.0667" fill="currentColor"/>
</g>
<a style="color:inherit;" xlink:href="textedit:///workspaces/Build-testing/assets/notation/g-major-scale-two-octave.ly:51:58:59">
<g transform="translate(52.4069, 1.2760)">
<path transform="scale(0.0040, -0.0040)" d="M204 141c70 0 120 -41 120 -103c0 -91 -104 -179 -205 -179c-70 0 -119 41 -119 103c0 91 103 179 204 179z" fill="currentColor"/>
</g>
</a>
<a style="color:inherit;" xlink:href="textedit:///workspaces/Build-testing/assets/notation/g-major-scale-two-octave.ly:6:66:67">
<g transform="translate(51.8022, 10.7930)">
<text font-family="serif" font-size="1.9594" text-anchor="start" fill="currentColor">
<tspan>15</tspan>
</text>
</g>
</a>
<g transform="translate(52.5004, 3.7760)">
<rect x="-0.0935" y="-2.3496" width="0.1870" height="3.3496" ry="0.0667" fill="currentColor"/>
</g>
<a style="color:inherit;" xlink:href="textedit:///workspaces/Build-testing/assets/notation/g-major-scale-two-octave.ly:51:13:14">
<g transform="translate(10.7981, 7.7760)">
<path transform="scale(0.0040, -0.0040)" d="M204 141c70 0 120 -41 120 -103c0 -91 -104 -179 -205 -179c-70 0 -119 41 -119 103c0 91 103 179 204 179z" fill="currentColor"/>
</g>
</a>
<a style="color:inherit;" xlink:href="textedit:///workspaces/Build-testing/assets/notation/g-major-scale-two-octave.ly:6:8:9">
<g transform="translate(10.8193, 10.7930)">
<text font-family="serif" font-size="1.9594" text-anchor="start" fill="currentColor">
<tspan>2</tspan>
</text>
</g>
</a>
<g transform="translate(11.9990, 3.7760)">
<rect x="-0.0935" y="-0.0000" width="0.1870" height="3.8496" ry="0.0667" fill="currentColor"/>
</g>
<a style="color:inherit;" xlink:href="textedit:///workspaces/Build-testing/assets/notation/g-major-scale-two-octave.ly:51:15:16">
<g transform="translate(13.6961, 7.2760)">
<path transform="scale(0.0040, -0.0040)" d="M204 141c70 0 120 -41 120 -103c0 -91 -104 -179 -205 -179c-70 0 -119 41 -119 103c0 91 103 179 204 179z" fill="currentColor"/>
</g>
</a>
<a style="color:inherit;" xlink:href="textedit:///workspaces/Build-testing/assets/notation/g-major-scale-two-octave.ly:6:12:13">
<g transform="translate(13.7173, 10.7930)">
<text font-family="serif" font-size="1.9594" text-anchor="start" fill="currentColor">
<tspan>3</tspan>
</text>
</g>
</a>
<g transform="translate(14.8970, 3.7760)">
<rect x="-0.0935" y="-0.0000" width="0.1870" height="3.3496" ry="0.0667" fill="currentColor"/>
</g>
<a style="color:inherit;" xlink:href="textedit:///workspaces/Build-testing/assets/notation/g-major-scale-two-octave.ly:51:17:18">
<g transform="translate(16.5941, 6.7760)">
<path transform="scale(0.0040, -0.0040)" d="M204 141c70 0 120 -41 120 -103c0 -91 -104 -179 -205 -179c-70 0 -119 41 -119 103c0 91 103 179 204 179z" fill="currentColor"/>
</g>
</a>
<a style="color:inherit;" xlink:href="textedit:///workspaces/Build-testing/assets/notation/g-major-scale-two-octave.ly:6:16:17">
<g transform="translate(16.6154, 10.7930)">
<text font-family="serif" font-size="1.9594" text-anchor="start" fill="currentColor">
<tspan>4</tspan>
</text>
</g>
</a>
<g transform="translate(17.7951, 3.7760)">
<rect x="-0.0935" y="-0.5000" width="0.1870" height="3.3496" ry="0.0667" fill="currentColor"/>
</g>
<a style="color:inherit;" xlink:href="textedit:///workspaces/Build-testing/assets/notation/g-major-scale-two-octave.ly:51:34:35">
<g transform="translate(33.4308, 4.2760)">
<path transform="scale(0.0040, -0.0040)" d="M204 141c70 0 120 -41 120 -103c0 -91 -104 -179 -205 -179c-70 0 -119 41 -119 103c0 91 103 179 204 179z" fill="currentColor"/>
</g>
</a>
<a style="color:inherit;" xlink:href="textedit:///workspaces/Build-testing/assets/notation/g-major-scale-two-octave.ly:51:20:21">
<g transform="translate(20.6654, 6.2760)">
<path transform="scale(0.0040, -0.0040)" d="M204 141c70 0 120 -41 120 -103c0 -91 -104 -179 -205 -179c-70 0 -119 41 -119 103c0 91 103 179 204 179z" fill="currentColor"/>
</g>
</a>
<g transform="translate(9.1009, 3.7760)">
<rect x="-0.0935" y="-0.0000" width="0.1870" height="4.3496" ry="0.0667" fill="currentColor"/>
</g>
<a style="color:inherit;" xlink:href="textedit:///workspaces/Build-testing/assets/notation/g-major-scale-two-octave.ly:51:10:11">
<g transform="translate(7.9000, 8.2760)">
<path transform="scale(0.0040, -0.0040)" d="M204 141c70 0 120 -41 120 -103c0 -91 -104 -179 -205 -179c-70 0 -119 41 -119 103c0 91 103 179 204 179z" fill="currentColor"/>
</g>
</a>
<g transform="translate(0.8000, 4.7760)">
<path transform="scale(0.0040, -0.0040)" d="M181 905c0 182 139 289 161 289c6 0 11 -2 16 -6c69 -77 137 -241 137 -356c0 -141 -80 -253 -170 -362c22 -67 41 -135 58 -203h7c158 0 259 -130 259 -265c0 -115 -75 -215 -179 -249c2 -31 4 -63 4 -94c0 -22 -1 -44 -2 -66c-8 -123 -94 -231 -214 -231
c-109 0 -197 88 -197 197c0 58 53 104 112 104c54 0 95 -48 95 -104c0 -52 -43 -95 -95 -95c-7 0 -13 1 -20 3c25 -34 64 -56 108 -56c92 0 155 89 161 189c1 20 2 41 2 61c0 27 -1 53 -3 80c-5 -1 -43 -8 -86 -8c-195 0 -333 183 -333 379c0 176 126 308 239 444
c-39 110 -60 172 -60 349zM466 -199c8 3 105 45 105 158c0 85 -61 169 -159 185c27 -130 46 -261 54 -343zM338 -217c1 0 46 1 80 6c-7 70 -26 211 -57 357c-78 -7 -123 -59 -123 -116c0 -42 25 -87 78 -118c6 -5 8 -12 8 -18c0 -13 -11 -25 -25 -25c-17 0 -130 63 -130 190
c0 91 60 180 165 203c-14 55 -30 109 -47 163c-103 -123 -206 -246 -206 -405c0 -142 140 -237 257 -237zM236 781c0 -41 16 -99 43 -179c76 97 138 199 138 322c0 54 -8 76 -19 106c-99 -44 -162 -141 -162 -249z" fill="currentColor"/>
</g>
<a style="color:inherit;" xlink:href="textedit:///workspaces/Build-testing/assets/notation/g-major-scale-two-octave.ly:47:6:7">
<g transform="translate(4.3000, 1.7760)">
<path transform="scale(0.0040, -0.0040)" d="M0 112c0 13 8 25 20 30l34 13v148c0 13 10 24 23 24s24 -11 24 -24v-129l73 29v148c0 13 11 24 24 24s23 -11 23 -24v-129l10 4c4 2 8 2 12 2c17 0 32 -14 32 -32v-46c0 -13 -8 -24 -20 -29l-34 -14v-148l10 4c4 2 8 3 12 3c17 0 32 -14 32 -32v-46c0 -13 -8 -25 -20 -30
l-34 -13v-148c0 -13 -10 -24 -23 -24s-24 11 -24 24v129l-73 -29v-148c0 -13 -11 -24 -24 -24s-23 11 -23 24v129l-10 -4c-4 -2 -8 -2 -12 -2c-17 0 -32 14 -32 32v46c0 13 8 24 20 29l34 14v148l-10 -4c-4 -2 -8 -3 -12 -3c-17 0 -32 14 -32 32v46zM174 89l-73 -30v-148
l73 30v148z" fill="currentColor"/>
</g>
</a>
<a style="color:inherit;" xlink:href="textedit:///workspaces/Build-testing/assets/notation/g-major-scale-two-octave.ly:6:4:5">
<g transform="translate(7.9213, 10.7930)">
<text font-family="serif" font-size="1.9594" text-anchor="start" fill="currentColor">
<tspan>1</tspan>
</text>
</g>
</a>
<g transform="translate(30.5605, 3.7760)">
<rect x="-0.0935" y="-2.5000" width="0.1870" height="3.3496" ry="0.0667" fill="currentColor"/>
</g>
<a style="color:inherit;" xlink:href="textedit:///workspaces/Build-testing/assets/notation/g-major-scale-two-octave.ly:6:32:33">
<g transform="translate(29.3808, 10.7930)">
<text font-family="serif" font-size="1.9594" text-anchor="start" fill="currentColor">
<tspan>8</tspan>
</text>
</g>
</a>
<a style="color:inherit;" xlink:href="textedit:///workspaces/Build-testing/assets/notation/g-major-scale-two-octave.ly:51:31:32">
<g transform="translate(29.3596, 4.7760)">
<path transform="scale(0.0040, -0.0040)" d="M204 141c70 0 120 -41 120 -103c0 -91 -104 -179 -205 -179c-70 0 -119 41 -119 103c0 91 103 179 204 179z" fill="currentColor"/>
</g>
</a>
<a style="color:inherit;" xlink:href="textedit:///workspaces/Build-testing/assets/notation/g-major-scale-two-octave.ly:51:23:24">
<g transform="translate(23.5635, 5.7760)">
<path transform="scale(0.0040, -0.0040)" d="M204 141c70 0 120 -41 120 -103c0 -91 -104 -179 -205 -179c-70 0 -119 41 -119 103c0 91 103 179 204 179z" fill="currentColor"/>
</g>
</a>
<a style="color:inherit;" xlink:href="textedit:///workspaces/Build-testing/assets/notation/g-major-scale-two-octave.ly:6:24:25">
<g transform="translate(23.5847, 10.7930)">
<text font-family="serif" font-size="1.9594" text-anchor="start" fill="currentColor">
<tspan>6</tspan>
</text>
</g>
</a>
<g transform="translate(24.7644, 3.7760)">
<rect x="-0.0935" y="-1.5000" width="0.1870" height="3.3496" ry="0.0667" fill="currentColor"/>
</g>
<a style="color:inherit;" xlink:href="textedit:///workspaces/Build-testing/assets/notation/g-major-scale-two-octave.ly:51:26:27">
<g transform="translate(26.4615, 5.2760)">
<path transform="scale(0.0040, -0.0040)" d="M204 141c70 0 120 -41 120 -103c0 -91 -104 -179 -205 -179c-70 0 -119 41 -119 103c0 91 103 179 204 179z" fill="currentColor"/>
</g>
</a>
<g transform="translate(27.6624, 3.7760)">
<rect x="-0.0935" y="-2.0000" width="0.1870" height="3.3496" ry="0.0667" fill="currentColor"/>
</g>
<a style="color:inherit;" xlink:href="textedit:///workspaces/Build-testing/assets/notation/g-major-scale-two-octave.ly:6:28:29">
<g transform="translate(26.4828, 10.7930)">
<text font-family="serif" font-size="1.9594" text-anchor="start" fill="currentColor">
<tspan>7</tspan>
</text>
</g>
</a>
<a style="color:inherit;" xlink:href="textedit:///workspaces/Build-testing/assets/notation/g-major-scale-two-octave.ly:6:20:21">
<g transform="translate(20.6867, 10.7930)">
<text font-family="serif" font-size="1.9594" text-anchor="start" fill="currentColor">
<tspan>5</tspan>
</text>
</g>
</a>
<g transform="translate(21.8664, 3.7760)">
<rect x="-0.0935" y="-1.0000" width="0.1870" height="3.3496" ry="0.0667" fill="currentColor"/>
</g>
<g transform="translate(0.0000, 24.1207)">
<line stroke-linejoin="round" stroke-linecap="round" stroke-width="0.1438" stroke="currentColor" x1="0.0719" y1="0" x2="55.1759" y2="0"/>
</g>
<g transform="translate(0.0000, 23.1207)">
<line stroke-linejoin="round" stroke-linecap="round" stroke-width="0.1438" stroke="currentColor" x1="0.0719" y1="0" x2="55.1759" y2="0"/>
</g>
<g transform="translate(0.0000, 22.1207)">
<line stroke-linejoin="round" stroke-linecap="round" stroke-width="0.1438" stroke="currentColor" x1="0.0719" y1="0" x2="55.1759" y2="0"/>
</g>
<g transform="translate(0.0000, 21.1207)">
<line stroke-linejoin="round" stroke-linecap="round" stroke-width="0.1438" stroke="currentColor" x1="0.0719" y1="0" x2="55.1759" y2="0"/>
</g>
<g transform="translate(0.0000, 20.1207)">
<line stroke-linejoin="round" stroke-linecap="round" stroke-width="0.1438" stroke="currentColor" x1="0.0719" y1="0" x2="55.1759" y2="0"/>
</g>
<g transform="translate(32.3919, 22.1207)">
<rect x="0.0000" y="-2.0000" width="0.2732" height="4.0000" ry="0.0000" fill="currentColor"/>
</g>
<g transform="translate(45.2689, 22.1207)">
<rect x="0.0000" y="-2.0000" width="0.2732" height="4.0000" ry="0.0000" fill="currentColor"/>
</g>
<g transform="translate(19.4922, 22.1207)">
<rect x="0.0000" y="-2.0000" width="0.2732" height="4.0000" ry="0.0000" fill="currentColor"/>
</g>
<g transform="translate(54.9746, 22.1207)">
<rect x="0.0000" y="-2.0000" width="0.2732" height="4.0000" ry="0.0000" fill="currentColor"/>
</g>
<g transform="translate(54.2699, 22.1207)">
<rect x="0.0000" y="-2.0000" width="0.2732" height="4.0000" ry="0.0000" fill="currentColor"/>
</g>
<g transform="translate(0.0000, 25.1207)">
<rect x="52.0262" y="-0.1219" width="1.9416" height="0.2438" ry="0.1219" fill="currentColor"/>
</g>
<g transform="translate(0.0000, 26.1207)">
<rect x="52.0262" y="-0.1219" width="1.9416" height="0.2438" ry="0.1219" fill="currentColor"/>
</g>
<g transform="translate(0.0000, 25.1207)">
<rect x="49.0724" y="-0.1219" width="1.9416" height="0.2438" ry="0.1219" fill="currentColor"/>
</g>
<g transform="translate(0.0000, 26.1207)">
<rect x="49.0724" y="-0.1219" width="1.9416" height="0.2438" ry="0.1219" fill="currentColor"/>
</g>
<g transform="translate(0.0000, 25.1207)">
<rect x="46.1185" y="-0.1219" width="1.9416" height="0.2438" ry="0.1219" fill="currentColor"/>
</g>
<g transform="translate(0.0000, 25.1207)">
<rect x="42.0472" y="-0.1219" width="1.9416" height="0.2438" ry="0.1219" fill="currentColor"/>
</g>
<a style="color:inherit;" xlink:href="textedit:///workspaces/Build-testing/assets/notation/g-major-scale-two-octave.ly:69:50:51">
<g transform="translate(39.4170, 24.6207)">
<path transform="scale(0.0040, -0.0040)" d="M204 141c70 0 120 -41 120 -103c0 -91 -104 -179 -205 -179c-70 0 -119 41 -119 103c0 91 103 179 204 179z" fill="currentColor"/>
</g>
</a>
<a style="color:inherit;" xlink:href="textedit:///workspaces/Build-testing/assets/notation/g-major-scale-two-octave.ly:10:46:47">
<g transform="translate(38.8123, 29.1377)">
<text font-family="serif" font-size="1.9594" text-anchor="start" fill="currentColor">
<tspan>11</tspan>
</text>
</g>
</a>
<g transform="translate(40.6179, 22.1207)">
<rect x="-0.0935" y="-1.0000" width="0.1870" height="3.3496" ry="0.0667" fill="currentColor"/>
</g>
<a style="color:inherit;" xlink:href="textedit:///workspaces/Build-testing/assets/notation/g-major-scale-two-octave.ly:69:53:54">
<g transform="translate(42.3708, 25.1207)">
<path transform="scale(0.0040, -0.0040)" d="M204 141c70 0 120 -41 120 -103c0 -91 -104 -179 -205 -179c-70 0 -119 41 -119 103c0 91 103 179 204 179z" fill="currentColor"/>
</g>
</a>
<a style="color:inherit;" xlink:href="textedit:///workspaces/Build-testing/assets/notation/g-major-scale-two-octave.ly:10:51:52">
<g transform="translate(41.7661, 29.1377)">
<text font-family="serif" font-size="1.9594" text-anchor="start" fill="currentColor">
<tspan>12</tspan>
</text>
</g>
</a>
<g transform="translate(43.5718, 22.1207)">
<rect x="-0.0935" y="-0.5000" width="0.1870" height="3.3496" ry="0.0667" fill="currentColor"/>
</g>
<a style="color:inherit;" xlink:href="textedit:///workspaces/Build-testing/assets/notation/g-major-scale-two-octave.ly:69:56:57">
<g transform="translate(46.4421, 25.6207)">
<path transform="scale(0.0040, -0.0040)" d="M204 141c70 0 120 -41 120 -103c0 -91 -104 -179 -205 -179c-70 0 -119 41 -119 103c0 91 103 179 204 179z" fill="currentColor"/>
</g>
</a>
<a style="color:inherit;" xlink:href="textedit:///workspaces/Build-testing/assets/notation/g-major-scale-two-octave.ly:10:56:57">
<g transform="translate(45.8374, 29.1377)">
<text font-family="serif" font-size="1.9594" text-anchor="start" fill="currentColor">
<tspan>13</tspan>
</text>
</g>
</a>
<g transform="translate(47.6430, 22.1207)">
<rect x="-0.0935" y="-0.0000" width="0.1870" height="3.3496" ry="0.0667" fill="currentColor"/>
</g>
<a style="color:inherit;" xlink:href="textedit:///workspaces/Build-testing/assets/notation/g-major-scale-two-octave.ly:10:36:37">
<g transform="translate(33.5863, 29.1377)">
<text font-family="serif" font-size="1.9594" text-anchor="start" fill="currentColor">
<tspan>9</tspan>
</text>
</g>
</a>
<g transform="translate(34.7660, 22.1207)">
<rect x="-0.0935" y="-2.0000" width="0.1870" height="3.3496" ry="0.0667" fill="currentColor"/>
</g>
<a style="color:inherit;" xlink:href="textedit:///workspaces/Build-testing/assets/notation/g-major-scale-two-octave.ly:69:47:48">
<g transform="translate(36.4632, 24.1207)">
<path transform="scale(0.0040, -0.0040)" d="M204 141c70 0 120 -41 120 -103c0 -91 -104 -179 -205 -179c-70 0 -119 41 -119 103c0 91 103 179 204 179z" fill="currentColor"/>
</g>
</a>
<a style="color:inherit;" xlink:href="textedit:///workspaces/Build-testing/assets/notation/g-major-scale-two-octave.ly:10:41:42">
<g transform="translate(35.8584, 29.1377)">
<text font-family="serif" font-size="1.9594" text-anchor="start" fill="currentColor">
<tspan>10</tspan>
</text>
</g>
</a>
<g transform="translate(37.6641, 22.1207)">
<rect x="-0.0935" y="-1.5000" width="0.1870" height="3.3496" ry="0.0667" fill="currentColor"/>
</g>
<a style="color:inherit;" xlink:href="textedit:///workspaces/Build-testing/assets/notation/g-major-scale-two-octave.ly:10:61:62">
<g transform="translate(48.7912, 29.1377)">
<text font-family="serif" font-size="1.9594" text-anchor="start" fill="currentColor">
<tspan>14</tspan>
</text>
</g>
</a>
<a style="color:inherit;" xlink:href="textedit:///workspaces/Build-testing/assets/notation/g-major-scale-two-octave.ly:69:58:59">
<g transform="translate(49.3960, 26.1207)">
<path transform="scale(0.0040, -0.0040)" d="M204 141c70 0 120 -41 120 -103c0 -91 -104 -179 -205 -179c-70 0 -119 41 -119 103c0 91 103 179 204 179z" fill="currentColor"/>
</g>
</a>
<g transform="translate(50.5969, 22.1207)">
<rect x="-0.0935" y="-0.0000" width="0.1870" height="3.8496" ry="0.0667" fill="currentColor"/>
</g>
<a style="color:inherit;" xlink:href="textedit:///workspaces/Build-testing/assets/notation/g-major-scale-two-octave.ly:69:60:61">
<g transform="translate(52.3498, 26.6207)">
<path transform="scale(0.0040, -0.0040)" d="M204 141c70 0 120 -41 120 -103c0 -91 -104 -179 -205 -179c-70 0 -119 41 -119 103c0 91 103 179 204 179z" fill="currentColor"/>
</g>
</a>
<a style="color:inherit;" xlink:href="textedit:///workspaces/Build-testing/assets/notation/g-major-scale-two-octave.ly:10:66:67">
<g transform="translate(51.7451, 29.1377)">
<text font-family="serif" font-size="1.9594" text-anchor="start" fill="currentColor">
<tspan>15</tspan>
</text>
</g>
</a>
<g transform="translate(53.5507, 22.1207)">
<rect x="-0.0935" y="-0.0000" width="0.1870" height="4.3496" ry="0.0667" fill="currentColor"/>
</g>
<a style="color:inherit;" xlink:href="textedit:///workspaces/Build-testing/assets/notation/g-major-scale-two-octave.ly:69:15:16">
<g transform="translate(10.7981, 20.1207)">
<path transform="scale(0.0040, -0.0040)" d="M204 141c70 0 120 -41 120 -103c0 -91 -104 -179 -205 -179c-70 0 -119 41 -119 103c0 91 103 179 204 179z" fill="currentColor"/>
</g>
</a>
<a style="color:inherit;" xlink:href="textedit:///workspaces/Build-testing/assets/notation/g-major-scale-two-octave.ly:10:8:9">
<g transform="translate(10.8193, 29.1377)">
<text font-family="serif" font-size="1.9594" text-anchor="start" fill="currentColor">
<tspan>2</tspan>
</text>
</g>
</a>
<g transform="translate(10.8915, 22.1207)">
<rect x="-0.0935" y="-1.8496" width="0.1870" height="3.3496" ry="0.0667" fill="currentColor"/>
</g>
<a style="color:inherit;" xlink:href="textedit:///workspaces/Build-testing/assets/notation/g-major-scale-two-octave.ly:69:21:22">
<g transform="translate(13.6961, 20.6207)">
<path transform="scale(0.0040, -0.0040)" d="M204 141c70 0 120 -41 120 -103c0 -91 -104 -179 -205 -179c-70 0 -119 41 -119 103c0 91 103 179 204 179z" fill="currentColor"/>
</g>
</a>
<a style="color:inherit;" xlink:href="textedit:///workspaces/Build-testing/assets/notation/g-major-scale-two-octave.ly:10:12:13">
<g transform="translate(13.7173, 29.1377)">
<text font-family="serif" font-size="1.9594" text-anchor="start" fill="currentColor">
<tspan>3</tspan>
</text>
</g>
</a>
<g transform="translate(13.7896, 22.1207)">
<rect x="-0.0935" y="-1.3496" width="0.1870" height="3.3496" ry="0.0667" fill="currentColor"/>
</g>
<a style="color:inherit;" xlink:href="textedit:///workspaces/Build-testing/assets/notation/g-major-scale-two-octave.ly:69:25:26">
<g transform="translate(16.5941, 21.1207)">
<path transform="scale(0.0040, -0.0040)" d="M204 141c70 0 120 -41 120 -103c0 -91 -104 -179 -205 -179c-70 0 -119 41 -119 103c0 91 103 179 204 179z" fill="currentColor"/>
</g>
</a>
<a style="color:inherit;" xlink:href="textedit:///workspaces/Build-testing/assets/notation/g-major-scale-two-octave.ly:10:16:17">
<g transform="translate(16.6154, 29.1377)">
<text font-family="serif" font-size="1.9594" text-anchor="start" fill="currentColor">
<tspan>4</tspan>
</text>
</g>
</a>
<g transform="translate(16.6876, 22.1207)">
<rect x="-0.0935" y="-0.8496" width="0.1870" height="3.3496" ry="0.0667" fill="currentColor"/>
</g>
<a style="color:inherit;" xlink:href="textedit:///workspaces/Build-testing/assets/notation/g-major-scale-two-octave.ly:69:42:43">
<g transform="translate(33.5651, 23.6207)">
<path transform="scale(0.0040, -0.0040)" d="M204 141c70 0 120 -41 120 -103c0 -91 -104 -179 -205 -179c-70 0 -119 41 -119 103c0 91 103 179 204 179z" fill="currentColor"/>
</g>
</a>
<a style="color:inherit;" xlink:href="textedit:///workspaces/Build-testing/assets/notation/g-major-scale-two-octave.ly:69:29:30">
<g transform="translate(20.7997, 21.6207)">
<path transform="scale(0.0040, -0.0040)" d="M204 141c70 0 120 -41 120 -103c0 -91 -104 -179 -205 -179c-70 0 -119 41 -119 103c0 91 103 179 204 179z" fill="currentColor"/>
</g>
</a>
<g transform="translate(7.9935, 22.1207)">
<rect x="-0.0935" y="-2.3496" width="0.1870" height="3.3496" ry="0.0667" fill="currentColor"/>
</g>
<a style="color:inherit;" xlink:href="textedit:///workspaces/Build-testing/assets/notation/g-major-scale-two-octave.ly:69:10:11">
<g transform="translate(7.9000, 19.6207)">
<path transform="scale(0.0040, -0.0040)" d="M204 141c70 0 120 -41 120 -103c0 -91 -104 -179 -205 -179c-70 0 -119 41 -119 103c0 91 103 179 204 179z" fill="currentColor"/>
</g>
</a>
<g transform="translate(0.8000, 23.1207)">
<path transform="scale(0.0040, -0.0040)" d="M181 905c0 182 139 289 161 289c6 0 11 -2 16 -6c69 -77 137 -241 137 -356c0 -141 -80 -253 -170 -362c22 -67 41 -135 58 -203h7c158 0 259 -130 259 -265c0 -115 -75 -215 -179 -249c2 -31 4 -63 4 -94c0 -22 -1 -44 -2 -66c-8 -123 -94 -231 -214 -231
c-109 0 -197 88 -197 197c0 58 53 104 112 104c54 0 95 -48 95 -104c0 -52 -43 -95 -95 -95c-7 0 -13 1 -20 3c25 -34 64 -56 108 -56c92 0 155 89 161 189c1 20 2 41 2 61c0 27 -1 53 -3 80c-5 -1 -43 -8 -86 -8c-195 0 -333 183 -333 379c0 176 126 308 239 444
c-39 110 -60 172 -60 349zM466 -199c8 3 105 45 105 158c0 85 -61 169 -159 185c27 -130 46 -261 54 -343zM338 -217c1 0 46 1 80 6c-7 70 -26 211 -57 357c-78 -7 -123 -59 -123 -116c0 -42 25 -87 78 -118c6 -5 8 -12 8 -18c0 -13 -11 -25 -25 -25c-17 0 -130 63 -130 190
c0 91 60 180 165 203c-14 55 -30 109 -47 163c-103 -123 -206 -246 -206 -405c0 -142 140 -237 257 -237zM236 781c0 -41 16 -99 43 -179c76 97 138 199 138 322c0 54 -8 76 -19 106c-99 -44 -162 -141 -162 -249z" fill="currentColor"/>
</g>
<a style="color:inherit;" xlink:href="textedit:///workspaces/Build-testing/assets/notation/g-major-scale-two-octave.ly:65:6:7">
<g transform="translate(4.3000, 20.1207)">
<path transform="scale(0.0040, -0.0040)" d="M0 112c0 13 8 25 20 30l34 13v148c0 13 10 24 23 24s24 -11 24 -24v-129l73 29v148c0 13 11 24 24 24s23 -11 23 -24v-129l10 4c4 2 8 2 12 2c17 0 32 -14 32 -32v-46c0 -13 -8 -24 -20 -29l-34 -14v-148l10 4c4 2 8 3 12 3c17 0 32 -14 32 -32v-46c0 -13 -8 -25 -20 -30
l-34 -13v-148c0 -13 -10 -24 -23 -24s-24 11 -24 24v129l-73 -29v-148c0 -13 -11 -24 -24 -24s-23 11 -23 24v129l-10 -4c-4 -2 -8 -2 -12 -2c-17 0 -32 14 -32 32v46c0 13 8 24 20 29l34 14v148l-10 -4c-4 -2 -8 -3 -12 -3c-17 0 -32 14 -32 32v46zM174 89l-73 -30v-148
l73 30v148z" fill="currentColor"/>
</g>
</a>
<a style="color:inherit;" xlink:href="textedit:///workspaces/Build-testing/assets/notation/g-major-scale-two-octave.ly:10:4:5">
<g transform="translate(7.9213, 29.1377)">
<text font-family="serif" font-size="1.9594" text-anchor="start" fill="currentColor">
<tspan>1</tspan>
</text>
</g>
</a>
<g transform="translate(30.6948, 22.1207)">
<rect x="-0.0935" y="-2.5000" width="0.1870" height="3.3496" ry="0.0667" fill="currentColor"/>
</g>
<a style="color:inherit;" xlink:href="textedit:///workspaces/Build-testing/assets/notation/g-major-scale-two-octave.ly:10:32:33">
<g transform="translate(29.5151, 29.1377)">
<text font-family="serif" font-size="1.9594" text-anchor="start" fill="currentColor">
<tspan>8</tspan>
</text>
</g>
</a>
<a style="color:inherit;" xlink:href="textedit:///workspaces/Build-testing/assets/notation/g-major-scale-two-octave.ly:69:39:40">
<g transform="translate(29.4938, 23.1207)">
<path transform="scale(0.0040, -0.0040)" d="M204 141c70 0 120 -41 120 -103c0 -91 -104 -179 -205 -179c-70 0 -119 41 -119 103c0 91 103 179 204 179z" fill="currentColor"/>
</g>
</a>
<a style="color:inherit;" xlink:href="textedit:///workspaces/Build-testing/assets/notation/g-major-scale-two-octave.ly:69:33:34">
<g transform="translate(23.6977, 22.1207)">
<path transform="scale(0.0040, -0.0040)" d="M204 141c70 0 120 -41 120 -103c0 -91 -104 -179 -205 -179c-70 0 -119 41 -119 103c0 91 103 179 204 179z" fill="currentColor"/>
</g>
</a>
<a style="color:inherit;" xlink:href="textedit:///workspaces/Build-testing/assets/notation/g-major-scale-two-octave.ly:10:24:25">
<g transform="translate(23.7190, 29.1377)">
<text font-family="serif" font-size="1.9594" text-anchor="start" fill="currentColor">
<tspan>6</tspan>
</text>
</g>
</a>
<g transform="translate(23.7912, 22.1207)">
<rect x="-0.0935" y="0.1504" width="0.1870" height="3.1829" ry="0.0667" fill="currentColor"/>
</g>
<a style="color:inherit;" xlink:href="textedit:///workspaces/Build-testing/assets/notation/g-major-scale-two-octave.ly:69:36:37">
<g transform="translate(26.5958, 22.6207)">
<path transform="scale(0.0040, -0.0040)" d="M204 141c70 0 120 -41 120 -103c0 -91 -104 -179 -205 -179c-70 0 -119 41 -119 103c0 91 103 179 204 179z" fill="currentColor"/>
</g>
</a>
<g transform="translate(27.7967, 22.1207)">
<rect x="-0.0935" y="-3.0000" width="0.1870" height="3.3496" ry="0.0667" fill="currentColor"/>
</g>
<a style="color:inherit;" xlink:href="textedit:///workspaces/Build-testing/assets/notation/g-major-scale-two-octave.ly:10:28:29">
<g transform="translate(26.6170, 29.1377)">
<text font-family="serif" font-size="1.9594" text-anchor="start" fill="currentColor">
<tspan>7</tspan>
</text>
</g>
</a>
<a style="color:inherit;" xlink:href="textedit:///workspaces/Build-testing/assets/notation/g-major-scale-two-octave.ly:10:20:21">
<g transform="translate(20.8209, 29.1377)">
<text font-family="serif" font-size="1.9594" text-anchor="start" fill="currentColor">
<tspan>5</tspan>
</text>
</g>
</a>
<g transform="translate(20.8932, 22.1207)">
<rect x="-0.0935" y="-0.3496" width="0.1870" height="3.3496" ry="0.0667" fill="currentColor"/>
</g>
</svg>
