<svg xmlns="http://www.w3.org/2000/svg" xmlns:xlink="http://www.w3.org/1999/xlink" version="1.2" width="36.58mm" height="11.11mm" viewBox="0.0000 0.0001 29.7369 9.0293">
<style type="text/css">
<![CDATA[
tspan { white-space: pre; }
]]>
</style>
<g transform="translate(0.0000, 7.4721)">
<line stroke-linejoin="round" stroke-linecap="round" stroke-width="0.1282" stroke="currentColor" x1="0.0641" y1="0" x2="29.6728" y2="0"/>
</g>
<g transform="translate(0.0000, 6.4721)">
<line stroke-linejoin="round" stroke-linecap="round" stroke-width="0.1282" stroke="currentColor" x1="0.0641" y1="0" x2="29.6728" y2="0"/>
</g>
<g transform="translate(0.0000, 5.4721)">
<line stroke-linejoin="round" stroke-linecap="round" stroke-width="0.1282" stroke="currentColor" x1="0.0641" y1="0" x2="29.6728" y2="0"/>
</g>
<g transform="translate(0.0000, 4.4721)">
<line stroke-linejoin="round" stroke-linecap="round" stroke-width="0.1282" stroke="currentColor" x1="0.0641" y1="0" x2="29.6728" y2="0"/>
</g>
<g transform="translate(0.0000, 3.4721)">
<line stroke-linejoin="round" stroke-linecap="round" stroke-width="0.1282" stroke="currentColor" x1="0.0641" y1="0" x2="29.6728" y2="0"/>
</g>
<g transform="translate(29.4934, 5.4721)">
<rect x="0.0000" y="-2.0000" width="0.2435" height="4.0000" ry="0.0000" fill="currentColor"/>
</g>
<g transform="translate(28.8654, 5.4721)">
<rect x="0.0000" y="-2.0000" width="0.2435" height="4.0000" ry="0.0000" fill="currentColor"/>
</g>
<g transform="translate(18.2499, 5.4721)">
<rect x="0.0000" y="-2.0000" width="0.2435" height="4.0000" ry="0.0000" fill="currentColor"/>
</g>
<g transform="translate(0.0000, 2.4721)">
<rect x="25.7233" y="-0.1141" width="1.9471" height="0.2282" ry="0.1141" fill="currentColor"/>
</g>
<g transform="translate(0.0000, 8.4721)">
<rect x="5.4755" y="-0.1141" width="1.9471" height="0.2282" ry="0.1141" fill="currentColor"/>
</g>
<a style="color:inherit;" xlink:href="textedit:///workspaces/Build-testing/assets/notation/mode-ionian-chord.ly:19:6:7">
<g transform="translate(22.8017, 3.4721)">
<path transform="scale(0.0040, -0.0040)" d="M208 139c69 0 117 -40 117 -99c0 -91 -107 -179 -209 -179c-69 0 -116 40 -116 99c0 91 106 179 208 179z" fill="currentColor"/>
</g>
</a>
<g transform="translate(19.6389, 5.4721)">
<rect x="-0.0833" y="-0.8382" width="0.1666" height="3.3382" ry="0.0571" fill="currentColor"/>
</g>
<a style="color:inherit;" xlink:href="textedit:///workspaces/Build-testing/assets/notation/mode-ionian-chord.ly:18:9:10">
<g transform="translate(19.5556, 2.9080)">
<text font-family="serif" font-size="1.9600" text-anchor="start" fill="currentColor">
<tspan>9</tspan>
</text>
</g>
</a>
<a style="color:inherit;" xlink:href="textedit:///workspaces/Build-testing/assets/notation/mode-ionian-chord.ly:18:6:7">
<g transform="translate(19.5556, 4.4721)">
<path transform="scale(0.0040, -0.0040)" d="M208 139c69 0 117 -40 117 -99c0 -91 -107 -179 -209 -179c-69 0 -116 40 -116 99c0 91 106 179 208 179z" fill="currentColor"/>
</g>
</a>
<a style="color:inherit;" xlink:href="textedit:///workspaces/Build-testing/assets/notation/mode-ionian-chord.ly:19:9:10">
<g transform="translate(22.8017, 2.4548)">
<text font-family="serif" font-size="1.9600" text-anchor="start" fill="currentColor">
<tspan>11</tspan>
</text>
</g>
</a>
<g transform="translate(26.1311, 5.4721)">
<rect x="-0.0833" y="-2.8382" width="0.1666" height="3.3382" ry="0.0571" fill="currentColor"/>
</g>
<a style="color:inherit;" xlink:href="textedit:///workspaces/Build-testing/assets/notation/mode-ionian-chord.ly:20:9:10">
<g transform="translate(26.0478, 1.4548)">
<text font-family="serif" font-size="1.9600" text-anchor="start" fill="currentColor">
<tspan>13</tspan>
</text>
</g>
</a>
<a style="color:inherit;" xlink:href="textedit:///workspaces/Build-testing/assets/notation/mode-ionian-chord.ly:20:6:7">
<g transform="translate(26.0478, 2.4721)">
<path transform="scale(0.0040, -0.0040)" d="M208 139c69 0 117 -40 117 -99c0 -91 -107 -179 -209 -179c-69 0 -116 40 -116 99c0 91 106 179 208 179z" fill="currentColor"/>
</g>
</a>
<g transform="translate(22.8850, 5.4721)">
<rect x="-0.0833" y="-1.8382" width="0.1666" height="3.3382" ry="0.0571" fill="currentColor"/>
</g>
<g transform="translate(10.2609, 5.4721)">
<rect x="-0.0833" y="-1.5000" width="0.1666" height="3.3382" ry="0.0571" fill="currentColor"/>
</g>
<a style="color:inherit;" xlink:href="textedit:///workspaces/Build-testing/assets/notation/mode-ionian-chord.ly:15:6:7">
<g transform="translate(9.0461, 7.4721)">
<path transform="scale(0.0040, -0.0040)" d="M208 139c69 0 117 -40 117 -99c0 -91 -107 -179 -209 -179c-69 0 -116 40 -116 99c0 91 106 179 208 179z" fill="currentColor"/>
</g>
</a>
<a style="color:inherit;" xlink:href="textedit:///workspaces/Build-testing/assets/notation/mode-ionian-chord.ly:15:8:9">
<g transform="translate(9.0461, 2.9080)">
<text font-family="serif" font-size="1.9600" text-anchor="start" fill="currentColor">
<tspan>3</tspan>
</text>
</g>
</a>
<g transform="translate(7.0148, 5.4721)">
<rect x="-0.0833" y="-0.5000" width="0.1666" height="3.3382" ry="0.0571" fill="currentColor"/>
</g>
<a style="color:inherit;" xlink:href="textedit:///workspaces/Build-testing/assets/notation/mode-ionian-chord.ly:14:6:7">
<g transform="translate(5.8000, 8.4721)">
<path transform="scale(0.0040, -0.0040)" d="M208 139c69 0 117 -40 117 -99c0 -91 -107 -179 -209 -179c-69 0 -116 40 -116 99c0 91 106 179 208 179z" fill="currentColor"/>
</g>
</a>
<g transform="translate(0.8000, 6.4721)">
<path transform="scale(0.0040, -0.0040)" d="M648 2c0 -114 -74 -214 -179 -248c2 -32 3 -65 3 -97c0 -21 -1 -43 -2 -64c-7 -123 -92 -230 -211 -230c-108 0 -197 88 -197 197c0 58 54 104 113 104c54 0 95 -48 95 -104c0 -52 -43 -95 -95 -95c-8 0 -16 2 -24 4c25 -35 65 -59 111 -59c93 0 155 90 161 190
c1 20 2 39 2 59c0 28 -1 55 -3 83c-5 -1 -43 -7 -87 -7c-194 0 -333 181 -333 377c0 176 128 307 242 443c-36 105 -58 171 -58 348c0 113 54 219 146 286c8 6 21 7 29 0c69 -78 136 -242 136 -357c0 -141 -83 -253 -174 -362c22 -67 41 -135 58 -204h9
c157 0 258 -130 258 -264zM464 -200c62 24 108 86 108 159c0 87 -62 173 -163 187c28 -132 47 -265 55 -346zM338 -218c1 0 46 0 80 6c-7 68 -26 209 -58 359c-79 -7 -123 -59 -123 -116c0 -43 24 -89 78 -120c5 -5 8 -11 8 -17c0 -13 -11 -24 -24 -24
c-17 0 -129 63 -129 189c0 90 60 178 164 201c-14 56 -30 112 -47 167c-104 -122 -208 -245 -208 -404c0 -143 140 -241 259 -241zM239 782c0 -43 15 -102 41 -183c77 97 140 199 140 323c0 58 -8 83 -19 113c-99 -45 -162 -145 -162 -253z" fill="currentColor"/>
</g>
<a style="color:inherit;" xlink:href="textedit:///workspaces/Build-testing/assets/notation/mode-ionian-chord.ly:14:9:10">
<g transform="translate(5.8000, 2.9080)">
<text font-family="serif" font-size="1.9600" text-anchor="start" fill="currentColor">
<tspan>1</tspan>
</text>
</g>
</a>
<g transform="translate(15.4683, 5.4721)">
<rect x="-0.0833" y="0.1618" width="0.1666" height="3.1715" ry="0.0571" fill="currentColor"/>
</g>
<a style="color:inherit;" xlink:href="textedit:///workspaces/Build-testing/assets/notation/mode-ionian-chord.ly:17:8:9">
<g transform="translate(15.3850, 2.9080)">
<text font-family="serif" font-size="1.9600" text-anchor="start" fill="currentColor">
<tspan>7</tspan>
</text>
</g>
</a>
<a style="color:inherit;" xlink:href="textedit:///workspaces/Build-testing/assets/notation/mode-ionian-chord.ly:17:6:7">
<g transform="translate(15.3850, 5.4721)">
<path transform="scale(0.0040, -0.0040)" d="M208 139c69 0 117 -40 117 -99c0 -91 -107 -179 -209 -179c-69 0 -116 40 -116 99c0 91 106 179 208 179z" fill="currentColor"/>
</g>
</a>
<g transform="translate(13.5071, 5.4721)">
<rect x="-0.0833" y="-2.5000" width="0.1666" height="3.3382" ry="0.0571" fill="currentColor"/>
</g>
<a style="color:inherit;" xlink:href="textedit:///workspaces/Build-testing/assets/notation/mode-ionian-chord.ly:16:8:9">
<g transform="translate(12.2923, 2.6107)">
<text font-family="serif" font-size="1.9600" text-anchor="start" fill="currentColor">
<tspan>5</tspan>
</text>
</g>
</a>
<a style="color:inherit;" xlink:href="textedit:///workspaces/Build-testing/assets/notation/mode-ionian-chord.ly:16:6:7">
<g transform="translate(12.2923, 6.4721)">
<path transform="scale(0.0040, -0.0040)" d="M208 139c69 0 117 -40 117 -99c0 -91 -107 -179 -209 -179c-69 0 -116 40 -116 99c0 91 106 179 208 179z" fill="currentColor"/>
</g>
</a>
</svg>
